TITLE:   INS4_R4_092117 
FCM: NON-DROP FRAME
001  FKI_LEAD A     C        00:00:00:00 00:00:00:00 04:00:00:00 04:00:08:00 
* FROM CLIP NAME:  FKI_LEADER_HEAD_1920X1080.MOV 
* SOURCE FILE: FKI_LEADER_HEAD_1920X1080.MOV
002  FKI_LEAD A2    C        00:00:00:00 00:00:00:00 04:00:00:00 04:00:08:00 
* FROM CLIP NAME:  FKI_LEADER_HEAD_1920X1080.MOV 
* SOURCE FILE: FKI_LEADER_HEAD_1920X1080.MOV
003  FKI_LEAD A3    C        00:00:00:00 00:00:00:00 04:00:00:00 04:00:08:00 
* FROM CLIP NAME:  FKI_LEADER_HEAD_1920X1080.MOV 
* PATCH FKI_LEAD:  FROM SOURCE 1 TO RECORD 3 
* SOURCE FILE: FKI_LEADER_HEAD_1920X1080.MOV
004  SR023    A     C        18:12:39:14 18:12:42:15 04:00:08:00 04:00:11:00 
* FROM CLIP NAME:  98-2A 
* SOURCE FILE: A230C009_160915_R1BY
005  SR023    A     C        18:12:45:22 18:12:48:16 04:00:11:00 04:00:13:17 
* FROM CLIP NAME:  98-2A 
* SOURCE FILE: A230C009_160915_R1BY
006  FALLOUT0 A2    C        00:00:00:00 00:00:00:00 04:00:13:10 04:00:14:16 
* FROM CLIP NAME:  W98/1 
* PATCH FALLOUT0:  FROM SOURCE 1 TO RECORD 2 
* SOURCE FILE: FALLOUT025
007  SR023    A     C        18:12:33:22 18:12:35:05 04:00:13:17 04:00:14:23 
* FROM CLIP NAME:  98-2A 
* SOURCE FILE: A230C009_160915_R1BY
008  SR023    A     C        18:12:49:21 18:12:53:03 04:00:14:23 04:00:18:04 
* FROM CLIP NAME:  98-2A 
* SOURCE FILE: A230C009_160915_R1BY
009  FALLOUT0 A2    C        00:00:00:00 00:00:00:00 04:00:18:04 04:00:19:09 
* FROM CLIP NAME:  W98/1 
* PATCH FALLOUT0:  FROM SOURCE 1 TO RECORD 2 
* SOURCE FILE: FALLOUT025
010  SR023    A     C        18:12:34:03 18:12:37:08 04:00:18:04 04:00:21:08 
* FROM CLIP NAME:  98-2A 
* SOURCE FILE: A230C009_160915_R1BY
011  FALLOUT0 A2    C        00:00:00:00 00:00:00:00 04:00:19:09 04:00:20:11 
* FROM CLIP NAME:  W98/1 
* PATCH FALLOUT0:  FROM SOURCE 1 TO RECORD 2 
* SOURCE FILE: FALLOUT025
012  SR023    A     C        18:12:56:06 18:13:02:04 04:00:21:08 04:00:27:05 
* FROM CLIP NAME:  98-2A 
* SOURCE FILE: A230C009_160915_R1BY
013  FALLOUT0 A2    C        00:00:00:00 00:00:00:00 04:00:26:13 04:00:27:14 
* FROM CLIP NAME:  W98/1 
* PATCH FALLOUT0:  FROM SOURCE 1 TO RECORD 2 
* SOURCE FILE: FALLOUT025
014  SR023    A     C        18:26:46:13 18:26:46:23 04:00:27:05 04:00:27:14 
* FROM CLIP NAME:  98A-2 
* SOURCE FILE: A230C009_160915_R1BY
015  SR023    A     C        18:27:04:15 18:27:06:20 04:00:27:14 04:00:29:18 
* FROM CLIP NAME:  98A-2 
* SOURCE FILE: A230C009_160915_R1BY
016  SR023    A     C        18:27:10:11 18:27:11:13 04:00:29:18 04:00:30:19 
* FROM CLIP NAME:  98A-2 
* SOURCE FILE: A230C009_160915_R1BY
017  SR023    A     C        18:27:07:20 18:27:09:03 04:00:30:19 04:00:32:01 
* FROM CLIP NAME:  98A-2 
* SOURCE FILE: A230C009_160915_R1BY
018  SR025    A     C        17:42:15:08 17:42:19:20 04:00:32:01 04:00:36:12 
* FROM CLIP NAME:  99K-1A 
* SOURCE FILE: A251C008_160919_R1BY
019  SR025    A     C        18:00:34:23 18:00:41:19 04:00:36:12 04:00:43:07 
* FROM CLIP NAME:  99K-4 
* SOURCE FILE: A251C008_160919_R1BY
020  SR025    A3    C        16:05:57:13 16:05:59:14 04:00:39:16 04:00:41:16 
* FROM CLIP NAME:  V99H-1 
* PATCH SR025:  FROM SOURCE 1 TO RECORD 3 
* SOURCE FILE: A251C008_160919_R1BY
021  SR025    A     C        18:13:34:14 18:13:38:07 04:00:43:07 04:00:46:23 
* FROM CLIP NAME:  99L-2 
* SOURCE FILE: A251C008_160919_R1BY
022  SR025    A     C        18:36:19:05 18:36:20:09 04:00:46:23 04:00:48:02 
* FROM CLIP NAME:  99M-2A 
* SOURCE FILE: A251C008_160919_R1BY
023  CASSIDY_ A3    C        00:00:00:00 00:00:00:00 04:00:47:20 04:00:49:08 
* FROM CLIP NAME:  CASSIDY NABER -KF-2 TAKES.MP3 
* PATCH CASSIDY_:  FROM SOURCE 1 TO RECORD 3 
* SOURCE FILE: CASSIDY NABER -KF-2 TAKES.MP3
024  SR025    A     C        18:36:22:00 18:36:30:19 04:00:48:02 04:00:56:20 
* FROM CLIP NAME:  99M-2A 
* SOURCE FILE: A251C008_160919_R1BY
025  SR025    A3    C        16:05:56:12 16:06:03:03 04:00:55:00 04:01:01:14 
* FROM CLIP NAME:  V99H-1 
* PATCH SR025:  FROM SOURCE 1 TO RECORD 3 
* SOURCE FILE: A251C008_160919_R1BY
026  SR025    A     C        18:00:25:20 18:00:28:20 04:00:56:20 04:00:59:19 
* FROM CLIP NAME:  99K-4 
* SOURCE FILE: A251C008_160919_R1BY
027  SR025    A     C        18:00:48:18 18:00:53:12 04:00:59:19 04:01:04:12 
* FROM CLIP NAME:  99K-4 
* SOURCE FILE: A251C008_160919_R1BY
028  SR025    A     C        18:00:26:07 18:00:27:12 04:01:04:12 04:01:05:16 
* FROM CLIP NAME:  99K-4 
* SOURCE FILE: A251C008_160919_R1BY
029  SR025    A     C        18:00:54:15 18:00:55:23 04:01:05:16 04:01:06:23 
* FROM CLIP NAME:  99K-4 
* SOURCE FILE: A251C008_160919_R1BY
030  SR025    A     C        19:10:55:21 19:11:02:18 04:01:06:23 04:01:13:19 
* FROM CLIP NAME:  99P-2 
* SOURCE FILE: A251C008_160919_R1BY
031  SR025    A     C        18:36:53:09 18:37:00:02 04:01:13:19 04:01:20:11 
* FROM CLIP NAME:  99M-2A 
* SOURCE FILE: A251C008_160919_R1BY
032  SR025    A     C        18:48:10:04 18:48:13:13 04:01:20:11 04:01:23:19 
* FROM CLIP NAME:  99N-1A 
* SOURCE FILE: A251C008_160919_R1BY
033  SR025    A     C        19:09:48:20 19:09:51:00 04:01:23:19 04:01:25:22 
* FROM CLIP NAME:  99P-2 
* SOURCE FILE: A251C008_160919_R1BY
034  SR025    A     C        18:32:01:08 18:32:04:06 04:01:25:22 04:01:28:19 
* FROM CLIP NAME:  99M-1A 
* SOURCE FILE: A251C008_160919_R1BY
035  SR025    A     C        19:09:55:07 19:09:59:23 04:01:28:19 04:01:33:10 
* FROM CLIP NAME:  99P-2 
* SOURCE FILE: A251C008_160919_R1BY
036  SR025    A     C        18:48:18:12 18:48:21:18 04:01:33:10 04:01:36:15 
* FROM CLIP NAME:  99N-1A 
* SOURCE FILE: A251C008_160919_R1BY
037  SR025    A     C        18:44:44:18 18:44:45:20 04:01:36:15 04:01:37:16 
* FROM CLIP NAME:  99N-1A 
* SOURCE FILE: A251C008_160919_R1BY
038  SR025    A     C        18:48:22:18 18:48:24:00 04:01:37:16 04:01:38:21 
* FROM CLIP NAME:  99N-1A 
* SOURCE FILE: A251C008_160919_R1BY
039  SR025    A     C        19:05:44:05 19:05:46:13 04:01:38:21 04:01:41:04 
* FROM CLIP NAME:  99P-1 
* SOURCE FILE: A251C008_160919_R1BY
040  SR025    A     C        18:48:27:09 18:48:29:16 04:01:41:04 04:01:43:10 
* FROM CLIP NAME:  99N-1A 
* SOURCE FILE: A251C008_160919_R1BY
041  SR025    A     C        19:11:35:18 19:11:39:03 04:01:43:10 04:01:46:18 
* FROM CLIP NAME:  99P-2 
* SOURCE FILE: A251C008_160919_R1BY
042  SR025    A     C        19:11:32:18 19:11:33:22 04:01:46:18 04:01:47:21 
* FROM CLIP NAME:  99P-2 
* SOURCE FILE: A251C008_160919_R1BY
043  SR025    A     C        18:46:57:14 18:47:00:01 04:01:47:21 04:01:50:07 
* FROM CLIP NAME:  99N-1A 
* SOURCE FILE: A251C008_160919_R1BY
044  SR025    A     C        19:13:35:17 19:13:36:04 04:01:50:09 04:01:50:19 
* FROM CLIP NAME:  99P-2 
* SOURCE FILE: A251C008_160919_R1BY
045  SR025    A     C        19:13:34:16 19:13:35:07 04:01:50:19 04:01:51:09 
* FROM CLIP NAME:  99P-2 
* SOURCE FILE: A251C008_160919_R1BY
046  SR025    A     C        18:52:41:16 18:52:42:02 04:01:51:13 04:01:51:22 
* FROM CLIP NAME:  99N-2A 
* SOURCE FILE: A251C008_160919_R1BY
047  SR025    A     C        19:10:15:13 19:10:15:22 04:01:51:22 04:01:52:06 
* FROM CLIP NAME:  99P-2 
* SOURCE FILE: A251C008_160919_R1BY
048  SR025    A     C        16:56:36:20 16:56:37:04 04:01:52:06 04:01:52:13 
* FROM CLIP NAME:  V99J-5A 
* SOURCE FILE: A251C008_160919_R1BY
049  SR025    A     C        16:56:37:02 16:56:38:02 04:01:52:13 04:01:53:12 
* FROM CLIP NAME:  V99J-5A 
* SOURCE FILE: A251C008_160919_R1BY
050  SR025    A     C        14:20:44:00 14:20:51:20 04:01:53:12 04:02:01:07 
* FROM CLIP NAME:  99C-1A 
* SOURCE FILE: A251C008_160919_R1BY
051  SR025    A     C        14:20:53:01 14:21:01:14 04:02:01:07 04:02:09:19 
* FROM CLIP NAME:  99C-1A 
* SOURCE FILE: A251C008_160919_R1BY
052  SR025    A     C        12:25:06:13 12:25:10:21 04:02:09:19 04:02:14:02 
* FROM CLIP NAME:  V99-1A 
* SOURCE FILE: A251C008_160919_R1BY
053  SR025    A2    C        16:05:50:20 16:05:53:08 04:02:10:17 04:02:13:04 
* FROM CLIP NAME:  V99H-1 
* PATCH SR025:  FROM SOURCE 1 TO RECORD 2 
* SOURCE FILE: A251C008_160919_R1BY
054  SR025    A     C        12:25:15:19 12:25:24:20 04:02:14:02 04:02:23:02 
* FROM CLIP NAME:  V99-1A 
* SOURCE FILE: A251C008_160919_R1BY
055  SR025    A     C        12:33:30:08 12:33:35:23 04:02:23:02 04:02:28:16 
* FROM CLIP NAME:  V99-2A 
* SOURCE FILE: A251C008_160919_R1BY
056  SR025    A     C        12:38:55:20 12:38:57:10 04:02:28:16 04:02:30:05 
* FROM CLIP NAME:  V99-3A 
* SOURCE FILE: A251C008_160919_R1BY
057  SR025    A2    C        16:05:56:01 16:05:57:12 04:02:30:05 04:02:31:15 
* FROM CLIP NAME:  V99H-1 
* PATCH SR025:  FROM SOURCE 1 TO RECORD 2 
* SOURCE FILE: A251C008_160919_R1BY
058  SR025    A     C        14:21:04:06 14:21:10:10 04:02:30:05 04:02:36:08 
* FROM CLIP NAME:  99C-1A 
* SOURCE FILE: A251C008_160919_R1BY
059  SR025    A2    C        16:05:59:23 16:06:00:09 04:02:31:15 04:02:32:00 
* FROM CLIP NAME:  V99H-1 
* PATCH SR025:  FROM SOURCE 1 TO RECORD 2 
* SOURCE FILE: A251C008_160919_R1BY
060  SR025    A2    C        16:05:48:14 16:05:50:08 04:02:32:00 04:02:33:17 
* FROM CLIP NAME:  V99H-1 
* PATCH SR025:  FROM SOURCE 1 TO RECORD 2 
* SOURCE FILE: A251C008_160919_R1BY
061  SR025    A2    C        16:06:03:01 16:06:03:20 04:02:33:17 04:02:34:11 
* FROM CLIP NAME:  V99H-1 
* PATCH SR025:  FROM SOURCE 1 TO RECORD 2 
* SOURCE FILE: A251C008_160919_R1BY
062  SR025    A2    C        16:06:05:22 16:06:07:20 04:02:34:11 04:02:36:08 
* FROM CLIP NAME:  V99H-1 
* PATCH SR025:  FROM SOURCE 1 TO RECORD 2 
* SOURCE FILE: A251C008_160919_R1BY
063  SR025    A2    C        16:06:09:01 16:06:09:15 04:02:36:08 04:02:36:21 
* FROM CLIP NAME:  V99H-1 
* PATCH SR025:  FROM SOURCE 1 TO RECORD 2 
* SOURCE FILE: A251C008_160919_R1BY
064  SR025    A     C        14:21:05:13 14:21:06:15 04:02:36:08 04:02:37:09 
* FROM CLIP NAME:  99C-1A 
* SOURCE FILE: A251C008_160919_R1BY
065  SR025    A2    C        16:06:12:05 16:06:15:17 04:02:36:21 04:02:40:08 
* FROM CLIP NAME:  V99H-1 
* PATCH SR025:  FROM SOURCE 1 TO RECORD 2 
* SOURCE FILE: A251C008_160919_R1BY
066  SR025    A     C        12:42:57:22 12:43:00:22 04:02:37:09 04:02:40:08 
* FROM CLIP NAME:  V99-4PUA 
* SOURCE FILE: A251C008_160919_R1BY
067  SR025    A     C        12:42:59:17 12:42:59:22 04:02:40:08 04:02:40:12 
* FROM CLIP NAME:  V99-4PUA 
* SOURCE FILE: A251C008_160919_R1BY
068  SR025    A2    C        16:06:16:05 16:06:17:22 04:02:40:08 04:02:42:00 
* FROM CLIP NAME:  V99H-1 
* PATCH SR025:  FROM SOURCE 1 TO RECORD 2 
* SOURCE FILE: A251C008_160919_R1BY
069  SR025    A     C        12:43:08:15 12:43:11:05 04:02:40:12 04:02:43:01 
* FROM CLIP NAME:  V99-4PUA 
* SOURCE FILE: A251C008_160919_R1BY
070  SR025    A2    C        16:05:46:07 16:05:48:17 04:02:42:00 04:02:44:09 
* FROM CLIP NAME:  V99H-1 
* PATCH SR025:  FROM SOURCE 1 TO RECORD 2 
* SOURCE FILE: A251C008_160919_R1BY
071  SR025    A     C        14:23:06:23 14:23:07:04 04:02:43:01 04:02:43:05 
* FROM CLIP NAME:  99C-1A 
* TO CLIP NAME:  V99-4PUA 
* SOURCE FILE: A251C008_160919_R1BY
072  SR025    A     C        14:23:07:03 14:23:08:08 04:02:43:05 04:02:44:09 
* FROM CLIP NAME:  99C-1A 
* SOURCE FILE: A251C008_160919_R1BY
073  SR019    A     C        13:11:54:10 13:11:56:20 04:02:46:09 04:02:48:18 
* FROM CLIP NAME:  V104A-1A 
* SOURCE FILE: A190C005_160909_R1BY
074  SR019    A     C        13:11:58:05 13:11:58:18 04:02:48:18 04:02:49:06 
* FROM CLIP NAME:  V104A-1A 
* TO CLIP NAME:  V104A-1A 
* SOURCE FILE: A190C005_160909_R1BY
075  SR019    A     C        13:11:58:17 13:12:02:20 04:02:49:06 04:02:53:08 
* FROM CLIP NAME:  V104A-1A 
* SOURCE FILE: A190C005_160909_R1BY
076  SR025    A     C        14:23:09:00 14:23:09:12 04:02:53:08 04:02:53:19 
* FROM CLIP NAME:  99C-1A 
* SOURCE FILE: A251C008_160919_R1BY
077  SR025    A3    C        16:05:50:06 16:05:53:00 04:02:53:08 04:02:56:01 
* FROM CLIP NAME:  V99H-1 
* PATCH SR025:  FROM SOURCE 1 TO RECORD 3 
* SOURCE FILE: A251C008_160919_R1BY
078  SR025    A     C        14:52:20:08 14:52:22:15 04:02:53:19 04:02:56:01 
* FROM CLIP NAME:  V99D-2A 
* SOURCE FILE: A251C008_160919_R1BY
079  SR025    A     C        14:52:26:11 14:52:26:20 04:02:56:01 04:02:56:09 
* FROM CLIP NAME:  V99D-2A 
* TO CLIP NAME:  V99D-2A 
* SOURCE FILE: A251C008_160919_R1BY
080  SR025    A3    C        16:05:57:18 16:06:00:06 04:02:56:01 04:02:58:12 
* FROM CLIP NAME:  V99H-1 
* PATCH SR025:  FROM SOURCE 1 TO RECORD 3 
* SOURCE FILE: A251C008_160919_R1BY
081  SR025    A     C        14:52:26:19 14:52:30:08 04:02:56:09 04:02:59:21 
* FROM CLIP NAME:  V99D-2A 
* SOURCE FILE: A251C008_160919_R1BY
082  SR025    A3    C        16:06:00:16 16:06:01:01 04:02:58:12 04:02:58:20 
* FROM CLIP NAME:  V99H-1 
* PATCH SR025:  FROM SOURCE 1 TO RECORD 3 
* SOURCE FILE: A251C008_160919_R1BY
083  SR025    A3    C        16:06:03:11 16:06:04:13 04:02:58:20 04:02:59:21 
* FROM CLIP NAME:  V99H-1 
* PATCH SR025:  FROM SOURCE 1 TO RECORD 3 
* SOURCE FILE: A251C008_160919_R1BY
084  SR025    A     C        14:52:31:18 14:52:32:06 04:02:59:21 04:03:00:08 
* FROM CLIP NAME:  V99D-2A 
* SOURCE FILE: A251C008_160919_R1BY
085  SR025    A3    C        16:06:05:23 16:06:08:01 04:02:59:21 04:03:01:22 
* FROM CLIP NAME:  V99H-1 
* PATCH SR025:  FROM SOURCE 1 TO RECORD 3 
* SOURCE FILE: A251C008_160919_R1BY
086  SR025    A     C        14:52:32:02 14:52:32:11 04:03:00:08 04:03:00:16 
* FROM CLIP NAME:  V99D-2A 
* TO CLIP NAME:  V99D-2A 
* SOURCE FILE: A251C008_160919_R1BY
087  SR025    A     C        14:52:32:10 14:52:34:06 04:03:00:16 04:03:02:11 
* FROM CLIP NAME:  V99D-2A 
* SOURCE FILE: A251C008_160919_R1BY
088  SR025    A3    C        16:06:08:13 16:06:09:17 04:03:01:22 04:03:03:01 
* FROM CLIP NAME:  V99H-1 
* PATCH SR025:  FROM SOURCE 1 TO RECORD 3 
* SOURCE FILE: A251C008_160919_R1BY
089  SR025    A     C        14:52:26:21 14:52:28:10 04:03:02:11 04:03:03:23 
* FROM CLIP NAME:  V99D-2A 
* SOURCE FILE: A251C008_160919_R1BY
090  SR025    A3    C        16:06:12:05 16:06:14:16 04:03:03:01 04:03:05:11 
* FROM CLIP NAME:  V99H-1 
* PATCH SR025:  FROM SOURCE 1 TO RECORD 3 
* SOURCE FILE: A251C008_160919_R1BY
091  SR025    A2    C        12:33:07:14 12:33:08:03 04:03:03:12 04:03:04:00 
* FROM CLIP NAME:  V99-2A 
* PATCH SR025:  FROM SOURCE 1 TO RECORD 2 
* SOURCE FILE: A251C008_160919_R1BY
092  SR025    A     C        16:04:48:09 16:04:49:16 04:03:04:17 04:03:05:23 
* FROM CLIP NAME:  V99G-1 
* SOURCE FILE: A251C008_160919_R1BY
093  SR025    A3    C        16:06:15:00 16:06:17:18 04:03:05:11 04:03:08:04 
* FROM CLIP NAME:  V99H-1 
* PATCH SR025:  FROM SOURCE 1 TO RECORD 3 
* SOURCE FILE: A251C008_160919_R1BY
094  SR025    A     C        16:04:53:11 16:04:54:22 04:03:05:23 04:03:07:09 
* FROM CLIP NAME:  V99G-1 
* SOURCE FILE: A251C008_160919_R1BY
095  SR025    A     C        16:08:10:23 16:08:11:16 04:03:07:09 04:03:08:01 
* FROM CLIP NAME:  V99H-1 
* SOURCE FILE: A251C008_160919_R1BY
096  SR025    A     C        16:08:12:04 16:08:16:05 04:03:08:01 04:03:12:01 
* FROM CLIP NAME:  V99H-1 
* SOURCE FILE: A251C008_160919_R1BY
097  SR025    A3    C        16:06:18:07 16:06:22:05 04:03:08:04 04:03:12:01 
* FROM CLIP NAME:  V99H-1 
* PATCH SR025:  FROM SOURCE 1 TO RECORD 3 
* SOURCE FILE: A251C008_160919_R1BY
098  SR014    A     C        13:29:58:09 13:30:04:04 04:03:12:01 04:03:17:19 
* FROM CLIP NAME:  106-8 
* SOURCE FILE: A155C008_160902_R1BY
099  SR014    A     C        13:30:14:17 13:30:15:21 04:03:17:19 04:03:18:22 
* FROM CLIP NAME:  106-8 
* SOURCE FILE: A155C008_160902_R1BY
100  SR015    A     C        14:06:41:02 14:06:42:01 04:03:18:22 04:03:19:20 
* FROM CLIP NAME:  106B-2 
* SOURCE FILE: B114C002_160902_R16W
101  SR014    A2    C        13:30:12:11 13:30:14:02 04:03:19:10 04:03:21:00 
* FROM CLIP NAME:  106-8 
* PATCH SR014:  FROM SOURCE 1 TO RECORD 2 
* SOURCE FILE: A155C008_160902_R1BY
102  SR025    A3    C        16:07:44:07 16:07:50:16 04:03:21:00 04:03:27:08 
* FROM CLIP NAME:  V99H-1.SUB.02 
* PATCH SR025:  FROM SOURCE 1 TO RECORD 3 
* SOURCE FILE: A251C008_160919_R1BY
103  SR025    A     C        16:04:31:23 16:04:35:11 04:03:27:08 04:03:30:19 
* FROM CLIP NAME:  V99H-1 
* SOURCE FILE: A251C008_160919_R1BY
104  SR025    A3    C        16:08:01:06 16:08:06:15 04:03:27:08 04:03:32:16 
* FROM CLIP NAME:  V99H-1.SUB.02 
* PATCH SR025:  FROM SOURCE 1 TO RECORD 3 
* SOURCE FILE: A251C008_160919_R1BY
105  SR025    A     C        16:04:26:19 16:04:26:21 04:03:30:19 04:03:30:20 
* FROM CLIP NAME:  V99H-1 
* SOURCE FILE: A251C008_160919_R1BY
106  SR025    A     C        16:04:29:13 16:04:29:15 04:03:30:20 04:03:30:21 
* FROM CLIP NAME:  V99H-1 
* SOURCE FILE: A251C008_160919_R1BY
107  SR025    A     C        12:39:45:07 12:39:47:03 04:03:30:21 04:03:32:16 
* FROM CLIP NAME:  V99-3A 
* SOURCE FILE: A251C008_160919_R1BY
108  SR025    A     C        12:39:48:13 12:39:49:05 04:03:32:16 04:03:33:07 
* FROM CLIP NAME:  V99-3A 
* SOURCE FILE: A251C008_160919_R1BY
109  SR025    A3    C        16:08:07:14 16:08:09:22 04:03:32:16 04:03:34:23 
* FROM CLIP NAME:  V99H-1.SUB.02 
* PATCH SR025:  FROM SOURCE 1 TO RECORD 3 
* SOURCE FILE: A251C008_160919_R1BY
110  SR025    A     C        14:59:17:01 14:59:18:18 04:03:33:07 04:03:34:23 
* FROM CLIP NAME:  V99E-1A 
* SOURCE FILE: A251C008_160919_R1BY
111  SR014    A2    C        13:30:14:01 13:30:14:06 04:03:34:23 04:03:35:03 
* FROM CLIP NAME:  106-8 
* PATCH SR014:  FROM SOURCE 1 TO RECORD 2 
* SOURCE FILE: A155C008_160902_R1BY
112  SR025    A     C        10:00:52:04 10:00:55:12 04:03:34:23 04:03:38:06 
* FROM CLIP NAME:  110A-2A 
* SOURCE FILE: A251C008_160919_R1BY
113  SR024    A2    C        10:25:43:17 10:25:44:12 04:03:35:03 04:03:35:21 
* FROM CLIP NAME:  81-1 
* PATCH SR024:  FROM SOURCE 1 TO RECORD 2 
* SOURCE FILE: A239C003_160916_R1BY
114  SR024    A2    C        10:25:47:07 10:25:49:06 04:03:35:21 04:03:37:19 
* FROM CLIP NAME:  81-1 
* PATCH SR024:  FROM SOURCE 1 TO RECORD 2 
* SOURCE FILE: A239C003_160916_R1BY
115  SR025    A2    C        10:32:52:14 10:32:58:01 04:03:38:03 04:03:43:13 
* FROM CLIP NAME:  110B-2A 
* PATCH SR025:  FROM SOURCE 1 TO RECORD 2 
* SOURCE FILE: A251C008_160919_R1BY
116  SR025    A     C        10:33:01:08 10:33:02:17 04:03:43:13 04:03:44:21 
* FROM CLIP NAME:  110B-2A 
* SOURCE FILE: A251C008_160919_R1BY
117  SR025    A     C        10:33:03:01 10:33:05:08 04:03:44:21 04:03:47:03 
* FROM CLIP NAME:  110B-2A 
* SOURCE FILE: A251C008_160919_R1BY
118  SR025    A     C        10:01:04:21 10:01:07:01 04:03:47:03 04:03:49:06 
* FROM CLIP NAME:  110A-2A 
* SOURCE FILE: A251C008_160919_R1BY
119  SR025    A     C        10:28:59:18 10:29:01:18 04:03:49:06 04:03:51:05 
* FROM CLIP NAME:  110B-1A 
* SOURCE FILE: A251C008_160919_R1BY
120  SR017    A     C        17:40:16:07 17:40:18:00 04:03:51:05 04:03:52:21 
* FROM CLIP NAME:  111F-1 
* SOURCE FILE: A182C002_160907_R1BY
121  SR017    A     C        14:46:33:12 14:46:37:13 04:03:52:21 04:03:56:21 
* FROM CLIP NAME:  111A-2A 
* SOURCE FILE: A182C002_160907_R1BY
122  SR017    A     C        16:19:55:17 16:19:56:06 04:03:56:21 04:03:57:09 
* FROM CLIP NAME:  111C-4A 
* TO CLIP NAME:  111A-2A 
* SOURCE FILE: A182C002_160907_R1BY
123  SR017    A     C        16:19:56:05 16:19:57:21 04:03:57:09 04:03:59:00 
* FROM CLIP NAME:  111C-4A 
* SOURCE FILE: A182C002_160907_R1BY
124  SR017    A     C        14:38:41:19 14:38:42:17 04:03:59:00 04:03:59:21 
* FROM CLIP NAME:  111A-1A 
* SOURCE FILE: A182C002_160907_R1BY
125  SR017    A     C        14:38:44:09 14:38:50:17 04:03:59:21 04:04:06:04 
* FROM CLIP NAME:  111A-1A 
* SOURCE FILE: A182C002_160907_R1BY
126  SR017    A2    C        14:47:00:20 14:47:04:04 04:04:04:13 04:04:07:20 
* FROM CLIP NAME:  111A-2A 
* PATCH SR017:  FROM SOURCE 1 TO RECORD 2 
* SOURCE FILE: A182C002_160907_R1BY
127  SR017    A     C        16:20:11:11 16:20:11:13 04:04:06:04 04:04:06:05 
* FROM CLIP NAME:  111C-4A 
* SOURCE FILE: A182C002_160907_R1BY
128  SR017    A2    C        14:47:12:13 14:47:17:02 04:04:07:20 04:04:12:08 
* FROM CLIP NAME:  111A-2A 
* PATCH SR017:  FROM SOURCE 1 TO RECORD 2 
* SOURCE FILE: A182C002_160907_R1BY
129  SR017    A     C        16:20:23:18 16:20:26:17 04:04:08:07 04:04:11:05 
* FROM CLIP NAME:  111C-4A 
* SOURCE FILE: A182C002_160907_R1BY
130  SR017    A     C        16:18:08:20 16:18:10:21 04:04:11:05 04:04:13:05 
* FROM CLIP NAME:  111C-3A 
* SOURCE FILE: A182C002_160907_R1BY
131  SR017    A     C        16:18:11:05 16:18:11:11 04:04:13:05 04:04:13:10 
* FROM CLIP NAME:  111C-3A 
* SOURCE FILE: A182C002_160907_R1BY
132  SR017    A     C        16:18:12:11 16:18:15:06 04:04:13:10 04:04:16:04 
* FROM CLIP NAME:  111C-3A 
* SOURCE FILE: A182C002_160907_R1BY
133  SR017    A2    C        16:20:33:06 16:20:37:20 04:04:16:04 04:04:20:17 
* FROM CLIP NAME:  111C-4A 
* PATCH SR017:  FROM SOURCE 1 TO RECORD 2 
* SOURCE FILE: A182C002_160907_R1BY
134  SR017    A     C        14:39:40:07 14:39:40:11 04:04:20:17 04:04:20:20 
* FROM CLIP NAME:  111A-1A 
* SOURCE FILE: A182C002_160907_R1BY
135  SR017    A2    C        16:20:39:02 16:20:39:06 04:04:20:17 04:04:20:20 
* FROM CLIP NAME:  111C-4A 
* PATCH SR017:  FROM SOURCE 1 TO RECORD 2 
* SOURCE FILE: A182C002_160907_R1BY
136  SR017    A     C        16:20:52:20 16:20:53:12 04:04:20:20 04:04:21:11 
* FROM CLIP NAME:  111C-4A 
* SOURCE FILE: A182C002_160907_R1BY
137  SR017    A2    C        14:55:53:19 14:55:54:11 04:04:20:20 04:04:21:11 
* FROM CLIP NAME:  111B-1 
* PATCH SR017:  FROM SOURCE 1 TO RECORD 2 
* SOURCE FILE: A182C002_160907_R1BY
138  SR017    A     C        16:20:56:12 16:20:57:16 04:04:21:11 04:04:22:14 
* FROM CLIP NAME:  111C-4A 
* SOURCE FILE: A182C002_160907_R1BY
139  SR017    A2    C        14:56:04:20 14:56:06:00 04:04:21:11 04:04:22:14 
* FROM CLIP NAME:  111B-1 
* PATCH SR017:  FROM SOURCE 1 TO RECORD 2 
* SOURCE FILE: A182C002_160907_R1BY
140  SR017    A     C        14:56:15:10 14:56:19:19 04:04:22:14 04:04:26:22 
* FROM CLIP NAME:  111B-1 
* SOURCE FILE: A182C002_160907_R1BY
141  SR017    A     C        14:40:02:06 14:40:08:16 04:04:26:22 04:04:33:07 
* FROM CLIP NAME:  111A-1A 
* SOURCE FILE: A182C002_160907_R1BY
142  SR017    A     C        16:45:26:00 16:45:28:02 04:04:33:07 04:04:35:08 
* FROM CLIP NAME:  111D-3A 
* SOURCE FILE: A182C002_160907_R1BY
143  SR017    A     C        14:56:28:16 14:56:30:04 04:04:35:08 04:04:36:19 
* FROM CLIP NAME:  111B-1 
* SOURCE FILE: A182C002_160907_R1BY
144  SR017    A     C        14:56:27:10 14:56:28:17 04:04:36:19 04:04:38:01 
* FROM CLIP NAME:  111B-1 
* SOURCE FILE: A182C002_160907_R1BY
145  SR017    A3    C        16:39:27:08 16:39:28:15 04:04:36:19 04:04:38:01 
* FROM CLIP NAME:  111D-1A 
* PATCH SR017:  FROM SOURCE 1 TO RECORD 3 
* SOURCE FILE: A182C002_160907_R1BY
146  SR017    A2    C        16:45:32:14 16:45:34:03 04:04:36:21 04:04:38:09 
* FROM CLIP NAME:  111D-3A 
* PATCH SR017:  FROM SOURCE 1 TO RECORD 2 
* SOURCE FILE: A182C002_160907_R1BY
147  SR017    A     C        14:56:28:16 14:56:30:06 04:04:38:01 04:04:39:14 
* FROM CLIP NAME:  111B-1 
* SOURCE FILE: A182C002_160907_R1BY
148  SR017    A     C        14:56:30:05 14:56:31:08 04:04:39:14 04:04:40:16 
* FROM CLIP NAME:  111B-1 
* SOURCE FILE: A182C002_160907_R1BY
149  SR017    A3    C        16:39:31:09 16:39:32:12 04:04:39:14 04:04:40:16 
* FROM CLIP NAME:  111D-1A 
* PATCH SR017:  FROM SOURCE 1 TO RECORD 3 
* SOURCE FILE: A182C002_160907_R1BY
150  SR017    A     C        14:56:31:07 14:56:33:12 04:04:40:16 04:04:42:20 
* FROM CLIP NAME:  111B-1 
* SOURCE FILE: A182C002_160907_R1BY
151  SR017    A     C        14:56:34:11 14:56:37:01 04:04:42:20 04:04:45:09 
* FROM CLIP NAME:  111B-1 
* SOURCE FILE: A182C002_160907_R1BY
152  SR017    A     C        14:56:42:18 14:56:46:22 04:04:45:09 04:04:49:12 
* FROM CLIP NAME:  111B-1 
* SOURCE FILE: A182C002_160907_R1BY
153  SR017    A     C        14:56:51:17 14:57:00:07 04:04:49:12 04:04:58:01 
* FROM CLIP NAME:  111B-1 
* SOURCE FILE: A182C002_160907_R1BY
154  SR017    A     C        14:57:00:06 14:57:00:08 04:04:58:01 04:04:58:02 
* FROM CLIP NAME:  111B-1 
* SOURCE FILE: A182C002_160907_R1BY
155  SR017    A     C        14:57:00:09 14:57:00:16 04:04:58:02 04:04:58:08 
* FROM CLIP NAME:  111B-1 
* SOURCE FILE: A182C002_160907_R1BY
156  SR017    A     C        14:56:54:12 14:56:55:09 04:04:58:08 04:04:59:04 
* FROM CLIP NAME:  111B-1 
* SOURCE FILE: A182C002_160907_R1BY
157  SR017    A2    C        14:57:01:00 14:57:02:01 04:04:58:08 04:04:59:08 
* FROM CLIP NAME:  111B-1 
* PATCH SR017:  FROM SOURCE 1 TO RECORD 2 
* SOURCE FILE: A182C002_160907_R1BY
158  SR017    A     C        14:57:02:00 14:57:07:07 04:04:59:04 04:05:04:10 
* FROM CLIP NAME:  111B-1 
* SOURCE FILE: A182C002_160907_R1BY
159  SR017    A     C        14:40:51:09 14:40:51:18 04:05:04:10 04:05:04:18 
* FROM CLIP NAME:  111A-1A 
* TO CLIP NAME:  111B-1 
* SOURCE FILE: A182C002_160907_R1BY
160  SR017    A     C        14:40:51:17 14:40:52:07 04:05:04:18 04:05:05:07 
* FROM CLIP NAME:  111A-1A 
* SOURCE FILE: A182C002_160907_R1BY
161  SR017    A     C        14:57:11:19 14:57:12:05 04:05:05:07 04:05:05:16 
* FROM CLIP NAME:  111B-1 
* SOURCE FILE: A182C002_160907_R1BY
162  SR017    A     C        14:57:12:18 14:57:14:10 04:05:05:16 04:05:07:07 
* FROM CLIP NAME:  111B-1 
* SOURCE FILE: A182C002_160907_R1BY
163  SR017    A2    C        14:56:46:23 14:56:48:19 04:05:06:18 04:05:08:13 
* FROM CLIP NAME:  111B-1 
* PATCH SR017:  FROM SOURCE 1 TO RECORD 2 
* SOURCE FILE: A182C002_160907_R1BY
164  SR017    A     C        14:57:15:02 14:57:16:07 04:05:08:01 04:05:09:05 
* FROM CLIP NAME:  111B-1 
* SOURCE FILE: A182C002_160907_R1BY
165  SR017    A     C        14:57:16:06 14:57:16:23 04:05:09:05 04:05:09:21 
* FROM CLIP NAME:  111B-1 
* SOURCE FILE: A182C002_160907_R1BY
166  SR017    A     C        14:57:16:22 14:57:21:10 04:05:09:21 04:05:14:08 
* FROM CLIP NAME:  111B-1 
* SOURCE FILE: A182C002_160907_R1BY
167  SR017    A     C        14:57:21:22 14:57:22:06 04:05:14:08 04:05:14:15 
* FROM CLIP NAME:  111B-1 
* SOURCE FILE: A182C002_160907_R1BY
168  SR017    A     C        16:46:27:14 16:46:33:02 04:05:14:15 04:05:20:02 
* FROM CLIP NAME:  111D-3A 
* SOURCE FILE: A182C002_160907_R1BY
169  SR017    A     C        16:46:33:01 16:46:34:22 04:05:20:02 04:05:21:22 
* FROM CLIP NAME:  111D-3A 
* SOURCE FILE: A182C002_160907_R1BY
170  SR014    A2    C        20:10:12:06 20:10:14:01 04:05:20:04 04:05:21:22 
* FROM CLIP NAME:  112-5A 
* PATCH SR014:  FROM SOURCE 1 TO RECORD 2 
* SOURCE FILE: A155C008_160902_R1BY
171  SR014    A2    C        20:10:14:00 20:10:16:05 04:05:21:22 04:05:24:02 
* FROM CLIP NAME:  112-5A 
* PATCH SR014:  FROM SOURCE 1 TO RECORD 2 
* SOURCE FILE: A155C008_160902_R1BY
172  SR014    A     C        20:10:17:12 20:10:18:13 04:05:24:02 04:05:25:02 
* FROM CLIP NAME:  112-5A 
* SOURCE FILE: A155C008_160902_R1BY
173  SR014    A2    C        20:44:31:08 20:44:33:15 04:05:24:02 04:05:26:08 
* FROM CLIP NAME:  112B-1A 
* PATCH SR014:  FROM SOURCE 1 TO RECORD 2 
* SOURCE FILE: A155C008_160902_R1BY
174  TEMP_ADR A3    C        00:00:00:00 00:00:00:00 04:05:24:02 04:05:26:10 
* FROM CLIP NAME:  I NEED THINGS THAT WERE IMPORTANT TO GARZA 
* PATCH TEMP_ADR:  FROM SOURCE 1 TO RECORD 3 
* SOURCE FILE: TEMP ADR
175  SR014    A     C        20:10:17:12 20:10:18:13 04:05:25:02 04:05:26:02 
* FROM CLIP NAME:  112-5A 
* SOURCE FILE: A155C008_160902_R1BY
176  SR014    A     C        20:10:17:12 20:10:17:19 04:05:26:02 04:05:26:08 
* FROM CLIP NAME:  112-5A 
* SOURCE FILE: A155C008_160902_R1BY
177  SR014    A     C        20:27:39:12 20:27:41:17 04:05:26:08 04:05:28:12 
* FROM CLIP NAME:  112A-1A 
* SOURCE FILE: A155C008_160902_R1BY
178  SR014    A     C        20:45:52:13 20:45:59:01 04:05:28:12 04:05:34:23 
* FROM CLIP NAME:  112B-1A 
* SOURCE FILE: A155C008_160902_R1BY
179  SR014    A     C        20:44:43:06 20:44:45:01 04:05:34:23 04:05:36:17 
* FROM CLIP NAME:  112B-1A 
* SOURCE FILE: A155C008_160902_R1BY
180  SR014    A     C        20:29:48:19 20:29:51:17 04:05:36:17 04:05:39:14 
* FROM CLIP NAME:  112A-2A 
* SOURCE FILE: A155C008_160902_R1BY
181  SR014    A     C        20:44:47:16 20:44:50:15 04:05:39:14 04:05:42:12 
* FROM CLIP NAME:  112B-1A 
* SOURCE FILE: A155C008_160902_R1BY
182  SR014    A     C        20:27:54:19 20:27:54:21 04:05:42:12 04:05:42:13 
* FROM CLIP NAME:  112A-1A 
* SOURCE FILE: A155C008_160902_R1BY
183  SR014    A     C        20:10:34:13 20:10:35:10 04:05:42:13 04:05:43:09 
* FROM CLIP NAME:  112-5A 
* SOURCE FILE: A155C008_160902_R1BY
184  SR014    A     C        20:27:55:12 20:27:57:00 04:05:43:09 04:05:44:20 
* FROM CLIP NAME:  112A-1A 
* SOURCE FILE: A155C008_160902_R1BY
185  SR014    A     C        20:06:40:11 20:06:42:18 04:05:44:20 04:05:47:02 
* FROM CLIP NAME:  112-4B 
* PATCH SR014:  FROM SOURCE 5 TO RECORD 1 
* SOURCE FILE: A155C008_160902_R1BY
186  SR014    A     C        20:06:42:17 20:06:48:23 04:05:47:02 04:05:53:07 
* FROM CLIP NAME:  112-4A 
* SOURCE FILE: A155C008_160902_R1BY
187  SR014    A     C        20:06:48:22 20:06:49:08 04:05:53:07 04:05:53:16 
* FROM CLIP NAME:  112-4A 
* SOURCE FILE: A155C008_160902_R1BY
188  SR012    A     C        09:54:38:01 09:54:39:18 04:05:53:16 04:05:55:08 
* FROM CLIP NAME:  122-5 
* SOURCE FILE: A123C006_160830_R1BY
189  SR012    A     C        10:51:30:11 10:51:33:22 04:05:55:08 04:05:58:18 
* FROM CLIP NAME:  122A-2A 
* SOURCE FILE: A123C006_160830_R1BY
190  SR012    A     C        10:49:46:01 10:49:50:02 04:05:58:18 04:06:02:18 
* FROM CLIP NAME:  122A-2A 
* SOURCE FILE: A123C006_160830_R1BY
191  SR012    A     C        10:50:06:22 10:50:08:14 04:06:02:18 04:06:04:09 
* FROM CLIP NAME:  122A-2A 
* SOURCE FILE: A123C006_160830_R1BY
192  SR012    A     C        10:49:53:00 10:49:56:00 04:06:04:09 04:06:07:08 
* FROM CLIP NAME:  122A-2A 
* SOURCE FILE: A123C006_160830_R1BY
193  SR012    A     C        10:51:49:02 10:51:50:20 04:06:07:08 04:06:09:01 
* FROM CLIP NAME:  122A-2A 
* SOURCE FILE: A123C006_160830_R1BY
194  SR012    A     C        11:21:00:08 11:21:00:11 04:06:09:01 04:06:09:03 
* FROM CLIP NAME:  122A-5PUA 
* SOURCE FILE: A123C006_160830_R1BY
195  SR012    A     C        10:55:06:15 10:55:09:17 04:06:09:03 04:06:12:04 
* FROM CLIP NAME:  122A-2A 
* SOURCE FILE: A123C006_160830_R1BY
196  SR012    A     C        11:21:01:12 11:21:02:20 04:06:12:04 04:06:13:11 
* FROM CLIP NAME:  122A-5PUA 
* SOURCE FILE: A123C006_160830_R1BY
197  SR012    A     C        10:55:10:01 10:55:14:05 04:06:13:11 04:06:17:14 
* FROM CLIP NAME:  122A-2A 
* SOURCE FILE: A123C006_160830_R1BY
198  SR012    A2    C        10:57:23:01 10:57:24:15 04:06:17:04 04:06:18:17 
* FROM CLIP NAME:  122A-2A 
* PATCH SR012:  FROM SOURCE 1 TO RECORD 2 
* SOURCE FILE: A123C006_160830_R1BY
199  SR012    A     C        10:57:24:14 10:57:25:14 04:06:18:17 04:06:19:16 
* FROM CLIP NAME:  122A-2A 
* SOURCE FILE: A123C006_160830_R1BY
200  SR012    A     C        10:57:25:13 10:57:34:01 04:06:19:16 04:06:28:03 
* FROM CLIP NAME:  122A-2A 
* SOURCE FILE: A123C006_160830_R1BY
201  SR012    A     C        10:57:34:18 10:57:37:11 04:06:28:03 04:06:30:19 
* FROM CLIP NAME:  122A-2A 
* SOURCE FILE: A123C006_160830_R1BY
202  SR012    A     C        10:57:39:08 10:57:41:17 04:06:30:19 04:06:33:03 
* FROM CLIP NAME:  122A-2A 
* SOURCE FILE: A123C006_160830_R1BY
203  SR024    A     C        17:47:36:16 17:47:39:01 04:06:33:03 04:06:35:11 
* FROM CLIP NAME:  113-3A 
* SOURCE FILE: A239C003_160916_R1BY
204  SR024    A     C        17:40:02:20 17:40:05:19 04:06:35:11 04:06:38:09 
* FROM CLIP NAME:  113-2A 
* SOURCE FILE: A239C003_160916_R1BY
205  SR024    A     C        17:40:12:11 17:40:15:10 04:06:38:09 04:06:41:07 
* FROM CLIP NAME:  113-2A 
* SOURCE FILE: A239C003_160916_R1BY
206  SR024    A     C        19:19:29:03 19:19:31:15 04:06:41:07 04:06:43:18 
* FROM CLIP NAME:  113D-2A 
* SOURCE FILE: A239C003_160916_R1BY
207  SR024    A     C        19:19:43:07 19:19:48:23 04:06:43:18 04:06:49:09 
* FROM CLIP NAME:  113D-2A 
* SOURCE FILE: A239C003_160916_R1BY
208  SR024    A     C        19:19:52:07 19:19:53:05 04:06:49:09 04:06:50:06 
* FROM CLIP NAME:  113D-2A 
* SOURCE FILE: A239C003_160916_R1BY
209  SR024    A     C        19:19:50:17 19:19:53:01 04:06:50:06 04:06:52:13 
* FROM CLIP NAME:  113D-2A 
* SOURCE FILE: A239C003_160916_R1BY
210  SR024    A     C        20:20:13:18 20:20:15:21 04:06:52:13 04:06:54:15 
* FROM CLIP NAME:  113E-1A 
* SOURCE FILE: A239C003_160916_R1BY
211  SR024    A     C        20:20:16:05 20:20:17:17 04:06:54:15 04:06:56:02 
* FROM CLIP NAME:  113E-1A 
* SOURCE FILE: A239C003_160916_R1BY
212  SR024    A     C        20:20:17:16 20:20:19:19 04:06:56:02 04:06:58:04 
* FROM CLIP NAME:  113E-1A 
* SOURCE FILE: A239C003_160916_R1BY
213  SR024    A     C        20:20:19:18 20:20:21:12 04:06:58:04 04:06:59:21 
* FROM CLIP NAME:  113E-1A 
* SOURCE FILE: A239C003_160916_R1BY
214  SR024    A     C        20:20:22:06 20:20:23:06 04:06:59:21 04:07:00:20 
* FROM CLIP NAME:  113E-1A 
* SOURCE FILE: A239C003_160916_R1BY
215  SR024    A     C        20:20:21:01 20:20:22:13 04:07:00:20 04:07:02:07 
* FROM CLIP NAME:  113E-1A 
* SOURCE FILE: A239C003_160916_R1BY
216  SR024    A     C        20:20:21:06 20:20:22:16 04:07:02:07 04:07:03:16 
* FROM CLIP NAME:  113E-1A 
* SOURCE FILE: A239C003_160916_R1BY
217  SR024    A     C        20:20:23:17 20:20:25:01 04:07:03:16 04:07:04:23 
* FROM CLIP NAME:  113E-1A 
* SOURCE FILE: A239C003_160916_R1BY
218  SR024    A     C        20:20:22:07 20:20:26:16 04:07:04:23 04:07:09:07 
* FROM CLIP NAME:  113E-1A 
* SOURCE FILE: A239C003_160916_R1BY
219  SR024    A     C        20:20:27:05 20:20:30:04 04:07:09:07 04:07:12:05 
* FROM CLIP NAME:  113E-1A 
* SOURCE FILE: A239C003_160916_R1BY
220  SR024    A     C        20:21:59:14 20:22:03:16 04:07:12:05 04:07:16:06 
* FROM CLIP NAME:  113F-3A 
* SOURCE FILE: A239C003_160916_R1BY
221  SR024    A     C        20:37:08:05 20:37:11:22 04:07:16:06 04:07:19:22 
* FROM CLIP NAME:  113F-5A 
* SOURCE FILE: A239C003_160916_R1BY
222  SR024    A     C        20:37:12:08 20:37:14:20 04:07:19:22 04:07:22:09 
* FROM CLIP NAME:  113F-5A 
* SOURCE FILE: A239C003_160916_R1BY
223  SR024    A     C        21:02:20:12 21:02:21:01 04:07:22:09 04:07:22:21 
* FROM CLIP NAME:  113G-1A 
* TO CLIP NAME:  113F-5A 
* SOURCE FILE: A239C003_160916_R1BY
224  SR024    A     C        21:02:21:00 21:02:24:18 04:07:22:21 04:07:26:14 
* FROM CLIP NAME:  113G-1A 
* SOURCE FILE: A239C003_160916_R1BY
225  SR024    A     C        21:04:14:13 21:04:17:02 04:07:26:14 04:07:29:02 
* FROM CLIP NAME:  113G-1A 
* SOURCE FILE: A239C003_160916_R1BY
226  SR024    A     C        21:04:10:16 21:04:12:06 04:07:29:02 04:07:30:15 
* FROM CLIP NAME:  113G-1A 
* SOURCE FILE: A239C003_160916_R1BY
227  SR024    A     C        21:04:12:19 21:04:16:15 04:07:30:15 04:07:34:10 
* FROM CLIP NAME:  113G-1A 
* SOURCE FILE: A239C003_160916_R1BY
228  SR024    A     C        21:04:23:06 21:04:24:15 04:07:34:10 04:07:35:18 
* FROM CLIP NAME:  113G-1A 
* SOURCE FILE: A239C003_160916_R1BY
229  SR024    A     C        21:02:38:17 21:02:41:20 04:07:35:18 04:07:38:20 
* FROM CLIP NAME:  113G-1A 
* SOURCE FILE: A239C003_160916_R1BY
230  SR021    A     C        19:10:23:12 19:10:25:03 04:07:38:20 04:07:40:10 
* FROM CLIP NAME:  114-3 
* SOURCE FILE: A212C001_160913_R1BY
231  SR021    A     C        19:35:23:03 19:35:31:08 04:07:40:10 04:07:48:14 
* FROM CLIP NAME:  114A-2A 
* SOURCE FILE: A212C001_160913_R1BY
232  SR024    A     C        20:33:04:04 20:33:08:02 04:07:48:14 04:07:52:11 
* FROM CLIP NAME:  113F-4A 
* SOURCE FILE: A239C003_160916_R1BY
233  SR021    A2    C        19:30:39:15 19:30:41:21 04:07:50:06 04:07:52:11 
* FROM CLIP NAME:  114A-1A 
* PATCH SR021:  FROM SOURCE 1 TO RECORD 2 
* SOURCE FILE: A212C001_160913_R1BY
234  SR021    A2    C        19:30:41:20 19:30:49:01 04:07:52:11 04:07:59:15 
* FROM CLIP NAME:  114A-1A 
* PATCH SR021:  FROM SOURCE 1 TO RECORD 2 
* SOURCE FILE: A212C001_160913_R1BY
235  SR021    A     C        19:11:20:23 19:11:26:10 04:07:59:15 04:08:05:01 
* FROM CLIP NAME:  114-3 
* SOURCE FILE: A212C001_160913_R1BY
236  SR021    A3    C        19:37:01:18 19:37:08:08 04:08:04:07 04:08:10:20 
* FROM CLIP NAME:  114A-2A 
* PATCH SR021:  FROM SOURCE 1 TO RECORD 3 
* SOURCE FILE: A212C001_160913_R1BY
237  SR021    A2    C        19:31:29:03 19:31:31:19 04:08:05:01 04:08:07:16 
* FROM CLIP NAME:  114A-1A 
* PATCH SR021:  FROM SOURCE 1 TO RECORD 2 
* SOURCE FILE: A212C001_160913_R1BY
238  SR021    A     C        19:31:33:19 19:31:37:19 04:08:05:01 04:08:09:00 
* FROM CLIP NAME:  114A-1A 
* SOURCE FILE: A212C001_160913_R1BY
239  SR021    A     C        19:37:15:22 19:37:17:02 04:08:09:00 04:08:10:03 
* FROM CLIP NAME:  114A-2A 
* SOURCE FILE: A212C001_160913_R1BY
240  SR021    A     C        19:11:50:13 19:11:52:15 04:08:10:03 04:08:12:04 
* FROM CLIP NAME:  114-3 
* SOURCE FILE: A212C001_160913_R1BY
241  SR021    A     C        19:59:02:23 19:59:05:10 04:08:12:04 04:08:14:14 
* FROM CLIP NAME:  116D-2A 
* SOURCE FILE: A212C001_160913_R1BY
242  SR021    A     C        20:00:23:21 20:00:26:01 04:08:14:14 04:08:16:17 
* FROM CLIP NAME:  116D-2A 
* SOURCE FILE: A212C001_160913_R1BY
243  SR021    A     C        20:00:00:14 20:00:01:04 04:08:16:17 04:08:17:06 
* FROM CLIP NAME:  116D-2A 
* SOURCE FILE: A212C001_160913_R1BY
244  SR021    A     C        20:00:27:11 20:00:27:13 04:08:17:06 04:08:17:07 
* FROM CLIP NAME:  116D-2A 
* SOURCE FILE: A212C001_160913_R1BY
245  SR021    A     C        19:12:25:17 19:12:26:23 04:08:17:07 04:08:18:12 
* FROM CLIP NAME:  114-3 
* SOURCE FILE: A212C001_160913_R1BY
246  SR021    A     C        20:00:34:15 20:00:37:19 04:08:18:12 04:08:21:15 
* FROM CLIP NAME:  116D-2A 
* SOURCE FILE: A212C001_160913_R1BY
247  SR024    A     C        20:33:10:05 20:33:11:23 04:08:21:15 04:08:23:08 
* FROM CLIP NAME:  113F-4A 
* SOURCE FILE: A239C003_160916_R1BY
248  SR024    A     C        20:22:32:17 20:22:34:05 04:08:23:08 04:08:24:19 
* FROM CLIP NAME:  113F-3A 
* SOURCE FILE: A239C003_160916_R1BY
249  SR024    A     C        20:33:12:23 20:33:14:21 04:08:24:19 04:08:26:16 
* FROM CLIP NAME:  113F-4A 
* SOURCE FILE: A239C003_160916_R1BY
250  SR021    A     C        13:46:32:17 13:46:35:21 04:08:26:16 04:08:29:19 
* FROM CLIP NAME:  117-2A 
* SOURCE FILE: A212C001_160913_R1BY
251  SR021    A     C        13:46:39:05 13:46:41:06 04:08:29:19 04:08:31:19 
* FROM CLIP NAME:  117-2A 
* SOURCE FILE: A212C001_160913_R1BY
252  SR021    A     C        13:46:53:04 13:46:53:21 04:08:31:19 04:08:32:11 
* FROM CLIP NAME:  117-2A 
* SOURCE FILE: A212C001_160913_R1BY
253  SR021    A     C        13:46:53:20 13:46:55:02 04:08:32:11 04:08:33:16 
* FROM CLIP NAME:  117-2A 
* SOURCE FILE: A212C001_160913_R1BY
254  SR021    A     C        15:43:38:19 15:43:41:13 04:08:33:16 04:08:36:09 
* FROM CLIP NAME:  117A-5 
* SOURCE FILE: A212C001_160913_R1BY
255  SR006    A2    C        13:12:02:07 13:12:04:00 04:08:34:17 04:08:36:09 
* FROM CLIP NAME:  62K-2 
* PATCH SR006:  FROM SOURCE 1 TO RECORD 2 
* SOURCE FILE: A059C004_160822_R1BY
256  SR021    A     C        16:13:48:02 16:13:48:23 04:08:36:09 04:08:37:05 
* FROM CLIP NAME:  117B-3A 
* SOURCE FILE: A212C001_160913_R1BY
257  SR006    A2    C        13:12:03:23 13:12:04:20 04:08:36:09 04:08:37:05 
* FROM CLIP NAME:  62K-2 
* PATCH SR006:  FROM SOURCE 1 TO RECORD 2 
* SOURCE FILE: A059C004_160822_R1BY
258  SR006    A2    C        13:12:04:19 13:12:08:20 04:08:37:05 04:08:41:05 
* FROM CLIP NAME:  62K-2 
* PATCH SR006:  FROM SOURCE 1 TO RECORD 2 
* SOURCE FILE: A059C004_160822_R1BY
259  SR021    A     C        15:43:44:09 15:43:47:14 04:08:41:01 04:08:44:05 
* FROM CLIP NAME:  117A-5 
* SOURCE FILE: A212C001_160913_R1BY
260  SR006    A2    C        13:12:09:12 13:12:11:18 04:08:41:05 04:08:43:10 
* FROM CLIP NAME:  62K-2 
* PATCH SR006:  FROM SOURCE 1 TO RECORD 2 
* SOURCE FILE: A059C004_160822_R1BY
261  SR021    A2    C        16:14:53:03 16:14:55:02 04:08:44:05 04:08:46:03 
* FROM CLIP NAME:  117B-3A 
* PATCH SR021:  FROM SOURCE 1 TO RECORD 2 
* SOURCE FILE: A212C001_160913_R1BY
262  SR006    A     C        09:41:52:08 09:41:54:13 04:08:45:16 04:08:47:20 
* FROM CLIP NAME:  62A-1A 
* SOURCE FILE: A059C004_160822_R1BY
263  SR006    A     C        09:42:08:07 09:42:10:06 04:08:47:20 04:08:49:18 
* FROM CLIP NAME:  62A-1A 
* SOURCE FILE: A059C004_160822_R1BY
264  SR006    A2    C        13:09:05:02 13:09:06:02 04:08:49:08 04:08:50:07 
* FROM CLIP NAME:  62K-2 
* PATCH SR006:  FROM SOURCE 1 TO RECORD 2 
* SOURCE FILE: A059C004_160822_R1BY
265  SR006    A     C        09:52:30:16 09:52:31:15 04:08:49:20 04:08:50:18 
* FROM CLIP NAME:  62B-2A 
* SOURCE FILE: A059C004_160822_R1BY
266  SR006    A     C        13:09:08:08 13:09:11:00 04:08:50:18 04:08:53:09 
* FROM CLIP NAME:  62K-2 
* SOURCE FILE: A059C004_160822_R1BY
267  SR006    A     C        10:25:39:15 10:25:41:14 04:08:53:09 04:08:55:07 
* FROM CLIP NAME:  62D-1A 
* SOURCE FILE: A059C004_160822_R1BY
268  SR006    A     C        12:40:58:12 12:41:01:05 04:08:55:07 04:08:57:23 
* FROM CLIP NAME:  62J-1 
* SOURCE FILE: A059C004_160822_R1BY
269  SR021    A     C        16:42:46:21 16:42:50:16 04:08:57:23 04:09:01:17 
* FROM CLIP NAME:  118-3A 
* SOURCE FILE: A212C001_160913_R1BY
270  SR021    A     C        16:59:14:23 16:59:16:23 04:09:01:17 04:09:03:16 
* FROM CLIP NAME:  118A-1A 
* SOURCE FILE: A212C001_160913_R1BY
271  SR006    A     C        12:41:04:12 12:41:07:09 04:09:03:16 04:09:06:12 
* FROM CLIP NAME:  62J-1 
* SOURCE FILE: A059C004_160822_R1BY
272  SR006    A2    C        12:41:08:17 12:41:10:00 04:09:06:12 04:09:07:18 
* FROM CLIP NAME:  62J-1 
* PATCH SR006:  FROM SOURCE 1 TO RECORD 2 
* SOURCE FILE: A059C004_160822_R1BY
273  SR006    A     C        10:14:44:06 10:14:50:08 04:09:06:12 04:09:12:13 
* FROM CLIP NAME:  62C-2A 
* SOURCE FILE: A059C004_160822_R1BY
274  SR006    A2    C        10:25:59:16 10:26:03:07 04:09:09:18 04:09:13:08 
* FROM CLIP NAME:  62D-1A 
* PATCH SR006:  FROM SOURCE 1 TO RECORD 2 
* SOURCE FILE: A059C004_160822_R1BY
275  SR019    A3    C        17:03:40:23 17:03:43:06 04:09:12:18 04:09:15:00 
* FROM CLIP NAME:  65-4PUA 
* PATCH SR019:  FROM SOURCE 1 TO RECORD 3 
* SOURCE FILE: A190C005_160909_R1BY
276  SR021    A     C        17:33:10:10 17:33:14:17 04:09:15:00 04:09:19:06 
* FROM CLIP NAME:  120-2A 
* SOURCE FILE: A212C001_160913_R1BY
277  SR021    A     C        17:54:31:11 17:54:31:20 04:09:19:06 04:09:19:14 
* FROM CLIP NAME:  120C-1 
* SOURCE FILE: A212C001_160913_R1BY
278  SR021    A     C        17:33:14:19 17:33:18:02 04:09:19:14 04:09:22:20 
* FROM CLIP NAME:  120-2A 
* SOURCE FILE: A212C001_160913_R1BY
279  SR021    A     C        17:41:20:06 17:41:24:13 04:09:22:20 04:09:27:02 
* FROM CLIP NAME:  120A-2 
* SOURCE FILE: A212C001_160913_R1BY
280  SR021    A     C        17:41:34:05 17:41:34:14 04:09:27:02 04:09:27:10 
* FROM CLIP NAME:  120A-2 
* SOURCE FILE: A212C001_160913_R1BY
281  SR021    A3    C        17:41:33:08 17:41:35:23 04:09:27:08 04:09:29:22 
* FROM CLIP NAME:  120A-2 
* PATCH SR021:  FROM SOURCE 1 TO RECORD 3 
* SOURCE FILE: A212C001_160913_R1BY
282  SR021    A2    C        17:41:31:22 17:41:35:19 04:09:28:14 04:09:32:10 
* FROM CLIP NAME:  120A-2 
* PATCH SR021:  FROM SOURCE 1 TO RECORD 2 
* SOURCE FILE: A212C001_160913_R1BY
283  I4R4     A     C        10:51:16:14 10:51:19:19 04:09:31:04 04:09:34:09 
* FROM CLIP NAME:  R122A-5 
* SOURCE FILE: A017C005_170729_R0RO
284  I4R4     A     C        11:09:00:10 11:09:00:20 04:09:34:09 04:09:34:19 
* FROM CLIP NAME:  R122B-1 
* TO CLIP NAME:  R122A-5 
* SOURCE FILE: A017C005_170729_R0RO
285  I4R4     A     C        11:09:00:20 11:09:01:12 04:09:34:19 04:09:35:11 
* FROM CLIP NAME:  R122B-1 
* SOURCE FILE: A017C005_170729_R0RO
286  I4R4     A     C        10:51:22:02 10:51:36:07 04:09:35:11 04:09:49:16 
* FROM CLIP NAME:  R122A-5 
* SOURCE FILE: A017C005_170729_R0RO
287  I4R4     A     C        10:51:36:11 10:51:40:00 04:09:49:16 04:09:53:05 
* FROM CLIP NAME:  R122A-5 
* SOURCE FILE: A017C005_170729_R0RO
288  I4R4     A     C        10:47:21:13 10:47:33:08 04:09:53:05 04:10:05:00 
* FROM CLIP NAME:  R122A-4 
* SOURCE FILE: A017C005_170729_R0RO
289  I4R4     A     C        10:51:58:04 10:52:28:00 04:10:05:00 04:10:34:20 
* FROM CLIP NAME:  R122A-5 
* SOURCE FILE: A017C005_170729_R0RO
290  I4R4     A     C        08:49:30:16 08:49:37:16 04:10:53:14 04:11:00:14 
* FROM CLIP NAME:  R121-4 
* SOURCE FILE: A017C005_170729_R0RO
291  I4R3     A     C        08:49:28:02 08:49:32:16 04:11:00:14 04:11:05:04 
* FROM CLIP NAME:  A122-7 
* SOURCE FILE: A010C008_170728_R0RO
292  I4R4     A     C        11:53:28:08 11:53:29:17 04:11:06:01 04:11:07:10 
* FROM CLIP NAME:  R122C-1A 
* SOURCE FILE: A017C005_170729_R0RO
293  I4R4     A     C        11:53:26:20 11:53:27:17 04:11:07:10 04:11:08:07 
* FROM CLIP NAME:  R122C-1A 
* SOURCE FILE: A017C005_170729_R0RO
294  I4R4     A     C        08:59:27:19 08:59:34:16 04:11:08:07 04:11:15:04 
* FROM CLIP NAME:  R121-5 
* SOURCE FILE: A017C005_170729_R0RO
295  I4R4     A     C        11:53:44:22 11:53:48:10 04:11:15:04 04:11:18:16 
* FROM CLIP NAME:  R122C-1A 
* SOURCE FILE: A017C005_170729_R0RO
296  I4R4     A     C        11:53:49:08 11:53:54:08 04:11:18:16 04:11:23:16 
* FROM CLIP NAME:  R122C-1A 
* SOURCE FILE: A017C005_170729_R0RO
297  I4R4     A     C        08:59:55:00 09:00:05:03 04:11:23:16 04:11:33:19 
* FROM CLIP NAME:  R121-5 
* SOURCE FILE: A017C005_170729_R0RO
298  57_SHORT A3    C        00:00:00:00 00:00:00:00 04:11:26:17 04:11:27:16 
* FROM CLIP NAME:  57 SHORT MULTIPLE SCRAPES_ HIGH SQUEAL; METAL CHAIR SCRAPING AGAINST CEMENT FLOOR; MULTIPLE TIMES, CLOSE PERSPECTIVE.AIF 
* PATCH 57_SHORT:  FROM SOURCE 2 TO RECORD 3 
* SOURCE FILE: 57 SHORT MULTIPLE SCRAPES_ HIGH SQUEAL; METAL CHAIR SCRAPING AGAINST CEMENT FLOOR; MULTIPLE TIMES, CLOSE PERSPECTIVE.AIF
299  2-71_LEV A3    C        00:00:00:00 00:00:00:00 04:11:33:04 04:11:33:14 
* FROM CLIP NAME:  2-71 LEVER BIG LOW METAL BARREL.AIF 
* PATCH 2-71_LEV:  FROM SOURCE 1 TO RECORD 3 
* SOURCE FILE: 2-71 LEVER BIG LOW METAL BARREL.AIF
300  I4R4     A     C        09:00:08:10 09:00:10:14 04:11:33:19 04:11:35:23 
* FROM CLIP NAME:  R121-5 
* SOURCE FILE: A017C005_170729_R0RO
301  I4R4     A     C        09:00:07:07 09:00:23:02 04:11:35:23 04:11:51:18 
* FROM CLIP NAME:  R121-5 
* SOURCE FILE: A017C005_170729_R0RO
302  I4R4     A     C        08:39:20:05 08:39:22:10 04:11:51:18 04:11:53:23 
* FROM CLIP NAME:  R121-1 
* SOURCE FILE: A017C005_170729_R0RO
303  I4R4     A     C        11:54:49:06 11:54:51:19 04:11:53:23 04:11:56:12 
* FROM CLIP NAME:  R122C-1A 
* SOURCE FILE: A017C005_170729_R0RO
304  I4R4     A     C        08:50:51:19 08:51:05:10 04:11:56:12 04:12:10:03 
* FROM CLIP NAME:  R121-4 
* SOURCE FILE: A017C005_170729_R0RO
305  I4R3     A     C        11:31:26:14 11:31:33:14 04:12:10:03 04:12:17:03 
* FROM CLIP NAME:  A122C-5A 
* SOURCE FILE: A010C008_170728_R0RO
306  I4R3     A     C        11:20:32:11 11:20:37:19 04:12:17:03 04:12:22:11 
* FROM CLIP NAME:  A122C-4A 
* SOURCE FILE: A010C008_170728_R0RO
307  I4R3     A     C        11:31:34:23 11:31:37:06 04:12:22:11 04:12:24:18 
* FROM CLIP NAME:  A122C-5A 
* SOURCE FILE: A010C008_170728_R0RO
308  I4R3     A     C        16:38:29:23 16:38:33:08 04:12:24:18 04:12:28:03 
* FROM CLIP NAME:  A122H-2 
* SOURCE FILE: A010C008_170728_R0RO
309  I4R3     A     C        16:38:33:17 16:38:42:00 04:12:28:03 04:12:36:10 
* FROM CLIP NAME:  A122H-2 
* SOURCE FILE: A010C008_170728_R0RO
310  I4R3     A2    C        11:21:08:01 11:21:10:23 04:12:33:12 04:12:36:10 
* FROM CLIP NAME:  A122C-4A 
* PATCH I4R3:  FROM SOURCE 1 TO RECORD 2 
* SOURCE FILE: A010C008_170728_R0RO
311  I4R3     A     C        11:32:20:20 11:32:26:15 04:12:36:10 04:12:42:05 
* FROM CLIP NAME:  A122C-5A 
* SOURCE FILE: A010C008_170728_R0RO
312  I4R3     A     C        16:38:48:11 16:38:49:11 04:12:42:05 04:12:43:05 
* FROM CLIP NAME:  A122H-2 
* TO CLIP NAME:  A122C-5A 
* SOURCE FILE: A010C008_170728_R0RO
313  I4R3     A     C        16:38:49:11 16:38:50:12 04:12:43:05 04:12:44:06 
* FROM CLIP NAME:  A122H-2 
* SOURCE FILE: A010C008_170728_R0RO
314  I4R3     A     C        11:32:34:04 11:32:35:04 04:12:44:06 04:12:45:06 
* FROM CLIP NAME:  A122C-5A 
* TO CLIP NAME:  A122H-2 
* SOURCE FILE: A010C008_170728_R0RO
315  I4R3     A     C        11:32:35:04 11:32:35:20 04:12:45:06 04:12:45:22 
* FROM CLIP NAME:  A122C-5A 
* SOURCE FILE: A010C008_170728_R0RO
316  I4R3     A     C        11:32:42:10 11:32:44:04 04:12:45:22 04:12:47:16 
* FROM CLIP NAME:  A122C-5A 
* SOURCE FILE: A010C008_170728_R0RO
317  I4R3     A     C        16:39:36:07 16:39:37:07 04:12:47:16 04:12:48:16 
* FROM CLIP NAME:  A122H-2 
* TO CLIP NAME:  A122C-5A 
* SOURCE FILE: A010C008_170728_R0RO
318  I4R3     A     C        16:39:37:07 16:39:40:15 04:12:48:16 04:12:52:00 
* FROM CLIP NAME:  A122H-2 
* SOURCE FILE: A010C008_170728_R0RO
319  I4R3     A     C        16:39:38:21 16:39:40:09 04:12:52:00 04:12:53:12 
* FROM CLIP NAME:  A122H-2 
* SOURCE FILE: A010C008_170728_R0RO
320  I4R3     A     C        16:40:29:06 16:40:30:03 04:12:53:12 04:12:54:09 
* FROM CLIP NAME:  A122H-2 
* SOURCE FILE: A010C008_170728_R0RO
321  I4R3     A     C        16:40:31:14 16:40:34:21 04:12:54:09 04:12:57:16 
* FROM CLIP NAME:  A122H-2 
* SOURCE FILE: A010C008_170728_R0RO
322  I4R3     A2    C        11:33:16:03 11:33:18:17 04:12:54:13 04:12:57:03 
* FROM CLIP NAME:  A122C-5A 
* PATCH I4R3:  FROM SOURCE 1 TO RECORD 2 
* SOURCE FILE: A010C008_170728_R0RO
323  I4R3     A2    C        11:33:24:21 11:33:32:15 04:12:57:03 04:13:04:21 
* FROM CLIP NAME:  A122C-5A 
* PATCH I4R3:  FROM SOURCE 1 TO RECORD 2 
* SOURCE FILE: A010C008_170728_R0RO
324  I4R3     A2    C        11:21:27:16 11:21:31:23 04:13:04:21 04:13:09:04 
* FROM CLIP NAME:  A122C-4A 
* PATCH I4R3:  FROM SOURCE 1 TO RECORD 2 
* SOURCE FILE: A010C008_170728_R0RO
325  I4R3     A     C        16:39:08:00 16:39:11:15 04:13:08:11 04:13:12:02 
* FROM CLIP NAME:  A122H-2 
* SOURCE FILE: A010C008_170728_R0RO
326  I4R3     A3    C        16:40:00:16 16:40:01:19 04:13:10:17 04:13:11:20 
* FROM CLIP NAME:  A122H-2 
* PATCH I4R3:  FROM SOURCE 1 TO RECORD 3 
* SOURCE FILE: A010C008_170728_R0RO
327  I4R3     A     C        16:39:16:17 16:39:25:15 04:13:12:02 04:13:21:00 
* FROM CLIP NAME:  A122H-2 
* SOURCE FILE: A010C008_170728_R0RO
328  I4R3     A     C        11:33:07:12 11:33:11:10 04:13:21:00 04:13:24:22 
* FROM CLIP NAME:  A122C-5A 
* SOURCE FILE: A010C008_170728_R0RO
329  I4R3     A     C        11:33:43:23 11:33:51:03 04:13:24:22 04:13:32:02 
* FROM CLIP NAME:  A122C-5A 
* SOURCE FILE: A010C008_170728_R0RO
330  I4R3     A     C        11:33:55:03 11:34:04:20 04:13:32:02 04:13:41:19 
* FROM CLIP NAME:  A122C-5A 
* SOURCE FILE: A010C008_170728_R0RO
331  I4R3     A     C        11:34:02:10 11:34:11:23 04:13:41:19 04:13:51:08 
* FROM CLIP NAME:  A122C-5A 
* SOURCE FILE: A010C008_170728_R0RO
332  I4R3     A     C        11:34:11:19 11:34:13:05 04:13:51:08 04:13:52:18 
* FROM CLIP NAME:  A122C-5A 
* SOURCE FILE: A010C008_170728_R0RO
333  I4R3     A     C        11:34:13:21 11:34:17:04 04:13:52:18 04:13:56:01 
* FROM CLIP NAME:  A122C-5A 
* SOURCE FILE: A010C008_170728_R0RO
334  I4R3     A2    C        13:23:06:03 13:23:09:00 04:13:55:00 04:13:57:21 
* FROM CLIP NAME:  A122E-2 
* PATCH I4R3:  FROM SOURCE 1 TO RECORD 2 
* SOURCE FILE: A010C008_170728_R0RO
335  I4R3     A     C        15:28:12:12 15:28:13:23 04:13:57:21 04:13:59:08 
* FROM CLIP NAME:  A122F-2A 
* SOURCE FILE: A010C008_170728_R0RO
336  I4R4     A     C        09:20:20:04 09:20:23:09 04:13:59:08 04:14:02:13 
* FROM CLIP NAME:  A122J-2 
* SOURCE FILE: A017C005_170729_R0RO
337  I4R3     A     C        15:28:13:23 15:28:17:00 04:14:02:13 04:14:05:14 
* FROM CLIP NAME:  A122F-2A 
* SOURCE FILE: A010C008_170728_R0RO
338  I4R3     A     C        15:28:17:16 15:28:20:12 04:14:05:14 04:14:08:10 
* FROM CLIP NAME:  A122F-2A 
* SOURCE FILE: A010C008_170728_R0RO
339  I4R3     A     C        15:28:21:16 15:28:24:15 04:14:08:10 04:14:11:09 
* FROM CLIP NAME:  A122F-2A 
* SOURCE FILE: A010C008_170728_R0RO
340  I4R3     A     C        15:54:56:04 15:54:58:09 04:14:11:09 04:14:13:14 
* FROM CLIP NAME:  A122G-2 
* SOURCE FILE: A010C008_170728_R0RO
341  I4R3     A     C        13:29:24:02 13:29:28:04 04:14:13:14 04:14:17:16 
* FROM CLIP NAME:  A122E-3 
* SOURCE FILE: A010C008_170728_R0RO
342  I4R3     A     C        15:28:36:14 15:28:36:17 04:14:17:16 04:14:17:19 
* FROM CLIP NAME:  A122F-2A 
* SOURCE FILE: A010C008_170728_R0RO
343  I4R3     A     C        15:28:39:04 15:28:47:15 04:14:17:19 04:14:26:06 
* FROM CLIP NAME:  A122F-2A 
* SOURCE FILE: A010C008_170728_R0RO
344  I4R4     A2    C        09:16:36:18 09:16:40:23 04:14:25:17 04:14:29:22 
* FROM CLIP NAME:  A122J-1 
* PATCH I4R4:  FROM SOURCE 1 TO RECORD 2 
* SOURCE FILE: A017C005_170729_R0RO
345  I4R3     A     C        15:28:48:09 15:28:50:10 04:14:26:06 04:14:28:07 
* FROM CLIP NAME:  A122F-2A 
* SOURCE FILE: A010C008_170728_R0RO
346  I4R3     A     C        15:29:48:11 15:29:48:23 04:14:28:07 04:14:28:19 
* FROM CLIP NAME:  A122F-2A 
* TO CLIP NAME:  A122F-2A 
* SOURCE FILE: A010C008_170728_R0RO
347  I4R3     A     C        15:29:48:23 15:29:51:20 04:14:28:19 04:14:31:16 
* FROM CLIP NAME:  A122F-2A 
* SOURCE FILE: A010C008_170728_R0RO
348  I4R3     A     C        13:28:52:22 13:28:54:11 04:14:31:16 04:14:33:05 
* FROM CLIP NAME:  A122E-3 
* SOURCE FILE: A010C008_170728_R0RO
349  I4R3     A     C        15:55:28:22 15:55:29:22 04:14:33:05 04:14:34:05 
* FROM CLIP NAME:  A122G-2 
* TO CLIP NAME:  A122E-3 
* SOURCE FILE: A010C008_170728_R0RO
350  I4R3     A     C        15:55:29:22 15:55:35:21 04:14:34:05 04:14:40:04 
* FROM CLIP NAME:  A122G-2 
* SOURCE FILE: A010C008_170728_R0RO
351  I4R3     A     C        15:58:21:17 15:58:24:08 04:14:40:04 04:14:42:19 
* FROM CLIP NAME:  A122G-2 
* SOURCE FILE: A010C008_170728_R0RO
352  I4R3     A     C        15:58:26:05 15:58:27:02 04:14:42:19 04:14:43:16 
* FROM CLIP NAME:  A122G-2 
* SOURCE FILE: A010C008_170728_R0RO
353  I4R3     A     C        13:29:22:03 13:29:24:10 04:14:43:16 04:14:45:23 
* FROM CLIP NAME:  A122E-3 
* SOURCE FILE: A010C008_170728_R0RO
354  90_SHACK A3    C        00:00:00:00 00:00:00:00 04:14:44:19 04:14:45:04 
* FROM CLIP NAME:  90 SHACKLES, METAL RATTLE 01.AIF 
* PATCH 90_SHACK:  FROM SOURCE 1 TO RECORD 3 
* SOURCE FILE: 90 SHACKLES, METAL RATTLE 01.AIF
355  I4R3     A     C        13:29:46:03 13:29:49:11 04:14:45:23 04:14:49:07 
* FROM CLIP NAME:  A122E-3 
* SOURCE FILE: A010C008_170728_R0RO
356  I4R3     A     C        13:29:24:10 13:29:25:03 04:14:49:07 04:14:50:00 
* FROM CLIP NAME:  A122E-3 
* SOURCE FILE: A010C008_170728_R0RO
357  I4R3     A     C        13:29:24:13 13:29:26:23 04:14:50:00 04:14:52:10 
* FROM CLIP NAME:  A122E-3 
* SOURCE FILE: A010C008_170728_R0RO
358  I4R3     A     C        13:29:31:12 13:29:34:20 04:14:52:10 04:14:55:18 
* FROM CLIP NAME:  A122E-3 
* SOURCE FILE: A010C008_170728_R0RO
359  I4R3     A     C        12:41:41:13 12:41:41:14 04:14:55:18 04:14:55:19 
* FROM CLIP NAME:  A122D-2 
* SOURCE FILE: A010C008_170728_R0RO
360  I4R3     A     C        12:41:41:15 12:41:47:06 04:14:55:19 04:15:01:10 
* FROM CLIP NAME:  A122D-2 
* SOURCE FILE: A010C008_170728_R0RO
361  I4R3     A     C        15:30:37:12 15:30:41:23 04:15:01:10 04:15:05:21 
* FROM CLIP NAME:  A122F-2B 
* SOURCE FILE: A010C008_170728_R0RO
362  I4R3     A     C        15:30:42:03 15:30:42:07 04:15:05:21 04:15:06:01 
* FROM CLIP NAME:  A122F-2B 
* SOURCE FILE: A010C008_170728_R0RO
363  I4R3     A     C        15:30:43:01 15:30:44:04 04:15:06:01 04:15:07:04 
* FROM CLIP NAME:  A122F-2A 
* SOURCE FILE: A010C008_170728_R0RO
364  I4R3     A     C        15:30:50:00 15:30:51:07 04:15:07:04 04:15:08:11 
* FROM CLIP NAME:  A122F-2A 
* SOURCE FILE: A010C008_170728_R0RO
365  I4R3     A     C        15:11:00:15 15:11:05:01 04:15:08:11 04:15:12:21 
* FROM CLIP NAME:  A122F-1A 
* SOURCE FILE: A010C008_170728_R0RO
366  I4R3     A     C        13:23:26:05 13:23:34:01 04:15:12:21 04:15:20:17 
* FROM CLIP NAME:  A122E-2 
* SOURCE FILE: A010C008_170728_R0RO
367  75_GHOST A3    C        00:00:00:00 00:00:00:00 04:15:16:04 04:15:27:09 
* FROM CLIP NAME:  75 GHOST AMBIENCE X4.AIF 
* PATCH 75_GHOST:  FROM SOURCE 1 TO RECORD 3 
* SOURCE FILE: 75 GHOST AMBIENCE X4.AIF
368  I4R3     A     C        13:23:34:16 13:23:34:18 04:15:20:17 04:15:20:19 
* FROM CLIP NAME:  A122E-2 
* SOURCE FILE: A010C008_170728_R0RO
369  I4R3     A     C        12:46:11:20 12:46:14:09 04:15:20:19 04:15:23:08 
* FROM CLIP NAME:  A122D-3PU 
* SOURCE FILE: A010C008_170728_R0RO
370  I4R3     A     C        12:46:19:05 12:46:20:08 04:15:23:08 04:15:24:11 
* FROM CLIP NAME:  A122D-3PU 
* SOURCE FILE: A010C008_170728_R0RO
371  I4R3     A     C        12:46:15:06 12:46:17:13 04:15:24:11 04:15:26:18 
* FROM CLIP NAME:  A122D-3PU 
* SOURCE FILE: A010C008_170728_R0RO
372  I4R3     A     C        15:59:39:11 15:59:39:20 04:15:26:18 04:15:27:03 
* FROM CLIP NAME:  A122G-2 
* SOURCE FILE: A010C008_170728_R0RO
373  I4R3     A     C        15:59:40:13 15:59:41:19 04:15:27:03 04:15:28:09 
* FROM CLIP NAME:  A122G-2 
* SOURCE FILE: A010C008_170728_R0RO
374  I4R3     A     C        13:29:17:07 13:29:18:15 04:15:28:09 04:15:29:17 
* FROM CLIP NAME:  A122E-3 
* SOURCE FILE: A010C008_170728_R0RO
375  I4R3     A     C        13:29:19:11 13:29:19:15 04:15:29:17 04:15:29:21 
* FROM CLIP NAME:  A122E-3 
* SOURCE FILE: A010C008_170728_R0RO
376  I4R3     A     C        13:29:31:16 13:29:32:19 04:15:29:21 04:15:31:00 
* FROM CLIP NAME:  A122E-3 
* SOURCE FILE: A010C008_170728_R0RO
377  I4R3     A     C        13:29:33:19 13:29:35:18 04:15:31:00 04:15:32:23 
* FROM CLIP NAME:  A122E-3 
* SOURCE FILE: A010C008_170728_R0RO
378  I4R3     A     C        13:29:34:11 13:29:34:13 04:15:32:23 04:15:33:01 
* FROM CLIP NAME:  A122E-3 
* TO CLIP NAME:  A122E-3 
* SOURCE FILE: A010C008_170728_R0RO
379  I4R3     A     C        13:29:34:13 13:29:35:13 04:15:33:01 04:15:34:01 
* FROM CLIP NAME:  A122E-3 
* SOURCE FILE: A010C008_170728_R0RO
380  I4R3     A     C        12:25:07:19 12:25:11:12 04:15:34:01 04:15:37:18 
* FROM CLIP NAME:  A122D-1 
* SOURCE FILE: A010C008_170728_R0RO
381  I4R3     A     C        12:24:46:15 12:24:49:22 04:15:37:18 04:15:41:01 
* FROM CLIP NAME:  A122D-1 
* SOURCE FILE: A010C008_170728_R0RO
382  I4R4     A2    C        16:32:57:19 16:32:58:09 04:15:38:01 04:15:38:15 
* FROM CLIP NAME:  A122K-6 
* PATCH I4R4:  FROM SOURCE 1 TO RECORD 2 
* SOURCE FILE: A017C005_170729_R0RO
383  I4R3     A     C        12:24:50:10 12:24:51:19 04:15:41:01 04:15:42:10 
* FROM CLIP NAME:  A122D-1 
* SOURCE FILE: A010C008_170728_R0RO
384  I4R4     A     C        16:32:55:11 16:32:56:11 04:15:42:10 04:15:43:10 
* FROM CLIP NAME:  A122K-6 
* TO CLIP NAME:  A122D-1 
* SOURCE FILE: A017C005_170729_R0RO
385  I4R4     A     C        16:32:56:11 16:32:57:10 04:15:43:10 04:15:44:09 
* FROM CLIP NAME:  A122K-6 
* SOURCE FILE: A017C005_170729_R0RO
386  I4R4     A     C        16:32:58:18 16:33:00:03 04:15:44:09 04:15:45:18 
* FROM CLIP NAME:  A122K-6 
* SOURCE FILE: A017C005_170729_R0RO
387  I4R4     A     C        16:56:45:18 16:56:46:12 04:15:45:18 04:15:46:12 
* FROM CLIP NAME:  A122L-1 
* SOURCE FILE: A017C005_170729_R0RO
388  TEMP_ADR A3    C        00:00:00:00 00:00:00:00 04:15:45:19 04:15:47:11 
* FROM CLIP NAME:  ELISE SCREAM 
* PATCH TEMP_ADR:  FROM SOURCE 1 TO RECORD 3 
* SOURCE FILE: TEMP ADR
389  I4R4     A2    C        09:20:43:20 09:20:44:16 04:15:46:11 04:15:47:07 
* FROM CLIP NAME:  A122J-2 
* PATCH I4R4:  FROM SOURCE 1 TO RECORD 2 
* SOURCE FILE: A017C005_170729_R0RO
390  I4R4     A     C        16:56:46:12 16:56:47:12 04:15:46:12 04:15:47:12 
* FROM CLIP NAME:  A122L-1 
* TO CLIP NAME:  A122L-1 
* SOURCE FILE: A017C005_170729_R0RO
391  TEMP_ADR A3    C        00:00:00:00 00:00:00:00 04:15:47:11 04:15:48:11 
* FROM CLIP NAME:  ELISE SCREAM 
* TO CLIP NAME:  ELISE SCREAM 
* PATCH TEMP_ADR:  FROM SOURCE 1 TO RECORD 3 
* PATCH TEMP_ADR:  FROM SOURCE 1 TO RECORD 3 
* SOURCE FILE: TEMP ADR
392  I4R4     A     C        16:56:47:12 16:56:50:20 04:15:47:12 04:15:50:20 
* FROM CLIP NAME:  A122L-1 
* SOURCE FILE: A017C005_170729_R0RO
393  TEMP_ADR A3    C        00:00:00:00 00:00:00:00 04:15:48:11 04:15:50:20 
* FROM CLIP NAME:  ELISE SCREAM 
* PATCH TEMP_ADR:  FROM SOURCE 1 TO RECORD 3 
* SOURCE FILE: TEMP ADR
394  I4R2     A2    C        19:46:40:10 19:46:41:09 04:15:50:20 04:15:51:19 
* FROM CLIP NAME:  B122A-2 
* PATCH I4R2:  FROM SOURCE 1 TO RECORD 2 
* SOURCE FILE: A008C006_170727_R0RO
395  I4R2     A2    C        19:46:35:19 19:46:37:12 04:15:51:19 04:15:53:12 
* FROM CLIP NAME:  B122A-2 
* PATCH I4R2:  FROM SOURCE 1 TO RECORD 2 
* SOURCE FILE: A008C006_170727_R0RO
396  I4R2     A     C        19:46:38:11 19:46:43:12 04:15:53:12 04:15:58:13 
* FROM CLIP NAME:  B122A-2 
* SOURCE FILE: A008C006_170727_R0RO
397  SR022    A     C        16:04:44:11 16:04:45:20 04:15:58:13 04:15:59:21 
* FROM CLIP NAME:  V11B-1A 
* SOURCE FILE: A219C001_160914_R1BY
398  SR022    A3    C        19:39:56:11 19:39:57:16 04:15:58:20 04:16:00:00 
* FROM CLIP NAME:  11M-1 
* PATCH SR022:  FROM SOURCE 1 TO RECORD 3 
* SOURCE FILE: A219C001_160914_R1BY
399  SR022    A     C        10:20:46:20 10:20:48:03 04:15:59:21 04:16:01:03 
* FROM CLIP NAME:  V11-2A 
* SOURCE FILE: A219C001_160914_R1BY
400  SR022    A     C        16:50:44:22 16:50:45:03 04:16:01:03 04:16:01:07 
* FROM CLIP NAME:  11D-2A 
* SOURCE FILE: A219C001_160914_R1BY
401  I4R2     A     C        19:46:45:08 19:46:46:00 04:16:01:07 04:16:01:23 
* FROM CLIP NAME:  B122A-2 
* SOURCE FILE: A008C006_170727_R0RO
402  SR022    A3    C        19:40:43:07 19:40:44:23 04:16:01:18 04:16:03:09 
* FROM CLIP NAME:  11M-1 
* PATCH SR022:  FROM SOURCE 1 TO RECORD 3 
* SOURCE FILE: A219C001_160914_R1BY
403  I4R2     A     C        19:46:46:14 19:46:49:12 04:16:01:23 04:16:04:21 
* FROM CLIP NAME:  B122A-2 
* SOURCE FILE: A008C006_170727_R0RO
404  I4R2     A     C        19:28:02:07 19:28:03:15 04:16:04:21 04:16:06:05 
* FROM CLIP NAME:  B122-4 
* SOURCE FILE: A008C006_170727_R0RO
405  I4R2     A     C        19:28:04:10 19:28:05:16 04:16:06:05 04:16:07:11 
* FROM CLIP NAME:  B122-4 
* SOURCE FILE: A008C006_170727_R0RO
406  SR022    A3    C        19:46:00:11 19:46:02:02 04:16:06:11 04:16:08:01 
* FROM CLIP NAME:  11N-1 
* PATCH SR022:  FROM SOURCE 1 TO RECORD 3 
* SOURCE FILE: A219C001_160914_R1BY
407  I4R2     A     C        19:42:26:20 19:42:29:05 04:16:07:11 04:16:09:20 
* FROM CLIP NAME:  B122A-1 
* SOURCE FILE: A008C006_170727_R0RO
408  I4R2     A     C        19:42:22:13 19:42:24:03 04:16:09:20 04:16:11:10 
* FROM CLIP NAME:  B122A-1 
* SOURCE FILE: A008C006_170727_R0RO
409  I4R2     A     C        19:42:30:19 19:42:36:20 04:16:11:10 04:16:17:11 
* FROM CLIP NAME:  B122A-1 
* SOURCE FILE: A008C006_170727_R0RO
410  I4R2     A     C        19:47:06:01 19:47:09:13 04:16:17:11 04:16:20:23 
* FROM CLIP NAME:  B122A-2 
* SOURCE FILE: A008C006_170727_R0RO
411  I4R2     A     C        19:47:07:10 19:47:07:18 04:16:20:23 04:16:21:07 
* FROM CLIP NAME:  B122A-2 
* SOURCE FILE: A008C006_170727_R0RO
412  I4R2     A     C        19:11:38:04 19:11:39:10 04:16:21:07 04:16:22:13 
* FROM CLIP NAME:  B122-1 
* SOURCE FILE: A008C006_170727_R0RO
413  I4R2     A     C        19:47:11:03 19:47:12:03 04:16:22:13 04:16:23:13 
* FROM CLIP NAME:  B122A-2 
* SOURCE FILE: A008C006_170727_R0RO
414  I4R2     A     C        19:11:41:19 19:11:42:21 04:16:23:13 04:16:24:15 
* FROM CLIP NAME:  B122-1 
* SOURCE FILE: A008C006_170727_R0RO
415  I4R2     A     C        19:47:13:05 19:47:14:01 04:16:24:15 04:16:25:11 
* FROM CLIP NAME:  B122A-2 
* SOURCE FILE: A008C006_170727_R0RO
416  I4R2     A     C        19:24:03:22 19:24:05:16 04:16:25:11 04:16:27:05 
* FROM CLIP NAME:  B122-3 
* SOURCE FILE: A008C006_170727_R0RO
417  I4R2     A     C        19:28:32:04 19:28:35:08 04:16:27:05 04:16:30:09 
* FROM CLIP NAME:  B122-4 
* SOURCE FILE: A008C006_170727_R0RO
418  I4R2     A     C        19:28:34:05 19:28:35:04 04:16:30:09 04:16:31:08 
* FROM CLIP NAME:  B122-4 
* SOURCE FILE: A008C006_170727_R0RO
419  I4R2     A     C        19:28:36:06 19:28:37:00 04:16:31:08 04:16:32:02 
* FROM CLIP NAME:  B122-4 
* SOURCE FILE: A008C006_170727_R0RO
420  I4R2     A     C        19:28:46:00 19:28:47:13 04:16:32:02 04:16:33:15 
* FROM CLIP NAME:  B122-4 
* SOURCE FILE: A008C006_170727_R0RO
421  I4R2     A     C        19:28:34:08 19:28:37:01 04:16:33:15 04:16:36:08 
* FROM CLIP NAME:  B122-4 
* SOURCE FILE: A008C006_170727_R0RO
422  I4R2     A     C        19:42:55:06 19:43:16:17 04:16:36:08 04:16:57:19 
* FROM CLIP NAME:  B122A-1 
* SOURCE FILE: A008C006_170727_R0RO
423  I4R2     A     C        19:47:41:22 19:47:44:15 04:16:57:19 04:17:00:12 
* FROM CLIP NAME:  B122A-2 
* SOURCE FILE: A008C006_170727_R0RO
424  I4R2     A     C        19:28:57:13 19:29:01:00 04:17:00:12 04:17:03:23 
* FROM CLIP NAME:  B122-4 
* SOURCE FILE: A008C006_170727_R0RO
425  I4R2     A     C        19:43:24:12 19:43:27:11 04:17:03:23 04:17:06:22 
* FROM CLIP NAME:  B122A-1 
* SOURCE FILE: A008C006_170727_R0RO
426  I4R2     A     C        19:47:51:13 19:47:59:07 04:17:06:22 04:17:14:16 
* FROM CLIP NAME:  B122A-2 
* SOURCE FILE: A008C006_170727_R0RO
427  TEMP_ADR A     C        00:00:00:00 00:00:00:00 04:17:14:16 04:17:16:09 
* FROM CLIP NAME:  YOUNG ELISE: THE MAN WITH THE KEYS... 
* SOURCE FILE: TEMP ADR
428  TEMP_ADR A     C        00:00:00:00 00:00:00:00 04:17:16:09 04:17:23:00 
* FROM CLIP NAME:  YOUNG ELISE - HE SAYS I'M MORE POWERFUL THAN I KNOW 
* SOURCE FILE: TEMP ADR
429  I4R2     A     C        19:47:59:01 19:48:01:17 04:17:23:01 04:17:25:17 
* FROM CLIP NAME:  B122A-2 
* SOURCE FILE: A008C006_170727_R0RO
430  I4R2     A     C        19:21:38:16 19:21:42:02 04:17:25:17 04:17:29:03 
* FROM CLIP NAME:  B122-2 
* SOURCE FILE: A008C006_170727_R0RO
431  SR022    A2    C        19:46:02:17 19:46:02:23 04:17:27:08 04:17:27:13 
* FROM CLIP NAME:  11N-1 
* PATCH SR022:  FROM SOURCE 1 TO RECORD 2 
* SOURCE FILE: A219C001_160914_R1BY
432  I4R2     A     C        19:21:40:13 19:21:41:09 04:17:29:03 04:17:29:23 
* FROM CLIP NAME:  B122-2 
* SOURCE FILE: A008C006_170727_R0RO
433  SR022    A2    C        19:46:03:16 19:46:04:10 04:17:29:20 04:17:30:13 
* FROM CLIP NAME:  11N-1 
* PATCH SR022:  FROM SOURCE 1 TO RECORD 2 
* SOURCE FILE: A219C001_160914_R1BY
434  HORR_BRE A3    C        00:00:00:00 00:00:00:00 04:17:29:20 04:17:32:15 
* FROM CLIP NAME:  HORR BREATHGHOST AHS-04_44.01.AIF 
* PATCH HORR_BRE:  FROM SOURCE 1 TO RECORD 3 
* SOURCE FILE: HORR BREATHGHOST AHS-04_44.01.AIF
435  I4R2     A     C        19:43:32:22 19:43:33:03 04:17:29:23 04:17:30:04 
* FROM CLIP NAME:  B122A-1 
* SOURCE FILE: A008C006_170727_R0RO
436  I4R2     A     C        19:29:22:22 19:29:23:07 04:17:30:04 04:17:30:13 
* FROM CLIP NAME:  B122-4 
* SOURCE FILE: A008C006_170727_R0RO
437  I4R2     A     C        19:29:23:07 19:29:23:21 04:17:30:13 04:17:31:03 
* FROM CLIP NAME:  B122-4 
* SOURCE FILE: A008C006_170727_R0RO
438  SR022    A2    C        19:46:04:09 19:46:05:21 04:17:30:13 04:17:32:00 
* FROM CLIP NAME:  11N-1 
* PATCH SR022:  FROM SOURCE 1 TO RECORD 2 
* SOURCE FILE: A219C001_160914_R1BY
439  I4R2     A     C        19:43:42:22 19:43:43:16 04:17:31:03 04:17:31:21 
* FROM CLIP NAME:  B122A-1 
* SOURCE FILE: A008C006_170727_R0RO
440  SR023    A     C        11:31:49:07 11:31:49:11 04:17:31:21 04:17:32:00 
* FROM CLIP NAME:  58-1A 
* SOURCE FILE: A230C009_160915_R1BY
441  SR022    A2    C        19:46:05:20 19:46:06:08 04:17:32:00 04:17:32:11 
* FROM CLIP NAME:  11N-1 
* PATCH SR022:  FROM SOURCE 1 TO RECORD 2 
* SOURCE FILE: A219C001_160914_R1BY
442  SR023    A     C        11:31:49:10 11:31:50:22 04:17:32:00 04:17:33:11 
* FROM CLIP NAME:  58-1A 
* SOURCE FILE: A230C009_160915_R1BY
443  HORR_BRE A3    C        00:00:00:00 00:00:00:00 04:17:32:15 04:17:34:14 
* FROM CLIP NAME:  HORR BREATHGHOST AHS-04_44.01.AIF 
* PATCH HORR_BRE:  FROM SOURCE 1 TO RECORD 3 
* SOURCE FILE: HORR BREATHGHOST AHS-04_44.01.AIF
444  I4R4     A     C        12:29:01:12 12:29:06:18 04:17:33:13 04:17:38:19 
* FROM CLIP NAME:  C122-3A 
* SOURCE FILE: A017C005_170729_R0RO
445  I4R4     A     C        12:20:52:15 12:21:01:15 04:17:38:19 04:17:47:19 
* FROM CLIP NAME:  C122-1A 
* SOURCE FILE: A017C005_170729_R0RO
446  I4R4     A     C        12:21:01:15 12:21:05:07 04:17:47:19 04:17:51:11 
* FROM CLIP NAME:  C122-1A 
* SOURCE FILE: A017C005_170729_R0RO
447  SR016    A     C        11:20:34:13 11:20:35:14 04:17:51:11 04:17:52:11 
* FROM CLIP NAME:  142-6A 
* SOURCE FILE: A160C001_160906_R1BY
448  SR016    A     C        11:20:35:19 11:20:37:19 04:17:52:11 04:17:54:10 
* FROM CLIP NAME:  142-6A 
* SOURCE FILE: A160C001_160906_R1BY
449  SR016    A2    C        12:18:35:08 12:18:36:14 04:17:54:08 04:17:55:13 
* FROM CLIP NAME:  142D-1A 
* PATCH SR016:  FROM SOURCE 1 TO RECORD 2 
* SOURCE FILE: A160C001_160906_R1BY
450  SR016    A     C        11:20:45:11 11:20:46:22 04:17:54:10 04:17:55:20 
* FROM CLIP NAME:  142-6A 
* SOURCE FILE: A160C001_160906_R1BY
451  SR016    A2    C        11:53:02:04 11:53:03:14 04:17:55:13 04:17:56:22 
* FROM CLIP NAME:  142B-2A 
* PATCH SR016:  FROM SOURCE 1 TO RECORD 2 
* SOURCE FILE: A160C001_160906_R1BY
452  SR016    A     C        12:18:38:01 12:18:39:02 04:17:55:20 04:17:56:20 
* FROM CLIP NAME:  142D-1A 
* SOURCE FILE: A160C001_160906_R1BY
453  SR016    A     C        11:53:04:10 11:53:05:20 04:17:56:22 04:17:58:07 
* FROM CLIP NAME:  142B-2A 
* SOURCE FILE: A160C001_160906_R1BY
454  SR016    A     C        11:49:37:05 11:49:40:03 04:17:58:07 04:18:01:04 
* FROM CLIP NAME:  142B-1A 
* SOURCE FILE: A160C001_160906_R1BY
455  SR016    A     C        12:23:21:11 12:23:23:12 04:18:01:04 04:18:03:04 
* FROM CLIP NAME:  142D-2A 
* SOURCE FILE: A160C001_160906_R1BY
456  SR016    A     C        11:23:06:13 11:23:07:21 04:18:03:04 04:18:04:11 
* FROM CLIP NAME:  142-6A 
* SOURCE FILE: A160C001_160906_R1BY
457  SR016    A     C        12:23:23:19 12:23:27:07 04:18:04:11 04:18:07:22 
* FROM CLIP NAME:  142D-2A 
* SOURCE FILE: A160C001_160906_R1BY
458  SR016    A2    C        14:34:42:04 14:34:43:20 04:18:07:02 04:18:08:17 
* FROM CLIP NAME:  143-3A 
* PATCH SR016:  FROM SOURCE 1 TO RECORD 2 
* SOURCE FILE: A160C001_160906_R1BY
459  SR016    A     C        14:34:44:11 14:34:47:11 04:18:07:22 04:18:10:21 
* FROM CLIP NAME:  143-3A 
* SOURCE FILE: A160C001_160906_R1BY
460  SR016    A2    C        16:01:11:09 16:01:13:05 04:18:10:21 04:18:12:16 
* FROM CLIP NAME:  143E-3A 
* PATCH SR016:  FROM SOURCE 1 TO RECORD 2 
* SOURCE FILE: A160C001_160906_R1BY
461  SR016    A     C        14:43:41:08 14:43:44:06 04:18:12:12 04:18:15:09 
* FROM CLIP NAME:  143-4A 
* SOURCE FILE: A160C001_160906_R1BY
462  SR016    A2    C        16:01:15:17 16:01:16:08 04:18:14:19 04:18:15:09 
* FROM CLIP NAME:  143E-3A 
* PATCH SR016:  FROM SOURCE 1 TO RECORD 2 
* SOURCE FILE: A160C001_160906_R1BY
463  SR016    A     C        14:34:54:08 14:34:57:03 04:18:15:09 04:18:18:03 
* FROM CLIP NAME:  143-3A 
* SOURCE FILE: A160C001_160906_R1BY
464  SR016    A     C        16:16:21:14 16:16:23:14 04:18:18:03 04:18:20:02 
* FROM CLIP NAME:  143E-4A 
* SOURCE FILE: A160C001_160906_R1BY
465  SR016    A     C        14:34:56:12 14:34:58:23 04:18:20:02 04:18:22:12 
* FROM CLIP NAME:  143-3A 
* SOURCE FILE: A160C001_160906_R1BY
466  SR016    A     C        16:16:21:19 16:16:22:13 04:18:22:12 04:18:23:05 
* FROM CLIP NAME:  143E-4A 
* SOURCE FILE: A160C001_160906_R1BY
467  SR016    A     C        16:16:23:00 16:16:23:03 04:18:23:05 04:18:23:07 
* FROM CLIP NAME:  143E-4A 
* SOURCE FILE: A160C001_160906_R1BY
468  SR016    A     C        14:35:12:04 14:35:13:03 04:18:23:07 04:18:24:05 
* FROM CLIP NAME:  143-3A 
* SOURCE FILE: A160C001_160906_R1BY
469  SR016    A     C        15:53:13:08 15:53:13:10 04:18:24:05 04:18:24:06 
* FROM CLIP NAME:  143E-2A 
* SOURCE FILE: A160C001_160906_R1BY
470  SR016    A     C        14:35:15:12 14:35:16:06 04:18:24:06 04:18:24:23 
* FROM CLIP NAME:  143-3A 
* SOURCE FILE: A160C001_160906_R1BY
471  SR016    A     C        14:44:04:09 14:44:04:23 04:18:24:23 04:18:25:12 
* FROM CLIP NAME:  143-4A 
* SOURCE FILE: A160C001_160906_R1BY
472  SR016    A     C        14:28:20:10 14:28:22:10 04:18:25:12 04:18:27:11 
* FROM CLIP NAME:  143-2A 
* SOURCE FILE: A160C001_160906_R1BY
473  SR016    A     C        14:28:22:11 14:28:25:08 04:18:27:11 04:18:30:07 
* FROM CLIP NAME:  143-2A 
* SOURCE FILE: A160C001_160906_R1BY
474  SR016    A     C        15:53:21:21 15:53:24:00 04:18:30:07 04:18:32:09 
* FROM CLIP NAME:  143E-2A 
* SOURCE FILE: A160C001_160906_R1BY
475  SR016    A2    C        16:10:53:03 16:10:55:06 04:18:30:07 04:18:32:09 
* FROM CLIP NAME:  143E-4A 
* PATCH SR016:  FROM SOURCE 1 TO RECORD 2 
* SOURCE FILE: A160C001_160906_R1BY
476  SR016    A     C        15:53:24:18 15:53:25:17 04:18:32:09 04:18:33:07 
* FROM CLIP NAME:  143E-2A 
* SOURCE FILE: A160C001_160906_R1BY
477  SR016    A     C        14:44:05:04 14:44:11:01 04:18:33:07 04:18:39:03 
* FROM CLIP NAME:  143-4A 
* SOURCE FILE: A160C001_160906_R1BY
478  SR016    A     C        14:28:51:15 14:28:52:04 04:18:39:03 04:18:39:15 
* FROM CLIP NAME:  143-2A 
* SOURCE FILE: A160C001_160906_R1BY
479  SR016    A     C        14:35:49:18 14:35:50:04 04:18:39:15 04:18:40:00 
* FROM CLIP NAME:  143-3A 
* SOURCE FILE: A160C001_160906_R1BY
480  SR016    A     C        14:35:51:00 14:35:51:03 04:18:40:00 04:18:40:02 
* FROM CLIP NAME:  143-3A 
* TO CLIP NAME:  143-3A 
* SOURCE FILE: A160C001_160906_R1BY
481  SR016    A     C        14:35:51:02 14:35:55:04 04:18:40:02 04:18:44:03 
* FROM CLIP NAME:  143-3A 
* SOURCE FILE: A160C001_160906_R1BY
482  SR016    A2    C        14:35:58:01 14:36:00:03 04:18:44:01 04:18:46:02 
* FROM CLIP NAME:  143-3A 
* PATCH SR016:  FROM SOURCE 1 TO RECORD 2 
* SOURCE FILE: A160C001_160906_R1BY
483  SR016    A     C        16:40:00:07 16:40:01:03 04:18:46:02 04:18:46:21 
* FROM CLIP NAME:  143F-1A 
* SOURCE FILE: A160C001_160906_R1BY
484  SR016    A     C        14:44:44:15 14:44:49:18 04:18:46:21 04:18:51:23 
* FROM CLIP NAME:  143-4A 
* SOURCE FILE: A160C001_160906_R1BY
485  SR016    A2    C        16:46:52:23 16:46:53:13 04:18:46:23 04:18:47:12 
* FROM CLIP NAME:  143F-2A 
* PATCH SR016:  FROM SOURCE 1 TO RECORD 2 
* SOURCE FILE: A160C001_160906_R1BY
486  SR016    A2    C        16:49:46:18 16:49:49:06 04:18:51:14 04:18:54:01 
* FROM CLIP NAME:  143F-2A 
* PATCH SR016:  FROM SOURCE 1 TO RECORD 2 
* SOURCE FILE: A160C001_160906_R1BY
487  SR016    A     C        14:45:10:21 14:45:14:15 04:18:54:01 04:18:57:18 
* FROM CLIP NAME:  143-4A 
* SOURCE FILE: A160C001_160906_R1BY
488  SR016    A     C        16:02:48:12 16:02:49:05 04:18:57:18 04:18:58:10 
* FROM CLIP NAME:  143E-3A 
* SOURCE FILE: A160C001_160906_R1BY
489  SR016    A     C        16:02:50:06 16:02:53:08 04:18:58:10 04:19:01:11 
* FROM CLIP NAME:  143E-3A 
* SOURCE FILE: A160C001_160906_R1BY
490  SR016    A     C        14:36:47:16 14:36:49:01 04:19:01:11 04:19:02:19 
* FROM CLIP NAME:  143-3A 
* SOURCE FILE: A160C001_160906_R1BY
491  SR016    A     C        14:36:49:00 14:36:50:03 04:19:02:19 04:19:03:21 
* FROM CLIP NAME:  143-3A 
* SOURCE FILE: A160C001_160906_R1BY
492  SR016    A     C        14:36:50:02 14:36:51:00 04:19:03:21 04:19:04:18 
* FROM CLIP NAME:  143-3A 
* SOURCE FILE: A160C001_160906_R1BY
493  SR016    A     C        15:17:31:03 15:17:33:10 04:19:04:18 04:19:07:00 
* FROM CLIP NAME:  143D-1 
* SOURCE FILE: A160C001_160906_R1BY
494  SR016    A     C        16:03:14:07 16:03:16:15 04:19:07:00 04:19:09:07 
* FROM CLIP NAME:  143E-3A 
* SOURCE FILE: A160C001_160906_R1BY
495  SR016    A     C        14:37:44:01 14:37:44:13 04:19:09:07 04:19:09:18 
* FROM CLIP NAME:  143-3A 
* SOURCE FILE: A160C001_160906_R1BY
496  SR016    A     C        14:45:51:14 14:45:52:22 04:19:09:18 04:19:11:01 
* FROM CLIP NAME:  143-4A 
* SOURCE FILE: A160C001_160906_R1BY
497  SR016    A     C        14:37:49:09 14:37:52:13 04:19:11:01 04:19:14:04 
* FROM CLIP NAME:  143-3A 
* SOURCE FILE: A160C001_160906_R1BY
498  SR016    A2    C        15:17:56:05 15:18:00:18 04:19:13:22 04:19:18:10 
* FROM CLIP NAME:  143D-1 
* PATCH SR016:  FROM SOURCE 1 TO RECORD 2 
* SOURCE FILE: A160C001_160906_R1BY
499  SR016    A3    C        16:03:48:07 16:03:51:13 04:19:18:10 04:19:21:15 
* FROM CLIP NAME:  143E-3A 
* PATCH SR016:  FROM SOURCE 1 TO RECORD 3 
* SOURCE FILE: A160C001_160906_R1BY
500  SR016    A3    C        16:03:53:01 16:03:53:14 04:19:21:15 04:19:22:03 
* FROM CLIP NAME:  143E-3A 
* PATCH SR016:  FROM SOURCE 1 TO RECORD 3 
* SOURCE FILE: A160C001_160906_R1BY
501  SR016    A     C        14:46:42:09 14:46:45:13 04:19:21:15 04:19:24:18 
* FROM CLIP NAME:  143-4A 
* SOURCE FILE: A160C001_160906_R1BY
502  SR016    A3    C        16:03:52:01 16:03:53:18 04:19:22:03 04:19:23:19 
* FROM CLIP NAME:  143E-3A 
* PATCH SR016:  FROM SOURCE 1 TO RECORD 3 
* SOURCE FILE: A160C001_160906_R1BY
503  SR016    A3    C        16:03:50:10 16:03:53:22 04:19:24:04 04:19:27:15 
* FROM CLIP NAME:  143E-3A 
* PATCH SR016:  FROM SOURCE 1 TO RECORD 3 
* SOURCE FILE: A160C001_160906_R1BY
504  SR016    A     C        15:55:53:04 15:55:55:20 04:19:24:18 04:19:27:09 
* FROM CLIP NAME:  143E-2A 
* SOURCE FILE: A160C001_160906_R1BY
505  SR016    A2    C        14:46:46:15 14:46:49:13 04:19:24:20 04:19:27:17 
* FROM CLIP NAME:  143-4A 
* PATCH SR016:  FROM SOURCE 1 TO RECORD 2 
* SOURCE FILE: A160C001_160906_R1BY
506  SR016    A3    C        16:03:48:15 16:03:53:14 04:19:27:15 04:19:32:13 
* FROM CLIP NAME:  143E-3A 
* PATCH SR016:  FROM SOURCE 1 TO RECORD 3 
* SOURCE FILE: A160C001_160906_R1BY
507  SR016    A2    C        14:46:50:07 14:46:53:00 04:19:27:17 04:19:30:09 
* FROM CLIP NAME:  143-4A 
* PATCH SR016:  FROM SOURCE 1 TO RECORD 2 
* SOURCE FILE: A160C001_160906_R1BY
508  SR016    A     C        14:49:35:20 14:49:39:00 04:19:30:09 04:19:33:12 
* FROM CLIP NAME:  143-4A 
* SOURCE FILE: A160C001_160906_R1BY
509  SR016    A3    C        16:03:50:12 16:03:53:23 04:19:32:13 04:19:35:23 
* FROM CLIP NAME:  143E-3A 
* PATCH SR016:  FROM SOURCE 1 TO RECORD 3 
* SOURCE FILE: A160C001_160906_R1BY
510  SR016    A     C        14:49:39:11 14:49:53:09 04:19:33:12 04:19:47:09 
* FROM CLIP NAME:  143-4A 
* SOURCE FILE: A160C001_160906_R1BY
511  SR016    A3    C        16:03:47:22 16:03:53:11 04:19:35:23 04:19:41:11 
* FROM CLIP NAME:  143E-3A 
* PATCH SR016:  FROM SOURCE 1 TO RECORD 3 
* SOURCE FILE: A160C001_160906_R1BY
512  SR016    A3    C        16:03:48:06 16:03:53:13 04:19:41:11 04:19:46:17 
* FROM CLIP NAME:  143E-3A 
* PATCH SR016:  FROM SOURCE 1 TO RECORD 3 
* SOURCE FILE: A160C001_160906_R1BY
513  SR016    A3    C        16:03:48:06 16:03:53:14 04:19:46:17 04:19:52:00 
* FROM CLIP NAME:  143E-3A 
* PATCH SR016:  FROM SOURCE 1 TO RECORD 3 
* SOURCE FILE: A160C001_160906_R1BY
514  SR016    A     C        14:49:54:06 14:49:57:02 04:19:47:09 04:19:50:04 
* FROM CLIP NAME:  143-4A 
* SOURCE FILE: A160C001_160906_R1BY
515  SR016    A     C        16:15:41:12 16:15:45:03 04:19:50:04 04:19:53:18 
* FROM CLIP NAME:  143E-4A 
* SOURCE FILE: A160C001_160906_R1BY
516  SR016    A3    C        16:03:48:06 16:03:52:19 04:19:52:00 04:19:56:12 
* FROM CLIP NAME:  143E-3A 
* PATCH SR016:  FROM SOURCE 1 TO RECORD 3 
* SOURCE FILE: A160C001_160906_R1BY
517  SR016    A     C        16:15:45:19 16:15:46:02 04:19:53:18 04:19:54:00 
* FROM CLIP NAME:  143E-4A 
* SOURCE FILE: A160C001_160906_R1BY
518  SR016    A     C        14:49:59:20 14:50:02:15 04:19:54:00 04:19:56:18 
* FROM CLIP NAME:  143-4A 
* SOURCE FILE: A160C001_160906_R1BY
519  SR016    A3    C        16:03:48:06 16:03:53:12 04:19:56:12 04:20:01:17 
* FROM CLIP NAME:  143E-3A 
* PATCH SR016:  FROM SOURCE 1 TO RECORD 3 
* SOURCE FILE: A160C001_160906_R1BY
520  SR016    A     C        14:50:02:14 14:50:07:21 04:19:56:18 04:20:02:00 
* FROM CLIP NAME:  143-4A 
* SOURCE FILE: A160C001_160906_R1BY
521  SR016    A3    C        16:03:48:06 16:03:53:14 04:20:01:17 04:20:07:00 
* FROM CLIP NAME:  143E-3A 
* PATCH SR016:  FROM SOURCE 1 TO RECORD 3 
* SOURCE FILE: A160C001_160906_R1BY
522  SR016    A     C        14:50:07:20 14:50:12:00 04:20:03:00 04:20:07:03 
* FROM CLIP NAME:  143-4A 
* SOURCE FILE: A160C001_160906_R1BY
523  SR008    A     C        10:21:03:04 10:21:07:05 04:20:07:03 04:20:11:03 
* FROM CLIP NAME:  V144-4A 
* SOURCE FILE: A081C001_160824_R1BY
524  SR008    A     C        10:21:16:14 10:21:31:21 04:20:11:03 04:20:26:09 
* FROM CLIP NAME:  V144-4A 
* SOURCE FILE: A081C001_160824_R1BY
525  SR008    A     C        11:44:50:08 11:44:56:23 04:20:26:09 04:20:32:23 
* FROM CLIP NAME:  144B-1A 
* SOURCE FILE: A081C001_160824_R1BY
526  SR008    A     C        11:45:08:20 11:45:10:07 04:20:32:23 04:20:34:09 
* FROM CLIP NAME:  144B-1A 
* SOURCE FILE: A081C001_160824_R1BY
527  SR008    A     C        11:44:58:08 11:45:04:19 04:20:34:09 04:20:40:19 
* FROM CLIP NAME:  144B-1A 
* SOURCE FILE: A081C001_160824_R1BY
528  SR008    A     C        10:43:55:06 10:43:56:15 04:20:40:19 04:20:42:03 
* FROM CLIP NAME:  144A-1A 
* SOURCE FILE: A081C001_160824_R1BY
529  SR008    A     C        12:17:14:07 12:17:14:16 04:20:42:03 04:20:42:11 
* FROM CLIP NAME:  144C-2 
* SOURCE FILE: A081C001_160824_R1BY
530  SR008    A     C        12:34:14:03 12:34:21:05 04:20:42:11 04:20:49:12 
* FROM CLIP NAME:  144D-2A 
* SOURCE FILE: A081C001_160824_R1BY
531  SR008    A     C        13:31:55:04 13:31:56:02 04:20:49:12 04:20:50:09 
* FROM CLIP NAME:  145A-2 
* SOURCE FILE: A081C001_160824_R1BY
532  SR008    A     C        13:34:13:19 13:34:17:05 04:20:50:09 04:20:53:18 
* FROM CLIP NAME:  145A-3 
* SOURCE FILE: A081C001_160824_R1BY
533  SR008    A     C        13:11:58:00 13:11:58:15 04:20:53:18 04:20:54:08 
* FROM CLIP NAME:  145-2 
* SOURCE FILE: A081C001_160824_R1BY
534  SR008    A     C        13:11:18:11 13:11:20:08 04:20:54:08 04:20:56:04 
* FROM CLIP NAME:  145-2 
* SOURCE FILE: A081C001_160824_R1BY
535  SR008    A     C        13:32:02:06 13:32:05:22 04:20:56:04 04:20:59:19 
* FROM CLIP NAME:  145A-2 
* SOURCE FILE: A081C001_160824_R1BY
536  SR026    A     C        17:13:52:06 17:13:57:06 04:20:59:19 04:21:04:18 
* FROM CLIP NAME:  147-3A 
* SOURCE FILE: A258C003_160920_R1BY
537  SR026    A2    C        17:13:43:02 17:13:44:09 04:21:04:18 04:21:06:00 
* FROM CLIP NAME:  147-3A 
* PATCH SR026:  FROM SOURCE 1 TO RECORD 2 
* SOURCE FILE: A258C003_160920_R1BY
538  SR026    A     C        17:44:56:08 17:44:57:19 04:21:05:17 04:21:07:03 
* FROM CLIP NAME:  147A-2 
* SOURCE FILE: A258C003_160920_R1BY
539  SR026    A     C        17:45:00:06 17:45:05:12 04:21:07:03 04:21:12:08 
* FROM CLIP NAME:  147A-2 
* SOURCE FILE: A258C003_160920_R1BY
540  SR026    A     C        17:13:50:04 17:13:50:22 04:21:12:08 04:21:13:01 
* FROM CLIP NAME:  147-3A 
* SOURCE FILE: A258C003_160920_R1BY
541  SR026    A     C        18:06:30:17 18:06:34:03 04:21:13:01 04:21:16:10 
* FROM CLIP NAME:  147B-2 
* SOURCE FILE: A258C003_160920_R1BY
542  SR026    A     C        17:40:57:23 17:41:01:17 04:21:16:10 04:21:20:03 
* FROM CLIP NAME:  147A-1 
* SOURCE FILE: A258C003_160920_R1BY
543  SR030    A     C        10:15:09:11 10:15:11:20 04:21:20:03 04:21:22:11 
* FROM CLIP NAME:  D150-3A 
* SOURCE FILE: A294C003_160926_R1BY
544  SR030    A     C        10:15:12:22 10:15:19:10 04:21:22:11 04:21:28:22 
* FROM CLIP NAME:  D150-3A 
* SOURCE FILE: A294C003_160926_R1BY
545  SR030    A     C        10:15:22:09 10:15:25:12 04:21:28:22 04:21:32:00 
* FROM CLIP NAME:  D150-3A 
* SOURCE FILE: A294C003_160926_R1BY
546  SR030    A     C        10:30:32:22 10:30:40:08 04:21:32:00 04:21:39:09 
* FROM CLIP NAME:  D150A-2A 
* SOURCE FILE: A294C003_160926_R1BY
547  SR030    A2    C        10:15:37:00 10:15:38:09 04:21:37:23 04:21:39:07 
* FROM CLIP NAME:  D150-3A 
* PATCH SR030:  FROM SOURCE 1 TO RECORD 2 
* SOURCE FILE: A294C003_160926_R1BY
548  SR016    A     C        16:20:45:16 16:20:47:18 04:21:39:09 04:21:41:10 
* FROM CLIP NAME:  148-1 
* SOURCE FILE: A160C001_160906_R1BY
549  SR016    A2    C        14:54:58:06 14:54:58:21 04:21:41:00 04:21:41:14 
* FROM CLIP NAME:  143A-1A 
* PATCH SR016:  FROM SOURCE 1 TO RECORD 2 
* SOURCE FILE: A160C001_160906_R1BY
550  SR016    A     C        14:56:29:17 14:56:32:08 04:21:41:14 04:21:44:04 
* FROM CLIP NAME:  143A-1A 
* SOURCE FILE: A160C001_160906_R1BY
551  SR016    A     C        14:56:33:04 14:56:35:07 04:21:44:04 04:21:46:06 
* FROM CLIP NAME:  143A-1A 
* SOURCE FILE: A160C001_160906_R1BY
552  SR030    A     C        10:53:29:05 10:53:33:07 04:21:46:06 04:21:50:07 
* FROM CLIP NAME:  D150B-1A 
* SOURCE FILE: A294C003_160926_R1BY
553  SR030    A     C        10:33:43:00 10:33:44:21 04:21:50:07 04:21:52:03 
* FROM CLIP NAME:  D150A-3A 
* SOURCE FILE: A294C003_160926_R1BY
554  SR030    A     C        10:33:44:09 10:33:45:00 04:21:52:03 04:21:52:17 
* FROM CLIP NAME:  D150A-3A 
* SOURCE FILE: A294C003_160926_R1BY
555  SR030    A     C        10:33:46:06 10:33:47:17 04:21:52:17 04:21:54:03 
* FROM CLIP NAME:  D150A-3A 
* SOURCE FILE: A294C003_160926_R1BY
556  SR030    A     C        10:53:45:02 10:53:46:12 04:21:54:03 04:21:55:12 
* FROM CLIP NAME:  D150B-1A 
* SOURCE FILE: A294C003_160926_R1BY
557  SR030    A     C        10:33:48:12 10:33:49:22 04:21:55:12 04:21:56:21 
* FROM CLIP NAME:  D150A-3A 
* SOURCE FILE: A294C003_160926_R1BY
558  SR030    A     C        10:33:50:11 10:33:52:10 04:21:56:21 04:21:58:19 
* FROM CLIP NAME:  D150A-3A 
* SOURCE FILE: A294C003_160926_R1BY
559  SR030    A     C        10:53:50:13 10:53:52:22 04:21:58:19 04:22:01:03 
* FROM CLIP NAME:  D150B-1A 
* SOURCE FILE: A294C003_160926_R1BY
560  SR030    A     C        10:33:48:10 10:33:54:09 04:22:01:03 04:22:07:01 
* FROM CLIP NAME:  D150A-3A 
* SOURCE FILE: A294C003_160926_R1BY
561  SR030    A     C        10:53:58:06 10:54:04:20 04:22:07:01 04:22:13:14 
* FROM CLIP NAME:  D150B-1A 
* SOURCE FILE: A294C003_160926_R1BY
562  SR026    A     C        11:25:35:08 11:25:37:00 04:22:13:14 04:22:15:05 
* FROM CLIP NAME:  151-2 
* SOURCE FILE: A258C003_160920_R1BY
563  SR026    A     C        11:26:16:05 11:26:19:01 04:22:15:05 04:22:18:00 
* FROM CLIP NAME:  151-2 
* SOURCE FILE: A258C003_160920_R1BY
564  TEMP_ADR A3    C        00:00:00:00 00:00:00:00 04:22:17:18 04:22:19:04 
* FROM CLIP NAME:  ANNA: I CANT GO IN THERE 
* PATCH TEMP_ADR:  FROM SOURCE 1 TO RECORD 3 
* SOURCE FILE: TEMP ADR
565  SR030    A2    C        11:01:11:09 11:01:14:05 04:22:18:06 04:22:21:01 
* FROM CLIP NAME:  D150B-3A 
* PATCH SR030:  FROM SOURCE 1 TO RECORD 2 
* SOURCE FILE: A294C003_160926_R1BY
566  SR030    A     C        11:01:14:04 11:01:15:12 04:22:21:01 04:22:22:08 
* FROM CLIP NAME:  D150B-3A 
* SOURCE FILE: A294C003_160926_R1BY
567  TEMP_ADR A     C        00:00:00:00 00:00:00:00 04:22:22:08 04:22:23:18 
* FROM CLIP NAME:  ANNA: I CANT GO IN THERE 
* SOURCE FILE: TEMP ADR
568  SR030    A     C        11:01:15:06 11:01:18:14 04:22:24:15 04:22:27:22 
* FROM CLIP NAME:  D150B-3A 
* SOURCE FILE: A294C003_160926_R1BY
569  SR026    A     C        11:25:54:14 11:26:00:15 04:22:29:02 04:22:35:02 
* FROM CLIP NAME:  151-2 
* SOURCE FILE: A258C003_160920_R1BY
570  SR026    A     C        11:49:07:00 11:49:12:07 04:22:35:02 04:22:40:08 
* FROM CLIP NAME:  151A-2A 
* SOURCE FILE: A258C003_160920_R1BY
571  SR026    A2    C        11:49:44:08 11:49:46:02 04:22:38:10 04:22:40:03 
* FROM CLIP NAME:  151A-2A 
* PATCH SR026:  FROM SOURCE 1 TO RECORD 2 
* SOURCE FILE: A258C003_160920_R1BY
572  SR026    A     C        11:49:01:07 11:49:07:14 04:22:40:08 04:22:46:14 
* FROM CLIP NAME:  151A-2A 
* SOURCE FILE: A258C003_160920_R1BY
573  FKI_LEAD A     C        00:00:00:00 00:00:00:00 04:22:46:14 04:22:48:14 
* FROM CLIP NAME:  FKI_LEADER_TAIL_1920X1080.MOV 
* SOURCE FILE: FKI_LEADER_TAIL_1920X1080.MOV
574  FKI_LEAD A2    C        00:00:00:00 00:00:00:00 04:22:46:14 04:22:48:14 
* FROM CLIP NAME:  FKI_LEADER_TAIL_1920X1080.MOV 
* SOURCE FILE: FKI_LEADER_TAIL_1920X1080.MOV
575  FKI_LEAD A3    C        00:00:00:00 00:00:00:00 04:22:46:14 04:22:48:14 
* FROM CLIP NAME:  FKI_LEADER_TAIL_1920X1080.MOV 
* PATCH FKI_LEA1:  FROM SOURCE 1 TO RECORD 3 
* SOURCE FILE: FKI_LEADER_TAIL_1920X1080.MOV