TITLE:   INS4_R5_092117 
FCM: NON-DROP FRAME
001  FKI_LEAD A     C        00:00:00:00 00:00:00:00 05:00:00:00 05:00:08:00 
* FROM CLIP NAME:  FKI_LEADER_HEAD_1920X1080.MOV 
* SOURCE FILE: FKI_LEADER_HEAD_1920X1080.MOV
002  FKI_LEAD A2    C        00:00:00:00 00:00:00:00 05:00:00:00 05:00:08:00 
* FROM CLIP NAME:  FKI_LEADER_HEAD_1920X1080.MOV 
* SOURCE FILE: FKI_LEADER_HEAD_1920X1080.MOV
003  FKI_LEAD A3    C        00:00:00:00 00:00:00:00 05:00:00:00 05:00:08:00 
* FROM CLIP NAME:  FKI_LEADER_HEAD_1920X1080.MOV 
* PATCH FKI_LEAD:  FROM SOURCE 1 TO RECORD 3 
* SOURCE FILE: FKI_LEADER_HEAD_1920X1080.MOV
004  SR026    A     C        11:49:07:13 11:49:08:08 05:00:08:00 05:00:08:18 
* FROM CLIP NAME:  151A-2A 
* SOURCE FILE: A256C002_160920_R1BY
005  SR027    A2    C        11:31:48:20 11:31:54:09 05:00:08:00 05:00:13:12 
* FROM CLIP NAME:  152-3A 
* PATCH SR027:  FROM SOURCE 1 TO RECORD 2 
* SOURCE FILE: A263C003_160921_R1BY
006  SR027    A     C        12:11:04:20 12:11:07:10 05:00:13:12 05:00:16:01 
* FROM CLIP NAME:  152A-2A 
* SOURCE FILE: A263C003_160921_R1BY
007  SR027    A     C        11:32:09:17 11:32:18:01 05:00:16:01 05:00:24:08 
* FROM CLIP NAME:  152-3A 
* SOURCE FILE: A263C003_160921_R1BY
008  SR027    A     C        12:07:00:06 12:07:09:00 05:00:24:08 05:00:33:01 
* FROM CLIP NAME:  152A-1A 
* SOURCE FILE: A263C003_160921_R1BY
009  SR007    A3    C        10:01:12:20 10:01:16:16 05:00:29:15 05:00:33:10 
* FROM CLIP NAME:  4C-1A 
* PATCH SR007:  FROM SOURCE 1 TO RECORD 3 
* SOURCE FILE: A076C005_160823_R1BY
010  FALLOUT_ A2    C        00:00:00:00 00:00:00:00 05:00:29:15 05:00:38:20 
* FROM CLIP NAME:  FALLOUT R5 V010617 T1 DIA MIX.WAV 
* PATCH FALLOUT_:  FROM SOURCE 1 TO RECORD 2 
* SOURCE FILE: FALLOUT R5 V010617 T1 DIA MIX.WAV
011  SR027    A     C        11:32:29:20 11:32:37:12 05:00:33:01 05:00:40:16 
* FROM CLIP NAME:  152-3A 
* SOURCE FILE: A263C003_160921_R1BY
012  SR007    A3    C        10:14:10:00 10:14:11:22 05:00:33:10 05:00:35:07 
* FROM CLIP NAME:  4C-3B 
* PATCH SR007:  FROM SOURCE 1 TO RECORD 3 
* SOURCE FILE: A076C005_160823_R1BY
013  SR007    A3    C        10:01:23:00 10:01:25:00 05:00:35:07 05:00:37:06 
* FROM CLIP NAME:  4C-1B 
* PATCH SR007:  FROM SOURCE 1 TO RECORD 3 
* SOURCE FILE: A076C005_160823_R1BY
014  SR007    A3    C        10:01:38:14 10:01:39:23 05:00:37:12 05:00:38:20 
* FROM CLIP NAME:  4C-1A 
* PATCH SR007:  FROM SOURCE 1 TO RECORD 3 
* SOURCE FILE: A076C005_160823_R1BY
015  SR027    A     C        11:32:35:18 11:32:40:05 05:00:40:16 05:00:45:02 
* FROM CLIP NAME:  152-3A 
* SOURCE FILE: A263C003_160921_R1BY
016  SR007    A3    C        10:01:39:22 10:01:41:14 05:00:45:02 05:00:46:17 
* FROM CLIP NAME:  4C-1A 
* PATCH SR007:  FROM SOURCE 1 TO RECORD 3 
* SOURCE FILE: A076C005_160823_R1BY
017  SR027    A     C        12:11:48:23 12:12:12:04 05:00:45:02 05:01:08:06 
* FROM CLIP NAME:  152A-2A 
* SOURCE FILE: A263C003_160921_R1BY
018  SR007    A3    C        10:14:18:16 10:14:21:15 05:00:46:18 05:00:49:16 
* FROM CLIP NAME:  4C-3A 
* PATCH SR007:  FROM SOURCE 1 TO RECORD 3 
* SOURCE FILE: A076C005_160823_R1BY
019  SR027    A     C        13:22:58:06 13:23:11:20 05:01:08:06 05:01:21:19 
* FROM CLIP NAME:  V152C-2 
* SOURCE FILE: A263C003_160921_R1BY
020  SR027    A2    C        14:00:32:01 14:00:34:16 05:01:21:19 05:01:24:09 
* FROM CLIP NAME:  152E-1 
* PATCH SR027:  FROM SOURCE 1 TO RECORD 2 
* SOURCE FILE: A263C003_160921_R1BY
021  SR027    A     C        12:07:42:16 12:07:47:03 05:01:21:19 05:01:26:05 
* FROM CLIP NAME:  152A-1A 
* SOURCE FILE: A263C003_160921_R1BY
022  LARGEMET A3    C        00:00:00:00 00:00:00:00 05:01:22:12 05:01:25:05 
* FROM CLIP NAME:  LARGEMETALGATEHE 6048_24.03.WAV 
* PATCH LARGEMET:  FROM SOURCE 1 TO RECORD 3 
* SOURCE FILE: LARGEMETALGATEHE 6048_24.03.WAV
023  SR027    A2    C        14:00:34:15 14:00:36:12 05:01:24:09 05:01:26:05 
* FROM CLIP NAME:  152E-1 
* PATCH SR027:  FROM SOURCE 1 TO RECORD 2 
* SOURCE FILE: A263C003_160921_R1BY
024  SR027    A3    C        14:00:10:14 14:00:13:18 05:01:26:05 05:01:29:08 
* FROM CLIP NAME:  152E-1 
* PATCH SR027:  FROM SOURCE 1 TO RECORD 3 
* SOURCE FILE: A263C003_160921_R1BY
025  SR029    A2    C        16:21:29:10 16:21:33:11 05:01:26:05 05:01:30:05 
* FROM CLIP NAME:  152G-1 
* PATCH SR029:  FROM SOURCE 1 TO RECORD 2 
* SOURCE FILE: A289C002_160923_R1BY
026  SR027    A     C        13:59:22:05 13:59:23:15 05:01:28:20 05:01:30:05 
* FROM CLIP NAME:  152E-1 
* SOURCE FILE: A263C003_160921_R1BY
027  SR020    A     C        12:50:54:20 12:50:59:02 05:01:30:05 05:01:34:10 
* FROM CLIP NAME:  163-3A 
* SOURCE FILE: A199C006_160912_R1BY
028  SR020    A     C        12:50:22:23 12:50:30:08 05:01:34:10 05:01:41:18 
* FROM CLIP NAME:  163-3A 
* SOURCE FILE: A199C006_160912_R1BY
029  SR027    A     C        16:12:13:18 16:12:16:03 05:01:41:18 05:01:44:02 
* FROM CLIP NAME:  152F-2A 
* SOURCE FILE: A263C003_160921_R1BY
030  SR027    A     C        12:33:03:16 12:33:05:09 05:01:44:02 05:01:45:18 
* FROM CLIP NAME:  152B-1A 
* SOURCE FILE: A263C003_160921_R1BY
031  SR027    A     C        16:12:20:10 16:12:22:07 05:01:45:18 05:01:47:14 
* FROM CLIP NAME:  152F-2A 
* SOURCE FILE: A263C003_160921_R1BY
032  SR027    A     C        22:40:15:06 22:40:19:22 05:01:47:14 05:01:52:05 
* FROM CLIP NAME:  B152T-3A 
* SOURCE FILE: A263C003_160921_R1BY
033  SR027    A     C        16:47:39:06 16:47:42:08 05:01:52:05 05:01:55:06 
* FROM CLIP NAME:  B152-1A 
* SOURCE FILE: A263C003_160921_R1BY
034  SR027    A     C        12:33:11:06 12:33:14:02 05:01:55:06 05:01:58:01 
* FROM CLIP NAME:  152B-1A 
* SOURCE FILE: A263C003_160921_R1BY
035  SR027    A     C        22:40:24:04 22:40:25:21 05:01:58:01 05:01:59:17 
* FROM CLIP NAME:  B152T-3A 
* SOURCE FILE: A263C003_160921_R1BY
036  SR027    A     C        16:47:58:02 16:48:00:12 05:01:59:17 05:02:02:02 
* FROM CLIP NAME:  B152-1A 
* SOURCE FILE: A263C003_160921_R1BY
037  SR027    A     C        22:40:34:09 22:40:37:18 05:02:02:02 05:02:05:10 
* FROM CLIP NAME:  B152T-3A 
* SOURCE FILE: A263C003_160921_R1BY
038  SR027    A     C        12:33:24:20 12:33:29:10 05:02:05:10 05:02:09:23 
* FROM CLIP NAME:  152B-1A 
* SOURCE FILE: A263C003_160921_R1BY
039  SR027    A     C        17:07:39:15 17:07:43:14 05:02:09:23 05:02:13:21 
* FROM CLIP NAME:  B152A-1PT1A 
* SOURCE FILE: A263C003_160921_R1BY
040  SR027    A     C        19:11:33:17 19:11:42:03 05:02:13:21 05:02:22:06 
* FROM CLIP NAME:  VB152F-4A 
* SOURCE FILE: A263C003_160921_R1BY
041  SR006    A2    C        12:41:25:13 12:41:28:19 05:02:22:02 05:02:25:07 
* FROM CLIP NAME:  62J-1 
* PATCH SR006:  FROM SOURCE 1 TO RECORD 2 
* SOURCE FILE: B037C005_160822_R16W
042  SR027    A     C        17:13:00:18 17:13:03:09 05:02:22:06 05:02:24:20 
* FROM CLIP NAME:  B152A-2A 
* SOURCE FILE: A263C003_160921_R1BY
043  SR027    A     C        17:13:03:08 17:13:05:14 05:02:24:20 05:02:27:01 
* FROM CLIP NAME:  B152A-2A 
* SOURCE FILE: A263C003_160921_R1BY
044  SR006    A2    C        12:41:29:23 12:41:31:12 05:02:25:07 05:02:26:19 
* FROM CLIP NAME:  62J-1 
* PATCH SR006:  FROM SOURCE 1 TO RECORD 2 
* SOURCE FILE: B037C005_160822_R16W
045  SR007    A2    C        17:03:57:08 17:03:58:13 05:02:27:01 05:02:28:05 
* FROM CLIP NAME:  6E-2A 
* PATCH SR007:  FROM SOURCE 1 TO RECORD 2 
* SOURCE FILE: A076C005_160823_R1BY
046  SR007    A2    C        17:06:59:04 17:07:00:19 05:02:28:05 05:02:29:19 
* FROM CLIP NAME:  6E-3A 
* PATCH SR007:  FROM SOURCE 1 TO RECORD 2 
* SOURCE FILE: A076C005_160823_R1BY
047  SR027    A     C        17:13:05:23 17:13:12:00 05:02:28:15 05:02:34:15 
* FROM CLIP NAME:  B152A-2A 
* SOURCE FILE: A263C003_160921_R1BY
048  SR007    A3    C        15:58:43:23 15:58:46:21 05:02:29:13 05:02:32:10 
* FROM CLIP NAME:  6B-2A 
* PATCH SR007:  FROM SOURCE 1 TO RECORD 3 
* SOURCE FILE: A076C005_160823_R1BY
049  SR007    A3    C        17:06:48:17 17:06:51:10 05:02:32:18 05:02:35:10 
* FROM CLIP NAME:  6E-3B 
* PATCH SR007:  FROM SOURCE 1 TO RECORD 3 
* SOURCE FILE: A076C005_160823_R1BY
050  SR007    A     C        17:07:00:16 17:07:01:19 05:02:34:15 05:02:35:17 
* FROM CLIP NAME:  6E-3A 
* SOURCE FILE: A076C005_160823_R1BY
051  SR007    A2    C        17:24:53:19 17:24:55:04 05:02:34:15 05:02:35:23 
* FROM CLIP NAME:  6F-2A 
* PATCH SR007:  FROM SOURCE 1 TO RECORD 2 
* SOURCE FILE: A076C005_160823_R1BY
052  SR027    A     C        17:13:12:15 17:13:13:04 05:02:35:17 05:02:36:05 
* FROM CLIP NAME:  B152A-2A 
* TO CLIP NAME:  6E-3A 
* SOURCE FILE: A263C003_160921_R1BY
053  SR007    A2    C        17:06:52:07 17:06:54:00 05:02:35:23 05:02:37:15 
* FROM CLIP NAME:  6E-3B 
* PATCH SR007:  FROM SOURCE 1 TO RECORD 2 
* SOURCE FILE: A076C005_160823_R1BY
054  SR027    A     C        17:13:13:03 17:13:14:14 05:02:36:05 05:02:37:15 
* FROM CLIP NAME:  B152A-2A 
* SOURCE FILE: A263C003_160921_R1BY
055  SR019    A3    C        17:30:32:16 17:30:35:15 05:02:37:11 05:02:40:09 
* FROM CLIP NAME:  65B-1 
* PATCH SR019:  FROM SOURCE 1 TO RECORD 3 
* SOURCE FILE: B147C001_160909_R16W
056  SR027    A2    C        19:11:45:03 19:11:47:01 05:02:37:15 05:02:39:12 
* FROM CLIP NAME:  VB152F-4A 
* PATCH SR027:  FROM SOURCE 1 TO RECORD 2 
* SOURCE FILE: A263C003_160921_R1BY
057  SR027    A2    C        19:11:44:21 19:11:46:09 05:02:39:12 05:02:40:23 
* FROM CLIP NAME:  VB152F-4A 
* PATCH SR027:  FROM SOURCE 1 TO RECORD 2 
* SOURCE FILE: A263C003_160921_R1BY
058  SR027    A     C        17:13:15:04 17:13:24:03 05:02:40:05 05:02:49:03 
* FROM CLIP NAME:  B152A-2A 
* SOURCE FILE: A263C003_160921_R1BY
059  SR007    A2    C        17:06:53:05 17:07:00:20 05:02:43:04 05:02:50:18 
* FROM CLIP NAME:  6E-3B 
* PATCH SR007:  FROM SOURCE 1 TO RECORD 2 
* SOURCE FILE: A076C005_160823_R1BY
060  SR027    A     C        19:17:26:15 19:17:29:19 05:02:49:03 05:02:52:06 
* FROM CLIP NAME:  VB152F-5A 
* SOURCE FILE: A263C003_160921_R1BY
061  SR006    A3    C        16:34:33:20 16:34:36:18 05:02:51:18 05:02:54:15 
* FROM CLIP NAME:  3A-3 
* PATCH SR006:  FROM SOURCE 1 TO RECORD 3 
* SOURCE FILE: B037C005_160822_R16W
062  SR027    A     C        19:17:29:18 19:17:30:11 05:02:52:06 05:02:52:22 
* FROM CLIP NAME:  VB152F-5A 
* SOURCE FILE: A263C003_160921_R1BY
063  SR027    A     C        17:13:26:20 17:13:27:18 05:02:52:22 05:02:53:19 
* FROM CLIP NAME:  B152A-2A 
* SOURCE FILE: A263C003_160921_R1BY
064  SR027    A     C        17:09:55:09 17:09:59:01 05:02:53:19 05:02:57:10 
* FROM CLIP NAME:  B152A-1PT2A 
* SOURCE FILE: A263C003_160921_R1BY
065  SR006    A2    C        16:34:37:08 16:34:38:21 05:02:53:20 05:02:55:08 
* FROM CLIP NAME:  3A-3 
* PATCH SR006:  FROM SOURCE 1 TO RECORD 2 
* SOURCE FILE: B037C005_160822_R16W
066  SR027    A     C        17:13:29:18 17:13:32:01 05:02:57:10 05:02:59:16 
* FROM CLIP NAME:  B152A-2A 
* SOURCE FILE: A263C003_160921_R1BY
067  SR027    A     C        17:13:39:18 17:13:41:15 05:02:59:16 05:03:01:12 
* FROM CLIP NAME:  B152A-2A 
* SOURCE FILE: A263C003_160921_R1BY
068  SR006    A2    C        11:29:22:17 11:29:24:20 05:02:59:16 05:03:01:18 
* FROM CLIP NAME:  62G-2 
* PATCH SR006:  FROM SOURCE 3 TO RECORD 2 
* SOURCE FILE: B037C005_160822_R16W
069  SR027    A     C        18:30:44:08 18:30:49:02 05:03:01:12 05:03:06:05 
* FROM CLIP NAME:  B152E-1A 
* SOURCE FILE: A263C003_160921_R1BY
070  SR027    A     C        19:18:08:19 19:18:11:14 05:03:06:05 05:03:08:23 
* FROM CLIP NAME:  VB152F-5A 
* SOURCE FILE: A263C003_160921_R1BY
071  SR027    A     C        19:05:12:20 19:05:21:13 05:03:08:23 05:03:17:15 
* FROM CLIP NAME:  VB152F-3A 
* SOURCE FILE: A263C003_160921_R1BY
072  SR007    A2    C        17:06:42:06 17:06:43:19 05:03:14:09 05:03:15:21 
* FROM CLIP NAME:  6E-3A 
* PATCH SR007:  FROM SOURCE 1 TO RECORD 2 
* SOURCE FILE: A076C005_160823_R1BY
073  SR006    A2    C        11:27:36:15 11:27:40:10 05:03:16:09 05:03:20:03 
* FROM CLIP NAME:  62G-2 
* PATCH SR006:  FROM SOURCE 1 TO RECORD 2 
* SOURCE FILE: B037C005_160822_R16W
074  SR027    A     C        19:05:23:06 19:05:23:11 05:03:17:15 05:03:17:19 
* FROM CLIP NAME:  VB152F-3A 
* TO CLIP NAME:  VB152F-3A 
* SOURCE FILE: A263C003_160921_R1BY
075  SR027    A     C        19:05:23:10 19:05:24:23 05:03:17:19 05:03:19:07 
* FROM CLIP NAME:  VB152F-3A 
* SOURCE FILE: A263C003_160921_R1BY
076  SR027    A     C        19:05:26:15 19:05:29:16 05:03:19:07 05:03:22:07 
* FROM CLIP NAME:  VB152F-3A 
* SOURCE FILE: A263C003_160921_R1BY
077  SR007    A2    C        17:06:35:22 17:06:38:05 05:03:20:03 05:03:22:09 
* FROM CLIP NAME:  6E-3A 
* PATCH SR007:  FROM SOURCE 1 TO RECORD 2 
* SOURCE FILE: A076C005_160823_R1BY
078  SR027    A     C        18:21:44:13 18:21:48:21 05:03:22:07 05:03:26:14 
* FROM CLIP NAME:  B152D-3PUA 
* SOURCE FILE: A263C003_160921_R1BY
079  SR027    A     C        19:05:29:03 19:05:32:22 05:03:26:14 05:03:30:08 
* FROM CLIP NAME:  VB152F-3A 
* SOURCE FILE: A263C003_160921_R1BY
080  SR027    A     C        19:05:32:21 19:05:36:08 05:03:30:08 05:03:33:18 
* FROM CLIP NAME:  VB152F-3A 
* SOURCE FILE: A263C003_160921_R1BY
081  SR027    A     C        20:18:39:15 20:18:41:05 05:03:33:18 05:03:35:07 
* FROM CLIP NAME:  B152H-1A 
* SOURCE FILE: A263C003_160921_R1BY
082  SR027    A     C        20:18:43:09 20:18:43:12 05:03:35:07 05:03:35:09 
* FROM CLIP NAME:  B152H-1A 
* TO CLIP NAME:  B152H-1A 
* SOURCE FILE: A263C003_160921_R1BY
083  SR027    A     C        20:18:43:11 20:18:43:14 05:03:35:09 05:03:35:11 
* FROM CLIP NAME:  B152H-1A 
* SOURCE FILE: A263C003_160921_R1BY
084  SR027    A     C        18:33:33:11 18:33:34:18 05:03:35:11 05:03:36:17 
* FROM CLIP NAME:  B152E-1A 
* SOURCE FILE: A263C003_160921_R1BY
085  SR027    A     C        21:02:35:07 21:02:36:13 05:03:36:17 05:03:37:22 
* FROM CLIP NAME:  VB152L-2A 
* SOURCE FILE: A263C003_160921_R1BY
086  SR027    A     C        21:33:01:23 21:33:04:10 05:03:38:04 05:03:40:14 
* FROM CLIP NAME:  B152P-1 
* SOURCE FILE: A263C003_160921_R1BY
087  SR027    A2    C        21:33:04:17 21:33:05:19 05:03:40:07 05:03:41:08 
* FROM CLIP NAME:  B152P-1 
* PATCH SR027:  FROM SOURCE 1 TO RECORD 2 
* SOURCE FILE: A263C003_160921_R1BY
088  SR016    A     C        16:21:59:12 16:22:01:14 05:03:41:08 05:03:43:09 
* FROM CLIP NAME:  153A-1 
* SOURCE FILE: A168C003_160906_R1BY
089  SR016    A2    C        15:00:55:20 15:00:56:04 05:03:42:16 05:03:42:23 
* FROM CLIP NAME:  153-1A 
* PATCH SR016:  FROM SOURCE 1 TO RECORD 2 
* SOURCE FILE: A168C003_160906_R1BY
090  SR016    A2    C        15:00:14:01 15:00:15:06 05:03:42:23 05:03:44:03 
* FROM CLIP NAME:  153-1A 
* PATCH SR016:  FROM SOURCE 1 TO RECORD 2 
* SOURCE FILE: A168C003_160906_R1BY
091  SR016    A2    C        15:01:00:02 15:01:00:04 05:03:44:03 05:03:44:04 
* FROM CLIP NAME:  153-1A 
* PATCH SR016:  FROM SOURCE 1 TO RECORD 2 
* SOURCE FILE: A168C003_160906_R1BY
092  SR016    A2    C        15:00:59:02 15:01:00:04 05:03:44:04 05:03:45:05 
* FROM CLIP NAME:  153-1A 
* PATCH SR016:  FROM SOURCE 1 TO RECORD 2 
* SOURCE FILE: A168C003_160906_R1BY
093  SR027    A2    C        21:00:21:03 21:00:23:23 05:03:45:05 05:03:48:00 
* FROM CLIP NAME:  VB152L-1A 
* PATCH SR027:  FROM SOURCE 1 TO RECORD 2 
* SOURCE FILE: A263C003_160921_R1BY
094  SR027    A3    C        20:18:52:03 20:18:53:06 05:03:46:07 05:03:47:09 
* FROM CLIP NAME:  B152H-1A 
* PATCH SR027:  FROM SOURCE 1 TO RECORD 3 
* SOURCE FILE: A263C003_160921_R1BY
095  SR021    A     C        17:41:25:00 17:41:25:17 05:03:46:17 05:03:47:09 
* FROM CLIP NAME:  120A-2 
* SOURCE FILE: B162C009_160913_R16W
096  SR021    A     C        17:33:21:18 17:33:22:14 05:03:47:09 05:03:48:04 
* FROM CLIP NAME:  120-2A 
* SOURCE FILE: B162C009_160913_R16W
097  SR025    A3    C        16:05:48:23 16:05:49:10 05:03:47:18 05:03:48:04 
* FROM CLIP NAME:  V99H-1 
* PATCH SR025:  FROM SOURCE 1 TO RECORD 3 
* SOURCE FILE: B194C001_160919_R16W
098  SR027    A2    C        20:18:51:23 20:18:52:04 05:03:48:00 05:03:48:04 
* FROM CLIP NAME:  B152H-1A 
* PATCH SR027:  FROM SOURCE 1 TO RECORD 2 
* SOURCE FILE: A263C003_160921_R1BY
099  SR027    A2    C        21:00:19:18 21:00:20:15 05:03:48:04 05:03:49:00 
* FROM CLIP NAME:  VB152L-1B 
* PATCH SR027:  FROM SOURCE 1 TO RECORD 2 
* SOURCE FILE: A263C003_160921_R1BY
100  SR027    A2    C        20:18:52:03 20:18:53:03 05:03:49:13 05:03:50:12 
* FROM CLIP NAME:  B152H-1A 
* PATCH SR027:  FROM SOURCE 1 TO RECORD 2 
* SOURCE FILE: A263C003_160921_R1BY
101  SR027    A     C        20:58:23:22 20:58:25:14 05:03:50:08 05:03:51:23 
* FROM CLIP NAME:  VB152L-1B 
* SOURCE FILE: A263C003_160921_R1BY
102  SR013    A2    C        15:58:53:01 15:58:55:21 05:03:51:07 05:03:54:02 
* FROM CLIP NAME:  37H-3A 
* PATCH SR013:  FROM SOURCE 1 TO RECORD 2 
* SOURCE FILE: A139C007_160831_R1BY
103  SR027    A     C        20:18:54:20 20:18:55:17 05:03:51:23 05:03:52:19 
* FROM CLIP NAME:  B152H-1A 
* SOURCE FILE: A263C003_160921_R1BY
104  SR021    A     C        17:41:26:03 17:41:26:09 05:03:52:19 05:03:53:00 
* FROM CLIP NAME:  120A-2 
* SOURCE FILE: B162C009_160913_R16W
105  SR027    A     C        20:18:55:21 20:18:57:00 05:03:53:00 05:03:54:02 
* FROM CLIP NAME:  B152H-1A 
* SOURCE FILE: A263C003_160921_R1BY
106  SR027    A2    C        19:17:31:17 19:17:32:18 05:03:54:02 05:03:55:02 
* FROM CLIP NAME:  VB152F-5A 
* PATCH SR027:  FROM SOURCE 1 TO RECORD 2 
* SOURCE FILE: A263C003_160921_R1BY
107  SR027    A     C        20:18:56:23 20:18:58:10 05:03:54:02 05:03:55:12 
* FROM CLIP NAME:  B152H-1A 
* SOURCE FILE: A263C003_160921_R1BY
108  SR025    A3    C        16:05:49:09 16:05:51:17 05:03:54:02 05:03:56:09 
* FROM CLIP NAME:  V99H-1 
* PATCH SR025:  FROM SOURCE 1 TO RECORD 3 
* SOURCE FILE: B194C001_160919_R16W
109  SR027    A2    C        19:17:32:17 19:17:33:17 05:03:55:02 05:03:56:01 
* FROM CLIP NAME:  VB152F-5A 
* PATCH SR027:  FROM SOURCE 1 TO RECORD 2 
* SOURCE FILE: A263C003_160921_R1BY
110  SR027    A     C        20:59:26:12 20:59:26:21 05:03:56:09 05:03:56:17 
* FROM CLIP NAME:  VB152L-1A 
* SOURCE FILE: A263C003_160921_R1BY
111  SR025    A3    C        16:05:46:21 16:05:47:19 05:03:56:09 05:03:57:06 
* FROM CLIP NAME:  V99H-1 
* PATCH SR025:  FROM SOURCE 1 TO RECORD 3 
* SOURCE FILE: B194C001_160919_R16W
112  SR027    A     C        20:59:26:20 20:59:27:10 05:03:56:17 05:03:57:06 
* FROM CLIP NAME:  VB152L-1A 
* SOURCE FILE: A263C003_160921_R1BY
113  SR024    A3    C        21:03:00:03 21:03:03:18 05:03:57:06 05:04:00:20 
* FROM CLIP NAME:  113G-1A 
* PATCH SR024:  FROM SOURCE 1 TO RECORD 3 
* SOURCE FILE: A242C003_160916_R1BY
114  SR027    A     C        20:06:36:12 20:06:38:06 05:03:59:22 05:04:01:15 
* FROM CLIP NAME:  VB152G-4A 
* SOURCE FILE: A263C003_160921_R1BY
115  SR027    A     C        20:06:39:12 20:06:44:01 05:04:01:15 05:04:06:03 
* FROM CLIP NAME:  B152G-4B 
* SOURCE FILE: A263C003_160921_R1BY
116  SR025    A3    C        16:05:51:17 16:05:51:19 05:04:03:17 05:04:03:18 
* FROM CLIP NAME:  V99H-1 
* PATCH SR025:  FROM SOURCE 1 TO RECORD 3 
* SOURCE FILE: B194C001_160919_R16W
117  SR025    A3    C        16:05:52:03 16:05:58:16 05:04:03:18 05:04:10:06 
* FROM CLIP NAME:  V99H-1 
* PATCH SR025:  FROM SOURCE 1 TO RECORD 3 
* SOURCE FILE: B194C001_160919_R16W
118  SR027    A     C        20:59:18:22 20:59:20:10 05:04:06:03 05:04:07:14 
* FROM CLIP NAME:  VB152L-1A 
* SOURCE FILE: A263C003_160921_R1BY
119  SR027    A2    C        20:06:08:15 20:06:12:19 05:04:06:22 05:04:11:01 
* FROM CLIP NAME:  VB152G-4A 
* PATCH SR027:  FROM SOURCE 1 TO RECORD 2 
* SOURCE FILE: A263C003_160921_R1BY
120  SR025    A3    C        16:05:52:06 16:05:53:02 05:04:10:06 05:04:11:01 
* FROM CLIP NAME:  V99H-1 
* PATCH SR025:  FROM SOURCE 1 TO RECORD 3 
* SOURCE FILE: B194C001_160919_R16W
121  SR027    A2    C        20:03:57:02 20:03:57:12 05:04:11:01 05:04:11:10 
* FROM CLIP NAME:  VB152G-4A 
* PATCH SR027:  FROM SOURCE 1 TO RECORD 2 
* SOURCE FILE: A263C003_160921_R1BY
122  SR025    A3    C        16:05:53:11 16:05:55:11 05:04:11:01 05:04:13:00 
* FROM CLIP NAME:  V99H-1 
* PATCH SR025:  FROM SOURCE 1 TO RECORD 3 
* SOURCE FILE: B194C001_160919_R16W
123  SR027    A     C        20:06:12:20 20:06:15:14 05:04:11:01 05:04:13:18 
* FROM CLIP NAME:  VB152G-4A 
* SOURCE FILE: A263C003_160921_R1BY
124  SR027    A     C        21:19:00:20 21:19:01:07 05:04:13:20 05:04:14:06 
* FROM CLIP NAME:  B152N-1A 
* SOURCE FILE: A263C003_160921_R1BY
125  SR027    A2    C        20:58:21:10 20:58:22:14 05:04:14:18 05:04:15:21 
* FROM CLIP NAME:  VB152L-1B 
* PATCH SR027:  FROM SOURCE 1 TO RECORD 2 
* SOURCE FILE: A263C003_160921_R1BY
126  SR027    A2    C        20:58:22:16 20:58:22:18 05:04:15:21 05:04:15:22 
* FROM CLIP NAME:  VB152L-1B 
* PATCH SR027:  FROM SOURCE 1 TO RECORD 2 
* SOURCE FILE: A263C003_160921_R1BY
127  SR027    A3    C        21:44:23:11 21:44:24:03 05:04:17:09 05:04:18:00 
* FROM CLIP NAME:  B152Q-1 
* PATCH SR027:  FROM SOURCE 1 TO RECORD 3 
* SOURCE FILE: A263C003_160921_R1BY
128  SR028    A     C        15:23:16:04 15:23:17:00 05:04:17:14 05:04:18:09 
* FROM CLIP NAME:  VB152W-3A 
* SOURCE FILE: A276C009_160922_R1BY
129  SR027    A3    C        21:44:24:11 21:44:24:14 05:04:18:09 05:04:18:11 
* FROM CLIP NAME:  B152Q-1 
* PATCH SR027:  FROM SOURCE 1 TO RECORD 3 
* SOURCE FILE: A263C003_160921_R1BY
130  SR028    A     C        15:23:17:00 15:23:17:09 05:04:18:09 05:04:18:17 
* FROM CLIP NAME:  VB152W-3B 
* TO CLIP NAME:  VB152W-3A 
* SOURCE FILE: A276C009_160922_R1BY
131  SR028    A     C        15:23:17:08 15:23:17:15 05:04:18:17 05:04:18:23 
* FROM CLIP NAME:  VB152W-3B 
* SOURCE FILE: A276C009_160922_R1BY
132  SR028    A     C        15:23:18:06 15:23:18:15 05:04:18:23 05:04:19:07 
* FROM CLIP NAME:  VB152W-3A 
* TO CLIP NAME:  VB152W-3B 
* SOURCE FILE: A276C009_160922_R1BY
133  SR028    A     C        15:23:18:14 15:23:19:06 05:04:19:07 05:04:19:22 
* FROM CLIP NAME:  VB152W-3A 
* SOURCE FILE: A276C009_160922_R1BY
134  SR028    A3    C        15:19:47:14 15:19:48:06 05:04:19:07 05:04:19:22 
* FROM CLIP NAME:  VB152W-2A 
* PATCH SR028:  FROM SOURCE 1 TO RECORD 3 
* SOURCE FILE: A276C009_160922_R1BY
135  SR028    A3    C        15:19:50:00 15:19:50:22 05:04:19:22 05:04:20:19 
* FROM CLIP NAME:  VB152W-2A 
* PATCH SR028:  FROM SOURCE 1 TO RECORD 3 
* SOURCE FILE: A276C009_160922_R1BY
136  SR027    A     C        22:14:08:21 22:14:11:08 05:04:19:22 05:04:22:08 
* FROM CLIP NAME:  B152S-1 
* SOURCE FILE: A263C003_160921_R1BY
137  SR027    A     C        22:14:11:07 22:14:13:06 05:04:22:08 05:04:24:06 
* FROM CLIP NAME:  B152S-1 
* SOURCE FILE: A263C003_160921_R1BY
138  SR028    A2    C        16:55:04:15 16:55:06:06 05:04:23:23 05:04:25:13 
* FROM CLIP NAME:  V154B-3B 
* PATCH SR028:  FROM SOURCE 1 TO RECORD 2 
* SOURCE FILE: A276C009_160922_R1BY
139  SR028    A2    C        16:55:06:14 16:55:07:15 05:04:25:13 05:04:26:13 
* FROM CLIP NAME:  V154B-3B 
* PATCH SR028:  FROM SOURCE 1 TO RECORD 2 
* SOURCE FILE: A276C009_160922_R1BY
140  SR028    A2    C        16:55:07:14 16:55:08:06 05:04:26:13 05:04:27:04 
* FROM CLIP NAME:  V154B-3B 
* PATCH SR028:  FROM SOURCE 1 TO RECORD 2 
* SOURCE FILE: A276C009_160922_R1BY
141  SR028    A     C        16:55:14:07 16:55:19:22 05:04:26:16 05:04:32:06 
* FROM CLIP NAME:  V154B-3A 
* SOURCE FILE: A276C009_160922_R1BY
142  SR028    A     C        16:55:26:03 16:55:29:19 05:04:32:06 05:04:35:21 
* FROM CLIP NAME:  V154B-3A 
* SOURCE FILE: A276C009_160922_R1BY
143  SR028    A     C        16:55:32:21 16:55:35:07 05:04:35:21 05:04:38:06 
* FROM CLIP NAME:  V154B-3A 
* SOURCE FILE: A276C009_160922_R1BY
144  SR028    A2    C        17:34:12:13 17:34:14:23 05:04:35:21 05:04:38:06 
* FROM CLIP NAME:  154D-1A 
* PATCH SR028:  FROM SOURCE 1 TO RECORD 2 
* SOURCE FILE: A276C009_160922_R1BY
145  SR028    A     C        16:55:29:18 16:55:31:11 05:04:38:06 05:04:39:22 
* FROM CLIP NAME:  V154B-3A 
* SOURCE FILE: A276C009_160922_R1BY
146  SR025    A3    C        16:05:43:05 16:05:47:09 05:04:39:22 05:04:44:01 
* FROM CLIP NAME:  V99H-1 
* PATCH SR025:  FROM SOURCE 1 TO RECORD 3 
* SOURCE FILE: B194C001_160919_R16W
147  SR028    A     C        17:43:25:09 17:43:27:06 05:04:42:13 05:04:44:09 
* FROM CLIP NAME:  154D-3A 
* SOURCE FILE: A276C009_160922_R1BY
148  SR025    A3    C        16:05:48:15 16:05:49:00 05:04:44:01 05:04:44:09 
* FROM CLIP NAME:  V99H-1 
* TO CLIP NAME:  V99H-1 
* PATCH SR025:  FROM SOURCE 1 TO RECORD 3 
* PATCH SR025:  FROM SOURCE 1 TO RECORD 3 
* SOURCE FILE: B194C001_160919_R16W
149  SR028    A     C        17:43:31:08 17:43:32:21 05:04:44:09 05:04:45:21 
* FROM CLIP NAME:  154D-3A 
* SOURCE FILE: A276C009_160922_R1BY
150  SR025    A3    C        16:05:48:23 16:05:51:11 05:04:44:09 05:04:46:20 
* FROM CLIP NAME:  V99H-1 
* PATCH SR025:  FROM SOURCE 1 TO RECORD 3 
* SOURCE FILE: B194C001_160919_R16W
151  SR028    A     C        17:43:34:23 17:43:35:17 05:04:45:21 05:04:46:14 
* FROM CLIP NAME:  154D-3A 
* SOURCE FILE: A276C009_160922_R1BY
152  SR028    A     C        17:43:33:13 17:43:33:20 05:04:46:14 05:04:46:20 
* FROM CLIP NAME:  154D-3A 
* SOURCE FILE: A276C009_160922_R1BY
153  SR028    A     C        17:37:32:06 17:37:34:07 05:04:46:20 05:04:48:20 
* FROM CLIP NAME:  154D-1A 
* SOURCE FILE: A276C009_160922_R1BY
154  SR025    A3    C        16:05:53:17 16:05:55:18 05:04:46:20 05:04:48:20 
* FROM CLIP NAME:  V99H-1 
* PATCH SR025:  FROM SOURCE 1 TO RECORD 3 
* SOURCE FILE: B194C001_160919_R16W
155  SR028    A2    C        19:53:04:22 19:53:06:09 05:04:48:20 05:04:50:06 
* FROM CLIP NAME:  V154H-1A 
* PATCH SR028:  FROM SOURCE 1 TO RECORD 2 
* SOURCE FILE: A276C009_160922_R1BY
156  SR025    A3    C        16:06:02:13 16:06:04:00 05:04:48:20 05:04:50:06 
* FROM CLIP NAME:  V99H-1 
* PATCH SR025:  FROM SOURCE 1 TO RECORD 3 
* SOURCE FILE: B194C001_160919_R16W
157  SR028    A2    C        17:20:40:11 17:20:40:17 05:04:50:06 05:04:50:11 
* FROM CLIP NAME:  V154C-1A 
* PATCH SR028:  FROM SOURCE 1 TO RECORD 2 
* SOURCE FILE: A276C009_160922_R1BY
158  SR025    A3    C        16:06:07:08 16:06:09:06 05:04:50:06 05:04:52:03 
* FROM CLIP NAME:  V99H-1 
* PATCH SR025:  FROM SOURCE 1 TO RECORD 3 
* SOURCE FILE: B194C001_160919_R16W
159  SR028    A     C        17:21:36:01 17:21:38:01 05:04:50:06 05:04:52:05 
* FROM CLIP NAME:  V154C-1A 
* SOURCE FILE: A276C009_160922_R1BY
160  SR028    A     C        16:56:23:00 16:56:24:16 05:04:52:05 05:04:53:20 
* FROM CLIP NAME:  V154B-3A 
* SOURCE FILE: A276C009_160922_R1BY
161  SR028    A     C        17:21:39:16 17:21:40:20 05:04:53:20 05:04:54:23 
* FROM CLIP NAME:  V154C-1A 
* SOURCE FILE: A276C009_160922_R1BY
162  SR028    A2    C        17:43:56:23 17:43:58:03 05:04:53:20 05:04:54:23 
* FROM CLIP NAME:  154D-3A 
* PATCH SR028:  FROM SOURCE 1 TO RECORD 2 
* SOURCE FILE: A276C009_160922_R1BY
163  SR028    A     C        17:43:59:12 17:44:01:11 05:04:54:23 05:04:56:21 
* FROM CLIP NAME:  154D-3A 
* SOURCE FILE: A276C009_160922_R1BY
164  SR028    A2    C        19:03:28:21 19:03:30:02 05:04:55:18 05:04:56:22 
* FROM CLIP NAME:  V154E-2A 
* PATCH SR028:  FROM SOURCE 1 TO RECORD 2 
* SOURCE FILE: A276C009_160922_R1BY
165  SR028    A     C        19:21:01:00 19:21:01:10 05:04:56:21 05:04:57:06 
* FROM CLIP NAME:  V154F-1A 
* SOURCE FILE: A276C009_160922_R1BY
166  SR028    A     C        19:20:53:06 19:20:54:22 05:04:57:06 05:04:58:21 
* FROM CLIP NAME:  V154F-1A 
* SOURCE FILE: A276C009_160922_R1BY
167  SR028    A2    C        19:42:25:23 19:42:26:20 05:04:57:19 05:04:58:15 
* FROM CLIP NAME:  V154G-1A 
* PATCH SR028:  FROM SOURCE 1 TO RECORD 2 
* SOURCE FILE: A276C009_160922_R1BY
168  SR029    A     C        18:26:02:09 18:26:04:15 05:04:58:21 05:05:01:02 
* FROM CLIP NAME:  V154Z-2A 
* SOURCE FILE: A289C002_160923_R1BY
169  SR020    A2    C        12:56:57:15 12:56:58:08 05:05:00:18 05:05:01:10 
* FROM CLIP NAME:  163-4A 
* PATCH SR020:  FROM SOURCE 1 TO RECORD 2 
* SOURCE FILE: A199C006_160912_R1BY
170  SR020    A     C        12:56:58:13 12:57:00:04 05:05:01:10 05:05:03:00 
* FROM CLIP NAME:  163-4A 
* SOURCE FILE: A199C006_160912_R1BY
171  SR020    A2    C        13:34:00:10 13:34:01:07 05:05:02:04 05:05:03:00 
* FROM CLIP NAME:  163B-1 
* PATCH SR020:  FROM SOURCE 1 TO RECORD 2 
* SOURCE FILE: A199C006_160912_R1BY
172  SR020    A     C        12:57:00:10 12:57:00:19 05:05:03:00 05:05:03:08 
* FROM CLIP NAME:  163-4A 
* TO CLIP NAME:  163-4A 
* SOURCE FILE: A199C006_160912_R1BY
173  SR020    A2    C        13:34:01:06 13:34:03:06 05:05:03:00 05:05:04:23 
* FROM CLIP NAME:  163B-1 
* PATCH SR020:  FROM SOURCE 1 TO RECORD 2 
* SOURCE FILE: A199C006_160912_R1BY
174  SR020    A     C        12:57:00:18 12:57:01:03 05:05:03:08 05:05:03:16 
* FROM CLIP NAME:  163-4A 
* SOURCE FILE: A199C006_160912_R1BY
175  SR020    A     C        12:39:32:01 12:39:32:10 05:05:03:16 05:05:04:00 
* FROM CLIP NAME:  163-1A 
* TO CLIP NAME:  163-4A 
* SOURCE FILE: A199C006_160912_R1BY
176  SR020    A     C        12:39:32:09 12:39:33:03 05:05:04:00 05:05:04:17 
* FROM CLIP NAME:  163-1A 
* SOURCE FILE: A199C006_160912_R1BY
177  SR020    A     C        12:39:30:03 12:39:31:05 05:05:04:17 05:05:05:18 
* FROM CLIP NAME:  163-1A 
* SOURCE FILE: A199C006_160912_R1BY
178  SR020    A     C        12:39:31:04 12:39:32:10 05:05:05:18 05:05:06:23 
* FROM CLIP NAME:  163-1A 
* SOURCE FILE: A199C006_160912_R1BY
179  SR020    A2    C        13:34:12:10 13:34:14:01 05:05:05:18 05:05:07:08 
* FROM CLIP NAME:  163B-1 
* PATCH SR020:  FROM SOURCE 1 TO RECORD 2 
* SOURCE FILE: A199C006_160912_R1BY
180  SR020    A3    C        12:39:33:08 12:39:34:17 05:05:06:00 05:05:07:08 
* FROM CLIP NAME:  163-1A 
* PATCH SR020:  FROM SOURCE 1 TO RECORD 3 
* SOURCE FILE: A199C006_160912_R1BY
181  SR020    A     C        12:57:07:21 12:57:08:07 05:05:06:23 05:05:07:08 
* FROM CLIP NAME:  163-4A 
* SOURCE FILE: A199C006_160912_R1BY
182  SR029    A     C        18:26:06:19 18:26:07:08 05:05:07:08 05:05:07:20 
* FROM CLIP NAME:  V154Z-2A 
* TO CLIP NAME:  163-4A 
* SOURCE FILE: A289C002_160923_R1BY
183  SR029    A2    C        18:26:15:22 18:26:16:21 05:05:07:08 05:05:08:06 
* FROM CLIP NAME:  V154Z-2A 
* PATCH SR029:  FROM SOURCE 1 TO RECORD 2 
* SOURCE FILE: A289C002_160923_R1BY
184  SR029    A     C        18:26:07:07 18:26:07:19 05:05:07:20 05:05:08:07 
* FROM CLIP NAME:  V154Z-2A 
* SOURCE FILE: A289C002_160923_R1BY
185  SR029    A     C        18:22:45:03 18:22:45:05 05:05:08:07 05:05:08:08 
* FROM CLIP NAME:  V154Z-1A 
* SOURCE FILE: A289C002_160923_R1BY
186  SR029    A     C        18:06:31:15 18:06:32:13 05:05:08:08 05:05:09:05 
* FROM CLIP NAME:  V154Y-2A 
* SOURCE FILE: A289C002_160923_R1BY
187  SR029    A     C        18:06:33:09 18:06:35:22 05:05:09:05 05:05:11:17 
* FROM CLIP NAME:  V154Y-2A 
* SOURCE FILE: A289C002_160923_R1BY
188  PUNCH_-_ A3    C        00:00:00:00 00:00:00:00 05:05:09:16 05:05:10:00 
* FROM CLIP NAME:  PUNCH - WET 1F - SLAP 
* PATCH PUNCH_-_:  FROM SOURCE 1 TO RECORD 3 
* SOURCE FILE: PUNCH - WET 1F - SLAP
189  SR020    A2    C        13:34:13:22 13:34:15:01 05:05:13:21 05:05:14:23 
* FROM CLIP NAME:  163B-1 
* PATCH SR020:  FROM SOURCE 1 TO RECORD 2 
* SOURCE FILE: A199C006_160912_R1BY
190  SR020    A3    C        12:39:35:00 12:39:36:17 05:05:14:21 05:05:16:13 
* FROM CLIP NAME:  163-1A 
* PATCH SR020:  FROM SOURCE 1 TO RECORD 3 
* SOURCE FILE: A199C006_160912_R1BY
191  SR020    A2    C        12:57:10:12 12:57:12:03 05:05:14:23 05:05:16:13 
* FROM CLIP NAME:  163-4A 
* PATCH SR020:  FROM SOURCE 1 TO RECORD 2 
* SOURCE FILE: A199C006_160912_R1BY
192  SR020    A     C        12:56:58:11 12:56:59:17 05:05:16:02 05:05:17:07 
* FROM CLIP NAME:  163-4A 
* SOURCE FILE: A199C006_160912_R1BY
193  SR020    A2    C        12:57:12:22 12:57:13:12 05:05:16:13 05:05:17:02 
* FROM CLIP NAME:  163-4A 
* PATCH SR020:  FROM SOURCE 1 TO RECORD 2 
* SOURCE FILE: A199C006_160912_R1BY
194  SR020    A3    C        12:39:38:03 12:39:38:22 05:05:16:13 05:05:17:07 
* FROM CLIP NAME:  163-1A 
* PATCH SR020:  FROM SOURCE 1 TO RECORD 3 
* SOURCE FILE: A199C006_160912_R1BY
195  SR020    A     C        12:39:46:09 12:39:46:23 05:05:17:07 05:05:17:20 
* FROM CLIP NAME:  163-1A 
* SOURCE FILE: A199C006_160912_R1BY
196  SR020    A     C        13:34:18:19 13:34:20:12 05:05:17:20 05:05:19:12 
* FROM CLIP NAME:  163B-1 
* SOURCE FILE: A199C006_160912_R1BY
197  SR020    A     C        12:57:24:07 12:57:25:15 05:05:19:12 05:05:20:19 
* FROM CLIP NAME:  163-4A 
* SOURCE FILE: A199C006_160912_R1BY
198  SR020    A     C        12:57:37:14 12:57:38:16 05:05:20:19 05:05:21:20 
* FROM CLIP NAME:  163-4A 
* SOURCE FILE: A199C006_160912_R1BY
199  SR028    A     C        22:29:48:07 22:29:49:06 05:05:21:20 05:05:22:18 
* FROM CLIP NAME:  V154N-1A 
* SOURCE FILE: A276C009_160922_R1BY
200  SR028    A     C        22:29:44:13 22:29:44:21 05:05:22:18 05:05:23:01 
* FROM CLIP NAME:  V154N-1A 
* TO CLIP NAME:  V154N-1A 
* SOURCE FILE: A276C009_160922_R1BY
201  SR028    A     C        22:29:44:20 22:29:45:02 05:05:23:01 05:05:23:06 
* FROM CLIP NAME:  V154N-1A 
* SOURCE FILE: A276C009_160922_R1BY
202  SR028    A     C        22:05:02:13 22:05:02:20 05:05:23:11 05:05:23:17 
* FROM CLIP NAME:  V154M-3A 
* SOURCE FILE: A276C009_160922_R1BY
203  SR028    A     C        22:05:03:00 22:05:03:02 05:05:23:17 05:05:23:18 
* FROM CLIP NAME:  V154M-3A 
* SOURCE FILE: A276C009_160922_R1BY
204  SR028    A     C        22:07:12:23 22:07:13:23 05:05:23:18 05:05:24:17 
* FROM CLIP NAME:  V154M-4A 
* SOURCE FILE: A276C009_160922_R1BY
205  SR028    A3    C        21:21:02:09 21:21:02:23 05:05:23:22 05:05:24:11 
* FROM CLIP NAME:  V154K-1B 
* PATCH SR028:  FROM SOURCE 1 TO RECORD 3 
* SOURCE FILE: A276C009_160922_R1BY
206  SR028    A2    C        21:44:20:16 21:44:21:08 05:05:24:02 05:05:24:17 
* FROM CLIP NAME:  V154L-2A 
* SOURCE FILE: A276C009_160922_R1BY
207  SR028    A2    C        21:44:21:04 21:44:21:14 05:05:24:17 05:05:25:02 
* FROM CLIP NAME:  V154L-2A 
* SOURCE FILE: A276C009_160922_R1BY
208  SR028    A     C        21:29:30:18 21:29:31:17 05:05:24:17 05:05:25:15 
* FROM CLIP NAME:  V154K-3A 
* SOURCE FILE: A276C009_160922_R1BY
209  SR028    A     C        22:01:26:05 22:01:27:10 05:05:25:15 05:05:26:19 
* FROM CLIP NAME:  V154M-1A 
* SOURCE FILE: A276C009_160922_R1BY
210  SR028    A2    C        21:44:19:00 21:44:20:05 05:05:26:19 05:05:27:23 
* FROM CLIP NAME:  V154L-2A 
* PATCH SR028:  FROM SOURCE 1 TO RECORD 2 
* SOURCE FILE: A276C009_160922_R1BY
211  SR028    A     C        22:07:15:18 22:07:16:09 05:05:27:23 05:05:28:13 
* FROM CLIP NAME:  V154M-4A 
* SOURCE FILE: A276C009_160922_R1BY
212  SR028    A     C        21:29:33:12 21:29:34:01 05:05:28:13 05:05:29:01 
* FROM CLIP NAME:  V154K-3A 
* SOURCE FILE: A276C009_160922_R1BY
213  SR028    A     C        21:29:33:12 21:29:34:07 05:05:29:01 05:05:29:19 
* FROM CLIP NAME:  V154K-3A 
* SOURCE FILE: A276C009_160922_R1BY
214  SR028    A     C        22:07:18:17 22:07:21:13 05:05:29:19 05:05:32:14 
* FROM CLIP NAME:  V154M-4A 
* SOURCE FILE: A276C009_160922_R1BY
215  SR028    A     C        21:44:21:15 21:44:26:00 05:05:32:14 05:05:36:22 
* FROM CLIP NAME:  V154L-2A 
* SOURCE FILE: A276C009_160922_R1BY
216  SR028    A     C        22:03:08:10 22:03:09:21 05:05:36:22 05:05:38:08 
* FROM CLIP NAME:  V154M-2A 
* SOURCE FILE: A276C009_160922_R1BY
217  I4R4     A     C        17:32:37:16 17:32:38:06 05:05:38:08 05:05:38:22 
* FROM CLIP NAME:  R152D-4A 
* SOURCE FILE: A020C004_170729_R0RO
218  I4R4     A     C        18:17:47:03 18:17:47:21 05:05:38:22 05:05:39:16 
* FROM CLIP NAME:  R152E-4A 
* SOURCE FILE: A020C004_170729_R0RO
219  I4R4     A     C        18:17:47:22 18:17:49:03 05:05:39:16 05:05:40:21 
* FROM CLIP NAME:  R152E-4A 
* SOURCE FILE: A020C004_170729_R0RO
220  I4R4     A     C        20:09:28:04 20:09:29:01 05:05:40:21 05:05:41:18 
* FROM CLIP NAME:  R152K-1A 
* SOURCE FILE: A020C004_170729_R0RO
221  I4R4     A     C        18:17:50:02 18:17:51:08 05:05:41:18 05:05:43:00 
* FROM CLIP NAME:  R152E-4A 
* SOURCE FILE: A020C004_170729_R0RO
222  SR025    A3    C        16:05:51:21 16:05:53:00 05:05:43:02 05:05:44:04 
* FROM CLIP NAME:  V99H-1 
* PATCH SR025:  FROM SOURCE 1 TO RECORD 3 
* SOURCE FILE: B194C001_160919_R16W
223  SR025    A3    C        16:05:57:18 16:05:57:23 05:05:44:04 05:05:44:08 
* FROM CLIP NAME:  V99H-1 
* PATCH SR025:  FROM SOURCE 1 TO RECORD 3 
* SOURCE FILE: B194C001_160919_R16W
224  I4R4     A     C        18:17:51:10 18:17:54:02 05:05:44:08 05:05:47:00 
* FROM CLIP NAME:  R152E-4A 
* SOURCE FILE: A020C004_170729_R0RO
225  I4R4     A     C        18:29:21:02 18:29:21:12 05:05:47:00 05:05:47:10 
* FROM CLIP NAME:  R152F-1A 
* TO CLIP NAME:  R152E-4A 
* SOURCE FILE: A020C004_170729_R0RO
226  I4R4     A     C        18:29:21:12 18:29:23:03 05:05:47:10 05:05:49:01 
* FROM CLIP NAME:  R152F-1A 
* SOURCE FILE: A020C004_170729_R0RO
227  I4R4     A     C        18:29:24:00 18:29:25:02 05:05:49:01 05:05:50:03 
* FROM CLIP NAME:  R152F-1A 
* SOURCE FILE: A020C004_170729_R0RO
228  I4R4     A     C        18:17:56:10 18:17:56:20 05:05:50:03 05:05:50:13 
* FROM CLIP NAME:  R152E-4A 
* SOURCE FILE: A020C004_170729_R0RO
229  I4R4     A     C        18:29:25:18 18:29:27:15 05:05:50:13 05:05:52:10 
* FROM CLIP NAME:  R152F-1A 
* SOURCE FILE: A020C004_170729_R0RO
230  SR025    A3    C        16:05:51:00 16:05:52:22 05:05:50:13 05:05:52:10 
* FROM CLIP NAME:  V99H-1 
* PATCH SR025:  FROM SOURCE 1 TO RECORD 3 
* SOURCE FILE: B194C001_160919_R16W
231  SR025    A3    C        16:05:57:22 16:05:59:04 05:05:52:10 05:05:53:15 
* FROM CLIP NAME:  V99H-1 
* PATCH SR025:  FROM SOURCE 1 TO RECORD 3 
* SOURCE FILE: B194C001_160919_R16W
232  I4R4     A     C        22:02:54:23 22:02:56:09 05:05:52:10 05:05:53:20 
* FROM CLIP NAME:  R152U-2A 
* SOURCE FILE: A020C004_170729_R0RO
233  SR025    A3    C        16:05:55:21 16:05:56:22 05:05:53:15 05:05:54:15 
* FROM CLIP NAME:  V99H-1 
* TO CLIP NAME:  V99H-1 
* PATCH SR025:  FROM SOURCE 1 TO RECORD 3 
* PATCH SR025:  FROM SOURCE 1 TO RECORD 3 
* SOURCE FILE: B194C001_160919_R16W
234  SR025    A2    C        16:05:58:23 16:06:01:23 05:05:53:15 05:05:56:14 
* FROM CLIP NAME:  V99H-1 
* PATCH SR025:  FROM SOURCE 1 TO RECORD 2 
* SOURCE FILE: B194C001_160919_R16W
235  I4R4     A     C        18:32:46:11 18:32:47:11 05:05:53:20 05:05:54:20 
* FROM CLIP NAME:  R152F-3A 
* SOURCE FILE: A020C004_170729_R0RO
236  SR025    A3    C        16:05:56:21 16:05:58:21 05:05:54:15 05:05:56:14 
* FROM CLIP NAME:  V99H-1 
* PATCH SR025:  FROM SOURCE 1 TO RECORD 3 
* SOURCE FILE: B194C001_160919_R16W
237  SR025    A2    C        16:06:06:21 16:06:09:15 05:05:56:14 05:05:59:07 
* FROM CLIP NAME:  V99H-1 
* PATCH SR025:  FROM SOURCE 1 TO RECORD 2 
* SOURCE FILE: B194C001_160919_R16W
238  SR025    A3    C        16:06:03:19 16:06:08:01 05:05:56:14 05:06:00:19 
* FROM CLIP NAME:  V99H-1 
* PATCH SR025:  FROM SOURCE 1 TO RECORD 3 
* SOURCE FILE: B194C001_160919_R16W
239  I4R4     A     C        22:14:45:08 22:14:47:20 05:05:59:07 05:06:01:19 
* FROM CLIP NAME:  R152V-1A 
* SOURCE FILE: A020C004_170729_R0RO
240  SR025    A3    C        16:06:08:13 16:06:09:14 05:06:00:19 05:06:01:19 
* FROM CLIP NAME:  V99H-1 
* PATCH SR025:  FROM SOURCE 1 TO RECORD 3 
* SOURCE FILE: B194C001_160919_R16W
241  SR025    A3    C        16:06:00:00 16:06:00:06 05:06:01:19 05:06:02:00 
* FROM CLIP NAME:  V99H-1 
* PATCH SR025:  FROM SOURCE 1 TO RECORD 3 
* SOURCE FILE: B194C001_160919_R16W
242  SR025    A2    C        16:05:49:10 16:05:50:08 05:06:01:19 05:06:02:16 
* FROM CLIP NAME:  V99H-1 
* PATCH SR025:  FROM SOURCE 1 TO RECORD 2 
* SOURCE FILE: B194C001_160919_R16W
243  SR025    A3    C        16:06:00:16 16:06:01:01 05:06:02:00 05:06:02:08 
* FROM CLIP NAME:  V99H-1 
* PATCH SR025:  FROM SOURCE 1 TO RECORD 3 
* SOURCE FILE: B194C001_160919_R16W
244  SR025    A3    C        16:06:03:11 16:06:03:22 05:06:02:08 05:06:02:18 
* FROM CLIP NAME:  V99H-1 
* PATCH SR025:  FROM SOURCE 1 TO RECORD 3 
* SOURCE FILE: B194C001_160919_R16W
245  SR025    A2    C        16:06:03:01 16:06:03:04 05:06:02:16 05:06:02:18 
* FROM CLIP NAME:  V99H-1 
* PATCH SR025:  FROM SOURCE 1 TO RECORD 2 
* SOURCE FILE: B194C001_160919_R16W
246  SR025    A3    C        16:06:04:00 16:06:04:13 05:06:02:18 05:06:03:06 
* FROM CLIP NAME:  V99H-1 
* PATCH SR025:  FROM SOURCE 1 TO RECORD 3 
* SOURCE FILE: B194C001_160919_R16W
247  SR025    A2    C        16:06:06:17 16:06:07:18 05:06:03:10 05:06:04:10 
* FROM CLIP NAME:  V99H-1 
* PATCH SR025:  FROM SOURCE 1 TO RECORD 2 
* SOURCE FILE: B194C001_160919_R16W
248  SR025    A3    C        16:06:05:23 16:06:06:12 05:06:03:22 05:06:04:10 
* FROM CLIP NAME:  V99H-1 
* PATCH SR025:  FROM SOURCE 1 TO RECORD 3 
* SOURCE FILE: B194C001_160919_R16W
249  I4R4     A     C        22:14:48:12 22:14:49:04 05:06:04:10 05:06:05:02 
* FROM CLIP NAME:  R152V-1A 
* SOURCE FILE: A020C004_170729_R0RO
250  SR025    A3    C        16:06:12:09 16:06:14:16 05:06:04:10 05:06:06:16 
* FROM CLIP NAME:  V99H-1 
* PATCH SR025:  FROM SOURCE 1 TO RECORD 3 
* SOURCE FILE: B194C001_160919_R16W
251  I4R4     A     C        18:15:50:22 18:15:51:13 05:06:05:02 05:06:05:17 
* FROM CLIP NAME:  R152E-3A 
* SOURCE FILE: A020C004_170729_R0RO
252  SR025    A     C        16:05:48:14 16:05:49:21 05:06:05:21 05:06:07:03 
* FROM CLIP NAME:  V99H-1 
* SOURCE FILE: B194C001_160919_R16W
253  SR025    A3    C        16:06:15:00 16:06:15:08 05:06:06:20 05:06:07:03 
* FROM CLIP NAME:  V99H-1 
* PATCH SR025:  FROM SOURCE 1 TO RECORD 3 
* SOURCE FILE: B194C001_160919_R16W
254  SR025    A     C        16:06:03:03 16:06:03:20 05:06:07:03 05:06:07:19 
* FROM CLIP NAME:  V99H-1 
* SOURCE FILE: B194C001_160919_R16W
255  SR025    A3    C        16:06:15:11 16:06:17:18 05:06:07:03 05:06:09:09 
* FROM CLIP NAME:  V99H-1 
* PATCH SR025:  FROM SOURCE 1 TO RECORD 3 
* SOURCE FILE: B194C001_160919_R16W
256  SR025    A     C        16:06:05:22 16:06:06:15 05:06:07:19 05:06:08:11 
* FROM CLIP NAME:  V99H-1 
* SOURCE FILE: B194C001_160919_R16W
257  SR025    A     C        16:06:06:18 16:06:07:19 05:06:08:11 05:06:09:11 
* FROM CLIP NAME:  V99H-1 
* SOURCE FILE: B194C001_160919_R16W
258  I4R4     A2    C        22:03:25:10 22:03:26:01 05:06:08:20 05:06:09:11 
* FROM CLIP NAME:  R152U-2A 
* PATCH I4R4:  FROM SOURCE 1 TO RECORD 2 
* SOURCE FILE: A020C004_170729_R0RO
259  SR025    A3    C        16:06:18:07 16:06:18:10 05:06:09:09 05:06:09:11 
* FROM CLIP NAME:  V99H-1 
* PATCH SR025:  FROM SOURCE 1 TO RECORD 3 
* SOURCE FILE: B194C001_160919_R16W
260  I4R4     A2    C        22:03:26:07 22:03:26:13 05:06:09:11 05:06:09:17 
* FROM CLIP NAME:  R152U-2A 
* PATCH I4R4:  FROM SOURCE 1 TO RECORD 2 
* SOURCE FILE: A020C004_170729_R0RO
261  SR025    A3    C        16:06:19:20 16:06:20:16 05:06:09:11 05:06:10:06 
* FROM CLIP NAME:  V99H-1 
* PATCH SR025:  FROM SOURCE 1 TO RECORD 3 
* SOURCE FILE: B194C001_160919_R16W
262  I4R4     A     C        22:03:26:18 22:03:27:22 05:06:09:11 05:06:10:15 
* FROM CLIP NAME:  R152U-2A 
* SOURCE FILE: A020C004_170729_R0RO
263  SR025    A3    C        16:06:20:15 16:06:21:17 05:06:10:10 05:06:11:11 
* FROM CLIP NAME:  V99H-1 
* PATCH SR025:  FROM SOURCE 1 TO RECORD 3 
* SOURCE FILE: B194C001_160919_R16W
264  SR028    A2    C        20:27:18:15 20:27:19:15 05:06:10:13 05:06:11:12 
* FROM CLIP NAME:  V154J-2A 
* PATCH SR028:  FROM SOURCE 1 TO RECORD 2 
* SOURCE FILE: A276C009_160922_R1BY
265  SR028    A     C        20:22:51:01 20:22:51:14 05:06:10:15 05:06:11:03 
* FROM CLIP NAME:  V154J-1A 
* TO CLIP NAME:  R152U-2A 
* SOURCE FILE: A276C009_160922_R1BY
266  SR028    A     C        20:22:51:13 20:22:52:12 05:06:11:03 05:06:12:01 
* FROM CLIP NAME:  V154J-1A 
* SOURCE FILE: A276C009_160922_R1BY
267  SR025    A3    C        16:06:05:11 16:06:06:02 05:06:11:11 05:06:12:01 
* FROM CLIP NAME:  V99H-1 
* PATCH SR025:  FROM SOURCE 1 TO RECORD 3 
* SOURCE FILE: B194C001_160919_R16W
268  SR025    A3    C        16:06:06:08 16:06:08:01 05:06:12:01 05:06:13:17 
* FROM CLIP NAME:  V99H-1 
* PATCH SR025:  FROM SOURCE 1 TO RECORD 3 
* SOURCE FILE: B194C001_160919_R16W
269  I4R4     A     C        18:57:53:02 18:57:54:16 05:06:13:07 05:06:14:21 
* FROM CLIP NAME:  R152G-3 
* SOURCE FILE: A020C004_170729_R0RO
270  SR025    A3    C        16:06:08:13 16:06:09:17 05:06:13:17 05:06:14:20 
* FROM CLIP NAME:  V99H-1 
* PATCH SR025:  FROM SOURCE 1 TO RECORD 3 
* SOURCE FILE: B194C001_160919_R16W
271  SR025    A3    C        16:06:12:05 16:06:14:21 05:06:15:18 05:06:18:09 
* FROM CLIP NAME:  V99H-1 
* PATCH SR025:  FROM SOURCE 1 TO RECORD 3 
* SOURCE FILE: B194C001_160919_R16W
272  I4R4     A     C        18:57:54:09 18:57:55:08 05:06:15:19 05:06:16:18 
* FROM CLIP NAME:  R152G-3 
* SOURCE FILE: A020C004_170729_R0RO
273  I4R4     A     C        18:57:54:23 18:57:56:19 05:06:16:18 05:06:18:14 
* FROM CLIP NAME:  R152G-3 
* SOURCE FILE: A020C004_170729_R0RO
274  SR025    A3    C        16:07:45:01 16:07:47:04 05:06:18:09 05:06:20:11 
* FROM CLIP NAME:  V99H-1.SUB.02 
* PATCH SR025:  FROM SOURCE 1 TO RECORD 3 
* SOURCE FILE: B194C001_160919_R16W
275  I4R4     A     C        20:11:17:17 20:11:18:17 05:06:18:14 05:06:19:14 
* FROM CLIP NAME:  R152K-2A 
* SOURCE FILE: A020C004_170729_R0RO
276  SR025    A2    C        16:05:48:15 16:05:50:08 05:06:18:14 05:06:20:06 
* FROM CLIP NAME:  V99H-1 
* PATCH SR025:  FROM SOURCE 1 TO RECORD 2 
* SOURCE FILE: B194C001_160919_R16W
277  SR025    A2    C        16:06:03:01 16:06:03:07 05:06:20:06 05:06:20:11 
* FROM CLIP NAME:  V99H-1 
* PATCH SR025:  FROM SOURCE 1 TO RECORD 2 
* SOURCE FILE: B194C001_160919_R16W
278  SR025    A2    C        16:06:03:13 16:06:03:20 05:06:20:11 05:06:20:17 
* FROM CLIP NAME:  V99H-1 
* PATCH SR025:  FROM SOURCE 1 TO RECORD 2 
* SOURCE FILE: B194C001_160919_R16W
279  SR025    A     C        16:04:50:20 16:04:52:09 05:06:20:11 05:06:21:23 
* FROM CLIP NAME:  V99G-1 
* SOURCE FILE: B194C001_160919_R16W
280  SR025    A3    C        16:07:47:10 16:07:48:23 05:06:20:11 05:06:21:23 
* FROM CLIP NAME:  V99H-1.SUB.02 
* PATCH SR025:  FROM SOURCE 1 TO RECORD 3 
* SOURCE FILE: B194C001_160919_R16W
281  SR025    A2    C        16:06:05:22 16:06:07:05 05:06:20:17 05:06:21:23 
* FROM CLIP NAME:  V99H-1 
* PATCH SR025:  FROM SOURCE 1 TO RECORD 2 
* SOURCE FILE: B194C001_160919_R16W
282  SR025    A2    C        16:06:07:07 16:06:07:20 05:06:21:23 05:06:22:11 
* FROM CLIP NAME:  V99H-1 
* PATCH SR025:  FROM SOURCE 1 TO RECORD 2 
* SOURCE FILE: B194C001_160919_R16W
283  SR025    A3    C        16:07:49:01 16:07:49:03 05:06:23:09 05:06:23:10 
* FROM CLIP NAME:  V99H-1.SUB.02 
* PATCH SR025:  FROM SOURCE 1 TO RECORD 3 
* SOURCE FILE: B194C001_160919_R16W
284  SR025    A3    C        16:07:50:12 16:07:50:16 05:06:23:10 05:06:23:13 
* FROM CLIP NAME:  V99H-1.SUB.02 
* PATCH SR025:  FROM SOURCE 1 TO RECORD 3 
* SOURCE FILE: B194C001_160919_R16W
285  SR025    A2    C        16:05:49:07 16:05:50:08 05:06:23:10 05:06:24:10 
* FROM CLIP NAME:  V99H-1 
* PATCH SR025:  FROM SOURCE 1 TO RECORD 2 
* SOURCE FILE: B194C001_160919_R16W
286  SR025    A3    C        16:08:01:06 16:08:04:10 05:06:23:13 05:06:26:16 
* FROM CLIP NAME:  V99H-1.SUB.02 
* PATCH SR025:  FROM SOURCE 1 TO RECORD 3 
* SOURCE FILE: B194C001_160919_R16W
287  SR025    A2    C        16:06:03:01 16:06:03:20 05:06:24:10 05:06:25:04 
* FROM CLIP NAME:  V99H-1 
* PATCH SR025:  FROM SOURCE 1 TO RECORD 2 
* SOURCE FILE: B194C001_160919_R16W
288  I4R4     A     C        18:16:11:23 18:16:13:14 05:06:25:01 05:06:26:16 
* FROM CLIP NAME:  R152E-3A 
* SOURCE FILE: A020C004_170729_R0RO
289  SR025    A2    C        16:06:05:22 16:06:07:11 05:06:25:04 05:06:26:16 
* FROM CLIP NAME:  V99H-1 
* PATCH SR025:  FROM SOURCE 1 TO RECORD 2 
* SOURCE FILE: B194C001_160919_R16W
290  I4R4     A     C        18:18:20:21 18:18:22:00 05:06:26:16 05:06:27:19 
* FROM CLIP NAME:  R152E-4A 
* SOURCE FILE: A020C004_170729_R0RO
291  SR025    A3    C        16:08:06:00 16:08:06:09 05:06:27:19 05:06:28:03 
* FROM CLIP NAME:  V99H-1.SUB.02 
* PATCH SR025:  FROM SOURCE 1 TO RECORD 3 
* SOURCE FILE: B194C001_160919_R16W
292  I4R4     A     C        18:49:50:02 18:49:50:12 05:06:27:19 05:06:28:05 
* FROM CLIP NAME:  R152G-1 
* SOURCE FILE: A020C004_170729_R0RO
293  I4R4     A     C        18:55:15:23 18:55:16:19 05:06:28:05 05:06:29:01 
* FROM CLIP NAME:  R152G-2 
* SOURCE FILE: A020C004_170729_R0RO
294  FALLOUT_ A2    C        00:00:00:00 00:00:00:00 05:06:28:08 05:06:29:04 
* FROM CLIP NAME:  FALLOUT R5 V010617 T1 FX MIX.WAV 
* PATCH FALLOUT1:  FROM SOURCE 1 TO RECORD 2 
* SOURCE FILE: FALLOUT R5 V010617 T1 FX MIX.WAV
295  FALLOUT_ A3    C        00:00:00:00 00:00:00:00 05:06:28:08 05:06:29:04 
* FROM CLIP NAME:  FALLOUT R5 V010617 T1 FX MIX.WAV 
* PATCH FALLOUT1:  FROM SOURCE 2 TO RECORD 3 
* SOURCE FILE: FALLOUT R5 V010617 T1 FX MIX.WAV
296  I4R4     A     C        19:44:17:06 19:44:20:06 05:06:29:18 05:06:32:18 
* FROM CLIP NAME:  R152J-2 
* SOURCE FILE: A020C004_170729_R0RO
297  FOLEY    A2    C        00:00:00:00 00:00:00:00 05:06:32:18 05:06:33:03 
* FROM CLIP NAME:  VARIOUS WHISTLES 
* PATCH FOLEY:  FROM SOURCE 1 TO RECORD 2 
* SOURCE FILE: FOLEY
298  I4R4     A     C        20:28:33:10 20:28:34:09 05:06:32:18 05:06:33:17 
* FROM CLIP NAME:  R152N-1A 
* SOURCE FILE: A020C004_170729_R0RO
299  I4R4     A     C        19:44:20:19 19:44:22:08 05:06:33:17 05:06:35:06 
* FROM CLIP NAME:  R152J-2 
* SOURCE FILE: A020C004_170729_R0RO
300  I4R4     A     C        19:44:22:21 19:44:23:14 05:06:35:06 05:06:35:23 
* FROM CLIP NAME:  R152J-2 
* SOURCE FILE: A020C004_170729_R0RO
301  I4R4     A     C        19:10:16:21 19:10:18:17 05:06:35:23 05:06:37:19 
* FROM CLIP NAME:  R152H-4 
* SOURCE FILE: A020C004_170729_R0RO
302  I4R4     A     C        19:44:25:16 19:44:27:05 05:06:37:19 05:06:39:08 
* FROM CLIP NAME:  R152J-2 
* SOURCE FILE: A020C004_170729_R0RO
303  I4R4     A     C        19:10:18:22 19:10:21:07 05:06:39:08 05:06:41:17 
* FROM CLIP NAME:  R152H-4 
* SOURCE FILE: A020C004_170729_R0RO
304  FOLEY    A2    C        00:00:00:00 00:00:00:00 05:06:40:03 05:06:42:20 
* FROM CLIP NAME:  VARIOUS WHISTLES 
* PATCH FOLEY:  FROM SOURCE 1 TO RECORD 2 
* SOURCE FILE: FOLEY
305  I4R3     A     C        20:06:37:10 20:06:49:04 05:06:42:02 05:06:53:20 
* FROM CLIP NAME:  R152A-3 
* SOURCE FILE: B008C007_170728_R17E
306  FALLOUT_ A3    C        00:00:00:00 00:00:00:00 05:06:44:23 05:06:45:19 
* FROM CLIP NAME:  FALLOUT R5 V010617 T1 FX MIX.WAV 
* PATCH FALLOUT1:  FROM SOURCE 1 TO RECORD 3 
* SOURCE FILE: FALLOUT R5 V010617 T1 FX MIX.WAV
307  FALLOUT_ A3    C        00:00:00:00 00:00:00:00 05:06:45:19 05:06:47:04 
* FROM CLIP NAME:  FALLOUT R5 V010617 T1 FX MIX.WAV 
* TO CLIP NAME:  FALLOUT R5 V010617 T1 FX MIX.WAV 
* PATCH FALLOUT1:  FROM SOURCE 1 TO RECORD 3 
* PATCH FALLOUT1:  FROM SOURCE 1 TO RECORD 3 
* SOURCE FILE: FALLOUT R5 V010617 T1 FX MIX.WAV
308  FALLOUT_ A3    C        00:00:00:00 00:00:00:00 05:06:47:04 05:06:49:10 
* FROM CLIP NAME:  FALLOUT R5 V010617 T1 FX MIX.WAV 
* PATCH FALLOUT1:  FROM SOURCE 1 TO RECORD 3 
* SOURCE FILE: FALLOUT R5 V010617 T1 FX MIX.WAV
309  I4R4     A     C        20:30:25:14 20:30:31:19 05:06:53:20 05:07:00:01 
* FROM CLIP NAME:  R152N-2A 
* SOURCE FILE: A020C004_170729_R0RO
310  I4R4     A     C        21:09:02:18 21:09:03:21 05:07:00:01 05:07:01:04 
* FROM CLIP NAME:  R152Q-4 
* SOURCE FILE: A020C004_170729_R0RO
311  I4R4     A2    C        21:45:31:02 21:45:33:17 05:07:01:04 05:07:03:19 
* FROM CLIP NAME:  R152T-1 
* PATCH I4R4:  FROM SOURCE 1 TO RECORD 2 
* SOURCE FILE: A020C004_170729_R0RO
312  I4R4     A     C        21:09:08:11 21:09:10:01 05:07:03:06 05:07:04:20 
* FROM CLIP NAME:  R152Q-4 
* SOURCE FILE: A020C004_170729_R0RO
313  SR028    A     C        23:04:42:08 23:04:43:06 05:07:04:20 05:07:05:17 
* FROM CLIP NAME:  V154P-3A 
* SOURCE FILE: A276C009_160922_R1BY
314  18-96_HO A3    C        00:00:00:00 00:00:00:00 05:07:04:20 05:07:05:17 
* FROM CLIP NAME:  18-96 HOSPITAL HEART MONITOR_ 76 BPM.MP3 
* PATCH 18-96_HO:  FROM SOURCE 1 TO RECORD 3 
* SOURCE FILE: 18-96 HOSPITAL HEART MONITOR_ 76 BPM.MP3
315  SR027    A2    C        20:46:13:12 20:46:14:16 05:07:04:20 05:07:05:23 
* FROM CLIP NAME:  VB152K-1A 
* PATCH SR027:  FROM SOURCE 1 TO RECORD 2 
* SOURCE FILE: A263C003_160921_R1BY
316  SR028    A     C        23:04:43:07 23:04:43:13 05:07:05:17 05:07:05:22 
* FROM CLIP NAME:  V154P-3A 
* SOURCE FILE: A276C009_160922_R1BY
317  SR029    A2    C        22:32:39:16 22:32:40:04 05:07:05:23 05:07:06:10 
* FROM CLIP NAME:  V154AJ-3A 
* PATCH SR029:  FROM SOURCE 1 TO RECORD 2 
* SOURCE FILE: A289C002_160923_R1BY
318  I4R3     A     C        19:15:28:22 19:15:30:15 05:07:09:15 05:07:11:08 
* FROM CLIP NAME:  R152-3 
* SOURCE FILE: B008C007_170728_R17E
319  I4R4     A     C        20:49:42:00 20:49:45:00 05:07:11:08 05:07:14:08 
* FROM CLIP NAME:  R152P-3A 
* SOURCE FILE: A020C004_170729_R0RO
320  I4R4     A     C        20:49:49:08 20:49:50:16 05:07:14:08 05:07:15:16 
* FROM CLIP NAME:  R152P-3A 
* SOURCE FILE: A020C004_170729_R0RO
321  I4R3     A     C        19:15:45:19 19:15:46:19 05:07:15:16 05:07:16:16 
* FROM CLIP NAME:  R152-3 
* TO CLIP NAME:  R152P-3A 
* SOURCE FILE: B008C007_170728_R17E
322  I4R3     A     C        19:15:46:19 19:16:01:15 05:07:16:16 05:07:31:12 
* FROM CLIP NAME:  R152-3 
* SOURCE FILE: B008C007_170728_R17E
323  SR026    A     C        20:03:19:19 20:03:23:00 05:07:31:12 05:07:34:16 
* FROM CLIP NAME:  164B-3A 
* SOURCE FILE: A256C002_160920_R1BY
324  FALLOUT_ A3    C        00:00:00:00 00:00:00:00 05:07:33:23 05:07:34:16 
* FROM CLIP NAME:  FALLOUT R5 V010617 T1 FX MIX.WAV 
* PATCH FALLOUT1:  FROM SOURCE 1 TO RECORD 3 
* SOURCE FILE: FALLOUT R5 V010617 T1 FX MIX.WAV
325  SR026    A     C        19:57:21:13 19:57:24:03 05:07:34:16 05:07:37:05 
* FROM CLIP NAME:  164B-2A 
* SOURCE FILE: A256C002_160920_R1BY
326  SR026    A     C        19:35:26:14 19:35:28:03 05:07:37:05 05:07:38:17 
* FROM CLIP NAME:  164A-1A 
* SOURCE FILE: A256C002_160920_R1BY
327  I4R4     A     C        22:00:50:00 22:00:52:20 05:07:38:17 05:07:41:13 
* FROM CLIP NAME:  R152U-1A 
* SOURCE FILE: A020C004_170729_R0RO
328  I4R4     A2    C        22:04:03:11 22:04:04:06 05:07:41:13 05:07:42:08 
* FROM CLIP NAME:  R152U-2B 
* PATCH I4R4:  FROM SOURCE 1 TO RECORD 2 
* SOURCE FILE: A020C004_170729_R0RO
329  I4R4     A     C        22:04:05:01 22:04:06:23 05:07:41:13 05:07:43:11 
* FROM CLIP NAME:  R152U-2B 
* SOURCE FILE: A020C004_170729_R0RO
330  18-96_HO A3    C        00:00:00:00 00:00:00:00 05:07:42:15 05:07:43:11 
* FROM CLIP NAME:  18-96 HOSPITAL HEART MONITOR_ 76 BPM.MP3 
* PATCH 18-96_HO:  FROM SOURCE 1 TO RECORD 3 
* SOURCE FILE: 18-96 HOSPITAL HEART MONITOR_ 76 BPM.MP3
331  I4R4     A     C        22:04:07:12 22:04:09:11 05:07:43:11 05:07:45:10 
* FROM CLIP NAME:  R152U-2B 
* SOURCE FILE: A020C004_170729_R0RO
332  18-96_HO A3    C        00:00:00:00 00:00:00:00 05:07:43:11 05:07:45:10 
* FROM CLIP NAME:  18-96 HOSPITAL HEART MONITOR_ 76 BPM.MP3 
* PATCH 18-96_HO:  FROM SOURCE 1 TO RECORD 3 
* SOURCE FILE: 18-96 HOSPITAL HEART MONITOR_ 76 BPM.MP3
333  SR029    A     C        01:58:17:17 01:58:21:13 05:07:45:10 05:07:49:05 
* FROM CLIP NAME:  154AQ-2 
* SOURCE FILE: A289C002_160923_R1BY
334  18-96_HO A3    C        00:00:00:00 00:00:00:00 05:07:45:10 05:07:51:21 
* FROM CLIP NAME:  18-96 HOSPITAL HEART MONITOR_ 76 BPM.MP3 
* PATCH 18-96_HO:  FROM SOURCE 1 TO RECORD 3 
* SOURCE FILE: 18-96 HOSPITAL HEART MONITOR_ 76 BPM.MP3
335  SR020    A2    C        13:34:18:23 13:34:20:08 05:07:45:14 05:07:46:22 
* FROM CLIP NAME:  163B-1 
* PATCH SR020:  FROM SOURCE 1 TO RECORD 2 
* SOURCE FILE: A199C006_160912_R1BY
336  SR030    A2    C        18:24:05:08 18:24:08:20 05:07:46:22 05:07:50:09 
* FROM CLIP NAME:  159-2A 
* PATCH SR030:  FROM SOURCE 1 TO RECORD 2 
* SOURCE FILE: A301C005_160926_R1BY
337  SR030    A     C        18:24:14:15 18:24:14:17 05:07:50:09 05:07:50:10 
* FROM CLIP NAME:  159-2A 
* SOURCE FILE: A301C005_160926_R1BY
338  SR030    A     C        18:24:15:10 18:24:16:22 05:07:50:10 05:07:51:21 
* FROM CLIP NAME:  159-2A 
* SOURCE FILE: A301C005_160926_R1BY
339  SR030    A     C        17:36:27:21 17:36:32:04 05:07:51:21 05:07:56:03 
* FROM CLIP NAME:  158A-1 
* SOURCE FILE: A301C005_160926_R1BY
340  SR030    A     C        17:25:31:03 17:25:34:18 05:07:57:00 05:08:00:14 
* FROM CLIP NAME:  158-2A 
* SOURCE FILE: A301C005_160926_R1BY
341  SR030    A     C        17:25:34:14 17:25:36:15 05:08:04:08 05:08:06:08 
* FROM CLIP NAME:  158-2A 
* SOURCE FILE: A301C005_160926_R1BY
342  SR030    A     C        17:25:34:17 17:25:36:04 05:08:06:08 05:08:07:18 
* FROM CLIP NAME:  158-2A 
* SOURCE FILE: A301C005_160926_R1BY
343  SR030    A     C        17:25:34:22 17:25:36:15 05:08:07:18 05:08:09:10 
* FROM CLIP NAME:  158-2A 
* SOURCE FILE: A301C005_160926_R1BY
344  SR030    A     C        17:25:33:16 17:25:34:08 05:08:09:10 05:08:10:01 
* FROM CLIP NAME:  158-2A 
* SOURCE FILE: A301C005_160926_R1BY
345  B019_C00 A3    C        00:00:00:00 00:00:00:00 05:08:10:01 05:08:10:16 
* FROM CLIP NAME:  B019_C004_041388.MOV 
* PATCH B019_C00:  FROM SOURCE 1 TO RECORD 3 
* SOURCE FILE: B019_C004_041388.MOV
346  SR030    A     C        17:25:36:02 17:25:38:11 05:08:10:01 05:08:12:09 
* FROM CLIP NAME:  158-2A 
* SOURCE FILE: A301C005_160926_R1BY
347  B019_C00 A3    C        00:00:00:00 00:00:00:00 05:08:10:16 05:08:11:03 
* FROM CLIP NAME:  B019_C004_041388.MOV 
* PATCH B019_C00:  FROM SOURCE 1 TO RECORD 3 
* SOURCE FILE: B019_C004_041388.MOV
348  SR030    A     C        17:57:43:20 17:57:47:03 05:08:12:09 05:08:15:15 
* FROM CLIP NAME:  156-3A 
* SOURCE FILE: A301C005_160926_R1BY
349  SR030    A     C        18:22:29:11 18:22:32:13 05:08:15:15 05:08:18:16 
* FROM CLIP NAME:  159-1A 
* SOURCE FILE: A301C005_160926_R1BY
350  SR030    A     C        18:24:16:21 18:24:17:08 05:08:18:16 05:08:19:02 
* FROM CLIP NAME:  159-2A 
* SOURCE FILE: A301C005_160926_R1BY
351  18-96_HO A3    C        00:00:00:00 00:00:00:00 05:08:18:16 05:08:23:11 
* FROM CLIP NAME:  18-96 HOSPITAL HEART MONITOR_ 76 BPM.MP3 
* PATCH 18-96_HO:  FROM SOURCE 1 TO RECORD 3 
* SOURCE FILE: 18-96 HOSPITAL HEART MONITOR_ 76 BPM.MP3
352  SR030    A     C        18:24:18:13 18:24:19:13 05:08:19:02 05:08:20:01 
* FROM CLIP NAME:  159-2A 
* SOURCE FILE: A301C005_160926_R1BY
353  SR020    A2    C        20:31:56:13 20:32:01:13 05:08:20:00 05:08:24:23 
* FROM CLIP NAME:  162B-7 
* PATCH SR020:  FROM SOURCE 1 TO RECORD 2 
* SOURCE FILE: A199C006_160912_R1BY
354  18-96_HO A3    C        00:00:00:00 00:00:00:00 05:08:23:11 05:08:23:23 
* FROM CLIP NAME:  18-96 HOSPITAL HEART MONITOR_ 76 BPM.MP3 
* TO CLIP NAME:  18-96 HOSPITAL HEART MONITOR_ 76 BPM.MP3 
* PATCH 18-96_HO:  FROM SOURCE 1 TO RECORD 3 
* PATCH 18-96_HO:  FROM SOURCE 1 TO RECORD 3 
* SOURCE FILE: 18-96 HOSPITAL HEART MONITOR_ 76 BPM.MP3
355  18-96_HO A3    C        00:00:00:00 00:00:00:00 05:08:23:23 05:08:34:00 
* FROM CLIP NAME:  18-96 HOSPITAL HEART MONITOR_ 76 BPM.MP3 
* PATCH 18-96_HO:  FROM SOURCE 1 TO RECORD 3 
* SOURCE FILE: 18-96 HOSPITAL HEART MONITOR_ 76 BPM.MP3
356  SR020    A     C        19:03:16:21 19:03:22:03 05:08:24:16 05:08:29:21 
* FROM CLIP NAME:  162-7 
* SOURCE FILE: A199C006_160912_R1BY
357  SR020    A     C        19:03:25:00 19:03:27:06 05:08:29:21 05:08:32:02 
* FROM CLIP NAME:  162-7 
* SOURCE FILE: A199C006_160912_R1BY
358  SR020    A     C        20:48:49:01 20:48:50:11 05:08:32:02 05:08:33:11 
* FROM CLIP NAME:  162C-3 
* SOURCE FILE: A199C006_160912_R1BY
359  SR020    A     C        13:22:39:03 13:22:39:06 05:08:33:11 05:08:33:13 
* FROM CLIP NAME:  163A-2 
* TO CLIP NAME:  162C-3 
* SOURCE FILE: A199C006_160912_R1BY
360  SR020    A     C        13:22:39:05 13:22:41:01 05:08:33:13 05:08:35:08 
* FROM CLIP NAME:  163A-2 
* SOURCE FILE: A199C006_160912_R1BY
361  SR020    A2    C        13:34:28:22 13:34:30:16 05:08:35:02 05:08:36:19 
* FROM CLIP NAME:  163B-1 
* PATCH SR020:  FROM SOURCE 1 TO RECORD 2 
* SOURCE FILE: A199C006_160912_R1BY
362  SR020    A     C        13:23:30:04 13:23:35:20 05:08:36:19 05:08:42:10 
* FROM CLIP NAME:  163A-2 
* SOURCE FILE: A199C006_160912_R1BY
363  SR020    A     C        13:33:25:17 13:33:28:05 05:08:42:10 05:08:44:21 
* FROM CLIP NAME:  163B-1 
* SOURCE FILE: A199C006_160912_R1BY
364  SR026    A     C        19:19:31:18 19:19:37:19 05:08:44:21 05:08:50:21 
* FROM CLIP NAME:  164-2A 
* SOURCE FILE: A256C002_160920_R1BY
365  SR026    A     C        19:34:51:06 19:34:55:11 05:08:50:21 05:08:55:01 
* FROM CLIP NAME:  164A-1A 
* SOURCE FILE: A256C002_160920_R1BY
366  SR026    A     C        20:04:36:13 20:04:36:20 05:08:55:01 05:08:55:07 
* FROM CLIP NAME:  164B-3A 
* SOURCE FILE: A256C002_160920_R1BY
367  SR026    A     C        20:02:46:01 20:02:48:14 05:08:55:07 05:08:57:19 
* FROM CLIP NAME:  164B-3A 
* SOURCE FILE: A256C002_160920_R1BY
368  SR026    A     C        19:32:22:13 19:32:26:05 05:08:57:19 05:09:01:10 
* FROM CLIP NAME:  164A-1A 
* SOURCE FILE: A256C002_160920_R1BY
369  SR026    A     C        19:35:07:06 19:35:11:11 05:09:01:10 05:09:05:14 
* FROM CLIP NAME:  164A-1A 
* SOURCE FILE: A256C002_160920_R1BY
370  SR026    A     C        20:04:55:20 20:04:58:20 05:09:05:14 05:09:08:13 
* FROM CLIP NAME:  164B-3A 
* SOURCE FILE: A256C002_160920_R1BY
371  SR026    A     C        20:04:58:04 20:05:03:19 05:09:08:13 05:09:14:03 
* FROM CLIP NAME:  164B-3A 
* SOURCE FILE: A256C002_160920_R1BY
372  SR026    A     C        19:35:22:19 19:35:26:22 05:09:14:03 05:09:18:05 
* FROM CLIP NAME:  164A-1A 
* SOURCE FILE: A256C002_160920_R1BY
373  SR026    A     C        20:03:30:00 20:03:31:01 05:09:18:05 05:09:19:05 
* FROM CLIP NAME:  164B-3A 
* TO CLIP NAME:  164A-1A 
* SOURCE FILE: A256C002_160920_R1BY
374  SR026    A     C        20:03:31:00 20:03:36:03 05:09:19:05 05:09:24:07 
* FROM CLIP NAME:  164B-3A 
* SOURCE FILE: A256C002_160920_R1BY
375  SR026    A     C        20:03:41:08 20:03:42:16 05:09:24:07 05:09:25:14 
* FROM CLIP NAME:  164B-3A 
* SOURCE FILE: A256C002_160920_R1BY
376  SR026    A     C        19:57:44:09 19:57:48:10 05:09:25:14 05:09:29:14 
* FROM CLIP NAME:  164B-2A 
* SOURCE FILE: A256C002_160920_R1BY
377  SR026    A     C        19:32:57:02 19:33:02:23 05:09:29:14 05:09:35:10 
* FROM CLIP NAME:  164A-1A 
* SOURCE FILE: A256C002_160920_R1BY
378  SR026    A     C        19:33:03:20 19:33:06:10 05:09:35:10 05:09:37:23 
* FROM CLIP NAME:  164A-1A 
* SOURCE FILE: A256C002_160920_R1BY
379  SR008    A     C        17:07:44:01 17:07:54:12 05:09:37:23 05:09:48:09 
* FROM CLIP NAME:  166A-1 
* SOURCE FILE: A084C007_160824_R1BY
380  SR008    A2    C        15:28:52:14 15:28:53:18 05:09:48:09 05:09:49:12 
* FROM CLIP NAME:  167-4A 
* PATCH SR008:  FROM SOURCE 1 TO RECORD 2 
* SOURCE FILE: A084C007_160824_R1BY
381  SR008    A2    C        15:27:05:22 15:27:07:01 05:09:49:12 05:09:50:14 
* FROM CLIP NAME:  167-4A 
* PATCH SR008:  FROM SOURCE 1 TO RECORD 2 
* SOURCE FILE: A084C007_160824_R1BY
382  SR008    A2    C        15:28:54:19 15:28:58:02 05:09:50:14 05:09:53:20 
* FROM CLIP NAME:  167-4A 
* PATCH SR008:  FROM SOURCE 1 TO RECORD 2 
* SOURCE FILE: A084C007_160824_R1BY
383  SR008    A     C        15:28:57:17 15:29:02:19 05:09:53:12 05:09:58:13 
* FROM CLIP NAME:  167-4A 
* SOURCE FILE: A084C007_160824_R1BY
384  SR016    A     C        17:37:34:13 17:37:36:04 05:09:58:13 05:10:00:03 
* FROM CLIP NAME:  167B-2A 
* SOURCE FILE: A168C003_160906_R1BY
385  SR016    A2    C        17:22:04:21 17:22:06:21 05:09:59:17 05:10:01:16 
* FROM CLIP NAME:  167A-3A 
* PATCH SR016:  FROM SOURCE 1 TO RECORD 2 
* SOURCE FILE: A168C003_160906_R1BY
386  SR016    A     C        17:22:09:14 17:22:14:03 05:10:01:16 05:10:06:04 
* FROM CLIP NAME:  167A-3A 
* SOURCE FILE: A168C003_160906_R1BY
387  SR020    A     C        08:49:25:17 08:49:35:08 05:10:06:04 05:10:15:18 
* FROM CLIP NAME:  169-2A 
* SOURCE FILE: A199C006_160912_R1BY
388  SR020    A     C        11:43:30:20 11:43:33:01 05:10:15:18 05:10:17:22 
* FROM CLIP NAME:  170E-3 
* SOURCE FILE: A199C006_160912_R1BY
389  SR020    A     C        10:51:36:15 10:51:39:18 05:10:17:22 05:10:21:00 
* FROM CLIP NAME:  170C-2A 
* SOURCE FILE: A199C006_160912_R1BY
390  SR020    A2    C        11:40:43:08 11:40:44:09 05:10:18:22 05:10:19:22 
* FROM CLIP NAME:  170E-2 
* PATCH SR020:  FROM SOURCE 1 TO RECORD 2 
* SOURCE FILE: A199C006_160912_R1BY
391  SR020    A     C        10:51:42:18 10:51:44:12 05:10:21:00 05:10:22:17 
* FROM CLIP NAME:  170C-2A 
* SOURCE FILE: A199C006_160912_R1BY
392  SR020    A     C        10:51:46:06 10:51:50:22 05:10:22:17 05:10:27:08 
* FROM CLIP NAME:  170C-2A 
* SOURCE FILE: A199C006_160912_R1BY
393  SR020    A2    C        11:44:13:17 11:44:18:04 05:10:25:04 05:10:29:14 
* FROM CLIP NAME:  170E-3 
* PATCH SR020:  FROM SOURCE 1 TO RECORD 2 
* SOURCE FILE: A199C006_160912_R1BY
394  SR020    A     C        11:00:12:20 11:00:15:03 05:10:27:08 05:10:29:14 
* FROM CLIP NAME:  170C-4A 
* SOURCE FILE: A199C006_160912_R1BY
395  SR020    A     C        10:55:29:10 10:55:32:03 05:10:29:14 05:10:32:06 
* FROM CLIP NAME:  170C-3A 
* SOURCE FILE: A199C006_160912_R1BY
396  SR020    A2    C        11:18:01:16 11:18:02:12 05:10:31:11 05:10:32:06 
* FROM CLIP NAME:  170D-3A 
* PATCH SR020:  FROM SOURCE 1 TO RECORD 2 
* SOURCE FILE: A199C006_160912_R1BY
397  SR020    A     C        10:55:32:10 10:55:32:18 05:10:32:06 05:10:32:13 
* FROM CLIP NAME:  170C-3A 
* SOURCE FILE: A199C006_160912_R1BY
398  SR020    A2    C        11:18:03:06 11:18:06:16 05:10:32:06 05:10:35:15 
* FROM CLIP NAME:  170D-3A 
* PATCH SR020:  FROM SOURCE 1 TO RECORD 2 
* SOURCE FILE: A199C006_160912_R1BY
399  SR020    A     C        08:57:31:21 08:57:32:22 05:10:35:02 05:10:36:02 
* FROM CLIP NAME:  169-3A 
* SOURCE FILE: A199C006_160912_R1BY
400  SR020    A     C        08:57:31:15 08:57:33:00 05:10:36:02 05:10:37:10 
* FROM CLIP NAME:  169-3A 
* SOURCE FILE: A199C006_160912_R1BY
401  SR020    A     C        10:16:19:07 10:16:20:08 05:10:37:10 05:10:38:10 
* FROM CLIP NAME:  170A-3A 
* SOURCE FILE: A199C006_160912_R1BY
402  SR020    A     C        10:16:21:08 10:16:22:15 05:10:38:10 05:10:39:16 
* FROM CLIP NAME:  170A-3A 
* SOURCE FILE: A199C006_160912_R1BY
403  SR020    A     C        10:16:22:14 10:16:24:19 05:10:39:16 05:10:41:20 
* FROM CLIP NAME:  170A-3A 
* SOURCE FILE: A199C006_160912_R1BY
404  SR020    A     C        09:36:04:21 09:36:05:00 05:10:41:20 05:10:41:22 
* FROM CLIP NAME:  170-2A 
* SOURCE FILE: A199C006_160912_R1BY
405  SR020    A     C        09:36:04:23 09:36:08:00 05:10:41:22 05:10:44:22 
* FROM CLIP NAME:  170-2A 
* SOURCE FILE: A199C006_160912_R1BY
406  SR020    A     C        09:36:08:21 09:36:10:04 05:10:44:22 05:10:46:04 
* FROM CLIP NAME:  170-2A 
* SOURCE FILE: A199C006_160912_R1BY
407  SR020    A     C        10:08:06:11 10:08:08:08 05:10:46:04 05:10:48:00 
* FROM CLIP NAME:  170A-1A 
* SOURCE FILE: A199C006_160912_R1BY
408  SR020    A     C        10:08:08:14 10:08:11:09 05:10:48:00 05:10:50:18 
* FROM CLIP NAME:  170A-1A 
* SOURCE FILE: A199C006_160912_R1BY
409  SR020    A     C        10:08:11:14 10:08:11:17 05:10:50:18 05:10:50:20 
* FROM CLIP NAME:  170A-1A 
* SOURCE FILE: A199C006_160912_R1BY
410  SR020    A     C        09:52:25:20 09:52:27:04 05:10:50:20 05:10:52:03 
* FROM CLIP NAME:  170-5A 
* SOURCE FILE: A199C006_160912_R1BY
411  SR020    A     C        09:52:28:18 09:52:31:00 05:10:52:03 05:10:54:08 
* FROM CLIP NAME:  170-5A 
* SOURCE FILE: A199C006_160912_R1BY
412  SR020    A     C        09:52:32:18 09:52:35:18 05:10:54:08 05:10:57:07 
* FROM CLIP NAME:  170-5A 
* SOURCE FILE: A199C006_160912_R1BY
413  SR020    A     C        09:52:37:01 09:52:37:12 05:10:57:07 05:10:57:17 
* FROM CLIP NAME:  170-5A 
* SOURCE FILE: A199C006_160912_R1BY
414  SR020    A2    C        10:08:22:23 10:08:24:19 05:10:57:07 05:10:59:02 
* FROM CLIP NAME:  170A-1A 
* PATCH SR020:  FROM SOURCE 1 TO RECORD 2 
* SOURCE FILE: A199C006_160912_R1BY
415  SR020    A     C        09:41:12:02 09:41:17:21 05:10:57:17 05:11:03:11 
* FROM CLIP NAME:  170-3A 
* SOURCE FILE: A199C006_160912_R1BY
416  SR020    A     C        09:46:06:20 09:46:09:10 05:11:03:11 05:11:06:00 
* FROM CLIP NAME:  170-4A 
* SOURCE FILE: A199C006_160912_R1BY
417  SR020    A     C        10:13:24:03 10:13:26:02 05:11:06:00 05:11:07:22 
* FROM CLIP NAME:  170A-2A 
* SOURCE FILE: A199C006_160912_R1BY
418  SR020    A     C        10:17:07:08 10:17:09:23 05:11:07:22 05:11:10:12 
* FROM CLIP NAME:  170A-3A 
* SOURCE FILE: A199C006_160912_R1BY
419  SR020    A     C        10:17:10:23 10:17:13:17 05:11:10:12 05:11:13:05 
* FROM CLIP NAME:  170A-3A 
* SOURCE FILE: A199C006_160912_R1BY
420  SR020    A     C        10:17:14:06 10:17:16:18 05:11:13:05 05:11:15:16 
* FROM CLIP NAME:  170A-3A 
* SOURCE FILE: A199C006_160912_R1BY
421  SR020    A     C        09:46:28:16 09:46:31:01 05:11:15:16 05:11:18:00 
* FROM CLIP NAME:  170-4A 
* SOURCE FILE: A199C006_160912_R1BY
422  SR020    A     C        10:09:14:18 10:09:20:09 05:11:18:00 05:11:23:14 
* FROM CLIP NAME:  170A-1A 
* SOURCE FILE: A199C006_160912_R1BY
423  SR020    A2    C        09:53:26:11 09:53:28:06 05:11:23:14 05:11:25:08 
* FROM CLIP NAME:  170-5A 
* PATCH SR020:  FROM SOURCE 1 TO RECORD 2 
* SOURCE FILE: A199C006_160912_R1BY
424  SR020    A     C        11:02:21:03 11:02:26:20 05:11:25:08 05:11:31:00 
* FROM CLIP NAME:  170C-4A 
* SOURCE FILE: A199C006_160912_R1BY
425  SR020    A     C        11:02:33:02 11:02:33:08 05:11:31:00 05:11:31:05 
* FROM CLIP NAME:  170C-4A 
* SOURCE FILE: A199C006_160912_R1BY
426  SR020    A     C        11:18:58:10 11:19:00:08 05:11:31:05 05:11:33:02 
* FROM CLIP NAME:  170D-3A 
* SOURCE FILE: A199C006_160912_R1BY
427  SR020    A     C        11:22:53:07 11:22:54:18 05:11:33:02 05:11:34:12 
* FROM CLIP NAME:  170D-4PU 
* SOURCE FILE: A199C006_160912_R1BY
428  SR020    A     C        11:15:42:18 11:15:46:03 05:11:34:12 05:11:37:20 
* FROM CLIP NAME:  170D-2A 
* SOURCE FILE: A199C006_160912_R1BY
429  SR020    A     C        11:23:01:12 11:23:04:18 05:11:37:20 05:11:41:01 
* FROM CLIP NAME:  170D-4PU 
* SOURCE FILE: A199C006_160912_R1BY
430  SR020    A     C        11:23:00:22 11:23:01:22 05:11:41:01 05:11:42:00 
* FROM CLIP NAME:  170D-4PU 
* SOURCE FILE: A199C006_160912_R1BY
431  SR020    A     C        10:52:46:01 10:52:47:01 05:11:42:00 05:11:42:23 
* FROM CLIP NAME:  170C-2A 
* SOURCE FILE: A199C006_160912_R1BY
432  SR020    A2    C        11:23:12:20 11:23:16:16 05:11:42:23 05:11:46:18 
* FROM CLIP NAME:  170D-4PU 
* PATCH SR020:  FROM SOURCE 1 TO RECORD 2 
* SOURCE FILE: A199C006_160912_R1BY
433  SR026    A     C        08:57:51:02 08:58:24:03 05:11:46:16 05:12:19:16 
* FROM CLIP NAME:  171-9A 
* SOURCE FILE: A256C002_160920_R1BY
434  SR020    A2    C        11:23:16:15 11:23:17:21 05:11:46:18 05:11:47:23 
* FROM CLIP NAME:  170D-4PU 
* PATCH SR020:  FROM SOURCE 1 TO RECORD 2 
* SOURCE FILE: A199C006_160912_R1BY
435  SR026    A     C        08:58:24:02 08:58:34:09 05:12:19:16 05:12:29:22 
* FROM CLIP NAME:  171-9A 
* SOURCE FILE: A256C002_160920_R1BY
436  I4R3     A     C        17:58:50:10 17:58:59:21 05:12:36:02 05:12:45:13 
* FROM CLIP NAME:  172-5A 
* SOURCE FILE: B008C007_170728_R17E
437  I4R3     A     C        17:59:05:00 17:59:06:00 05:12:45:13 05:12:46:13 
* FROM CLIP NAME:  172-5A 
* SOURCE FILE: B008C007_170728_R17E
438  I4R3     A     C        17:59:00:21 17:59:04:11 05:12:46:13 05:12:50:03 
* FROM CLIP NAME:  172-5A 
* SOURCE FILE: B008C007_170728_R17E
439  I4R3     A     C        18:20:33:02 18:20:36:12 05:12:50:03 05:12:53:13 
* FROM CLIP NAME:  172B-2 
* SOURCE FILE: B008C007_170728_R17E
440  I4R3     A2    C        17:58:53:11 17:58:56:21 05:12:50:03 05:12:53:13 
* FROM CLIP NAME:  172-5A 
* PATCH I4R3:  FROM SOURCE 1 TO RECORD 2 
* SOURCE FILE: B008C007_170728_R17E
441  3        A3    C        00:00:00:00 00:00:00:00 05:12:55:17 05:12:57:05 
* FROM CLIP NAME:  A044_C001_04074A.MOV.SYNC.01 
* PATCH 3:  FROM SOURCE 2 TO RECORD 3 
* SOURCE FILE: 3
442  3        A3    C        00:00:00:00 00:00:00:00 05:12:57:05 05:12:58:00 
* FROM CLIP NAME:  A044_C001_04074A.MOV.SYNC.01 
* PATCH 3:  FROM SOURCE 2 TO RECORD 3 
* SOURCE FILE: 3
443  3        A3    C        00:00:00:00 00:00:00:00 05:12:58:00 05:12:59:09 
* FROM CLIP NAME:  A044_C001_04074A.MOV.SYNC.01 
* PATCH 3:  FROM SOURCE 2 TO RECORD 3 
* SOURCE FILE: 3
444  3        A3    C        00:00:00:00 00:00:00:00 05:12:59:09 05:13:02:04 
* FROM CLIP NAME:  A044_C001_04074A.MOV.SYNC.01 
* PATCH 3:  FROM SOURCE 2 TO RECORD 3 
* SOURCE FILE: 3
445  INSIDIOU A     C        00:00:00:00 00:00:00:00 05:13:02:04 05:13:08:10 
* FROM CLIP NAME:  INSIDIOUS_T00.M4V 
* SOURCE FILE: INSIDIOUS_T00.M4V
446  INSIDIOU A2    C        00:00:00:00 00:00:00:00 05:13:02:04 05:13:08:10 
* FROM CLIP NAME:  INSIDIOUS_T00.M4V 
* SOURCE FILE: INSIDIOUS_T00.M4V
447  INSIDIOU A3    C        00:00:00:00 00:00:00:00 05:13:02:04 05:13:08:10 
* FROM CLIP NAME:  INSIDIOUS_T00.M4V.SUB.01 
* PATCH INSIDIOU:  FROM SOURCE 1 TO RECORD 3 
* SOURCE FILE: INSIDIOUS_T00.M4V
448  3        A     C        00:00:00:00 00:00:00:00 05:13:08:10 05:13:10:19 
* FROM CLIP NAME:  A049_C001_040725.SYNC 
* SOURCE FILE: 3
449  3        A2    C        00:00:00:00 00:00:00:00 05:13:08:10 05:13:10:19 
* FROM CLIP NAME:  A049_C001_040725.SYNC 
* SOURCE FILE: 3
450  3        A3    C        00:00:00:00 00:00:00:00 05:13:08:10 05:13:10:19 
* FROM CLIP NAME:  A049_C001_040725.SYNC 
* SOURCE FILE: 3
451  3        A     C        00:00:00:00 00:00:00:00 05:13:10:19 05:13:15:12 
* FROM CLIP NAME:  A047_C001_0407UU.SYNC 
* SOURCE FILE: 3
452  3        A2    C        00:00:00:00 00:00:00:00 05:13:10:19 05:13:15:12 
* FROM CLIP NAME:  A047_C001_0407UU.SYNC 
* SOURCE FILE: 3
453  3        A3    C        00:00:00:00 00:00:00:00 05:13:10:19 05:13:15:12 
* FROM CLIP NAME:  A047_C001_0407UU.SYNC 
* SOURCE FILE: 3
454  I4R3     A     C        18:20:40:11 18:20:43:17 05:13:15:12 05:13:18:18 
* FROM CLIP NAME:  172B-2 
* SOURCE FILE: B008C007_170728_R17E
455  3        A3    C        00:00:00:00 00:00:00:00 05:13:15:14 05:13:17:22 
* FROM CLIP NAME:  A045_C001_0407HE.MOV.SYNC.01 
* PATCH 3:  FROM SOURCE 1 TO RECORD 3 
* SOURCE FILE: 3
456  3        A3    C        00:00:00:00 00:00:00:00 05:13:17:22 05:13:18:17 
* FROM CLIP NAME:  A045_C001_0407HE.MOV.SYNC.01 
* PATCH 3:  FROM SOURCE 1 TO RECORD 3 
* SOURCE FILE: 3
457  INSIDIOU A     C        00:00:00:00 00:00:00:00 05:13:18:18 05:13:18:22 
* FROM CLIP NAME:  INSIDIOUS_T00.M4V 
* TO CLIP NAME:  172B-2 
* SOURCE FILE: INSIDIOUS_T00.M4V
458  INSIDIOU A2    C        00:00:00:00 00:00:00:00 05:13:18:18 05:13:18:22 
* FROM CLIP NAME:  INSIDIOUS_T00.M4V 
* SOURCE FILE: INSIDIOUS_T00.M4V
459  INSIDIOU A     C        00:00:00:00 00:00:00:00 05:13:18:22 05:13:19:12 
* FROM CLIP NAME:  INSIDIOUS_T00.M4V 
* SOURCE FILE: INSIDIOUS_T00.M4V
460  INSIDIOU A2    C        00:00:00:00 00:00:00:00 05:13:18:22 05:13:19:12 
* FROM CLIP NAME:  INSIDIOUS_T00.M4V 
* SOURCE FILE: INSIDIOUS_T00.M4V
461  INSIDIOU A     C        00:00:00:00 00:00:00:00 05:13:19:12 05:13:20:13 
* FROM CLIP NAME:  INSIDIOUS_T00.M4V 
* SOURCE FILE: INSIDIOUS_T00.M4V
462  INSIDIOU A2    C        00:00:00:00 00:00:00:00 05:13:19:12 05:13:20:13 
* FROM CLIP NAME:  INSIDIOUS_T00.M4V 
* SOURCE FILE: INSIDIOUS_T00.M4V
463  INSIDIOU A     C        00:00:00:00 00:00:00:00 05:13:20:13 05:13:20:15 
* FROM CLIP NAME:  INSIDIOUS_T00.M4V 
* TO CLIP NAME:  INSIDIOUS_T00.M4V 
* SOURCE FILE: INSIDIOUS_T00.M4V
464  INSIDIOU A2    C        00:00:00:00 00:00:00:00 05:13:20:13 05:13:20:15 
* FROM CLIP NAME:  INSIDIOUS_T00.M4V 
* TO CLIP NAME:  INSIDIOUS_T00.M4V 
* SOURCE FILE: INSIDIOUS_T00.M4V
465  INSIDIOU A     C        00:00:00:00 00:00:00:00 05:13:20:15 05:13:24:05 
* FROM CLIP NAME:  INSIDIOUS_T00.M4V 
* SOURCE FILE: INSIDIOUS_T00.M4V
466  INSIDIOU A2    C        00:00:00:00 00:00:00:00 05:13:20:15 05:13:24:05 
* FROM CLIP NAME:  INSIDIOUS_T00.M4V 
* SOURCE FILE: INSIDIOUS_T00.M4V
467  INSIDIOU A     C        00:00:00:00 00:00:00:00 05:13:24:05 05:13:25:09 
* FROM CLIP NAME:  INSIDIOUS_T00.M4V 
* SOURCE FILE: INSIDIOUS_T00.M4V
468  INSIDIOU A2    C        00:00:00:00 00:00:00:00 05:13:24:05 05:13:25:09 
* FROM CLIP NAME:  INSIDIOUS_T00.M4V 
* SOURCE FILE: INSIDIOUS_T00.M4V
469  INSIDIOU A     C        00:00:00:00 00:00:00:00 05:13:25:09 05:13:26:12 
* FROM CLIP NAME:  INSIDIOUS_T00.M4V 
* SOURCE FILE: INSIDIOUS_T00.M4V
470  INSIDIOU A2    C        00:00:00:00 00:00:00:00 05:13:25:09 05:13:26:12 
* FROM CLIP NAME:  INSIDIOUS_T00.M4V 
* SOURCE FILE: INSIDIOUS_T00.M4V
471  INSIDIOU A     C        00:00:00:00 00:00:00:00 05:13:26:12 05:13:27:13 
* FROM CLIP NAME:  INSIDIOUS_T00.M4V 
* SOURCE FILE: INSIDIOUS_T00.M4V
472  INSIDIOU A2    C        00:00:00:00 00:00:00:00 05:13:26:12 05:13:27:13 
* FROM CLIP NAME:  INSIDIOUS_T00.M4V 
* SOURCE FILE: INSIDIOUS_T00.M4V
473  INSIDIOU A     C        00:00:00:00 00:00:00:00 05:13:27:13 05:13:27:14 
* FROM CLIP NAME:  INSIDIOUS_T00.M4V 
* TO CLIP NAME:  INSIDIOUS_T00.M4V 
* SOURCE FILE: INSIDIOUS_T00.M4V
474  INSIDIOU A2    C        00:00:00:00 00:00:00:00 05:13:27:13 05:13:27:14 
* FROM CLIP NAME:  INSIDIOUS_T00.M4V 
* TO CLIP NAME:  INSIDIOUS_T00.M4V 
* SOURCE FILE: INSIDIOUS_T00.M4V
475  INSIDIOU A     C        00:00:00:00 00:00:00:00 05:13:27:14 05:13:28:13 
* FROM CLIP NAME:  INSIDIOUS_T00.M4V 
* SOURCE FILE: INSIDIOUS_T00.M4V
476  INSIDIOU A2    C        00:00:00:00 00:00:00:00 05:13:27:14 05:13:28:13 
* FROM CLIP NAME:  INSIDIOUS_T00.M4V 
* SOURCE FILE: INSIDIOUS_T00.M4V
477  INSIDIOU A3    C        00:00:00:00 00:00:00:00 05:13:28:09 05:13:29:16 
* FROM CLIP NAME:  INSIDIOUS_T00.M4V.SUB.01 
* PATCH INSIDIOU:  FROM SOURCE 1 TO RECORD 3 
* SOURCE FILE: INSIDIOUS_T00.M4V
478  INSIDIOU A     C        00:00:00:00 00:00:00:00 05:13:28:13 05:13:29:16 
* FROM CLIP NAME:  INSIDIOUS_T00.M4V 
* SOURCE FILE: INSIDIOUS_T00.M4V
479  INSIDIOU A2    C        00:00:00:00 00:00:00:00 05:13:28:13 05:13:29:16 
* FROM CLIP NAME:  INSIDIOUS_T00.M4V 
* SOURCE FILE: INSIDIOUS_T00.M4V
480  INSIDIOU A3    C        00:00:00:00 00:00:00:00 05:13:29:16 05:13:31:21 
* FROM CLIP NAME:  INSIDIOUS_T00.M4V.SUB.01 
* PATCH INSIDIOU:  FROM SOURCE 1 TO RECORD 3 
* SOURCE FILE: INSIDIOUS_T00.M4V
481  INSIDIOU A     C        00:00:00:00 00:00:00:00 05:13:29:16 05:13:32:06 
* FROM CLIP NAME:  INSIDIOUS_T00.M4V 
* SOURCE FILE: INSIDIOUS_T00.M4V
482  INSIDIOU A2    C        00:00:00:00 00:00:00:00 05:13:29:16 05:13:32:06 
* FROM CLIP NAME:  INSIDIOUS_T00.M4V 
* SOURCE FILE: INSIDIOUS_T00.M4V
483  INSIDIOU A3    C        00:00:00:00 00:00:00:00 05:13:31:21 05:13:32:17 
* FROM CLIP NAME:  INSIDIOUS_T00.M4V.SUB.01 
* PATCH INSIDIOU:  FROM SOURCE 1 TO RECORD 3 
* SOURCE FILE: INSIDIOUS_T00.M4V
484  I4R3     A3    C        17:59:06:11 17:59:11:15 05:13:37:12 05:13:42:16 
* FROM CLIP NAME:  172-5A 
* PATCH I4R3:  FROM SOURCE 1 TO RECORD 3 
* SOURCE FILE: B008C007_170728_R17E
485  INSIDIOU A     C        00:00:00:00 00:00:00:00 05:13:37:13 05:13:41:14 
* FROM CLIP NAME:  INSIDIOUS_T00.M4V 
* SOURCE FILE: INSIDIOUS_T00.M4V
486  INSIDIOU A2    C        00:00:00:00 00:00:00:00 05:13:37:13 05:13:41:14 
* FROM CLIP NAME:  INSIDIOUS_T00.M4V 
* SOURCE FILE: INSIDIOUS_T00.M4V
487  I4R3     A3    C        17:59:15:06 17:59:15:14 05:13:42:16 05:13:43:00 
* FROM CLIP NAME:  172-5A 
* TO CLIP NAME:  172-5A 
* PATCH I4R3:  FROM SOURCE 1 TO RECORD 3 
* PATCH I4R3:  FROM SOURCE 1 TO RECORD 3 
* SOURCE FILE: B008C007_170728_R17E
488  I4R3     A3    C        17:59:15:14 17:59:16:18 05:13:43:00 05:13:44:04 
* FROM CLIP NAME:  172-5A 
* PATCH I4R3:  FROM SOURCE 1 TO RECORD 3 
* SOURCE FILE: B008C007_170728_R17E
489  I4R3     A3    C        17:59:13:03 17:59:17:08 05:13:44:04 05:13:48:09 
* FROM CLIP NAME:  172-5A 
* PATCH I4R3:  FROM SOURCE 1 TO RECORD 3 
* SOURCE FILE: B008C007_170728_R17E
490  I4R3     A3    C        17:59:17:08 17:59:21:05 05:13:48:09 05:13:52:06 
* FROM CLIP NAME:  172-5A 
* PATCH I4R3:  FROM SOURCE 1 TO RECORD 3 
* SOURCE FILE: B008C007_170728_R17E
491  I4R3     A     C        17:59:26:03 17:59:26:10 05:13:52:03 05:13:52:10 
* FROM CLIP NAME:  172-5A 
* SOURCE FILE: B008C007_170728_R17E
492  I4R3     A     C        18:00:15:05 18:00:16:03 05:13:52:10 05:13:53:08 
* FROM CLIP NAME:  172-5A 
* SOURCE FILE: B008C007_170728_R17E
493  I4R3     A     C        17:59:27:08 17:59:29:21 05:13:53:08 05:13:55:21 
* FROM CLIP NAME:  172-5A 
* SOURCE FILE: B008C007_170728_R17E
494  I4R3     A     C        17:55:54:13 17:55:57:04 05:13:55:21 05:13:58:12 
* FROM CLIP NAME:  172-4A 
* SOURCE FILE: B008C007_170728_R17E
495  TEMP_ADR A3    C        00:00:00:00 00:00:00:00 05:13:55:21 05:13:58:12 
* FROM CLIP NAME:  LORRAINE ADR 
* PATCH TEMP_ADR:  FROM SOURCE 1 TO RECORD 3 
* SOURCE FILE: TEMP ADR
496  LORRAINE A2    C        00:00:00:00 00:00:00:00 05:13:56:03 05:13:58:12 
* FROM CLIP NAME:  LORRAINE 2.M4A 
* PATCH LORRAINE:  FROM SOURCE 1 TO RECORD 2 
* SOURCE FILE: LORRAINE 2.M4A
497  LORRAINE A2    C        00:00:00:00 00:00:00:00 05:13:58:12 05:13:59:19 
* FROM CLIP NAME:  LORRAINE 3.M4A 
* PATCH LORRAIN1:  FROM SOURCE 1 TO RECORD 2 
* SOURCE FILE: LORRAINE 3.M4A
498  I4R3     A     C        17:55:54:20 17:55:59:00 05:13:58:12 05:14:02:16 
* FROM CLIP NAME:  172-4A 
* SOURCE FILE: B008C007_170728_R17E
499  TEMP_ADR A3    C        00:00:00:00 00:00:00:00 05:13:58:12 05:14:04:00 
* FROM CLIP NAME:  LORRAINE ADR 
* PATCH TEMP_ADR:  FROM SOURCE 1 TO RECORD 3 
* SOURCE FILE: TEMP ADR
500  LORRAINE A2    C        00:00:00:00 00:00:00:00 05:13:59:21 05:14:02:11 
* FROM CLIP NAME:  LORRAINE 2.M4A 
* PATCH LORRAINE:  FROM SOURCE 1 TO RECORD 2 
* LOC: 05:13:59:21 RED 
* SOURCE FILE: LORRAINE 2.M4A
501  LORRAINE A2    C        00:00:00:00 00:00:00:00 05:14:02:11 05:14:04:05 
* FROM CLIP NAME:  LORRAINE 2.M4A 
* PATCH LORRAINE:  FROM SOURCE 1 TO RECORD 2 
* SOURCE FILE: LORRAINE 2.M4A
502  I4R3     A     C        17:55:54:13 17:55:55:17 05:14:02:16 05:14:03:20 
* FROM CLIP NAME:  172-4A 
* SOURCE FILE: B008C007_170728_R17E
503  I4R3     A     C        17:59:43:04 17:59:43:13 05:14:03:20 05:14:04:05 
* FROM CLIP NAME:  172-5A 
* SOURCE FILE: B008C007_170728_R17E
504  I4R3     A     C        17:55:54:18 17:55:56:15 05:14:04:05 05:14:06:02 
* FROM CLIP NAME:  172-4A 
* SOURCE FILE: B008C007_170728_R17E
505  LORRAINE A2    C        00:00:00:00 00:00:00:00 05:14:04:05 05:14:07:03 
* FROM CLIP NAME:  LORRAINE 3.M4A 
* PATCH LORRAIN1:  FROM SOURCE 1 TO RECORD 2 
* SOURCE FILE: LORRAINE 3.M4A
506  TEMP_ADR A3    C        00:00:00:00 00:00:00:00 05:14:04:08 05:14:07:03 
* FROM CLIP NAME:  LORRAINE ADR 
* PATCH TEMP_ADR:  FROM SOURCE 1 TO RECORD 3 
* SOURCE FILE: TEMP ADR
507  I4R3     A     C        17:59:47:04 17:59:48:10 05:14:06:02 05:14:07:08 
* FROM CLIP NAME:  172-5A 
* SOURCE FILE: B008C007_170728_R17E
508  I4R3     A     C        17:45:39:20 17:45:40:16 05:14:07:08 05:14:08:04 
* FROM CLIP NAME:  172-2A 
* SOURCE FILE: B008C007_170728_R17E
509  I4R3     A     C        17:59:49:06 17:59:49:13 05:14:08:04 05:14:08:11 
* FROM CLIP NAME:  172-5A 
* SOURCE FILE: B008C007_170728_R17E
510  I4R3     A     C        17:55:54:11 17:55:56:17 05:14:08:11 05:14:10:17 
* FROM CLIP NAME:  172-4A 
* SOURCE FILE: B008C007_170728_R17E
511  LORRAINE A2    C        00:00:00:00 00:00:00:00 05:14:08:16 05:14:10:07 
* FROM CLIP NAME:  LORRAINE 2.M4A 
* PATCH LORRAINE:  FROM SOURCE 1 TO RECORD 2 
* LOC: 05:14:08:19 RED 
* SOURCE FILE: LORRAINE 2.M4A
512  TEMP_ADR A3    C        00:00:00:00 00:00:00:00 05:14:08:16 05:14:10:17 
* FROM CLIP NAME:  LORRAINE ADR 
* PATCH TEMP_ADR:  FROM SOURCE 1 TO RECORD 3 
* SOURCE FILE: TEMP ADR
513  I4R3     A     C        17:50:40:09 17:50:42:15 05:14:10:17 05:14:12:23 
* FROM CLIP NAME:  172-3A 
* SOURCE FILE: B008C007_170728_R17E
514  I4R3     A     C        18:00:04:06 18:00:05:16 05:14:12:23 05:14:14:09 
* FROM CLIP NAME:  172-5A 
* SOURCE FILE: B008C007_170728_R17E
515  I4R3     A     C        17:59:52:12 17:59:55:18 05:14:14:09 05:14:17:15 
* FROM CLIP NAME:  172-5A 
* SOURCE FILE: B008C007_170728_R17E
516  LORRAINE A2    C        00:00:00:00 00:00:00:00 05:14:17:09 05:14:18:20 
* FROM CLIP NAME:  LORRAINE 2.M4A 
* PATCH LORRAINE:  FROM SOURCE 1 TO RECORD 2 
* LOC: 05:14:18:04 RED 
* SOURCE FILE: LORRAINE 2.M4A
517  TEMP_ADR A3    C        00:00:00:00 00:00:00:00 05:14:17:09 05:14:18:20 
* FROM CLIP NAME:  LORRAINE ADR 
* PATCH TEMP_ADR:  FROM SOURCE 1 TO RECORD 3 
* SOURCE FILE: TEMP ADR
518  I4R3     A     C        17:55:54:13 17:55:56:20 05:14:17:15 05:14:19:22 
* FROM CLIP NAME:  172-4A 
* SOURCE FILE: B008C007_170728_R17E
519  I4R3     A     C        18:00:10:18 18:00:20:08 05:14:19:22 05:14:29:12 
* FROM CLIP NAME:  172-5A 
* SOURCE FILE: B008C007_170728_R17E
520  I4R3     A     C        17:55:54:13 17:55:56:06 05:14:29:12 05:14:31:05 
* FROM CLIP NAME:  172-4A 
* SOURCE FILE: B008C007_170728_R17E
521  I4R3     A     C        18:00:22:01 18:00:23:09 05:14:31:05 05:14:32:13 
* FROM CLIP NAME:  172-5A 
* SOURCE FILE: B008C007_170728_R17E
522  I4R3     A     C        18:00:16:06 18:00:19:05 05:14:32:13 05:14:35:12 
* FROM CLIP NAME:  172-5A 
* SOURCE FILE: B008C007_170728_R17E
523  FKI_LEAD A     C        00:00:00:00 00:00:00:00 05:18:04:08 05:18:06:08 
* FROM CLIP NAME:  FKI_LEADER_TAIL_1920X1080.MOV 
* SOURCE FILE: FKI_LEADER_TAIL_1920X1080.MOV
524  FKI_LEAD A2    C        00:00:00:00 00:00:00:00 05:18:04:08 05:18:06:08 
* FROM CLIP NAME:  FKI_LEADER_TAIL_1920X1080.MOV 
* SOURCE FILE: FKI_LEADER_TAIL_1920X1080.MOV
525  FKI_LEAD A3    C        00:00:00:00 00:00:00:00 05:18:04:08 05:18:06:08 
* FROM CLIP NAME:  FKI_LEADER_TAIL_1920X1080.MOV 
* PATCH FKI_LEA1:  FROM SOURCE 1 TO RECORD 3 
* SOURCE FILE: FKI_LEADER_TAIL_1920X1080.MOV