TITLE:   INS4_R2_092117 
FCM: NON-DROP FRAME
001  FKI_LEAD A     C        00:00:00:00 00:00:00:00 02:00:00:00 02:00:08:00 
* FROM CLIP NAME:  FKI_LEADER_HEAD_1920X1080.MOV 
* SOURCE FILE: FKI_LEADER_HEAD_1920X1080.MOV
002  FKI_LEAD A2    C        00:00:00:00 00:00:00:00 02:00:00:00 02:00:08:00 
* FROM CLIP NAME:  FKI_LEADER_HEAD_1920X1080.MOV 
* SOURCE FILE: FKI_LEADER_HEAD_1920X1080.MOV
003  FKI_LEAD A3    C        00:00:00:00 00:00:00:00 02:00:00:00 02:00:08:00 
* FROM CLIP NAME:  FKI_LEADER_HEAD_1920X1080.MOV 
* PATCH FKI_LEAD:  FROM SOURCE 1 TO RECORD 3 
* SOURCE FILE: FKI_LEADER_HEAD_1920X1080.MOV
004  SR001    A2    C        15:44:11:13 15:44:13:01 02:00:11:12 02:00:12:23 
* FROM CLIP NAME:  16E-2A 
* PATCH SR001:  FROM SOURCE 1 TO RECORD 2 
* SOURCE FILE: A005C001_160815_R1BY
005  TEMP_ADR A2    C        00:00:00:00 00:00:00:00 02:00:13:16 02:00:15:03 
* FROM CLIP NAME:  SPECS SC016 - PHONE 
* PATCH TEMP_ADR:  FROM SOURCE 1 TO RECORD 2 
* SOURCE FILE: TEMP ADR
006  TEMP_ADR A2    C        00:00:00:00 00:00:00:00 02:00:15:03 02:00:16:18 
* FROM CLIP NAME:  SPECS SC016 - PHONE 
* PATCH TEMP_ADR:  FROM SOURCE 1 TO RECORD 2 
* SOURCE FILE: TEMP ADR
007  SR001    A2    C        13:44:56:09 13:44:56:13 02:00:17:16 02:00:17:19 
* FROM CLIP NAME:  16D-6A 
* PATCH SR001:  FROM SOURCE 1 TO RECORD 2 
* SOURCE FILE: A005C001_160815_R1BY
008  SR001    A2    C        13:44:56:12 13:44:57:22 02:00:17:19 02:00:19:04 
* FROM CLIP NAME:  16D-6A 
* PATCH SR001:  FROM SOURCE 1 TO RECORD 2 
* SOURCE FILE: A005C001_160815_R1BY
009  FALLOUT0 A     C        00:00:00:00 00:00:00:00 02:00:18:09 02:00:19:04 
* FROM CLIP NAME:  VO 16/1 
* SOURCE FILE: FALLOUT012
010  FALLOUT0 A     C        00:00:00:00 00:00:00:00 02:00:19:04 02:00:19:06 
* FROM CLIP NAME:  VO 16/1 
* SOURCE FILE: FALLOUT012
011  SR001    A2    C        13:45:53:13 13:45:55:15 02:00:19:04 02:00:21:05 
* FROM CLIP NAME:  16D-6A 
* PATCH SR001:  FROM SOURCE 1 TO RECORD 2 
* SOURCE FILE: A005C001_160815_R1BY
012  FALLOUT0 A     C        00:00:00:00 00:00:00:00 02:00:19:06 02:00:20:09 
* FROM CLIP NAME:  VO 16/1 
* SOURCE FILE: FALLOUT012
013  FALLOUT0 A     C        00:00:00:00 00:00:00:00 02:00:20:09 02:00:21:06 
* FROM CLIP NAME:  VO 16/1 
* SOURCE FILE: FALLOUT012
014  SR001    A2    C        13:55:51:10 13:55:53:10 02:00:21:05 02:00:23:04 
* FROM CLIP NAME:  16D-9A 
* PATCH SR001:  FROM SOURCE 1 TO RECORD 2 
* SOURCE FILE: A005C001_160815_R1BY
015  FALLOUT0 A     C        00:00:00:00 00:00:00:00 02:00:23:04 02:00:24:10 
* FROM CLIP NAME:  VO 16/1 
* SOURCE FILE: FALLOUT012
016  SR001    A2    C        13:45:53:02 13:45:57:10 02:00:23:10 02:00:27:17 
* FROM CLIP NAME:  16D-6A 
* PATCH SR001:  FROM SOURCE 1 TO RECORD 2 
* SOURCE FILE: A005C001_160815_R1BY
017  FALLOUT0 A     C        00:00:00:00 00:00:00:00 02:00:24:10 02:00:29:03 
* FROM CLIP NAME:  VO 16/1 
* SOURCE FILE: FALLOUT012
018  SR001    A2    C        13:45:53:02 13:45:56:14 02:00:27:17 02:00:31:04 
* FROM CLIP NAME:  16D-6A 
* PATCH SR001:  FROM SOURCE 1 TO RECORD 2 
* SOURCE FILE: A005C001_160815_R1BY
019  FALLOUT0 A     C        00:00:00:00 00:00:00:00 02:00:29:03 02:00:30:20 
* FROM CLIP NAME:  VO 16/1 
* SOURCE FILE: FALLOUT012
020  SR001    A3    C        15:52:37:01 15:52:38:20 02:00:31:01 02:00:32:19 
* FROM CLIP NAME:  16E-4A 
* PATCH SR001:  FROM SOURCE 1 TO RECORD 3 
* SOURCE FILE: A005C001_160815_R1BY
021  SR001    A2    C        13:53:07:09 13:53:09:04 02:00:31:04 02:00:32:22 
* FROM CLIP NAME:  16D-8A 
* PATCH SR001:  FROM SOURCE 1 TO RECORD 2 
* SOURCE FILE: A005C001_160815_R1BY
022  FALLOUT0 A     C        00:00:00:00 00:00:00:00 02:00:32:22 02:00:34:22 
* FROM CLIP NAME:  VO 16/1 
* SOURCE FILE: FALLOUT012
023  SR001    A2    C        13:45:53:02 13:45:55:03 02:00:32:22 02:00:34:22 
* FROM CLIP NAME:  16D-6A 
* PATCH SR001:  FROM SOURCE 1 TO RECORD 2 
* SOURCE FILE: A005C001_160815_R1BY
024  SR001    A     C        13:45:55:02 13:45:57:10 02:00:34:22 02:00:37:05 
* FROM CLIP NAME:  16D-6A 
* SOURCE FILE: A005C001_160815_R1BY
025  FALLOUT0 A2    C        00:00:00:00 00:00:00:00 02:00:34:22 02:00:37:22 
* FROM CLIP NAME:  VO 16/1 
* PATCH FALLOUT0:  FROM SOURCE 1 TO RECORD 2 
* SOURCE FILE: FALLOUT012
026  SR001    A     C        13:45:53:02 13:45:54:23 02:00:37:05 02:00:39:01 
* FROM CLIP NAME:  16D-6A 
* SOURCE FILE: A005C001_160815_R1BY
027  FALLOUT0 A2    C        00:00:00:00 00:00:00:00 02:00:37:22 02:00:40:12 
* FROM CLIP NAME:  VO 16/1 
* PATCH FALLOUT0:  FROM SOURCE 1 TO RECORD 2 
* SOURCE FILE: FALLOUT012
028  SR001    A     C        13:53:15:14 13:53:19:08 02:00:39:01 02:00:42:18 
* FROM CLIP NAME:  16D-8A 
* SOURCE FILE: A005C001_160815_R1BY
029  SR001    A     C        13:45:53:02 13:45:57:10 02:00:42:18 02:00:47:01 
* FROM CLIP NAME:  16D-6A 
* SOURCE FILE: A005C001_160815_R1BY
030  FALLOUT0 A2    C        00:00:00:00 00:00:00:00 02:00:42:22 02:00:44:21 
* FROM CLIP NAME:  VO 16/1 
* PATCH FALLOUT0:  FROM SOURCE 1 TO RECORD 2 
* SOURCE FILE: FALLOUT012
031  FALLOUT0 A2    C        00:00:00:00 00:00:00:00 02:00:45:08 02:00:47:02 
* FROM CLIP NAME:  VO 16/1 
* PATCH FALLOUT0:  FROM SOURCE 1 TO RECORD 2 
* SOURCE FILE: FALLOUT012
032  SR001    A     C        13:45:53:02 13:45:54:04 02:00:47:01 02:00:48:02 
* FROM CLIP NAME:  16D-6A 
* SOURCE FILE: A005C001_160815_R1BY
033  SR001    A     C        13:45:53:13 13:45:55:16 02:00:48:02 02:00:50:04 
* FROM CLIP NAME:  16D-6A 
* SOURCE FILE: A005C001_160815_R1BY
034  FALLOUT0 A2    C        00:00:00:00 00:00:00:00 02:00:48:08 02:00:50:15 
* FROM CLIP NAME:  VO 16/1 
* PATCH FALLOUT0:  FROM SOURCE 1 TO RECORD 2 
* SOURCE FILE: FALLOUT012
035  SR001    A     C        13:53:26:03 13:53:27:22 02:00:50:04 02:00:51:22 
* FROM CLIP NAME:  16D-8A 
* SOURCE FILE: A005C001_160815_R1BY
036  SR001    A     C        13:56:24:06 13:56:25:04 02:00:51:22 02:00:52:19 
* FROM CLIP NAME:  16D-9A 
* SOURCE FILE: A005C001_160815_R1BY
037  SR001    A     C        13:45:54:00 13:46:12:05 02:00:55:11 02:01:13:15 
* FROM CLIP NAME:  16D-6A 
* SOURCE FILE: A005C001_160815_R1BY
038  SR001    A     C        09:57:28:19 09:57:42:05 02:01:13:15 02:01:27:00 
* FROM CLIP NAME:  18B-4A 
* SOURCE FILE: A005C001_160815_R1BY
039  SR001    A     C        10:00:15:14 10:00:24:20 02:01:27:00 02:01:36:05 
* FROM CLIP NAME:  18B-5A 
* SOURCE FILE: A005C001_160815_R1BY
040  TEMP_ADR A3    C        00:00:00:00 00:00:00:00 02:01:36:21 02:01:39:13 
* FROM CLIP NAME:  SORRY TO DRAG YOU BOYS OUT OF BED 
* PATCH TEMP_ADR:  FROM SOURCE 1 TO RECORD 3 
* SOURCE FILE: TEMP ADR
041  SR003    A     C        15:39:29:03 15:39:29:08 02:01:39:13 02:01:39:17 
* FROM CLIP NAME:  26-1 
* SOURCE FILE: A025C003_160817_R1BY
042  SR003    A     C        15:39:29:07 15:40:11:10 02:01:39:17 02:02:21:19 
* FROM CLIP NAME:  26-1 
* SOURCE FILE: A025C003_160817_R1BY
043  SR003    A     C        15:40:17:18 15:40:20:20 02:02:21:19 02:02:24:20 
* FROM CLIP NAME:  26-1 
* SOURCE FILE: A025C003_160817_R1BY
044  SR003    A     C        15:40:22:19 15:40:27:13 02:02:24:20 02:02:29:13 
* FROM CLIP NAME:  26-1 
* SOURCE FILE: A025C003_160817_R1BY
045  TEMP_ADR A2    C        00:00:00:00 00:00:00:00 02:02:29:10 02:02:35:08 
* FROM CLIP NAME:  ELISE: 08_30 LINES 
* PATCH TEMP_ADR:  FROM SOURCE 1 TO RECORD 2 
* SOURCE FILE: TEMP ADR
046  SR003    A     C        15:40:26:22 15:40:27:12 02:02:33:22 02:02:34:11 
* FROM CLIP NAME:  26-1 
* SOURCE FILE: A025C003_160817_R1BY
047  SR003    A     C        15:40:05:09 15:40:07:07 02:02:34:11 02:02:36:08 
* FROM CLIP NAME:  26-1 
* SOURCE FILE: A025C003_160817_R1BY
048  TEMP_ADR A3    C        00:00:00:00 00:00:00:00 02:02:35:08 02:02:36:21 
* FROM CLIP NAME:  THATS WHY I NEVER WANT TO GO INTO THE FURTHER 2 
* PATCH TEMP_ADR:  FROM SOURCE 1 TO RECORD 3 
* SOURCE FILE: TEMP ADR
049  TEMP_ADR A3    C        00:00:00:00 00:00:00:00 02:02:36:21 02:02:39:15 
* FROM CLIP NAME:  THATS WHY I NEVER WANT TO GO INTO THE FURTHER 2 
* PATCH TEMP_ADR:  FROM SOURCE 1 TO RECORD 3 
* SOURCE FILE: TEMP ADR
050  SR003    A     C        15:40:01:01 15:40:01:10 02:02:37:18 02:02:38:02 
* FROM CLIP NAME:  26-1 
* SOURCE FILE: A025C003_160817_R1BY
051  SR003    A     C        17:00:40:08 17:00:42:12 02:02:38:02 02:02:40:05 
* FROM CLIP NAME:  26C-1A 
* SOURCE FILE: A025C003_160817_R1BY
052  SR003    A     C        17:00:44:10 17:00:44:17 02:02:40:05 02:02:40:11 
* FROM CLIP NAME:  26C-1A 
* SOURCE FILE: A025C003_160817_R1BY
053  SR003    A     C        15:40:32:01 15:40:32:03 02:02:40:11 02:02:40:12 
* FROM CLIP NAME:  26-1 
* TO CLIP NAME:  26C-1A 
* SOURCE FILE: A025C003_160817_R1BY
054  SR003    A     C        15:40:32:02 15:40:33:09 02:02:40:12 02:02:41:18 
* FROM CLIP NAME:  26-1 
* SOURCE FILE: A025C003_160817_R1BY
055  SR003    A     C        15:40:33:08 15:40:34:20 02:02:41:18 02:02:43:05 
* FROM CLIP NAME:  26-1 
* SOURCE FILE: A025C003_160817_R1BY
056  SR003    A     C        16:34:31:06 16:34:31:19 02:02:43:05 02:02:43:17 
* FROM CLIP NAME:  26B-3A 
* SOURCE FILE: A025C003_160817_R1BY
057  SR003    A     C        15:40:35:07 15:40:35:17 02:02:43:17 02:02:44:02 
* FROM CLIP NAME:  26-1 
* SOURCE FILE: A025C003_160817_R1BY
058  SR003    A     C        17:00:48:08 17:00:52:13 02:02:44:02 02:02:48:06 
* FROM CLIP NAME:  26C-1A 
* SOURCE FILE: A025C003_160817_R1BY
059  TEMP_ADR A3    C        00:00:00:00 00:00:00:00 02:02:44:14 02:02:47:20 
* FROM CLIP NAME:  ELISE: NEVER FORGET LOOK 
* PATCH TEMP_ADR:  FROM SOURCE 1 TO RECORD 3 
* SOURCE FILE: TEMP ADR
060  SR003    A     C        15:41:32:10 15:41:44:21 02:02:48:06 02:03:00:16 
* FROM CLIP NAME:  26-1 
* SOURCE FILE: A025C003_160817_R1BY
061  SR003    A     C        17:03:54:20 17:03:58:09 02:03:00:16 02:03:04:04 
* FROM CLIP NAME:  26C-1A 
* SOURCE FILE: A025C003_160817_R1BY
062  SR003    A     C        15:41:48:08 15:41:56:20 02:03:04:04 02:03:12:15 
* FROM CLIP NAME:  26-1 
* SOURCE FILE: A025C003_160817_R1BY
063  SR002    A     C        09:52:45:11 09:52:45:13 02:03:12:15 02:03:12:16 
* FROM CLIP NAME:  27A-3 
* TO CLIP NAME:  26-1 
* SOURCE FILE: A010C003_160816_R1BY
064  SR002    A     C        09:52:45:12 09:52:46:13 02:03:12:16 02:03:13:16 
* FROM CLIP NAME:  27A-3 
* SOURCE FILE: A010C003_160816_R1BY
065  SR002    A     C        09:52:47:06 09:53:00:12 02:03:13:16 02:03:26:21 
* FROM CLIP NAME:  27A-3 
* SOURCE FILE: A010C003_160816_R1BY
066  SR002    A     C        09:32:02:20 09:32:11:06 02:03:26:21 02:03:35:06 
* FROM CLIP NAME:  27-3 
* SOURCE FILE: A010C003_160816_R1BY
067  SR002    A2    C        09:58:40:11 09:58:42:19 02:03:35:06 02:03:37:13 
* FROM CLIP NAME:  27B-2 
* PATCH SR002:  FROM SOURCE 1 TO RECORD 2 
* SOURCE FILE: A010C003_160816_R1BY
068  SR002    A3    C        11:34:33:20 11:34:39:11 02:03:37:08 02:03:42:22 
* FROM CLIP NAME:  27F-1A 
* PATCH SR002:  FROM SOURCE 1 TO RECORD 3 
* SOURCE FILE: A010C003_160816_R1BY
069  SR002    A2    C        09:58:42:18 09:58:43:04 02:03:37:13 02:03:37:22 
* FROM CLIP NAME:  27B-2 
* PATCH SR002:  FROM SOURCE 1 TO RECORD 2 
* SOURCE FILE: A010C003_160816_R1BY
070  SR002    A     C        09:53:38:22 09:53:40:19 02:03:37:22 02:03:39:18 
* FROM CLIP NAME:  27A-3 
* SOURCE FILE: A010C003_160816_R1BY
071  SR002    A     C        09:58:44:23 09:58:52:20 02:03:39:18 02:03:47:14 
* FROM CLIP NAME:  27B-2 
* SOURCE FILE: A010C003_160816_R1BY
072  SR002    A3    C        11:34:39:10 11:34:40:20 02:03:42:22 02:03:44:07 
* FROM CLIP NAME:  27F-1A 
* TO CLIP NAME:  27F-1A 
* PATCH SR002:  FROM SOURCE 1 TO RECORD 3 
* PATCH SR002:  FROM SOURCE 1 TO RECORD 3 
* SOURCE FILE: A010C003_160816_R1BY
073  SR002    A3    C        11:34:40:19 11:34:48:19 02:03:44:07 02:03:52:06 
* FROM CLIP NAME:  27F-1A 
* PATCH SR002:  FROM SOURCE 1 TO RECORD 3 
* SOURCE FILE: A010C003_160816_R1BY
074  SR002    A     C        09:58:54:18 09:58:57:10 02:03:47:14 02:03:50:05 
* FROM CLIP NAME:  27B-2 
* SOURCE FILE: A010C003_160816_R1BY
075  SR002    A2    C        10:27:20:06 10:27:25:18 02:03:49:12 02:03:54:23 
* FROM CLIP NAME:  27C-2 
* PATCH SR002:  FROM SOURCE 1 TO RECORD 2 
* SOURCE FILE: A010C003_160816_R1BY
076  SR002    A3    C        11:05:19:09 11:05:22:04 02:03:52:06 02:03:55:00 
* FROM CLIP NAME:  27D-3A 
* PATCH SR002:  FROM SOURCE 1 TO RECORD 3 
* SOURCE FILE: A010C003_160816_R1BY
077  SR002    A3    C        11:05:22:12 11:05:23:10 02:03:55:00 02:03:55:21 
* FROM CLIP NAME:  27D-3A 
* PATCH SR002:  FROM SOURCE 1 TO RECORD 3 
* SOURCE FILE: A010C003_160816_R1BY
078  SR002    A     C        11:01:24:14 11:01:29:01 02:03:55:11 02:03:59:21 
* FROM CLIP NAME:  27D-1A 
* SOURCE FILE: A010C003_160816_R1BY
079  SR002    A     C        11:05:28:03 11:05:28:06 02:03:59:21 02:03:59:23 
* FROM CLIP NAME:  27D-3A 
* TO CLIP NAME:  27D-1A 
* SOURCE FILE: A010C003_160816_R1BY
080  SR002    A     C        11:05:28:05 11:05:29:00 02:03:59:23 02:04:00:17 
* FROM CLIP NAME:  27D-3A 
* SOURCE FILE: A010C003_160816_R1BY
081  SR002    A     C        11:14:28:15 11:14:30:03 02:04:00:17 02:04:02:04 
* FROM CLIP NAME:  27E-1 
* SOURCE FILE: A010C003_160816_R1BY
082  SR002    A     C        11:14:51:17 11:14:53:11 02:04:02:04 02:04:03:21 
* FROM CLIP NAME:  27E-1 
* SOURCE FILE: A010C003_160816_R1BY
083  SR002    A     C        11:05:35:02 11:05:37:05 02:04:04:04 02:04:06:06 
* FROM CLIP NAME:  27D-3A 
* SOURCE FILE: A010C003_160816_R1BY
084  SR002    A     C        11:05:33:19 11:05:35:15 02:04:06:06 02:04:08:01 
* FROM CLIP NAME:  27D-3A 
* SOURCE FILE: A010C003_160816_R1BY
085  SR014    A     C        09:51:40:19 09:51:41:08 02:04:13:07 02:04:13:19 
* FROM CLIP NAME:  29-3A 
* SOURCE FILE: A153C003_160902_R1BY
086  SR014    A     C        09:51:41:07 09:51:42:19 02:04:13:19 02:04:15:06 
* FROM CLIP NAME:  29-3A 
* SOURCE FILE: A153C003_160902_R1BY
087  SR014    A     C        09:51:48:20 09:51:49:03 02:04:15:06 02:04:15:12 
* FROM CLIP NAME:  29-3A 
* TO CLIP NAME:  29-3A 
* SOURCE FILE: A153C003_160902_R1BY
088  SR014    A     C        09:51:49:02 09:51:50:10 02:04:15:12 02:04:16:19 
* FROM CLIP NAME:  29-3A 
* SOURCE FILE: A153C003_160902_R1BY
089  SR014    A     C        09:50:58:19 09:50:59:04 02:04:16:19 02:04:17:03 
* FROM CLIP NAME:  29-3A 
* TO CLIP NAME:  29-3A 
* SOURCE FILE: A153C003_160902_R1BY
090  SR014    A     C        09:50:59:03 09:51:04:15 02:04:17:03 02:04:22:14 
* FROM CLIP NAME:  29-3A 
* SOURCE FILE: A153C003_160902_R1BY
091  SR014    A     C        09:51:01:21 09:51:02:06 02:04:22:14 02:04:22:22 
* FROM CLIP NAME:  29-3A 
* TO CLIP NAME:  29-3A 
* SOURCE FILE: A153C003_160902_R1BY
092  SR014    A     C        09:51:02:05 09:51:05:05 02:04:22:22 02:04:25:21 
* FROM CLIP NAME:  29-3A 
* SOURCE FILE: A153C003_160902_R1BY
093  SR014    A     C        09:51:02:22 09:51:08:17 02:04:25:21 02:04:31:15 
* FROM CLIP NAME:  29-3A 
* SOURCE FILE: A153C003_160902_R1BY
094  SR009    A2    C        09:02:53:01 09:02:54:02 02:04:30:15 02:04:31:15 
* FROM CLIP NAME:  31-4A 
* PATCH SR009:  FROM SOURCE 1 TO RECORD 2 
* SOURCE FILE: A088C003_160825_R1BY
095  SR009    A2    C        09:02:54:07 09:02:57:18 02:04:31:15 02:04:35:01 
* FROM CLIP NAME:  31-4A 
* PATCH SR009:  FROM SOURCE 1 TO RECORD 2 
* SOURCE FILE: A088C003_160825_R1BY
096  SR009    A3    C        09:03:04:06 09:03:07:17 02:04:31:15 02:04:35:01 
* FROM CLIP NAME:  31-4A 
* PATCH SR009:  FROM SOURCE 1 TO RECORD 3 
* SOURCE FILE: A088C003_160825_R1BY
097  SR009    A     C        09:00:30:04 09:00:34:11 02:04:35:01 02:04:39:07 
* FROM CLIP NAME:  31-3A 
* SOURCE FILE: A088C003_160825_R1BY
098  SR030    A2    C        23:02:38:14 23:02:40:04 02:04:37:15 02:04:39:04 
* FROM CLIP NAME:  V32-1A 
* PATCH SR030:  FROM SOURCE 1 TO RECORD 2 
* SOURCE FILE: A306C002_160927_R1BY
099  SR014    A2    C        09:51:07:14 09:51:08:13 02:04:39:07 02:04:40:05 
* FROM CLIP NAME:  29-3A 
* PATCH SR014:  FROM SOURCE 1 TO RECORD 2 
* SOURCE FILE: A153C003_160902_R1BY
100  SR030    A     C        23:02:41:10 23:02:43:21 02:04:39:07 02:04:41:17 
* FROM CLIP NAME:  V32-1A 
* SOURCE FILE: A306C002_160927_R1BY
101  SR014    A3    C        09:51:02:22 09:51:05:09 02:04:39:07 02:04:41:17 
* FROM CLIP NAME:  29-3A 
* PATCH SR014:  FROM SOURCE 1 TO RECORD 3 
* SOURCE FILE: A153C003_160902_R1BY
102  SR019    A2    C        15:05:58:11 15:06:02:11 02:04:40:05 02:04:44:04 
* FROM CLIP NAME:  V34B-4 
* PATCH SR019:  FROM SOURCE 1 TO RECORD 2 
* SOURCE FILE: A190C012_160909_R1BY
103  SR019    A2    C        15:05:58:22 15:05:59:07 02:04:44:04 02:04:44:12 
* FROM CLIP NAME:  V34B-4 
* TO CLIP NAME:  V34B-4 
* PATCH SR019:  FROM SOURCE 1 TO RECORD 2 
* PATCH SR019:  FROM SOURCE 1 TO RECORD 2 
* SOURCE FILE: A190C012_160909_R1BY
104  SR019    A2    C        15:05:59:06 15:06:01:05 02:04:44:12 02:04:46:10 
* FROM CLIP NAME:  V34B-4 
* PATCH SR019:  FROM SOURCE 1 TO RECORD 2 
* SOURCE FILE: A190C012_160909_R1BY
105  SR030    A     C        23:02:43:20 23:02:44:00 02:04:45:05 02:04:45:08 
* FROM CLIP NAME:  V32-1A 
* SOURCE FILE: A306C002_160927_R1BY
106  SR019    A2    C        15:06:01:19 15:06:02:00 02:04:46:10 02:04:46:14 
* FROM CLIP NAME:  V34B-4 
* TO CLIP NAME:  V34B-4 
* PATCH SR019:  FROM SOURCE 1 TO RECORD 2 
* PATCH SR019:  FROM SOURCE 1 TO RECORD 2 
* SOURCE FILE: A190C012_160909_R1BY
107  SR019    A2    C        15:06:01:23 15:06:08:04 02:04:46:14 02:04:52:18 
* FROM CLIP NAME:  V34B-4 
* PATCH SR019:  FROM SOURCE 1 TO RECORD 2 
* SOURCE FILE: A190C012_160909_R1BY
108  SR019    A     C        15:12:38:13 15:12:49:12 02:04:49:07 02:05:00:05 
* FROM CLIP NAME:  V33-5 
* SOURCE FILE: A190C012_160909_R1BY
109  SR002    A3    C        11:34:30:23 11:34:42:15 02:04:50:14 02:05:02:05 
* FROM CLIP NAME:  27F-1A 
* PATCH SR002:  FROM SOURCE 1 TO RECORD 3 
* SOURCE FILE: A010C003_160816_R1BY
110  SR017    A2    C        10:11:05:00 10:11:21:09 02:04:57:01 02:05:13:09 
* FROM CLIP NAME:  35-3A 
* PATCH SR017:  FROM SOURCE 1 TO RECORD 2 
* SOURCE FILE: A175C003_160907_R1BY
111  SR002    A3    C        11:05:12:14 11:05:19:04 02:05:02:05 02:05:08:18 
* FROM CLIP NAME:  27D-3A 
* PATCH SR002:  FROM SOURCE 1 TO RECORD 3 
* SOURCE FILE: A010C003_160816_R1BY
112  SR017    A     C        10:11:19:12 10:11:20:21 02:05:08:16 02:05:10:00 
* FROM CLIP NAME:  35-3A 
* SOURCE FILE: A175C003_160907_R1BY
113  SR002    A3    C        11:05:20:04 11:05:22:04 02:05:08:18 02:05:10:17 
* FROM CLIP NAME:  27D-3A 
* PATCH SR002:  FROM SOURCE 1 TO RECORD 3 
* SOURCE FILE: A010C003_160816_R1BY
114  SR017    A     C        10:35:04:18 10:35:27:08 02:05:10:00 02:05:32:13 
* FROM CLIP NAME:  35A-1A 
* SOURCE FILE: A175C003_160907_R1BY
115  SR002    A3    C        11:05:22:12 11:05:23:10 02:05:10:17 02:05:11:14 
* FROM CLIP NAME:  27D-3A 
* PATCH SR002:  FROM SOURCE 1 TO RECORD 3 
* SOURCE FILE: A010C003_160816_R1BY
116  SR017    A     C        11:23:05:06 11:23:06:07 02:05:32:13 02:05:33:13 
* FROM CLIP NAME:  35B-6A 
* TO CLIP NAME:  35A-1A 
* SOURCE FILE: A175C003_160907_R1BY
117  SR017    A     C        11:23:06:06 11:23:07:03 02:05:33:13 02:05:34:09 
* FROM CLIP NAME:  35B-6A 
* SOURCE FILE: A175C003_160907_R1BY
118  SR017    A2    C        11:16:06:10 11:16:13:12 02:05:34:09 02:05:41:10 
* FROM CLIP NAME:  35B-4A 
* PATCH SR017:  FROM SOURCE 1 TO RECORD 2 
* SOURCE FILE: A175C003_160907_R1BY
119  SR017    A     C        11:23:07:21 11:23:13:22 02:05:40:02 02:05:46:02 
* FROM CLIP NAME:  35B-6A 
* SOURCE FILE: A175C003_160907_R1BY
120  SR017    A2    C        11:23:18:13 11:23:20:12 02:05:44:04 02:05:46:02 
* FROM CLIP NAME:  35B-6A 
* PATCH SR017:  FROM SOURCE 1 TO RECORD 2 
* SOURCE FILE: A175C003_160907_R1BY
121  SR017    A     C        11:23:22:23 11:23:25:14 02:05:46:02 02:05:48:16 
* FROM CLIP NAME:  35B-6A 
* SOURCE FILE: A175C003_160907_R1BY
122  SR017    A2    C        11:23:26:18 11:23:33:01 02:05:48:16 02:05:54:22 
* FROM CLIP NAME:  35B-6A 
* PATCH SR017:  FROM SOURCE 1 TO RECORD 2 
* SOURCE FILE: A175C003_160907_R1BY
123  SR018    A2    C        14:40:59:00 14:41:01:00 02:05:54:22 02:05:56:21 
* FROM CLIP NAME:  36A-3A 
* PATCH SR018:  FROM SOURCE 1 TO RECORD 2 
* SOURCE FILE: A186C009_160908_R1BY
124  SR018    A     C        14:40:59:04 14:41:03:04 02:05:54:22 02:05:58:21 
* FROM CLIP NAME:  36A-3A 
* SOURCE FILE: A186C009_160908_R1BY
125  SR018    A     C        14:41:00:12 14:41:01:04 02:05:58:21 02:05:59:12 
* FROM CLIP NAME:  36A-3A 
* SOURCE FILE: A186C009_160908_R1BY
126  SR018    A     C        14:41:03:18 14:41:06:12 02:05:59:12 02:06:02:05 
* FROM CLIP NAME:  36A-3A 
* SOURCE FILE: A186C009_160908_R1BY
127  SR013    A     C        09:46:50:19 09:46:55:09 02:06:02:05 02:06:06:18 
* FROM CLIP NAME:  36-1A 
* SOURCE FILE: A135C001_160831_R1BY
128  SR018    A2    C        14:36:14:22 14:36:19:07 02:06:05:12 02:06:09:20 
* FROM CLIP NAME:  36A-1A 
* PATCH SR018:  FROM SOURCE 3 TO RECORD 2 
* SOURCE FILE: A186C009_160908_R1BY
129  SR013    A     C        09:51:04:05 09:51:05:16 02:06:09:20 02:06:11:06 
* FROM CLIP NAME:  36-2A 
* SOURCE FILE: A135C001_160831_R1BY
130  SR013    A     C        09:51:07:19 09:51:11:08 02:06:11:06 02:06:14:18 
* FROM CLIP NAME:  36-2A 
* SOURCE FILE: A135C001_160831_R1BY
131  SR013    A     C        09:51:10:16 09:51:14:03 02:06:14:18 02:06:18:04 
* FROM CLIP NAME:  36-2A 
* SOURCE FILE: A135C001_160831_R1BY
132  SR013    A     C        09:51:14:02 09:51:17:20 02:06:18:04 02:06:21:21 
* FROM CLIP NAME:  36-2A 
* SOURCE FILE: A135C001_160831_R1BY
133  SR013    A2    C        09:47:19:21 09:47:24:02 02:06:19:07 02:06:23:11 
* FROM CLIP NAME:  36-1A 
* PATCH SR013:  FROM SOURCE 1 TO RECORD 2 
* SOURCE FILE: A135C001_160831_R1BY
134  SR018    A     C        14:36:42:18 14:36:45:12 02:06:22:23 02:06:25:16 
* FROM CLIP NAME:  36A-1A 
* PATCH SR018:  FROM SOURCE 2 TO RECORD 1 
* SOURCE FILE: A186C009_160908_R1BY
135  SR013    A     C        09:51:41:12 09:51:43:23 02:06:25:16 02:06:28:02 
* FROM CLIP NAME:  36-2A 
* SOURCE FILE: A135C001_160831_R1BY
136  SR013    A     C        11:45:48:09 11:45:59:23 02:06:28:02 02:06:39:15 
* FROM CLIP NAME:  37B-3 
* SOURCE FILE: A135C001_160831_R1BY
137  ANTI-RUS A3    C        00:00:00:00 00:00:00:00 02:06:34:20 02:06:37:03 
* FROM CLIP NAME:  ANTI-RUSSIA_ANTI-COMMUNISM_EDUCATIONALVIDEO_1952.MP3 
* PATCH ANTI-RUS:  FROM SOURCE 2 TO RECORD 3 
* SOURCE FILE: ANTI-RUSSIA_ANTI-COMMUNISM_EDUCATIONALVIDEO_1952.MP3
138  SR005    A2    C        16:27:42:13 16:27:44:20 02:06:35:15 02:06:37:21 
* FROM CLIP NAME:  2A-2A 
* PATCH SR005:  FROM SOURCE 1 TO RECORD 2 
* SOURCE FILE: A054C002_160819_R1BY
139  ANTI-RUS A3    C        00:00:00:00 00:00:00:00 02:06:37:03 02:06:47:19 
* FROM CLIP NAME:  ANTI-RUSSIA_ANTI-COMMUNISM_EDUCATIONALVIDEO_1952.MP3 
* PATCH ANTI-RUS:  FROM SOURCE 2 TO RECORD 3 
* SOURCE FILE: ANTI-RUSSIA_ANTI-COMMUNISM_EDUCATIONALVIDEO_1952.MP3
140  SR013    A     C        13:04:32:02 13:04:34:00 02:06:39:15 02:06:41:12 
* FROM CLIP NAME:  37E-1 
* SOURCE FILE: A135C001_160831_R1BY
141  SR013    A     C        11:51:47:04 11:51:55:04 02:06:41:12 02:06:49:11 
* FROM CLIP NAME:  37B-4 PU 
* SOURCE FILE: A135C001_160831_R1BY
142  SR013    A2    C        11:51:56:13 11:51:58:00 02:06:49:23 02:06:51:09 
* FROM CLIP NAME:  37B-4 PU 
* PATCH SR013:  FROM SOURCE 1 TO RECORD 2 
* SOURCE FILE: A135C001_160831_R1BY
143  SR013    A     C        10:38:14:07 10:38:20:20 02:06:51:03 02:06:57:15 
* FROM CLIP NAME:  37-2A 
* SOURCE FILE: A135C001_160831_R1BY
144  SR013    A     C        11:46:50:01 11:46:55:03 02:06:57:15 02:07:02:16 
* FROM CLIP NAME:  37B-3 
* SOURCE FILE: A135C001_160831_R1BY
145  SR013    A     C        11:34:11:17 11:34:11:22 02:07:02:16 02:07:02:20 
* FROM CLIP NAME:  37B-2A 
* SOURCE FILE: A135C001_160831_R1BY
146  SR013    A2    C        11:46:55:07 11:46:55:12 02:07:02:16 02:07:02:20 
* FROM CLIP NAME:  37B-3 
* PATCH SR013:  FROM SOURCE 1 TO RECORD 2 
* SOURCE FILE: A135C001_160831_R1BY
147  SR013    A2    C        11:46:56:03 11:46:56:13 02:07:02:20 02:07:03:05 
* FROM CLIP NAME:  37B-3 
* PATCH SR013:  FROM SOURCE 1 TO RECORD 2 
* SOURCE FILE: A135C001_160831_R1BY
148  SR013    A     C        11:34:13:14 11:34:19:03 02:07:02:20 02:07:08:08 
* FROM CLIP NAME:  37B-2A 
* SOURCE FILE: A135C001_160831_R1BY
149  SR013    A     C        11:34:21:04 11:34:24:04 02:07:08:08 02:07:11:07 
* FROM CLIP NAME:  37B-2A 
* SOURCE FILE: A135C001_160831_R1BY
150  SR013    A     C        11:34:27:23 11:34:28:19 02:07:11:07 02:07:12:02 
* FROM CLIP NAME:  37B-2A 
* SOURCE FILE: A135C001_160831_R1BY
151  SR006    A3    C        18:03:03:14 18:03:03:18 02:07:11:13 02:07:11:16 
* FROM CLIP NAME:  3E-1 
* PATCH SR006:  FROM SOURCE 1 TO RECORD 3 
* SOURCE FILE: A066C001_160822_R1BY
152  SR013    A2    C        11:34:34:21 11:34:37:15 02:07:11:21 02:07:14:14 
* FROM CLIP NAME:  37B-2A 
* PATCH SR013:  FROM SOURCE 1 TO RECORD 2 
* SOURCE FILE: A135C001_160831_R1BY
153  SR013    A2    C        11:34:39:00 11:34:40:18 02:07:14:14 02:07:16:07 
* FROM CLIP NAME:  37B-2A 
* PATCH SR013:  FROM SOURCE 1 TO RECORD 2 
* SOURCE FILE: A135C001_160831_R1BY
154  SR005    A3    C        17:45:44:19 17:45:46:14 02:07:15:06 02:07:17:00 
* FROM CLIP NAME:  2C-3A 
* PATCH SR005:  FROM SOURCE 1 TO RECORD 3 
* SOURCE FILE: A054C002_160819_R1BY
155  SR013    A     C        11:34:45:01 11:34:49:01 02:07:15:17 02:07:19:16 
* FROM CLIP NAME:  37B-2A 
* SOURCE FILE: A135C001_160831_R1BY
156  SR005    A3    C        18:25:42:08 18:25:44:02 02:07:17:00 02:07:18:17 
* FROM CLIP NAME:  2E-2A 
* PATCH SR005:  FROM SOURCE 1 TO RECORD 3 
* SOURCE FILE: A054C002_160819_R1BY
157  SR005    A3    C        17:53:14:09 17:53:16:03 02:07:18:17 02:07:20:10 
* FROM CLIP NAME:  2D-2 
* PATCH SR005:  FROM SOURCE 4 TO RECORD 3 
* SOURCE FILE: A054C002_160819_R1BY
158  SR005    A2    C        16:27:42:14 16:27:44:18 02:07:19:10 02:07:21:13 
* FROM CLIP NAME:  2A-2A 
* PATCH SR005:  FROM SOURCE 1 TO RECORD 2 
* SOURCE FILE: A054C002_160819_R1BY
159  SR013    A     C        11:34:50:22 11:34:52:20 02:07:19:16 02:07:21:13 
* FROM CLIP NAME:  37B-2A 
* SOURCE FILE: A135C001_160831_R1BY
160  SR013    A     C        11:34:52:22 11:34:56:08 02:07:21:20 02:07:25:05 
* FROM CLIP NAME:  37B-2A 
* SOURCE FILE: A135C001_160831_R1BY
161  SR006    A3    C        18:06:25:04 18:06:26:01 02:07:21:21 02:07:22:17 
* FROM CLIP NAME:  3E-1 
* PATCH SR006:  FROM SOURCE 1 TO RECORD 3 
* SOURCE FILE: A066C001_160822_R1BY
162  SR006    A3    C        18:06:28:21 18:06:30:16 02:07:22:17 02:07:24:11 
* FROM CLIP NAME:  3E-1 
* PATCH SR006:  FROM SOURCE 1 TO RECORD 3 
* SOURCE FILE: A066C001_160822_R1BY
163  SR013    A     C        11:34:58:12 11:35:00:11 02:07:25:05 02:07:27:03 
* FROM CLIP NAME:  37B-2A 
* SOURCE FILE: A135C001_160831_R1BY
164  SR013    A     C        12:45:11:09 12:45:12:22 02:07:27:03 02:07:28:15 
* FROM CLIP NAME:  37D-1 
* SOURCE FILE: A135C001_160831_R1BY
165  SR013    A     C        12:19:43:04 12:19:46:16 02:07:28:15 02:07:32:02 
* FROM CLIP NAME:  37C-1A 
* SOURCE FILE: A135C001_160831_R1BY
166  FALLOUT_ A2    C        00:00:00:00 00:00:00:00 02:07:28:15 02:07:36:04 
* FROM CLIP NAME:  FALLOUT R2 V010417 T1 DIA MIX.WAV 
* PATCH FALLOUT_:  FROM SOURCE 1 TO RECORD 2 
* SOURCE FILE: FALLOUT R2 V010417 T1 DIA MIX.WAV
167  TEMP_ADR A     C        00:00:00:00 00:00:00:00 02:07:32:02 02:07:33:17 
* FROM CLIP NAME:  SO MANY SPIRITS 1 
* SOURCE FILE: TEMP ADR
168  SR013    A3    C        12:19:37:19 12:19:41:00 02:07:32:02 02:07:35:06 
* FROM CLIP NAME:  37C-1A 
* PATCH SR013:  FROM SOURCE 1 TO RECORD 3 
* SOURCE FILE: A135C001_160831_R1BY
169  TEMP_ADR A     C        00:00:00:00 00:00:00:00 02:07:33:18 02:07:36:04 
* FROM CLIP NAME:  A LOT OF PEOPLE DIED IN THAT PRISON 1 
* SOURCE FILE: TEMP ADR
170  SR013    A3    C        12:19:37:19 12:19:41:00 02:07:35:06 02:07:38:10 
* FROM CLIP NAME:  37C-1A 
* PATCH SR013:  FROM SOURCE 1 TO RECORD 3 
* SOURCE FILE: A135C001_160831_R1BY
171  SR013    A2    C        12:27:21:03 12:27:23:02 02:07:36:13 02:07:38:11 
* FROM CLIP NAME:  37C-2A 
* PATCH SR013:  FROM SOURCE 1 TO RECORD 2 
* SOURCE FILE: A135C001_160831_R1BY
172  SR013    A     C        12:27:24:23 12:27:32:22 02:07:38:09 02:07:46:07 
* FROM CLIP NAME:  37C-2A 
* SOURCE FILE: A135C001_160831_R1BY
173  SR013    A2    C        15:24:28:15 15:24:38:10 02:07:49:15 02:07:59:09 
* FROM CLIP NAME:  37G-3 
* PATCH SR013:  FROM SOURCE 1 TO RECORD 2 
* SOURCE FILE: A135C001_160831_R1BY
174  SR006    A     C        18:04:34:14 18:04:37:20 02:07:52:21 02:07:56:02 
* FROM CLIP NAME:  3E-1 
* SOURCE FILE: A066C001_160822_R1BY
175  SR006    A3    C        18:06:12:08 18:06:15:14 02:07:52:21 02:07:56:02 
* FROM CLIP NAME:  3E-1 
* PATCH SR006:  FROM SOURCE 1 TO RECORD 3 
* SOURCE FILE: A066C001_160822_R1BY
176  SR005    A3    C        21:30:33:02 21:30:34:07 02:07:56:02 02:07:57:06 
* FROM CLIP NAME:  7B-2B 
* PATCH SR005:  FROM SOURCE 1 TO RECORD 3 
* SOURCE FILE: A054C002_160819_R1BY
177  SR005    A3    C        21:30:35:02 21:30:39:03 02:07:57:06 02:08:01:06 
* FROM CLIP NAME:  7B-2B 
* PATCH SR005:  FROM SOURCE 1 TO RECORD 3 
* SOURCE FILE: A054C002_160819_R1BY
178  SR013    A     C        15:58:39:19 15:58:50:05 02:07:59:09 02:08:09:18 
* FROM CLIP NAME:  37H-3A 
* SOURCE FILE: A135C001_160831_R1BY
179  SR021    A2    C        12:12:10:04 12:12:11:20 02:08:01:18 02:08:03:09 
* FROM CLIP NAME:  9C-1 
* PATCH SR021:  FROM SOURCE 1 TO RECORD 2 
* SOURCE FILE: A205C003_160913_R1BY
180  SR021    A2    C        11:47:46:07 11:47:51:09 02:08:03:09 02:08:08:10 
* FROM CLIP NAME:  9B-2 
* PATCH SR021:  FROM SOURCE 1 TO RECORD 2 
* SOURCE FILE: A205C003_160913_R1BY
181  SR013    A     C        15:58:45:10 15:58:50:12 02:08:09:18 02:08:14:19 
* FROM CLIP NAME:  37H-3A 
* SOURCE FILE: A135C001_160831_R1BY
182  SR006    A3    C        18:06:15:14 18:06:17:16 02:08:13:10 02:08:15:11 
* FROM CLIP NAME:  3E-1 
* PATCH SR006:  FROM SOURCE 1 TO RECORD 3 
* SOURCE FILE: A066C001_160822_R1BY
183  SR006    A3    C        18:06:34:00 18:06:36:19 02:08:16:05 02:08:18:23 
* FROM CLIP NAME:  3E-1 
* PATCH SR006:  FROM SOURCE 1 TO RECORD 3 
* SOURCE FILE: A066C001_160822_R1BY
184  SR013    A2    C        15:19:25:14 15:19:26:19 02:08:17:22 02:08:19:02 
* FROM CLIP NAME:  37G-1 
* PATCH SR013:  FROM SOURCE 1 TO RECORD 2 
* SOURCE FILE: A135C001_160831_R1BY
185  SR013    A     C        15:58:50:01 15:58:54:09 02:08:18:04 02:08:22:11 
* FROM CLIP NAME:  37H-3A 
* PATCH SR013:  FROM SOURCE 3 TO RECORD 1 
* SOURCE FILE: A135C001_160831_R1BY
186  SR022    A3    C        19:45:58:13 19:46:00:15 02:08:19:00 02:08:21:01 
* FROM CLIP NAME:  11N-1 
* PATCH SR022:  FROM SOURCE 1 TO RECORD 3 
* SOURCE FILE: B170C002_160914_R16W
187  SR022    A3    C        19:46:05:15 19:46:06:10 02:08:21:01 02:08:21:19 
* FROM CLIP NAME:  11N-1 
* PATCH SR022:  FROM SOURCE 1 TO RECORD 3 
* SOURCE FILE: B170C002_160914_R16W
188  SR022    A2    C        19:47:17:21 19:47:18:21 02:08:21:07 02:08:22:06 
* FROM CLIP NAME:  11N-2 
* PATCH SR022:  FROM SOURCE 1 TO RECORD 2 
* SOURCE FILE: B170C002_160914_R16W
189  SR013    A     C        15:58:55:18 15:58:57:00 02:08:22:11 02:08:23:16 
* FROM CLIP NAME:  37H-3B 
* PATCH SR013:  FROM SOURCE 3 TO RECORD 1 
* SOURCE FILE: A135C001_160831_R1BY
190  SR013    A     C        15:58:53:19 15:58:54:08 02:08:23:16 02:08:24:04 
* FROM CLIP NAME:  37H-3A 
* SOURCE FILE: A135C001_160831_R1BY
191  SR013    A2    C        16:05:58:18 16:06:01:20 02:08:23:17 02:08:26:18 
* FROM CLIP NAME:  37J-1 
* PATCH SR013:  FROM SOURCE 1 TO RECORD 2 
* SOURCE FILE: A135C001_160831_R1BY
192  SR013    A     C        15:59:04:12 15:59:07:01 02:08:24:04 02:08:26:16 
* FROM CLIP NAME:  37H-3A 
* SOURCE FILE: A135C001_160831_R1BY
193  SR013    A     C        15:04:42:00 15:04:42:17 02:08:26:16 02:08:27:08 
* FROM CLIP NAME:  37F-2 
* SOURCE FILE: A135C001_160831_R1BY
194  SR013    A2    C        16:06:02:12 16:06:02:22 02:08:26:18 02:08:27:03 
* FROM CLIP NAME:  37J-1 
* PATCH SR013:  FROM SOURCE 1 TO RECORD 2 
* SOURCE FILE: A135C001_160831_R1BY
195  SR013    A     C        15:04:43:09 15:04:46:04 02:08:27:08 02:08:30:02 
* FROM CLIP NAME:  37F-2 
* SOURCE FILE: A135C001_160831_R1BY
196  SR013    A     C        15:04:46:03 15:04:49:11 02:08:30:02 02:08:33:09 
* FROM CLIP NAME:  37F-2 
* SOURCE FILE: A135C001_160831_R1BY
197  SR013    A     C        15:04:52:13 15:04:54:16 02:08:33:09 02:08:35:11 
* FROM CLIP NAME:  37F-2 
* SOURCE FILE: A135C001_160831_R1BY
198  TEMP_ADR A3    C        00:00:00:00 00:00:00:00 02:08:33:09 02:08:35:13 
* FROM CLIP NAME:  THESE EXPERIENCES YOURE HAVING 2 
* PATCH TEMP_ADR:  FROM SOURCE 1 TO RECORD 3 
* SOURCE FILE: TEMP ADR
199  SR013    A     C        15:04:59:07 15:05:01:21 02:08:35:11 02:08:38:00 
* FROM CLIP NAME:  37F-2 
* SOURCE FILE: A135C001_160831_R1BY
200  SR013    A     C        16:02:52:18 16:02:54:10 02:08:38:00 02:08:39:15 
* FROM CLIP NAME:  37J-1 
* SOURCE FILE: A135C001_160831_R1BY
201  SR013    A     C        16:05:19:20 16:05:21:20 02:08:39:15 02:08:41:14 
* FROM CLIP NAME:  37J-1 
* SOURCE FILE: A135C001_160831_R1BY
202  SR013    A     C        16:02:56:08 16:02:57:04 02:08:41:14 02:08:42:09 
* FROM CLIP NAME:  37J-1 
* SOURCE FILE: A135C001_160831_R1BY
203  SR013    A     C        15:05:02:08 15:05:02:10 02:08:42:09 02:08:42:10 
* FROM CLIP NAME:  37F-2 
* SOURCE FILE: A135C001_160831_R1BY
204  SR011    A2    C        17:40:53:04 17:40:54:06 02:08:42:09 02:08:43:10 
* FROM CLIP NAME:  38-2A 
* PATCH SR011:  FROM SOURCE 1 TO RECORD 2 
* SOURCE FILE: A119C007_160829_R1BY
205  TEMP_ADR A3    C        00:00:00:00 00:00:00:00 02:08:43:03 02:08:44:13 
* FROM CLIP NAME:  GARZA: I KEEP IT LOCKED NOW 
* PATCH TEMP_ADR:  FROM SOURCE 1 TO RECORD 3 
* SOURCE FILE: TEMP ADR
206  SR011    A2    C        17:41:17:01 17:41:22:22 02:08:43:10 02:08:49:06 
* FROM CLIP NAME:  38-2A 
* PATCH SR011:  FROM SOURCE 1 TO RECORD 2 
* SOURCE FILE: A119C007_160829_R1BY
207  TEMP_ADR A3    C        00:00:00:00 00:00:00:00 02:08:44:18 02:08:46:23 
* FROM CLIP NAME:  GARZA: I KEEP IT LOCKED NOW 
* PATCH TEMP_ADR:  FROM SOURCE 1 TO RECORD 3 
* SOURCE FILE: TEMP ADR
208  SR011    A     C        17:32:49:08 17:32:50:09 02:08:48:14 02:08:49:14 
* FROM CLIP NAME:  38-1A 
* SOURCE FILE: A119C007_160829_R1BY
209  SR011    A     C        18:49:49:07 18:49:51:03 02:08:49:14 02:08:51:09 
* FROM CLIP NAME:  38D-1 
* SOURCE FILE: A119C007_160829_R1BY
210  SR011    A     C        18:49:51:02 18:49:51:19 02:08:51:09 02:08:52:01 
* FROM CLIP NAME:  38D-1 
* SOURCE FILE: A119C007_160829_R1BY
211  SR011    A     C        17:32:51:09 17:32:56:02 02:08:52:01 02:08:56:17 
* FROM CLIP NAME:  38-1A 
* SOURCE FILE: A119C007_160829_R1BY
212  SR011    A     C        18:03:07:00 18:03:09:05 02:08:56:17 02:08:58:21 
* FROM CLIP NAME:  38A-1A 
* SOURCE FILE: A119C007_160829_R1BY
213  SR011    A     C        17:40:33:12 17:40:36:19 02:08:58:21 02:09:02:03 
* FROM CLIP NAME:  38-2A 
* SOURCE FILE: A119C007_160829_R1BY
214  SR011    A     C        18:03:12:10 18:03:25:06 02:09:02:03 02:09:14:22 
* FROM CLIP NAME:  38A-1A 
* SOURCE FILE: A119C007_160829_R1BY
215  SR011    A     C        17:40:48:14 17:40:53:18 02:09:14:22 02:09:20:01 
* FROM CLIP NAME:  38-2A 
* SOURCE FILE: A119C007_160829_R1BY
216  SR011    A     C        18:37:22:03 18:37:27:21 02:09:20:01 02:09:25:18 
* FROM CLIP NAME:  38C-1 
* SOURCE FILE: A119C007_160829_R1BY
217  SR011    A     C        15:48:55:23 15:49:01:17 02:09:25:18 02:09:31:11 
* FROM CLIP NAME:  39C-2A 
* SOURCE FILE: A119C007_160829_R1BY
218  SR011    A2    C        18:16:15:22 18:16:22:10 02:09:31:11 02:09:37:22 
* FROM CLIP NAME:  38B-1A 
* PATCH SR011:  FROM SOURCE 1 TO RECORD 2 
* SOURCE FILE: A119C007_160829_R1BY
219  SR011    A2    C        18:16:23:03 18:16:23:18 02:09:37:22 02:09:38:12 
* FROM CLIP NAME:  38B-1A 
* PATCH SR011:  FROM SOURCE 1 TO RECORD 2 
* SOURCE FILE: A119C007_160829_R1BY
220  SR011    A     C        15:14:49:08 15:14:51:16 02:09:37:22 02:09:40:05 
* FROM CLIP NAME:  39B-2A 
* SOURCE FILE: A119C007_160829_R1BY
221  SR011    A2    C        16:01:07:02 16:01:08:08 02:09:40:02 02:09:41:07 
* FROM CLIP NAME:  39C-3A 
* PATCH SR011:  FROM SOURCE 1 TO RECORD 2 
* SOURCE FILE: A119C007_160829_R1BY
222  SR011    A     C        15:14:52:01 15:14:52:23 02:09:40:05 02:09:41:02 
* FROM CLIP NAME:  39B-2A 
* SOURCE FILE: A119C007_160829_R1BY
223  SR011    A2    C        16:01:15:20 16:01:17:07 02:09:41:07 02:09:42:17 
* FROM CLIP NAME:  39C-3A 
* PATCH SR011:  FROM SOURCE 1 TO RECORD 2 
* SOURCE FILE: A119C007_160829_R1BY
224  SR011    A2    C        16:01:20:01 16:01:22:20 02:09:42:17 02:09:45:11 
* FROM CLIP NAME:  39C-3A 
* PATCH SR011:  FROM SOURCE 1 TO RECORD 2 
* SOURCE FILE: A119C007_160829_R1BY
225  SR011    A2    C        16:01:21:14 16:01:23:09 02:09:45:11 02:09:47:05 
* FROM CLIP NAME:  39C-3A 
* PATCH SR011:  FROM SOURCE 1 TO RECORD 2 
* SOURCE FILE: A119C007_160829_R1BY
226  SR011    A2    C        16:09:08:10 16:09:10:14 02:09:47:05 02:09:49:08 
* FROM CLIP NAME:  39C-5A 
* PATCH SR011:  FROM SOURCE 1 TO RECORD 2 
* SOURCE FILE: A119C007_160829_R1BY
227  SR011    A2    C        16:09:10:22 16:09:13:12 02:09:49:08 02:09:51:21 
* FROM CLIP NAME:  39C-5A 
* PATCH SR011:  FROM SOURCE 1 TO RECORD 2 
* SOURCE FILE: A119C007_160829_R1BY
228  SR011    A     C        16:09:20:09 16:09:22:12 02:09:51:20 02:09:53:22 
* FROM CLIP NAME:  39C-5A 
* SOURCE FILE: A119C007_160829_R1BY
229  SR011    A2    C        16:01:42:15 16:01:43:23 02:09:53:22 02:09:55:05 
* FROM CLIP NAME:  39C-3A 
* PATCH SR011:  FROM SOURCE 1 TO RECORD 2 
* SOURCE FILE: A119C007_160829_R1BY
230  SR011    A     C        16:25:50:18 16:25:53:22 02:09:53:22 02:09:57:01 
* FROM CLIP NAME:  39D-1 
* SOURCE FILE: A119C007_160829_R1BY
231  SR011    A2    C        16:01:44:16 16:01:45:22 02:09:55:05 02:09:56:10 
* FROM CLIP NAME:  39C-3A 
* PATCH SR011:  FROM SOURCE 1 TO RECORD 2 
* SOURCE FILE: A119C007_160829_R1BY
232  SR011    A     C        16:25:54:05 16:25:54:23 02:09:57:01 02:09:57:18 
* FROM CLIP NAME:  39D-1 
* SOURCE FILE: A119C007_160829_R1BY
233  SR011    A     C        16:25:53:12 16:25:53:14 02:09:57:18 02:09:57:19 
* FROM CLIP NAME:  39D-1 
* SOURCE FILE: A119C007_160829_R1BY
234  SR011    A     C        16:25:44:14 16:25:47:10 02:09:57:19 02:10:00:14 
* FROM CLIP NAME:  39D-1 
* SOURCE FILE: A119C007_160829_R1BY
235  SR011    A     C        16:25:39:14 16:25:40:20 02:10:00:14 02:10:01:19 
* FROM CLIP NAME:  39D-1 
* SOURCE FILE: A119C007_160829_R1BY
236  SR011    A     C        16:25:41:08 16:25:42:06 02:10:01:19 02:10:02:16 
* FROM CLIP NAME:  39D-1 
* SOURCE FILE: A119C007_160829_R1BY
237  SR011    A     C        16:01:41:23 16:01:42:16 02:10:02:16 02:10:03:08 
* FROM CLIP NAME:  39C-3A 
* SOURCE FILE: A119C007_160829_R1BY
238  SR011    A     C        16:01:46:08 16:01:49:04 02:10:03:08 02:10:06:03 
* FROM CLIP NAME:  39C-3A 
* SOURCE FILE: A119C007_160829_R1BY
239  SR011    A     C        16:01:42:09 16:01:42:19 02:10:06:03 02:10:06:12 
* FROM CLIP NAME:  39C-3A 
* SOURCE FILE: A119C007_160829_R1BY
240  SR011    A     C        16:01:47:22 16:01:59:14 02:10:06:12 02:10:18:03 
* FROM CLIP NAME:  39C-3A 
* SOURCE FILE: A119C007_160829_R1BY
241  SR011    A     C        16:09:54:12 16:09:56:07 02:10:18:03 02:10:19:21 
* FROM CLIP NAME:  39C-5A 
* SOURCE FILE: A119C007_160829_R1BY
242  SR011    A     C        16:09:59:08 16:10:01:01 02:10:19:21 02:10:21:13 
* FROM CLIP NAME:  39C-5A 
* SOURCE FILE: A119C007_160829_R1BY
243  SR011    A     C        16:10:05:21 16:10:06:00 02:10:21:13 02:10:21:15 
* FROM CLIP NAME:  39C-5A 
* SOURCE FILE: A119C007_160829_R1BY
244  SR011    A     C        16:10:11:02 16:10:13:05 02:10:21:15 02:10:23:17 
* FROM CLIP NAME:  39C-5A 
* SOURCE FILE: A119C007_160829_R1BY
245  SR011    A     C        16:10:14:07 16:10:14:11 02:10:23:17 02:10:23:20 
* FROM CLIP NAME:  39C-5A 
* SOURCE FILE: A119C007_160829_R1BY
246  SR011    A     C        16:10:17:18 16:10:27:23 02:10:23:20 02:10:34:00 
* FROM CLIP NAME:  39C-5A 
* SOURCE FILE: A119C007_160829_R1BY
247  SR011    A     C        16:10:59:11 16:11:02:12 02:10:34:00 02:10:37:00 
* FROM CLIP NAME:  39C-5A 
* SOURCE FILE: A119C007_160829_R1BY
248  SR011    A     C        16:11:17:19 16:11:19:04 02:10:37:00 02:10:38:08 
* FROM CLIP NAME:  39C-5A 
* SOURCE FILE: A119C007_160829_R1BY
249  SR011    A     C        16:11:21:09 16:11:23:17 02:10:38:08 02:10:40:15 
* FROM CLIP NAME:  39C-5A 
* SOURCE FILE: A119C007_160829_R1BY
250  SR011    A     C        14:52:43:22 14:52:47:12 02:10:40:15 02:10:44:04 
* FROM CLIP NAME:  39A-1A 
* SOURCE FILE: A119C007_160829_R1BY
251  SR014    A     C        18:52:29:01 18:52:30:05 02:10:44:04 02:10:45:07 
* FROM CLIP NAME:  40-1A 
* SOURCE FILE: A153C003_160902_R1BY
252  SR014    A     C        19:01:01:23 19:01:02:11 02:10:45:07 02:10:45:18 
* FROM CLIP NAME:  40A-1A 
* SOURCE FILE: A153C003_160902_R1BY
253  SR014    A2    C        19:01:02:10 19:01:06:06 02:10:47:00 02:10:50:19 
* FROM CLIP NAME:  40A-1A 
* PATCH SR014:  FROM SOURCE 1 TO RECORD 2 
* SOURCE FILE: A153C003_160902_R1BY
254  SR014    A     C        19:01:06:05 19:01:07:12 02:10:49:13 02:10:50:19 
* FROM CLIP NAME:  40A-1A 
* SOURCE FILE: A153C003_160902_R1BY
255  SR014    A     C        19:08:14:21 19:08:19:20 02:10:50:19 02:10:55:17 
* FROM CLIP NAME:  40A-3A 
* SOURCE FILE: A153C003_160902_R1BY
256  SR014    A     C        18:52:42:23 18:52:44:14 02:10:55:17 02:10:57:07 
* FROM CLIP NAME:  40-1A 
* SOURCE FILE: A153C003_160902_R1BY
257  SR014    A     C        19:07:29:09 19:07:36:12 02:10:57:07 02:11:04:09 
* FROM CLIP NAME:  40A-3A 
* SOURCE FILE: A153C003_160902_R1BY
258  SR010    A2    C        10:19:51:00 10:19:53:11 02:11:07:06 02:11:09:16 
* FROM CLIP NAME:  43-2B 
* PATCH SR010:  FROM SOURCE 1 TO RECORD 2 
* SOURCE FILE: A105C005_160826_R1BY
259  SR010    A     C        11:29:21:08 11:29:24:07 02:11:08:19 02:11:11:17 
* FROM CLIP NAME:  43C-1A 
* SOURCE FILE: A105C005_160826_R1BY
260  SR010    A     C        11:29:29:00 11:29:29:05 02:11:11:17 02:11:11:21 
* FROM CLIP NAME:  43C-1A 
* SOURCE FILE: A105C005_160826_R1BY
261  SR010    A     C        11:29:24:10 11:29:31:10 02:11:11:21 02:11:18:20 
* FROM CLIP NAME:  43C-1A 
* SOURCE FILE: A105C005_160826_R1BY
262  SR010    A2    C        11:47:31:10 11:47:33:09 02:11:15:18 02:11:17:16 
* FROM CLIP NAME:  43D-2A 
* PATCH SR010:  FROM SOURCE 1 TO RECORD 2 
* SOURCE FILE: A105C005_160826_R1BY
263  SR010    A2    C        11:47:33:20 11:47:38:01 02:11:17:16 02:11:21:20 
* FROM CLIP NAME:  43D-2A 
* PATCH SR010:  FROM SOURCE 1 TO RECORD 2 
* SOURCE FILE: A105C005_160826_R1BY
264  SR010    A2    C        11:33:28:22 11:33:33:19 02:11:21:20 02:11:26:16 
* FROM CLIP NAME:  43C-2A 
* PATCH SR010:  FROM SOURCE 1 TO RECORD 2 
* SOURCE FILE: A105C005_160826_R1BY
265  SR010    A     C        10:33:36:11 10:33:38:11 02:11:25:13 02:11:27:12 
* FROM CLIP NAME:  43-4B 
* SOURCE FILE: A105C005_160826_R1BY
266  SR010    A     C        11:47:57:05 11:47:58:13 02:11:27:12 02:11:28:19 
* FROM CLIP NAME:  43D-2A 
* SOURCE FILE: A105C005_160826_R1BY
267  SR010    A2    C        11:33:37:09 11:33:43:09 02:11:28:09 02:11:34:08 
* FROM CLIP NAME:  43C-2A 
* PATCH SR010:  FROM SOURCE 1 TO RECORD 2 
* SOURCE FILE: A105C005_160826_R1BY
268  SR010    A     C        11:45:06:09 11:45:09:00 02:11:31:18 02:11:34:08 
* FROM CLIP NAME:  43D-1A 
* SOURCE FILE: A105C005_160826_R1BY
269  SR010    A     C        11:45:08:17 11:45:10:17 02:11:34:08 02:11:36:07 
* FROM CLIP NAME:  43D-1A 
* SOURCE FILE: A105C005_160826_R1BY
270  SR010    A     C        10:20:32:01 10:20:37:13 02:11:36:07 02:11:41:18 
* FROM CLIP NAME:  43-2B 
* SOURCE FILE: A105C005_160826_R1BY
271  SR010    A     C        11:48:16:05 11:48:23:07 02:11:41:18 02:11:48:19 
* FROM CLIP NAME:  43D-2A 
* SOURCE FILE: A105C005_160826_R1BY
272  SR030    A2    C        20:02:01:23 20:02:04:10 02:11:51:21 02:11:54:07 
* FROM CLIP NAME:  42-1A 
* PATCH SR030:  FROM SOURCE 1 TO RECORD 2 
* SOURCE FILE: A306C002_160927_R1BY
273  SR030    A2    C        20:02:04:09 20:02:04:19 02:11:54:07 02:11:54:16 
* FROM CLIP NAME:  42-1A 
* PATCH SR030:  FROM SOURCE 1 TO RECORD 2 
* SOURCE FILE: A306C002_160927_R1BY
274  SR010    A     C        10:34:11:02 10:34:21:14 02:11:54:07 02:12:04:18 
* FROM CLIP NAME:  43-4B 
* SOURCE FILE: A105C005_160826_R1BY
275  SR030    A2    C        20:02:09:03 20:02:11:21 02:12:00:19 02:12:03:12 
* FROM CLIP NAME:  42-1A 
* PATCH SR030:  FROM SOURCE 1 TO RECORD 2 
* SOURCE FILE: A306C002_160927_R1BY
276  SR030    A     C        20:02:13:00 20:02:15:00 02:12:04:18 02:12:06:17 
* FROM CLIP NAME:  42-1A 
* SOURCE FILE: A306C002_160927_R1BY
277  SR030    A     C        20:50:43:21 20:50:45:22 02:12:06:17 02:12:08:17 
* FROM CLIP NAME:  42B-1A 
* SOURCE FILE: A306C002_160927_R1BY
278  SR030    A     C        20:50:47:03 20:50:48:11 02:12:08:17 02:12:10:00 
* FROM CLIP NAME:  42B-1A 
* SOURCE FILE: A306C002_160927_R1BY
279  SR030    A     C        20:50:49:02 20:50:49:11 02:12:10:00 02:12:10:08 
* FROM CLIP NAME:  42B-1A 
* SOURCE FILE: A306C002_160927_R1BY
280  SR030    A     C        20:02:19:07 20:02:22:10 02:12:10:08 02:12:13:10 
* FROM CLIP NAME:  42-1A 
* SOURCE FILE: A306C002_160927_R1BY
281  SR030    A     C        20:50:55:08 20:50:56:08 02:12:13:10 02:12:14:09 
* FROM CLIP NAME:  42B-1A 
* SOURCE FILE: A306C002_160927_R1BY
282  SR030    A     C        20:08:46:15 20:08:49:03 02:12:14:09 02:12:16:20 
* FROM CLIP NAME:  42-2A 
* SOURCE FILE: A306C002_160927_R1BY
283  SR010    A     C        10:34:33:07 10:34:49:12 02:12:16:20 02:12:33:00 
* FROM CLIP NAME:  43-4B 
* SOURCE FILE: A105C005_160826_R1BY
284  SR010    A     C        10:35:18:19 10:35:22:14 02:12:33:00 02:12:36:18 
* FROM CLIP NAME:  43-4B 
* SOURCE FILE: A105C005_160826_R1BY
285  SR010    A     C        10:35:42:06 10:35:42:20 02:12:36:18 02:12:37:07 
* FROM CLIP NAME:  43-4B 
* PATCH SR010:  FROM SOURCE 3 TO RECORD 1 
* SOURCE FILE: A105C005_160826_R1BY
286  SR010    A     C        10:35:41:21 10:35:54:09 02:12:37:07 02:12:49:18 
* FROM CLIP NAME:  43-4B 
* PATCH SR010:  FROM SOURCE 3 TO RECORD 1 
* SOURCE FILE: A105C005_160826_R1BY
287  SR010    A     C        10:22:05:15 10:22:15:19 02:12:49:18 02:12:59:21 
* FROM CLIP NAME:  43-2B 
* SOURCE FILE: A105C005_160826_R1BY
288  SR010    A     C        10:35:42:10 10:35:46:06 02:12:59:21 02:13:03:16 
* FROM CLIP NAME:  43-4B 
* PATCH SR010:  FROM SOURCE 3 TO RECORD 1 
* SOURCE FILE: A105C005_160826_R1BY
289  SR010    A     C        12:16:24:10 12:16:25:11 02:13:03:16 02:13:04:16 
* FROM CLIP NAME:  43E-3A 
* TO CLIP NAME:  43-4B 
* PATCH SR010:  FROM SOURCE 3 TO RECORD 1 
* SOURCE FILE: A105C005_160826_R1BY
290  SR010    A     C        12:16:25:10 12:16:27:11 02:13:04:16 02:13:06:16 
* FROM CLIP NAME:  43E-3A 
* SOURCE FILE: A105C005_160826_R1BY
291  SR010    A     C        10:35:47:08 10:35:54:09 02:13:06:16 02:13:13:16 
* FROM CLIP NAME:  43-4B 
* PATCH SR010:  FROM SOURCE 3 TO RECORD 1 
* SOURCE FILE: A105C005_160826_R1BY
292  SR010    A     C        10:35:41:21 10:35:45:09 02:13:13:16 02:13:17:03 
* FROM CLIP NAME:  43-4B 
* PATCH SR010:  FROM SOURCE 3 TO RECORD 1 
* SOURCE FILE: A105C005_160826_R1BY
293  SR010    A     C        12:51:13:02 12:51:15:11 02:13:17:03 02:13:19:11 
* FROM CLIP NAME:  43G-2 
* SOURCE FILE: A105C005_160826_R1BY
294  SR010    A     C        12:51:06:06 12:51:07:07 02:13:19:11 02:13:20:11 
* FROM CLIP NAME:  43G-2 
* TO CLIP NAME:  43G-2 
* SOURCE FILE: A105C005_160826_R1BY
295  SR010    A     C        12:51:07:06 12:51:09:06 02:13:20:11 02:13:22:10 
* FROM CLIP NAME:  43G-2 
* SOURCE FILE: A105C005_160826_R1BY
296  SR010    A     C        12:51:09:05 12:51:10:06 02:13:22:10 02:13:23:10 
* FROM CLIP NAME:  43G-2 
* TO CLIP NAME:  43G-2 
* SOURCE FILE: A105C005_160826_R1BY
297  SR010    A     C        12:51:10:05 12:51:10:13 02:13:23:10 02:13:23:17 
* FROM CLIP NAME:  43G-2 
* SOURCE FILE: A105C005_160826_R1BY
298  SR010    A     C        12:51:17:20 12:51:20:23 02:13:23:17 02:13:26:19 
* FROM CLIP NAME:  43G-2 
* SOURCE FILE: A105C005_160826_R1BY
299  SR010    A     C        12:16:44:12 12:16:47:16 02:13:26:19 02:13:29:22 
* FROM CLIP NAME:  43E-3A 
* SOURCE FILE: A105C005_160826_R1BY
300  SR010    A     C        12:11:39:19 12:11:41:15 02:13:29:22 02:13:31:17 
* FROM CLIP NAME:  43E-2A 
* SOURCE FILE: A105C005_160826_R1BY
301  SR010    A     C        12:05:25:22 12:05:30:21 02:13:31:17 02:13:36:15 
* FROM CLIP NAME:  43E-1A 
* SOURCE FILE: A105C005_160826_R1BY
302  SR010    A     C        10:22:55:09 10:22:58:16 02:13:36:15 02:13:39:21 
* FROM CLIP NAME:  43-2B 
* SOURCE FILE: A105C005_160826_R1BY
303  SR030    A2    C        20:51:31:17 20:51:36:05 02:13:36:15 02:13:41:02 
* FROM CLIP NAME:  42B-1A 
* PATCH SR030:  FROM SOURCE 1 TO RECORD 2 
* SOURCE FILE: A306C002_160927_R1BY
304  SR010    A     C        10:22:59:06 10:23:14:15 02:13:39:21 02:13:55:05 
* FROM CLIP NAME:  43-2B 
* SOURCE FILE: A105C005_160826_R1BY
305  SR010    A     C        13:55:54:08 13:55:57:19 02:13:55:05 02:13:58:15 
* FROM CLIP NAME:  43H-1 
* SOURCE FILE: A105C005_160826_R1BY
306  SR010    A     C        16:39:52:08 16:39:53:16 02:13:58:15 02:13:59:22 
* FROM CLIP NAME:  V43L-1 
* SOURCE FILE: A105C005_160826_R1BY
307  SR010    A     C        16:39:53:13 16:39:58:07 02:13:59:22 02:14:04:15 
* FROM CLIP NAME:  V43L-1 
* SOURCE FILE: A105C005_160826_R1BY
308  SR010    A     C        17:12:22:15 17:12:23:10 02:14:04:15 02:14:05:09 
* FROM CLIP NAME:  43N-1B 
* SOURCE FILE: A105C005_160826_R1BY
309  SR010    A     C        14:13:38:16 14:13:43:21 02:14:05:09 02:14:10:13 
* FROM CLIP NAME:  43H-3 
* SOURCE FILE: A105C005_160826_R1BY
310  SR010    A     C        16:50:29:20 16:50:43:07 02:14:10:13 02:14:23:23 
* FROM CLIP NAME:  V43L-4 
* SOURCE FILE: A105C005_160826_R1BY
311  SR010    A2    C        14:13:51:12 14:13:52:06 02:14:23:23 02:14:24:16 
* FROM CLIP NAME:  43H-3 
* PATCH SR010:  FROM SOURCE 1 TO RECORD 2 
* SOURCE FILE: A105C005_160826_R1BY
312  SR010    A     C        14:13:53:07 14:14:22:14 02:14:24:15 02:14:53:21 
* FROM CLIP NAME:  43H-3 
* SOURCE FILE: A105C005_160826_R1BY
313  SR010    A     C        14:14:15:21 14:14:16:18 02:14:53:21 02:14:54:17 
* FROM CLIP NAME:  43H-3 
* SOURCE FILE: A105C005_160826_R1BY
314  SR010    A     C        14:14:22:05 14:14:31:03 02:14:54:17 02:15:03:14 
* FROM CLIP NAME:  43H-3 
* SOURCE FILE: A105C005_160826_R1BY
315  SR010    A     C        19:59:26:20 19:59:28:22 02:15:03:14 02:15:05:15 
* FROM CLIP NAME:  43X-1 
* SOURCE FILE: A105C005_160826_R1BY
316  SR010    A     C        14:14:31:02 14:14:33:04 02:15:05:15 02:15:07:16 
* FROM CLIP NAME:  43H-3 
* SOURCE FILE: A105C005_160826_R1BY
317  SR010    A     C        18:51:02:02 18:51:03:22 02:15:07:16 02:15:09:11 
* FROM CLIP NAME:  43R-3A 
* SOURCE FILE: A105C005_160826_R1BY
318  SR010    A     C        20:16:10:04 20:16:17:07 02:15:09:11 02:15:16:13 
* FROM CLIP NAME:  50-2A 
* SOURCE FILE: A105C005_160826_R1BY
319  SR010    A     C        20:16:17:19 20:16:18:15 02:15:16:13 02:15:17:08 
* FROM CLIP NAME:  50-2A 
* SOURCE FILE: A105C005_160826_R1BY
320  SR013    A2    C        15:04:34:03 15:04:35:05 02:15:17:01 02:15:18:02 
* FROM CLIP NAME:  37F-2 
* PATCH SR013:  FROM SOURCE 1 TO RECORD 2 
* SOURCE FILE: A135C001_160831_R1BY
321  SR010    A     C        20:23:27:20 20:23:28:18 02:15:17:08 02:15:18:05 
* FROM CLIP NAME:  50A-1 
* SOURCE FILE: A105C005_160826_R1BY
322  SR010    A     C        20:23:30:14 20:23:31:11 02:15:18:05 02:15:19:01 
* FROM CLIP NAME:  50A-1 
* SOURCE FILE: A105C005_160826_R1BY
323  SR010    A     C        20:23:32:12 20:23:34:13 02:15:19:01 02:15:21:01 
* FROM CLIP NAME:  50A-1 
* SOURCE FILE: A105C005_160826_R1BY
324  SR010    A     C        20:23:34:12 20:23:35:16 02:15:21:01 02:15:22:04 
* FROM CLIP NAME:  50A-1 
* SOURCE FILE: A105C005_160826_R1BY
325  SR015    A     C        11:45:53:04 11:46:00:00 02:15:22:04 02:15:28:23 
* FROM CLIP NAME:  52-2 
* SOURCE FILE: A154C005_160902_R1BY
326  SR015    A     C        11:46:13:12 11:46:20:12 02:15:28:23 02:15:35:22 
* FROM CLIP NAME:  52-2 
* SOURCE FILE: A154C005_160902_R1BY
327  SR015    A     C        11:46:35:16 11:46:45:09 02:15:35:22 02:15:45:14 
* FROM CLIP NAME:  52-2 
* SOURCE FILE: A154C005_160902_R1BY
328  SR023    A     C        10:05:25:05 10:05:37:14 02:15:45:14 02:15:57:22 
* FROM CLIP NAME:  54-2A 
* SOURCE FILE: A227C001_160915_R1BY
329  SR023    A     C        10:05:49:22 10:05:56:02 02:15:57:22 02:16:04:01 
* FROM CLIP NAME:  54-2A 
* SOURCE FILE: A227C001_160915_R1BY
330  SR023    A     C        10:05:42:05 10:05:43:09 02:16:04:01 02:16:05:04 
* FROM CLIP NAME:  54-2A 
* SOURCE FILE: A227C001_160915_R1BY
331  SR023    A     C        10:05:44:18 10:05:47:08 02:16:05:04 02:16:07:17 
* FROM CLIP NAME:  54-2A 
* SOURCE FILE: A227C001_160915_R1BY
332  SR023    A     C        10:05:48:08 10:05:52:18 02:16:07:17 02:16:12:02 
* FROM CLIP NAME:  54-2A 
* SOURCE FILE: A227C001_160915_R1BY
333  SR030    A     C        20:10:10:17 20:10:11:19 02:16:12:02 02:16:13:03 
* FROM CLIP NAME:  42-2A 
* SOURCE FILE: A306C002_160927_R1BY
334  SR030    A     C        20:10:11:18 20:10:13:18 02:16:13:03 02:16:15:02 
* FROM CLIP NAME:  42-2A 
* SOURCE FILE: A306C002_160927_R1BY
335  SR023    A     C        09:59:25:04 09:59:26:17 02:16:15:02 02:16:16:14 
* FROM CLIP NAME:  54-1A 
* SOURCE FILE: A227C001_160915_R1BY
336  SR030    A     C        20:03:57:07 20:03:58:21 02:16:16:14 02:16:18:03 
* FROM CLIP NAME:  42-1A 
* SOURCE FILE: A306C002_160927_R1BY
337  SR030    A     C        20:52:27:06 20:52:28:22 02:16:18:03 02:16:19:18 
* FROM CLIP NAME:  42B-1A 
* SOURCE FILE: A306C002_160927_R1BY
338  SR030    A     C        20:52:28:21 20:52:33:13 02:16:19:18 02:16:24:09 
* FROM CLIP NAME:  42B-1A 
* SOURCE FILE: A306C002_160927_R1BY
339  SR023    A     C        10:50:59:10 10:51:03:11 02:16:24:09 02:16:28:09 
* FROM CLIP NAME:  54A-3 
* SOURCE FILE: A227C001_160915_R1BY
340  SR023    A     C        10:07:20:07 10:07:30:00 02:16:28:09 02:16:38:01 
* FROM CLIP NAME:  54-2A 
* SOURCE FILE: A227C001_160915_R1BY
341  SR023    A     C        10:07:29:23 10:07:35:05 02:16:38:01 02:16:43:06 
* FROM CLIP NAME:  54-2A 
* SOURCE FILE: A227C001_160915_R1BY
342  FALLOUT_ A3    C        00:00:00:00 00:00:00:00 02:16:38:01 02:16:43:06 
* FROM CLIP NAME:  FALLOUT R2 V010417 T1 DIA MIX.WAV 
* PATCH FALLOUT_:  FROM SOURCE 1 TO RECORD 3 
* SOURCE FILE: FALLOUT R2 V010417 T1 DIA MIX.WAV
343  SR030    A     C        20:04:11:00 20:04:11:07 02:16:43:06 02:16:43:12 
* FROM CLIP NAME:  42-1A 
* SOURCE FILE: A306C002_160927_R1BY
344  SR030    A     C        20:04:11:15 20:04:14:03 02:16:43:12 02:16:45:23 
* FROM CLIP NAME:  42-1A 
* SOURCE FILE: A306C002_160927_R1BY
345  SR030    A     C        20:52:06:05 20:52:07:12 02:16:45:23 02:16:47:05 
* FROM CLIP NAME:  42B-1A 
* SOURCE FILE: A306C002_160927_R1BY
346  SR030    A     C        20:04:14:14 20:04:15:04 02:16:47:05 02:16:47:18 
* FROM CLIP NAME:  42-1A 
* SOURCE FILE: A306C002_160927_R1BY
347  SR030    A     C        20:04:15:18 20:04:17:08 02:16:47:18 02:16:49:07 
* FROM CLIP NAME:  42-1A 
* SOURCE FILE: A306C002_160927_R1BY
348  SR030    A     C        20:04:17:12 20:04:18:14 02:16:49:07 02:16:50:08 
* FROM CLIP NAME:  42-1A 
* SOURCE FILE: A306C002_160927_R1BY
349  SR030    A2    C        20:04:19:05 20:04:21:03 02:16:50:08 02:16:52:05 
* FROM CLIP NAME:  42-1A 
* PATCH SR030:  FROM SOURCE 1 TO RECORD 2 
* SOURCE FILE: A306C002_160927_R1BY
350  SR023    A     C        11:28:43:01 11:28:47:18 02:16:50:08 02:16:55:00 
* FROM CLIP NAME:  58-1A 
* SOURCE FILE: A227C001_160915_R1BY
351  SR030    A2    C        20:25:20:14 20:25:22:11 02:16:54:13 02:16:56:09 
* FROM CLIP NAME:  42A-1A 
* PATCH SR030:  FROM SOURCE 1 TO RECORD 2 
* SOURCE FILE: A306C002_160927_R1BY
352  SR023    A     C        10:06:07:04 10:06:10:07 02:16:55:00 02:16:58:02 
* FROM CLIP NAME:  54-2A 
* SOURCE FILE: A227C001_160915_R1BY
353  FALLOUT_ A3    C        00:00:00:00 00:00:00:00 02:16:56:06 02:16:58:03 
* FROM CLIP NAME:  FALLOUT R2 V010417 T1 DIA MIX.WAV 
* PATCH FALLOUT_:  FROM SOURCE 1 TO RECORD 3 
* SOURCE FILE: FALLOUT R2 V010417 T1 DIA MIX.WAV
354  SR023    A     C        10:11:06:01 10:11:08:14 02:16:58:02 02:17:00:14 
* FROM CLIP NAME:  54-2A 
* SOURCE FILE: A227C001_160915_R1BY
355  SR030    A2    C        20:25:26:01 20:25:29:08 02:16:58:02 02:17:01:08 
* FROM CLIP NAME:  42A-1A 
* PATCH SR030:  FROM SOURCE 1 TO RECORD 2 
* SOURCE FILE: A306C002_160927_R1BY
356  SR023    A     C        10:11:04:19 10:11:07:00 02:17:00:14 02:17:02:18 
* FROM CLIP NAME:  54-2A 
* SOURCE FILE: A227C001_160915_R1BY
357  FALLOUT_ A2    C        00:00:00:00 00:00:00:00 02:17:02:12 02:17:02:18 
* FROM CLIP NAME:  FALLOUT R2 V010417 T1 DIA MIX.WAV 
* PATCH FALLOUT_:  FROM SOURCE 1 TO RECORD 2 
* SOURCE FILE: FALLOUT R2 V010417 T1 DIA MIX.WAV
358  TEMP_ADR A3    C        00:00:00:00 00:00:00:00 02:17:02:12 02:17:02:18 
* FROM CLIP NAME:  I CANT SEE ANYTHING - ARE YOU THERE 
* PATCH TEMP_ADR:  FROM SOURCE 1 TO RECORD 3 
* SOURCE FILE: TEMP ADR
359  SR023    A     C        10:17:10:23 10:17:14:15 02:17:06:12 02:17:10:03 
* FROM CLIP NAME:  54-3 
* SOURCE FILE: A227C001_160915_R1BY
360  FALLOUT_ A3    C        00:00:00:00 00:00:00:00 02:17:07:06 02:17:09:16 
* FROM CLIP NAME:  FALLOUT R2 V010417 T1 DIA MIX.WAV 
* PATCH FALLOUT_:  FROM SOURCE 1 TO RECORD 3 
* SOURCE FILE: FALLOUT R2 V010417 T1 DIA MIX.WAV
361  TEMP_ADR A2    C        00:00:00:00 00:00:00:00 02:17:07:06 02:17:09:18 
* FROM CLIP NAME:  I CANT SEE ANYTHING - ARE YOU THERE 
* PATCH TEMP_ADR:  FROM SOURCE 1 TO RECORD 2 
* SOURCE FILE: TEMP ADR
362  SR023    A     C        11:31:08:13 11:31:12:05 02:17:10:03 02:17:13:18 
* FROM CLIP NAME:  58-1A 
* SOURCE FILE: A227C001_160915_R1BY
363  SR030    A2    C        20:17:40:10 20:17:43:03 02:17:10:18 02:17:13:10 
* FROM CLIP NAME:  42-3A 
* PATCH SR030:  FROM SOURCE 1 TO RECORD 2 
* SOURCE FILE: A306C002_160927_R1BY
364  SR023    A     C        10:11:06:10 10:11:07:05 02:17:13:18 02:17:14:12 
* FROM CLIP NAME:  54-2A 
* SOURCE FILE: A227C001_160915_R1BY
365  SR030    A     C        20:10:57:08 20:10:58:03 02:17:15:12 02:17:16:06 
* FROM CLIP NAME:  42-2A 
* SOURCE FILE: A306C002_160927_R1BY
366  SR030    A2    C        20:53:12:05 20:53:13:10 02:17:16:15 02:17:17:19 
* FROM CLIP NAME:  42B-1A 
* PATCH SR030:  FROM SOURCE 1 TO RECORD 2 
* SOURCE FILE: A306C002_160927_R1BY
367  SR023    A     C        10:11:12:10 10:11:16:16 02:17:17:19 02:17:22:00 
* FROM CLIP NAME:  54-2A 
* SOURCE FILE: A227C001_160915_R1BY
368  SR023    A     C        11:32:42:22 11:32:44:02 02:17:22:00 02:17:23:03 
* FROM CLIP NAME:  58-1A 
* SOURCE FILE: A227C001_160915_R1BY
369  SR023    A2    C        11:33:40:17 11:33:41:18 02:17:22:04 02:17:23:04 
* FROM CLIP NAME:  58-1A 
* PATCH SR023:  FROM SOURCE 1 TO RECORD 2 
* SOURCE FILE: A227C001_160915_R1BY
370  SR023    A     C        11:33:41:21 11:33:42:04 02:17:23:03 02:17:23:09 
* FROM CLIP NAME:  58-1A 
* SOURCE FILE: A227C001_160915_R1BY
371  SR023    A     C        11:33:42:03 11:33:42:08 02:17:23:09 02:17:23:13 
* FROM CLIP NAME:  58-1A 
* TO CLIP NAME:  58-1A 
* SOURCE FILE: A227C001_160915_R1BY
372  SR030    A2    C        20:04:54:00 20:04:55:10 02:17:23:10 02:17:24:19 
* FROM CLIP NAME:  42-1A 
* PATCH SR030:  FROM SOURCE 1 TO RECORD 2 
* SOURCE FILE: A306C002_160927_R1BY
373  SR023    A     C        11:33:42:07 11:33:42:20 02:17:23:13 02:17:24:01 
* FROM CLIP NAME:  58-1A 
* SOURCE FILE: A227C001_160915_R1BY
374  SR023    A     C        11:32:45:07 11:32:45:10 02:17:24:01 02:17:24:03 
* FROM CLIP NAME:  58-1A 
* TO CLIP NAME:  58-1A 
* SOURCE FILE: A227C001_160915_R1BY
375  SR023    A     C        11:32:45:09 11:32:46:02 02:17:24:03 02:17:24:19 
* FROM CLIP NAME:  58-1A 
* SOURCE FILE: A227C001_160915_R1BY
376  SR023    A     C        13:01:33:16 13:01:36:06 02:17:24:19 02:17:27:08 
* FROM CLIP NAME:  60-4A 
* SOURCE FILE: A227C001_160915_R1BY
377  SR023    A     C        13:01:36:05 13:01:39:02 02:17:27:08 02:17:30:04 
* FROM CLIP NAME:  60-4A 
* SOURCE FILE: A227C001_160915_R1BY
378  SR023    A     C        12:56:37:21 12:56:38:10 02:17:30:04 02:17:30:16 
* FROM CLIP NAME:  60-1A 
* SOURCE FILE: A227C001_160915_R1BY
379  SR023    A     C        12:56:40:18 12:56:41:09 02:17:30:16 02:17:31:06 
* FROM CLIP NAME:  60-1A 
* SOURCE FILE: A227C001_160915_R1BY
380  SR023    A2    C        13:01:42:04 13:01:47:06 02:17:30:23 02:17:36:00 
* FROM CLIP NAME:  60-4A 
* PATCH SR023:  FROM SOURCE 1 TO RECORD 2 
* SOURCE FILE: A227C001_160915_R1BY
381  SR013    A     C        17:17:06:15 17:17:11:06 02:17:36:00 02:17:40:14 
* FROM CLIP NAME:  61-1A 
* SOURCE FILE: A135C001_160831_R1BY
382  SR013    A     C        17:17:26:10 17:17:26:19 02:17:40:14 02:17:40:22 
* FROM CLIP NAME:  61-1A 
* TO CLIP NAME:  61-1A 
* SOURCE FILE: A135C001_160831_R1BY
383  SR013    A     C        17:17:26:18 17:17:27:19 02:17:40:22 02:17:41:22 
* FROM CLIP NAME:  61-1A 
* SOURCE FILE: A135C001_160831_R1BY
384  SR013    A2    C        18:46:11:08 18:46:13:16 02:17:41:01 02:17:43:08 
* FROM CLIP NAME:  61B-3A 
* PATCH SR013:  FROM SOURCE 1 TO RECORD 2 
* SOURCE FILE: A135C001_160831_R1BY
385  SR013    A     C        18:46:16:10 18:46:18:12 02:17:43:08 02:17:45:09 
* FROM CLIP NAME:  61B-3A 
* SOURCE FILE: A135C001_160831_R1BY
386  TEMP_ADR A2    C        00:00:00:00 00:00:00:00 02:17:45:09 02:17:49:19 
* FROM CLIP NAME:  I DON'T KNOW WHY SHE SAID HELP HER 1 
* PATCH TEMP_ADR:  FROM SOURCE 1 TO RECORD 2 
* SOURCE FILE: TEMP ADR
387  SR013    A3    C        17:23:48:23 17:23:50:10 02:17:46:14 02:17:48:00 
* FROM CLIP NAME:  61-2A 
* PATCH SR013:  FROM SOURCE 1 TO RECORD 3 
* SOURCE FILE: A135C001_160831_R1BY
388  SR013    A     C        18:43:54:14 18:43:56:12 02:17:48:00 02:17:49:21 
* FROM CLIP NAME:  61B-3A 
* SOURCE FILE: A135C001_160831_R1BY
389  SR013    A     C        18:43:57:07 18:43:59:11 02:17:49:21 02:17:52:00 
* FROM CLIP NAME:  61B-3A 
* SOURCE FILE: A135C001_160831_R1BY
390  SR013    A     C        18:48:51:07 18:48:51:21 02:17:52:00 02:17:52:13 
* FROM CLIP NAME:  61B-4A 
* SOURCE FILE: A135C001_160831_R1BY
391  SR013    A     C        18:45:14:03 18:45:18:03 02:17:52:13 02:17:56:12 
* FROM CLIP NAME:  61B-3A 
* SOURCE FILE: A135C001_160831_R1BY
392  SR013    A     C        18:45:18:02 18:45:26:01 02:17:56:12 02:18:04:10 
* FROM CLIP NAME:  61B-3A 
* SOURCE FILE: A135C001_160831_R1BY
393  SR006    A     C        09:14:45:20 09:14:57:08 02:18:04:10 02:18:15:21 
* FROM CLIP NAME:  62-4 
* SOURCE FILE: A066C001_160822_R1BY
394  SR021    A2    C        16:13:48:09 16:13:48:23 02:18:15:04 02:18:15:17 
* FROM CLIP NAME:  117B-3A 
* PATCH SR021:  FROM SOURCE 1 TO RECORD 2 
* SOURCE FILE: A205C003_160913_R1BY
395  SR006    A     C        13:23:55:18 13:23:55:21 02:18:15:21 02:18:15:23 
* FROM CLIP NAME:  62L-1 
* SOURCE FILE: A066C001_160822_R1BY
396  SR006    A     C        09:14:57:18 09:15:00:02 02:18:15:23 02:18:18:06 
* FROM CLIP NAME:  62-4 
* SOURCE FILE: A066C001_160822_R1BY
397  SR006    A     C        13:23:58:03 13:24:01:18 02:18:18:06 02:18:21:20 
* FROM CLIP NAME:  62L-1 
* SOURCE FILE: A066C001_160822_R1BY
398  SR006    A     C        09:15:03:23 09:15:08:21 02:18:21:20 02:18:26:17 
* FROM CLIP NAME:  62-4 
* SOURCE FILE: A066C001_160822_R1BY
399  SR006    A     C        13:24:08:07 13:24:14:21 02:18:26:17 02:18:33:06 
* FROM CLIP NAME:  62L-1 
* SOURCE FILE: A066C001_160822_R1BY
400  SR006    A     C        13:24:17:19 13:24:18:01 02:18:33:06 02:18:33:11 
* FROM CLIP NAME:  62L-1 
* SOURCE FILE: A066C001_160822_R1BY
401  SR006    A     C        09:45:40:14 09:45:43:12 02:18:33:11 02:18:36:08 
* FROM CLIP NAME:  62A-2A 
* SOURCE FILE: A066C001_160822_R1BY
402  SR006    A     C        09:15:18:06 09:15:26:09 02:18:36:08 02:18:44:10 
* FROM CLIP NAME:  62-4 
* SOURCE FILE: A066C001_160822_R1BY
403  SR006    A     C        09:52:15:07 09:52:16:03 02:18:44:10 02:18:45:05 
* FROM CLIP NAME:  62B-2A 
* SOURCE FILE: A066C001_160822_R1BY
404  SR006    A     C        09:15:27:03 09:15:27:16 02:18:45:05 02:18:45:17 
* FROM CLIP NAME:  62-4 
* SOURCE FILE: A066C001_160822_R1BY
405  SR006    A     C        13:12:57:03 13:12:58:09 02:18:45:17 02:18:46:22 
* FROM CLIP NAME:  62K-2 
* SOURCE FILE: A066C001_160822_R1BY
406  SR006    A     C        13:12:41:04 13:12:43:06 02:18:46:22 02:18:48:23 
* FROM CLIP NAME:  62K-2 
* SOURCE FILE: A066C001_160822_R1BY
407  SR006    A     C        09:52:22:08 09:52:27:09 02:18:48:23 02:18:53:23 
* FROM CLIP NAME:  62B-2A 
* SOURCE FILE: A066C001_160822_R1BY
408  SR006    A2    C        13:09:05:04 13:09:06:18 02:18:53:11 02:18:55:00 
* FROM CLIP NAME:  62K-2 
* PATCH SR006:  FROM SOURCE 1 TO RECORD 2 
* SOURCE FILE: A066C001_160822_R1BY
409  SR006    A     C        13:10:52:17 13:10:57:02 02:18:54:23 02:18:59:07 
* FROM CLIP NAME:  62K-2 
* SOURCE FILE: A066C001_160822_R1BY
410  SR006    A     C        09:52:33:10 09:52:35:06 02:18:59:07 02:19:01:02 
* FROM CLIP NAME:  62B-2A 
* SOURCE FILE: A066C001_160822_R1BY
411  SR006    A     C        13:09:11:12 13:09:11:19 02:19:01:02 02:19:01:08 
* FROM CLIP NAME:  62K-2 
* SOURCE FILE: A066C001_160822_R1BY
412  SR006    A     C        13:09:12:20 13:09:14:07 02:19:01:08 02:19:02:18 
* FROM CLIP NAME:  62K-2 
* SOURCE FILE: A066C001_160822_R1BY
413  SR006    A     C        10:14:23:10 10:14:26:17 02:19:02:18 02:19:06:00 
* FROM CLIP NAME:  62C-2A 
* SOURCE FILE: A066C001_160822_R1BY
414  SR006    A     C        10:14:28:22 10:14:34:16 02:19:06:00 02:19:11:17 
* FROM CLIP NAME:  62C-2A 
* SOURCE FILE: A066C001_160822_R1BY
415  SR006    A     C        12:42:48:02 12:42:56:06 02:19:11:17 02:19:19:20 
* FROM CLIP NAME:  62J-1 
* SOURCE FILE: A066C001_160822_R1BY
416  SR006    A     C        12:42:54:19 12:42:58:00 02:19:19:20 02:19:23:00 
* FROM CLIP NAME:  62J-1 
* SOURCE FILE: A066C001_160822_R1BY
417  SR006    A     C        12:43:00:18 12:43:03:11 02:19:23:00 02:19:25:16 
* FROM CLIP NAME:  62J-1 
* SOURCE FILE: A066C001_160822_R1BY
418  SR006    A2    C        10:14:44:19 10:14:47:12 02:19:23:00 02:19:25:16 
* FROM CLIP NAME:  62C-2A 
* PATCH SR006:  FROM SOURCE 1 TO RECORD 2 
* SOURCE FILE: A066C001_160822_R1BY
419  SR006    A     C        11:31:22:10 11:31:23:22 02:19:25:16 02:19:27:03 
* FROM CLIP NAME:  62G-2 
* SOURCE FILE: A066C001_160822_R1BY
420  SR006    A2    C        09:16:07:15 09:16:09:03 02:19:25:16 02:19:27:03 
* FROM CLIP NAME:  62-4 
* PATCH SR006:  FROM SOURCE 1 TO RECORD 2 
* SOURCE FILE: A066C001_160822_R1BY
421  SR006    A     C        11:28:20:20 11:28:23:10 02:19:27:03 02:19:29:16 
* FROM CLIP NAME:  62G-2 
* SOURCE FILE: A066C001_160822_R1BY
422  SR006    A     C        12:41:23:19 12:41:25:08 02:19:29:16 02:19:31:04 
* FROM CLIP NAME:  62J-1 
* SOURCE FILE: A066C001_160822_R1BY
423  SR006    A     C        11:05:32:19 11:05:40:22 02:19:31:04 02:19:39:06 
* FROM CLIP NAME:  62E-3 
* SOURCE FILE: A066C001_160822_R1BY
424  SR006    A     C        11:05:01:00 11:05:02:23 02:19:39:06 02:19:41:04 
* FROM CLIP NAME:  62E-3 
* SOURCE FILE: A066C001_160822_R1BY
425  SR006    A     C        11:06:25:08 11:06:25:15 02:19:41:04 02:19:41:10 
* FROM CLIP NAME:  62E-3 
* SOURCE FILE: A066C001_160822_R1BY
426  SR006    A     C        11:06:25:14 11:06:28:11 02:19:41:10 02:19:44:06 
* FROM CLIP NAME:  62E-3 
* SOURCE FILE: A066C001_160822_R1BY
427  SR006    A     C        11:05:51:01 11:05:52:17 02:19:46:13 02:19:48:04 
* FROM CLIP NAME:  62E-3 
* SOURCE FILE: A066C001_160822_R1BY
428  SR006    A     C        09:16:28:04 09:16:30:16 02:19:48:04 02:19:50:15 
* FROM CLIP NAME:  62-4 
* SOURCE FILE: A066C001_160822_R1BY
429  SR006    A2    C        11:05:53:13 11:05:53:21 02:19:50:15 02:19:50:22 
* FROM CLIP NAME:  62E-3 
* PATCH SR006:  FROM SOURCE 1 TO RECORD 2 
* SOURCE FILE: A066C001_160822_R1BY
430  SR006    A     C        13:16:35:19 13:16:39:00 02:19:50:15 02:19:53:19 
* FROM CLIP NAME:  62K-3PU 
* SOURCE FILE: A066C001_160822_R1BY
431  SR006    A     C        13:16:40:14 13:16:41:08 02:19:53:19 02:19:54:12 
* FROM CLIP NAME:  62K-3PU 
* SOURCE FILE: A066C001_160822_R1BY
432  SR006    A2    C        11:06:37:01 11:06:39:18 02:19:54:08 02:19:57:00 
* FROM CLIP NAME:  62E-3 
* PATCH SR006:  FROM SOURCE 1 TO RECORD 2 
* SOURCE FILE: A066C001_160822_R1BY
433  SR019    A     C        16:49:23:12 16:49:29:04 02:19:57:00 02:20:02:15 
* FROM CLIP NAME:  65-3A 
* SOURCE FILE: A190C012_160909_R1BY
434  SR019    A3    C        16:39:42:11 16:39:45:10 02:19:58:00 02:20:00:22 
* FROM CLIP NAME:  65-1A 
* PATCH SR019:  FROM SOURCE 1 TO RECORD 3 
* SOURCE FILE: A190C012_160909_R1BY
435  SR019    A     C        16:49:29:22 16:49:30:21 02:20:02:15 02:20:03:13 
* FROM CLIP NAME:  65-3A 
* SOURCE FILE: A190C012_160909_R1BY
436  SR019    A     C        17:03:38:08 17:03:40:01 02:20:03:13 02:20:05:05 
* FROM CLIP NAME:  65-4PUA 
* SOURCE FILE: A190C012_160909_R1BY
437  SR019    A     C        16:49:30:23 16:49:32:07 02:20:05:05 02:20:06:12 
* FROM CLIP NAME:  65-3A 
* SOURCE FILE: A190C012_160909_R1BY
438  SR019    A     C        16:43:41:14 16:43:41:22 02:20:06:12 02:20:06:19 
* FROM CLIP NAME:  65-2A 
* SOURCE FILE: A190C012_160909_R1BY
439  SR019    A2    C        17:34:02:01 17:34:06:03 02:20:06:19 02:20:10:20 
* FROM CLIP NAME:  65B-2 
* PATCH SR019:  FROM SOURCE 1 TO RECORD 2 
* SOURCE FILE: A190C012_160909_R1BY
440  SR019    A     C        16:49:35:05 16:49:38:19 02:20:10:16 02:20:14:05 
* FROM CLIP NAME:  65-3A 
* SOURCE FILE: A190C012_160909_R1BY
441  SR019    A2    C        17:36:22:07 17:36:23:21 02:20:11:12 02:20:13:01 
* FROM CLIP NAME:  65B-2 
* PATCH SR019:  FROM SOURCE 1 TO RECORD 2 
* SOURCE FILE: A190C012_160909_R1BY
442  SR019    A2    C        17:36:23:20 17:36:25:08 02:20:13:01 02:20:14:12 
* FROM CLIP NAME:  65B-2 
* PATCH SR019:  FROM SOURCE 1 TO RECORD 2 
* SOURCE FILE: A190C012_160909_R1BY
443  SR019    A     C        17:34:54:14 17:35:03:08 02:20:14:05 02:20:22:22 
* FROM CLIP NAME:  65B-2 
* SOURCE FILE: A190C012_160909_R1BY
444  SR019    A2    C        17:41:53:03 17:41:55:09 02:20:21:12 02:20:23:17 
* FROM CLIP NAME:  65C-1 
* PATCH SR019:  FROM SOURCE 1 TO RECORD 2 
* SOURCE FILE: A190C012_160909_R1BY
445  SR019    A     C        17:34:12:18 17:34:16:20 02:20:22:22 02:20:26:23 
* FROM CLIP NAME:  65B-2 
* SOURCE FILE: A190C012_160909_R1BY
446  SR019    A2    C        17:30:43:19 17:30:46:20 02:20:24:23 02:20:27:23 
* FROM CLIP NAME:  65B-1 
* PATCH SR019:  FROM SOURCE 1 TO RECORD 2 
* SOURCE FILE: A190C012_160909_R1BY
447  SR019    A     C        17:34:17:23 17:34:19:00 02:20:26:23 02:20:27:23 
* FROM CLIP NAME:  65B-2 
* SOURCE FILE: A190C012_160909_R1BY
448  SR013    A     C        19:08:03:05 19:08:05:22 02:20:27:23 02:20:30:15 
* FROM CLIP NAME:  66B-1A 
* PATCH SR013:  FROM SOURCE 3 TO RECORD 1 
* SOURCE FILE: A135C001_160831_R1BY
449  SR013    A     C        17:48:43:16 17:48:44:05 02:20:30:15 02:20:31:03 
* FROM CLIP NAME:  66-1A 
* TO CLIP NAME:  66B-1A 
* PATCH SR013:  FROM SOURCE 3 TO RECORD 1 
* SOURCE FILE: A135C001_160831_R1BY
450  SR013    A     C        17:48:44:04 17:48:46:20 02:20:31:03 02:20:33:18 
* FROM CLIP NAME:  66-1A 
* SOURCE FILE: A135C001_160831_R1BY
451  SR013    A     C        17:48:48:05 17:48:48:07 02:20:33:18 02:20:33:19 
* FROM CLIP NAME:  66-1A 
* SOURCE FILE: A135C001_160831_R1BY
452  SR013    A     C        19:09:52:06 19:09:54:18 02:20:33:19 02:20:36:06 
* FROM CLIP NAME:  66B-1A 
* SOURCE FILE: A135C001_160831_R1BY
453  SR013    A     C        19:09:56:06 19:10:02:23 02:20:36:06 02:20:42:22 
* FROM CLIP NAME:  66B-1A 
* SOURCE FILE: A135C001_160831_R1BY
454  SR013    A     C        17:47:50:18 17:47:54:11 02:20:42:22 02:20:46:14 
* FROM CLIP NAME:  66-1A 
* SOURCE FILE: A135C001_160831_R1BY
455  SR013    A     C        17:47:46:03 17:47:46:18 02:20:46:14 02:20:47:04 
* FROM CLIP NAME:  66-1A 
* SOURCE FILE: A135C001_160831_R1BY
456  FKI_LEAD A     C        00:00:00:00 00:00:00:00 02:20:47:04 02:20:49:04 
* FROM CLIP NAME:  FKI_LEADER_TAIL_1920X1080.MOV 
* SOURCE FILE: FKI_LEADER_TAIL_1920X1080.MOV
457  FKI_LEAD A2    C        00:00:00:00 00:00:00:00 02:20:47:04 02:20:49:04 
* FROM CLIP NAME:  FKI_LEADER_TAIL_1920X1080.MOV 
* SOURCE FILE: FKI_LEADER_TAIL_1920X1080.MOV
458  FKI_LEAD A3    C        00:00:00:00 00:00:00:00 02:20:47:04 02:20:49:04 
* FROM CLIP NAME:  FKI_LEADER_TAIL_1920X1080.MOV 
* PATCH FKI_LEA1:  FROM SOURCE 1 TO RECORD 3 
* SOURCE FILE: FKI_LEADER_TAIL_1920X1080.MOV