TITLE:   INS4_R1_010417 
FCM: NON-DROP FRAME
000001  FKI_LEADER_HEAD_1920X1080.MOV    V     C        01:00:00:00 01:00:08:00 01:00:00:00 01:00:08:00 
*FROM CLIP NAME:  FKI_LEADER_HEAD_1920X1080.MOV 
*SOURCE FILE: FKI_LEADER_HEAD_1920X1080.MOV
000002  UNILOGO_2012_S235_MONO_DNX175X.M V     C        00:00:00:00 00:00:24:00 01:00:08:00 01:00:32:00 
*FROM CLIP NAME:  UNILOGO_2012_S235_MONO_DNX175X.MOV 
*SOURCE FILE: UNILOGO_2012_S235_MONO_DNX175X.MOV
000003  BLUMHOUSE_PRODUCTIONS_2.40_PRORE V     C        01:00:00:00 01:00:14:00 01:00:32:00 01:00:46:00 
*FROM CLIP NAME:  BLUMHOUSE_PRODUCTIONS_2.40_PRORES.MOV 
*SOURCE FILE: BLUMHOUSE_PRODUCTIONS_2.40_PRORES.MOV
000004  A192C008_160909_R1BY             V     C        19:26:32:20 19:26:32:21 01:00:50:18 01:00:51:23 
M2      A192C008_160909_R1BY                      000.0 19:26:32:20 
*FROM CLIP NAME:  V1A-6A 
** FREEZE FRAME 
*SOURCE FILE: A192C008_160909_R1BY
000005  A192C008_160909_R1BY             V     C        19:26:32:21 19:26:38:13 01:00:51:23 01:00:57:15 
*FROM CLIP NAME:  V1A-6A 
*SOURCE FILE: A192C008_160909_R1BY
000006  A192C008_160909_R1BY             V     C        19:26:38:13 19:27:12:03 01:00:57:15 01:01:31:05 
*FROM CLIP NAME:  V1A-6A 
*SOURCE FILE: A192C008_160909_R1BY
000007  A188C004_160908_R1BY             V     C        19:29:48:01 19:30:01:00 01:01:31:05 01:01:44:04 
*FROM CLIP NAME:  1-4A 
*SOURCE FILE: A188C004_160908_R1BY
000008  A056C007_160819_R1BY             V     C        19:56:27:14 19:56:41:00 01:01:44:04 01:01:57:14 
*FROM CLIP NAME:  2G-3 
*SOURCE FILE: A056C007_160819_R1BY
000009  A053C006_160819_R1BY             V     C        15:58:33:12 15:58:37:12 01:01:57:14 01:02:01:14 
*FROM CLIP NAME:  2-6A 
*SOURCE FILE: A053C006_160819_R1BY
000010  A056C007_160819_R1BY             V     C        19:56:54:10 19:56:57:05 01:02:01:14 01:02:04:09 
*FROM CLIP NAME:  2G-3 
*SOURCE FILE: A056C007_160819_R1BY
000011  A053C006_160819_R1BY             V     C        15:58:37:01 15:58:44:04 01:02:04:09 01:02:11:12 
*FROM CLIP NAME:  2-6A 
*SOURCE FILE: A053C006_160819_R1BY
000012  A056C006_160819_R1BY             V     C        19:53:56:08 19:54:00:10 01:02:11:12 01:02:15:14 
*FROM CLIP NAME:  2G-2 
*SOURCE FILE: A056C006_160819_R1BY
000013  B032C002_160819_R16W             V     C        16:30:56:14 16:31:00:01 01:02:15:14 01:02:19:01 
*FROM CLIP NAME:  2A-3B 
*SOURCE FILE: B032C002_160819_R16W
000014  B031C004_160819_R16W             V     C        15:51:10:20 15:51:18:09 01:02:19:01 01:02:26:14 
*FROM CLIP NAME:  2-4B 
*SOURCE FILE: B031C004_160819_R16W
000015  A054C003_160819_R1BY             V     C        16:31:09:03 16:31:13:22 01:02:26:14 01:02:31:09 
*FROM CLIP NAME:  2A-3A 
*SOURCE FILE: A054C003_160819_R1BY
000016  A055C004_160819_R1BY             V     C        17:52:53:19 17:53:10:18 01:02:31:09 01:02:48:08 
*FROM CLIP NAME:  2D-2 
*SOURCE FILE: A055C004_160819_R1BY
000017  B031C004_160819_R16W             V     C        15:51:46:02 15:51:47:08 01:02:48:08 01:02:49:14 
*FROM CLIP NAME:  2-4B 
*SOURCE FILE: B031C004_160819_R16W
000018  A056C001_160819_R1BY             V     C        17:57:22:11 17:57:24:02 01:02:49:14 01:02:51:05 
*FROM CLIP NAME:  2D-4 
*SOURCE FILE: A056C001_160819_R1BY
000019  A054C005_160819_R1BY             V     C        16:55:07:06 16:55:08:09 01:02:51:05 01:02:52:08 
*FROM CLIP NAME:  2B-2A 
*SOURCE FILE: A054C005_160819_R1BY
000020  A055C004_160819_R1BY             V     C        17:53:16:04 17:53:19:01 01:02:52:08 01:02:55:05 
*FROM CLIP NAME:  2D-2 
*SOURCE FILE: A055C004_160819_R1BY
000021  B033C008_160819_R16W             V     C        18:29:50:15 18:29:54:23 01:02:55:05 01:02:59:13 
*FROM CLIP NAME:  2E-3B 
*SOURCE FILE: B033C008_160819_R16W
000022  B032C002_160819_R16W             V     C        16:31:50:15 16:31:53:09 01:02:59:13 01:03:02:07 
*FROM CLIP NAME:  2A-3B 
*SOURCE FILE: B032C002_160819_R16W
000023  B033C009_160819_R16W             V     C        18:41:28:04 18:41:30:11 01:03:02:07 01:03:05:03 
M2      B033C009_160819_R16W                      019.2 18:41:28:04 
*FROM CLIP NAME:  2F-1 
*SOURCE FILE: B033C009_160819_R16W
000024  A062C004_160822_R1BY             V     C        16:04:48:17 16:04:56:05 01:03:05:03 01:03:12:15 
*FROM CLIP NAME:  3-5A 
*SOURCE FILE: A062C004_160822_R1BY
000025  B039C004_160822_R16W             V     C        15:55:30:11 15:55:33:23 01:03:12:15 01:03:16:03 
*FROM CLIP NAME:  3-3B 
*SOURCE FILE: B039C004_160822_R16W
000026  A065C002_160822_R1BY             V     C        17:50:33:09 17:50:35:15 01:03:16:03 01:03:18:09 
*FROM CLIP NAME:  3D-2A 
*SOURCE FILE: A065C002_160822_R1BY
000027  A063C003_160822_R1BY             V     C        16:33:44:06 16:33:45:21 01:03:18:09 01:03:20:00 
*FROM CLIP NAME:  3A-3 
*SOURCE FILE: A063C003_160822_R1BY
000028  B040C003_160822_R16W             V     C        17:47:27:13 17:47:29:03 01:03:20:00 01:03:21:14 
*FROM CLIP NAME:  3D-1B 
*SOURCE FILE: B040C003_160822_R16W
000029  A063C003_160822_R1BY             V     C        16:33:58:11 16:34:00:19 01:03:21:14 01:03:23:22 
*FROM CLIP NAME:  3A-3 
*SOURCE FILE: A063C003_160822_R1BY
000030  A066C001_160822_R1BY             V     C        18:02:35:07 18:02:37:22 01:03:23:22 01:03:26:13 
*FROM CLIP NAME:  3E-1 
*SOURCE FILE: A066C001_160822_R1BY
000031  A065C001_160822_R1BY             V     C        17:47:36:06 17:47:44:22 01:03:26:13 01:03:35:05 
*FROM CLIP NAME:  3D-1A 
*SOURCE FILE: A065C001_160822_R1BY
000032  A063C002_160822_R1BY             V     C        16:26:41:01 16:26:45:22 01:03:35:05 01:03:40:02 
*FROM CLIP NAME:  3A-2 
*SOURCE FILE: A063C002_160822_R1BY
000033  A066C001_160822_R1BY             V     C        18:04:21:22 18:04:29:17 01:03:40:02 01:03:47:21 
*FROM CLIP NAME:  3E-1 
*SOURCE FILE: A066C001_160822_R1BY
000034  A063C002_160822_R1BY             V     C        16:27:02:11 16:27:05:06 01:03:47:21 01:03:50:16 
*FROM CLIP NAME:  3A-2 
*SOURCE FILE: A063C002_160822_R1BY
000035  A066C001_160822_R1BY             V     C        18:04:35:09 18:04:39:05 01:03:50:16 01:03:54:12 
*FROM CLIP NAME:  3E-1 
*SOURCE FILE: A066C001_160822_R1BY
000036  A063C003_160822_R1BY             V     C        16:34:29:09 16:34:32:14 01:03:54:12 01:03:57:17 
*FROM CLIP NAME:  3A-3 
*SOURCE FILE: A063C003_160822_R1BY
000037  A066C001_160822_R1BY             V     C        18:06:23:19 18:06:27:09 01:03:57:17 01:04:01:07 
*FROM CLIP NAME:  3E-1 
*SOURCE FILE: A066C001_160822_R1BY
000038  A063C001_160822_R1BY             V     C        16:21:09:21 16:21:14:19 01:04:01:07 01:04:06:05 
*FROM CLIP NAME:  3A-1A 
*SOURCE FILE: A063C001_160822_R1BY
000039  A066C001_160822_R1BY             V     C        18:06:33:15 18:06:36:00 01:04:06:05 01:04:08:14 
*FROM CLIP NAME:  3E-1 
*SOURCE FILE: A066C001_160822_R1BY
000040  A062C001_160822_R1BY             V     C        15:48:54:08 15:49:03:01 01:04:08:14 01:04:17:07 
*FROM CLIP NAME:  3-2A 
*SOURCE FILE: A062C001_160822_R1BY
000041  A065C001_160822_R1BY             V     C        17:48:38:03 17:48:43:21 01:04:17:07 01:04:23:01 
*FROM CLIP NAME:  3D-1A 
*SOURCE FILE: A065C001_160822_R1BY
000042  A062C003_160822_R1BY             V     C        16:00:44:16 16:00:47:08 01:04:23:01 01:04:25:17 
*FROM CLIP NAME:  3-4A 
*SOURCE FILE: A062C003_160822_R1BY
000043  B040C002_160822_R16W             V     C        17:19:16:15 17:19:19:16 01:04:25:17 01:04:28:18 
*FROM CLIP NAME:  3C-1 
*SOURCE FILE: B040C002_160822_R16W
000044  A067C002_160822_R1BY             V     C        19:08:21:13 19:08:23:01 01:04:28:18 01:04:30:06 
*FROM CLIP NAME:  3H-2A 
*SOURCE FILE: A067C002_160822_R1BY
000045  A067C002_160822_R1BY             V     C        19:08:23:11 19:08:25:16 01:04:30:06 01:04:32:11 
*FROM CLIP NAME:  3H-2A 
*SOURCE FILE: A067C002_160822_R1BY
000046  A062C004_160822_R1BY             V     C        16:07:31:21 16:07:35:14 01:04:32:11 01:04:36:04 
*FROM CLIP NAME:  3-5A 
*SOURCE FILE: A062C004_160822_R1BY
000047  A066C004_160822_R1BY             V     C        18:41:29:00 18:41:34:12 01:04:36:04 01:04:41:16 
*FROM CLIP NAME:  3G-3 
*SOURCE FILE: A066C004_160822_R1BY
000048  A063C005_160822_R1BY             V     C        17:01:38:10 17:01:42:08 01:04:41:16 01:04:45:14 
*FROM CLIP NAME:  3B-2 
*SOURCE FILE: A063C005_160822_R1BY
000049  A066C004_160822_R1BY             V     C        18:40:41:10 18:40:42:19 01:04:45:14 01:04:46:23 
*FROM CLIP NAME:  3G-3 
*SOURCE FILE: A066C004_160822_R1BY
000050  A064C001_160822_R1BY             V     C        17:09:38:06 17:09:41:23 01:04:46:23 01:04:50:16 
*FROM CLIP NAME:  3B-3 
*SOURCE FILE: A064C001_160822_R1BY
000051  A066C003_160822_R1BY             V     C        18:37:20:05 18:37:25:11 01:04:50:16 01:04:55:22 
*FROM CLIP NAME:  3G-2 
*SOURCE FILE: A066C003_160822_R1BY
000052  B040C002_160822_R16W             V     C        17:22:47:18 17:22:49:15 01:04:55:22 01:04:57:19 
*FROM CLIP NAME:  3C-1 
*SOURCE FILE: B040C002_160822_R16W
000053  A067C002_160822_R1BY             V     C        19:08:35:22 19:08:40:05 01:04:57:19 01:05:02:02 
*FROM CLIP NAME:  3H-2A 
*SOURCE FILE: A067C002_160822_R1BY
000054  A063C003_160822_R1BY             V     C        16:36:23:18 16:36:27:17 01:05:02:02 01:05:06:01 
*FROM CLIP NAME:  3A-3 
*SOURCE FILE: A063C003_160822_R1BY
000055  B148C008_160909_R16W             V     C        20:09:18:12 20:09:23:02 01:05:06:01 01:05:10:15 
*FROM CLIP NAME:  VA3-2SER 
*SOURCE FILE: B148C008_160909_R16W
000056  B033C005_160819_R16W             V     C        17:45:44:07 17:45:48:05 01:05:10:15 01:05:14:13 
*FROM CLIP NAME:  2C-3B 
*SOURCE FILE: B033C005_160819_R16W
000057  A054C003_160819_R1BY             V     C        16:30:28:13 16:30:30:01 01:05:14:13 01:05:16:01 
*FROM CLIP NAME:  2A-3A 
*SOURCE FILE: A054C003_160819_R1BY
000058  A054C004_160819_R1BY             V     C        16:49:53:05 16:49:55:09 01:05:16:01 01:05:18:05 
*FROM CLIP NAME:  2B-1A 
*SOURCE FILE: A054C004_160819_R1BY
000059  A068C001_160823_R1BY             V     C        08:11:08:15 08:11:12:18 01:05:18:05 01:05:22:08 
*FROM CLIP NAME:  4-1A 
*SOURCE FILE: A068C001_160823_R1BY
000060  B043C007_160823_R16W             V     C        10:14:00:07 10:14:17:23 01:05:22:08 01:05:40:00 
*FROM CLIP NAME:  4C-3B 
*SOURCE FILE: B043C007_160823_R16W
000061  B043C007_160823_R16W             V     C        10:14:18:08 10:14:27:21 01:05:40:00 01:05:49:13 
*FROM CLIP NAME:  4C-3B 
*SOURCE FILE: B043C007_160823_R16W
000062  B049C006_160823_R16W             V     C        17:55:45:00 17:55:48:06 01:05:51:05 01:05:54:11 
*FROM CLIP NAME:  4N-1 
*SOURCE FILE: B049C006_160823_R16W
000063  B043C007_160823_R16W             V     C        10:14:27:14 10:14:29:22 01:05:54:11 01:05:56:19 
*FROM CLIP NAME:  4C-3B 
*SOURCE FILE: B043C007_160823_R16W
000064  A068C010_160823_R1BY             V     C        10:14:30:03 10:14:35:14 01:05:56:19 01:06:02:06 
*FROM CLIP NAME:  4C-3A 
*SOURCE FILE: A068C010_160823_R1BY
000065  B043C007_160823_R16W             V     C        10:14:38:21 10:14:45:04 01:06:02:06 01:06:08:13 
*FROM CLIP NAME:  4C-3B 
*SOURCE FILE: B043C007_160823_R16W
000066  B046C001_160823_R16W             V     C        12:18:24:10 12:18:28:06 01:06:08:13 01:06:13:11 
M2      B046C001_160823_R16W                      018.6 12:18:24:10 
*FROM CLIP NAME:  4J-1B 
*SOURCE FILE: B046C001_160823_R16W
000067  B043C001_160823_R16W             V     C        09:03:26:15 09:03:37:19 01:06:13:11 01:06:24:15 
*FROM CLIP NAME:  4A-3B 
*SOURCE FILE: B043C001_160823_R16W
000068  A068C006_160823_R1BY             V     C        09:03:43:23 09:03:58:20 01:06:24:15 01:06:39:12 
*FROM CLIP NAME:  4A-3A 
*SOURCE FILE: A068C006_160823_R1BY
000069  B043C004_160823_R16W             V     C        09:27:54:00 09:27:58:13 01:06:39:12 01:06:44:01 
*FROM CLIP NAME:  4B-2 
*SOURCE FILE: B043C004_160823_R16W
000070  A073C001_160823_R1BY             V     C        14:32:03:19 14:32:10:02 01:06:44:01 01:06:50:08 
*FROM CLIP NAME:  4M-1 
*SOURCE FILE: A073C001_160823_R1BY
000071  A072C003_160823_R1BY             V     C        14:16:24:20 14:16:29:12 01:06:50:08 01:06:55:00 
*FROM CLIP NAME:  4L-2A 
*SOURCE FILE: A072C003_160823_R1BY
000072  B043C003_160823_R16W             V     C        09:25:27:18 09:25:29:20 01:06:55:00 01:06:57:02 
*FROM CLIP NAME:  4B-1 
*SOURCE FILE: B043C003_160823_R16W
000073  A072C004_160823_R1BY             V     C        14:25:25:21 14:25:27:17 01:06:57:02 01:06:58:22 
*FROM CLIP NAME:  4L-3A 
*SOURCE FILE: A072C004_160823_R1BY
000074  B043C004_160823_R16W             V     C        09:28:06:16 09:28:15:12 01:06:58:22 01:07:07:18 
*FROM CLIP NAME:  4B-2 
*SOURCE FILE: B043C004_160823_R16W
000075  A078C002_160823_R1BY             V     C        18:16:48:11 18:16:50:16 01:07:07:18 01:07:09:23 
*FROM CLIP NAME:  4P-3 
*SOURCE FILE: A078C002_160823_R1BY
000076  A071C003_160823_R1BY             V     C        12:24:43:10 12:24:48:08 01:07:09:23 01:07:14:21 
*FROM CLIP NAME:  4J-2 
*SOURCE FILE: A071C003_160823_R1BY
000077  A078C001_160823_R1BY             V     C        18:11:36:00 18:11:41:15 01:07:14:21 01:07:20:12 
*FROM CLIP NAME:  4P-2 
*SOURCE FILE: A078C001_160823_R1BY
000078  A071C004_160823_R1BY             V     C        12:34:31:15 12:34:39:02 01:07:20:12 01:07:27:23 
*FROM CLIP NAME:  4J-3 
*SOURCE FILE: A071C004_160823_R1BY
000079  A073C001_160823_R1BY             V     C        14:33:06:13 14:33:09:17 01:07:27:23 01:07:31:03 
*FROM CLIP NAME:  4M-1.SUB.01 
*SOURCE FILE: A073C001_160823_R1BY
000080  A078C002_160823_R1BY             V     C        18:17:13:00 18:17:17:05 01:07:31:03 01:07:35:08 
*FROM CLIP NAME:  4P-3 
*SOURCE FILE: A078C002_160823_R1BY
000081  A071C004_160823_R1BY             V     C        12:36:55:04 12:36:59:03 01:07:35:08 01:07:39:07 
*FROM CLIP NAME:  4J-3 
*SOURCE FILE: A071C004_160823_R1BY
000082  A078C002_160823_R1BY             V     C        18:17:33:06 18:17:37:21 01:07:39:07 01:07:43:22 
*FROM CLIP NAME:  4P-3 
*SOURCE FILE: A078C002_160823_R1BY
000083  A071C004_160823_R1BY             V     C        12:36:59:19 12:37:02:13 01:07:43:22 01:07:46:16 
*FROM CLIP NAME:  4J-3 
*SOURCE FILE: A071C004_160823_R1BY
000084  A078C001_160823_R1BY             V     C        18:12:12:18 18:12:15:16 01:07:46:16 01:07:49:14 
*FROM CLIP NAME:  4P-2 
*SOURCE FILE: A078C001_160823_R1BY
000085  A071C004_160823_R1BY             V     C        12:34:56:01 12:34:58:04 01:07:49:14 01:07:51:17 
*FROM CLIP NAME:  4J-3 
*SOURCE FILE: A071C004_160823_R1BY
000086  B045C005_160823_R16W             V     C        11:52:31:19 11:52:33:13 01:07:51:17 01:07:53:11 
*FROM CLIP NAME:  4H-2 
*SOURCE FILE: B045C005_160823_R16W
000087  B044C003_160823_R16W             V     C        11:02:14:19 11:02:16:20 01:07:53:11 01:07:55:12 
*FROM CLIP NAME:  4F-2B 
*SOURCE FILE: B044C003_160823_R16W
000088  B045C005_160823_R16W             V     C        11:53:42:08 11:53:43:17 01:07:55:12 01:07:56:21 
*FROM CLIP NAME:  4H-2 
*SOURCE FILE: B045C005_160823_R16W
000089  A070C003_160823_R1BY             V     C        11:03:22:02 11:03:23:13 01:07:56:21 01:07:58:08 
*FROM CLIP NAME:  4F-2A 
*SOURCE FILE: A070C003_160823_R1BY
000090  A073C001_160823_R1BY             V     C        14:33:51:23 14:33:53:18 01:07:58:08 01:08:00:03 
*FROM CLIP NAME:  4M-1 
*SOURCE FILE: A073C001_160823_R1BY
000091  A071C001_160823_R1BY             V     C        11:35:46:22 11:35:47:19 01:08:00:03 01:08:01:02 
M2      A071C001_160823_R1BY                      021.3 11:35:46:22 
*FROM CLIP NAME:  4G-1 
*SOURCE FILE: A071C001_160823_R1BY
000092  A073C001_160823_R1BY             V     C        14:33:53:23 14:33:55:19 01:08:01:02 01:08:02:22 
*FROM CLIP NAME:  4M-1 
*SOURCE FILE: A073C001_160823_R1BY
000093  B045C005_160823_R16W             V     C        11:54:59:01 11:55:00:18 01:08:02:22 01:08:04:15 
*FROM CLIP NAME:  4H-2 
*SOURCE FILE: B045C005_160823_R16W
000094  A071C004_160823_R1BY             V     C        12:38:11:13 12:38:12:21 01:08:04:15 01:08:05:23 
*FROM CLIP NAME:  4J-3 
*SOURCE FILE: A071C004_160823_R1BY
000095  A078C002_160823_R1BY             V     C        18:17:16:06 18:17:18:08 01:08:05:23 01:08:08:01 
*FROM CLIP NAME:  4P-3 
*SOURCE FILE: A078C002_160823_R1BY
000096  A070C006_160823_R1BY             V     C        11:26:25:08 11:26:26:20 01:08:08:01 01:08:09:13 
*FROM CLIP NAME:  4F-5PUA 
*SOURCE FILE: A070C006_160823_R1BY
000097  A071C004_160823_R1BY             V     C        12:38:06:09 12:38:08:15 01:08:09:13 01:08:11:19 
*FROM CLIP NAME:  4J-3 
*SOURCE FILE: A071C004_160823_R1BY
000098  A078C002_160823_R1BY             V     C        18:17:29:22 18:17:33:00 01:08:11:19 01:08:14:21 
*FROM CLIP NAME:  4P-3 
*SOURCE FILE: A078C002_160823_R1BY
000099  A070C003_160823_R1BY             V     C        11:02:54:01 11:02:56:02 01:08:14:21 01:08:16:22 
*FROM CLIP NAME:  4F-2A 
*SOURCE FILE: A070C003_160823_R1BY
000100  A073C001_160823_R1BY             V     C        14:33:16:02 14:33:18:00 01:08:16:22 01:08:18:20 
*FROM CLIP NAME:  4M-1 
*SOURCE FILE: A073C001_160823_R1BY
000101  A070C003_160823_R1BY             V     C        11:02:56:02 11:03:00:17 01:08:18:20 01:08:23:11 
*FROM CLIP NAME:  4F-2A 
*SOURCE FILE: A070C003_160823_R1BY
000102  A071C004_160823_R1BY             V     C        12:38:13:13 12:38:15:02 01:08:23:11 01:08:25:00 
*FROM CLIP NAME:  4J-3 
*SOURCE FILE: A071C004_160823_R1BY
000103  A070C002_160823_R1BY             V     C        10:58:22:05 10:58:23:01 01:08:25:00 01:08:25:20 
*FROM CLIP NAME:  4F-1A 
*SOURCE FILE: A070C002_160823_R1BY
000104  A071C004_160823_R1BY             V     C        12:35:59:11 12:36:00:10 01:08:25:20 01:08:26:19 
*FROM CLIP NAME:  4J-3 
*SOURCE FILE: A071C004_160823_R1BY
000105  B033C004_160819_R16W             V     C        17:40:54:07 17:40:55:23 01:08:26:19 01:08:28:11 
*FROM CLIP NAME:  2C-2B 
*SOURCE FILE: B033C004_160819_R16W
000106  A067C004_160822_R1BY             V     C        19:36:36:13 19:36:39:11 01:08:28:11 01:08:31:09 
*FROM CLIP NAME:  5-2A 
*SOURCE FILE: A067C004_160822_R1BY
000107  A067C004_160822_R1BY             V     C        19:36:42:00 19:36:43:22 01:08:31:09 01:08:33:07 
*FROM CLIP NAME:  5-2A 
*SOURCE FILE: A067C004_160822_R1BY
000108  A076C002_160823_R1BY             V     C        16:25:04:04 16:25:04:21 01:08:33:07 01:08:34:00 
*FROM CLIP NAME:  6D-1 
*SOURCE FILE: A076C002_160823_R1BY
000109  A074C002_160823_R1BY             V     C        15:31:40:16 15:31:41:16 01:08:34:00 01:08:35:00 
*FROM CLIP NAME:  6-2A 
*SOURCE FILE: A074C002_160823_R1BY
000110  B049C004_160823_R16W             V     C        17:19:28:18 17:19:29:19 01:08:35:00 01:08:36:01 
*FROM CLIP NAME:  6F-1B 
*SOURCE FILE: B049C004_160823_R16W
000111  A076C002_160823_R1BY             V     C        16:26:29:18 16:26:30:23 01:08:36:01 01:08:37:06 
*FROM CLIP NAME:  6D-1 
*SOURCE FILE: A076C002_160823_R1BY
000112  B049C005_160823_R16W             V     C        17:23:14:10 17:23:15:12 01:08:37:06 01:08:38:08 
*FROM CLIP NAME:  6F-2B 
*SOURCE FILE: B049C005_160823_R16W
000113  B048C004_160823_R16W             V     C        15:58:09:21 15:58:11:19 01:08:38:08 01:08:40:06 
*FROM CLIP NAME:  6B-2B 
*SOURCE FILE: B048C004_160823_R16W
000114  A076C002_160823_R1BY             V     C        16:23:14:01 16:23:15:14 01:08:40:06 01:08:41:19 
*FROM CLIP NAME:  6D-1 
*SOURCE FILE: A076C002_160823_R1BY
000115  A074C001_160823_R1BY             V     C        15:23:15:17 15:23:17:06 01:08:41:19 01:08:43:08 
*FROM CLIP NAME:  6-1A 
*SOURCE FILE: A074C001_160823_R1BY
000116  B047C002_160823_R16W             V     C        15:32:00:04 15:32:04:04 01:08:43:08 01:08:47:08 
*FROM CLIP NAME:  6-2B 
*SOURCE FILE: B047C002_160823_R16W
000117  A076C005_160823_R1BY             V     C        17:08:07:22 17:08:15:01 01:08:47:08 01:08:54:11 
*FROM CLIP NAME:  6E-3A 
*SOURCE FILE: A076C005_160823_R1BY
000118  B049C003_160823_R16W             V     C        17:06:31:03 17:06:35:23 01:08:54:11 01:08:59:07 
*FROM CLIP NAME:  6E-3B 
*SOURCE FILE: B049C003_160823_R16W
000119  A076C005_160823_R1BY             V     C        17:06:35:22 17:06:46:12 01:08:59:07 01:09:09:21 
*FROM CLIP NAME:  6E-3A 
*SOURCE FILE: A076C005_160823_R1BY
000120  A076C001_160823_R1BY             V     C        15:58:44:01 15:58:46:01 01:09:09:21 01:09:11:21 
*FROM CLIP NAME:  6B-2A 
*SOURCE FILE: A076C001_160823_R1BY
000121  A076C005_160823_R1BY             V     C        17:06:48:10 17:06:50:23 01:09:11:21 01:09:14:10 
*FROM CLIP NAME:  6E-3A 
*SOURCE FILE: A076C005_160823_R1BY
000122  B049C003_160823_R16W             V     C        17:06:51:11 17:06:53:18 01:09:14:10 01:09:16:17 
*FROM CLIP NAME:  6E-3B 
*SOURCE FILE: B049C003_160823_R16W
000123  B048C006_160823_R16W             V     C        16:05:05:02 16:05:05:23 01:09:16:17 01:09:17:14 
*FROM CLIP NAME:  6C-2 
*SOURCE FILE: B048C006_160823_R16W
000124  B048C001_160823_R16W             V     C        15:40:34:08 15:40:35:12 01:09:17:14 01:09:18:18 
*FROM CLIP NAME:  6A-1B 
*SOURCE FILE: B048C001_160823_R16W
000125  A077C002_160823_R1BY             V     C        17:24:22:20 17:24:24:03 01:09:18:18 01:09:20:01 
*FROM CLIP NAME:  6F-2A 
*SOURCE FILE: A077C002_160823_R1BY
000126  A076C005_160823_R1BY             V     C        17:06:58:10 17:07:00:02 01:09:20:01 01:09:21:17 
*FROM CLIP NAME:  6E-3A 
*SOURCE FILE: A076C005_160823_R1BY
000127  A074C001_160823_R1BY             V     C        15:23:46:21 15:23:47:19 01:09:21:17 01:09:22:15 
*FROM CLIP NAME:  6-1A 
*SOURCE FILE: A074C001_160823_R1BY
000128  B049C005_160823_R16W             V     C        17:24:39:17 17:24:40:10 01:09:22:15 01:09:23:08 
*FROM CLIP NAME:  6F-2B 
*SOURCE FILE: B049C005_160823_R16W
000129  B048C006_160823_R16W             V     C        16:05:11:10 16:05:12:01 01:09:23:08 01:09:23:23 
*FROM CLIP NAME:  6C-2 
*SOURCE FILE: B048C006_160823_R16W
000130  A077C002_160823_R1BY             V     C        17:23:52:07 17:23:53:05 01:09:23:23 01:09:24:21 
*FROM CLIP NAME:  6F-2A 
*SOURCE FILE: A077C002_160823_R1BY
000131  B047C001_160823_R16W             V     C        15:23:45:21 15:23:46:23 01:09:24:21 01:09:25:23 
*FROM CLIP NAME:  6-1B 
*SOURCE FILE: B047C001_160823_R16W
000132  A077C002_160823_R1BY             V     C        17:24:49:22 17:24:51:22 01:09:25:23 01:09:27:23 
*FROM CLIP NAME:  6F-2A 
*SOURCE FILE: A077C002_160823_R1BY
000133  B048C004_160823_R16W             V     C        15:58:58:13 15:59:02:12 01:09:27:23 01:09:31:22 
*FROM CLIP NAME:  6B-2B 
*SOURCE FILE: B048C004_160823_R16W
000134  B034C005_160819_R16W             V     C        20:50:45:23 20:50:48:12 01:09:31:22 01:09:34:11 
*FROM CLIP NAME:  7A-2B 
*SOURCE FILE: B034C005_160819_R16W
000135  A056C012_160819_R1BY             V     C        20:50:48:13 20:50:51:04 01:09:34:11 01:09:37:02 
*FROM CLIP NAME:  7A-2A 
*SOURCE FILE: A056C012_160819_R1BY
000136  B034C007_160819_R16W             V     C        21:30:31:06 21:30:32:15 01:09:37:02 01:09:38:11 
*FROM CLIP NAME:  7B-2B 
*SOURCE FILE: B034C007_160819_R16W
000137  B034C004_160819_R16W             V     C        20:49:30:23 20:49:32:07 01:09:38:11 01:09:39:19 
*FROM CLIP NAME:  7A-1B 
*SOURCE FILE: B034C004_160819_R16W
000138  A057C002_160820_R1BY             V     C        21:58:19:18 21:58:23:16 01:09:39:19 01:09:43:17 
*FROM CLIP NAME:  7C-2 
*SOURCE FILE: A057C002_160820_R1BY
000139  A204C003_160913_R1BY             V     C        10:33:29:00 10:33:34:14 01:09:43:17 01:09:49:07 
*FROM CLIP NAME:  8A-3 
*SOURCE FILE: A204C003_160913_R1BY
000140  A205C002_160913_R1BY             V     C        11:04:42:03 11:04:45:05 01:09:49:07 01:09:52:09 
*FROM CLIP NAME:  9-2A 
*SOURCE FILE: A205C002_160913_R1BY
000141  B159C004_160913_R16W             V     C        11:45:05:16 11:45:08:11 01:09:52:09 01:09:54:17 
M2      B159C004_160913_R16W                      028.4 11:45:05:16 
*FROM CLIP NAME:  9B-1 
*SOURCE FILE: B159C004_160913_R16W
000142  B158C005_160913_R16W             V     C        10:42:51:11 10:42:53:12 01:09:54:17 01:09:56:18 
*FROM CLIP NAME:  8B-2 
*SOURCE FILE: B158C005_160913_R16W
000143  B159C005_160913_R16W             V     C        11:49:18:17 11:49:23:20 01:09:56:18 01:10:01:21 
*FROM CLIP NAME:  9B-2 
*SOURCE FILE: B159C005_160913_R16W
000144  B159C003_160913_R16W             V     C        11:25:54:00 11:25:55:14 01:10:01:21 01:10:03:11 
*FROM CLIP NAME:  9A-1 
*SOURCE FILE: B159C003_160913_R16W
000145  A204C004_160913_R1BY             V     C        10:37:18:18 10:37:20:03 01:10:03:11 01:10:04:20 
*FROM CLIP NAME:  8A-4 
*SOURCE FILE: A204C004_160913_R1BY
000146  B159C003_160913_R16W             V     C        11:26:02:14 11:26:09:07 01:10:04:20 01:10:11:13 
*FROM CLIP NAME:  9A-1 
*SOURCE FILE: B159C003_160913_R16W
000147  A205C004_160913_R1BY             V     C        12:17:43:20 12:17:54:14 01:10:11:13 01:10:22:07 
*FROM CLIP NAME:  9C-2 
*SOURCE FILE: A205C004_160913_R1BY
000148  A205C002_160913_R1BY             V     C        11:06:02:18 11:06:06:20 01:10:22:07 01:10:26:09 
*FROM CLIP NAME:  9-2A 
*SOURCE FILE: A205C002_160913_R1BY
000149  B159C001_160913_R16W             V     C        11:06:06:20 11:06:10:06 01:10:26:09 01:10:29:19 
*FROM CLIP NAME:  9-2B 
*SOURCE FILE: B159C001_160913_R16W
000150  B159C006_160913_R16W             V     C        12:43:04:05 12:43:10:12 01:10:29:19 01:10:36:02 
*FROM CLIP NAME:  9D-1B 
*SOURCE FILE: B159C006_160913_R16W
000151  B160C003_160913_R16W             V     C        12:59:31:06 12:59:40:18 01:10:36:02 01:10:45:14 
*FROM CLIP NAME:  9E-3B 
*SOURCE FILE: B160C003_160913_R16W
000152  A206C003_160913_R1BY             V     C        13:00:09:17 13:00:17:18 01:10:45:14 01:10:53:15 
*FROM CLIP NAME:  9E-3A 
*SOURCE FILE: A206C003_160913_R1BY
000153  A221C002_160914_R1BY             V     C        19:07:47:12 19:07:51:23 01:10:53:15 01:10:58:02 
*FROM CLIP NAME:  11K-2A 
*SOURCE FILE: A221C002_160914_R1BY
000154  A214C008_160914_R1BY             V     C        11:34:45:22 11:34:47:10 01:10:58:02 01:10:59:14 
*FROM CLIP NAME:  9F-5A 
*SOURCE FILE: A214C008_160914_R1BY
000155  A214C008_160914_R1BY             V     C        11:34:57:13 11:35:07:12 01:10:59:14 01:11:09:13 
*FROM CLIP NAME:  9F-5A 
*SOURCE FILE: A214C008_160914_R1BY
000156  A221C001_160914_R1BY             V     C        19:04:41:06 19:04:46:11 01:11:09:13 01:11:14:18 
*FROM CLIP NAME:  11K-1A 
*SOURCE FILE: A221C001_160914_R1BY
000157  A214C006_160914_R1BY             V     C        11:26:22:03 11:26:32:17 01:11:14:18 01:11:25:08 
*FROM CLIP NAME:  9F-3A 
*SOURCE FILE: A214C006_160914_R1BY
000158  A221C002_160914_R1BY             V     C        19:08:19:16 19:08:35:00 01:11:25:08 01:11:40:16 
*FROM CLIP NAME:  11K-2A 
*SOURCE FILE: A221C002_160914_R1BY
000159  B167C003_160914_R16W             V     C        13:11:20:11 13:11:28:23 01:11:40:16 01:11:49:04 
*FROM CLIP NAME:  9H-3B 
*SOURCE FILE: B167C003_160914_R16W
000160  A217C001_160914_R1BY             V     C        13:11:29:15 13:11:34:22 01:11:49:04 01:11:54:11 
*FROM CLIP NAME:  9H-3A 
*SOURCE FILE: A217C001_160914_R1BY
000161  B166C003_160914_R16W             V     C        12:13:43:17 12:13:51:09 01:11:54:11 01:12:02:03 
*FROM CLIP NAME:  9G-3B 
*SOURCE FILE: B166C003_160914_R16W
000162  A217C001_160914_R1BY             V     C        13:12:01:16 13:12:08:02 01:12:02:03 01:12:08:13 
*FROM CLIP NAME:  9H-3A 
*SOURCE FILE: A217C001_160914_R1BY
000163  B167C003_160914_R16W             V     C        13:12:05:02 13:12:11:09 01:12:08:13 01:12:14:20 
*FROM CLIP NAME:  9H-3B 
*SOURCE FILE: B167C003_160914_R16W
000164  A224C001_160914_R1BY             V     C        21:02:50:09 21:02:51:12 01:12:14:20 01:12:15:23 
*FROM CLIP NAME:  9R-2 
*SOURCE FILE: A224C001_160914_R1BY
000165  A224C001_160914_R1BY             V     C        21:02:53:04 21:02:53:08 01:12:15:23 01:12:16:01 
M2      A224C001_160914_R1BY                      060.0 21:02:53:04 
*FROM CLIP NAME:  9R-2 
*SOURCE FILE: A224C001_160914_R1BY
000166  A224C001_160914_R1BY             V     C        21:02:53:09 21:02:53:20 01:12:16:01 01:12:16:06 
M2      A224C001_160914_R1BY                      060.0 21:02:53:09 
*FROM CLIP NAME:  9R-2 
*SOURCE FILE: A224C001_160914_R1BY
000167  A224C001_160914_R1BY             V     C        21:03:33:02 21:03:34:10 01:12:16:06 01:12:17:14 
*FROM CLIP NAME:  9R-2 
*SOURCE FILE: A224C001_160914_R1BY
000168  A224C001_160914_R1BY             V     C        21:03:34:22 21:03:36:08 01:12:17:14 01:12:19:00 
*FROM CLIP NAME:  9R-2 
*SOURCE FILE: A224C001_160914_R1BY
000169  B167C004_160914_R16W             V     C        14:07:29:20 14:07:32:08 01:12:20:15 01:12:23:03 
*FROM CLIP NAME:  9K-1 
*SOURCE FILE: B167C004_160914_R16W
000170  A224C001_160914_R1BY             V     C        21:04:05:18 21:04:08:14 01:12:23:03 01:12:25:23 
*FROM CLIP NAME:  9R-2 
*SOURCE FILE: A224C001_160914_R1BY
000171  A224C001_160914_R1BY             V     C        21:02:53:22 21:02:53:23 01:12:25:23 01:12:26:00 
M2      A224C001_160914_R1BY                      060.0 21:02:53:22 
*FROM CLIP NAME:  9R-2 
*SOURCE FILE: A224C001_160914_R1BY
000172  A224C001_160914_R1BY             V     C        21:02:54:00 21:02:58:23 01:12:26:00 01:12:30:23 
*FROM CLIP NAME:  9R-2 
*SOURCE FILE: A224C001_160914_R1BY
000173  A224C001_160914_R1BY             V     C        21:02:58:23 21:02:59:14 01:12:31:17 01:12:32:08 
*FROM CLIP NAME:  9R-2 
*SOURCE FILE: A224C001_160914_R1BY
000174  B167C004_160914_R16W             V     C        14:07:21:19 14:07:24:02 01:12:32:08 01:12:34:15 
*FROM CLIP NAME:  9K-1 
*SOURCE FILE: B167C004_160914_R16W
000175  A224C001_160914_R1BY             V     C        21:03:29:11 21:03:30:03 01:12:34:15 01:12:35:07 
*FROM CLIP NAME:  9R-2 
*SOURCE FILE: A224C001_160914_R1BY
000176  A224C001_160914_R1BY             V     C        21:02:59:14 21:03:00:19 01:12:35:07 01:12:36:12 
*FROM CLIP NAME:  9R-2 
*SOURCE FILE: A224C001_160914_R1BY
000177  B167C004_160914_R16W             V     C        14:07:20:14 14:07:21:19 01:12:36:12 01:12:37:17 
*FROM CLIP NAME:  9K-1 
*SOURCE FILE: B167C004_160914_R16W
000178  A224C001_160914_R1BY             V     C        21:04:24:11 21:04:26:19 01:12:39:01 01:12:41:09 
*FROM CLIP NAME:  9R-2 
*SOURCE FILE: A224C001_160914_R1BY
000179  A224C001_160914_R1BY             V     C        21:04:34:16 21:04:37:07 01:12:41:09 01:12:44:00 
*FROM CLIP NAME:  9R-2 
*SOURCE FILE: A224C001_160914_R1BY
000180  A224C001_160914_R1BY             V     C        21:04:58:10 21:05:02:05 01:12:44:00 01:12:47:19 
*FROM CLIP NAME:  9R-2 
*SOURCE FILE: A224C001_160914_R1BY
000181  A224C001_160914_R1BY             V     C        21:02:50:10 21:02:51:12 01:12:52:16 01:12:53:18 
*FROM CLIP NAME:  9R-2 
*SOURCE FILE: A224C001_160914_R1BY
000182  A224C001_160914_R1BY             V     C        21:02:53:04 21:02:53:23 01:12:53:18 01:12:54:02 
M2      A224C001_160914_R1BY                      060.0 21:02:53:04 
*FROM CLIP NAME:  9R-2 
*SOURCE FILE: A224C001_160914_R1BY
000183  A224C001_160914_R1BY             V     C        21:02:54:00 21:02:55:04 01:12:54:02 01:12:55:06 
*FROM CLIP NAME:  9R-2 
*SOURCE FILE: A224C001_160914_R1BY
000184  A224C001_160914_R1BY             V     C        21:05:49:11 21:05:52:02 01:12:55:06 01:12:57:21 
*FROM CLIP NAME:  9R-2 
*SOURCE FILE: A224C001_160914_R1BY
000185  A225C001_160915_R1BY             V     C        21:21:01:11 21:21:06:12 01:12:57:21 01:13:02:22 
*FROM CLIP NAME:  V9T-2 
*SOURCE FILE: A225C001_160915_R1BY
000186  A221C003_160914_R1BY             V     C        19:21:12:16 19:21:16:06 01:13:02:22 01:13:06:12 
*FROM CLIP NAME:  9M-1 
*SOURCE FILE: A221C003_160914_R1BY
000187  A225C001_160915_R1BY             V     C        21:21:08:11 21:21:11:10 01:13:06:12 01:13:09:11 
*FROM CLIP NAME:  V9T-2 
*SOURCE FILE: A225C001_160915_R1BY
000188  A221C003_160914_R1BY             V     C        19:21:19:00 19:21:20:06 01:13:09:11 01:13:10:17 
*FROM CLIP NAME:  9M-1.SUB.01 
*SOURCE FILE: A221C003_160914_R1BY
000189  A225C001_160915_R1BY             V     C        21:21:11:10 21:21:12:19 01:13:10:17 01:13:12:02 
*FROM CLIP NAME:  V9T-2 
*SOURCE FILE: A225C001_160915_R1BY
000190  A221C003_160914_R1BY             V     C        19:21:20:17 19:21:23:06 01:13:12:02 01:13:14:15 
*FROM CLIP NAME:  9M-1 
*SOURCE FILE: A221C003_160914_R1BY
000191  A222C002_160914_R1BY             V     C        20:06:25:23 20:06:28:07 01:13:14:15 01:13:16:23 
*FROM CLIP NAME:  V9N-1A 
*SOURCE FILE: A222C002_160914_R1BY
000192  A221C003_160914_R1BY             V     C        19:21:23:15 19:21:25:16 01:13:16:23 01:13:19:00 
*FROM CLIP NAME:  9M-1 
*SOURCE FILE: A221C003_160914_R1BY
000193  A222C002_160914_R1BY             V     C        20:05:59:12 20:06:00:06 01:13:19:00 01:13:19:18 
*FROM CLIP NAME:  V9N-1A 
*SOURCE FILE: A222C002_160914_R1BY
000194  A222C002_160914_R1BY             V     C        20:06:01:12 20:06:06:19 01:13:19:18 01:13:25:01 
*FROM CLIP NAME:  V9N-1A 
*SOURCE FILE: A222C002_160914_R1BY
000195  A221C003_160914_R1BY             V     C        19:21:32:01 19:21:34:12 01:13:25:01 01:13:27:12 
*FROM CLIP NAME:  9M-1 
*SOURCE FILE: A221C003_160914_R1BY
000196  A222C002_160914_R1BY             V     C        20:06:09:17 20:06:13:14 01:13:27:12 01:13:31:09 
*FROM CLIP NAME:  V9N-1A 
*SOURCE FILE: A222C002_160914_R1BY
000197  A221C003_160914_R1BY             V     C        19:21:34:11 19:21:37:10 01:13:31:09 01:13:34:08 
*FROM CLIP NAME:  9M-1 
*SOURCE FILE: A221C003_160914_R1BY
000198  A223C001_160914_R1BY             V     C        20:14:41:19 20:14:43:06 01:13:34:08 01:13:35:19 
*FROM CLIP NAME:  9P-1A 
*SOURCE FILE: A223C001_160914_R1BY
000199  A221C003_160914_R1BY             V     C        19:21:37:22 19:21:40:11 01:13:35:19 01:13:38:08 
*FROM CLIP NAME:  9M-1 
*SOURCE FILE: A221C003_160914_R1BY
000200  B171C001_160914_R16W             V     C        20:14:51:00 20:14:54:05 01:13:38:08 01:13:41:13 
*FROM CLIP NAME:  9P-1B 
*SOURCE FILE: B171C001_160914_R16W
000201  A221C003_160914_R1BY             V     C        19:21:41:15 19:21:44:09 01:13:41:13 01:13:44:07 
*FROM CLIP NAME:  9M-1 
*SOURCE FILE: A221C003_160914_R1BY
000202  A223C001_160914_R1BY             V     C        20:15:18:10 20:15:21:12 01:13:44:07 01:13:47:09 
*FROM CLIP NAME:  9P-1A 
*SOURCE FILE: A223C001_160914_R1BY
000203  A221C003_160914_R1BY             V     C        19:20:54:01 19:20:54:02 01:13:47:09 01:13:52:03 
M2      A221C003_160914_R1BY                     -024.0 19:20:54:01 
*FROM CLIP NAME:  9M-1 
*SOURCE FILE: A221C003_160914_R1BY
000204  A223C002_160914_R1BY             V     C        20:28:44:02 20:28:48:11 01:13:52:03 01:13:56:12 
*FROM CLIP NAME:  9Q-1A 
*SOURCE FILE: A223C002_160914_R1BY
000205  A218C002_160914_R1BY             V     C        15:37:02:23 15:37:11:17 01:13:56:12 01:14:05:06 
*FROM CLIP NAME:  11A-2 
*SOURCE FILE: A218C002_160914_R1BY
000206  A057C010_160820_R1BY             V     C        23:54:59:00 23:55:01:23 01:14:05:06 01:14:08:05 
*FROM CLIP NAME:  10C-1 
*SOURCE FILE: A057C010_160820_R1BY
000207  B035C004_160820_R16W             V     C        23:35:31:01 23:35:36:20 01:14:08:05 01:14:14:00 
*FROM CLIP NAME:  10A-1B 
*SOURCE FILE: B035C004_160820_R16W
000208  A057C006_160820_R1BY             V     C        23:37:19:06 23:37:25:11 01:14:14:00 01:14:20:05 
*FROM CLIP NAME:  10A-2A 
*SOURCE FILE: A057C006_160820_R1BY
000209  B035C003_160820_R16W             V     C        22:41:37:08 22:41:40:09 01:14:20:05 01:14:23:06 
*FROM CLIP NAME:  10-3 
*SOURCE FILE: B035C003_160820_R16W
000210  A057C006_160820_R1BY             V     C        23:37:28:03 23:37:34:03 01:14:23:06 01:14:29:06 
*FROM CLIP NAME:  10A-2A 
*SOURCE FILE: A057C006_160820_R1BY
000211  A214C003_160914_R1BY             V     C        10:23:55:01 10:24:02:05 01:14:29:06 01:14:36:10 
*FROM CLIP NAME:  V11-3A 
*SOURCE FILE: A214C003_160914_R1BY
000212  A220C007_160914_R1BY             V     C        18:02:08:19 18:02:11:12 01:14:36:10 01:14:39:03 
*FROM CLIP NAME:  11G-1 
*SOURCE FILE: A220C007_160914_R1BY
000213  A214C003_160914_R1BY             V     C        10:24:03:20 10:24:10:02 01:14:39:03 01:14:45:09 
*FROM CLIP NAME:  V11-3A 
*SOURCE FILE: A214C003_160914_R1BY
000214  B165C003_160914_R16W             V     C        10:24:09:21 10:24:17:23 01:14:45:09 01:14:53:11 
*FROM CLIP NAME:  V11-3B 
*SOURCE FILE: B165C003_160914_R16W
000215  A220C002_160914_R1BY             V     C        16:50:52:01 16:50:54:16 01:14:53:11 01:14:56:02 
*FROM CLIP NAME:  11D-2A 
*SOURCE FILE: A220C002_160914_R1BY
000216  B035C001_160820_R16W             V     C        22:38:26:19 22:38:28:11 01:14:56:02 01:14:57:18 
*FROM CLIP NAME:  10-1 
*SOURCE FILE: B035C001_160820_R16W
000217  A214C003_160914_R1BY             V     C        10:24:20:15 10:24:24:12 01:14:57:18 01:15:01:15 
*FROM CLIP NAME:  V11-3A 
*SOURCE FILE: A214C003_160914_R1BY
000218  B168C004_160914_R16W             V     C        16:15:42:17 16:15:44:08 01:15:01:15 01:15:03:06 
*FROM CLIP NAME:  V11C-2B 
*SOURCE FILE: B168C004_160914_R16W
000219  B171C003_160914_R16W             V     C        20:43:28:12 20:43:30:14 01:15:03:06 01:15:05:08 
*FROM CLIP NAME:  11P-1 
*SOURCE FILE: B171C003_160914_R16W
000220  B169C002_160914_R16W             V     C        17:18:16:19 17:18:18:03 01:15:05:08 01:15:06:16 
*FROM CLIP NAME:  V11E-2B 
*SOURCE FILE: B169C002_160914_R16W
000221  A219C003_160914_R1BY             V     C        16:15:47:01 16:15:49:09 01:15:06:16 01:15:09:00 
*FROM CLIP NAME:  V11C-2A 
*SOURCE FILE: A219C003_160914_R1BY
000222  A220C004_160914_R1BY             V     C        17:18:21:23 17:18:24:00 01:15:09:00 01:15:11:01 
*FROM CLIP NAME:  V11E-2A 
*SOURCE FILE: A220C004_160914_R1BY
000223  B168C003_160914_R16W             V     C        16:11:42:01 16:11:43:13 01:15:11:01 01:15:12:13 
*FROM CLIP NAME:  V11C-1B 
*SOURCE FILE: B168C003_160914_R16W
000224  B171C004_160914_R16W             V     C        20:46:07:09 20:46:08:15 01:15:12:13 01:15:13:19 
*FROM CLIP NAME:  11P-2 
*SOURCE FILE: B171C004_160914_R16W
000225  A219C001_160914_R1BY             V     C        16:04:38:16 16:04:42:05 01:15:13:19 01:15:17:08 
*FROM CLIP NAME:  V11B-1A 
*SOURCE FILE: A219C001_160914_R1BY
000226  B169C002_160914_R16W             V     C        17:18:51:14 17:18:54:17 01:15:17:08 01:15:20:11 
*FROM CLIP NAME:  V11E-2B 
*SOURCE FILE: B169C002_160914_R16W
000227  B171C004_160914_R16W             V     C        20:46:50:20 20:46:53:11 01:15:20:11 01:15:23:02 
*FROM CLIP NAME:  11P-2 
*SOURCE FILE: B171C004_160914_R16W
000228  A222C001_160914_R1BY             V     C        19:39:51:23 19:39:54:05 01:15:23:02 01:15:25:08 
*FROM CLIP NAME:  11M-1 
*SOURCE FILE: A222C001_160914_R1BY
000229  A220C006_160914_R1BY             V     C        17:43:52:03 17:43:54:21 01:15:25:08 01:15:28:02 
*FROM CLIP NAME:  V11F-2A 
*SOURCE FILE: A220C006_160914_R1BY
000230  A222C001_160914_R1BY             V     C        19:40:42:20 19:40:44:03 01:15:28:02 01:15:29:09 
*FROM CLIP NAME:  11M-1 
*SOURCE FILE: A222C001_160914_R1BY
000231  B170C002_160914_R16W             V     C        19:47:14:02 19:47:17:18 01:15:29:09 01:15:33:01 
*FROM CLIP NAME:  11N-2 
*SOURCE FILE: B170C002_160914_R16W
000232  B169C005_160914_R16W             V     C        18:27:53:07 18:27:55:14 01:15:33:01 01:15:35:08 
*FROM CLIP NAME:  11H-1B 
*SOURCE FILE: B169C005_160914_R16W
000233  A220C009_160914_R1BY             V     C        18:33:20:16 18:33:21:16 01:15:35:08 01:15:36:08 
*FROM CLIP NAME:  11J-1 
*SOURCE FILE: A220C009_160914_R1BY
000234  B170C001_160914_R16W             V     C        19:46:00:07 19:46:01:18 01:15:36:08 01:15:37:19 
*FROM CLIP NAME:  11N-1 
*SOURCE FILE: B170C001_160914_R16W
000235  A220C009_160914_R1BY             V     C        18:34:16:00 18:34:17:23 01:15:37:19 01:15:39:18 
*FROM CLIP NAME:  11J-1 
*SOURCE FILE: A220C009_160914_R1BY
000236  B170C002_160914_R16W             V     C        19:47:18:21 19:47:20:22 01:15:39:18 01:15:41:19 
*FROM CLIP NAME:  11N-2 
*SOURCE FILE: B170C002_160914_R16W
000237  A021C001_160817_R1BY             V     C        10:18:52:19 10:19:07:09 01:15:41:19 01:15:56:09 
*FROM CLIP NAME:  12B-3SER 
*SOURCE FILE: A021C001_160817_R1BY
000238  A020C001_160817_R1BY             V     C        09:36:04:21 09:36:09:15 01:15:56:09 01:16:01:03 
*FROM CLIP NAME:  12-2A 
*SOURCE FILE: A020C001_160817_R1BY
000239  A022C008_160817_R1BY             V     C        11:04:11:02 11:04:15:21 01:16:01:03 01:16:05:22 
*FROM CLIP NAME:  12D-7 
*SOURCE FILE: A022C008_160817_R1BY
000240  A022C001_160817_R1BY             V     C        10:35:37:01 10:35:39:05 01:16:05:22 01:16:08:02 
*FROM CLIP NAME:  12C-2A 
*SOURCE FILE: A022C001_160817_R1BY
000241  A008C013_140711ZJ                V     C        15:08:53:13 15:08:56:01 01:16:08:02 01:16:10:14 
*FROM CLIP NAME:  44A-1 
*SOURCE FILE: A008C013_140711ZJ
000242  A022C008_160817_R1BY             V     C        11:04:17:14 11:04:25:17 01:16:10:14 01:16:18:17 
*FROM CLIP NAME:  12D-7 
*SOURCE FILE: A022C008_160817_R1BY
000243  A022C008_160817_R1BY             V     C        11:04:32:07 11:04:39:20 01:16:18:17 01:16:26:06 
*FROM CLIP NAME:  12D-7 
*SOURCE FILE: A022C008_160817_R1BY
000244  A022C001_160817_R1BY             V     C        10:37:15:14 10:37:19:01 01:16:26:06 01:16:29:17 
*FROM CLIP NAME:  12C-2A 
*SOURCE FILE: A022C001_160817_R1BY
000245  A022C005_160817_R1BY             V     C        10:54:52:06 10:54:55:05 01:16:29:17 01:16:32:16 
*FROM CLIP NAME:  12D-4 
*SOURCE FILE: A022C005_160817_R1BY
000246  A021C002_160817_R1BY             V     C        10:31:23:01 10:31:26:17 01:16:32:16 01:16:36:08 
*FROM CLIP NAME:  12C-1A 
*SOURCE FILE: A021C002_160817_R1BY
000247  A022C005_160817_R1BY             V     C        10:54:54:01 10:54:55:11 01:16:36:08 01:16:37:18 
*FROM CLIP NAME:  12D-4 
*SOURCE FILE: A022C005_160817_R1BY
000248  INSIDIOUS_T00                    V     C        00:02:09:13 00:02:16:17 01:16:37:18 01:16:44:22 
*FROM CLIP NAME:  INSIDIOUS OPENING 
*SOURCE FILE: INSIDIOUS_T00
000249  B009C001_160816_R16W             V     C        09:01:33:04 09:01:35:00 01:16:44:22 01:16:46:18 
*FROM CLIP NAME:  13-1 
*TO CLIP NAME:  INSIDIOUS OPENING 
*SOURCE FILE: B009C001_160816_R16W
000250  B009C001_160816_R16W             V     C        09:01:35:00 09:01:38:03 01:16:46:18 01:16:49:21 
*FROM CLIP NAME:  13-1 
*SOURCE FILE: B009C001_160816_R16W
000251  A012C004_160816_R1BY             V     C        13:09:15:14 13:09:21:17 01:16:49:21 01:16:56:00 
*FROM CLIP NAME:  14-3A 
*SOURCE FILE: A012C004_160816_R1BY
000252  B011C007_160816_R16W             V     C        13:34:07:14 13:34:13:18 01:16:56:00 01:17:02:04 
*FROM CLIP NAME:  14A-1 
*SOURCE FILE: B011C007_160816_R16W
000253  A013C003_160816_R1BY             V     C        14:01:35:13 14:01:39:20 01:17:02:04 01:17:06:11 
*FROM CLIP NAME:  14B-2 
*SOURCE FILE: A013C003_160816_R1BY
000254  B011C006_160816_R16W             V     C        13:12:32:09 13:12:34:11 01:17:06:11 01:17:08:13 
*FROM CLIP NAME:  14-4B 
*SOURCE FILE: B011C006_160816_R16W
000255  A013C003_160816_R1BY             V     C        14:01:45:07 14:01:47:17 01:17:08:13 01:17:10:23 
*FROM CLIP NAME:  14B-2 
*SOURCE FILE: A013C003_160816_R1BY
000256  B011C006_160816_R16W             V     C        13:12:37:01 13:12:40:06 01:17:10:23 01:17:14:04 
*FROM CLIP NAME:  14-4B 
*SOURCE FILE: B011C006_160816_R16W
000257  A013C003_160816_R1BY             V     C        14:02:07:13 14:02:10:15 01:17:14:04 01:17:17:06 
*FROM CLIP NAME:  14B-2 
*SOURCE FILE: A013C003_160816_R1BY
000258  B011C006_160816_R16W             V     C        13:12:58:20 13:13:01:04 01:17:17:06 01:17:19:14 
*FROM CLIP NAME:  14-4B 
*SOURCE FILE: B011C006_160816_R16W
000259  A015C001_160816_R1BY             V     C        15:02:34:12 15:02:41:05 01:17:19:14 01:17:26:07 
*FROM CLIP NAME:  14C-5A 
*SOURCE FILE: A015C001_160816_R1BY
000260  A018C001_160816_R1BY             V     C        18:26:39:15 18:26:41:01 01:17:26:07 01:17:27:17 
*FROM CLIP NAME:  V14J-1A 
*SOURCE FILE: A018C001_160816_R1BY
000261  A015C001_160816_R1BY             V     C        15:02:42:06 15:02:44:01 01:17:27:17 01:17:29:12 
*FROM CLIP NAME:  14C-5A 
*SOURCE FILE: A015C001_160816_R1BY
000262  B013C001_160816_R16W             V     C        16:03:58:05 16:03:59:09 01:17:29:12 01:17:30:16 
*FROM CLIP NAME:  14C-5B 
*SOURCE FILE: B013C001_160816_R16W
000263  B014C005_160816_R16W             V     C        17:11:36:17 17:11:38:13 01:17:30:16 01:17:32:12 
*FROM CLIP NAME:  14F-3 
*SOURCE FILE: B014C005_160816_R16W
000264  A018C001_160816_R1BY             V     C        18:26:59:00 18:26:59:01 01:17:32:12 01:17:35:09 
M2      A018C001_160816_R1BY                     -024.0 18:26:59:00 
*FROM CLIP NAME:  V14J-1A 
*SOURCE FILE: A018C001_160816_R1BY
000265  B014C002_160816_R16W             V     C        16:39:16:15 16:39:20:20 01:17:35:09 01:17:39:14 
*FROM CLIP NAME:  14D-3B 
*SOURCE FILE: B014C002_160816_R16W
000266  B012C001_160816_R16W             V     C        15:55:20:22 15:55:22:22 01:17:39:14 01:17:41:14 
*FROM CLIP NAME:  14C-3B 
*SOURCE FILE: B012C001_160816_R16W
000267  B014C002_160816_R16W             V     C        16:39:27:17 16:39:34:13 01:17:41:14 01:17:48:10 
*FROM CLIP NAME:  14D-3B 
*SOURCE FILE: B014C002_160816_R16W
000268  A015C001_160816_R1BY             V     C        15:03:12:11 15:03:18:17 01:17:48:10 01:17:54:16 
*FROM CLIP NAME:  14C-5A 
*SOURCE FILE: A015C001_160816_R1BY
000269  A016C003_160816_R1BY             V     C        17:47:47:05 17:47:50:23 01:17:54:16 01:17:58:10 
*FROM CLIP NAME:  V14G-3A 
*SOURCE FILE: A016C003_160816_R1BY
000270  B014C006_160816_R16W             V     C        17:36:48:23 17:36:52:16 01:17:58:10 01:18:02:03 
*FROM CLIP NAME:  V14G-1B 
*SOURCE FILE: B014C006_160816_R16W
000271  A016C003_160816_R1BY             V     C        17:47:53:20 17:47:58:11 01:18:02:03 01:18:06:18 
*FROM CLIP NAME:  V14G-3A 
*SOURCE FILE: A016C003_160816_R1BY
000272  A015C004_160816_R1BY             V     C        15:38:39:13 15:38:48:09 01:18:06:18 01:18:15:14 
*FROM CLIP NAME:  14D-3A 
*SOURCE FILE: A015C004_160816_R1BY
000273  B015C001_160816_R16W             V     C        17:48:09:06 17:48:12:07 01:18:15:14 01:18:18:15 
*FROM CLIP NAME:  V14G-3B 
*SOURCE FILE: B015C001_160816_R16W
000274  A015C004_160816_R1BY             V     C        15:38:52:07 15:38:55:04 01:18:18:15 01:18:21:12 
*FROM CLIP NAME:  14D-3A 
*SOURCE FILE: A015C004_160816_R1BY
000275  B015C001_160816_R16W             V     C        17:48:17:20 17:48:21:23 01:18:21:12 01:18:25:15 
*FROM CLIP NAME:  V14G-3B 
*SOURCE FILE: B015C001_160816_R16W
000276  A015C003_160816_R1BY             V     C        15:30:53:23 15:30:59:23 01:18:25:15 01:18:31:15 
*FROM CLIP NAME:  14D-2A 
*SOURCE FILE: A015C003_160816_R1BY
000277  B014C006_160816_R16W             V     C        17:37:26:16 17:37:29:22 01:18:31:15 01:18:34:21 
*FROM CLIP NAME:  V14G-1B 
*SOURCE FILE: B014C006_160816_R16W
000278  A015C003_160816_R1BY             V     C        15:31:03:16 15:31:11:08 01:18:34:21 01:18:42:13 
*FROM CLIP NAME:  14D-2A 
*SOURCE FILE: A015C003_160816_R1BY
000279  B014C006_160816_R16W             V     C        17:37:40:01 17:37:42:13 01:18:42:13 01:18:45:01 
*FROM CLIP NAME:  V14G-1B 
*SOURCE FILE: B014C006_160816_R16W
000280  A015C003_160816_R1BY             V     C        15:31:11:17 15:31:13:16 01:18:45:01 01:18:47:00 
*FROM CLIP NAME:  14D-2A 
*SOURCE FILE: A015C003_160816_R1BY
000281  A015C001_160816_R1BY             V     C        15:04:12:22 15:04:14:05 01:18:47:00 01:18:48:07 
*FROM CLIP NAME:  14C-5A 
*SOURCE FILE: A015C001_160816_R1BY
000282  B014C006_160816_R16W             V     C        17:37:44:07 17:37:45:21 01:18:48:07 01:18:49:21 
*FROM CLIP NAME:  V14G-1B 
*SOURCE FILE: B014C006_160816_R16W
000283  A015C002_160816_R1BY             V     C        15:24:05:18 15:24:10:18 01:18:49:21 01:18:54:21 
*FROM CLIP NAME:  14D-1A 
*SOURCE FILE: A015C002_160816_R1BY
000284  A015C005_160816_R1BY             V     C        15:45:58:07 15:46:04:16 01:18:54:21 01:19:01:06 
*FROM CLIP NAME:  14E-1 
*SOURCE FILE: A015C005_160816_R1BY
000285  A017C002_160816_R1BY             V     C        18:14:39:13 18:14:50:16 01:19:01:06 01:19:12:09 
*FROM CLIP NAME:  V14H-4A 
*SOURCE FILE: A017C002_160816_R1BY
000286  A015C002_160816_R1BY             V     C        15:24:37:15 15:24:41:19 01:19:12:09 01:19:16:13 
*FROM CLIP NAME:  14D-1A 
*SOURCE FILE: A015C002_160816_R1BY
000287  FKI_LEADER_TAIL_1920X1080.MOV    V     C        01:17:02:07 01:17:04:07 01:19:16:13 01:19:18:13 
*FROM CLIP NAME:  FKI_LEADER_TAIL_1920X1080.MOV 
*SOURCE FILE: FKI_LEADER_TAIL_1920X1080.MOV
>>> SOURCE A008C013_140711ZJ                A008C013_140711Z 060a2b340101010101010f00-13-00-00-00-{53c08d51-33fd-b737-060e2b347f7f2a80} 
*SOURCE FILE: A008C013_140711ZJ
>>> SOURCE A012C004_160816_R1BY             A012C004_160816_ 060e2b340101010101010f00-13-00-00-00-{3bc06754-f038-d884-060e2b347f7f2a80} 
*SOURCE FILE: A012C004_160816_R1BY
>>> SOURCE A013C003_160816_R1BY             A013C003_160816_ 060e2b340101010101010f00-13-00-00-00-{3b7b780c-f038-6dbb-060e2b347f7f2a80} 
*SOURCE FILE: A013C003_160816_R1BY
>>> SOURCE A015C001_160816_R1BY             A015C001_160816_ 060e2b340101010101010f00-13-00-00-00-{3bb59db7-f038-5ab3-060e2b347f7f2a80} 
*SOURCE FILE: A015C001_160816_R1BY
>>> SOURCE A015C002_160816_R1BY             A015C002_160816_ 060e2b340101010101010f00-13-00-00-00-{3b1ddaa5-f038-3b0b-060e2b347f7f2a80} 
*SOURCE FILE: A015C002_160816_R1BY
>>> SOURCE A015C003_160816_R1BY             A015C003_160816_ 060e2b340101010101010f00-13-00-00-00-{3b766e11-f038-56f6-060e2b347f7f2a80} 
*SOURCE FILE: A015C003_160816_R1BY
>>> SOURCE A015C004_160816_R1BY             A015C004_160816_ 060e2b340101010101010f00-13-00-00-00-{3b8d9f59-f038-d3e7-060e2b347f7f2a80} 
*SOURCE FILE: A015C004_160816_R1BY
>>> SOURCE A015C005_160816_R1BY             A015C005_160816_ 060e2b340101010101010f00-13-00-00-00-{3be1e863-f038-cdca-060e2b347f7f2a80} 
*SOURCE FILE: A015C005_160816_R1BY
>>> SOURCE A016C003_160816_R1BY             A016C003_160816_ 060e2b340101010101010f00-13-00-00-00-{3b1252a5-f038-5d42-060e2b347f7f2a80} 
*SOURCE FILE: A016C003_160816_R1BY
>>> SOURCE A017C002_160816_R1BY             A017C002_160816_ 060e2b340101010101010f00-13-00-00-00-{3b54588b-f038-1237-060e2b347f7f2a80} 
*SOURCE FILE: A017C002_160816_R1BY
>>> SOURCE A018C001_160816_R1BY             A018C001_160816_ 060e2b340101010101010f00-13-00-00-00-{3ba77792-f038-6f62-060e2b347f7f2a80} 
*SOURCE FILE: A018C001_160816_R1BY
>>> SOURCE A020C001_160817_R1BY             A020C001_160817_ 060e2b340101010101010f00-13-00-00-00-{3b4ad7a4-f038-ec06-060e2b347f7f2a80} 
*SOURCE FILE: A020C001_160817_R1BY
>>> SOURCE A021C001_160817_R1BY             A021C001_160817_ 060e2b340101010101010f00-13-00-00-00-{3bbd034f-f038-68e4-060e2b347f7f2a80} 
*SOURCE FILE: A021C001_160817_R1BY
>>> SOURCE A021C002_160817_R1BY             A021C002_160817_ 060e2b340101010101010f00-13-00-00-00-{3b0753f1-f038-e544-060e2b347f7f2a80} 
*SOURCE FILE: A021C002_160817_R1BY
>>> SOURCE A022C001_160817_R1BY             A022C001_160817_ 060e2b340101010101010f00-13-00-00-00-{3b3edf37-f038-5a13-060e2b347f7f2a80} 
*SOURCE FILE: A022C001_160817_R1BY
>>> SOURCE A022C005_160817_R1BY             A022C005_160817_ 060e2b340101010101010f00-13-00-00-00-{3bf2fd5b-f038-bd1b-060e2b347f7f2a80} 
*SOURCE FILE: A022C005_160817_R1BY
>>> SOURCE A022C008_160817_R1BY             A022C008_160817_ 060e2b340101010101010f00-13-00-00-00-{3b6b6001-f038-cdac-060e2b347f7f2a80} 
*SOURCE FILE: A022C008_160817_R1BY
>>> SOURCE A053C006_160819_R1BY             A053C006_160819_ 060e2b340101010101010f00-13-00-00-00-{3b9c4a84-f038-0394-060e2b347f7f2a80} 
*SOURCE FILE: A053C006_160819_R1BY
>>> SOURCE A054C003_160819_R1BY             A054C003_160819_ 060e2b340101010101010f00-13-00-00-00-{3bafcd85-f038-7625-060e2b347f7f2a80} 
*SOURCE FILE: A054C003_160819_R1BY
>>> SOURCE A054C004_160819_R1BY             A054C004_160819_ 060e2b340101010101010f00-13-00-00-00-{3befc40d-f038-9b88-060e2b347f7f2a80} 
*SOURCE FILE: A054C004_160819_R1BY
>>> SOURCE A054C005_160819_R1BY             A054C005_160819_ 060e2b340101010101010f00-13-00-00-00-{3b2600cd-f038-9050-060e2b347f7f2a80} 
*SOURCE FILE: A054C005_160819_R1BY
>>> SOURCE A055C004_160819_R1BY             A055C004_160819_ 060e2b340101010101010f00-13-00-00-00-{3bf43959-f038-60a5-060e2b347f7f2a80} 
*SOURCE FILE: A055C004_160819_R1BY
>>> SOURCE A056C001_160819_R1BY             A056C001_160819_ 060e2b340101010101010f00-13-00-00-00-{3be4531d-f038-bfd4-060e2b347f7f2a80} 
*SOURCE FILE: A056C001_160819_R1BY
>>> SOURCE A056C006_160819_R1BY             A056C006_160819_ 060e2b340101010101010f00-13-00-00-00-{3b33474c-f038-c8b0-060e2b347f7f2a80} 
*SOURCE FILE: A056C006_160819_R1BY
>>> SOURCE A056C007_160819_R1BY             A056C007_160819_ 060e2b340101010101010f00-13-00-00-00-{3b577dab-f038-20ef-060e2b347f7f2a80} 
*SOURCE FILE: A056C007_160819_R1BY
>>> SOURCE A056C012_160819_R1BY             A056C012_160819_ 060e2b340101010101010f00-13-00-00-00-{3b1449e6-f038-4dd0-060e2b347f7f2a80} 
*SOURCE FILE: A056C012_160819_R1BY
>>> SOURCE A057C002_160820_R1BY             A057C002_160820_ 060e2b340101010101010f00-13-00-00-00-{3b348222-f038-2bed-060e2b347f7f2a80} 
*SOURCE FILE: A057C002_160820_R1BY
>>> SOURCE A057C006_160820_R1BY             A057C006_160820_ 060e2b340101010101010f00-13-00-00-00-{3bb4a632-f038-912b-060e2b347f7f2a80} 
*SOURCE FILE: A057C006_160820_R1BY
>>> SOURCE A057C010_160820_R1BY             A057C010_160820_ 060e2b340101010101010f00-13-00-00-00-{3b4bbf64-f038-92d8-060e2b347f7f2a80} 
*SOURCE FILE: A057C010_160820_R1BY
>>> SOURCE A062C001_160822_R1BY             A062C001_160822_ 060e2b340101010101010f00-13-00-00-00-{3ba2555e-f038-79d0-060e2b347f7f2a80} 
*SOURCE FILE: A062C001_160822_R1BY
>>> SOURCE A062C003_160822_R1BY             A062C003_160822_ 060e2b340101010101010f00-13-00-00-00-{3b65bf38-f038-7c40-060e2b347f7f2a80} 
*SOURCE FILE: A062C003_160822_R1BY
>>> SOURCE A062C004_160822_R1BY             A062C004_160822_ 060e2b340101010101010f00-13-00-00-00-{3bdd334f-f038-8aa3-060e2b347f7f2a80} 
*SOURCE FILE: A062C004_160822_R1BY
>>> SOURCE A063C001_160822_R1BY             A063C001_160822_ 060e2b340101010101010f00-13-00-00-00-{3b93852b-f038-d5fc-060e2b347f7f2a80} 
*SOURCE FILE: A063C001_160822_R1BY
>>> SOURCE A063C002_160822_R1BY             A063C002_160822_ 060e2b340101010101010f00-13-00-00-00-{3bf5039d-f038-8edd-060e2b347f7f2a80} 
*SOURCE FILE: A063C002_160822_R1BY
>>> SOURCE A063C003_160822_R1BY             A063C003_160822_ 060e2b340101010101010f00-13-00-00-00-{3b641686-f038-88a0-060e2b347f7f2a80} 
*SOURCE FILE: A063C003_160822_R1BY
>>> SOURCE A063C005_160822_R1BY             A063C005_160822_ 060e2b340101010101010f00-13-00-00-00-{3b0616a8-f038-3fdf-060e2b347f7f2a80} 
*SOURCE FILE: A063C005_160822_R1BY
>>> SOURCE A064C001_160822_R1BY             A064C001_160822_ 060e2b340101010101010f00-13-00-00-00-{3ba79c66-f038-aadb-060e2b347f7f2a80} 
*SOURCE FILE: A064C001_160822_R1BY
>>> SOURCE A065C001_160822_R1BY             A065C001_160822_ 060e2b340101010101010f00-13-00-00-00-{3b1970f4-f038-e0b2-060e2b347f7f2a80} 
*SOURCE FILE: A065C001_160822_R1BY
>>> SOURCE A065C002_160822_R1BY             A065C002_160822_ 060e2b340101010101010f00-13-00-00-00-{3b726a47-f038-d07d-060e2b347f7f2a80} 
*SOURCE FILE: A065C002_160822_R1BY
>>> SOURCE A066C001_160822_R1BY             A066C001_160822_ 060e2b340101010101010f00-13-00-00-00-{3bd07e97-f038-387f-060e2b347f7f2a80} 
*SOURCE FILE: A066C001_160822_R1BY
>>> SOURCE A066C003_160822_R1BY             A066C003_160822_ 060e2b340101010101010f00-13-00-00-00-{3bfc9d32-f038-3e67-060e2b347f7f2a80} 
*SOURCE FILE: A066C003_160822_R1BY
>>> SOURCE A066C004_160822_R1BY             A066C004_160822_ 060e2b340101010101010f00-13-00-00-00-{3b50547a-f038-63ea-060e2b347f7f2a80} 
*SOURCE FILE: A066C004_160822_R1BY
>>> SOURCE A067C002_160822_R1BY             A067C002_160822_ 060e2b340101010101010f00-13-00-00-00-{3bbe4f1d-f038-0ad7-060e2b347f7f2a80} 
*SOURCE FILE: A067C002_160822_R1BY
>>> SOURCE A067C004_160822_R1BY             A067C004_160822_ 060e2b340101010101010f00-13-00-00-00-{3b00afe3-f038-f5aa-060e2b347f7f2a80} 
*SOURCE FILE: A067C004_160822_R1BY
>>> SOURCE A068C001_160823_R1BY             A068C001_160823_ 060e2b340101010101010f00-13-00-00-00-{3b8e6cec-f038-1320-060e2b347f7f2a80} 
*SOURCE FILE: A068C001_160823_R1BY
>>> SOURCE A068C006_160823_R1BY             A068C006_160823_ 060e2b340101010101010f00-13-00-00-00-{3b10ad4b-f038-d903-060e2b347f7f2a80} 
*SOURCE FILE: A068C006_160823_R1BY
>>> SOURCE A068C010_160823_R1BY             A068C010_160823_ 060e2b340101010101010f00-13-00-00-00-{3bbd63f0-f038-3803-060e2b347f7f2a80} 
*SOURCE FILE: A068C010_160823_R1BY
>>> SOURCE A070C002_160823_R1BY             A070C002_160823_ 060e2b340101010101010f00-13-00-00-00-{3bf9040d-f038-2789-060e2b347f7f2a80} 
*SOURCE FILE: A070C002_160823_R1BY
>>> SOURCE A070C003_160823_R1BY             A070C003_160823_ 060e2b340101010101010f00-13-00-00-00-{3b0e90a7-f038-9812-060e2b347f7f2a80} 
*SOURCE FILE: A070C003_160823_R1BY
>>> SOURCE A070C006_160823_R1BY             A070C006_160823_ 060e2b340101010101010f00-13-00-00-00-{3b79da3b-f038-dfce-060e2b347f7f2a80} 
*SOURCE FILE: A070C006_160823_R1BY
>>> SOURCE A071C001_160823_R1BY             A071C001_160823_ 060e2b340101010101010f00-13-00-00-00-{3b372e12-f038-4986-060e2b347f7f2a80} 
*SOURCE FILE: A071C001_160823_R1BY
>>> SOURCE A071C003_160823_R1BY             A071C003_160823_ 060e2b340101010101010f00-13-00-00-00-{3bb3790d-f038-ff79-060e2b347f7f2a80} 
*SOURCE FILE: A071C003_160823_R1BY
>>> SOURCE A071C004_160823_R1BY             A071C004_160823_ 060e2b340101010101010f00-13-00-00-00-{3b6fb2e0-f038-034a-060e2b347f7f2a80} 
*SOURCE FILE: A071C004_160823_R1BY
>>> SOURCE A072C003_160823_R1BY             A072C003_160823_ 060e2b340101010101010f00-13-00-00-00-{3bb64010-f038-d9e5-060e2b347f7f2a80} 
*SOURCE FILE: A072C003_160823_R1BY
>>> SOURCE A072C004_160823_R1BY             A072C004_160823_ 060e2b340101010101010f00-13-00-00-00-{3b3d5d25-f038-2aba-060e2b347f7f2a80} 
*SOURCE FILE: A072C004_160823_R1BY
>>> SOURCE A073C001_160823_R1BY             A073C001_160823_ 060e2b340101010101010f00-13-00-00-00-{3b2775aa-f038-bdd0-060e2b347f7f2a80} 
*SOURCE FILE: A073C001_160823_R1BY
>>> SOURCE A074C001_160823_R1BY             A074C001_160823_ 060e2b340101010101010f00-13-00-00-00-{3bb06f5c-f038-a872-060e2b347f7f2a80} 
*SOURCE FILE: A074C001_160823_R1BY
>>> SOURCE A074C002_160823_R1BY             A074C002_160823_ 060e2b340101010101010f00-13-00-00-00-{3b205ce0-f038-c167-060e2b347f7f2a80} 
*SOURCE FILE: A074C002_160823_R1BY
>>> SOURCE A076C001_160823_R1BY             A076C001_160823_ 060e2b340101010101010f00-13-00-00-00-{3b864584-f038-8cf8-060e2b347f7f2a80} 
*SOURCE FILE: A076C001_160823_R1BY
>>> SOURCE A076C002_160823_R1BY             A076C002_160823_ 060e2b340101010101010f00-13-00-00-00-{3bc66afb-f038-7271-060e2b347f7f2a80} 
*SOURCE FILE: A076C002_160823_R1BY
>>> SOURCE A076C005_160823_R1BY             A076C005_160823_ 060e2b340101010101010f00-13-00-00-00-{3bbcac18-f038-981a-060e2b347f7f2a80} 
*SOURCE FILE: A076C005_160823_R1BY
>>> SOURCE A077C002_160823_R1BY             A077C002_160823_ 060e2b340101010101010f00-13-00-00-00-{3b501a83-f038-d6a8-060e2b347f7f2a80} 
*SOURCE FILE: A077C002_160823_R1BY
>>> SOURCE A078C001_160823_R1BY             A078C001_160823_ 060e2b340101010101010f00-13-00-00-00-{3b6b5238-f038-2f12-060e2b347f7f2a80} 
*SOURCE FILE: A078C001_160823_R1BY
>>> SOURCE A078C002_160823_R1BY             A078C002_160823_ 060e2b340101010101010f00-13-00-00-00-{3be601a1-f038-bc01-060e2b347f7f2a80} 
*SOURCE FILE: A078C002_160823_R1BY
>>> SOURCE A188C004_160908_R1BY             A188C004_160908_ 060e2b340101010101010f00-13-00-00-00-{d812ad1d-f038-2375-060e2b347f7f2a80} 
*SOURCE FILE: A188C004_160908_R1BY
>>> SOURCE A192C008_160909_R1BY             A192C008_160909_ 060e2b340101010101010f00-13-00-00-00-{3b968c61-f038-43bc-060e2b347f7f2a80} 
*SOURCE FILE: A192C008_160909_R1BY
>>> SOURCE A204C003_160913_R1BY             A204C003_160913_ 060e2b340101010101010f00-13-00-00-00-{3b5bd90e-f038-534e-060e2b347f7f2a80} 
*SOURCE FILE: A204C003_160913_R1BY
>>> SOURCE A204C004_160913_R1BY             A204C004_160913_ 060e2b340101010101010f00-13-00-00-00-{3b82ef31-f038-444c-060e2b347f7f2a80} 
*SOURCE FILE: A204C004_160913_R1BY
>>> SOURCE A205C002_160913_R1BY             A205C002_160913_ 060e2b340101010101010f00-13-00-00-00-{3bb25c5e-f038-b7a3-060e2b347f7f2a80} 
*SOURCE FILE: A205C002_160913_R1BY
>>> SOURCE A205C004_160913_R1BY             A205C004_160913_ 060e2b340101010101010f00-13-00-00-00-{3b540f02-f038-ea8b-060e2b347f7f2a80} 
*SOURCE FILE: A205C004_160913_R1BY
>>> SOURCE A206C003_160913_R1BY             A206C003_160913_ 060e2b340101010101010f00-13-00-00-00-{3ba4d381-f038-9559-060e2b347f7f2a80} 
*SOURCE FILE: A206C003_160913_R1BY
>>> SOURCE A214C003_160914_R1BY             A214C003_160914_ 060e2b340101010101010f00-13-00-00-00-{3bfbbb0e-f038-bc19-060e2b347f7f2a80} 
*SOURCE FILE: A214C003_160914_R1BY
>>> SOURCE A214C006_160914_R1BY             A214C006_160914_ 060e2b340101010101010f00-13-00-00-00-{3b9c7ccf-f038-c86e-060e2b347f7f2a80} 
*SOURCE FILE: A214C006_160914_R1BY
>>> SOURCE A214C008_160914_R1BY             A214C008_160914_ 060e2b340101010101010f00-13-00-00-00-{3b3c10ad-f038-26e6-060e2b347f7f2a80} 
*SOURCE FILE: A214C008_160914_R1BY
>>> SOURCE A217C001_160914_R1BY             A217C001_160914_ 060e2b340101010101010f00-13-00-00-00-{3bee045a-f038-8b31-060e2b347f7f2a80} 
*SOURCE FILE: A217C001_160914_R1BY
>>> SOURCE A218C002_160914_R1BY             A218C002_160914_ 060e2b340101010101010f00-13-00-00-00-{3b6c8580-f038-6edf-060e2b347f7f2a80} 
*SOURCE FILE: A218C002_160914_R1BY
>>> SOURCE A219C001_160914_R1BY             A219C001_160914_ 060e2b340101010101010f00-13-00-00-00-{3bed059a-f038-040d-060e2b347f7f2a80} 
*SOURCE FILE: A219C001_160914_R1BY
>>> SOURCE A219C003_160914_R1BY             A219C003_160914_ 060e2b340101010101010f00-13-00-00-00-{3b488483-f038-d0d8-060e2b347f7f2a80} 
*SOURCE FILE: A219C003_160914_R1BY
>>> SOURCE A220C002_160914_R1BY             A220C002_160914_ 060e2b340101010101010f00-13-00-00-00-{3b85fe29-f038-a14c-060e2b347f7f2a80} 
*SOURCE FILE: A220C002_160914_R1BY
>>> SOURCE A220C004_160914_R1BY             A220C004_160914_ 060e2b340101010101010f00-13-00-00-00-{3bba3ad4-f038-d66b-060e2b347f7f2a80} 
*SOURCE FILE: A220C004_160914_R1BY
>>> SOURCE A220C006_160914_R1BY             A220C006_160914_ 060e2b340101010101010f00-13-00-00-00-{3b42e5ef-f038-c31b-060e2b347f7f2a80} 
*SOURCE FILE: A220C006_160914_R1BY
>>> SOURCE A220C007_160914_R1BY             A220C007_160914_ 060e2b340101010101010f00-13-00-00-00-{3b63a35b-f038-347d-060e2b347f7f2a80} 
*SOURCE FILE: A220C007_160914_R1BY
>>> SOURCE A220C009_160914_R1BY             A220C009_160914_ 060e2b340101010101010f00-13-00-00-00-{3bdf2bf6-f038-fd08-060e2b347f7f2a80} 
*SOURCE FILE: A220C009_160914_R1BY
>>> SOURCE A221C001_160914_R1BY             A221C001_160914_ 060e2b340101010101010f00-13-00-00-00-{3bc9973e-f038-f14e-060e2b347f7f2a80} 
*SOURCE FILE: A221C001_160914_R1BY
>>> SOURCE A221C002_160914_R1BY             A221C002_160914_ 060e2b340101010101010f00-13-00-00-00-{3b00210a-f038-b402-060e2b347f7f2a80} 
*SOURCE FILE: A221C002_160914_R1BY
>>> SOURCE A221C003_160914_R1BY             A221C003_160914_ 060e2b340101010101010f00-13-00-00-00-{3b3f6045-f038-b5ff-060e2b347f7f2a80} 
*SOURCE FILE: A221C003_160914_R1BY
>>> SOURCE A222C001_160914_R1BY             A222C001_160914_ 060e2b340101010101010f00-13-00-00-00-{3b9941cb-f038-d866-060e2b347f7f2a80} 
*SOURCE FILE: A222C001_160914_R1BY
>>> SOURCE A222C002_160914_R1BY             A222C002_160914_ 060e2b340101010101010f00-13-00-00-00-{3bd86e0c-f038-8fc5-060e2b347f7f2a80} 
*SOURCE FILE: A222C002_160914_R1BY
>>> SOURCE A223C001_160914_R1BY             A223C001_160914_ 060e2b340101010101010f00-13-00-00-00-{3b545edd-f038-1e8a-060e2b347f7f2a80} 
*SOURCE FILE: A223C001_160914_R1BY
>>> SOURCE A223C002_160914_R1BY             A223C002_160914_ 060e2b340101010101010f00-13-00-00-00-{3ba6fed3-f038-084a-060e2b347f7f2a80} 
*SOURCE FILE: A223C002_160914_R1BY
>>> SOURCE A224C001_160914_R1BY             A224C001_160914_ 060e2b340101010101010f00-13-00-00-00-{3bda71cb-f038-a36f-060e2b347f7f2a80} 
*SOURCE FILE: A224C001_160914_R1BY
>>> SOURCE A225C001_160915_R1BY             A225C001_160915_ 060e2b340101010101010f00-13-00-00-00-{3b680edc-f038-2db4-060e2b347f7f2a80} 
*SOURCE FILE: A225C001_160915_R1BY
>>> SOURCE BLUMHOUSE_PRODUCTIONS_2.40_PRORE BLUMHOUSE_PRODUC 060a2b340101010101010f00-13-00-00-00-{57f5e2a7-6212-02b8-060e2b347f7f2a80} 
*SOURCE FILE: BLUMHOUSE_PRODUCTIONS_2.40_PRORES.MOV
>>> SOURCE B009C001_160816_R16W             B009C001_160816_ 060e2b340101010101010f00-13-00-00-00-{3b05c720-f038-b43e-060e2b347f7f2a80} 
*SOURCE FILE: B009C001_160816_R16W
>>> SOURCE B011C006_160816_R16W             B011C006_160816_ 060e2b340101010101010f00-13-00-00-00-{3bbdc5ba-f038-a46d-060e2b347f7f2a80} 
*SOURCE FILE: B011C006_160816_R16W
>>> SOURCE B011C007_160816_R16W             B011C007_160816_ 060e2b340101010101010f00-13-00-00-00-{3bf8d8d5-f038-77fd-060e2b347f7f2a80} 
*SOURCE FILE: B011C007_160816_R16W
>>> SOURCE B012C001_160816_R16W             B012C001_160816_ 060e2b340101010101010f00-13-00-00-00-{3b006106-f038-7ef8-060e2b347f7f2a80} 
*SOURCE FILE: B012C001_160816_R16W
>>> SOURCE B013C001_160816_R16W             B013C001_160816_ 060e2b340101010101010f00-13-00-00-00-{3b5bffed-f038-a50c-060e2b347f7f2a80} 
*SOURCE FILE: B013C001_160816_R16W
>>> SOURCE B014C002_160816_R16W             B014C002_160816_ 060e2b340101010101010f00-13-00-00-00-{3b0ff063-f038-377d-060e2b347f7f2a80} 
*SOURCE FILE: B014C002_160816_R16W
>>> SOURCE B014C005_160816_R16W             B014C005_160816_ 060e2b340101010101010f00-13-00-00-00-{3ba66e9f-f038-d4db-060e2b347f7f2a80} 
*SOURCE FILE: B014C005_160816_R16W
>>> SOURCE B014C006_160816_R16W             B014C006_160816_ 060e2b340101010101010f00-13-00-00-00-{3bc7c380-f038-ad17-060e2b347f7f2a80} 
*SOURCE FILE: B014C006_160816_R16W
>>> SOURCE B015C001_160816_R16W             B015C001_160816_ 060e2b340101010101010f00-13-00-00-00-{3bed0eb7-f038-ff7b-060e2b347f7f2a80} 
*SOURCE FILE: B015C001_160816_R16W
>>> SOURCE B031C004_160819_R16W             B031C004_160819_ 060e2b340101010101010f00-13-00-00-00-{3b31bcb3-f038-ab0b-060e2b347f7f2a80} 
*SOURCE FILE: B031C004_160819_R16W
>>> SOURCE B032C002_160819_R16W             B032C002_160819_ 060e2b340101010101010f00-13-00-00-00-{3bbd984c-f038-2c6b-060e2b347f7f2a80} 
*SOURCE FILE: B032C002_160819_R16W
>>> SOURCE B033C004_160819_R16W             B033C004_160819_ 060e2b340101010101010f00-13-00-00-00-{3b9304f2-f038-4673-060e2b347f7f2a80} 
*SOURCE FILE: B033C004_160819_R16W
>>> SOURCE B033C005_160819_R16W             B033C005_160819_ 060e2b340101010101010f00-13-00-00-00-{3be2be2d-f038-898e-060e2b347f7f2a80} 
*SOURCE FILE: B033C005_160819_R16W
>>> SOURCE B033C008_160819_R16W             B033C008_160819_ 060e2b340101010101010f00-13-00-00-00-{3b4a23c4-f038-e0c6-060e2b347f7f2a80} 
*SOURCE FILE: B033C008_160819_R16W
>>> SOURCE B033C009_160819_R16W             B033C009_160819_ 060e2b340101010101010f00-13-00-00-00-{3b744fa6-f038-0608-060e2b347f7f2a80} 
*SOURCE FILE: B033C009_160819_R16W
>>> SOURCE B034C004_160819_R16W             B034C004_160819_ 060e2b340101010101010f00-13-00-00-00-{3b25f4e3-f038-94b2-060e2b347f7f2a80} 
*SOURCE FILE: B034C004_160819_R16W
>>> SOURCE B034C005_160819_R16W             B034C005_160819_ 060e2b340101010101010f00-13-00-00-00-{3b7cc0ba-f038-e50c-060e2b347f7f2a80} 
*SOURCE FILE: B034C005_160819_R16W
>>> SOURCE B034C007_160819_R16W             B034C007_160819_ 060e2b340101010101010f00-13-00-00-00-{3bba7531-f038-c19b-060e2b347f7f2a80} 
*SOURCE FILE: B034C007_160819_R16W
>>> SOURCE B035C001_160820_R16W             B035C001_160820_ 060e2b340101010101010f00-13-00-00-00-{3bd4061e-f038-c8d8-060e2b347f7f2a80} 
*SOURCE FILE: B035C001_160820_R16W
>>> SOURCE B035C003_160820_R16W             B035C003_160820_ 060e2b340101010101010f00-13-00-00-00-{3b0a5667-f038-e9d9-060e2b347f7f2a80} 
*SOURCE FILE: B035C003_160820_R16W
>>> SOURCE B035C004_160820_R16W             B035C004_160820_ 060e2b340101010101010f00-13-00-00-00-{3b359d4b-f038-1264-060e2b347f7f2a80} 
*SOURCE FILE: B035C004_160820_R16W
>>> SOURCE B039C004_160822_R16W             B039C004_160822_ 060e2b340101010101010f00-13-00-00-00-{3b969a0e-f038-aea4-060e2b347f7f2a80} 
*SOURCE FILE: B039C004_160822_R16W
>>> SOURCE B040C002_160822_R16W             B040C002_160822_ 060e2b340101010101010f00-13-00-00-00-{3ba9da5c-f038-8dfb-060e2b347f7f2a80} 
*SOURCE FILE: B040C002_160822_R16W
>>> SOURCE B040C003_160822_R16W             B040C003_160822_ 060e2b340101010101010f00-13-00-00-00-{3b3bf423-f038-41d8-060e2b347f7f2a80} 
*SOURCE FILE: B040C003_160822_R16W
>>> SOURCE B043C001_160823_R16W             B043C001_160823_ 060e2b340101010101010f00-13-00-00-00-{3bddf98b-f038-04fd-060e2b347f7f2a80} 
*SOURCE FILE: B043C001_160823_R16W
>>> SOURCE B043C003_160823_R16W             B043C003_160823_ 060e2b340101010101010f00-13-00-00-00-{3b3c331e-f038-9444-060e2b347f7f2a80} 
*SOURCE FILE: B043C003_160823_R16W
>>> SOURCE B043C004_160823_R16W             B043C004_160823_ 060e2b340101010101010f00-13-00-00-00-{3b1a83da-f038-f606-060e2b347f7f2a80} 
*SOURCE FILE: B043C004_160823_R16W
>>> SOURCE B043C007_160823_R16W             B043C007_160823_ 060e2b340101010101010f00-13-00-00-00-{3b869b11-f038-9490-060e2b347f7f2a80} 
*SOURCE FILE: B043C007_160823_R16W
>>> SOURCE B044C003_160823_R16W             B044C003_160823_ 060e2b340101010101010f00-13-00-00-00-{3bf72e55-f038-cece-060e2b347f7f2a80} 
*SOURCE FILE: B044C003_160823_R16W
>>> SOURCE B045C005_160823_R16W             B045C005_160823_ 060e2b340101010101010f00-13-00-00-00-{3b4312f7-f038-7143-060e2b347f7f2a80} 
*SOURCE FILE: B045C005_160823_R16W
>>> SOURCE B046C001_160823_R16W             B046C001_160823_ 060e2b340101010101010f00-13-00-00-00-{3b0128a0-f038-4324-060e2b347f7f2a80} 
*SOURCE FILE: B046C001_160823_R16W
>>> SOURCE B047C001_160823_R16W             B047C001_160823_ 060e2b340101010101010f00-13-00-00-00-{3b3aa98e-f038-8e2b-060e2b347f7f2a80} 
*SOURCE FILE: B047C001_160823_R16W
>>> SOURCE B047C002_160823_R16W             B047C002_160823_ 060e2b340101010101010f00-13-00-00-00-{3bb519bd-f038-c24c-060e2b347f7f2a80} 
*SOURCE FILE: B047C002_160823_R16W
>>> SOURCE B048C001_160823_R16W             B048C001_160823_ 060e2b340101010101010f00-13-00-00-00-{3ba2d152-f038-54cd-060e2b347f7f2a80} 
*SOURCE FILE: B048C001_160823_R16W
>>> SOURCE B048C004_160823_R16W             B048C004_160823_ 060e2b340101010101010f00-13-00-00-00-{3bac3f97-f038-de3b-060e2b347f7f2a80} 
*SOURCE FILE: B048C004_160823_R16W
>>> SOURCE B048C006_160823_R16W             B048C006_160823_ 060e2b340101010101010f00-13-00-00-00-{3be791b0-f038-cc15-060e2b347f7f2a80} 
*SOURCE FILE: B048C006_160823_R16W
>>> SOURCE B049C003_160823_R16W             B049C003_160823_ 060e2b340101010101010f00-13-00-00-00-{3b6096e8-f038-5ba9-060e2b347f7f2a80} 
*SOURCE FILE: B049C003_160823_R16W
>>> SOURCE B049C004_160823_R16W             B049C004_160823_ 060e2b340101010101010f00-13-00-00-00-{3bd67672-f038-e3aa-060e2b347f7f2a80} 
*SOURCE FILE: B049C004_160823_R16W
>>> SOURCE B049C005_160823_R16W             B049C005_160823_ 060e2b340101010101010f00-13-00-00-00-{3b16b1a0-f038-357f-060e2b347f7f2a80} 
*SOURCE FILE: B049C005_160823_R16W
>>> SOURCE B049C006_160823_R16W             B049C006_160823_ 060e2b340101010101010f00-13-00-00-00-{3b754731-f038-522d-060e2b347f7f2a80} 
*SOURCE FILE: B049C006_160823_R16W
>>> SOURCE B148C008_160909_R16W             B148C008_160909_ 060e2b340101010101010f00-13-00-00-00-{3b3ef1f8-f038-5eb4-060e2b347f7f2a80} 
*SOURCE FILE: B148C008_160909_R16W
>>> SOURCE B158C005_160913_R16W             B158C005_160913_ 060e2b340101010101010f00-13-00-00-00-{3b2bedec-f038-1568-060e2b347f7f2a80} 
*SOURCE FILE: B158C005_160913_R16W
>>> SOURCE B159C001_160913_R16W             B159C001_160913_ 060e2b340101010101010f00-13-00-00-00-{3bfb5cbc-f038-75c6-060e2b347f7f2a80} 
*SOURCE FILE: B159C001_160913_R16W
>>> SOURCE B159C003_160913_R16W             B159C003_160913_ 060e2b340101010101010f00-13-00-00-00-{3b670d8e-f038-f529-060e2b347f7f2a80} 
*SOURCE FILE: B159C003_160913_R16W
>>> SOURCE B159C004_160913_R16W             B159C004_160913_ 060e2b340101010101010f00-13-00-00-00-{3bd0756b-f038-ee05-060e2b347f7f2a80} 
*SOURCE FILE: B159C004_160913_R16W
>>> SOURCE B159C005_160913_R16W             B159C005_160913_ 060e2b340101010101010f00-13-00-00-00-{3bf4ffaf-f038-cfc8-060e2b347f7f2a80} 
*SOURCE FILE: B159C005_160913_R16W
>>> SOURCE B159C006_160913_R16W             B159C006_160913_ 060e2b340101010101010f00-13-00-00-00-{3b3f39f7-f038-6470-060e2b347f7f2a80} 
*SOURCE FILE: B159C006_160913_R16W
>>> SOURCE B160C003_160913_R16W             B160C003_160913_ 060e2b340101010101010f00-13-00-00-00-{3bd790d5-f038-d086-060e2b347f7f2a80} 
*SOURCE FILE: B160C003_160913_R16W
>>> SOURCE B165C003_160914_R16W             B165C003_160914_ 060e2b340101010101010f00-13-00-00-00-{3b626db4-f038-c28f-060e2b347f7f2a80} 
*SOURCE FILE: B165C003_160914_R16W
>>> SOURCE B166C003_160914_R16W             B166C003_160914_ 060e2b340101010101010f00-13-00-00-00-{3b35ed24-f038-64f2-060e2b347f7f2a80} 
*SOURCE FILE: B166C003_160914_R16W
>>> SOURCE B167C003_160914_R16W             B167C003_160914_ 060e2b340101010101010f00-13-00-00-00-{3b18b863-f038-6188-060e2b347f7f2a80} 
*SOURCE FILE: B167C003_160914_R16W
>>> SOURCE B167C004_160914_R16W             B167C004_160914_ 060e2b340101010101010f00-13-00-00-00-{3b73a2fc-f038-5088-060e2b347f7f2a80} 
*SOURCE FILE: B167C004_160914_R16W
>>> SOURCE B168C003_160914_R16W             B168C003_160914_ 060e2b340101010101010f00-13-00-00-00-{3b51c1dd-f038-3653-060e2b347f7f2a80} 
*SOURCE FILE: B168C003_160914_R16W
>>> SOURCE B168C004_160914_R16W             B168C004_160914_ 060e2b340101010101010f00-13-00-00-00-{3b7b4d0d-f038-5c8e-060e2b347f7f2a80} 
*SOURCE FILE: B168C004_160914_R16W
>>> SOURCE B169C002_160914_R16W             B169C002_160914_ 060e2b340101010101010f00-13-00-00-00-{3b0c8bd9-f038-bb53-060e2b347f7f2a80} 
*SOURCE FILE: B169C002_160914_R16W
>>> SOURCE B169C005_160914_R16W             B169C005_160914_ 060e2b340101010101010f00-13-00-00-00-{3bc643d6-f038-67f8-060e2b347f7f2a80} 
*SOURCE FILE: B169C005_160914_R16W
>>> SOURCE B170C001_160914_R16W             B170C001_160914_ 060e2b340101010101010f00-13-00-00-00-{3b51169e-f038-30f5-060e2b347f7f2a80} 
*SOURCE FILE: B170C001_160914_R16W
>>> SOURCE B170C002_160914_R16W             B170C002_160914_ 060e2b340101010101010f00-13-00-00-00-{3b80dcc3-f038-1255-060e2b347f7f2a80} 
*SOURCE FILE: B170C002_160914_R16W
>>> SOURCE B171C001_160914_R16W             B171C001_160914_ 060e2b340101010101010f00-13-00-00-00-{3b17ac7d-f038-e8b6-060e2b347f7f2a80} 
*SOURCE FILE: B171C001_160914_R16W
>>> SOURCE B171C003_160914_R16W             B171C003_160914_ 060e2b340101010101010f00-13-00-00-00-{3bbb3064-f038-dd3d-060e2b347f7f2a80} 
*SOURCE FILE: B171C003_160914_R16W
>>> SOURCE B171C004_160914_R16W             B171C004_160914_ 060e2b340101010101010f00-13-00-00-00-{3bd0fbda-f038-6550-060e2b347f7f2a80} 
*SOURCE FILE: B171C004_160914_R16W
>>> SOURCE INSIDIOUS_T00                    INSIDIOUS_T00 060a2b340101010101010f00-13-a1-00-00-{eeda4fdf-7a95-4b29-9ed0f3694b9f8449} 
*SOURCE FILE: INSIDIOUS_T00
>>> SOURCE UNILOGO_2012_S235_MONO_DNX175X.M UNILOGO_2012_S23 060a2b340101010101010f00-13-00-00-00-{57f6c0ff-e959-061c-060e2b347f7f2a80} 
*SOURCE FILE: UNILOGO_2012_S235_MONO_DNX175X.MOV
>>> SOURCE FKI_LEADER_HEAD_1920X1080.MOV    FKI_LEADER_HEAD_ 060a2b340101010101010f00-13-00-00-00-{55df78c8-a570-0107-060e2b347f7f2a80} 
*SOURCE FILE: FKI_LEADER_HEAD_1920X1080.MOV
>>> SOURCE FKI_LEADER_TAIL_1920X1080.MOV    FKI_LEADER_TAIL_ 060a2b340101010101010f00-13-00-00-00-{55df78ca-acc3-0107-060e2b347f7f2a80} 
*SOURCE FILE: FKI_LEADER_TAIL_1920X1080.MOV