TITLE:   INS4_R3_092117 
FCM: NON-DROP FRAME
001  FKI_LEAD A     C        00:00:00:00 00:00:00:00 03:00:00:00 03:00:08:00 
* FROM CLIP NAME:  FKI_LEADER_HEAD_1920X1080.MOV 
* SOURCE FILE: FKI_LEADER_HEAD_1920X1080.MOV
002  FKI_LEAD A2    C        00:00:00:00 00:00:00:00 03:00:00:00 03:00:08:00 
* FROM CLIP NAME:  FKI_LEADER_HEAD_1920X1080.MOV 
* SOURCE FILE: FKI_LEADER_HEAD_1920X1080.MOV
003  FKI_LEAD A3    C        00:00:00:00 00:00:00:00 03:00:00:00 03:00:08:00 
* FROM CLIP NAME:  FKI_LEADER_HEAD_1920X1080.MOV 
* PATCH FKI_LEAD:  FROM SOURCE 1 TO RECORD 3 
* SOURCE FILE: FKI_LEADER_HEAD_1920X1080.MOV
004  SR009    A2    C        09:28:28:16 09:28:31:22 03:00:08:00 03:00:11:05 
* FROM CLIP NAME:  67-2A 
* PATCH SR009:  FROM SOURCE 1 TO RECORD 2 
* SOURCE FILE: A091C006_160825_R1BY
005  TEMP_ADR A3    C        00:00:00:00 00:00:00:00 03:00:09:10 03:00:11:05 
* FROM CLIP NAME:  I BROUGHT MY SCARF_ADDITIONAL 
* PATCH TEMP_ADR:  FROM SOURCE 1 TO RECORD 3 
* SOURCE FILE: TEMP ADR
006  SR009    A2    C        09:28:31:14 09:28:32:03 03:00:11:05 03:00:11:17 
* FROM CLIP NAME:  67-2A 
* TO CLIP NAME:  67-2A 
* PATCH SR009:  FROM SOURCE 1 TO RECORD 2 
* PATCH SR009:  FROM SOURCE 1 TO RECORD 2 
* SOURCE FILE: A091C006_160825_R1BY
007  SR009    A     C        15:57:46:04 15:57:58:11 03:00:11:05 03:00:23:11 
* FROM CLIP NAME:  68-2A 
* SOURCE FILE: A091C006_160825_R1BY
008  SR009    A2    C        09:28:32:02 09:28:36:17 03:00:11:17 03:00:16:07 
* FROM CLIP NAME:  67-2A 
* PATCH SR009:  FROM SOURCE 1 TO RECORD 2 
* SOURCE FILE: A091C006_160825_R1BY
009  SR009    A     C        17:35:33:20 17:35:42:15 03:00:23:11 03:00:32:05 
* FROM CLIP NAME:  68A-4A 
* SOURCE FILE: A091C006_160825_R1BY
010  SR009    A     C        17:35:30:18 17:35:32:01 03:00:32:05 03:00:33:11 
* FROM CLIP NAME:  68A-4A 
* SOURCE FILE: A091C006_160825_R1BY
011  SR009    A     C        18:45:10:16 18:45:13:16 03:00:33:11 03:00:36:10 
* FROM CLIP NAME:  68C-2A 
* SOURCE FILE: A091C006_160825_R1BY
012  SR009    A     C        17:35:46:03 17:35:55:07 03:00:36:10 03:00:45:13 
* FROM CLIP NAME:  68A-4A 
* SOURCE FILE: A091C006_160825_R1BY
013  SR009    A     C        18:45:29:07 18:45:31:23 03:00:45:13 03:00:48:04 
* FROM CLIP NAME:  68C-2A 
* SOURCE FILE: A091C006_160825_R1BY
014  SR009    A     C        17:35:58:12 17:35:59:23 03:00:48:04 03:00:49:14 
* FROM CLIP NAME:  68A-4A 
* SOURCE FILE: A091C006_160825_R1BY
015  SR009    A2    C        18:28:42:09 18:28:45:09 03:00:49:04 03:00:52:03 
* FROM CLIP NAME:  68B-2A 
* PATCH SR009:  FROM SOURCE 1 TO RECORD 2 
* SOURCE FILE: A091C006_160825_R1BY
016  SR009    A     C        16:34:50:00 16:34:52:01 03:00:52:03 03:00:54:03 
* FROM CLIP NAME:  68-6A 
* SOURCE FILE: A091C006_160825_R1BY
017  SR009    A     C        17:36:07:00 17:36:10:03 03:00:54:03 03:00:57:05 
* FROM CLIP NAME:  68A-4A 
* SOURCE FILE: A091C006_160825_R1BY
018  SR009    A     C        17:36:11:09 17:36:12:17 03:00:57:05 03:00:58:12 
* FROM CLIP NAME:  68A-4A 
* SOURCE FILE: A091C006_160825_R1BY
019  SR009    A     C        17:36:12:13 17:36:14:23 03:00:58:12 03:01:00:21 
* FROM CLIP NAME:  68A-4A 
* SOURCE FILE: A091C006_160825_R1BY
020  SR009    A     C        18:22:04:00 18:22:05:19 03:01:00:21 03:01:02:15 
* FROM CLIP NAME:  68B-1A 
* SOURCE FILE: A091C006_160825_R1BY
021  SR009    A     C        17:36:18:02 17:36:20:05 03:01:02:15 03:01:04:17 
* FROM CLIP NAME:  68A-4A 
* SOURCE FILE: A091C006_160825_R1BY
022  SR009    A     C        17:36:19:23 17:36:21:19 03:01:04:17 03:01:06:12 
* FROM CLIP NAME:  68A-4A 
* SOURCE FILE: A091C006_160825_R1BY
023  SR009    A2    C        18:38:46:14 18:38:47:17 03:01:05:10 03:01:06:12 
* FROM CLIP NAME:  68C-1A 
* PATCH SR009:  FROM SOURCE 1 TO RECORD 2 
* SOURCE FILE: A091C006_160825_R1BY
024  SR009    A2    C        18:38:48:07 18:38:49:12 03:01:06:12 03:01:07:16 
* FROM CLIP NAME:  68C-1A 
* PATCH SR009:  FROM SOURCE 1 TO RECORD 2 
* SOURCE FILE: A091C006_160825_R1BY
025  SR009    A     C        17:36:27:10 17:36:39:16 03:01:07:12 03:01:19:17 
* FROM CLIP NAME:  68A-4A 
* SOURCE FILE: A091C006_160825_R1BY
026  SR009    A     C        17:36:40:21 17:36:43:07 03:01:19:17 03:01:22:02 
* FROM CLIP NAME:  68A-4A 
* SOURCE FILE: A091C006_160825_R1BY
027  SR009    A     C        18:29:32:03 18:29:33:00 03:01:22:02 03:01:22:22 
* FROM CLIP NAME:  68B-2A 
* SOURCE FILE: A091C006_160825_R1BY
028  SR009    A     C        18:29:33:00 18:29:33:03 03:01:22:22 03:01:23:00 
* FROM CLIP NAME:  68B-2A 
* SOURCE FILE: A091C006_160825_R1BY
029  SR009    A     C        17:36:20:18 17:36:21:18 03:01:23:00 03:01:23:23 
* FROM CLIP NAME:  68A-4A 
* SOURCE FILE: A091C006_160825_R1BY
030  SR009    A     C        17:36:44:01 17:36:45:16 03:01:23:23 03:01:25:13 
* FROM CLIP NAME:  68A-4A 
* SOURCE FILE: A091C006_160825_R1BY
031  SR009    A     C        17:36:46:09 17:36:48:18 03:01:25:13 03:01:27:21 
* FROM CLIP NAME:  68A-4A 
* SOURCE FILE: A091C006_160825_R1BY
032  SR009    A2    C        18:29:37:06 18:29:39:15 03:01:27:21 03:01:30:05 
* FROM CLIP NAME:  68B-2A 
* PATCH SR009:  FROM SOURCE 1 TO RECORD 2 
* SOURCE FILE: A091C006_160825_R1BY
033  SR009    A     C        16:35:48:05 16:35:54:19 03:01:29:14 03:01:36:03 
* FROM CLIP NAME:  68-6A 
* SOURCE FILE: A091C006_160825_R1BY
034  SR009    A     C        16:35:56:05 16:36:00:09 03:01:36:03 03:01:40:06 
* FROM CLIP NAME:  68-6A 
* SOURCE FILE: A091C006_160825_R1BY
035  SR009    A     C        18:23:04:04 18:23:07:09 03:01:40:06 03:01:43:10 
* FROM CLIP NAME:  68B-1A 
* SOURCE FILE: A091C006_160825_R1BY
036  SR009    A     C        16:36:04:18 16:36:10:11 03:01:43:10 03:01:49:02 
* FROM CLIP NAME:  68-6A 
* SOURCE FILE: A091C006_160825_R1BY
037  SR009    A     C        18:23:13:19 18:23:18:03 03:01:49:02 03:01:53:09 
* FROM CLIP NAME:  68B-1A 
* SOURCE FILE: A091C006_160825_R1BY
038  SR009    A     C        18:23:18:02 18:23:19:13 03:01:53:09 03:01:54:19 
* FROM CLIP NAME:  68B-1A 
* SOURCE FILE: A091C006_160825_R1BY
039  SR009    A     C        16:36:16:08 16:36:19:03 03:01:54:19 03:01:57:13 
* FROM CLIP NAME:  68-6A 
* SOURCE FILE: A091C006_160825_R1BY
040  SR009    A     C        19:23:06:09 19:23:13:15 03:01:57:13 03:02:04:18 
* FROM CLIP NAME:  68D-2A 
* SOURCE FILE: A091C006_160825_R1BY
041  SR009    A     C        17:25:35:05 17:25:38:01 03:02:04:18 03:02:07:13 
* FROM CLIP NAME:  68A-3A 
* SOURCE FILE: A091C006_160825_R1BY
042  SR009    A     C        19:23:17:00 19:23:19:06 03:02:07:13 03:02:09:18 
* FROM CLIP NAME:  68D-2A 
* SOURCE FILE: A091C006_160825_R1BY
043  SR009    A     C        18:30:27:08 18:30:28:21 03:02:09:18 03:02:11:06 
* FROM CLIP NAME:  68B-2A 
* SOURCE FILE: A091C006_160825_R1BY
044  SR009    A     C        19:23:26:20 19:23:28:12 03:02:11:06 03:02:12:21 
* FROM CLIP NAME:  68D-2A 
* SOURCE FILE: A091C006_160825_R1BY
045  SR009    A     C        17:12:35:12 17:12:38:06 03:02:12:21 03:02:15:14 
* FROM CLIP NAME:  68A-2A 
* SOURCE FILE: A091C006_160825_R1BY
046  SR009    A     C        19:23:29:16 19:23:29:21 03:02:15:14 03:02:15:18 
* FROM CLIP NAME:  68D-2A 
* TO CLIP NAME:  68A-2A 
* SOURCE FILE: A091C006_160825_R1BY
047  SR009    A     C        19:23:29:20 19:23:31:05 03:02:15:18 03:02:17:02 
* FROM CLIP NAME:  68D-2A 
* SOURCE FILE: A091C006_160825_R1BY
048  SR009    A     C        19:23:33:05 19:23:36:00 03:02:17:02 03:02:19:20 
* FROM CLIP NAME:  68D-2A 
* SOURCE FILE: A091C006_160825_R1BY
049  SR009    A     C        17:37:44:03 17:37:47:08 03:02:19:20 03:02:23:00 
* FROM CLIP NAME:  68A-4A 
* SOURCE FILE: A091C006_160825_R1BY
050  SR009    A     C        19:23:40:20 19:23:41:01 03:02:23:00 03:02:23:04 
* FROM CLIP NAME:  68D-2A 
* TO CLIP NAME:  68A-4A 
* SOURCE FILE: A091C006_160825_R1BY
051  SR009    A     C        19:23:41:00 19:23:48:11 03:02:23:04 03:02:30:14 
* FROM CLIP NAME:  68D-2A 
* SOURCE FILE: A091C006_160825_R1BY
052  SR009    A     C        17:37:53:21 17:37:57:07 03:02:30:14 03:02:33:23 
* FROM CLIP NAME:  68A-4A 
* SOURCE FILE: A091C006_160825_R1BY
053  SR009    A     C        19:19:50:13 19:19:50:18 03:02:33:23 03:02:34:03 
* FROM CLIP NAME:  68D-1A 
* TO CLIP NAME:  68A-4A 
* SOURCE FILE: A091C006_160825_R1BY
054  SR009    A     C        19:19:50:17 19:19:51:07 03:02:34:03 03:02:34:16 
* FROM CLIP NAME:  68D-1A 
* SOURCE FILE: A091C006_160825_R1BY
055  SR009    A     C        19:19:51:12 19:19:52:08 03:02:34:16 03:02:35:11 
* FROM CLIP NAME:  68D-1A 
* SOURCE FILE: A091C006_160825_R1BY
056  SR009    A     C        19:19:55:02 19:19:58:06 03:02:35:11 03:02:38:14 
* FROM CLIP NAME:  68D-1A 
* SOURCE FILE: A091C006_160825_R1BY
057  SR009    A     C        17:26:17:21 17:26:19:23 03:02:38:14 03:02:40:15 
* FROM CLIP NAME:  68A-3A 
* SOURCE FILE: A091C006_160825_R1BY
058  SR009    A     C        18:47:56:07 18:47:57:12 03:02:40:15 03:02:41:19 
* FROM CLIP NAME:  68C-2A 
* SOURCE FILE: A091C006_160825_R1BY
059  SR009    A2    C        17:26:24:09 17:26:25:12 03:02:41:19 03:02:42:21 
* FROM CLIP NAME:  68A-3A 
* PATCH SR009:  FROM SOURCE 1 TO RECORD 2 
* SOURCE FILE: A091C006_160825_R1BY
060  SR009    A     C        19:24:10:05 19:24:10:15 03:02:42:21 03:02:43:06 
* FROM CLIP NAME:  68D-2A 
* SOURCE FILE: A091C006_160825_R1BY
061  SR009    A     C        19:24:10:22 19:24:12:07 03:02:43:06 03:02:44:14 
* FROM CLIP NAME:  68D-2A 
* SOURCE FILE: A091C006_160825_R1BY
062  SR009    A2    C        16:25:33:01 16:25:34:21 03:02:44:08 03:02:46:03 
* FROM CLIP NAME:  68-4A 
* PATCH SR009:  FROM SOURCE 1 TO RECORD 2 
* SOURCE FILE: A091C006_160825_R1BY
063  SR009    A     C        17:26:35:15 17:26:37:16 03:02:45:23 03:02:47:23 
* FROM CLIP NAME:  68A-3A 
* SOURCE FILE: A091C006_160825_R1BY
064  SR009    A     C        17:26:38:09 17:26:55:01 03:02:47:23 03:03:04:14 
* FROM CLIP NAME:  68A-3A 
* SOURCE FILE: A091C006_160825_R1BY
065  SR009    A2    C        19:20:43:00 19:20:45:09 03:03:04:09 03:03:06:17 
* FROM CLIP NAME:  68D-1A 
* PATCH SR009:  FROM SOURCE 1 TO RECORD 2 
* SOURCE FILE: A091C006_160825_R1BY
066  SR009    A     C        17:38:55:12 17:38:57:16 03:03:04:14 03:03:06:17 
* FROM CLIP NAME:  68A-4A 
* SOURCE FILE: A091C006_160825_R1BY
067  SR009    A2    C        19:20:45:19 19:20:49:01 03:03:06:17 03:03:09:22 
* FROM CLIP NAME:  68D-1A 
* PATCH SR009:  FROM SOURCE 1 TO RECORD 2 
* SOURCE FILE: A091C006_160825_R1BY
068  SR009    A     C        17:38:58:02 17:39:02:07 03:03:06:17 03:03:10:21 
* FROM CLIP NAME:  68A-4A 
* SOURCE FILE: A091C006_160825_R1BY
069  SR009    A2    C        19:20:49:00 19:20:51:06 03:03:09:22 03:03:12:03 
* FROM CLIP NAME:  68D-1A 
* PATCH SR009:  FROM SOURCE 1 TO RECORD 2 
* SOURCE FILE: A091C006_160825_R1BY
070  SR009    A     C        17:39:04:12 17:39:05:12 03:03:10:21 03:03:11:20 
* FROM CLIP NAME:  68A-4A 
* SOURCE FILE: A091C006_160825_R1BY
071  SR009    A     C        19:21:09:14 19:21:10:14 03:03:11:20 03:03:12:19 
* FROM CLIP NAME:  68D-1A 
* SOURCE FILE: A091C006_160825_R1BY
072  SR009    A     C        19:21:11:14 19:21:12:07 03:03:12:19 03:03:13:11 
* FROM CLIP NAME:  68D-1A 
* SOURCE FILE: A091C006_160825_R1BY
073  SR009    A     C        17:39:04:21 17:39:09:05 03:03:13:11 03:03:17:18 
* FROM CLIP NAME:  68A-4A 
* SOURCE FILE: A091C006_160825_R1BY
074  SR009    A     C        18:48:53:17 18:48:55:21 03:03:17:18 03:03:19:21 
* FROM CLIP NAME:  68C-2A 
* SOURCE FILE: A091C006_160825_R1BY
075  SR009    A2    C        11:02:24:16 11:02:40:07 03:03:19:03 03:03:34:17 
* FROM CLIP NAME:  69-1 
* PATCH SR009:  FROM SOURCE 1 TO RECORD 2 
* SOURCE FILE: A091C006_160825_R1BY
076  SR009    A     C        18:48:56:08 18:48:57:03 03:03:21:15 03:03:22:09 
* FROM CLIP NAME:  68C-2A 
* SOURCE FILE: A091C006_160825_R1BY
077  SR009    A     C        12:34:38:21 12:34:51:03 03:03:23:21 03:03:36:02 
* FROM CLIP NAME:  69B-3A 
* SOURCE FILE: A091C006_160825_R1BY
078  SR009    A2    C        12:34:53:15 12:34:54:05 03:03:34:22 03:03:35:11 
* FROM CLIP NAME:  69B-3A 
* PATCH SR009:  FROM SOURCE 1 TO RECORD 2 
* SOURCE FILE: A091C006_160825_R1BY
079  SR009    A2    C        11:02:49:01 11:02:49:04 03:03:35:11 03:03:35:13 
* FROM CLIP NAME:  69-1 
* TO CLIP NAME:  69B-3A 
* PATCH SR009:  FROM SOURCE 1 TO RECORD 2 
* PATCH SR009:  FROM SOURCE 1 TO RECORD 2 
* SOURCE FILE: A091C006_160825_R1BY
080  SR009    A2    C        11:02:49:03 11:02:49:17 03:03:35:13 03:03:36:02 
* FROM CLIP NAME:  69-1 
* PATCH SR009:  FROM SOURCE 1 TO RECORD 2 
* SOURCE FILE: A091C006_160825_R1BY
081  SR009    A2    C        12:34:55:05 12:35:05:02 03:03:36:02 03:03:45:22 
* FROM CLIP NAME:  69B-3A 
* PATCH SR009:  FROM SOURCE 1 TO RECORD 2 
* SOURCE FILE: A091C006_160825_R1BY
082  SR009    A2    C        12:35:07:00 12:35:07:03 03:03:45:22 03:03:46:00 
* FROM CLIP NAME:  69B-3A 
* PATCH SR009:  FROM SOURCE 1 TO RECORD 2 
* SOURCE FILE: A091C006_160825_R1BY
083  SR009    A     C        11:58:30:14 11:58:35:11 03:03:46:00 03:03:50:20 
* FROM CLIP NAME:  69A-3A 
* SOURCE FILE: A091C006_160825_R1BY
084  SR009    A2    C        12:35:19:06 12:35:24:07 03:03:49:03 03:03:54:03 
* FROM CLIP NAME:  69B-3A 
* PATCH SR009:  FROM SOURCE 1 TO RECORD 2 
* SOURCE FILE: A091C006_160825_R1BY
085  SR009    A     C        12:35:27:08 12:35:34:01 03:03:54:03 03:04:00:19 
* FROM CLIP NAME:  69B-3A 
* SOURCE FILE: A091C006_160825_R1BY
086  SR009    A2    C        11:53:05:23 11:53:08:21 03:03:57:08 03:04:00:05 
* FROM CLIP NAME:  69A-2A 
* PATCH SR009:  FROM SOURCE 1 TO RECORD 2 
* SOURCE FILE: A091C006_160825_R1BY
087  SR009    A2    C        11:59:01:22 11:59:03:10 03:04:00:05 03:04:01:16 
* FROM CLIP NAME:  69A-3A 
* PATCH SR009:  FROM SOURCE 1 TO RECORD 2 
* SOURCE FILE: A091C006_160825_R1BY
088  SR009    A3    C        11:53:08:20 11:53:10:08 03:04:00:05 03:04:01:16 
* FROM CLIP NAME:  69A-2A 
* PATCH SR009:  FROM SOURCE 1 TO RECORD 3 
* SOURCE FILE: A091C006_160825_R1BY
089  SR009    A2    C        11:53:10:07 11:53:11:09 03:04:01:16 03:04:02:17 
* FROM CLIP NAME:  69A-2A 
* PATCH SR009:  FROM SOURCE 1 TO RECORD 2 
* SOURCE FILE: A091C006_160825_R1BY
090  SR009    A     C        12:29:46:00 12:29:50:23 03:04:02:13 03:04:07:11 
* FROM CLIP NAME:  69B-2A 
* SOURCE FILE: A091C006_160825_R1BY
091  SR009    A2    C        11:59:16:19 11:59:27:00 03:04:05:21 03:04:16:01 
* FROM CLIP NAME:  69A-3A 
* PATCH SR009:  FROM SOURCE 1 TO RECORD 2 
* SOURCE FILE: A091C006_160825_R1BY
092  SR009    A     C        12:57:52:16 12:57:57:14 03:04:16:01 03:04:20:22 
* FROM CLIP NAME:  69D-1A 
* SOURCE FILE: A091C006_160825_R1BY
093  SR009    A3    C        12:58:02:17 12:58:05:00 03:04:20:20 03:04:23:02 
* FROM CLIP NAME:  69D-1A 
* PATCH SR009:  FROM SOURCE 1 TO RECORD 3 
* SOURCE FILE: A091C006_160825_R1BY
094  SR009    A2    C        12:56:58:00 12:57:01:10 03:04:20:20 03:04:24:05 
* FROM CLIP NAME:  69D-1A 
* PATCH SR009:  FROM SOURCE 1 TO RECORD 2 
* SOURCE FILE: A091C006_160825_R1BY
095  SR009    A     C        11:59:28:11 11:59:30:00 03:04:22:12 03:04:24:00 
* FROM CLIP NAME:  69A-3A 
* SOURCE FILE: A091C006_160825_R1BY
096  SR009    A     C        12:57:58:23 12:58:00:09 03:04:24:00 03:04:25:09 
* FROM CLIP NAME:  69D-1A 
* SOURCE FILE: A091C006_160825_R1BY
097  SR009    A2    C        12:58:00:08 12:58:02:12 03:04:24:21 03:04:27:00 
* FROM CLIP NAME:  69D-1A 
* PATCH SR009:  FROM SOURCE 1 TO RECORD 2 
* SOURCE FILE: A091C006_160825_R1BY
098  SR009    A     C        11:59:27:13 11:59:28:18 03:04:25:18 03:04:26:22 
* FROM CLIP NAME:  69A-3A 
* SOURCE FILE: A091C006_160825_R1BY
099  SR009    A     C        11:53:37:06 11:53:39:07 03:04:26:22 03:04:28:22 
* FROM CLIP NAME:  69A-2A 
* SOURCE FILE: A091C006_160825_R1BY
100  SR009    A     C        11:53:40:22 11:53:42:07 03:04:28:22 03:04:30:06 
* FROM CLIP NAME:  69A-2A 
* SOURCE FILE: A091C006_160825_R1BY
101  SR009    A     C        12:58:07:20 12:58:07:22 03:04:30:06 03:04:30:07 
* FROM CLIP NAME:  69D-1A 
* SOURCE FILE: A091C006_160825_R1BY
102  SR009    A     C        13:35:43:12 13:35:44:16 03:04:30:07 03:04:31:10 
* FROM CLIP NAME:  69F-1 
* SOURCE FILE: A091C006_160825_R1BY
103  SR009    A     C        13:35:41:18 13:35:43:04 03:04:31:10 03:04:32:19 
* FROM CLIP NAME:  69F-1 
* SOURCE FILE: A091C006_160825_R1BY
104  SR009    A     C        13:35:46:00 13:35:53:10 03:04:32:19 03:04:40:04 
* FROM CLIP NAME:  69F-1 
* SOURCE FILE: A091C006_160825_R1BY
105  SR009    A     C        11:59:53:04 12:00:00:16 03:04:40:04 03:04:47:15 
* FROM CLIP NAME:  69A-3A 
* SOURCE FILE: A091C006_160825_R1BY
106  SR009    A     C        12:22:03:20 12:22:07:18 03:04:47:15 03:04:51:12 
* FROM CLIP NAME:  69B-1A 
* SOURCE FILE: A091C006_160825_R1BY
107  SR009    A2    C        12:30:31:08 12:30:32:18 03:04:51:00 03:04:52:09 
* FROM CLIP NAME:  69B-2A 
* PATCH SR009:  FROM SOURCE 1 TO RECORD 2 
* SOURCE FILE: A091C006_160825_R1BY
108  SR009    A     C        12:22:08:13 12:22:10:02 03:04:51:12 03:04:53:00 
* FROM CLIP NAME:  69B-1A 
* SOURCE FILE: A091C006_160825_R1BY
109  SR009    A2    C        12:00:11:17 12:00:13:02 03:04:52:09 03:04:53:17 
* FROM CLIP NAME:  69A-3A 
* PATCH SR009:  FROM SOURCE 1 TO RECORD 2 
* SOURCE FILE: A091C006_160825_R1BY
110  SR009    A     C        11:54:06:01 11:54:07:10 03:04:53:08 03:04:54:16 
* FROM CLIP NAME:  69A-2A 
* SOURCE FILE: A091C006_160825_R1BY
111  SR009    A2    C        12:00:15:15 12:00:16:21 03:04:53:17 03:04:54:22 
* FROM CLIP NAME:  69A-3A 
* PATCH SR009:  FROM SOURCE 1 TO RECORD 2 
* SOURCE FILE: A091C006_160825_R1BY
112  SR009    A     C        11:54:07:09 11:54:11:22 03:04:54:16 03:04:59:04 
* FROM CLIP NAME:  69A-2A 
* SOURCE FILE: A091C006_160825_R1BY
113  SR009    A     C        11:54:11:13 11:54:14:11 03:04:59:04 03:05:02:01 
* FROM CLIP NAME:  69A-2A 
* SOURCE FILE: A091C006_160825_R1BY
114  SR009    A     C        11:54:15:09 11:54:17:19 03:05:02:01 03:05:04:10 
* FROM CLIP NAME:  69A-2A 
* SOURCE FILE: A091C006_160825_R1BY
115  SR009    A     C        11:54:20:08 11:54:21:04 03:05:04:10 03:05:05:05 
* FROM CLIP NAME:  69A-2A 
* SOURCE FILE: A091C006_160825_R1BY
116  SR009    A     C        11:54:07:15 11:54:08:15 03:05:05:05 03:05:06:04 
* FROM CLIP NAME:  69A-2A 
* SOURCE FILE: A091C006_160825_R1BY
117  SR030    A2    C        21:12:28:07 21:12:30:03 03:05:07:19 03:05:09:14 
* FROM CLIP NAME:  72-2A 
* PATCH SR030:  FROM SOURCE 1 TO RECORD 2 
* SOURCE FILE: A303C003_160926_R1BY
118  SR030    A2    C        21:12:30:02 21:12:34:00 03:05:09:14 03:05:13:11 
* FROM CLIP NAME:  72-2A 
* PATCH SR030:  FROM SOURCE 1 TO RECORD 2 
* SOURCE FILE: A303C003_160926_R1BY
119  SR011    A2    C        09:13:33:23 09:13:36:15 03:05:13:11 03:05:16:02 
* FROM CLIP NAME:  74-4A 
* PATCH SR011:  FROM SOURCE 1 TO RECORD 2 
* SOURCE FILE: A112C002_160829_R1BY
120  SR011    A2    C        09:13:41:04 09:13:46:23 03:05:16:02 03:05:21:20 
* FROM CLIP NAME:  74-4A 
* PATCH SR011:  FROM SOURCE 1 TO RECORD 2 
* SOURCE FILE: A112C002_160829_R1BY
121  SR011    A     C        09:39:32:07 09:39:34:08 03:05:20:06 03:05:22:06 
* FROM CLIP NAME:  74A-2A 
* SOURCE FILE: A112C002_160829_R1BY
122  SR011    A     C        09:39:35:12 09:39:38:06 03:05:22:06 03:05:24:23 
* FROM CLIP NAME:  74A-2A 
* SOURCE FILE: A112C002_160829_R1BY
123  SR011    A     C        09:13:54:14 09:13:59:19 03:05:24:23 03:05:30:03 
* FROM CLIP NAME:  74-4A 
* SOURCE FILE: A112C002_160829_R1BY
124  SR011    A     C        09:39:50:04 09:39:53:03 03:05:30:03 03:05:33:01 
* FROM CLIP NAME:  74A-2A 
* SOURCE FILE: A112C002_160829_R1BY
125  SR011    A     C        09:39:58:19 09:39:59:10 03:05:33:01 03:05:33:15 
* FROM CLIP NAME:  74A-2A 
* SOURCE FILE: A112C002_160829_R1BY
126  TEMP_ADR A3    C        00:00:00:00 00:00:00:00 03:05:33:01 03:05:34:18 
* FROM CLIP NAME:  REMEMBER WHEN I WENT INTO THE FURTHER 
* PATCH TEMP_ADR:  FROM SOURCE 1 TO RECORD 3 
* SOURCE FILE: TEMP ADR
127  SR011    A2    C        09:40:05:16 09:40:07:21 03:05:33:01 03:05:35:05 
* FROM CLIP NAME:  74A-2A 
* PATCH SR011:  FROM SOURCE 1 TO RECORD 2 
* SOURCE FILE: A112C002_160829_R1BY
128  SR011    A     C        09:40:02:11 09:40:02:14 03:05:33:15 03:05:33:17 
* FROM CLIP NAME:  74A-2A 
* TO CLIP NAME:  74A-2A 
* SOURCE FILE: A112C002_160829_R1BY
129  SR011    A     C        09:40:02:13 09:40:03:22 03:05:33:17 03:05:35:01 
* FROM CLIP NAME:  74A-2A 
* SOURCE FILE: A112C002_160829_R1BY
130  TEMP_ADR A3    C        00:00:00:00 00:00:00:00 03:05:34:19 03:05:36:05 
* FROM CLIP NAME:  REMEMBER WHEN I WENT INTO THE FURTHER 
* PATCH TEMP_ADR:  FROM SOURCE 1 TO RECORD 3 
* SOURCE FILE: TEMP ADR
131  SR011    A     C        09:40:00:14 09:40:01:06 03:05:35:01 03:05:35:16 
* FROM CLIP NAME:  74A-2A 
* SOURCE FILE: A112C002_160829_R1BY
132  SR011    A2    C        09:40:05:16 09:40:06:04 03:05:35:05 03:05:35:16 
* FROM CLIP NAME:  74A-2A 
* PATCH SR011:  FROM SOURCE 1 TO RECORD 2 
* SOURCE FILE: A112C002_160829_R1BY
133  SR011    A2    C        09:40:11:04 09:40:12:16 03:05:35:16 03:05:37:03 
* FROM CLIP NAME:  74A-2A 
* PATCH SR011:  FROM SOURCE 1 TO RECORD 2 
* SOURCE FILE: A112C002_160829_R1BY
134  SR011    A2    C        09:40:12:23 09:40:14:15 03:05:37:03 03:05:38:18 
* FROM CLIP NAME:  74A-2A 
* PATCH SR011:  FROM SOURCE 1 TO RECORD 2 
* SOURCE FILE: A112C002_160829_R1BY
135  SR39     A     C        17:52:28:26 17:52:29:22 03:05:38:16 03:05:39:13 
* FROM CLIP NAME:  75F-4.NEW.01 
* SOURCE FILE: A060C014_1408070Z
136  SR011    A2    C        09:40:14:14 09:40:17:11 03:05:39:05 03:05:42:01 
* FROM CLIP NAME:  74A-2A 
* PATCH SR011:  FROM SOURCE 1 TO RECORD 2 
* SOURCE FILE: A112C002_160829_R1BY
137  SR39     A     C        17:52:32:27 17:52:38:04 03:05:39:13 03:05:44:19 
* FROM CLIP NAME:  75F-4.NEW.01 
* SOURCE FILE: A060C014_1408070Z
138  SR011    A2    C        09:40:19:17 09:40:21:16 03:05:42:01 03:05:43:23 
* FROM CLIP NAME:  74A-2A 
* PATCH SR011:  FROM SOURCE 1 TO RECORD 2 
* SOURCE FILE: A112C002_160829_R1BY
139  SR011    A2    C        09:40:22:03 09:40:24:12 03:05:43:23 03:05:46:07 
* FROM CLIP NAME:  74A-2A 
* PATCH SR011:  FROM SOURCE 1 TO RECORD 2 
* SOURCE FILE: A112C002_160829_R1BY
140  SR39     A     C        00:00:00:00 00:00:00:00 03:05:44:19 03:05:45:07 
* FROM CLIP NAME:  75N-2.NEW.02 
* SOURCE FILE: A060C014_1408070Z
141  SR011    A     C        09:40:29:01 09:40:30:02 03:05:45:07 03:05:46:07 
* FROM CLIP NAME:  74A-2A 
* SOURCE FILE: A112C002_160829_R1BY
142  SR011    A     C        09:40:31:04 09:40:32:18 03:05:46:07 03:05:47:20 
* FROM CLIP NAME:  74A-2A 
* SOURCE FILE: A112C002_160829_R1BY
143  SR011    A2    C        09:14:48:13 09:14:50:16 03:05:47:07 03:05:49:09 
* FROM CLIP NAME:  74-4A 
* PATCH SR011:  FROM SOURCE 1 TO RECORD 2 
* SOURCE FILE: A112C002_160829_R1BY
144  SR011    A2    C        09:40:34:17 09:40:35:05 03:05:49:09 03:05:49:20 
* FROM CLIP NAME:  74A-2A 
* PATCH SR011:  FROM SOURCE 1 TO RECORD 2 
* SOURCE FILE: A112C002_160829_R1BY
145  SR011    A     C        11:53:40:11 11:53:40:19 03:05:49:11 03:05:49:18 
* FROM CLIP NAME:  74F-1A 
* SOURCE FILE: A112C002_160829_R1BY
146  SR011    A     C        11:53:41:03 11:53:41:10 03:05:49:18 03:05:50:00 
* FROM CLIP NAME:  74F-1A 
* SOURCE FILE: A112C002_160829_R1BY
147  SR011    A2    C        09:40:35:04 09:40:36:05 03:05:49:20 03:05:50:20 
* FROM CLIP NAME:  74A-2A 
* TO CLIP NAME:  74A-2A 
* PATCH SR011:  FROM SOURCE 1 TO RECORD 2 
* PATCH SR011:  FROM SOURCE 1 TO RECORD 2 
* SOURCE FILE: A112C002_160829_R1BY
148  SR011    A     C        11:53:37:03 11:53:38:07 03:05:50:00 03:05:51:03 
* FROM CLIP NAME:  74F-1A 
* SOURCE FILE: A112C002_160829_R1BY
149  SR011    A2    C        09:40:36:04 09:40:39:01 03:05:50:20 03:05:53:16 
* FROM CLIP NAME:  74A-2A 
* PATCH SR011:  FROM SOURCE 1 TO RECORD 2 
* SOURCE FILE: A112C002_160829_R1BY
150  SR011    A     C        11:59:52:22 11:59:58:19 03:05:53:16 03:05:59:12 
* FROM CLIP NAME:  74F-2A 
* SOURCE FILE: A112C002_160829_R1BY
151  SR011    A2    C        10:11:16:00 10:11:20:22 03:05:58:15 03:06:03:12 
* FROM CLIP NAME:  74B-2 
* PATCH SR011:  FROM SOURCE 1 TO RECORD 2 
* SOURCE FILE: A112C002_160829_R1BY
152  SR011    A2    C        09:40:55:21 09:41:06:10 03:06:03:12 03:06:14:00 
* FROM CLIP NAME:  74A-2A 
* PATCH SR011:  FROM SOURCE 1 TO RECORD 2 
* SOURCE FILE: A112C002_160829_R1BY
153  SR011    A     C        09:41:05:13 09:41:08:11 03:06:14:00 03:06:16:21 
* FROM CLIP NAME:  74A-2A 
* SOURCE FILE: A112C002_160829_R1BY
154  SR011    A2    C        10:11:33:00 10:11:35:13 03:06:14:09 03:06:16:21 
* FROM CLIP NAME:  74B-2 
* PATCH SR011:  FROM SOURCE 1 TO RECORD 2 
* SOURCE FILE: A112C002_160829_R1BY
155  SR011    A2    C        10:11:36:14 10:11:36:17 03:06:16:21 03:06:16:23 
* FROM CLIP NAME:  74B-2 
* PATCH SR011:  FROM SOURCE 1 TO RECORD 2 
* SOURCE FILE: A112C002_160829_R1BY
156  SR011    A     C        09:41:09:20 09:41:17:15 03:06:16:21 03:06:24:15 
* FROM CLIP NAME:  74A-2A 
* SOURCE FILE: A112C002_160829_R1BY
157  TEMP_ADR A3    C        00:00:00:00 00:00:00:00 03:06:23:20 03:06:26:17 
* FROM CLIP NAME:  WHY DID YOU SAY HELP HER, HELP WHO? 
* PATCH TEMP_ADR:  FROM SOURCE 1 TO RECORD 3 
* SOURCE FILE: TEMP ADR
158  SR006    A2    C        18:37:11:06 18:37:12:15 03:06:26:14 03:06:27:22 
* FROM CLIP NAME:  3G-2.SUB.01 
* PATCH SR006:  FROM SOURCE 1 TO RECORD 2 
* SOURCE FILE: A066C003_160822_R1BY
159  SR006    A3    C        18:38:38:00 18:38:39:11 03:06:27:01 03:06:28:11 
* FROM CLIP NAME:  3G-2 
* PATCH SR006:  FROM SOURCE 1 TO RECORD 3 
* SOURCE FILE: A066C003_160822_R1BY
160  SR011    A     C        12:00:48:15 12:00:51:05 03:06:27:04 03:06:29:17 
* FROM CLIP NAME:  74F-2A 
* SOURCE FILE: A112C002_160829_R1BY
161  SR011    A     C        09:15:45:17 09:15:53:02 03:06:29:17 03:06:37:01 
* FROM CLIP NAME:  74-4A 
* SOURCE FILE: A112C002_160829_R1BY
162  SR011    A     C        09:15:54:10 09:15:56:23 03:06:37:01 03:06:39:13 
* FROM CLIP NAME:  74-4A 
* SOURCE FILE: A112C002_160829_R1BY
163  SR011    A     C        10:12:28:12 10:12:31:05 03:06:39:13 03:06:42:05 
* FROM CLIP NAME:  74B-2 
* SOURCE FILE: A112C002_160829_R1BY
164  SR011    A     C        11:14:49:22 11:14:57:00 03:06:42:05 03:06:49:06 
* FROM CLIP NAME:  74C-2A 
* SOURCE FILE: A112C002_160829_R1BY
165  SR011    A     C        12:20:35:03 12:20:37:20 03:06:49:06 03:06:51:22 
* FROM CLIP NAME:  74G-2A 
* SOURCE FILE: A112C002_160829_R1BY
166  SR011    A     C        11:15:12:13 11:15:17:02 03:06:51:22 03:06:56:10 
* FROM CLIP NAME:  74C-2A 
* SOURCE FILE: A112C002_160829_R1BY
167  SR011    A     C        11:15:18:11 11:15:20:08 03:06:56:10 03:06:58:06 
* FROM CLIP NAME:  74C-2A 
* SOURCE FILE: A112C002_160829_R1BY
168  SR011    A     C        12:20:47:19 12:20:49:23 03:06:58:06 03:07:00:09 
* FROM CLIP NAME:  74G-2A 
* SOURCE FILE: A112C002_160829_R1BY
169  SR011    A     C        11:15:30:21 11:15:32:12 03:07:00:09 03:07:01:23 
* FROM CLIP NAME:  74C-2A 
* SOURCE FILE: A112C002_160829_R1BY
170  SR011    A     C        12:16:24:19 12:16:29:03 03:07:01:23 03:07:06:06 
* FROM CLIP NAME:  74G-1A 
* SOURCE FILE: A112C002_160829_R1BY
171  SR011    A     C        12:16:34:07 12:16:37:15 03:07:06:06 03:07:09:13 
* FROM CLIP NAME:  74G-1A 
* SOURCE FILE: A112C002_160829_R1BY
172  SR015    A     C        11:05:43:20 11:05:49:03 03:07:09:13 03:07:14:19 
* FROM CLIP NAME:  77-2 
* SOURCE FILE: A154C002_160902_R1BY
173  SR011    A     C        12:22:07:02 12:22:11:02 03:07:14:19 03:07:18:18 
* FROM CLIP NAME:  74G-2A 
* SOURCE FILE: A112C002_160829_R1BY
174  SR015    A     C        11:06:13:12 11:06:17:06 03:07:18:18 03:07:22:11 
* FROM CLIP NAME:  77-2 
* SOURCE FILE: A154C002_160902_R1BY
175  SR015    A2    C        11:02:20:18 11:02:23:02 03:07:22:11 03:07:24:18 
* FROM CLIP NAME:  77-1 
* PATCH SR015:  FROM SOURCE 1 TO RECORD 2 
* SOURCE FILE: A154C002_160902_R1BY
176  SR023    A     C        14:09:56:18 14:10:07:10 03:07:24:18 03:07:35:09 
* FROM CLIP NAME:  78-2A 
* SOURCE FILE: A228C007_160915_R1BY
177  SR023    A     C        14:10:20:10 14:10:22:22 03:07:35:09 03:07:37:20 
* FROM CLIP NAME:  78-2A 
* SOURCE FILE: A228C007_160915_R1BY
178  SR023    A     C        14:10:23:15 14:10:24:14 03:07:37:20 03:07:38:18 
* FROM CLIP NAME:  78-2A 
* SOURCE FILE: A228C007_160915_R1BY
179  SR023    A     C        14:11:05:02 14:11:07:03 03:07:38:18 03:07:40:18 
* FROM CLIP NAME:  78-2A 
* SOURCE FILE: A228C007_160915_R1BY
180  SR023    A     C        13:57:06:18 13:57:10:06 03:07:40:18 03:07:44:05 
* FROM CLIP NAME:  78-1A 
* SOURCE FILE: A228C007_160915_R1BY
181  SR023    A     C        13:57:10:16 13:57:12:10 03:07:44:05 03:07:45:22 
* FROM CLIP NAME:  78-1A 
* SOURCE FILE: A228C007_160915_R1BY
182  SR023    A     C        14:21:42:23 14:21:44:10 03:07:45:22 03:07:47:08 
* FROM CLIP NAME:  78A-1 
* SOURCE FILE: A228C007_160915_R1BY
183  SR023    A     C        16:44:27:11 16:44:31:15 03:07:47:08 03:07:51:11 
* FROM CLIP NAME:  79B-1A 
* SOURCE FILE: A228C007_160915_R1BY
184  SR023    A     C        16:11:03:15 16:11:06:10 03:07:51:11 03:07:54:05 
* FROM CLIP NAME:  79-2A 
* SOURCE FILE: A228C007_160915_R1BY
185  SR023    A     C        16:06:07:15 16:06:11:16 03:07:54:05 03:07:58:05 
* FROM CLIP NAME:  79-1A 
* SOURCE FILE: A228C007_160915_R1BY
186  SR023    A     C        19:38:04:14 19:38:07:11 03:07:58:05 03:08:01:01 
* FROM CLIP NAME:  79C-1A 
* SOURCE FILE: A228C007_160915_R1BY
187  SR023    A2    C        19:57:24:04 19:57:27:06 03:08:01:01 03:08:04:02 
* FROM CLIP NAME:  79D-1A 
* PATCH SR023:  FROM SOURCE 1 TO RECORD 2 
* SOURCE FILE: A228C007_160915_R1BY
188  SR023    A     C        19:57:58:05 19:58:02:22 03:08:04:02 03:08:08:18 
* FROM CLIP NAME:  79D-1A 
* SOURCE FILE: A228C007_160915_R1BY
189  SR023    A     C        19:38:43:11 19:38:46:08 03:08:08:18 03:08:11:14 
* FROM CLIP NAME:  79C-1A 
* SOURCE FILE: A228C007_160915_R1BY
190  SR023    A     C        19:38:48:21 19:38:50:22 03:08:11:14 03:08:13:14 
* FROM CLIP NAME:  79C-1A 
* SOURCE FILE: A228C007_160915_R1BY
191  SR023    A     C        19:58:22:10 19:58:23:20 03:08:13:14 03:08:14:23 
* FROM CLIP NAME:  79D-1A 
* SOURCE FILE: A228C007_160915_R1BY
192  SR024    A     C        10:15:01:17 10:15:03:22 03:08:14:23 03:08:17:03 
* FROM CLIP NAME:  79G-1A 
* SOURCE FILE: A233C003_160916_R1BY
193  SR023    A     C        19:41:38:02 19:41:44:08 03:08:17:03 03:08:23:08 
* FROM CLIP NAME:  79C-1A 
* SOURCE FILE: A228C007_160915_R1BY
194  FLLT_SC7 A3    C        00:00:00:00 00:00:00:00 03:08:20:05 03:08:23:08 
* FROM CLIP NAME:  FLLT SC79 SCARE_1110_VOX MIX.WAV 
* PATCH FLLT_SC7:  FROM SOURCE 1 TO RECORD 3 
* SOURCE FILE: FLLT SC79 SCARE_1110_VOX MIX.WAV
195  SR023    A     C        19:41:43:14 19:41:46:12 03:08:23:08 03:08:26:05 
* FROM CLIP NAME:  79C-1A 
* SOURCE FILE: A228C007_160915_R1BY
196  FLLT_SC7 A3    C        00:00:00:00 00:00:00:00 03:08:23:08 03:08:26:05 
* FROM CLIP NAME:  FLLT SC79 SCARE_1110_VOX MIX.WAV 
* PATCH FLLT_SC7:  FROM SOURCE 1 TO RECORD 3 
* SOURCE FILE: FLLT SC79 SCARE_1110_VOX MIX.WAV
197  I4R1     A     C        08:11:02:19 08:11:07:17 03:08:26:05 03:08:31:03 
* FROM CLIP NAME:  R79-6 
* SOURCE FILE: A001C007_170727_R0RO
198  I4R4     A2    C        15:12:05:05 15:12:06:05 03:08:31:02 03:08:32:02 
* FROM CLIP NAME:  R79C-4A 
* PATCH I4R4:  FROM SOURCE 1 TO RECORD 2 
* SOURCE FILE: A019C004_170729_R0RO
199  I4R1     A     C        08:11:07:17 08:11:08:17 03:08:31:03 03:08:32:03 
* FROM CLIP NAME:  R79-6 
* SOURCE FILE: A001C007_170727_R0RO
200  I4R1     A     C        08:11:08:17 08:11:10:04 03:08:32:03 03:08:33:14 
* FROM CLIP NAME:  R79-6 
* SOURCE FILE: A001C007_170727_R0RO
201  I4R4     A     C        15:11:47:12 15:11:54:21 03:08:33:14 03:08:40:23 
* FROM CLIP NAME:  R79C-4A 
* SOURCE FILE: A019C004_170729_R0RO
202  I4R4     A     C        15:11:56:17 15:11:58:13 03:08:40:23 03:08:42:19 
* FROM CLIP NAME:  R79C-4A 
* SOURCE FILE: A019C004_170729_R0RO
203  I4R4     A     C        15:12:01:22 15:12:04:17 03:08:42:19 03:08:45:14 
* FROM CLIP NAME:  R79C-4A 
* SOURCE FILE: A019C004_170729_R0RO
204  I4R1     A     C        08:11:19:14 08:11:28:01 03:08:45:14 03:08:54:01 
* FROM CLIP NAME:  R79-6 
* SOURCE FILE: A001C007_170727_R0RO
205  I4R1     A     C        09:45:54:12 09:45:55:12 03:08:54:01 03:08:55:01 
* FROM CLIP NAME:  R79A-9A 
* TO CLIP NAME:  R79-6 
* SOURCE FILE: A001C007_170727_R0RO
206  I4R1     A     C        09:45:55:12 09:46:14:05 03:08:55:01 03:09:13:18 
* FROM CLIP NAME:  R79A-9A 
* SOURCE FILE: A001C007_170727_R0RO
207  I4R4     A2    C        15:12:05:05 15:12:05:16 03:09:10:14 03:09:11:01 
* FROM CLIP NAME:  R79C-4A 
* PATCH I4R4:  FROM SOURCE 1 TO RECORD 2 
* SOURCE FILE: A019C004_170729_R0RO
208  I4R1     A     C        09:46:05:02 09:46:05:04 03:09:13:18 03:09:13:20 
* FROM CLIP NAME:  R79A-9A 
* TO CLIP NAME:  R79A-9A 
* SOURCE FILE: A001C007_170727_R0RO
209  I4R1     A2    C        09:46:14:06 09:46:15:21 03:09:13:19 03:09:15:10 
* FROM CLIP NAME:  R79A-9A 
* PATCH I4R1:  FROM SOURCE 1 TO RECORD 2 
* SOURCE FILE: A001C007_170727_R0RO
210  I4R1     A     C        09:46:05:04 09:46:06:18 03:09:13:20 03:09:15:10 
* FROM CLIP NAME:  R79A-9A 
* SOURCE FILE: A001C007_170727_R0RO
211  I4R4     A     C        15:12:27:19 15:12:36:16 03:09:15:10 03:09:24:07 
* FROM CLIP NAME:  R79C-4A 
* SOURCE FILE: A019C004_170729_R0RO
212  I4R4     A2    C        15:12:05:05 15:12:06:17 03:09:20:22 03:09:22:10 
* FROM CLIP NAME:  R79C-4A 
* PATCH I4R4:  FROM SOURCE 1 TO RECORD 2 
* SOURCE FILE: A019C004_170729_R0RO
213  I4R4     A     C        15:12:38:10 15:12:38:12 03:09:24:07 03:09:24:09 
* FROM CLIP NAME:  R79C-4A 
* TO CLIP NAME:  R79C-4A 
* SOURCE FILE: A019C004_170729_R0RO
214  I4R4     A2    C        15:12:36:17 15:12:38:12 03:09:24:08 03:09:26:03 
* FROM CLIP NAME:  R79C-4A 
* PATCH I4R4:  FROM SOURCE 1 TO RECORD 2 
* SOURCE FILE: A019C004_170729_R0RO
215  I4R4     A     C        15:12:38:12 15:12:40:05 03:09:24:09 03:09:26:02 
* FROM CLIP NAME:  R79C-4A 
* SOURCE FILE: A019C004_170729_R0RO
216  I4R4     A     C        15:12:38:11 15:12:38:13 03:09:26:02 03:09:26:04 
* FROM CLIP NAME:  R79C-4A 
* TO CLIP NAME:  R79C-4A 
* SOURCE FILE: A019C004_170729_R0RO
217  I4R4     A     C        15:12:38:13 15:12:43:04 03:09:26:04 03:09:30:19 
* FROM CLIP NAME:  R79C-4A 
* SOURCE FILE: A019C004_170729_R0RO
218  I4R4     A     C        15:13:06:12 15:13:06:14 03:09:30:19 03:09:30:21 
* FROM CLIP NAME:  R79C-4A 
* TO CLIP NAME:  R79C-4A 
* SOURCE FILE: A019C004_170729_R0RO
219  I4R1     A2    C        09:46:32:21 09:46:35:21 03:09:30:20 03:09:33:20 
* FROM CLIP NAME:  R79A-9A 
* PATCH I4R1:  FROM SOURCE 1 TO RECORD 2 
* SOURCE FILE: A001C007_170727_R0RO
220  I4R4     A     C        15:13:06:14 15:13:09:12 03:09:30:21 03:09:33:19 
* FROM CLIP NAME:  R79C-4A 
* SOURCE FILE: A019C004_170729_R0RO
221  I4R1     A     C        09:46:35:20 09:46:35:22 03:09:33:19 03:09:33:21 
* FROM CLIP NAME:  R79A-9A 
* TO CLIP NAME:  R79C-4A 
* SOURCE FILE: A001C007_170727_R0RO
222  I4R1     A     C        09:46:35:22 09:46:36:05 03:09:33:21 03:09:34:04 
* FROM CLIP NAME:  R79A-9A 
* SOURCE FILE: A001C007_170727_R0RO
223  I4R1     A     C        09:46:35:05 09:46:42:07 03:09:34:04 03:09:41:06 
* FROM CLIP NAME:  R79A-9A 
* SOURCE FILE: A001C007_170727_R0RO
224  I4R1     A     C        09:46:35:14 09:46:35:16 03:09:41:06 03:09:41:08 
* FROM CLIP NAME:  R79A-9A 
* TO CLIP NAME:  R79A-9A 
* SOURCE FILE: A001C007_170727_R0RO
225  I4R1     A2    C        09:46:42:08 09:46:44:13 03:09:41:07 03:09:43:12 
* FROM CLIP NAME:  R79A-9A 
* PATCH I4R1:  FROM SOURCE 1 TO RECORD 2 
* SOURCE FILE: A001C007_170727_R0RO
226  I4R1     A     C        09:46:35:16 09:46:37:19 03:09:41:08 03:09:43:11 
* FROM CLIP NAME:  R79A-9A 
* SOURCE FILE: A001C007_170727_R0RO
227  I4R1     A     C        09:46:44:12 09:46:44:14 03:09:43:11 03:09:43:13 
* FROM CLIP NAME:  R79A-9A 
* TO CLIP NAME:  R79A-9A 
* SOURCE FILE: A001C007_170727_R0RO
228  I4R1     A     C        09:46:44:14 09:46:51:04 03:09:43:13 03:09:50:03 
* FROM CLIP NAME:  R79A-9A 
* SOURCE FILE: A001C007_170727_R0RO
229  I4R4     A     C        15:12:58:09 15:13:00:05 03:09:50:03 03:09:51:23 
* FROM CLIP NAME:  R79C-4B 
* SOURCE FILE: A019C004_170729_R0RO
230  I4R4     A2    C        15:12:05:22 15:12:06:11 03:09:50:19 03:09:51:08 
* FROM CLIP NAME:  R79C-4A 
* PATCH I4R4:  FROM SOURCE 1 TO RECORD 2 
* SOURCE FILE: A019C004_170729_R0RO
231  I4R4     A     C        15:13:05:10 15:13:09:02 03:09:51:23 03:09:55:15 
* FROM CLIP NAME:  R79C-4A 
* SOURCE FILE: A019C004_170729_R0RO
232  I4R4     A2    C        15:13:01:08 15:13:05:00 03:09:51:23 03:09:55:15 
* FROM CLIP NAME:  R79C-4B 
* PATCH I4R4:  FROM SOURCE 1 TO RECORD 2 
* SOURCE FILE: A019C004_170729_R0RO
233  I4R4     A     C        15:13:05:00 15:13:10:05 03:09:55:15 03:10:00:20 
* FROM CLIP NAME:  R79C-4B 
* SOURCE FILE: A019C004_170729_R0RO
234  I4R1     A     C        09:47:02:19 09:47:04:15 03:10:00:20 03:10:02:16 
* FROM CLIP NAME:  R79A-9B 
* TO CLIP NAME:  R79C-4B 
* SOURCE FILE: A001C007_170727_R0RO
235  I4R1     A     C        09:47:04:15 09:47:07:10 03:10:02:16 03:10:05:11 
* FROM CLIP NAME:  R79A-9B 
* SOURCE FILE: A001C007_170727_R0RO
236  I4R4     A     C        15:13:19:23 15:13:23:10 03:10:05:11 03:10:08:22 
* FROM CLIP NAME:  R79C-4A 
* SOURCE FILE: A019C004_170729_R0RO
237  I4R1     A2    C        08:12:45:23 08:12:49:17 03:10:08:22 03:10:12:16 
* FROM CLIP NAME:  R79-6 
* PATCH I4R1:  FROM SOURCE 1 TO RECORD 2 
* SOURCE FILE: A001C007_170727_R0RO
238  I4R4     A     C        15:13:29:02 15:13:31:07 03:10:12:16 03:10:14:21 
* FROM CLIP NAME:  R79C-4A 
* SOURCE FILE: A019C004_170729_R0RO
239  I4R1     A2    C        09:20:24:01 09:20:29:19 03:10:13:22 03:10:19:16 
* FROM CLIP NAME:  R79A-5A 
* PATCH I4R1:  FROM SOURCE 1 TO RECORD 2 
* SOURCE FILE: A001C007_170727_R0RO
240  I4R1     A     C        09:47:25:06 09:47:32:12 03:10:19:16 03:10:26:22 
* FROM CLIP NAME:  R79A-9A 
* SOURCE FILE: A001C007_170727_R0RO
241  I4R4     A     C        15:12:05:05 15:12:09:13 03:10:26:22 03:10:31:06 
* FROM CLIP NAME:  R79C-4A 
* SOURCE FILE: A019C004_170729_R0RO
242  I4R1     A     C        09:47:38:12 09:47:41:00 03:10:31:06 03:10:33:18 
* FROM CLIP NAME:  R79A-9A 
* SOURCE FILE: A001C007_170727_R0RO
243  I4R4     A     C        15:06:05:17 15:06:11:08 03:10:33:18 03:10:39:09 
* FROM CLIP NAME:  R79C-3A 
* SOURCE FILE: A019C004_170729_R0RO
244  I4R4     A     C        15:06:12:19 15:06:15:22 03:10:39:09 03:10:42:12 
* FROM CLIP NAME:  R79C-3A 
* SOURCE FILE: A019C004_170729_R0RO
245  SR030    A     C        21:14:29:01 21:14:34:03 03:10:42:12 03:10:47:13 
* FROM CLIP NAME:  72-2A 
* SOURCE FILE: A303C003_160926_R1BY
246  SR030    A     C        21:14:36:14 21:14:37:07 03:10:47:13 03:10:48:05 
* FROM CLIP NAME:  72-2A 
* SOURCE FILE: A303C003_160926_R1BY
247  SR030    A     C        21:14:34:18 21:14:36:15 03:10:48:05 03:10:50:01 
* FROM CLIP NAME:  72-2A 
* SOURCE FILE: A303C003_160926_R1BY
248  SR030    A     C        21:14:34:02 21:14:34:19 03:10:50:01 03:10:50:17 
* FROM CLIP NAME:  72-2A 
* SOURCE FILE: A303C003_160926_R1BY
249  SR011    A     C        10:30:34:04 10:30:36:18 03:10:50:17 03:10:53:06 
* FROM CLIP NAME:  80-2A 
* SOURCE FILE: A112C002_160829_R1BY
250  SR011    A     C        10:28:06:08 10:28:07:19 03:10:53:06 03:10:54:16 
* FROM CLIP NAME:  80-1A 
* SOURCE FILE: A112C002_160829_R1BY
251  SR011    A     C        10:30:36:03 10:30:38:09 03:10:54:16 03:10:56:21 
* FROM CLIP NAME:  80-2A 
* SOURCE FILE: A112C002_160829_R1BY
252  SR024    A     C        10:17:42:15 10:17:45:09 03:10:56:21 03:10:59:14 
* FROM CLIP NAME:  79G-1A 
* SOURCE FILE: A233C003_160916_R1BY
253  SR023    A3    C        16:11:28:13 16:11:33:07 03:10:56:22 03:11:01:15 
* FROM CLIP NAME:  79-2A 
* PATCH SR023:  FROM SOURCE 1 TO RECORD 3 
* SOURCE FILE: A228C007_160915_R1BY
254  SR024    A     C        10:57:14:03 10:57:19:06 03:10:59:14 03:11:04:16 
* FROM CLIP NAME:  81A-2 
* SOURCE FILE: A233C003_160916_R1BY
255  SR023    A     C        20:00:00:19 20:00:02:15 03:11:04:16 03:11:06:11 
* FROM CLIP NAME:  79D-1A 
* SOURCE FILE: A228C007_160915_R1BY
256  I4R1     A     C        10:51:13:12 10:51:18:00 03:11:06:11 03:11:10:23 
* FROM CLIP NAME:  R81A-3A 
* SOURCE FILE: A001C007_170727_R0RO
257  SR024    A2    C        10:58:23:00 10:58:29:02 03:11:06:11 03:11:12:12 
* FROM CLIP NAME:  81A-2 
* PATCH SR024:  FROM SOURCE 1 TO RECORD 2 
* SOURCE FILE: A233C003_160916_R1BY
258  I4R1     A     C        10:51:28:12 10:51:31:17 03:11:10:23 03:11:14:04 
* FROM CLIP NAME:  R81A-3A 
* SOURCE FILE: A001C007_170727_R0RO
259  I4R1     A     C        10:51:35:17 10:51:45:06 03:11:14:04 03:11:23:17 
* FROM CLIP NAME:  R81A-3A 
* SOURCE FILE: A001C007_170727_R0RO
260  SR024    A2    C        10:58:29:07 10:58:30:05 03:11:21:08 03:11:22:05 
* FROM CLIP NAME:  81A-2 
* PATCH SR024:  FROM SOURCE 1 TO RECORD 2 
* SOURCE FILE: A233C003_160916_R1BY
261  I4R1     A     C        10:51:48:12 10:51:49:19 03:11:23:17 03:11:25:00 
* FROM CLIP NAME:  R81A-3A 
* SOURCE FILE: A001C007_170727_R0RO
262  I4R1     A2    C        10:51:46:13 10:51:49:19 03:11:25:00 03:11:28:06 
* FROM CLIP NAME:  R81A-3A 
* PATCH I4R1:  FROM SOURCE 1 TO RECORD 2 
* SOURCE FILE: A001C007_170727_R0RO
263  I4R1     A     C        10:29:18:16 10:29:23:15 03:11:26:02 03:11:31:01 
* FROM CLIP NAME:  R81-4A 
* SOURCE FILE: A001C007_170727_R0RO
264  I4R1     A     C        10:29:24:08 10:29:39:21 03:11:31:01 03:11:46:14 
* FROM CLIP NAME:  R81-4A 
* SOURCE FILE: A001C007_170727_R0RO
265  SR024    A     C        15:57:52:19 15:57:54:17 03:11:46:14 03:11:48:11 
* FROM CLIP NAME:  82G-2A 
* SOURCE FILE: A233C003_160916_R1BY
266  SR024    A     C        15:58:04:08 15:58:07:16 03:11:48:11 03:11:51:18 
* FROM CLIP NAME:  82G-2A 
* SOURCE FILE: A233C003_160916_R1BY
267  SR024    A     C        15:48:15:19 15:48:16:20 03:11:51:18 03:11:52:18 
* FROM CLIP NAME:  82G-1A 
* SOURCE FILE: A233C003_160916_R1BY
268  SR024    A     C        15:58:08:15 15:58:25:14 03:11:52:18 03:12:09:16 
* FROM CLIP NAME:  82G-2A 
* SOURCE FILE: A233C003_160916_R1BY
269  SR024    A     C        15:58:23:03 15:58:25:14 03:12:09:16 03:12:12:02 
* FROM CLIP NAME:  82G-2A 
* SOURCE FILE: A233C003_160916_R1BY
270  SR024    A     C        15:58:32:20 15:58:33:18 03:12:12:02 03:12:12:23 
* FROM CLIP NAME:  82G-2A 
* SOURCE FILE: A233C003_160916_R1BY
271  I4R2     A     C        14:25:45:05 14:25:49:11 03:12:12:23 03:12:17:05 
* FROM CLIP NAME:  R82A-2 
* SOURCE FILE: A005C003_170727_R0RO
272  I4R2     A     C        14:53:34:21 14:53:39:06 03:12:17:05 03:12:21:14 
* FROM CLIP NAME:  R82B-2 
* SOURCE FILE: A005C003_170727_R0RO
273  I4R2     A     C        13:40:16:07 13:40:18:22 03:12:21:14 03:12:24:05 
* FROM CLIP NAME:  R82-7 
* SOURCE FILE: A005C003_170727_R0RO
274  I4R2     A     C        14:58:40:08 14:58:42:20 03:12:24:05 03:12:26:17 
* FROM CLIP NAME:  R82B-3 
* SOURCE FILE: A005C003_170727_R0RO
275  I4R2     A     C        13:40:21:19 13:40:24:23 03:12:26:17 03:12:29:21 
* FROM CLIP NAME:  R82-7 
* SOURCE FILE: A005C003_170727_R0RO
276  I4R2     A     C        14:58:45:06 14:58:47:21 03:12:29:21 03:12:32:12 
* FROM CLIP NAME:  R82B-3 
* SOURCE FILE: A005C003_170727_R0RO
277  SR024    A2    C        15:58:26:06 15:58:26:23 03:12:30:11 03:12:31:03 
* FROM CLIP NAME:  82G-2A 
* PATCH SR024:  FROM SOURCE 1 TO RECORD 2 
* SOURCE FILE: A233C003_160916_R1BY
278  I4R2     A     C        14:58:52:07 14:58:52:15 03:12:32:12 03:12:32:20 
* FROM CLIP NAME:  R82B-3 
* TO CLIP NAME:  R82B-3 
* SOURCE FILE: A005C003_170727_R0RO
279  I4R2     A     C        14:58:52:15 14:58:57:06 03:12:32:20 03:12:37:11 
* FROM CLIP NAME:  R82B-3 
* SOURCE FILE: A005C003_170727_R0RO
280  I4R2     A     C        13:40:33:01 13:40:43:11 03:12:37:11 03:12:47:21 
* FROM CLIP NAME:  R82-7 
* SOURCE FILE: A005C003_170727_R0RO
281  I4R2     A     C        14:59:15:07 14:59:18:08 03:12:47:21 03:12:50:22 
* FROM CLIP NAME:  R82B-3 
* SOURCE FILE: A005C003_170727_R0RO
282  I4R2     A     C        14:59:19:01 14:59:23:06 03:12:50:22 03:12:55:03 
* FROM CLIP NAME:  R82B-3 
* SOURCE FILE: A005C003_170727_R0RO
283  I4R2     A     C        14:19:39:11 14:19:43:09 03:12:55:03 03:12:59:01 
* FROM CLIP NAME:  R82A-1 
* SOURCE FILE: A005C003_170727_R0RO
284  I4R2     A     C        16:54:16:19 16:54:17:19 03:12:59:01 03:13:00:01 
* FROM CLIP NAME:  R82C-18 
* TO CLIP NAME:  R82A-1 
* SOURCE FILE: A005C003_170727_R0RO
285  I4R2     A     C        16:54:17:19 16:54:20:12 03:13:00:01 03:13:02:18 
* FROM CLIP NAME:  R82C-18 
* SOURCE FILE: A005C003_170727_R0RO
286  I4R4     A     C        15:11:50:10 15:11:54:11 03:13:02:18 03:13:06:19 
* FROM CLIP NAME:  R79C-4A 
* SOURCE FILE: A019C004_170729_R0RO
287  I4R4     A     C        15:11:56:09 15:12:08:21 03:13:06:19 03:13:19:07 
* FROM CLIP NAME:  R79C-4A 
* SOURCE FILE: A019C004_170729_R0RO
288  I4R2     A     C        17:00:06:18 17:00:07:19 03:13:19:07 03:13:20:08 
* FROM CLIP NAME:  R82C-19 
* SOURCE FILE: A005C003_170727_R0RO
289  I4R2     A2    C        15:55:05:17 15:55:06:07 03:13:19:22 03:13:20:12 
* FROM CLIP NAME:  R82C-1 
* PATCH I4R2:  FROM SOURCE 1 TO RECORD 2 
* SOURCE FILE: A005C003_170727_R0RO
290  I4R2     A     C        18:03:30:08 18:03:34:11 03:13:20:09 03:13:24:12 
* FROM CLIP NAME:  R82E-4 
* SOURCE FILE: A005C003_170727_R0RO
291  I4R2     A3    C        16:54:38:07 16:54:38:21 03:13:20:14 03:13:21:04 
* FROM CLIP NAME:  R82C-18 
* PATCH I4R2:  FROM SOURCE 1 TO RECORD 3 
* SOURCE FILE: A005C003_170727_R0RO
292  I4R2     A     C        17:33:01:14 17:33:13:17 03:13:24:12 03:13:36:15 
* FROM CLIP NAME:  R82D-4 
* SOURCE FILE: A005C003_170727_R0RO
293  I4R4     A     C        13:00:21:09 13:00:22:19 03:13:36:15 03:13:38:01 
* FROM CLIP NAME:  R82G-4 
* SOURCE FILE: A019C004_170729_R0RO
294  I4R2     A     C        18:03:44:05 18:03:47:14 03:13:38:01 03:13:41:10 
* FROM CLIP NAME:  R82E-4 
* SOURCE FILE: A005C003_170727_R0RO
295  I4R2     A     C        17:33:14:10 17:33:23:06 03:13:41:10 03:13:50:06 
* FROM CLIP NAME:  R82D-4 
* SOURCE FILE: A005C003_170727_R0RO
296  I4R2     A2    C        18:03:58:23 18:04:02:15 03:13:50:06 03:13:53:22 
* FROM CLIP NAME:  R82E-4 
* PATCH I4R2:  FROM SOURCE 1 TO RECORD 2 
* SOURCE FILE: A005C003_170727_R0RO
297  I4R4     A     C        13:01:06:04 13:01:08:14 03:13:51:12 03:13:53:22 
* FROM CLIP NAME:  R82G-4 
* SOURCE FILE: A019C004_170729_R0RO
298  SR024    A2    C        12:54:02:02 12:54:03:23 03:13:53:22 03:13:55:18 
* FROM CLIP NAME:  82C-1 
* PATCH SR024:  FROM SOURCE 1 TO RECORD 2 
* SOURCE FILE: A233C003_160916_R1BY
299  SR024    A     C        14:17:18:00 14:17:20:19 03:13:55:18 03:13:58:12 
* FROM CLIP NAME:  82E-4A 
* SOURCE FILE: A233C003_160916_R1BY
300  SR024    A     C        14:17:18:01 14:17:18:08 03:13:58:12 03:13:58:18 
* FROM CLIP NAME:  82E-4A 
* SOURCE FILE: A233C003_160916_R1BY
301  SR024    A     C        12:53:18:13 12:53:20:19 03:13:58:18 03:14:00:23 
* FROM CLIP NAME:  82C-1 
* SOURCE FILE: A233C003_160916_R1BY
302  SR024    A     C        14:17:30:03 14:17:31:19 03:14:00:23 03:14:02:14 
* FROM CLIP NAME:  82E-4A 
* SOURCE FILE: A233C003_160916_R1BY
303  SR024    A2    C        12:36:03:17 12:36:05:23 03:14:02:10 03:14:04:15 
* FROM CLIP NAME:  82B-2 
* PATCH SR024:  FROM SOURCE 5 TO RECORD 2 
* SOURCE FILE: A233C003_160916_R1BY
304  SR024    A     C        15:34:34:16 15:34:35:10 03:14:02:14 03:14:03:07 
* FROM CLIP NAME:  82F-2 
* SOURCE FILE: A233C003_160916_R1BY
305  SR024    A     C        15:34:35:13 15:34:37:10 03:14:03:07 03:14:05:03 
* FROM CLIP NAME:  82F-2 
* SOURCE FILE: A233C003_160916_R1BY
306  SR024    A2    C        13:16:31:12 13:16:32:02 03:14:05:03 03:14:05:16 
* FROM CLIP NAME:  82D-2A 
* PATCH SR024:  FROM SOURCE 1 TO RECORD 2 
* SOURCE FILE: A233C003_160916_R1BY
307  SR024    A2    C        13:16:30:14 13:16:31:09 03:14:05:16 03:14:06:10 
* FROM CLIP NAME:  82D-2A 
* PATCH SR024:  FROM SOURCE 1 TO RECORD 2 
* SOURCE FILE: A233C003_160916_R1BY
308  SR024    A     C        15:34:37:09 15:34:38:05 03:14:05:21 03:14:06:16 
* FROM CLIP NAME:  82F-2 
* SOURCE FILE: A233C003_160916_R1BY
309  SR024    A     C        15:34:41:06 15:34:41:17 03:14:06:16 03:14:07:02 
* FROM CLIP NAME:  82F-2 
* SOURCE FILE: A233C003_160916_R1BY
310  SR024    A     C        15:34:42:19 15:34:43:04 03:14:07:02 03:14:07:10 
* FROM CLIP NAME:  82F-2 
* SOURCE FILE: A233C003_160916_R1BY
311  SR024    A     C        13:54:56:12 13:54:57:17 03:14:07:10 03:14:08:14 
* FROM CLIP NAME:  82E-1A 
* SOURCE FILE: A233C003_160916_R1BY
312  SR024    A2    C        14:17:48:11 14:17:51:08 03:14:08:08 03:14:11:04 
* FROM CLIP NAME:  82E-4A 
* PATCH SR024:  FROM SOURCE 1 TO RECORD 2 
* SOURCE FILE: A233C003_160916_R1BY
313  SR024    A     C        14:08:52:11 14:08:55:00 03:14:11:01 03:14:13:13 
* FROM CLIP NAME:  82E-3A 
* SOURCE FILE: A233C003_160916_R1BY
314  SR024    A     C        14:09:05:22 14:09:06:17 03:14:13:13 03:14:14:07 
* FROM CLIP NAME:  82E-3A 
* SOURCE FILE: A233C003_160916_R1BY
315  SR024    A3    C        13:54:34:08 13:54:35:05 03:14:14:02 03:14:14:22 
* FROM CLIP NAME:  82E-1A 
* PATCH SR024:  FROM SOURCE 1 TO RECORD 3 
* SOURCE FILE: A233C003_160916_R1BY
316  SR024    A     C        14:08:55:17 14:08:57:19 03:14:14:07 03:14:16:08 
* FROM CLIP NAME:  82E-3A 
* SOURCE FILE: A233C003_160916_R1BY
317  SR024    A3    C        14:07:22:01 14:07:23:12 03:14:14:22 03:14:16:08 
* FROM CLIP NAME:  82E-3A 
* PATCH SR024:  FROM SOURCE 1 TO RECORD 3 
* SOURCE FILE: A233C003_160916_R1BY
318  SR030    A2    C        21:20:46:13 21:20:48:12 03:14:16:08 03:14:18:06 
* FROM CLIP NAME:  72-3A 
* PATCH SR030:  FROM SOURCE 1 TO RECORD 2 
* SOURCE FILE: A303C003_160926_R1BY
319  SR024    A     C        14:02:33:03 14:02:34:21 03:14:16:11 03:14:18:04 
* FROM CLIP NAME:  82E-2A 
* SOURCE FILE: A233C003_160916_R1BY
320  SR024    A3    C        13:09:49:06 13:09:49:17 03:14:18:06 03:14:18:16 
* FROM CLIP NAME:  82D-1A 
* PATCH SR024:  FROM SOURCE 1 TO RECORD 3 
* SOURCE FILE: A233C003_160916_R1BY
321  SR024    A     C        14:02:36:13 14:02:40:03 03:14:18:06 03:14:21:19 
* FROM CLIP NAME:  82E-2A 
* SOURCE FILE: A233C003_160916_R1BY
322  SR024    A3    C        13:20:09:10 13:20:11:05 03:14:18:16 03:14:20:10 
* FROM CLIP NAME:  82D-3A 
* PATCH SR024:  FROM SOURCE 1 TO RECORD 3 
* SOURCE FILE: A233C003_160916_R1BY
323  SR024    A3    C        14:17:31:02 14:17:31:23 03:14:20:10 03:14:21:06 
* FROM CLIP NAME:  82E-4A 
* PATCH SR024:  FROM SOURCE 1 TO RECORD 3 
* SOURCE FILE: A233C003_160916_R1BY
324  SR024    A3    C        13:09:48:08 13:09:49:17 03:14:21:06 03:14:22:14 
* FROM CLIP NAME:  82D-1A 
* PATCH SR024:  FROM SOURCE 1 TO RECORD 3 
* SOURCE FILE: A233C003_160916_R1BY
325  SR024    A     C        14:18:45:16 14:18:48:13 03:14:21:19 03:14:24:15 
* FROM CLIP NAME:  82E-4A 
* SOURCE FILE: A233C003_160916_R1BY
326  SR024    A3    C        13:16:23:10 13:16:24:16 03:14:22:14 03:14:23:19 
* FROM CLIP NAME:  82D-2A 
* PATCH SR024:  FROM SOURCE 1 TO RECORD 3 
* SOURCE FILE: A233C003_160916_R1BY
327  SR024    A3    C        13:20:00:13 13:20:01:10 03:14:23:19 03:14:24:15 
* FROM CLIP NAME:  82D-3A 
* PATCH SR024:  FROM SOURCE 1 TO RECORD 3 
* SOURCE FILE: A233C003_160916_R1BY
328  SR024    A     C        14:18:48:12 14:18:50:19 03:14:24:15 03:14:26:21 
* FROM CLIP NAME:  82E-4A 
* SOURCE FILE: A233C003_160916_R1BY
329  SR030    A2    C        21:20:55:00 21:20:57:07 03:14:24:15 03:14:26:21 
* FROM CLIP NAME:  72-3A 
* PATCH SR030:  FROM SOURCE 1 TO RECORD 2 
* SOURCE FILE: A303C003_160926_R1BY
330  SR024    A3    C        13:20:03:15 13:20:04:05 03:14:26:21 03:14:27:10 
* FROM CLIP NAME:  82D-3A 
* PATCH SR024:  FROM SOURCE 1 TO RECORD 3 
* SOURCE FILE: A233C003_160916_R1BY
331  SR024    A     C        14:18:51:09 14:18:52:11 03:14:26:21 03:14:27:22 
* FROM CLIP NAME:  82E-4A 
* SOURCE FILE: A233C003_160916_R1BY
332  SR024    A3    C        13:16:15:11 13:16:16:15 03:14:27:10 03:14:28:13 
* FROM CLIP NAME:  82D-2A 
* PATCH SR024:  FROM SOURCE 1 TO RECORD 3 
* SOURCE FILE: A233C003_160916_R1BY
333  SR024    A     C        13:10:54:12 13:10:56:16 03:14:27:22 03:14:30:01 
* FROM CLIP NAME:  82D-1A 
* SOURCE FILE: A233C003_160916_R1BY
334  SR024    A2    C        14:11:14:15 14:11:21:02 03:14:29:19 03:14:36:05 
* FROM CLIP NAME:  82E-3A 
* PATCH SR024:  FROM SOURCE 1 TO RECORD 2 
* SOURCE FILE: A233C003_160916_R1BY
335  SR024    A3    C        13:54:34:08 13:54:35:05 03:14:32:15 03:14:33:11 
* FROM CLIP NAME:  82E-1A 
* PATCH SR024:  FROM SOURCE 1 TO RECORD 3 
* SOURCE FILE: A233C003_160916_R1BY
336  SR024    A3    C        14:07:22:01 14:07:24:12 03:14:33:11 03:14:35:21 
* FROM CLIP NAME:  82E-3A 
* PATCH SR024:  FROM SOURCE 1 TO RECORD 3 
* SOURCE FILE: A233C003_160916_R1BY
337  SR024    A3    C        13:09:48:08 13:09:48:17 03:14:35:21 03:14:36:05 
* FROM CLIP NAME:  82D-1A 
* PATCH SR024:  FROM SOURCE 1 TO RECORD 3 
* SOURCE FILE: A233C003_160916_R1BY
338  SR024    A3    C        13:09:48:22 13:09:49:17 03:14:36:05 03:14:36:23 
* FROM CLIP NAME:  82D-1A 
* PATCH SR024:  FROM SOURCE 1 TO RECORD 3 
* SOURCE FILE: A233C003_160916_R1BY
339  SR024    A3    C        13:20:09:10 13:20:10:01 03:14:36:23 03:14:37:13 
* FROM CLIP NAME:  82D-3A 
* PATCH SR024:  FROM SOURCE 1 TO RECORD 3 
* SOURCE FILE: A233C003_160916_R1BY
340  SR024    A3    C        14:07:22:01 14:07:24:12 03:14:37:13 03:14:39:23 
* FROM CLIP NAME:  82E-3A 
* PATCH SR024:  FROM SOURCE 1 TO RECORD 3 
* SOURCE FILE: A233C003_160916_R1BY
341  SR024    A2    C        14:11:05:05 14:11:11:11 03:14:37:13 03:14:43:18 
* FROM CLIP NAME:  82E-3A 
* PATCH SR024:  FROM SOURCE 1 TO RECORD 2 
* SOURCE FILE: A233C003_160916_R1BY
342  SR024    A3    C        13:09:48:08 13:09:49:17 03:14:39:23 03:14:41:07 
* FROM CLIP NAME:  82D-1A 
* PATCH SR024:  FROM SOURCE 1 TO RECORD 3 
* SOURCE FILE: A233C003_160916_R1BY
343  SR024    A3    C        13:20:09:10 13:20:10:06 03:14:41:07 03:14:42:02 
* FROM CLIP NAME:  82D-3A 
* PATCH SR024:  FROM SOURCE 1 TO RECORD 3 
* SOURCE FILE: A233C003_160916_R1BY
344  SR012    A     C        19:43:33:07 19:43:38:08 03:14:43:18 03:14:48:18 
* FROM CLIP NAME:  123-1A 
* SOURCE FILE: A134C001_160830_R1BY
345  SR024    A     C        13:56:45:21 13:56:48:09 03:14:48:18 03:14:51:05 
* FROM CLIP NAME:  82E-1A 
* SOURCE FILE: A233C003_160916_R1BY
346  SR024    A3    C        13:54:34:08 13:54:35:05 03:14:48:23 03:14:49:19 
* FROM CLIP NAME:  82E-1A 
* PATCH SR024:  FROM SOURCE 1 TO RECORD 3 
* SOURCE FILE: A233C003_160916_R1BY
347  SR024    A     C        13:56:49:09 13:56:52:21 03:14:51:05 03:14:54:16 
* FROM CLIP NAME:  82E-1A 
* SOURCE FILE: A233C003_160916_R1BY
348  SR024    A2    C        14:11:34:08 14:11:37:03 03:14:53:23 03:14:56:17 
* FROM CLIP NAME:  82E-3A 
* PATCH SR024:  FROM SOURCE 1 TO RECORD 2 
* SOURCE FILE: A233C003_160916_R1BY
349  SR024    A3    C        14:17:31:02 14:17:31:23 03:14:55:07 03:14:56:03 
* FROM CLIP NAME:  82E-4A 
* PATCH SR024:  FROM SOURCE 1 TO RECORD 3 
* SOURCE FILE: A233C003_160916_R1BY
350  SR024    A3    C        13:09:48:08 13:09:49:17 03:14:56:03 03:14:57:11 
* FROM CLIP NAME:  82D-1A 
* PATCH SR024:  FROM SOURCE 1 TO RECORD 3 
* SOURCE FILE: A233C003_160916_R1BY
351  SR024    A     C        13:11:41:04 13:11:41:13 03:14:56:09 03:14:56:17 
* FROM CLIP NAME:  82D-1A 
* SOURCE FILE: A233C003_160916_R1BY
352  SR024    A     C        13:11:42:05 13:11:42:14 03:14:56:17 03:14:57:01 
* FROM CLIP NAME:  82D-1A 
* SOURCE FILE: A233C003_160916_R1BY
353  SR024    A     C        14:11:45:03 14:11:48:07 03:14:57:01 03:15:00:04 
* FROM CLIP NAME:  82E-3A 
* SOURCE FILE: A233C003_160916_R1BY
354  SR024    A3    C        13:20:00:13 13:20:04:05 03:14:58:16 03:15:02:07 
* FROM CLIP NAME:  82D-3A 
* PATCH SR024:  FROM SOURCE 1 TO RECORD 3 
* SOURCE FILE: A233C003_160916_R1BY
355  SR024    A     C        14:11:50:07 14:11:52:07 03:15:00:04 03:15:02:03 
* FROM CLIP NAME:  82E-3A 
* SOURCE FILE: A233C003_160916_R1BY
356  SR024    A     C        14:21:16:14 14:21:18:00 03:15:02:03 03:15:03:12 
* FROM CLIP NAME:  82E-4A 
* SOURCE FILE: A233C003_160916_R1BY
357  SR024    A     C        12:37:54:15 12:37:58:20 03:15:03:12 03:15:07:16 
* FROM CLIP NAME:  82B-2 
* SOURCE FILE: A233C003_160916_R1BY
358  SR024    A     C        12:37:59:22 12:38:00:13 03:15:08:01 03:15:08:15 
* FROM CLIP NAME:  82B-2 
* SOURCE FILE: A233C003_160916_R1BY
359  SR012    A     C        19:43:56:01 19:43:58:22 03:15:08:15 03:15:11:11 
* FROM CLIP NAME:  123-1A 
* SOURCE FILE: A134C001_160830_R1BY
360  SR023    A     C        15:43:33:08 15:43:36:08 03:15:11:11 03:15:14:10 
* FROM CLIP NAME:  85-4A 
* SOURCE FILE: A228C007_160915_R1BY
361  SR023    A     C        15:42:10:13 15:42:14:22 03:15:14:10 03:15:18:18 
* FROM CLIP NAME:  85-3A 
* SOURCE FILE: A228C007_160915_R1BY
362  SR014    A     C        10:01:42:21 10:01:51:17 03:15:18:18 03:15:27:13 
* FROM CLIP NAME:  86-5A 
* SOURCE FILE: A145C005_160901_R1BY
363  SR014    A     C        10:08:39:19 10:08:44:16 03:15:27:13 03:15:32:09 
* FROM CLIP NAME:  86A-2 
* SOURCE FILE: A145C005_160901_R1BY
364  SR014    A2    C        18:21:08:13 18:21:09:09 03:15:31:13 03:15:32:08 
* FROM CLIP NAME:  88D-2A 
* PATCH SR014:  FROM SOURCE 1 TO RECORD 2 
* SOURCE FILE: A145C005_160901_R1BY
365  SR014    A     C        10:01:59:16 10:02:02:07 03:15:32:09 03:15:34:23 
* FROM CLIP NAME:  86-5A 
* SOURCE FILE: A145C005_160901_R1BY
366  SR014    A     C        10:01:57:15 10:01:59:07 03:15:34:23 03:15:36:14 
* FROM CLIP NAME:  86-5A 
* SOURCE FILE: A145C005_160901_R1BY
367  SR014    A     C        10:06:31:08 10:06:33:08 03:15:36:14 03:15:38:13 
* FROM CLIP NAME:  86A-1 
* SOURCE FILE: A145C005_160901_R1BY
368  SR014    A     C        10:02:07:05 10:02:19:06 03:15:38:13 03:15:50:13 
* FROM CLIP NAME:  86-5A 
* SOURCE FILE: A145C005_160901_R1BY
369  SR014    A     C        10:02:25:00 10:02:29:20 03:15:50:13 03:15:55:08 
* FROM CLIP NAME:  86-5A 
* SOURCE FILE: A145C005_160901_R1BY
370  SR014    A2    C        10:02:14:00 10:02:17:20 03:15:53:15 03:15:57:10 
* FROM CLIP NAME:  86-5A 
* PATCH SR014:  FROM SOURCE 1 TO RECORD 2 
* SOURCE FILE: A145C005_160901_R1BY
371  SR014    A     C        10:09:03:04 10:09:05:03 03:15:57:10 03:15:59:08 
* FROM CLIP NAME:  86A-2 
* SOURCE FILE: A145C005_160901_R1BY
372  SR014    A     C        10:02:35:14 10:02:36:11 03:15:59:08 03:16:00:04 
* FROM CLIP NAME:  86-5A 
* SOURCE FILE: A145C005_160901_R1BY
373  SR014    A     C        10:02:36:16 10:02:38:19 03:16:00:04 03:16:02:06 
* FROM CLIP NAME:  86-5A 
* SOURCE FILE: A145C005_160901_R1BY
374  SR014    A     C        10:02:38:22 10:02:39:03 03:16:02:06 03:16:02:10 
* FROM CLIP NAME:  86-5A 
* SOURCE FILE: A145C005_160901_R1BY
375  SR014    A     C        17:16:59:07 17:17:03:06 03:16:02:10 03:16:06:08 
* FROM CLIP NAME:  87-2A 
* SOURCE FILE: A145C005_160901_R1BY
376  SR014    A     C        17:17:05:22 17:17:09:04 03:16:06:08 03:16:09:13 
* FROM CLIP NAME:  87-2A 
* SOURCE FILE: A145C005_160901_R1BY
377  SR014    A     C        17:46:18:14 17:46:20:20 03:16:09:13 03:16:11:18 
* FROM CLIP NAME:  88A-4A 
* SOURCE FILE: A145C005_160901_R1BY
378  SR014    A     C        18:08:11:18 18:08:15:15 03:16:11:18 03:16:15:14 
* FROM CLIP NAME:  88C-1A 
* SOURCE FILE: A145C005_160901_R1BY
379  SR014    A     C        17:46:34:04 17:46:39:21 03:16:15:14 03:16:21:06 
* FROM CLIP NAME:  88A-4A 
* SOURCE FILE: A145C005_160901_R1BY
380  SR014    A     C        17:40:06:12 17:40:09:19 03:16:21:06 03:16:24:12 
* FROM CLIP NAME:  88A-2A 
* SOURCE FILE: A145C005_160901_R1BY
381  SR014    A     C        18:09:48:15 18:09:52:08 03:16:24:12 03:16:28:04 
* FROM CLIP NAME:  88C-1A 
* SOURCE FILE: A145C005_160901_R1BY
382  SR014    A     C        18:08:31:10 18:08:34:09 03:16:28:04 03:16:31:02 
* FROM CLIP NAME:  88C-1A 
* SOURCE FILE: A145C005_160901_R1BY
383  SR014    A     C        18:09:51:13 18:09:55:17 03:16:31:02 03:16:35:05 
* FROM CLIP NAME:  88C-1A 
* SOURCE FILE: A145C005_160901_R1BY
384  SR014    A     C        18:09:45:06 18:09:45:19 03:16:35:05 03:16:35:17 
* FROM CLIP NAME:  88C-1A 
* SOURCE FILE: A145C005_160901_R1BY
385  SR014    A     C        17:54:15:22 17:54:17:15 03:16:35:17 03:16:37:09 
* FROM CLIP NAME:  88B-1A 
* SOURCE FILE: A145C005_160901_R1BY
386  SR014    A2    C        17:40:14:14 17:40:15:04 03:16:37:09 03:16:37:22 
* FROM CLIP NAME:  88A-2A 
* PATCH SR014:  FROM SOURCE 1 TO RECORD 2 
* SOURCE FILE: A145C005_160901_R1BY
387  SR014    A2    C        17:40:15:03 17:40:15:18 03:16:37:22 03:16:38:12 
* FROM CLIP NAME:  88A-2A 
* PATCH SR014:  FROM SOURCE 1 TO RECORD 2 
* SOURCE FILE: A145C005_160901_R1BY
388  SR024    A     C        13:16:23:20 13:16:24:19 03:16:37:22 03:16:38:20 
* FROM CLIP NAME:  82D-2A 
* SOURCE FILE: A233C003_160916_R1BY
389  SR024    A2    C        14:17:28:17 14:17:29:02 03:16:38:12 03:16:38:20 
* FROM CLIP NAME:  82E-4A 
* TO CLIP NAME:  88A-2A 
* PATCH SR024:  FROM SOURCE 1 TO RECORD 2 
* PATCH SR014:  FROM SOURCE 1 TO RECORD 2 
* SOURCE FILE: A233C003_160916_R1BY
390  SR024    A2    C        14:17:29:01 14:17:30:00 03:16:38:20 03:16:39:18 
* FROM CLIP NAME:  82E-4A 
* PATCH SR024:  FROM SOURCE 1 TO RECORD 2 
* SOURCE FILE: A233C003_160916_R1BY
391  SR014    A     C        18:21:08:02 18:21:08:18 03:16:39:18 03:16:40:09 
* FROM CLIP NAME:  88D-2A 
* SOURCE FILE: A145C005_160901_R1BY
392  SR014    A     C        18:21:08:17 18:21:09:18 03:16:40:09 03:16:41:09 
* FROM CLIP NAME:  88D-2A 
* SOURCE FILE: A145C005_160901_R1BY
393  SR014    A     C        18:21:10:01 18:21:12:13 03:16:41:09 03:16:43:20 
* FROM CLIP NAME:  88D-2A 
* SOURCE FILE: A145C005_160901_R1BY
394  SR014    A     C        11:38:38:20 11:38:42:07 03:16:43:20 03:16:47:06 
* FROM CLIP NAME:  90-2A 
* SOURCE FILE: A145C005_160901_R1BY
395  SR014    A     C        11:40:34:15 11:40:35:05 03:16:47:06 03:16:47:19 
* FROM CLIP NAME:  90-4A 
* SOURCE FILE: A145C005_160901_R1BY
396  SR014    A2    C        11:38:43:05 11:38:45:02 03:16:47:19 03:16:49:15 
* FROM CLIP NAME:  90-2A 
* PATCH SR014:  FROM SOURCE 1 TO RECORD 2 
* SOURCE FILE: A145C005_160901_R1BY
397  SR014    A     C        12:13:46:02 12:13:50:16 03:16:49:03 03:16:53:16 
* FROM CLIP NAME:  90A-4A 
* SOURCE FILE: A145C005_160901_R1BY
398  SR014    A2    C        09:44:40:05 09:44:41:17 03:16:49:17 03:16:51:04 
* FROM CLIP NAME:  86-2A 
* PATCH SR014:  FROM SOURCE 1 TO RECORD 2 
* SOURCE FILE: A145C005_160901_R1BY
399  SR014    A     C        12:30:19:17 12:30:20:23 03:16:53:16 03:16:54:21 
* FROM CLIP NAME:  90B-3A 
* SOURCE FILE: A145C005_160901_R1BY
400  SR014    A     C        12:30:21:13 12:30:23:01 03:16:54:21 03:16:56:08 
* FROM CLIP NAME:  90B-3A 
* SOURCE FILE: A145C005_160901_R1BY
401  SR014    A     C        12:30:18:10 12:30:19:02 03:16:56:08 03:16:56:23 
* FROM CLIP NAME:  90B-3A 
* SOURCE FILE: A145C005_160901_R1BY
402  SR014    A     C        11:39:37:01 11:39:39:03 03:16:56:23 03:16:59:00 
* FROM CLIP NAME:  90-3A 
* SOURCE FILE: A145C005_160901_R1BY
403  SR014    A     C        11:38:45:12 11:38:46:05 03:16:59:00 03:16:59:16 
* FROM CLIP NAME:  90-2A 
* SOURCE FILE: A145C005_160901_R1BY
404  SR014    A     C        11:39:37:23 11:39:38:20 03:16:59:16 03:17:00:12 
* FROM CLIP NAME:  90-3A 
* SOURCE FILE: A145C005_160901_R1BY
405  SR014    A     C        17:20:49:16 17:20:50:09 03:17:00:12 03:17:01:04 
* FROM CLIP NAME:  88-1A 
* SOURCE FILE: A145C005_160901_R1BY
406  SR014    A     C        12:27:00:09 12:27:00:14 03:17:01:04 03:17:01:08 
* FROM CLIP NAME:  90B-1A 
* SOURCE FILE: A145C005_160901_R1BY
407  SR014    A     C        12:13:55:16 12:13:56:03 03:17:01:08 03:17:01:18 
* FROM CLIP NAME:  90A-4A 
* SOURCE FILE: A145C005_160901_R1BY
408  SR014    A     C        13:28:37:18 13:28:38:21 03:17:01:18 03:17:02:20 
* FROM CLIP NAME:  90E-2A 
* SOURCE FILE: A145C005_160901_R1BY
409  SR014    A     C        13:55:59:21 13:56:03:08 03:17:02:20 03:17:06:06 
* FROM CLIP NAME:  90F-2A 
* SOURCE FILE: A145C005_160901_R1BY
410  SR014    A2    C        15:50:12:19 15:50:13:16 03:17:05:08 03:17:06:04 
* FROM CLIP NAME:  V90J-2A 
* PATCH SR014:  FROM SOURCE 1 TO RECORD 2 
* SOURCE FILE: A145C005_160901_R1BY
411  SR014    A2    C        15:50:13:15 15:50:14:16 03:17:06:04 03:17:07:04 
* FROM CLIP NAME:  V90J-2A 
* PATCH SR014:  FROM SOURCE 1 TO RECORD 2 
* SOURCE FILE: A145C005_160901_R1BY
412  SR014    A2    C        15:50:14:07 15:50:15:08 03:17:07:04 03:17:08:04 
* FROM CLIP NAME:  V90J-2A 
* PATCH SR014:  FROM SOURCE 1 TO RECORD 2 
* SOURCE FILE: A145C005_160901_R1BY
413  SR014    A     C        13:54:38:02 13:54:40:09 03:17:07:04 03:17:09:10 
* FROM CLIP NAME:  90F-1A 
* SOURCE FILE: A145C005_160901_R1BY
414  SR014    A     C        16:20:55:04 16:20:57:08 03:17:09:10 03:17:11:13 
* FROM CLIP NAME:  90K-1A 
* SOURCE FILE: A145C005_160901_R1BY
415  SR014    A     C        16:38:24:02 16:38:28:00 03:17:11:13 03:17:15:10 
* FROM CLIP NAME:  90L-1A 
* SOURCE FILE: A145C005_160901_R1BY
416  SR018    A     C        21:41:51:18 21:41:54:03 03:17:16:12 03:17:18:20 
* FROM CLIP NAME:  91A-4A 
* SOURCE FILE: A189C001_160909_R1BY
417  SR018    A     C        21:41:23:00 21:41:25:05 03:17:18:20 03:17:21:00 
* FROM CLIP NAME:  91A-4A 
* SOURCE FILE: A189C001_160909_R1BY
418  SR018    A     C        21:32:03:05 21:32:06:10 03:17:21:00 03:17:24:04 
* FROM CLIP NAME:  91A-2A 
* SOURCE FILE: A189C001_160909_R1BY
419  SR018    A     C        21:32:06:21 21:32:09:19 03:17:24:04 03:17:27:01 
* FROM CLIP NAME:  91A-2A 
* SOURCE FILE: A189C001_160909_R1BY
420  SR018    A     C        21:32:10:16 21:32:14:01 03:17:27:01 03:17:30:09 
* FROM CLIP NAME:  91A-2A 
* SOURCE FILE: A189C001_160909_R1BY
421  SR018    A2    C        21:41:46:20 21:41:50:22 03:17:29:08 03:17:33:09 
* FROM CLIP NAME:  91A-4A 
* PATCH SR018:  FROM SOURCE 1 TO RECORD 2 
* SOURCE FILE: A189C001_160909_R1BY
422  SR018    A     C        21:39:01:08 21:39:04:01 03:17:33:00 03:17:35:16 
* FROM CLIP NAME:  91A-3A 
* SOURCE FILE: A189C001_160909_R1BY
423  SR018    A2    C        22:23:05:01 22:23:07:07 03:17:34:19 03:17:37:00 
* FROM CLIP NAME:  91C-1A 
* PATCH SR018:  FROM SOURCE 1 TO RECORD 2 
* SOURCE FILE: A189C001_160909_R1BY
424  SR018    A     C        21:42:30:03 21:42:39:00 03:17:37:00 03:17:45:20 
* FROM CLIP NAME:  91A-4A 
* SOURCE FILE: A189C001_160909_R1BY
425  SR018    A     C        22:23:09:10 22:23:10:20 03:17:45:20 03:17:47:05 
* FROM CLIP NAME:  91C-1A 
* SOURCE FILE: A189C001_160909_R1BY
426  SR018    A     C        21:27:39:02 21:27:40:10 03:17:47:05 03:17:48:12 
* FROM CLIP NAME:  91A-1A 
* SOURCE FILE: A189C001_160909_R1BY
427  SR018    A     C        21:27:45:21 21:27:46:15 03:17:48:12 03:17:49:05 
* FROM CLIP NAME:  91A-1A 
* SOURCE FILE: A189C001_160909_R1BY
428  SR018    A     C        22:46:22:23 22:46:26:20 03:17:49:05 03:17:53:01 
* FROM CLIP NAME:  91D-1A 
* SOURCE FILE: A189C001_160909_R1BY
429  SR018    A     C        22:46:27:03 22:46:30:00 03:17:53:01 03:17:55:21 
* FROM CLIP NAME:  91D-1A 
* SOURCE FILE: A189C001_160909_R1BY
430  SR018    A     C        22:52:55:10 22:53:01:04 03:17:55:21 03:18:01:14 
* FROM CLIP NAME:  91D-3A 
* SOURCE FILE: A189C001_160909_R1BY
431  SR018    A     C        22:53:02:03 22:53:09:20 03:18:01:14 03:18:09:06 
* FROM CLIP NAME:  91D-3A 
* SOURCE FILE: A189C001_160909_R1BY
432  SR018    A     C        23:39:30:11 23:39:33:08 03:18:09:06 03:18:12:02 
* FROM CLIP NAME:  91F-1A 
* SOURCE FILE: A189C001_160909_R1BY
433  SR018    A     C        23:20:42:08 23:20:45:16 03:18:12:02 03:18:15:09 
* FROM CLIP NAME:  91E-3 PLATE 
* SOURCE FILE: A189C001_160909_R1BY
434  SR018    A     C        23:40:09:02 23:40:12:17 03:18:15:09 03:18:18:23 
* FROM CLIP NAME:  91F-1A 
* SOURCE FILE: A189C001_160909_R1BY
435  SR018    A     C        15:44:12:00 15:44:20:07 03:18:18:23 03:18:27:05 
* FROM CLIP NAME:  92E-1A 
* SOURCE FILE: A189C001_160909_R1BY
436  SR018    A     C        12:22:36:08 12:22:42:06 03:18:27:05 03:18:33:02 
* FROM CLIP NAME:  92A-2A 
* SOURCE FILE: A189C001_160909_R1BY
437  SR018    A     C        12:52:23:16 12:52:26:16 03:18:33:02 03:18:36:01 
* FROM CLIP NAME:  92B-1A 
* SOURCE FILE: A189C001_160909_R1BY
438  SR018    A2    C        12:28:51:13 12:28:57:14 03:18:34:03 03:18:40:03 
* FROM CLIP NAME:  92A-3A 
* PATCH SR018:  FROM SOURCE 1 TO RECORD 2 
* SOURCE FILE: A189C001_160909_R1BY
439  SR014    A     C        15:47:19:12 15:47:29:00 03:18:40:03 03:18:49:14 
* FROM CLIP NAME:  93-4A 
* SOURCE FILE: A145C005_160901_R1BY
440  TEMP_ADR A2    C        00:00:00:00 00:00:00:00 03:18:41:06 03:18:44:10 
* FROM CLIP NAME:  DAD THIS IS INSANE 
* PATCH TEMP_ADR:  FROM SOURCE 1 TO RECORD 2 
* SOURCE FILE: TEMP ADR
441  TEMP_ADR A3    C        00:00:00:00 00:00:00:00 03:18:45:18 03:18:47:11 
* FROM CLIP NAME:  I HAVE TO DO THIS 
* PATCH TEMP_ADR:  FROM SOURCE 1 TO RECORD 3 
* SOURCE FILE: TEMP ADR
442  SR014    A     C        16:19:10:13 16:19:19:01 03:18:49:14 03:18:58:01 
* FROM CLIP NAME:  93A-4A 
* SOURCE FILE: A145C005_160901_R1BY
443  SR011    A2    C        19:18:32:07 19:18:33:16 03:18:56:17 03:18:58:01 
* FROM CLIP NAME:  94-1A 
* PATCH SR011:  FROM SOURCE 1 TO RECORD 2 
* SOURCE FILE: A112C002_160829_R1BY
444  SR011    A     C        19:18:34:04 19:18:40:00 03:18:58:01 03:19:03:20 
* FROM CLIP NAME:  94-1A 
* SOURCE FILE: A112C002_160829_R1BY
445  133_15.L A3    C        00:00:00:00 00:00:00:00 03:19:04:02 03:19:15:11 
* FROM CLIP NAME:  133_15.L.WAV 
* PATCH 133_15.L:  FROM SOURCE 1 TO RECORD 3 
* SOURCE FILE: 133_15.L.WAV
446  SR020    A     C        17:02:42:14 17:02:45:01 03:19:15:00 03:19:17:10 
* FROM CLIP NAME:  101C-2A 
* SOURCE FILE: A201C005_160912_R1BY
447  SR020    A     C        17:02:45:11 17:02:49:17 03:19:17:10 03:19:21:15 
* FROM CLIP NAME:  101C-2A 
* SOURCE FILE: A201C005_160912_R1BY
448  SR020    A     C        17:02:47:09 17:02:48:10 03:19:21:15 03:19:22:15 
* FROM CLIP NAME:  101C-2A 
* SOURCE FILE: A201C005_160912_R1BY
449  SR020    A     C        17:02:49:21 17:02:54:02 03:19:22:15 03:19:26:19 
* FROM CLIP NAME:  101C-2A 
* SOURCE FILE: A201C005_160912_R1BY
450  SR020    A     C        17:02:54:16 17:02:58:05 03:19:26:19 03:19:30:07 
* FROM CLIP NAME:  101C-2A 
* SOURCE FILE: A201C005_160912_R1BY
451  SR014    A     C        17:21:37:13 17:21:42:04 03:19:30:07 03:19:34:21 
* FROM CLIP NAME:  95A-1A 
* SOURCE FILE: A145C005_160901_R1BY
452  FALLOUT0 A3    C        00:00:00:00 00:00:00:00 03:19:33:21 03:19:36:07 
* FROM CLIP NAME:  W98/1 
* PATCH FALLOUT0:  FROM SOURCE 1 TO RECORD 3 
* SOURCE FILE: FALLOUT025
453  SR014    A     C        17:00:18:17 17:00:20:13 03:19:34:21 03:19:36:16 
* FROM CLIP NAME:  95-1A 
* SOURCE FILE: A145C005_160901_R1BY
454  SR014    A2    C        17:26:01:07 17:26:03:02 03:19:35:07 03:19:37:01 
* FROM CLIP NAME:  95A-2A 
* PATCH SR014:  FROM SOURCE 1 TO RECORD 2 
* SOURCE FILE: A145C005_160901_R1BY
455  SR014    A     C        17:23:55:04 17:23:55:14 03:19:36:16 03:19:37:01 
* FROM CLIP NAME:  95A-1A 
* SOURCE FILE: A145C005_160901_R1BY
456  SR014    A2    C        17:26:03:09 17:26:04:10 03:19:37:01 03:19:38:01 
* FROM CLIP NAME:  95A-2A 
* PATCH SR014:  FROM SOURCE 1 TO RECORD 2 
* SOURCE FILE: A145C005_160901_R1BY
457  SR014    A     C        17:23:56:13 17:23:58:11 03:19:38:01 03:19:39:22 
* FROM CLIP NAME:  95A-1A 
* SOURCE FILE: A145C005_160901_R1BY
458  SR014    A     C        18:20:17:23 18:20:18:03 03:19:39:22 03:19:40:01 
* FROM CLIP NAME:  96A-1A 
* SOURCE FILE: A145C005_160901_R1BY
459  SR020    A2    C        16:16:41:07 16:16:48:08 03:19:39:22 03:19:46:22 
* FROM CLIP NAME:  101A-1A 
* PATCH SR020:  FROM SOURCE 1 TO RECORD 2 
* SOURCE FILE: A201C005_160912_R1BY
460  SR020    A     C        17:20:48:23 17:21:05:23 03:19:46:22 03:20:03:21 
* FROM CLIP NAME:  101D-1 
* SOURCE FILE: A201C005_160912_R1BY
461  SR020    A2    C        16:21:50:01 16:21:53:18 03:20:01:12 03:20:05:04 
* FROM CLIP NAME:  101A-2A 
* PATCH SR020:  FROM SOURCE 1 TO RECORD 2 
* SOURCE FILE: A201C005_160912_R1BY
462  SR020    A     C        16:21:54:11 16:21:55:16 03:20:05:04 03:20:06:08 
* FROM CLIP NAME:  101A-2A 
* SOURCE FILE: A201C005_160912_R1BY
463  SR020    A     C        17:03:31:10 17:03:33:00 03:20:06:21 03:20:08:10 
* FROM CLIP NAME:  101C-2A 
* SOURCE FILE: A201C005_160912_R1BY
464  SR020    A     C        17:03:32:12 17:03:33:04 03:20:08:10 03:20:09:01 
* FROM CLIP NAME:  101C-2A 
* SOURCE FILE: A201C005_160912_R1BY
465  SR020    A     C        17:03:33:03 17:03:34:07 03:20:09:01 03:20:10:04 
* FROM CLIP NAME:  101C-2A 
* SOURCE FILE: A201C005_160912_R1BY
466  SR020    A2    C        16:17:12:04 16:17:12:19 03:20:09:17 03:20:10:07 
* FROM CLIP NAME:  101A-1A 
* PATCH SR020:  FROM SOURCE 1 TO RECORD 2 
* SOURCE FILE: A201C005_160912_R1BY
467  SR020    A2    C        16:17:13:06 16:17:14:21 03:20:10:07 03:20:11:21 
* FROM CLIP NAME:  101A-1A 
* PATCH SR020:  FROM SOURCE 1 TO RECORD 2 
* SOURCE FILE: A201C005_160912_R1BY
468  SR020    A     C        17:07:01:06 17:07:10:00 03:20:11:04 03:20:19:21 
* FROM CLIP NAME:  101C-3A 
* SOURCE FILE: A201C005_160912_R1BY
469  SR020    A     C        17:07:10:20 17:07:12:12 03:20:19:21 03:20:21:12 
* FROM CLIP NAME:  101C-3A 
* SOURCE FILE: A201C005_160912_R1BY
470  SR020    A2    C        16:17:25:19 16:17:28:22 03:20:21:09 03:20:24:11 
* FROM CLIP NAME:  101A-1A 
* PATCH SR020:  FROM SOURCE 1 TO RECORD 2 
* SOURCE FILE: A201C005_160912_R1BY
471  SR020    A     C        15:37:13:15 15:37:15:08 03:20:23:14 03:20:25:06 
* FROM CLIP NAME:  101-2A 
* SOURCE FILE: A201C005_160912_R1BY
472  SR020    A     C        15:37:15:07 15:37:18:17 03:20:25:06 03:20:28:15 
* FROM CLIP NAME:  101-2A 
* SOURCE FILE: A201C005_160912_R1BY
473  FKI_LEAD A     C        00:00:00:00 00:00:00:00 03:20:28:15 03:20:30:15 
* FROM CLIP NAME:  FKI_LEADER_TAIL_1920X1080.MOV 
* SOURCE FILE: FKI_LEADER_TAIL_1920X1080.MOV
474  FKI_LEAD A2    C        00:00:00:00 00:00:00:00 03:20:28:15 03:20:30:15 
* FROM CLIP NAME:  FKI_LEADER_TAIL_1920X1080.MOV 
* SOURCE FILE: FKI_LEADER_TAIL_1920X1080.MOV
475  FKI_LEAD A3    C        00:00:00:00 00:00:00:00 03:20:28:15 03:20:30:15 
* FROM CLIP NAME:  FKI_LEADER_TAIL_1920X1080.MOV 
* PATCH FKI_LEA1:  FROM SOURCE 1 TO RECORD 3 
* SOURCE FILE: FKI_LEADER_TAIL_1920X1080.MOV