TITLE:   INS4_R1_092117 
FCM: NON-DROP FRAME
001  FKI_LEAD A     C        00:00:00:00 00:00:00:00 01:00:00:00 01:00:08:00 
* FROM CLIP NAME:  FKI_LEADER_HEAD_1920X1080.MOV 
* SOURCE FILE: FKI_LEADER_HEAD_1920X1080.MOV
002  FKI_LEAD A2    C        00:00:00:00 00:00:00:00 01:00:00:00 01:00:08:00 
* FROM CLIP NAME:  FKI_LEADER_HEAD_1920X1080.MOV 
* SOURCE FILE: FKI_LEADER_HEAD_1920X1080.MOV
003  FKI_LEAD A3    C        00:00:00:00 00:00:00:00 01:00:00:00 01:00:08:00 
* FROM CLIP NAME:  FKI_LEADER_HEAD_1920X1080.MOV 
* PATCH FKI_LEAD:  FROM SOURCE 1 TO RECORD 3 
* SOURCE FILE: FKI_LEADER_HEAD_1920X1080.MOV
004  UNILOGO_ A     C        00:00:00:00 00:00:00:00 01:00:08:00 01:00:32:00 
* FROM CLIP NAME:  UNILOGO_2012_S235_MONO_DNX175X.MOV 
* SOURCE FILE: UNILOGO_2012_S235_MONO_DNX175X.MOV
005  UNILOGO_ A2    C        00:00:00:00 00:00:00:00 01:00:08:00 01:00:32:00 
* FROM CLIP NAME:  UNILOGO_2012_S235_MONO_DNX175X.MOV 
* SOURCE FILE: UNILOGO_2012_S235_MONO_DNX175X.MOV
006  EFA.MOV  A3    C        00:00:00:00 00:00:00:00 01:01:43:20 01:01:48:17 
* FROM CLIP NAME:  EFA.MOV 
* PATCH EFA.MOV:  FROM SOURCE 1 TO RECORD 3 
* SOURCE FILE: EFA.MOV
007  EFA.MOV  A3    C        00:00:00:00 00:00:00:00 01:01:48:17 01:01:54:19 
* FROM CLIP NAME:  EFA.MOV 
* PATCH EFA.MOV:  FROM SOURCE 1 TO RECORD 3 
* SOURCE FILE: EFA.MOV
008  SR018    A     C        19:11:54:10 19:11:58:18 01:01:51:18 01:01:56:01 
* FROM CLIP NAME:  1-2B 
* SOURCE FILE: B140C001_160908_R16W
009  SR018    A     C        19:11:59:17 19:12:00:02 01:01:56:01 01:01:56:09 
* FROM CLIP NAME:  1-2B 
* TO CLIP NAME:  1-2B 
* SOURCE FILE: B140C001_160908_R16W
010  SR018    A     C        19:12:00:01 19:12:04:13 01:01:56:09 01:02:00:20 
* FROM CLIP NAME:  1-2B 
* SOURCE FILE: B140C001_160908_R16W
011  SR018    A     C        19:12:04:22 19:12:11:21 01:02:00:20 01:02:07:18 
* FROM CLIP NAME:  1-2B 
* SOURCE FILE: B140C001_160908_R16W
012  ANTI-RUS A3    C        00:00:00:00 00:00:00:00 01:02:07:18 01:02:07:19 
* FROM CLIP NAME:  ANTI-RUSSIA_ANTI-COMMUNISM_EDUCATIONALVIDEO_1952.MP3 
* PATCH ANTI-RUS:  FROM SOURCE 1 TO RECORD 3 
* SOURCE FILE: ANTI-RUSSIA_ANTI-COMMUNISM_EDUCATIONALVIDEO_1952.MP3
013  SR005    A     C        16:26:05:18 16:26:12:09 01:02:07:18 01:02:14:08 
* FROM CLIP NAME:  2A-2A 
* SOURCE FILE: A054C002_160819_R1BY
014  ANTI-RUS A3    C        00:00:00:00 00:00:00:00 01:02:07:19 01:02:19:09 
* FROM CLIP NAME:  ANTI-RUSSIA_ANTI-COMMUNISM_EDUCATIONALVIDEO_1952.MP3 
* PATCH ANTI-RUS:  FROM SOURCE 1 TO RECORD 3 
* SOURCE FILE: ANTI-RUSSIA_ANTI-COMMUNISM_EDUCATIONALVIDEO_1952.MP3
015  SR005    A     C        16:26:21:18 16:26:26:08 01:02:14:08 01:02:18:21 
* FROM CLIP NAME:  2A-2A 
* SOURCE FILE: A054C002_160819_R1BY
016  SR005    A     C        19:56:45:17 19:56:48:01 01:02:18:21 01:02:21:04 
* FROM CLIP NAME:  2G-3 
* TO CLIP NAME:  2A-2A 
* SOURCE FILE: A054C002_160819_R1BY
017  ANTI-RUS A3    C        00:00:00:00 00:00:00:00 01:02:19:09 01:02:39:04 
* FROM CLIP NAME:  ANTI-RUSSIA_ANTI-COMMUNISM_EDUCATIONALVIDEO_1952.MP3 
* PATCH ANTI-RUS:  FROM SOURCE 1 TO RECORD 3 
* SOURCE FILE: ANTI-RUSSIA_ANTI-COMMUNISM_EDUCATIONALVIDEO_1952.MP3
018  SR005    A     C        19:56:48:00 19:56:52:01 01:02:21:04 01:02:25:04 
* FROM CLIP NAME:  2G-3 
* SOURCE FILE: A054C002_160819_R1BY
019  SR005    A     C        19:56:54:23 19:56:57:19 01:02:25:04 01:02:27:23 
* FROM CLIP NAME:  2G-3 
* SOURCE FILE: A054C002_160819_R1BY
020  SR005    A     C        19:56:51:13 19:57:02:19 01:02:27:23 01:02:39:04 
* FROM CLIP NAME:  2G-3 
* SOURCE FILE: A054C002_160819_R1BY
021  SR005    A     C        19:57:41:10 19:57:42:09 01:02:39:04 01:02:40:02 
* FROM CLIP NAME:  2G-3 
* SOURCE FILE: A054C002_160819_R1BY
022  ANTI-RUS A3    C        00:00:00:00 00:00:00:00 01:02:39:04 01:02:42:15 
* FROM CLIP NAME:  ANTI-RUSSIA_ANTI-COMMUNISM_EDUCATIONALVIDEO_1952.MP3 
* PATCH ANTI-RUS:  FROM SOURCE 1 TO RECORD 3 
* SOURCE FILE: ANTI-RUSSIA_ANTI-COMMUNISM_EDUCATIONALVIDEO_1952.MP3
023  SR005    A     C        16:30:52:13 16:30:55:03 01:02:40:02 01:02:42:15 
* FROM CLIP NAME:  2A-3A 
* SOURCE FILE: A054C002_160819_R1BY
024  SR005    A     C        22:52:26:00 22:52:27:23 01:02:42:15 01:02:44:13 
* FROM CLIP NAME:  2H-1 
* SOURCE FILE: A054C002_160819_R1BY
025  ANTI-RUS A3    C        00:00:00:00 00:00:00:00 01:02:42:15 01:02:54:07 
* FROM CLIP NAME:  ANTI-RUSSIA_ANTI-COMMUNISM_EDUCATIONALVIDEO_1952.MP3 
* PATCH ANTI-RUS:  FROM SOURCE 1 TO RECORD 3 
* SOURCE FILE: ANTI-RUSSIA_ANTI-COMMUNISM_EDUCATIONALVIDEO_1952.MP3
026  SR005    A     C        15:51:13:07 15:51:18:23 01:02:44:13 01:02:50:04 
* FROM CLIP NAME:  2-4A 
* SOURCE FILE: A054C002_160819_R1BY
027  SR005    A2    C        16:31:09:04 16:31:14:07 01:02:50:04 01:02:55:06 
* FROM CLIP NAME:  2A-3A 
* PATCH SR005:  FROM SOURCE 1 TO RECORD 2 
* SOURCE FILE: A054C002_160819_R1BY
028  SR005    A     C        17:52:51:22 17:52:54:02 01:02:53:15 01:02:55:18 
* FROM CLIP NAME:  2D-2 
* SOURCE FILE: A054C002_160819_R1BY
029  ANTI-RUS A3    C        00:00:00:00 00:00:00:00 01:02:54:07 01:03:05:07 
* FROM CLIP NAME:  ANTI-RUSSIA_ANTI-COMMUNISM_EDUCATIONALVIDEO_1952.MP3 
* PATCH ANTI-RUS:  FROM SOURCE 1 TO RECORD 3 
* SOURCE FILE: ANTI-RUSSIA_ANTI-COMMUNISM_EDUCATIONALVIDEO_1952.MP3
030  SR005    A     C        17:52:54:03 17:52:56:08 01:02:55:18 01:02:57:22 
* FROM CLIP NAME:  2D-2 
* SOURCE FILE: A054C002_160819_R1BY
031  SR005    A     C        17:52:56:19 17:53:07:18 01:02:57:22 01:03:08:20 
* FROM CLIP NAME:  2D-2 
* SOURCE FILE: A054C002_160819_R1BY
032  ANTI-RUS A3    C        00:00:00:00 00:00:00:00 01:03:05:07 01:03:06:13 
* FROM CLIP NAME:  ANTI-RUSSIA_ANTI-COMMUNISM_EDUCATIONALVIDEO_1952.MP3 
* PATCH ANTI-RUS:  FROM SOURCE 1 TO RECORD 3 
* SOURCE FILE: ANTI-RUSSIA_ANTI-COMMUNISM_EDUCATIONALVIDEO_1952.MP3
033  ANTI-RUS A3    C        00:00:00:00 00:00:00:00 01:03:06:13 01:03:31:07 
* FROM CLIP NAME:  ANTI-RUSSIA_ANTI-COMMUNISM_EDUCATIONALVIDEO_1952.MP3 
* PATCH ANTI-RUS:  FROM SOURCE 1 TO RECORD 3 
* SOURCE FILE: ANTI-RUSSIA_ANTI-COMMUNISM_EDUCATIONALVIDEO_1952.MP3
034  SR005    A     C        17:45:43:03 17:45:46:20 01:03:08:20 01:03:12:12 
* FROM CLIP NAME:  2C-3A 
* SOURCE FILE: A054C002_160819_R1BY
035  SR005    A     C        18:25:42:08 18:25:44:02 01:03:12:12 01:03:14:05 
* FROM CLIP NAME:  2E-2A 
* SOURCE FILE: A054C002_160819_R1BY
036  SR005    A     C        17:53:14:09 17:53:15:17 01:03:14:05 01:03:15:12 
* FROM CLIP NAME:  2D-2 
* PATCH SR005:  FROM SOURCE 4 TO RECORD 1 
* SOURCE FILE: A054C002_160819_R1BY
037  SR005    A     C        18:42:45:07 18:42:46:02 01:03:15:12 01:03:16:06 
* FROM CLIP NAME:  2F-1 
* PATCH SR005:  FROM SOURCE 2 TO RECORD 1 
* SOURCE FILE: A054C002_160819_R1BY
038  SR005    A     C        18:41:59:23 18:42:00:14 01:03:16:06 01:03:16:20 
* FROM CLIP NAME:  2F-1 
* SOURCE FILE: A054C002_160819_R1BY
039  SR005    A     C        16:55:06:18 16:55:08:11 01:03:16:20 01:03:18:12 
* FROM CLIP NAME:  2B-2A 
* SOURCE FILE: A054C002_160819_R1BY
040  SR005    A     C        16:55:08:10 16:55:11:08 01:03:18:12 01:03:21:09 
* FROM CLIP NAME:  2B-2A 
* SOURCE FILE: A054C002_160819_R1BY
041  SR005    A     C        18:29:51:04 18:29:55:13 01:03:21:09 01:03:25:17 
* FROM CLIP NAME:  2E-3A 
* SOURCE FILE: A054C002_160819_R1BY
042  SR005    A     C        16:55:15:20 16:55:18:15 01:03:25:17 01:03:28:11 
* FROM CLIP NAME:  2B-2A 
* SOURCE FILE: A054C002_160819_R1BY
043  SR005    A     C        18:41:27:07 18:41:30:04 01:03:28:11 01:03:31:07 
* FROM CLIP NAME:  2F-1 
* SOURCE FILE: A054C002_160819_R1BY
044  SR006    A     C        16:04:48:18 16:04:56:07 01:03:31:07 01:03:38:19 
* FROM CLIP NAME:  3-5A 
* SOURCE FILE: A062C004_160822_R1BY
045  SR006    A2    C        16:04:56:21 16:04:58:13 01:03:37:04 01:03:38:19 
* FROM CLIP NAME:  3-5A 
* PATCH SR006:  FROM SOURCE 1 TO RECORD 2 
* SOURCE FILE: A062C004_160822_R1BY
046  SR006    A2    C        16:04:59:18 16:05:01:09 01:03:38:19 01:03:40:09 
* FROM CLIP NAME:  3-5A 
* PATCH SR006:  FROM SOURCE 1 TO RECORD 2 
* SOURCE FILE: A062C004_160822_R1BY
047  SR006    A     C        15:55:32:02 15:55:33:15 01:03:40:09 01:03:41:21 
* FROM CLIP NAME:  3-3A 
* SOURCE FILE: A062C004_160822_R1BY
048  SR006    A     C        15:55:34:09 15:55:36:18 01:03:41:21 01:03:44:05 
* FROM CLIP NAME:  3-3A 
* SOURCE FILE: A062C004_160822_R1BY
049  SR006    A     C        17:47:13:10 17:47:16:00 01:03:44:05 01:03:46:18 
* FROM CLIP NAME:  3D-1A 
* SOURCE FILE: A062C004_160822_R1BY
050  SR006    A     C        16:33:43:16 16:33:45:23 01:03:46:18 01:03:49:00 
* FROM CLIP NAME:  3A-3 
* SOURCE FILE: A062C004_160822_R1BY
051  SR006    A     C        17:47:27:14 17:47:29:05 01:03:49:00 01:03:50:14 
* FROM CLIP NAME:  3D-1A 
* SOURCE FILE: A062C004_160822_R1BY
052  SR006    A     C        16:33:58:12 16:33:59:12 01:03:50:14 01:03:51:13 
* FROM CLIP NAME:  3A-3 
* SOURCE FILE: A062C004_160822_R1BY
053  SR006    A     C        18:02:33:22 18:02:34:19 01:03:51:13 01:03:52:09 
* FROM CLIP NAME:  3E-1 
* SOURCE FILE: A062C004_160822_R1BY
054  SR006    A     C        18:02:35:07 18:02:37:23 01:03:52:09 01:03:55:00 
* FROM CLIP NAME:  3E-1 
* SOURCE FILE: A062C004_160822_R1BY
055  SR006    A     C        17:47:36:07 17:47:45:00 01:03:55:00 01:04:03:16 
* FROM CLIP NAME:  3D-1A 
* SOURCE FILE: A062C004_160822_R1BY
056  SR006    A     C        17:47:45:11 17:47:46:06 01:04:03:16 01:04:04:10 
* FROM CLIP NAME:  3D-1A 
* SOURCE FILE: A062C004_160822_R1BY
057  SR006    A     C        16:26:41:20 16:26:46:00 01:04:04:10 01:04:08:13 
* FROM CLIP NAME:  3A-2 
* SOURCE FILE: A062C004_160822_R1BY
058  SR006    A     C        16:26:46:20 16:26:50:08 01:04:08:13 01:04:12:00 
* FROM CLIP NAME:  3A-2 
* SOURCE FILE: A062C004_160822_R1BY
059  SR006    A     C        16:26:50:14 16:26:51:21 01:04:12:00 01:04:13:06 
* FROM CLIP NAME:  3A-2 
* SOURCE FILE: A062C004_160822_R1BY
060  SR006    A     C        18:04:26:15 18:04:29:18 01:04:13:06 01:04:16:08 
* FROM CLIP NAME:  3E-1 
* SOURCE FILE: A062C004_160822_R1BY
061  SR006    A     C        18:04:30:01 18:04:30:11 01:04:16:08 01:04:16:17 
* FROM CLIP NAME:  3E-1 
* SOURCE FILE: A062C004_160822_R1BY
062  SR006    A     C        18:04:32:23 18:04:39:06 01:04:16:17 01:04:22:23 
* FROM CLIP NAME:  3E-1 
* SOURCE FILE: A062C004_160822_R1BY
063  SR006    A     C        18:03:06:15 18:03:07:01 01:04:22:23 01:04:23:08 
* FROM CLIP NAME:  3E-1 
* SOURCE FILE: A062C004_160822_R1BY
064  SR006    A     C        18:06:19:19 18:06:20:01 01:04:23:08 01:04:23:13 
* FROM CLIP NAME:  3E-1 
* SOURCE FILE: A062C004_160822_R1BY
065  SR006    A     C        18:06:21:04 18:06:32:08 01:04:23:13 01:04:34:16 
* FROM CLIP NAME:  3E-1 
* SOURCE FILE: A062C004_160822_R1BY
066  SR006    A     C        18:06:33:15 18:06:36:01 01:04:34:16 01:04:37:01 
* FROM CLIP NAME:  3E-1 
* SOURCE FILE: A062C004_160822_R1BY
067  SR006    A     C        15:48:54:10 15:49:01:21 01:04:37:01 01:04:44:11 
* FROM CLIP NAME:  3-2A 
* SOURCE FILE: A062C004_160822_R1BY
068  SR006    A2    C        17:48:38:05 17:48:39:04 01:04:43:23 01:04:44:21 
* FROM CLIP NAME:  3D-1A 
* PATCH SR006:  FROM SOURCE 1 TO RECORD 2 
* SOURCE FILE: A062C004_160822_R1BY
069  SR006    A     C        18:05:12:13 18:05:13:00 01:04:44:11 01:04:44:21 
* FROM CLIP NAME:  3E-1 
* SOURCE FILE: A062C004_160822_R1BY
070  SR006    A     C        17:48:39:21 17:48:42:15 01:04:44:21 01:04:47:14 
* FROM CLIP NAME:  3D-1A 
* SOURCE FILE: A062C004_160822_R1BY
071  SR006    A     C        16:06:58:01 16:06:58:23 01:04:47:14 01:04:48:11 
* FROM CLIP NAME:  3-5A 
* SOURCE FILE: A062C004_160822_R1BY
072  SR006    A     C        16:00:44:07 16:00:45:14 01:04:48:11 01:04:49:17 
* FROM CLIP NAME:  3-4A 
* SOURCE FILE: A062C004_160822_R1BY
073  SR006    A     C        19:08:21:01 19:08:22:02 01:04:49:17 01:04:50:17 
* FROM CLIP NAME:  3H-2A 
* SOURCE FILE: A062C004_160822_R1BY
074  SR006    A     C        19:08:22:14 19:08:23:11 01:04:50:17 01:04:51:13 
* FROM CLIP NAME:  3H-2A 
* SOURCE FILE: A062C004_160822_R1BY
075  SR006    A     C        19:08:23:20 19:08:25:18 01:04:51:13 01:04:53:10 
* FROM CLIP NAME:  3H-2A 
* SOURCE FILE: A062C004_160822_R1BY
076  SR006    A2    C        16:07:26:02 16:07:27:23 01:04:51:21 01:04:53:17 
* FROM CLIP NAME:  3-5A 
* PATCH SR006:  FROM SOURCE 1 TO RECORD 2 
* SOURCE FILE: A062C004_160822_R1BY
077  SR006    A     C        16:07:31:22 16:07:35:16 01:04:53:10 01:04:57:03 
* FROM CLIP NAME:  3-5A 
* SOURCE FILE: A062C004_160822_R1BY
078  SR006    A     C        18:40:21:08 18:40:26:21 01:04:57:03 01:05:02:15 
* FROM CLIP NAME:  3G-3 
* SOURCE FILE: A062C004_160822_R1BY
079  SR006    A     C        17:09:24:23 17:09:28:22 01:05:02:15 01:05:06:13 
* FROM CLIP NAME:  3B-3 
* SOURCE FILE: A062C004_160822_R1BY
080  SR006    A     C        18:40:32:19 18:40:35:12 01:05:06:13 01:05:09:05 
* FROM CLIP NAME:  3G-3 
* SOURCE FILE: A062C004_160822_R1BY
081  SR006    A     C        18:40:34:20 18:40:36:08 01:05:09:05 01:05:10:16 
* FROM CLIP NAME:  3G-3 
* SOURCE FILE: A062C004_160822_R1BY
082  SR006    A     C        18:40:36:22 18:40:37:13 01:05:10:16 01:05:11:06 
* FROM CLIP NAME:  3G-3 
* SOURCE FILE: A062C004_160822_R1BY
083  SR006    A     C        18:41:45:10 18:41:47:15 01:05:11:06 01:05:13:10 
* FROM CLIP NAME:  3G-3 
* SOURCE FILE: A062C004_160822_R1BY
084  SR006    A     C        18:41:47:22 18:41:50:02 01:05:13:10 01:05:15:13 
* FROM CLIP NAME:  3G-3 
* SOURCE FILE: A062C004_160822_R1BY
085  SR006    A     C        16:57:01:11 16:57:05:12 01:05:15:13 01:05:19:13 
* FROM CLIP NAME:  3B-1A 
* SOURCE FILE: A062C004_160822_R1BY
086  SR006    A     C        18:40:45:18 18:40:51:01 01:05:19:13 01:05:24:19 
* FROM CLIP NAME:  3G-3 
* SOURCE FILE: A062C004_160822_R1BY
087  SR006    A3    C        17:20:12:19 17:20:14:14 01:05:22:16 01:05:24:10 
* FROM CLIP NAME:  3C-1 
* PATCH SR006:  FROM SOURCE 1 TO RECORD 3 
* SOURCE FILE: A062C004_160822_R1BY
088  SR006    A     C        16:36:23:19 16:36:27:16 01:05:24:19 01:05:28:15 
* FROM CLIP NAME:  3A-3 
* SOURCE FILE: A062C004_160822_R1BY
089  SR006    A2    C        19:08:39:10 19:08:41:04 01:05:25:07 01:05:27:00 
* FROM CLIP NAME:  3H-2A 
* PATCH SR006:  FROM SOURCE 1 TO RECORD 2 
* SOURCE FILE: A062C004_160822_R1BY
090  SR006    A2    C        19:08:43:07 19:08:45:02 01:05:27:00 01:05:28:18 
* FROM CLIP NAME:  3H-2A 
* PATCH SR006:  FROM SOURCE 1 TO RECORD 2 
* SOURCE FILE: A062C004_160822_R1BY
091  SR006    A     C        16:36:28:11 16:36:28:15 01:05:28:15 01:05:28:18 
* FROM CLIP NAME:  3A-3 
* SOURCE FILE: A062C004_160822_R1BY
092  65675056 A3    C        00:00:00:00 00:00:00:00 01:05:28:18 01:05:33:08 
* FROM CLIP NAME:  65675056673-10-NTSC-DV.MOV 
* PATCH 65675056:  FROM SOURCE 1 TO RECORD 3 
* SOURCE FILE: 65675056673-10-NTSC-DV.MOV
093  65675056 A3    C        00:00:00:00 00:00:00:00 01:05:33:08 01:05:38:18 
* FROM CLIP NAME:  65675056673-10-NTSC-DV.MOV 
* PATCH 65675056:  FROM SOURCE 1 TO RECORD 3 
* SOURCE FILE: 65675056673-10-NTSC-DV.MOV
094  SR005    A     C        16:30:28:14 16:30:30:03 01:05:37:06 01:05:38:18 
* FROM CLIP NAME:  2A-3A 
* SOURCE FILE: A054C002_160819_R1BY
095  SR005    A     C        16:49:53:06 16:49:55:11 01:05:38:18 01:05:40:22 
* FROM CLIP NAME:  2B-1A 
* SOURCE FILE: A054C002_160819_R1BY
096  65675056 A3    C        00:00:00:00 00:00:00:00 01:05:38:18 01:05:40:22 
* FROM CLIP NAME:  65675056673-10-NTSC-DV.MOV 
* PATCH 65675056:  FROM SOURCE 1 TO RECORD 3 
* SOURCE FILE: 65675056673-10-NTSC-DV.MOV
097  SR007    A     C        10:01:01:12 10:01:04:00 01:05:40:22 01:05:43:09 
* FROM CLIP NAME:  4C-1A 
* SOURCE FILE: A068C008_160823_R1BY
098  SR007    A     C        10:13:57:18 10:13:59:11 01:05:43:09 01:05:45:01 
* FROM CLIP NAME:  4C-3A 
* SOURCE FILE: A068C008_160823_R1BY
099  JAKE_NO_ A2    C        00:00:00:00 00:00:00:00 01:05:43:16 01:05:44:10 
* FROM CLIP NAME:  JAKE NO TAKE 2.M4A 
* PATCH JAKE_NO1:  FROM SOURCE 1 TO RECORD 2 
* LOC: 01:05:43:16 RED 
* SOURCE FILE: JAKE NO TAKE 2.M4A
100  SR007    A     C        10:01:07:00 10:01:08:21 01:05:45:01 01:05:46:21 
* FROM CLIP NAME:  4C-1A 
* SOURCE FILE: A068C008_160823_R1BY
101  SR007    A     C        10:14:02:20 10:14:03:09 01:05:46:21 01:05:47:09 
* FROM CLIP NAME:  4C-3A 
* SOURCE FILE: A068C008_160823_R1BY
102  SR007    A     C        10:14:03:08 10:14:04:17 01:05:47:09 01:05:48:17 
* FROM CLIP NAME:  4C-3A 
* SOURCE FILE: A068C008_160823_R1BY
103  JAKE_NO_ A2    C        00:00:00:00 00:00:00:00 01:05:47:10 01:05:48:02 
* FROM CLIP NAME:  JAKE NO TAKE 1.M4A 
* PATCH JAKE_NO_:  FROM SOURCE 1 TO RECORD 2 
* SOURCE FILE: JAKE NO TAKE 1.M4A
104  SR007    A     C        10:01:10:16 10:01:16:16 01:05:48:17 01:05:54:16 
* FROM CLIP NAME:  4C-1A 
* SOURCE FILE: A068C008_160823_R1BY
105  SR007    A     C        10:01:31:11 10:01:32:16 01:05:54:16 01:05:55:20 
* FROM CLIP NAME:  4C-1A 
* SOURCE FILE: A068C008_160823_R1BY
106  SR007    A     C        10:14:10:00 10:14:11:21 01:05:55:20 01:05:57:16 
* FROM CLIP NAME:  4C-3A 
* SOURCE FILE: A068C008_160823_R1BY
107  JAKE_SOM A2    C        00:00:00:00 00:00:00:00 01:05:56:15 01:05:58:03 
* FROM CLIP NAME:  JAKE SOMETIMES TAKE 1.M4A 
* PATCH JAKE_SOM:  FROM SOURCE 1 TO RECORD 2 
* LOC: 01:05:56:20 RED 
* SOURCE FILE: JAKE SOMETIMES TAKE 1.M4A
108  SR007    A     C        10:01:38:14 10:01:41:14 01:05:57:16 01:06:00:15 
* FROM CLIP NAME:  4C-1A 
* SOURCE FILE: A068C008_160823_R1BY
109  SR007    A     C        10:01:22:14 10:01:24:17 01:06:00:15 01:06:02:17 
* FROM CLIP NAME:  4C-1A 
* SOURCE FILE: A068C008_160823_R1BY
110  SR007    A     C        10:01:25:01 10:01:27:15 01:06:02:17 01:06:05:06 
* FROM CLIP NAME:  4C-1A 
* SOURCE FILE: A068C008_160823_R1BY
111  SR007    A     C        10:14:18:16 10:14:22:03 01:06:05:06 01:06:08:16 
* FROM CLIP NAME:  4C-3A 
* SOURCE FILE: A068C008_160823_R1BY
112  JAKE_I_K A2    C        00:00:00:00 00:00:00:00 01:06:05:11 01:06:08:09 
* FROM CLIP NAME:  JAKE I KNOW WHERE THEY GO TAKE 2.M4A 
* PATCH JAKE_I_K:  FROM SOURCE 1 TO RECORD 2 
* LOC: 01:06:05:12 RED 
* SOURCE FILE: JAKE I KNOW WHERE THEY GO TAKE 2.M4A
113  SR007    A     C        10:01:31:11 10:01:32:03 01:06:08:16 01:06:09:07 
* FROM CLIP NAME:  4C-1A 
* SOURCE FILE: A068C008_160823_R1BY
114  SR007    A     C        10:01:31:15 10:01:32:03 01:06:09:07 01:06:09:18 
* FROM CLIP NAME:  4C-1A 
* SOURCE FILE: A068C008_160823_R1BY
115  SR007    A     C        10:01:32:02 10:01:36:08 01:06:09:18 01:06:13:23 
* FROM CLIP NAME:  4C-1A 
* SOURCE FILE: A068C008_160823_R1BY
116  TEMP_ADR A     C        00:00:00:00 00:00:00:00 01:06:13:23 01:06:17:03 
* FROM CLIP NAME:  CHRISTIAN WHISPER 3 
* SOURCE FILE: TEMP ADR
117  JAKE_THE A2    C        00:00:00:00 00:00:00:00 01:06:16:20 01:06:18:05 
* FROM CLIP NAME:  JAKE THEY GO INTO THE DARK TAKE .M4A 
* PATCH JAKE_THE:  FROM SOURCE 1 TO RECORD 2 
* SOURCE FILE: JAKE THEY GO INTO THE DARK TAKE 2.M4A
118  LUCAS_TH A2    C        00:00:00:00 00:00:00:00 01:06:18:05 01:06:19:01 
* FROM CLIP NAME:  LUCAS THEY GO INTO THE DARK TAKE 1.M4A 
* PATCH LUCAS_TH:  FROM SOURCE 1 TO RECORD 2 
* SOURCE FILE: LUCAS THEY GO INTO THE DARK TAKE 1.M4A
119  SR007    A     C        10:14:28:04 10:14:30:01 01:06:18:09 01:06:20:05 
* FROM CLIP NAME:  4C-3A 
* SOURCE FILE: A068C008_160823_R1BY
120  JAKE_THE A2    C        00:00:00:00 00:00:00:00 01:06:19:01 01:06:19:03 
* FROM CLIP NAME:  JAKE THEY GO INTO THE DARK TAKE .M4A 
* PATCH JAKE_THE:  FROM SOURCE 1 TO RECORD 2 
* SOURCE FILE: JAKE THEY GO INTO THE DARK TAKE 2.M4A
121  SR007    A     C        10:14:30:03 10:14:35:15 01:06:20:05 01:06:25:16 
* FROM CLIP NAME:  4C-3A 
* SOURCE FILE: A068C008_160823_R1BY
122  SR007    A     C        10:14:38:23 10:14:46:03 01:06:25:16 01:06:32:19 
* FROM CLIP NAME:  4C-3A 
* SOURCE FILE: A068C008_160823_R1BY
123  SR007    A     C        09:03:25:09 09:03:28:02 01:06:33:11 01:06:36:03 
* FROM CLIP NAME:  4A-3A 
* SOURCE FILE: A068C008_160823_R1BY
124  SR007    A     C        09:03:27:06 09:03:27:13 01:06:36:03 01:06:36:09 
* FROM CLIP NAME:  4A-3A 
* SOURCE FILE: A068C008_160823_R1BY
125  TEMP_ADR A3    C        00:00:00:00 00:00:00:00 01:06:36:06 01:06:36:22 
* FROM CLIP NAME:  HEAVY BREATHING, YELPS 
* PATCH TEMP_ADR:  FROM SOURCE 1 TO RECORD 3 
* SOURCE FILE: TEMP ADR
126  SR007    A     C        09:03:25:09 09:03:25:11 01:06:36:09 01:06:36:10 
* FROM CLIP NAME:  4A-3A 
* SOURCE FILE: A068C008_160823_R1BY
127  SR007    A     C        09:03:24:00 09:03:35:15 01:06:36:10 01:06:48:00 
* FROM CLIP NAME:  4A-3A 
* SOURCE FILE: A068C008_160823_R1BY
128  SR007    A2    C        08:59:35:23 08:59:39:01 01:06:36:17 01:06:39:18 
* FROM CLIP NAME:  4A-2A 
* PATCH SR007:  FROM SOURCE 1 TO RECORD 2 
* SOURCE FILE: A068C008_160823_R1BY
129  TEMP_ADR A3    C        00:00:00:00 00:00:00:00 01:06:37:19 01:06:38:19 
* FROM CLIP NAME:  HEAVY BREATHING, YELPS 
* PATCH TEMP_ADR:  FROM SOURCE 1 TO RECORD 3 
* SOURCE FILE: TEMP ADR
130  SR007    A     C        08:56:18:15 08:56:43:09 01:06:48:00 01:07:12:17 
* FROM CLIP NAME:  4A-1A 
* SOURCE FILE: A068C008_160823_R1BY
131  SR007    A2    C        08:59:48:13 08:59:56:21 01:06:49:18 01:06:58:01 
* FROM CLIP NAME:  4A-2A 
* PATCH SR007:  FROM SOURCE 1 TO RECORD 2 
* SOURCE FILE: A068C008_160823_R1BY
132  SR025    A3    C        16:06:12:05 16:06:16:00 01:07:01:18 01:07:05:12 
* FROM CLIP NAME:  V99H-1 
* PATCH SR025:  FROM SOURCE 1 TO RECORD 3 
* SOURCE FILE: B194C001_160919_R16W
133  SR025    A3    C        16:05:41:11 16:05:48:17 01:07:05:12 01:07:12:17 
* FROM CLIP NAME:  V99H-1 
* PATCH SR025:  FROM SOURCE 1 TO RECORD 3 
* SOURCE FILE: B194C001_160919_R16W
134  SR007    A     C        14:32:06:22 14:32:09:15 01:07:12:17 01:07:15:09 
* FROM CLIP NAME:  4M-1 
* SOURCE FILE: A068C008_160823_R1BY
135  SR007    A     C        14:16:25:03 14:16:27:23 01:07:15:09 01:07:18:04 
* FROM CLIP NAME:  4L-2A 
* SOURCE FILE: A068C008_160823_R1BY
136  SR007    A     C        14:23:41:22 14:23:42:07 01:07:18:04 01:07:18:12 
* FROM CLIP NAME:  4L-3A 
* SOURCE FILE: A068C008_160823_R1BY
137  SR007    A     C        14:23:43:06 14:23:43:18 01:07:18:12 01:07:18:23 
* FROM CLIP NAME:  4L-3A 
* SOURCE FILE: A068C008_160823_R1BY
138  SR007    A     C        14:16:48:00 14:16:48:05 01:07:18:23 01:07:19:03 
* FROM CLIP NAME:  4L-2A 
* SOURCE FILE: A068C008_160823_R1BY
139  SR007    A     C        14:23:43:17 14:23:44:00 01:07:19:03 01:07:19:09 
* FROM CLIP NAME:  4L-3A 
* SOURCE FILE: A068C008_160823_R1BY
140  SR007    A     C        14:16:48:00 14:16:48:11 01:07:19:09 01:07:19:19 
* FROM CLIP NAME:  4L-2A 
* SOURCE FILE: A068C008_160823_R1BY
141  SR007    A     C        14:09:55:12 14:09:57:15 01:07:19:19 01:07:21:21 
* FROM CLIP NAME:  4L-1A 
* SOURCE FILE: A068C008_160823_R1BY
142  SR007    A     C        14:09:57:20 14:09:59:17 01:07:21:21 01:07:23:17 
* FROM CLIP NAME:  4L-1A 
* SOURCE FILE: A068C008_160823_R1BY
143  SR007    A2    C        14:25:26:10 14:25:28:01 01:07:22:13 01:07:24:03 
* FROM CLIP NAME:  4L-3A 
* PATCH SR007:  FROM SOURCE 1 TO RECORD 2 
* SOURCE FILE: A068C008_160823_R1BY
144  LAUGHTER A3    C        00:00:00:00 00:00:00:00 01:07:22:22 01:07:24:23 
* FROM CLIP NAME:  LAUGHTER,CHILD1 
* PATCH LAUGHTER:  FROM SOURCE 1 TO RECORD 3 
* SOURCE FILE: LAUGHTER,CHILD1
145  SR007    A     C        09:28:06:17 09:28:12:10 01:07:23:17 01:07:29:09 
* FROM CLIP NAME:  4B-2 
* SOURCE FILE: A068C008_160823_R1BY
146  SR007    A     C        12:24:39:16 12:24:43:07 01:07:29:09 01:07:32:23 
* FROM CLIP NAME:  4J-2 
* SOURCE FILE: A068C008_160823_R1BY
147  SR007    A     C        12:24:41:16 12:24:48:10 01:07:32:23 01:07:39:16 
* FROM CLIP NAME:  4J-2 
* SOURCE FILE: A068C008_160823_R1BY
148  SR007    A     C        12:34:26:00 12:34:32:22 01:07:39:16 01:07:46:13 
* FROM CLIP NAME:  4J-3 
* SOURCE FILE: A068C008_160823_R1BY
149  SR007    A2    C        14:25:24:05 14:25:24:08 01:07:45:23 01:07:46:01 
* FROM CLIP NAME:  4L-3A 
* PATCH SR007:  FROM SOURCE 1 TO RECORD 2 
* SOURCE FILE: A068C008_160823_R1BY
150  SR007    A2    C        14:25:24:07 14:25:25:12 01:07:46:01 01:07:47:05 
* FROM CLIP NAME:  4L-3A 
* PATCH SR007:  FROM SOURCE 1 TO RECORD 2 
* SOURCE FILE: A068C008_160823_R1BY
151  SR007    A     C        10:01:38:14 10:01:40:14 01:07:46:13 01:07:48:12 
* FROM CLIP NAME:  4C-1A 
* SOURCE FILE: A068C008_160823_R1BY
152  SR007    A     C        12:34:34:20 12:34:39:03 01:07:48:12 01:07:52:18 
* FROM CLIP NAME:  4J-3 
* SOURCE FILE: A068C008_160823_R1BY
153  SR007    A     C        14:33:06:15 14:33:09:20 01:07:52:18 01:07:55:22 
* FROM CLIP NAME:  4M-1.SUB.01 
* SOURCE FILE: A068C008_160823_R1BY
154  SR007    A     C        12:24:49:18 12:24:54:00 01:07:55:22 01:08:00:03 
* FROM CLIP NAME:  4J-2 
* SOURCE FILE: A068C008_160823_R1BY
155  SR007    A     C        12:24:57:13 12:25:04:09 01:08:00:03 01:08:06:22 
* FROM CLIP NAME:  4J-2 
* SOURCE FILE: A068C008_160823_R1BY
156  SR007    A     C        12:25:11:19 12:25:13:22 01:08:06:22 01:08:09:00 
* FROM CLIP NAME:  4J-2 
* SOURCE FILE: A068C008_160823_R1BY
157  SR007    A     C        12:34:49:11 12:34:53:12 01:08:09:00 01:08:13:00 
* FROM CLIP NAME:  4J-3 
* SOURCE FILE: A068C008_160823_R1BY
158  CARTER_S A2    C        00:00:00:00 00:00:00:00 01:08:13:21 01:08:14:14 
* FROM CLIP NAME:  CARTER SAND - GHOST BOY.MP3 
* PATCH CARTER_S:  FROM SOURCE 1 TO RECORD 2 
* SOURCE FILE: CARTER SAND - GHOST BOY.MP3
159  SR007    A     C        12:24:42:23 12:24:44:18 01:08:14:00 01:08:15:18 
* FROM CLIP NAME:  4J-2 
* SOURCE FILE: A068C008_160823_R1BY
160  SR007    A     C        11:52:30:10 11:52:33:15 01:08:15:18 01:08:18:22 
* FROM CLIP NAME:  4H-2 
* SOURCE FILE: A068C008_160823_R1BY
161  SR007    A2    C        11:03:24:01 11:03:26:01 01:08:18:22 01:08:20:21 
* FROM CLIP NAME:  4F-2A 
* PATCH SR007:  FROM SOURCE 1 TO RECORD 2 
* SOURCE FILE: A068C008_160823_R1BY
162  SR007    A     C        11:02:14:20 11:02:17:16 01:08:18:22 01:08:21:17 
* FROM CLIP NAME:  4F-2A 
* SOURCE FILE: A068C008_160823_R1BY
163  SR007    A2    C        11:03:23:05 11:03:26:01 01:08:20:22 01:08:23:17 
* FROM CLIP NAME:  4F-2A 
* PATCH SR007:  FROM SOURCE 1 TO RECORD 2 
* SOURCE FILE: A068C008_160823_R1BY
164  SR007    A     C        11:01:28:01 11:01:28:16 01:08:21:17 01:08:22:07 
* FROM CLIP NAME:  4F-2A 
* SOURCE FILE: A068C008_160823_R1BY
165  SR007    A     C        11:03:22:03 11:03:23:15 01:08:22:08 01:08:23:19 
* FROM CLIP NAME:  4F-2A 
* SOURCE FILE: A068C008_160823_R1BY
166  SR007    A     C        14:33:52:01 14:33:53:21 01:08:23:19 01:08:25:14 
* FROM CLIP NAME:  4M-1 
* SOURCE FILE: A068C008_160823_R1BY
167  SR007    A     C        11:35:46:23 11:35:47:16 01:08:25:14 01:08:26:06 
* FROM CLIP NAME:  4G-1 
* SOURCE FILE: A068C008_160823_R1BY
168  SR007    A     C        12:38:11:14 12:38:13:08 01:08:27:00 01:08:28:17 
* FROM CLIP NAME:  4J-3 
* SOURCE FILE: A068C008_160823_R1BY
169  SR007    A     C        14:33:58:05 14:33:58:22 01:08:28:17 01:08:29:09 
* FROM CLIP NAME:  4M-1 
* SOURCE FILE: A068C008_160823_R1BY
170  SR007    A     C        12:38:13:23 12:38:14:02 01:08:29:09 01:08:29:11 
* FROM CLIP NAME:  4J-3 
* TO CLIP NAME:  4M-1 
* SOURCE FILE: A068C008_160823_R1BY
171  SR007    A     C        12:38:14:01 12:38:15:12 01:08:29:11 01:08:30:21 
* FROM CLIP NAME:  4J-3 
* SOURCE FILE: A068C008_160823_R1BY
172  SR007    A2    C        11:03:22:11 11:03:24:23 01:08:29:18 01:08:32:05 
* FROM CLIP NAME:  4F-2A 
* PATCH SR007:  FROM SOURCE 1 TO RECORD 2 
* SOURCE FILE: A068C008_160823_R1BY
173  SR007    A3    C        12:34:52:22 12:34:55:08 01:08:30:12 01:08:32:21 
* FROM CLIP NAME:  4J-3 
* PATCH SR007:  FROM SOURCE 1 TO RECORD 3 
* SOURCE FILE: A068C008_160823_R1BY
174  SR007    A     C        11:54:59:11 11:54:59:14 01:08:30:21 01:08:30:23 
* FROM CLIP NAME:  4H-2 
* TO CLIP NAME:  4J-3 
* SOURCE FILE: A068C008_160823_R1BY
175  SR007    A     C        11:54:59:13 11:55:00:14 01:08:30:23 01:08:31:23 
* FROM CLIP NAME:  4H-2 
* SOURCE FILE: A068C008_160823_R1BY
176  TEMP_ADR A     C        00:00:00:00 00:00:00:00 01:08:31:23 01:08:33:09 
* FROM CLIP NAME:  COME OUT OF THE CLOSET 2 
* SOURCE FILE: TEMP ADR
177  SR007    A     C        11:02:56:03 11:02:57:20 01:08:33:09 01:08:35:01 
* FROM CLIP NAME:  4F-2A 
* SOURCE FILE: A068C008_160823_R1BY
178  SR007    A     C        11:02:59:03 11:03:01:00 01:08:35:01 01:08:36:21 
* FROM CLIP NAME:  4F-2A 
* SOURCE FILE: A068C008_160823_R1BY
179  SR007    A     C        12:38:06:13 12:38:07:08 01:08:36:21 01:08:37:15 
* FROM CLIP NAME:  4J-3 
* SOURCE FILE: A068C008_160823_R1BY
180  SR007    A     C        14:13:02:14 14:13:03:02 01:08:37:15 01:08:38:02 
* FROM CLIP NAME:  4L-1A 
* SOURCE FILE: A068C008_160823_R1BY
181  SR007    A     C        12:38:07:17 12:38:07:22 01:08:38:02 01:08:38:06 
* FROM CLIP NAME:  4J-3 
* TO CLIP NAME:  4L-1A 
* SOURCE FILE: A068C008_160823_R1BY
182  SR007    A     C        12:38:07:21 12:38:08:18 01:08:38:06 01:08:39:02 
* FROM CLIP NAME:  4J-3 
* SOURCE FILE: A068C008_160823_R1BY
183  CARTER_S A2    C        00:00:00:00 00:00:00:00 01:08:39:23 01:08:42:19 
* FROM CLIP NAME:  CARTER SAND - GHOST BOY.MP3 
* PATCH CARTER_S:  FROM SOURCE 1 TO RECORD 2 
* SOURCE FILE: CARTER SAND - GHOST BOY.MP3
184  CARTER_S A3    C        00:00:00:00 00:00:00:00 01:08:39:23 01:08:42:19 
* FROM CLIP NAME:  CARTER SAND - GHOST BOY.MP3 
* PATCH CARTER_S:  FROM SOURCE 2 TO RECORD 3 
* SOURCE FILE: CARTER SAND - GHOST BOY.MP3
185  SR025    A     C        16:07:47:12 16:07:50:03 01:08:40:05 01:08:42:19 
* FROM CLIP NAME:  V99H-1 
* SOURCE FILE: B194C001_160919_R16W
186  SR007    A     C        11:02:58:16 11:03:00:05 01:08:47:23 01:08:49:11 
* FROM CLIP NAME:  4F-2A 
* SOURCE FILE: A068C008_160823_R1BY
187  SR007    A     C        11:03:00:16 11:03:00:19 01:08:49:11 01:08:49:13 
* FROM CLIP NAME:  4F-2A 
* SOURCE FILE: A068C008_160823_R1BY
188  SR007    A3    C        10:58:22:09 10:58:23:00 01:08:49:11 01:08:50:01 
* FROM CLIP NAME:  4F-1A.SUB.01_BETTER SCREAMFOR KID 
* PATCH SR007:  FROM SOURCE 1 TO RECORD 3 
* SOURCE FILE: A068C008_160823_R1BY
189  SR007    A     C        11:26:48:03 11:26:48:07 01:08:49:13 01:08:49:16 
* FROM CLIP NAME:  4F-5PUA 
* SOURCE FILE: A068C008_160823_R1BY
190  SR007    A3    C        10:58:22:23 10:58:23:07 01:08:50:01 01:08:50:08 
* FROM CLIP NAME:  4F-1A.SUB.01_BETTER SCREAMFOR KID 
* PATCH SR007:  FROM SOURCE 1 TO RECORD 3 
* SOURCE FILE: A068C008_160823_R1BY
191  SR007    A3    C        10:58:23:05 10:58:23:22 01:08:50:08 01:08:51:00 
* FROM CLIP NAME:  4F-1A.SUB.01_BETTER SCREAMFOR KID 
* PATCH SR007:  FROM SOURCE 1 TO RECORD 3 
* SOURCE FILE: A068C008_160823_R1BY
192  SR007    A2    C        11:34:22:06 11:34:22:18 01:08:50:13 01:08:51:00 
* FROM CLIP NAME:  4G-1 
* PATCH SR007:  FROM SOURCE 1 TO RECORD 2 
* SOURCE FILE: A068C008_160823_R1BY
193  SR007    A     C        11:26:49:15 11:26:49:20 01:08:50:20 01:08:51:00 
* FROM CLIP NAME:  4F-5PUA 
* SOURCE FILE: A068C008_160823_R1BY
194  SR007    A3    C        10:58:23:21 10:58:24:06 01:08:51:00 01:08:51:08 
* FROM CLIP NAME:  4F-1A.SUB.01_BETTER SCREAMFOR KID 
* PATCH SR007:  FROM SOURCE 1 TO RECORD 3 
* SOURCE FILE: A068C008_160823_R1BY
195  SR007    A2    C        11:34:23:01 11:34:24:05 01:08:51:00 01:08:52:03 
* FROM CLIP NAME:  4G-1 
* PATCH SR007:  FROM SOURCE 1 TO RECORD 2 
* SOURCE FILE: A068C008_160823_R1BY
196  SR005    A     C        17:40:54:08 17:40:56:01 01:08:51:00 01:08:52:16 
* FROM CLIP NAME:  2C-2A 
* SOURCE FILE: A054C002_160819_R1BY
197  SR006    A     C        19:36:36:14 19:36:39:13 01:08:52:16 01:08:55:14 
* FROM CLIP NAME:  5-2A 
* SOURCE FILE: A062C004_160822_R1BY
198  SR006    A     C        19:36:42:01 19:36:44:00 01:08:55:14 01:08:57:12 
* FROM CLIP NAME:  5-2A 
* SOURCE FILE: A062C004_160822_R1BY
199  SR007    A     C        16:25:04:05 16:25:06:17 01:08:57:12 01:08:59:23 
* FROM CLIP NAME:  6D-1 
* SOURCE FILE: A068C008_160823_R1BY
200  SR007    A     C        16:26:29:12 16:26:31:01 01:08:59:23 01:09:01:11 
* FROM CLIP NAME:  6D-1 
* SOURCE FILE: A068C008_160823_R1BY
201  SR007    A2    C        17:19:42:08 17:19:43:19 01:09:01:03 01:09:02:13 
* FROM CLIP NAME:  6F-1A 
* PATCH SR007:  FROM SOURCE 1 TO RECORD 2 
* SOURCE FILE: A068C008_160823_R1BY
202  SR007    A     C        16:07:47:19 16:07:48:23 01:09:02:07 01:09:03:10 
* FROM CLIP NAME:  6C-3 
* SOURCE FILE: A068C008_160823_R1BY
203  SR007    A     C        15:58:11:07 15:58:12:09 01:09:03:10 01:09:04:11 
* FROM CLIP NAME:  6B-2A 
* SOURCE FILE: A068C008_160823_R1BY
204  SR007    A     C        16:23:14:02 16:23:15:16 01:09:04:11 01:09:06:00 
* FROM CLIP NAME:  6D-1 
* SOURCE FILE: A068C008_160823_R1BY
205  SR007    A     C        15:23:16:07 15:23:17:21 01:09:06:00 01:09:07:13 
* FROM CLIP NAME:  6-1A 
* SOURCE FILE: A068C008_160823_R1BY
206  SR007    A     C        17:23:21:03 17:23:21:19 01:09:07:13 01:09:08:04 
* FROM CLIP NAME:  6F-2A 
* SOURCE FILE: A068C008_160823_R1BY
207  SR007    A     C        15:32:01:08 15:32:04:18 01:09:08:04 01:09:11:13 
* FROM CLIP NAME:  6-2A 
* SOURCE FILE: A068C008_160823_R1BY
208  SR007    A     C        17:08:08:00 17:08:15:04 01:09:11:13 01:09:18:16 
* FROM CLIP NAME:  6E-3A 
* SOURCE FILE: A068C008_160823_R1BY
209  SR007    A     C        17:06:31:04 17:06:46:09 01:09:18:16 01:09:33:20 
* FROM CLIP NAME:  6E-3A 
* SOURCE FILE: A068C008_160823_R1BY
210  SR007    A     C        15:58:44:09 15:58:46:21 01:09:33:20 01:09:36:07 
* FROM CLIP NAME:  6B-2A 
* SOURCE FILE: A068C008_160823_R1BY
211  SR007    A     C        17:06:48:17 17:06:51:02 01:09:36:07 01:09:38:15 
* FROM CLIP NAME:  6E-3A 
* SOURCE FILE: A068C008_160823_R1BY
212  SR007    A     C        17:06:51:12 17:06:54:05 01:09:38:15 01:09:41:07 
* FROM CLIP NAME:  6E-3A 
* SOURCE FILE: A068C008_160823_R1BY
213  SR007    A2    C        17:24:18:08 17:24:21:09 01:09:39:01 01:09:42:01 
* FROM CLIP NAME:  6F-2A 
* PATCH SR007:  FROM SOURCE 1 TO RECORD 2 
* SOURCE FILE: A068C008_160823_R1BY
214  SR007    A     C        17:06:54:04 17:06:54:23 01:09:41:07 01:09:42:01 
* FROM CLIP NAME:  6E-3A 
* SOURCE FILE: A068C008_160823_R1BY
215  SR007    A     C        17:06:55:11 17:06:55:22 01:09:42:01 01:09:42:11 
* FROM CLIP NAME:  6E-3A 
* SOURCE FILE: A068C008_160823_R1BY
216  SR007    A     C        15:40:34:21 15:40:35:10 01:09:42:11 01:09:42:23 
* FROM CLIP NAME:  6A-1A 
* SOURCE FILE: A068C008_160823_R1BY
217  SR007    A2    C        17:24:13:02 17:24:14:22 01:09:42:11 01:09:44:06 
* FROM CLIP NAME:  6F-2A 
* PATCH SR007:  FROM SOURCE 1 TO RECORD 2 
* SOURCE FILE: A068C008_160823_R1BY
218  SR007    A     C        15:40:35:21 15:40:36:22 01:09:42:23 01:09:43:23 
* FROM CLIP NAME:  6A-1A 
* SOURCE FILE: A068C008_160823_R1BY
219  SR007    A     C        17:06:58:12 17:07:00:18 01:09:44:06 01:09:46:11 
* FROM CLIP NAME:  6E-3A 
* SOURCE FILE: A068C008_160823_R1BY
220  SR007    A     C        16:05:10:05 16:05:11:08 01:09:46:11 01:09:47:13 
* FROM CLIP NAME:  6C-2 
* SOURCE FILE: A068C008_160823_R1BY
221  SR007    A2    C        17:24:39:10 17:24:40:17 01:09:46:12 01:09:47:18 
* FROM CLIP NAME:  6F-2A 
* PATCH SR007:  FROM SOURCE 1 TO RECORD 2 
* SOURCE FILE: A068C008_160823_R1BY
222  SR007    A     C        16:05:11:18 16:05:12:14 01:09:47:13 01:09:48:08 
* FROM CLIP NAME:  6C-2 
* SOURCE FILE: A068C008_160823_R1BY
223  SR007    A2    C        16:05:03:23 16:05:04:01 01:09:48:03 01:09:48:04 
* FROM CLIP NAME:  6C-2 
* PATCH SR007:  FROM SOURCE 1 TO RECORD 2 
* SOURCE FILE: A068C008_160823_R1BY
224  SR007    A2    C        16:05:12:15 16:05:13:00 01:09:48:04 01:09:48:12 
* FROM CLIP NAME:  6C-2 
* PATCH SR007:  FROM SOURCE 1 TO RECORD 2 
* SOURCE FILE: A068C008_160823_R1BY
225  SR007    A     C        17:08:45:12 17:08:46:16 01:09:48:08 01:09:49:11 
* FROM CLIP NAME:  6E-3A 
* SOURCE FILE: A068C008_160823_R1BY
226  SR007    A2    C        15:23:46:12 15:23:46:19 01:09:49:04 01:09:49:10 
* FROM CLIP NAME:  6-1A 
* PATCH SR007:  FROM SOURCE 1 TO RECORD 2 
* SOURCE FILE: A068C008_160823_R1BY
227  SR007    A2    C        15:23:46:18 15:23:48:18 01:09:49:10 01:09:51:09 
* FROM CLIP NAME:  6-1A 
* PATCH SR007:  FROM SOURCE 1 TO RECORD 2 
* SOURCE FILE: A068C008_160823_R1BY
228  SR007    A     C        17:24:49:14 17:24:55:16 01:09:49:18 01:09:55:19 
* FROM CLIP NAME:  6F-2A 
* SOURCE FILE: A068C008_160823_R1BY
229  SR007    A2    C        15:58:58:07 15:59:00:10 01:09:51:09 01:09:53:11 
* FROM CLIP NAME:  6B-2A 
* PATCH SR007:  FROM SOURCE 1 TO RECORD 2 
* SOURCE FILE: A068C008_160823_R1BY
230  SR007    A2    C        15:54:19:16 15:54:20:01 01:09:53:11 01:09:53:19 
* FROM CLIP NAME:  6B-1A 
* TO CLIP NAME:  6B-2A 
* PATCH SR007:  FROM SOURCE 1 TO RECORD 2 
* PATCH SR007:  FROM SOURCE 1 TO RECORD 2 
* SOURCE FILE: A068C008_160823_R1BY
231  SR007    A2    C        15:54:20:00 15:54:21:22 01:09:53:19 01:09:55:16 
* FROM CLIP NAME:  6B-1A 
* PATCH SR007:  FROM SOURCE 1 TO RECORD 2 
* SOURCE FILE: A068C008_160823_R1BY
232  SR005    A     C        20:47:09:18 20:47:10:03 01:09:55:19 01:09:56:03 
* FROM CLIP NAME:  7-3A 
* TO CLIP NAME:  6F-2A 
* SOURCE FILE: A054C002_160819_R1BY
233  SR005    A     C        20:47:10:02 20:47:12:17 01:09:56:03 01:09:58:17 
* FROM CLIP NAME:  7-3A 
* SOURCE FILE: A054C002_160819_R1BY
234  SR005    A2    C        20:50:48:08 20:50:51:08 01:09:58:09 01:10:01:08 
* FROM CLIP NAME:  7A-2A 
* PATCH SR005:  FROM SOURCE 1 TO RECORD 2 
* SOURCE FILE: A054C002_160819_R1BY
235  SR005    A     C        21:30:30:20 21:30:32:17 01:10:00:20 01:10:02:16 
* FROM CLIP NAME:  7B-2A 
* SOURCE FILE: A054C002_160819_R1BY
236  SR005    A     C        21:29:02:01 21:29:03:09 01:10:02:16 01:10:03:23 
* FROM CLIP NAME:  7B-1A 
* SOURCE FILE: A054C002_160819_R1BY
237  SR005    A2    C        20:49:31:01 20:49:32:10 01:10:02:16 01:10:04:00 
* FROM CLIP NAME:  7A-1A 
* PATCH SR005:  FROM SOURCE 1 TO RECORD 2 
* SOURCE FILE: A054C002_160819_R1BY
238  SR005    A     C        21:59:04:14 21:59:04:16 01:10:03:23 01:10:04:00 
* FROM CLIP NAME:  7C-3 
* SOURCE FILE: A054C002_160819_R1BY
239  SR005    A     C        21:59:05:07 21:59:08:09 01:10:04:00 01:10:07:01 
* FROM CLIP NAME:  7C-3 
* SOURCE FILE: A054C002_160819_R1BY
240  SR005    A     C        21:59:09:23 21:59:11:17 01:10:07:01 01:10:08:18 
* FROM CLIP NAME:  7C-3 
* SOURCE FILE: A054C002_160819_R1BY
241  SR021    A     C        10:33:29:21 10:33:35:15 01:10:08:18 01:10:14:11 
* FROM CLIP NAME:  8A-3 
* SOURCE FILE: A204C003_160913_R1BY
242  SR021    A     C        12:12:10:02 12:12:10:05 01:10:14:11 01:10:14:13 
* FROM CLIP NAME:  9C-1 
* TO CLIP NAME:  8A-3 
* SOURCE FILE: A204C003_160913_R1BY
243  SR021    A     C        12:12:10:04 12:12:12:03 01:10:14:13 01:10:16:11 
* FROM CLIP NAME:  9C-1 
* SOURCE FILE: A204C003_160913_R1BY
244  SR021    A     C        12:12:13:11 12:12:16:19 01:10:16:11 01:10:19:18 
* FROM CLIP NAME:  9C-1 
* SOURCE FILE: A204C003_160913_R1BY
245  SR021    A     C        10:42:52:08 10:42:52:20 01:10:19:18 01:10:20:05 
* FROM CLIP NAME:  8B-2 
* SOURCE FILE: A204C003_160913_R1BY
246  SR021    A     C        12:16:13:21 12:16:15:07 01:10:20:05 01:10:21:14 
* FROM CLIP NAME:  9C-2 
* SOURCE FILE: A204C003_160913_R1BY
247  SR021    A2    C        11:49:18:06 11:49:23:22 01:10:20:11 01:10:26:02 
* FROM CLIP NAME:  9B-2 
* PATCH SR021:  FROM SOURCE 1 TO RECORD 2 
* SOURCE FILE: A204C003_160913_R1BY
248  SR021    A     C        11:25:53:20 11:25:55:10 01:10:25:20 01:10:27:09 
* FROM CLIP NAME:  9A-1 
* SOURCE FILE: A204C003_160913_R1BY
249  SR021    A     C        11:25:55:09 11:25:57:02 01:10:27:09 01:10:29:01 
* FROM CLIP NAME:  9A-1 
* SOURCE FILE: A204C003_160913_R1BY
250  SR021    A2    C        11:25:43:02 11:25:44:20 01:10:27:09 01:10:29:02 
* FROM CLIP NAME:  9A-1 
* PATCH SR021:  FROM SOURCE 1 TO RECORD 2 
* SOURCE FILE: A204C003_160913_R1BY
251  SR021    A     C        11:26:02:16 11:26:08:10 01:10:29:01 01:10:34:18 
* FROM CLIP NAME:  9A-1 
* SOURCE FILE: A204C003_160913_R1BY
252  SR021    A     C        12:16:42:16 12:16:45:20 01:10:34:18 01:10:37:21 
* FROM CLIP NAME:  9C-2 
* SOURCE FILE: A204C003_160913_R1BY
253  SR021    A     C        12:22:02:07 12:22:05:11 01:10:37:21 01:10:41:00 
* FROM CLIP NAME:  9C-3 
* SOURCE FILE: A204C003_160913_R1BY
254  SR021    A     C        12:17:48:12 12:17:52:08 01:10:41:00 01:10:44:19 
* FROM CLIP NAME:  9C-2 
* SOURCE FILE: A204C003_160913_R1BY
255  SR021    A     C        12:22:09:05 12:22:15:12 01:10:44:19 01:10:51:01 
* FROM CLIP NAME:  9C-3 
* SOURCE FILE: A204C003_160913_R1BY
256  SR021    A     C        11:06:07:08 11:06:09:13 01:10:51:01 01:10:53:05 
* FROM CLIP NAME:  9-2A 
* SOURCE FILE: A204C003_160913_R1BY
257  SR021    A     C        12:43:00:15 12:43:01:11 01:10:53:05 01:10:54:00 
* FROM CLIP NAME:  9D-1A 
* SOURCE FILE: A204C003_160913_R1BY
258  SR021    A     C        12:43:04:07 12:43:12:20 01:10:54:00 01:11:02:12 
* FROM CLIP NAME:  9D-1A 
* SOURCE FILE: A204C003_160913_R1BY
259  SR021    A     C        12:43:14:23 12:43:16:06 01:11:02:12 01:11:03:18 
* FROM CLIP NAME:  9D-1A 
* SOURCE FILE: A204C003_160913_R1BY
260  SR021    A     C        12:59:34:18 12:59:39:09 01:11:03:18 01:11:08:08 
* FROM CLIP NAME:  9E-3B 
* SOURCE FILE: A204C003_160913_R1BY
261  SR021    A     C        12:59:32:01 12:59:33:03 01:11:08:08 01:11:09:09 
* FROM CLIP NAME:  9E-3B 
* SOURCE FILE: A204C003_160913_R1BY
262  SR021    A     C        12:59:40:09 12:59:40:20 01:11:09:09 01:11:09:19 
* FROM CLIP NAME:  9E-3B 
* SOURCE FILE: A204C003_160913_R1BY
263  SR021    A2    C        13:00:09:19 13:00:11:14 01:11:09:19 01:11:11:13 
* FROM CLIP NAME:  9E-3B 
* PATCH SR021:  FROM SOURCE 1 TO RECORD 2 
* SOURCE FILE: A204C003_160913_R1BY
264  SR021    A     C        12:59:44:18 12:59:52:20 01:11:09:19 01:11:17:20 
* FROM CLIP NAME:  9E-3B 
* SOURCE FILE: A204C003_160913_R1BY
265  SR021    A2    C        13:00:12:21 13:00:14:16 01:11:12:21 01:11:14:15 
* FROM CLIP NAME:  9E-3B 
* PATCH SR021:  FROM SOURCE 1 TO RECORD 2 
* SOURCE FILE: A204C003_160913_R1BY
266  SR021    A2    C        13:00:15:16 13:00:17:21 01:11:15:16 01:11:17:20 
* FROM CLIP NAME:  9E-3B 
* PATCH SR021:  FROM SOURCE 1 TO RECORD 2 
* SOURCE FILE: A204C003_160913_R1BY
267  SR022    A2    C        19:07:47:13 19:07:49:17 01:11:17:20 01:11:19:23 
* FROM CLIP NAME:  11K-2A 
* PATCH SR022:  FROM SOURCE 1 TO RECORD 2 
* SOURCE FILE: A214C008_160914_R1BY
268  SR007    A3    C        09:03:25:12 09:03:30:10 01:11:18:22 01:11:23:19 
* FROM CLIP NAME:  4A-3A 
* PATCH SR007:  FROM SOURCE 1 TO RECORD 3 
* SOURCE FILE: A068C008_160823_R1BY
269  SR022    A     C        11:34:43:16 11:34:47:13 01:11:19:23 01:11:23:19 
* FROM CLIP NAME:  9F-5A 
* SOURCE FILE: A214C008_160914_R1BY
270  SR007    A3    C        09:03:30:09 09:03:39:08 01:11:23:19 01:11:32:17 
* FROM CLIP NAME:  4A-3A 
* PATCH SR007:  FROM SOURCE 1 TO RECORD 3 
* SOURCE FILE: A068C008_160823_R1BY
271  SR022    A     C        11:34:47:09 11:34:57:09 01:11:23:19 01:11:33:18 
* FROM CLIP NAME:  9F-5A 
* SOURCE FILE: A214C008_160914_R1BY
272  SR007    A3    C        09:03:45:11 09:04:01:15 01:11:32:17 01:11:48:20 
* FROM CLIP NAME:  4A-3A 
* PATCH SR007:  FROM SOURCE 1 TO RECORD 3 
* SOURCE FILE: A068C008_160823_R1BY
273  SR022    A     C        19:08:06:13 19:08:11:19 01:11:33:18 01:11:38:23 
* FROM CLIP NAME:  11K-2A 
* SOURCE FILE: A214C008_160914_R1BY
274  SR022    A     C        11:35:16:08 11:35:25:06 01:11:38:23 01:11:47:20 
* FROM CLIP NAME:  9F-5A 
* SOURCE FILE: A214C008_160914_R1BY
275  SR007    A     C        09:25:28:01 09:25:28:19 01:11:48:01 01:11:48:18 
* FROM CLIP NAME:  4B-1 
* SOURCE FILE: A068C008_160823_R1BY
276  TEMP_ADR A2    C        00:00:00:00 00:00:00:00 01:11:48:17 01:11:49:08 
* FROM CLIP NAME:  YELPS 
* PATCH TEMP_ADR:  FROM SOURCE 1 TO RECORD 2 
* SOURCE FILE: TEMP ADR
277  SR022    A     C        19:08:18:22 19:08:33:16 01:11:48:18 01:12:03:11 
* FROM CLIP NAME:  11K-2A 
* SOURCE FILE: A214C008_160914_R1BY
278  SR007    A3    C        14:32:02:01 14:32:08:21 01:11:48:20 01:11:55:15 
* FROM CLIP NAME:  4M-1 
* PATCH SR007:  FROM SOURCE 1 TO RECORD 3 
* SOURCE FILE: A068C008_160823_R1BY
279  SR007    A3    C        14:30:52:20 14:30:58:12 01:11:55:15 01:12:01:06 
* FROM CLIP NAME:  4M-1 
* PATCH SR007:  FROM SOURCE 1 TO RECORD 3 
* SOURCE FILE: A068C008_160823_R1BY
280  CASSIDY_ A2    C        00:00:00:00 00:00:00:00 01:11:58:02 01:12:00:12 
* FROM CLIP NAME:  CASSIDY NABER -KF-2 TAKES.MP3 
* PATCH CASSIDY_:  FROM SOURCE 1 TO RECORD 2 
* SOURCE FILE: CASSIDY NABER -KF-2 TAKES.MP3
281  SR022    A2    C        13:11:17:02 13:11:18:23 01:12:01:03 01:12:02:23 
* FROM CLIP NAME:  9H-3A 
* PATCH SR022:  FROM SOURCE 1 TO RECORD 2 
* SOURCE FILE: A214C008_160914_R1BY
282  SR022    A2    C        13:11:19:12 13:11:21:10 01:12:02:23 01:12:04:20 
* FROM CLIP NAME:  9H-3A 
* PATCH SR022:  FROM SOURCE 1 TO RECORD 2 
* SOURCE FILE: A214C008_160914_R1BY
283  SR022    A     C        19:08:31:23 19:08:32:08 01:12:03:11 01:12:03:19 
* FROM CLIP NAME:  11K-2A 
* TO CLIP NAME:  11K-2A 
* SOURCE FILE: A214C008_160914_R1BY
284  SR022    A     C        19:08:32:07 19:08:34:12 01:12:03:19 01:12:05:23 
* FROM CLIP NAME:  11K-2A 
* SOURCE FILE: A214C008_160914_R1BY
285  CASSIDY_ A3    C        00:00:00:00 00:00:00:00 01:12:04:19 01:12:06:07 
* FROM CLIP NAME:  CASSIDY NABER -KF-2 TAKES.MP3 
* PATCH CASSIDY_:  FROM SOURCE 1 TO RECORD 3 
* SOURCE FILE: CASSIDY NABER -KF-2 TAKES.MP3
286  SR022    A2    C        21:02:54:01 21:02:55:08 01:12:04:20 01:12:06:02 
* FROM CLIP NAME:  9R-2 
* PATCH SR022:  FROM SOURCE 1 TO RECORD 2 
* SOURCE FILE: A214C008_160914_R1BY
287  SR022    A     C        13:11:21:14 13:11:23:09 01:12:05:23 01:12:07:17 
* FROM CLIP NAME:  9H-3A 
* SOURCE FILE: A214C008_160914_R1BY
288  SR022    A     C        13:11:28:18 13:11:30:05 01:12:07:17 01:12:09:03 
* FROM CLIP NAME:  9H-3A 
* SOURCE FILE: A214C008_160914_R1BY
289  SR022    A     C        13:11:24:18 13:11:26:02 01:12:09:03 01:12:10:10 
* FROM CLIP NAME:  9H-3A 
* SOURCE FILE: A214C008_160914_R1BY
290  CASSIDY_ A2    C        00:00:00:00 00:00:00:00 01:12:10:08 01:12:14:12 
* FROM CLIP NAME:  CASSIDY NABER -KF-2 TAKES.MP3 
* PATCH CASSIDY_:  FROM SOURCE 1 TO RECORD 2 
* SOURCE FILE: CASSIDY NABER -KF-2 TAKES.MP3
291  SR022    A     C        13:11:21:08 13:11:23:09 01:12:10:10 01:12:12:10 
* FROM CLIP NAME:  9H-3A 
* SOURCE FILE: A214C008_160914_R1BY
292  SR022    A     C        12:13:37:12 12:13:51:11 01:12:12:10 01:12:26:08 
* FROM CLIP NAME:  9G-3A 
* SOURCE FILE: A214C008_160914_R1BY
293  TEMP_ADR A3    C        00:00:00:00 00:00:00:00 01:12:14:01 01:12:15:20 
* FROM CLIP NAME:  HEAVY BREATHING, YELPS 
* PATCH TEMP_ADR:  FROM SOURCE 1 TO RECORD 3 
* SOURCE FILE: TEMP ADR
294  SR007    A2    C        09:03:44:01 09:03:50:18 01:12:14:22 01:12:21:14 
* FROM CLIP NAME:  4A-3A 
* PATCH SR007:  FROM SOURCE 1 TO RECORD 2 
* SOURCE FILE: A068C008_160823_R1BY
295  SR007    A2    C        09:03:46:09 09:03:47:21 01:12:21:14 01:12:23:01 
* FROM CLIP NAME:  4A-3A 
* PATCH SR007:  FROM SOURCE 1 TO RECORD 2 
* SOURCE FILE: A068C008_160823_R1BY
296  SR007    A2    C        09:03:52:04 09:04:01:22 01:12:23:01 01:12:32:18 
* FROM CLIP NAME:  4A-3A 
* PATCH SR007:  FROM SOURCE 1 TO RECORD 2 
* SOURCE FILE: A068C008_160823_R1BY
297  SR022    A     C        13:12:01:17 13:12:03:13 01:12:26:08 01:12:28:03 
* FROM CLIP NAME:  9H-3A 
* SOURCE FILE: A214C008_160914_R1BY
298  SR022    A     C        13:12:03:06 13:12:07:22 01:12:28:03 01:12:32:18 
* FROM CLIP NAME:  9H-3A 
* SOURCE FILE: A214C008_160914_R1BY
299  SR022    A3    C        12:14:57:15 12:15:01:18 01:12:29:23 01:12:34:01 
* FROM CLIP NAME:  9G-3A 
* PATCH SR022:  FROM SOURCE 1 TO RECORD 3 
* SOURCE FILE: A214C008_160914_R1BY
300  SR022    A     C        13:12:06:22 13:12:08:06 01:12:32:18 01:12:34:01 
* FROM CLIP NAME:  9H-3A 
* SOURCE FILE: A214C008_160914_R1BY
301  SR007    A2    C        09:04:00:22 09:04:02:06 01:12:32:18 01:12:34:01 
* FROM CLIP NAME:  4A-3A 
* PATCH SR007:  FROM SOURCE 1 TO RECORD 2 
* SOURCE FILE: A068C008_160823_R1BY
302  SR022    A     C        13:12:06:10 13:12:10:11 01:12:34:01 01:12:38:01 
* FROM CLIP NAME:  9H-3A 
* SOURCE FILE: A214C008_160914_R1BY
303  SR007    A2    C        09:04:00:10 09:04:04:23 01:12:34:01 01:12:38:13 
* FROM CLIP NAME:  4A-3A 
* PATCH SR007:  FROM SOURCE 1 TO RECORD 2 
* SOURCE FILE: A068C008_160823_R1BY
304  SR022    A     C        14:05:08:17 14:05:09:21 01:12:38:01 01:12:39:04 
* FROM CLIP NAME:  9K-1 
* SOURCE FILE: A214C008_160914_R1BY
305  CASSIDY_ A3    C        00:00:00:00 00:00:00:00 01:12:39:23 01:12:42:07 
* FROM CLIP NAME:  CASSIDY NABER -KF-2 TAKES.MP3 
* PATCH CASSIDY_:  FROM SOURCE 1 TO RECORD 3 
* SOURCE FILE: CASSIDY NABER -KF-2 TAKES.MP3
306  SR022    A     C        14:05:42:09 14:05:42:12 01:12:41:18 01:12:41:20 
* FROM CLIP NAME:  9K-1 
* SOURCE FILE: A214C008_160914_R1BY
307  SR022    A     C        14:05:42:11 14:05:44:15 01:12:41:20 01:12:43:23 
* FROM CLIP NAME:  9K-1 
* SOURCE FILE: A214C008_160914_R1BY
308  CASSIDY_ A3    C        00:00:00:00 00:00:00:00 01:12:44:03 01:12:46:22 
* FROM CLIP NAME:  CASSIDY NABER -KF-2 TAKES.MP3 
* PATCH CASSIDY_:  FROM SOURCE 1 TO RECORD 3 
* SOURCE FILE: CASSIDY NABER -KF-2 TAKES.MP3
309  CASSIDY_ A3    C        00:00:00:00 00:00:00:00 01:12:47:19 01:12:51:13 
* FROM CLIP NAME:  CASSIDY NABER -KF-2 TAKES.MP3 
* PATCH CASSIDY_:  FROM SOURCE 1 TO RECORD 3 
* SOURCE FILE: CASSIDY NABER -KF-2 TAKES.MP3
310  SR022    A     C        21:03:15:23 21:03:17:00 01:12:48:14 01:12:49:14 
* FROM CLIP NAME:  9R-2 
* SOURCE FILE: A214C008_160914_R1BY
311  SR022    A     C        21:03:16:23 21:03:18:12 01:12:49:14 01:12:51:02 
* FROM CLIP NAME:  9R-2 
* SOURCE FILE: A214C008_160914_R1BY
312  SR022    A     C        21:03:29:18 21:03:30:03 01:12:51:02 01:12:51:10 
* FROM CLIP NAME:  9R-2 
* SOURCE FILE: A214C008_160914_R1BY
313  SR022    A     C        21:04:31:06 21:04:31:09 01:12:51:10 01:12:51:12 
* FROM CLIP NAME:  9R-2 
* TO CLIP NAME:  9R-2 
* SOURCE FILE: A214C008_160914_R1BY
314  SR022    A     C        21:04:31:08 21:04:31:16 01:12:51:12 01:12:51:19 
* FROM CLIP NAME:  9R-2 
* SOURCE FILE: A214C008_160914_R1BY
315  SR022    A     C        21:04:31:15 21:04:32:16 01:12:51:19 01:12:52:19 
* FROM CLIP NAME:  9R-2 
* TO CLIP NAME:  9R-2 
* SOURCE FILE: A214C008_160914_R1BY
316  SR022    A     C        21:04:32:15 21:04:33:16 01:12:52:19 01:12:53:19 
* FROM CLIP NAME:  9R-2 
* SOURCE FILE: A214C008_160914_R1BY
317  CASSIDY_ A3    C        00:00:00:00 00:00:00:00 01:12:53:04 01:12:54:22 
* FROM CLIP NAME:  CASSIDY NABER -KF-2 TAKES.MP3 
* PATCH CASSIDY_:  FROM SOURCE 1 TO RECORD 3 
* SOURCE FILE: CASSIDY NABER -KF-2 TAKES.MP3
318  SR022    A     C        21:03:23:07 21:03:23:10 01:12:53:19 01:12:53:21 
* FROM CLIP NAME:  9R-2 
* SOURCE FILE: A214C008_160914_R1BY
319  SR022    A2    C        14:07:37:08 14:07:38:08 01:12:54:20 01:12:55:19 
* FROM CLIP NAME:  9K-1 
* PATCH SR022:  FROM SOURCE 1 TO RECORD 2 
* SOURCE FILE: A214C008_160914_R1BY
320  SR022    A     C        21:03:23:09 21:03:23:11 01:12:55:05 01:12:55:06 
* FROM CLIP NAME:  9R-2 
* SOURCE FILE: A214C008_160914_R1BY
321  SR022    A     C        21:03:24:14 21:03:25:15 01:12:55:11 01:12:56:11 
* FROM CLIP NAME:  9R-2 
* SOURCE FILE: A214C008_160914_R1BY
322  CASSIDY_ A3    C        00:00:00:00 00:00:00:00 01:12:55:20 01:12:57:23 
* FROM CLIP NAME:  CASSIDY NABER -KF-2 TAKES.MP3 
* PATCH CASSIDY_:  FROM SOURCE 1 TO RECORD 3 
* SOURCE FILE: CASSIDY NABER -KF-2 TAKES.MP3
323  SR022    A     C        21:04:54:19 21:04:54:21 01:12:56:11 01:12:56:12 
* FROM CLIP NAME:  9R-2 
* SOURCE FILE: A214C008_160914_R1BY
324  SR022    A     C        21:04:54:20 21:04:56:15 01:12:56:12 01:12:58:06 
* FROM CLIP NAME:  9R-2 
* SOURCE FILE: A214C008_160914_R1BY
325  SR022    A     C        21:05:00:10 21:05:01:12 01:12:58:06 01:12:59:07 
* FROM CLIP NAME:  9R-2 
* SOURCE FILE: A214C008_160914_R1BY
326  SR022    A     C        21:05:01:11 21:05:04:10 01:12:59:07 01:13:02:05 
* FROM CLIP NAME:  9R-2 
* SOURCE FILE: A214C008_160914_R1BY
327  TEMP_ADR A3    C        00:00:00:00 00:00:00:00 01:12:59:15 01:13:10:22 
* FROM CLIP NAME:  KEY FACE: TAKE YOUR TIME 
* PATCH TEMP_ADR:  FROM SOURCE 1 TO RECORD 3 
* SOURCE FILE: TEMP ADR
328  SR022    A2    C        21:00:22:09 21:00:22:12 01:13:01:18 01:13:01:20 
* FROM CLIP NAME:  9R-1 
* PATCH SR022:  FROM SOURCE 1 TO RECORD 2 
* SOURCE FILE: A214C008_160914_R1BY
329  SR022    A2    C        21:00:22:11 21:00:23:12 01:13:01:20 01:13:02:20 
* FROM CLIP NAME:  9R-1 
* TO CLIP NAME:  9R-1 
* PATCH SR022:  FROM SOURCE 1 TO RECORD 2 
* PATCH SR022:  FROM SOURCE 1 TO RECORD 2 
* SOURCE FILE: A214C008_160914_R1BY
330  SR022    A     C        21:05:02:20 21:05:04:07 01:13:02:12 01:13:03:22 
* FROM CLIP NAME:  9R-2 
* SOURCE FILE: A214C008_160914_R1BY
331  SR022    A2    C        21:00:23:11 21:00:24:11 01:13:02:20 01:13:03:19 
* FROM CLIP NAME:  9R-1 
* PATCH SR022:  FROM SOURCE 1 TO RECORD 2 
* SOURCE FILE: A214C008_160914_R1BY
332  SR022    A     C        21:05:51:11 21:05:54:21 01:13:03:22 01:13:07:07 
* FROM CLIP NAME:  9R-2 
* SOURCE FILE: A214C008_160914_R1BY
333  SR022    A     C        21:05:16:12 21:05:16:17 01:13:07:07 01:13:07:11 
* FROM CLIP NAME:  9R-2 
* SOURCE FILE: A214C008_160914_R1BY
334  SR022    A     C        21:05:54:20 21:05:55:06 01:13:07:11 01:13:07:20 
* FROM CLIP NAME:  9R-2 
* SOURCE FILE: A214C008_160914_R1BY
335  SR022    A     C        21:05:55:05 21:05:55:15 01:13:07:20 01:13:08:05 
* FROM CLIP NAME:  9R-2 
* TO CLIP NAME:  9R-2 
* SOURCE FILE: A214C008_160914_R1BY
336  SR022    A     C        21:05:55:14 21:05:55:20 01:13:08:05 01:13:08:10 
* FROM CLIP NAME:  9R-2 
* SOURCE FILE: A214C008_160914_R1BY
337  SR022    A     C        21:05:55:19 21:05:56:11 01:13:08:10 01:13:09:01 
* FROM CLIP NAME:  9R-2 
* SOURCE FILE: A214C008_160914_R1BY
338  SR022    A2    C        13:12:50:09 13:12:53:17 01:13:09:00 01:13:12:07 
* FROM CLIP NAME:  9H-3A 
* PATCH SR022:  FROM SOURCE 1 TO RECORD 2 
* SOURCE FILE: A214C008_160914_R1BY
339  SR022    A     C        19:20:45:15 19:20:54:06 01:13:12:04 01:13:20:18 
* FROM CLIP NAME:  9M-1 
* SOURCE FILE: A214C008_160914_R1BY
340  SR022    A     C        19:20:54:05 19:20:57:05 01:13:20:18 01:13:23:17 
* FROM CLIP NAME:  9M-1 
* SOURCE FILE: A214C008_160914_R1BY
341  SR022    A     C        19:21:19:01 19:21:20:08 01:13:23:17 01:13:24:23 
* FROM CLIP NAME:  9M-1.SUB.01 
* SOURCE FILE: A214C008_160914_R1BY
342  SR022    A     C        19:20:57:04 19:20:58:16 01:13:24:23 01:13:26:10 
* FROM CLIP NAME:  9M-1 
* SOURCE FILE: A214C008_160914_R1BY
343  TEMP_ADR A2    C        00:00:00:00 00:00:00:00 01:13:26:09 01:13:27:03 
* FROM CLIP NAME:  YOUNG ELISE EFFORTS 
* PATCH TEMP_ADR:  FROM SOURCE 1 TO RECORD 2 
* SOURCE FILE: TEMP ADR
344  SR022    A     C        19:20:46:09 19:20:51:05 01:13:26:10 01:13:31:05 
* FROM CLIP NAME:  9M-1 
* SOURCE FILE: A214C008_160914_R1BY
345  SR022    A     C        19:20:46:05 19:20:48:07 01:13:31:05 01:13:33:06 
* FROM CLIP NAME:  9M-1 
* SOURCE FILE: A214C008_160914_R1BY
346  SR022    A     C        19:20:49:23 19:20:51:08 01:13:33:06 01:13:34:14 
* FROM CLIP NAME:  9M-1 
* SOURCE FILE: A214C008_160914_R1BY
347  SR022    A     C        19:20:48:21 19:20:53:15 01:13:34:14 01:13:39:07 
* FROM CLIP NAME:  9M-1 
* SOURCE FILE: A214C008_160914_R1BY
348  SR022    A     C        19:20:56:12 19:20:57:11 01:13:39:07 01:13:40:05 
* FROM CLIP NAME:  9M-1 
* SOURCE FILE: A214C008_160914_R1BY
349  SR022    A     C        19:21:33:00 19:21:34:14 01:13:40:05 01:13:41:18 
* FROM CLIP NAME:  9M-1 
* SOURCE FILE: A214C008_160914_R1BY
350  SR022    A     C        19:21:36:01 19:21:39:22 01:13:41:19 01:13:45:15 
* FROM CLIP NAME:  9M-1 
* SOURCE FILE: A214C008_160914_R1BY
351  SR022    A     C        19:20:46:09 19:20:50:20 01:13:45:15 01:13:50:01 
* FROM CLIP NAME:  9M-1 
* SOURCE FILE: A214C008_160914_R1BY
352  SR022    A     C        19:21:37:23 19:21:40:13 01:13:50:01 01:13:52:14 
* FROM CLIP NAME:  9M-1 
* SOURCE FILE: A214C008_160914_R1BY
353  SR022    A     C        19:21:38:14 19:21:41:20 01:13:52:14 01:13:55:19 
* FROM CLIP NAME:  9M-1 
* SOURCE FILE: A214C008_160914_R1BY
354  SR022    A     C        19:21:41:16 19:21:44:11 01:13:55:19 01:13:58:13 
* FROM CLIP NAME:  9M-1 
* SOURCE FILE: A214C008_160914_R1BY
355  SR022    A     C        19:20:47:05 19:20:48:17 01:13:58:13 01:14:00:00 
* FROM CLIP NAME:  9M-1 
* SOURCE FILE: A214C008_160914_R1BY
356  SR022    A     C        19:21:42:21 19:21:51:18 01:14:00:00 01:14:08:20 
* FROM CLIP NAME:  9M-1 
* SOURCE FILE: A214C008_160914_R1BY
357  SR022    A     C        15:37:01:03 15:37:08:01 01:14:08:20 01:14:15:17 
* FROM CLIP NAME:  11A-2 
* SOURCE FILE: A214C008_160914_R1BY
358  SR022    A     C        15:37:09:09 15:37:13:05 01:14:15:17 01:14:19:12 
* FROM CLIP NAME:  11A-2 
* SOURCE FILE: A214C008_160914_R1BY
359  SR005    A     C        23:37:27:00 23:37:32:13 01:14:19:12 01:14:25:00 
* FROM CLIP NAME:  10A-2A 
* SOURCE FILE: A054C002_160819_R1BY
360  SR005    A2    C        23:37:27:00 23:37:34:20 01:14:25:00 01:14:32:19 
* FROM CLIP NAME:  10A-2A 
* PATCH SR005:  FROM SOURCE 1 TO RECORD 2 
* SOURCE FILE: A054C002_160819_R1BY
361  65675031 A3    C        00:00:00:00 00:00:00:00 01:14:28:06 01:14:45:14 
* FROM CLIP NAME:  65675031691-10-NTSC-DV.MOV 
* PATCH 65675031:  FROM SOURCE 1 TO RECORD 3 
* SOURCE FILE: 65675031691-10-NTSC-DV.MOV
362  SR005    A     C        23:37:21:21 23:37:27:11 01:14:30:20 01:14:36:09 
* FROM CLIP NAME:  10A-2A 
* SOURCE FILE: A054C002_160819_R1BY
363  SR005    A     C        22:39:40:05 22:39:49:11 01:14:36:09 01:14:45:14 
* FROM CLIP NAME:  10-2 
* SOURCE FILE: A054C002_160819_R1BY
364  SR022    A     C        10:23:55:03 10:24:03:06 01:14:45:14 01:14:53:16 
* FROM CLIP NAME:  V11-3A 
* SOURCE FILE: A214C008_160914_R1BY
365  SR022    A     C        18:02:09:18 18:02:14:15 01:14:53:16 01:14:58:12 
* FROM CLIP NAME:  11G-1 
* SOURCE FILE: A214C008_160914_R1BY
366  SR022    A2    C        10:24:06:15 10:24:08:19 01:14:58:04 01:15:00:07 
* FROM CLIP NAME:  V11-3A 
* PATCH SR022:  FROM SOURCE 1 TO RECORD 2 
* SOURCE FILE: A214C008_160914_R1BY
367  TEMP_ADR A     C        00:00:00:00 00:00:00:00 01:14:58:12 01:14:59:00 
* FROM CLIP NAME:  STARTLED GASP 
* SOURCE FILE: TEMP ADR
368  SR022    A     C        18:02:15:02 18:02:16:10 01:14:59:00 01:15:00:07 
* FROM CLIP NAME:  11G-1 
* SOURCE FILE: A214C008_160914_R1BY
369  SR005    A     C        22:37:47:05 22:37:48:22 01:15:00:07 01:15:01:23 
* FROM CLIP NAME:  10-1 
* SOURCE FILE: A054C002_160819_R1BY
370  65675056 A2    C        00:00:00:00 00:00:00:00 01:15:00:07 01:15:01:23 
* FROM CLIP NAME:  65675056673-10-NTSC-DV.MOV 
* SOURCE FILE: 65675056673-10-NTSC-DV.MOV
371  SR022    A2    C        16:50:45:10 16:50:56:22 01:15:01:23 01:15:13:10 
* FROM CLIP NAME:  11D-2A 
* PATCH SR022:  FROM SOURCE 1 TO RECORD 2 
* SOURCE FILE: A214C008_160914_R1BY
372  SR022    A     C        10:24:18:02 10:24:22:01 01:15:11:11 01:15:15:09 
* FROM CLIP NAME:  V11-3A 
* SOURCE FILE: A214C008_160914_R1BY
373  SR022    A2    C        10:24:22:01 10:24:23:09 01:15:14:02 01:15:15:09 
* FROM CLIP NAME:  V11-3A 
* PATCH SR022:  FROM SOURCE 1 TO RECORD 2 
* SOURCE FILE: A214C008_160914_R1BY
374  SR022    A     C        10:24:26:04 10:24:27:10 01:15:15:09 01:15:16:14 
* FROM CLIP NAME:  V11-3A 
* SOURCE FILE: A214C008_160914_R1BY
375  SR022    A2    C        16:15:43:05 16:15:44:11 01:15:15:09 01:15:16:14 
* FROM CLIP NAME:  V11C-2A 
* PATCH SR022:  FROM SOURCE 1 TO RECORD 2 
* SOURCE FILE: A214C008_160914_R1BY
376  SR022    A3    C        20:43:27:16 20:43:28:11 01:15:16:04 01:15:16:22 
* FROM CLIP NAME:  11P-1 
* PATCH SR022:  FROM SOURCE 1 TO RECORD 3 
* SOURCE FILE: A214C008_160914_R1BY
377  SR022    A2    C        16:15:44:10 16:15:44:22 01:15:16:14 01:15:17:01 
* FROM CLIP NAME:  V11C-2A 
* PATCH SR022:  FROM SOURCE 1 TO RECORD 2 
* SOURCE FILE: A214C008_160914_R1BY
378  SR022    A     C        20:43:28:22 20:43:30:17 01:15:16:14 01:15:18:08 
* FROM CLIP NAME:  11P-1 
* SOURCE FILE: A214C008_160914_R1BY
379  SR022    A2    C        10:24:28:16 10:24:29:12 01:15:17:01 01:15:17:20 
* FROM CLIP NAME:  V11-3A 
* PATCH SR022:  FROM SOURCE 1 TO RECORD 2 
* SOURCE FILE: A214C008_160914_R1BY
380  SR022    A2    C        20:43:30:13 20:43:30:17 01:15:17:20 01:15:17:23 
* FROM CLIP NAME:  11P-1 
* PATCH SR022:  FROM SOURCE 1 TO RECORD 2 
* SOURCE FILE: A214C008_160914_R1BY
381  SR022    A2    C        20:43:31:03 20:43:31:15 01:15:17:23 01:15:18:10 
* FROM CLIP NAME:  11P-1 
* PATCH SR022:  FROM SOURCE 1 TO RECORD 2 
* SOURCE FILE: A214C008_160914_R1BY
382  SR022    A     C        10:24:30:19 10:24:30:23 01:15:18:08 01:15:18:11 
* FROM CLIP NAME:  V11-3A 
* SOURCE FILE: A214C008_160914_R1BY
383  SR022    A2    C        20:43:31:23 20:43:32:09 01:15:18:10 01:15:18:19 
* FROM CLIP NAME:  11P-1 
* PATCH SR022:  FROM SOURCE 1 TO RECORD 2 
* SOURCE FILE: A214C008_160914_R1BY
384  SR022    A     C        16:15:46:18 16:15:47:03 01:15:18:11 01:15:18:19 
* FROM CLIP NAME:  V11C-2A 
* TO CLIP NAME:  V11-3A 
* SOURCE FILE: A214C008_160914_R1BY
385  SR022    A     C        16:15:47:02 16:15:48:01 01:15:18:19 01:15:19:17 
* FROM CLIP NAME:  V11C-2A 
* SOURCE FILE: A214C008_160914_R1BY
386  SR022    A     C        16:15:49:09 16:15:50:20 01:15:19:17 01:15:21:03 
* FROM CLIP NAME:  V11C-2A 
* SOURCE FILE: A214C008_160914_R1BY
387  SR022    A     C        16:15:51:10 16:15:52:00 01:15:21:03 01:15:21:16 
* FROM CLIP NAME:  V11C-2A 
* SOURCE FILE: A214C008_160914_R1BY
388  SR022    A2    C        20:46:04:14 20:46:07:11 01:15:21:03 01:15:23:23 
* FROM CLIP NAME:  11P-2 
* PATCH SR022:  FROM SOURCE 1 TO RECORD 2 
* SOURCE FILE: A214C008_160914_R1BY
389  SR022    A3    C        16:50:43:23 16:50:46:20 01:15:21:03 01:15:23:23 
* FROM CLIP NAME:  11D-2A 
* PATCH SR022:  FROM SOURCE 1 TO RECORD 3 
* SOURCE FILE: A214C008_160914_R1BY
390  SR022    A     C        16:04:39:16 16:04:45:22 01:15:23:20 01:15:30:01 
* FROM CLIP NAME:  V11B-1A 
* SOURCE FILE: A214C008_160914_R1BY
391  SR022    A2    C        20:46:08:16 20:46:09:01 01:15:23:23 01:15:24:07 
* FROM CLIP NAME:  11P-2 
* PATCH SR022:  FROM SOURCE 1 TO RECORD 2 
* SOURCE FILE: A214C008_160914_R1BY
392  SR022    A3    C        16:50:47:19 16:50:48:04 01:15:23:23 01:15:24:07 
* FROM CLIP NAME:  11D-2A 
* TO CLIP NAME:  11D-2A 
* PATCH SR022:  FROM SOURCE 1 TO RECORD 3 
* PATCH SR022:  FROM SOURCE 1 TO RECORD 3 
* SOURCE FILE: A214C008_160914_R1BY
393  SR022    A3    C        16:50:48:03 16:50:55:16 01:15:24:07 01:15:31:19 
* FROM CLIP NAME:  11D-2A 
* PATCH SR022:  FROM SOURCE 1 TO RECORD 3 
* SOURCE FILE: A214C008_160914_R1BY
394  SR022    A     C        16:04:47:08 16:04:49:03 01:15:30:01 01:15:31:19 
* FROM CLIP NAME:  V11B-1A 
* SOURCE FILE: A214C008_160914_R1BY
395  SR022    A2    C        19:39:56:13 19:39:57:11 01:15:30:12 01:15:31:09 
* FROM CLIP NAME:  11M-1 
* PATCH SR022:  FROM SOURCE 1 TO RECORD 2 
* SOURCE FILE: A214C008_160914_R1BY
396  SR022    A     C        19:39:52:00 19:39:55:00 01:15:31:19 01:15:34:18 
* FROM CLIP NAME:  11M-1 
* SOURCE FILE: A214C008_160914_R1BY
397  SR022    A2    C        17:43:52:21 17:43:55:11 01:15:34:18 01:15:37:07 
* FROM CLIP NAME:  V11F-2A 
* PATCH SR022:  FROM SOURCE 1 TO RECORD 2 
* SOURCE FILE: A214C008_160914_R1BY
398  SR022    A     C        19:40:42:21 19:40:44:10 01:15:36:19 01:15:38:07 
* FROM CLIP NAME:  11M-1 
* SOURCE FILE: A214C008_160914_R1BY
399  SR022    A     C        19:47:14:09 19:47:20:00 01:15:38:07 01:15:43:21 
* FROM CLIP NAME:  11N-2 
* SOURCE FILE: A214C008_160914_R1BY
400  SR022    A2    C        19:45:58:12 19:46:00:14 01:15:42:23 01:15:45:00 
* FROM CLIP NAME:  11N-1 
* PATCH SR022:  FROM SOURCE 1 TO RECORD 2 
* SOURCE FILE: A214C008_160914_R1BY
401  SR022    A     C        18:26:16:19 18:26:17:22 01:15:45:04 01:15:46:06 
* FROM CLIP NAME:  11H-1A 
* SOURCE FILE: A214C008_160914_R1BY
402  SR022    A2    C        19:45:58:11 19:45:59:07 01:15:46:10 01:15:47:05 
* FROM CLIP NAME:  11N-1 
* PATCH SR022:  FROM SOURCE 1 TO RECORD 2 
* SOURCE FILE: A214C008_160914_R1BY
403  SR022    A2    C        19:46:00:09 19:46:02:22 01:15:47:05 01:15:49:17 
* FROM CLIP NAME:  11N-1 
* PATCH SR022:  FROM SOURCE 1 TO RECORD 2 
* SOURCE FILE: A214C008_160914_R1BY
404  SR022    A     C        18:34:16:01 18:34:18:01 01:15:48:16 01:15:50:15 
* FROM CLIP NAME:  11J-1 
* SOURCE FILE: A214C008_160914_R1BY
405  SR022    A2    C        19:47:18:23 19:47:21:01 01:15:50:15 01:15:52:16 
* FROM CLIP NAME:  11N-2 
* PATCH SR022:  FROM SOURCE 1 TO RECORD 2 
* SOURCE FILE: A214C008_160914_R1BY
406  SR022    A2    C        19:47:21:00 19:47:21:23 01:15:52:16 01:15:53:14 
* FROM CLIP NAME:  11N-2 
* PATCH SR022:  FROM SOURCE 1 TO RECORD 2 
* SOURCE FILE: A214C008_160914_R1BY
407  SR003    A     C        10:18:52:20 10:18:54:22 01:15:52:16 01:15:54:17 
* FROM CLIP NAME:  12B-3SER 
* SOURCE FILE: A021C001_160817_R1BY
408  SR003    A     C        10:18:54:21 10:19:07:11 01:15:54:17 01:16:07:06 
* FROM CLIP NAME:  12B-3SER 
* SOURCE FILE: A021C001_160817_R1BY
409  SR003    A     C        09:36:04:22 09:36:09:17 01:16:07:06 01:16:12:00 
* FROM CLIP NAME:  12-2A 
* SOURCE FILE: A021C001_160817_R1BY
410  SR003    A     C        10:54:20:20 10:54:27:20 01:16:12:00 01:16:18:23 
* FROM CLIP NAME:  12D-4 
* SOURCE FILE: A021C001_160817_R1BY
411  SR003    A2    C        10:56:30:16 10:56:33:16 01:16:18:13 01:16:21:12 
* FROM CLIP NAME:  12D-5 
* PATCH SR003:  FROM SOURCE 1 TO RECORD 2 
* SOURCE FILE: A021C001_160817_R1BY
412  SR05     A     C        15:08:53:15 15:08:55:18 01:16:18:23 01:16:21:01 
* FROM CLIP NAME:  44A-1 
* SOURCE FILE: A008C013_140711ZJ
413  SR003    A     C        10:54:26:22 10:54:35:12 01:16:21:01 01:16:29:14 
* FROM CLIP NAME:  12D-4 
* SOURCE FILE: A021C001_160817_R1BY
414  SR003    A2    C        10:35:39:16 10:35:43:07 01:16:26:00 01:16:29:14 
* FROM CLIP NAME:  12C-2A 
* PATCH SR003:  FROM SOURCE 1 TO RECORD 2 
* SOURCE FILE: A021C001_160817_R1BY
415  SR003    A     C        10:54:42:01 10:54:49:15 01:16:29:14 01:16:37:03 
* FROM CLIP NAME:  12D-4 
* SOURCE FILE: A021C001_160817_R1BY
416  SR003    A     C        10:37:15:15 10:37:19:03 01:16:37:03 01:16:40:14 
* FROM CLIP NAME:  12C-2A 
* SOURCE FILE: A021C001_160817_R1BY
417  SR003    A     C        10:54:54:02 10:54:56:20 01:16:40:14 01:16:43:07 
* FROM CLIP NAME:  12D-4 
* SOURCE FILE: A021C001_160817_R1BY
418  SR003    A     C        09:50:14:08 09:50:14:15 01:16:43:07 01:16:43:13 
* FROM CLIP NAME:  12A-1A 
* TO CLIP NAME:  12D-4 
* SOURCE FILE: A021C001_160817_R1BY
419  SR003    A     C        09:50:14:14 09:50:14:16 01:16:43:13 01:16:43:14 
* FROM CLIP NAME:  12A-1A 
* SOURCE FILE: A021C001_160817_R1BY
420  SR003    A     C        09:36:49:22 09:36:51:23 01:16:43:14 01:16:45:14 
* FROM CLIP NAME:  12-2A 
* SOURCE FILE: A021C001_160817_R1BY
421  SR003    A     C        10:37:38:23 10:37:43:17 01:16:45:14 01:16:50:07 
* FROM CLIP NAME:  12C-2A 
* SOURCE FILE: A021C001_160817_R1BY
422  SR003    A     C        09:50:35:19 09:50:36:23 01:16:50:07 01:16:51:10 
* FROM CLIP NAME:  12A-1A 
* SOURCE FILE: A021C001_160817_R1BY
423  TEMP_ADR A2    C        00:00:00:00 00:00:00:00 01:16:50:17 01:16:51:20 
* FROM CLIP NAME:  GOOD MORNING 1 
* PATCH TEMP_ADR:  FROM SOURCE 1 TO RECORD 2 
* SOURCE FILE: TEMP ADR
424  SR003    A     C        09:50:38:02 09:50:39:11 01:16:51:10 01:16:52:18 
* FROM CLIP NAME:  12A-1A 
* SOURCE FILE: A021C001_160817_R1BY
425  E101A_02 A2    C        00:00:00:00 00:00:00:00 01:16:52:08 01:16:55:07 
* FROM CLIP NAME:  E101A_02.L.WAV 
* PATCH E101A_02:  FROM SOURCE 1 TO RECORD 2 
* SOURCE FILE: E101A_02.L.WAV
426  SR003    A     C        09:50:44:16 09:50:46:08 01:16:52:18 01:16:54:09 
* FROM CLIP NAME:  12A-1A 
* SOURCE FILE: A021C001_160817_R1BY
427  SR003    A     C        09:50:41:01 09:50:41:16 01:16:54:18 01:16:55:08 
* FROM CLIP NAME:  12A-1A 
* SOURCE FILE: A021C001_160817_R1BY
428  SR003    A     C        09:30:46:07 09:30:49:01 01:16:55:08 01:16:58:01 
* FROM CLIP NAME:  12-1A 
* SOURCE FILE: A021C001_160817_R1BY
429  SR003    A     C        09:50:44:08 09:50:44:22 01:16:58:01 01:16:58:14 
* FROM CLIP NAME:  12A-1A 
* SOURCE FILE: A021C001_160817_R1BY
430  SR003    A     C        09:51:19:12 09:51:21:09 01:16:58:14 01:17:00:10 
* FROM CLIP NAME:  12A-1A 
* SOURCE FILE: A021C001_160817_R1BY
431  SR003    A     C        09:51:21:13 09:51:23:20 01:17:00:10 01:17:02:16 
* FROM CLIP NAME:  12A-1A 
* SOURCE FILE: A021C001_160817_R1BY
432  SR003    A     C        09:51:24:09 09:51:26:12 01:17:02:16 01:17:04:18 
* FROM CLIP NAME:  12A-1A 
* SOURCE FILE: A021C001_160817_R1BY
433  SR003    A     C        09:51:28:02 09:51:30:03 01:17:04:18 01:17:06:18 
* FROM CLIP NAME:  12A-1A 
* SOURCE FILE: A021C001_160817_R1BY
434  SR003    A     C        09:51:31:20 09:51:32:22 01:17:06:18 01:17:07:19 
* FROM CLIP NAME:  12A-1A 
* SOURCE FILE: A021C001_160817_R1BY
435  SR002    A     C        16:30:56:04 16:30:58:22 01:17:07:19 01:17:10:12 
* FROM CLIP NAME:  14D-2A 
* SOURCE FILE: A015C003_160816_R1BY
436  SR002    A2    C        16:39:08:13 16:39:09:23 01:17:07:23 01:17:09:08 
* FROM CLIP NAME:  14D-3A 
* PATCH SR002:  FROM SOURCE 1 TO RECORD 2 
* SOURCE FILE: A015C003_160816_R1BY
437  SR002    A     C        16:39:11:01 16:39:11:19 01:17:10:12 01:17:11:05 
* FROM CLIP NAME:  14D-3A 
* SOURCE FILE: A015C003_160816_R1BY
438  SR002    A     C        16:39:15:00 16:39:16:21 01:17:11:05 01:17:13:01 
* FROM CLIP NAME:  14D-3A 
* SOURCE FILE: A015C003_160816_R1BY
439  SR002    A     C        17:48:37:04 17:48:38:19 01:17:13:01 01:17:14:15 
* FROM CLIP NAME:  V14G-3A 
* SOURCE FILE: A015C003_160816_R1BY
440  TEMP_ADR A3    C        00:00:00:00 00:00:00:00 01:17:13:06 01:17:14:14 
* FROM CLIP NAME:  SPECS SC014 - LINT 2 
* PATCH TEMP_ADR:  FROM SOURCE 1 TO RECORD 3 
* SOURCE FILE: TEMP ADR
441  SR002    A     C        17:48:40:10 17:48:41:23 01:17:14:15 01:17:16:03 
* FROM CLIP NAME:  V14G-3A 
* SOURCE FILE: A015C003_160816_R1BY
442  TEMP_ADR A3    C        00:00:00:00 00:00:00:00 01:17:14:18 01:17:15:16 
* FROM CLIP NAME:  SPECS SC014 - LINT 2 
* PATCH TEMP_ADR:  FROM SOURCE 1 TO RECORD 3 
* SOURCE FILE: TEMP ADR
443  TEMP_ADR A2    C        00:00:00:00 00:00:00:00 01:17:15:12 01:17:17:01 
* FROM CLIP NAME:  LOOKS LIKE A MOTH TO ME 
* PATCH TEMP_ADR:  FROM SOURCE 1 TO RECORD 2 
* SOURCE FILE: TEMP ADR
444  SR002    A     C        17:48:44:08 17:48:45:07 01:17:16:03 01:17:17:01 
* FROM CLIP NAME:  V14G-3A 
* SOURCE FILE: A015C003_160816_R1BY
445  TEMP_ADR A3    C        00:00:00:00 00:00:00:00 01:17:16:19 01:17:20:09 
* FROM CLIP NAME:  SPECS SC014 - LINT 2 
* PATCH TEMP_ADR:  FROM SOURCE 1 TO RECORD 3 
* SOURCE FILE: TEMP ADR
446  SR002    A     C        17:48:05:12 17:48:09:19 01:17:17:01 01:17:21:07 
* FROM CLIP NAME:  V14G-3A 
* SOURCE FILE: A015C003_160816_R1BY
447  SR002    A     C        16:40:02:22 16:40:07:10 01:17:21:07 01:17:25:18 
* FROM CLIP NAME:  14D-3A 
* SOURCE FILE: A015C003_160816_R1BY
448  SR002    A     C        16:40:07:10 16:40:09:04 01:17:25:18 01:17:27:11 
* FROM CLIP NAME:  14D-3A 
* SOURCE FILE: A015C003_160816_R1BY
449  SR002    A     C        17:48:15:11 17:48:16:12 01:17:27:11 01:17:28:11 
* FROM CLIP NAME:  V14G-3A 
* SOURCE FILE: A015C003_160816_R1BY
450  SR002    A     C        16:32:04:06 16:32:07:10 01:17:28:11 01:17:31:14 
* FROM CLIP NAME:  14D-2A 
* SOURCE FILE: A015C003_160816_R1BY
451  SR002    A     C        16:32:07:22 16:32:13:23 01:17:31:14 01:17:37:14 
* FROM CLIP NAME:  14D-2A 
* SOURCE FILE: A015C003_160816_R1BY
452  SR002    A     C        17:48:26:03 17:48:28:00 01:17:37:14 01:17:39:10 
* FROM CLIP NAME:  V14G-3A 
* SOURCE FILE: A015C003_160816_R1BY
453  SR002    A     C        16:32:16:05 16:32:25:16 01:17:39:10 01:17:48:20 
* FROM CLIP NAME:  14D-2A 
* SOURCE FILE: A015C003_160816_R1BY
454  SR002    A     C        16:32:27:01 16:32:27:17 01:17:48:20 01:17:49:11 
* FROM CLIP NAME:  14D-2A 
* SOURCE FILE: A015C003_160816_R1BY
455  SR002    A     C        16:32:23:10 16:32:25:00 01:17:49:11 01:17:51:00 
* FROM CLIP NAME:  14D-2A 
* SOURCE FILE: A015C003_160816_R1BY
456  SR002    A     C        16:32:25:16 16:32:27:16 01:17:51:00 01:17:52:23 
* FROM CLIP NAME:  14D-2A 
* SOURCE FILE: A015C003_160816_R1BY
457  SR002    A     C        16:05:26:21 16:05:28:22 01:17:52:23 01:17:54:23 
* FROM CLIP NAME:  14C-5A 
* SOURCE FILE: A015C003_160816_R1BY
458  SR002    A     C        17:37:45:02 17:37:46:00 01:17:54:23 01:17:55:20 
* FROM CLIP NAME:  V14G-1A 
* SOURCE FILE: A015C003_160816_R1BY
459  SR002    A     C        16:25:19:17 16:25:24:09 01:17:55:20 01:18:00:11 
* FROM CLIP NAME:  14D-1A 
* SOURCE FILE: A015C003_160816_R1BY
460  SR002    A2    C        17:37:49:20 17:37:51:23 01:18:00:11 01:18:02:13 
* FROM CLIP NAME:  V14G-1A 
* PATCH SR002:  FROM SOURCE 1 TO RECORD 2 
* SOURCE FILE: A015C003_160816_R1BY
461  SR002    A     C        16:47:13:23 16:47:18:16 01:18:02:13 01:18:07:05 
* FROM CLIP NAME:  14E-1 
* SOURCE FILE: A015C003_160816_R1BY
462  SR002    A     C        18:14:39:15 18:14:42:14 01:18:07:05 01:18:10:03 
* FROM CLIP NAME:  V14H-4A 
* SOURCE FILE: A015C003_160816_R1BY
463  SR002    A     C        18:14:51:03 18:14:53:14 01:18:10:03 01:18:12:13 
* FROM CLIP NAME:  V14H-4A 
* SOURCE FILE: A015C003_160816_R1BY
464  FKI_LEAD A     C        00:00:00:00 00:00:00:00 01:18:12:13 01:18:14:13 
* FROM CLIP NAME:  FKI_LEADER_TAIL_1920X1080.MOV 
* SOURCE FILE: FKI_LEADER_TAIL_1920X1080.MOV
465  FKI_LEAD A2    C        00:00:00:00 00:00:00:00 01:18:12:13 01:18:14:13 
* FROM CLIP NAME:  FKI_LEADER_TAIL_1920X1080.MOV 
* SOURCE FILE: FKI_LEADER_TAIL_1920X1080.MOV
466  FKI_LEAD A3    C        00:00:00:00 00:00:00:00 01:18:12:13 01:18:14:13 
* FROM CLIP NAME:  FKI_LEADER_TAIL_1920X1080.MOV 
* PATCH FKI_LEA1:  FROM SOURCE 1 TO RECORD 3 
* SOURCE FILE: FKI_LEADER_TAIL_1920X1080.MOV