TITLE:   STP_Reel 1_082517 
FCM: NON-DROP FRAME
000001  FKI_LEADER_HEAD_1920X1080.MOV    V     C        01:00:00:00 01:00:08:00 01:00:00:00 01:00:08:00 
*FROM CLIP NAME:  FKI_LEADER_HEAD_1920X1080.MOV 
*SOURCE FILE: FKI_LEADER_HEAD_1920X1080.MOV
000002  BH_PRODUCTIONS_1.85_PRORES.MOV   V     C        01:00:00:00 01:00:14:23 01:00:08:01 01:00:23:00 
*FROM CLIP NAME:  BH_PRODUCTIONS_1.85_PRORES.MOV 
*SOURCE FILE: BH_PRODUCTIONS_1.85_PRORES.MOV
000003  B116C001_150514_R0UR             V     C        16:37:29:06 16:37:40:22 01:00:38:17 01:00:50:09 
*FROM CLIP NAME:  V4L-1* 
*SOURCE FILE: B116C001_150514_R0UR
000004  A136C008_150514_R0T6             V     C        13:33:27:09 13:33:47:04 01:00:50:09 01:01:10:04 
*FROM CLIP NAME:  4G-4A* 
*SOURCE FILE: A136C008_150514_R0T6
000005  A137C004_150514_R0T6             V     C        14:21:11:16 14:21:21:15 01:01:10:04 01:01:20:03 
*FROM CLIP NAME:  4J-2 
*SOURCE FILE: A137C004_150514_R0T6
000006  B115C004_150514_R0UR             V     C        13:33:59:04 13:34:02:20 01:01:20:03 01:01:23:19 
*FROM CLIP NAME:  4G-4B* 
*SOURCE FILE: B115C004_150514_R0UR
000007  B115C006_150514_R0UR             V     C        13:46:21:13 13:46:24:18 01:01:23:19 01:01:27:00 
*FROM CLIP NAME:  4H-2B* 
*SOURCE FILE: B115C006_150514_R0UR
000008  B115C004_150514_R0UR             V     C        13:34:02:20 13:34:07:14 01:01:27:00 01:01:31:18 
*FROM CLIP NAME:  4G-4B* 
*SOURCE FILE: B115C004_150514_R0UR
000009  A136C006_150514_R0T6             V     C        13:26:52:17 13:26:55:07 01:01:31:18 01:01:34:08 
*FROM CLIP NAME:  4G-2A* 
*SOURCE FILE: A136C006_150514_R0T6
000010  B115C002_150514_R0UR             V     C        13:26:55:07 13:26:58:07 01:01:34:08 01:01:37:08 
*FROM CLIP NAME:  4G-2B* 
*SOURCE FILE: B115C002_150514_R0UR
000011  B115C006_150514_R0UR             V     C        13:46:40:02 13:46:43:17 01:01:37:08 01:01:40:23 
*FROM CLIP NAME:  4H-2B* 
*SOURCE FILE: B115C006_150514_R0UR
000012  B114C007_150514_R0UR             V     C        12:23:27:13 12:23:32:03 01:01:40:23 01:01:45:13 
*FROM CLIP NAME:  4E-3B* 
*SOURCE FILE: B114C007_150514_R0UR
000013  A136C003_150514_R0T6             V     C        12:23:38:04 12:23:43:10 01:01:45:13 01:01:50:19 
*FROM CLIP NAME:  4E-3A* 
*SOURCE FILE: A136C003_150514_R0T6
000014  A137C007_150514_R0T6             V     C        14:35:06:23 14:35:17:06 01:01:50:19 01:02:01:02 
*FROM CLIP NAME:  4J-5* 
*SOURCE FILE: A137C007_150514_R0T6
000015  A144C001_150515_R0T6             V     C        15:03:07:03 15:03:11:16 01:02:01:02 01:02:05:15 
*FROM CLIP NAME:  15R-1* 
*SOURCE FILE: A144C001_150515_R0T6
000016  B116C004_150515_R0UR             V     C        18:53:43:21 18:53:46:15 01:02:05:15 01:02:08:09 
*FROM CLIP NAME:  15-3B* 
*SOURCE FILE: B116C004_150515_R0UR
000017  A139C006_150514_R0T6             V     C        18:53:46:15 18:53:50:22 01:02:08:09 01:02:12:16 
*FROM CLIP NAME:  15-3A* 
*SOURCE FILE: A139C006_150514_R0T6
000018  A145C008_150515_R0T6             V     C        18:13:41:23 18:13:44:16 01:02:12:16 01:02:15:09 
*FROM CLIP NAME:  15W-1* 
*SOURCE FILE: A145C008_150515_R0T6
000019  A141C003_150515_R0T6             V     C        08:51:13:17 08:51:17:17 01:02:15:09 01:02:19:09 
*FROM CLIP NAME:  15C-3A* 
*SOURCE FILE: A141C003_150515_R0T6
000020  A145C008_150515_R0T6             V     C        18:13:46:12 18:13:49:21 01:02:19:09 01:02:22:18 
*FROM CLIP NAME:  15W-1* 
*SOURCE FILE: A145C008_150515_R0T6
000021  B116C005_150515_R0UR             V     C        18:55:19:01 18:55:21:05 01:02:22:18 01:02:24:22 
*FROM CLIP NAME:  15-4B* 
*SOURCE FILE: B116C005_150515_R0UR
000022  A141C003_150515_R0T6             V     C        08:51:26:12 08:51:30:16 01:02:24:22 01:02:29:02 
*FROM CLIP NAME:  15C-3A* 
*SOURCE FILE: A141C003_150515_R0T6
000023  B116C006_150515_R0UR             V     C        18:59:05:13 18:59:10:00 01:02:29:02 01:02:33:13 
*FROM CLIP NAME:  15A-1B* 
*SOURCE FILE: B116C006_150515_R0UR
000024  A139C008_150514_R0T6             V     C        18:59:30:10 18:59:32:11 01:02:33:13 01:02:35:14 
*FROM CLIP NAME:  15A-1A* 
*SOURCE FILE: A139C008_150514_R0T6
000025  B116C006_150515_R0UR             V     C        18:59:32:11 18:59:35:07 01:02:35:14 01:02:38:10 
*FROM CLIP NAME:  15A-1B* 
*SOURCE FILE: B116C006_150515_R0UR
000026  A141C011_150515_R0T6             V     C        10:11:30:13 10:11:35:05 01:02:38:10 01:02:43:02 
*FROM CLIP NAME:  15F-4A* 
*SOURCE FILE: A141C011_150515_R0T6
000027  A141C004_150515_R0T6             V     C        09:20:47:16 09:20:50:20 01:02:43:02 01:02:46:06 
*FROM CLIP NAME:  15D-1A* 
*SOURCE FILE: A141C004_150515_R0T6
000028  B119C004_150515_R0UR             V     C        10:57:50:20 10:57:53:06 01:02:46:06 01:02:48:16 
*FROM CLIP NAME:  15H-2B* 
*SOURCE FILE: B119C004_150515_R0UR
000029  B119C004_150515_R0UR             V     C        10:58:00:22 10:58:03:07 01:02:48:16 01:02:51:01 
*FROM CLIP NAME:  15H-2B* 
*SOURCE FILE: B119C004_150515_R0UR
000030  B119C006_150515_R0UR             V     C        11:06:00:05 11:06:01:23 01:02:51:01 01:02:52:19 
*FROM CLIP NAME:  15H-4B 
*SOURCE FILE: B119C006_150515_R0UR
000031  A142C002_150515_R0T6             V     C        10:47:10:12 10:47:13:05 01:02:52:19 01:02:55:12 
*FROM CLIP NAME:  15G-2A* 
*SOURCE FILE: A142C002_150515_R0T6
000032  A142C004_150515_R0T6             V     C        10:58:03:18 10:58:06:05 01:02:55:12 01:02:57:23 
*FROM CLIP NAME:  15H-2A* 
*SOURCE FILE: A142C004_150515_R0T6
000033  B119C002_150515_R0UR             V     C        10:47:13:18 10:47:14:11 01:02:57:23 01:02:58:16 
*FROM CLIP NAME:  15G-2B* 
*SOURCE FILE: B119C002_150515_R0UR
000034  A143C007_150515_R0T6             V     C        12:55:51:05 12:55:51:14 01:02:58:16 01:02:59:01 
*FROM CLIP NAME:  15N-1A* 
*SOURCE FILE: A143C007_150515_R0T6
000035  B120C008_150515_R0UR             V     C        12:47:10:14 12:47:12:02 01:02:59:01 01:03:00:13 
*FROM CLIP NAME:  15N-1B* 
*SOURCE FILE: B120C008_150515_R0UR
000036  A142C007_150515_R0T6             V     C        11:21:12:05 11:21:13:11 01:03:00:13 01:03:01:19 
*FROM CLIP NAME:  15J-1A* 
*SOURCE FILE: A142C007_150515_R0T6
000037  B122C005_150516_R0UR             V     C        18:09:06:03 18:09:07:17 01:03:01:19 01:03:03:09 
*FROM CLIP NAME:  15V-1B* 
*SOURCE FILE: B122C005_150516_R0UR
000038  A142C007_150515_R0T6             V     C        11:21:14:05 11:21:15:10 01:03:03:09 01:03:04:14 
*FROM CLIP NAME:  15J-1A* 
*SOURCE FILE: A142C007_150515_R0T6
000039  A143C009_150515_R0T6             V     C        13:29:43:19 13:29:48:13 01:03:04:14 01:03:09:08 
*FROM CLIP NAME:  15P-2A* 
*SOURCE FILE: A143C009_150515_R0T6
000040  B120C010_150515_R0UR             V     C        13:29:48:17 13:29:51:01 01:03:09:08 01:03:11:16 
*FROM CLIP NAME:  15P-2B* 
*SOURCE FILE: B120C010_150515_R0UR
000041  B120C011_150515_R0UR             V     C        13:37:02:14 13:37:06:13 01:03:11:16 01:03:15:15 
*FROM CLIP NAME:  15P-3B* 
*SOURCE FILE: B120C011_150515_R0UR
000042  B119C008_150515_R0UR             V     C        11:25:47:22 11:25:52:19 01:03:15:15 01:03:20:12 
*FROM CLIP NAME:  15J-2B* 
*SOURCE FILE: B119C008_150515_R0UR
000043  A142C007_150515_R0T6             V     C        11:21:40:13 11:21:46:02 01:03:20:12 01:03:26:01 
*FROM CLIP NAME:  15J-1A* 
*SOURCE FILE: A142C007_150515_R0T6
000044  A142C008_150515_R0T6             V     C        11:27:16:03 11:27:23:12 01:03:26:01 01:03:33:10 
*FROM CLIP NAME:  15J-2A* 
*SOURCE FILE: A142C008_150515_R0T6
000045  A145C006_150515_R0T6             V     C        18:01:54:03 18:01:55:08 01:03:33:10 01:03:34:15 
*FROM CLIP NAME:  15U-1* 
*SOURCE FILE: A145C006_150515_R0T6
000046  A142C009_150515_R0T6             V     C        11:47:19:19 11:47:23:16 01:03:34:15 01:03:38:12 
*FROM CLIP NAME:  15K-1A 
*SOURCE FILE: A142C009_150515_R0T6
000047  A145C006_150515_R0T6             V     C        18:03:38:17 18:03:39:20 01:03:38:12 01:03:39:15 
*FROM CLIP NAME:  15U-1* 
*SOURCE FILE: A145C006_150515_R0T6
000048  A145C006_150515_R0T6             V     C        18:03:36:12 18:03:39:11 01:03:39:15 01:03:42:14 
*FROM CLIP NAME:  15U-1* 
*SOURCE FILE: A145C006_150515_R0T6
000049  A143C003_150515_R0T6             V     C        12:11:43:03 12:11:49:13 01:03:42:14 01:03:49:00 
*FROM CLIP NAME:  15K-5A* 
*SOURCE FILE: A143C003_150515_R0T6
000050  B120C005_150515_R0UR             V     C        12:11:49:04 12:11:55:19 01:03:49:00 01:03:55:15 
*FROM CLIP NAME:  15K-5B* 
*SOURCE FILE: B120C005_150515_R0UR
000051  A143C003_150515_R0T6             V     C        12:11:56:12 12:12:00:13 01:03:55:15 01:03:59:16 
*FROM CLIP NAME:  15K-5A* 
*SOURCE FILE: A143C003_150515_R0T6
000052  B120C005_150515_R0UR             V     C        12:11:58:11 12:12:01:16 01:03:59:16 01:04:02:21 
*FROM CLIP NAME:  15K-5B* 
*SOURCE FILE: B120C005_150515_R0UR
000053  A143C003_150515_R0T6             V     C        12:11:57:19 12:12:03:02 01:04:02:21 01:04:08:04 
*FROM CLIP NAME:  15K-5A* 
*SOURCE FILE: A143C003_150515_R0T6
000054  B120C005_150515_R0UR             V     C        12:12:03:12 12:12:08:11 01:04:08:04 01:04:13:03 
*FROM CLIP NAME:  15K-5B* 
*SOURCE FILE: B120C005_150515_R0UR
000055  B121C003_150515_R0UR             V     C        15:54:41:15 15:54:45:02 01:04:13:03 01:04:16:14 
*FROM CLIP NAME:  15T-3B* 
*SOURCE FILE: B121C003_150515_R0UR
000056  B122C003_150515_R0UR             V     C        17:17:15:08 17:17:19:19 01:04:16:14 01:04:21:01 
*FROM CLIP NAME:  A16-3B* 
*SOURCE FILE: B122C003_150515_R0UR
000057  B122C004_150515_R0UR             V     C        17:39:44:20 17:39:47:17 01:04:21:01 01:04:23:22 
*FROM CLIP NAME:  A16A-1B* 
*SOURCE FILE: B122C004_150515_R0UR
000058  A145C004_150515_R0T6             V     C        17:17:24:15 17:17:26:00 01:04:23:22 01:04:25:07 
*FROM CLIP NAME:  A16-3A* 
*SOURCE FILE: A145C004_150515_R0T6
000059  B122C003_150515_R0UR             V     C        17:17:26:00 17:17:32:04 01:04:25:07 01:04:31:11 
*FROM CLIP NAME:  A16-3B* 
*SOURCE FILE: B122C003_150515_R0UR
000060  A145C005_150515_R0T6             V     C        17:40:51:11 17:40:53:23 01:04:31:11 01:04:33:23 
*FROM CLIP NAME:  A16A-1A* 
*SOURCE FILE: A145C005_150515_R0T6
000061  B122C004_150515_R0UR             V     C        17:40:53:23 17:40:58:01 01:04:33:23 01:04:38:01 
*FROM CLIP NAME:  A16A-1B* 
*SOURCE FILE: B122C004_150515_R0UR
000062  A144C007_150515_R0T6             V     C        16:29:37:04 16:29:41:07 01:04:38:01 01:04:42:04 
*FROM CLIP NAME:  16-3A* 
*SOURCE FILE: A144C007_150515_R0T6
000063  B121C006_150515_R0UR             V     C        16:29:41:07 16:29:43:23 01:04:42:04 01:04:44:20 
*FROM CLIP NAME:  16-3B* 
*SOURCE FILE: B121C006_150515_R0UR
000064  A144C007_150515_R0T6             V     C        16:29:49:04 16:29:57:17 01:04:44:20 01:04:53:09 
*FROM CLIP NAME:  16-3A* 
*SOURCE FILE: A144C007_150515_R0T6
000065  A145C001_150515_R0T6             V     C        16:53:16:16 16:53:20:16 01:04:53:09 01:04:57:09 
*FROM CLIP NAME:  16A-1* 
*SOURCE FILE: A145C001_150515_R0T6
000066  A144C006_150515_R0T6             V     C        16:25:31:05 16:25:37:17 01:04:57:09 01:05:03:21 
*FROM CLIP NAME:  16-2A* 
*SOURCE FILE: A144C006_150515_R0T6
000067  B121C006_150515_R0UR             V     C        16:30:25:05 16:30:26:08 01:05:03:21 01:05:05:00 
*FROM CLIP NAME:  16-3B* 
*SOURCE FILE: B121C006_150515_R0UR
000068  A144C007_150515_R0T6             V     C        16:30:26:23 16:30:28:11 01:05:05:00 01:05:06:12 
*FROM CLIP NAME:  16-3A* 
*SOURCE FILE: A144C007_150515_R0T6
000069  B121C006_150515_R0UR             V     C        16:30:30:17 16:30:34:18 01:05:06:12 01:05:10:13 
*FROM CLIP NAME:  16-3B* 
*SOURCE FILE: B121C006_150515_R0UR
000070  A145C001_150515_R0T6             V     C        16:55:14:21 16:55:18:09 01:05:10:13 01:05:14:01 
*FROM CLIP NAME:  16A-1* 
*SOURCE FILE: A145C001_150515_R0T6
000071  A152C010_150519_R0T6             V     C        10:42:04:11 10:42:09:20 01:05:14:01 01:05:19:10 
*FROM CLIP NAME:  A17-10* 
*SOURCE FILE: A152C010_150519_R0T6
000072  A112C006_150505_R0T6             V     C        12:13:51:11 12:13:56:05 01:05:19:10 01:05:24:04 
*FROM CLIP NAME:  VA19-3* 
*SOURCE FILE: A112C006_150505_R0T6
000073  C033C007_150523_R57B             V     C        17:03:47:02 17:03:57:06 01:05:24:04 01:05:34:08 
*FROM CLIP NAME:  19-4* 
*SOURCE FILE: C033C007_150523_R57B
000074  B133C005_150520_R0UR             V     C        20:57:43:16 20:57:55:23 01:05:34:08 01:05:46:15 
*FROM CLIP NAME:  A6A-2B* 
*SOURCE FILE: B133C005_150520_R0UR
000075  B133C003_150520_R0UR             V     C        20:46:37:00 20:46:41:15 01:05:46:15 01:05:51:06 
*FROM CLIP NAME:  A6-2B* 
*SOURCE FILE: B133C003_150520_R0UR
000076  A154C003_150520_R0T6             V     C        20:46:47:03 20:46:48:13 01:05:51:06 01:05:52:16 
*FROM CLIP NAME:  A6-2A* 
*SOURCE FILE: A154C003_150520_R0T6
000077  B133C003_150520_R0UR             V     C        20:46:53:14 20:46:54:22 01:05:52:16 01:05:54:00 
*FROM CLIP NAME:  A6-2B* 
*SOURCE FILE: B133C003_150520_R0UR
000078  A154C005_150520_R0T6             V     C        20:58:29:13 20:58:34:18 01:05:54:00 01:05:59:05 
*FROM CLIP NAME:  A6A-2A* 
*SOURCE FILE: A154C005_150520_R0T6
000079  A154C003_150520_R0T6             V     C        20:47:15:16 20:47:19:23 01:05:59:05 01:06:03:12 
*FROM CLIP NAME:  A6-2A* 
*SOURCE FILE: A154C003_150520_R0T6
000080  B133C003_150520_R0UR             V     C        20:47:22:12 20:47:33:07 01:06:03:12 01:06:14:07 
*FROM CLIP NAME:  A6-2B* 
*SOURCE FILE: B133C003_150520_R0UR
000081  A155C001_150520_R0T6             V     C        21:02:24:11 21:02:30:10 01:06:14:07 01:06:20:06 
*FROM CLIP NAME:  A6B-1* 
*SOURCE FILE: A155C001_150520_R0T6
000082  C032C002_150522_R57B             V     C        13:33:33:07 13:33:38:03 01:06:20:06 01:06:25:02 
*FROM CLIP NAME:  B6C-2* 
*SOURCE FILE: C032C002_150522_R57B
000083  C032C002_150522_R57B             V     C        13:33:39:15 13:33:41:12 01:06:25:02 01:06:26:23 
*FROM CLIP NAME:  B6C-2* 
*SOURCE FILE: C032C002_150522_R57B
000084  C032C002_150522_R57B             V     C        13:34:16:11 13:34:18:13 01:06:26:23 01:06:29:01 
*FROM CLIP NAME:  B6C-2* 
*SOURCE FILE: C032C002_150522_R57B
000085  C032C002_150522_R57B             V     C        13:34:19:18 13:34:20:22 01:06:29:01 01:06:30:05 
*FROM CLIP NAME:  B6C-2* 
*SOURCE FILE: C032C002_150522_R57B
000086  C032C003_150522_R57B             V     C        13:42:20:08 13:42:23:17 01:06:30:05 01:06:33:14 
*FROM CLIP NAME:  B6C-3* 
*SOURCE FILE: C032C003_150522_R57B
000087  C032C003_150522_R57B             V     C        13:41:28:04 13:41:32:09 01:06:33:14 01:06:37:19 
*FROM CLIP NAME:  B6C-3* 
*SOURCE FILE: C032C003_150522_R57B
000088  C032C003_150522_R57B             V     C        13:42:38:05 13:42:39:08 01:06:37:19 01:06:38:22 
*FROM CLIP NAME:  B6C-3* 
*SOURCE FILE: C032C003_150522_R57B
000089  C032C003_150522_R57B             V     C        13:39:42:03 13:39:53:04 01:06:38:22 01:06:49:23 
*FROM CLIP NAME:  B6C-3* 
*SOURCE FILE: C032C003_150522_R57B
000090  C031C010_150522_R57B             V     C        12:14:18:06 12:14:23:01 01:06:49:23 01:06:54:18 
*FROM CLIP NAME:  VB6B-3* 
*SOURCE FILE: C031C010_150522_R57B
000091  C033C001_150522_R57B             V     C        14:59:58:03 15:00:01:23 01:06:54:18 01:06:58:14 
*FROM CLIP NAME:  B6D-1* 
*SOURCE FILE: C033C001_150522_R57B
000092  A166C008_150522_R0T6             V     C        12:39:48:10 12:39:59:16 01:06:58:14 01:07:09:20 
*FROM CLIP NAME:  21-2* 
*SOURCE FILE: A166C008_150522_R0T6
000093  A169C002_150522_R0T6             V     C        16:00:01:12 16:00:06:04 01:07:09:20 01:07:14:12 
*FROM CLIP NAME:  21C-1* 
*SOURCE FILE: A169C002_150522_R0T6
000094  A169C002_150522_R0T6             V     C        16:04:36:20 16:04:41:02 01:07:14:12 01:07:18:18 
*FROM CLIP NAME:  21C-1* 
*SOURCE FILE: A169C002_150522_R0T6
000095  A166C008_150522_R0T6             V     C        12:40:55:16 12:40:58:13 01:07:18:18 01:07:21:15 
*FROM CLIP NAME:  21-2* 
*SOURCE FILE: A166C008_150522_R0T6
000096  B141C007_150522_R0UR             V     C        15:26:10:08 15:26:13:02 01:07:21:15 01:07:24:09 
*FROM CLIP NAME:  21A-2B* 
*SOURCE FILE: B141C007_150522_R0UR
000097  A169C002_150522_R0T6             V     C        16:01:21:17 16:01:23:23 01:07:24:09 01:07:26:15 
*FROM CLIP NAME:  21C-1* 
*SOURCE FILE: A169C002_150522_R0T6
000098  A167C002_150522_R0T6             V     C        12:55:25:12 12:55:30:00 01:07:26:15 01:07:31:03 
*FROM CLIP NAME:  21-5* 
*SOURCE FILE: A167C002_150522_R0T6
000099  A169C002_150522_R0T6             V     C        16:01:23:19 16:01:27:09 01:07:31:03 01:07:34:17 
*FROM CLIP NAME:  21C-1* 
*SOURCE FILE: A169C002_150522_R0T6
000100  B141C007_150522_R0UR             V     C        15:26:28:19 15:26:31:08 01:07:34:17 01:07:37:06 
*FROM CLIP NAME:  21A-2B* 
*SOURCE FILE: B141C007_150522_R0UR
000101  A169C002_150522_R0T6             V     C        16:05:16:18 16:05:19:13 01:07:37:06 01:07:40:01 
*FROM CLIP NAME:  21C-1* 
*SOURCE FILE: A169C002_150522_R0T6
000102  A167C002_150522_R0T6             V     C        12:56:11:20 12:56:13:07 01:07:40:01 01:07:41:12 
*FROM CLIP NAME:  21-5* 
*SOURCE FILE: A167C002_150522_R0T6
000103  A169C002_150522_R0T6             V     C        16:06:00:23 16:06:03:16 01:07:41:12 01:07:44:05 
*FROM CLIP NAME:  21C-1* 
*SOURCE FILE: A169C002_150522_R0T6
000104  A169C002_150522_R0T6             V     C        16:06:03:16 16:06:05:14 01:07:44:05 01:07:46:17 
M2      A169C002_150522_R0T6                      018.0 16:06:03:16 
*FROM CLIP NAME:  21C-1* 
*SOURCE FILE: A169C002_150522_R0T6
000105  B141C007_150522_R0UR             V     C        15:27:36:03 15:27:36:15 01:07:46:17 01:07:47:08 
M2      B141C007_150522_R0UR                      018.0 15:27:36:03 
*FROM CLIP NAME:  21A-2B* 
*SOURCE FILE: B141C007_150522_R0UR
000106  B141C007_150522_R0UR             V     C        15:27:36:14 15:27:45:17 01:07:47:08 01:07:56:11 
*FROM CLIP NAME:  21A-2B* 
*SOURCE FILE: B141C007_150522_R0UR
000107  A168C004_150522_R0T6             V     C        15:27:47:12 15:27:52:09 01:07:56:11 01:08:01:08 
*FROM CLIP NAME:  21A-2A* 
*SOURCE FILE: A168C004_150522_R0T6
000108  A168C006_150522_R0T6             V     C        15:41:28:15 15:41:34:22 01:08:01:08 01:08:07:15 
*FROM CLIP NAME:  21B-2A* 
*SOURCE FILE: A168C006_150522_R0T6
000109  X001C018_150529_R0UR             V     C        02:05:58:13 02:06:01:09 01:08:07:15 01:08:10:11 
*FROM CLIP NAME:  X3E_3* 
*SOURCE FILE: X001C018_150529_R0UR
000110  B001C005_150330_R0UR             V     C        12:58:48:04 12:58:52:19 01:08:10:11 01:08:15:02 
*FROM CLIP NAME:  6-5B* 
*SOURCE FILE: B001C005_150330_R0UR
000111  A003C008_150330_R0T6             V     C        16:11:25:02 16:11:26:22 01:08:15:02 01:08:16:22 
*FROM CLIP NAME:  6C-7 PU* 
*SOURCE FILE: A003C008_150330_R0T6
000112  B001C011_150330_R0UR             V     C        14:01:11:07 14:01:12:19 01:08:16:22 01:08:18:10 
*FROM CLIP NAME:  6A-6B* 
*SOURCE FILE: B001C011_150330_R0UR
000113  B002C004_150330_R0UR             V     C        16:01:00:22 16:01:02:11 01:08:18:10 01:08:19:23 
*FROM CLIP NAME:  6C-4B 
*SOURCE FILE: B002C004_150330_R0UR
000114  B002C003_150330_R0UR             V     C        15:58:02:09 15:58:04:04 01:08:19:23 01:08:21:18 
*FROM CLIP NAME:  6C-3B* 
*SOURCE FILE: B002C003_150330_R0UR
000115  B001C005_150330_R0UR             V     C        12:59:02:10 12:59:05:07 01:08:21:18 01:08:24:15 
*FROM CLIP NAME:  6-5B* 
*SOURCE FILE: B001C005_150330_R0UR
000116  B002C007_150330_R0UR             V     C        16:20:26:23 16:20:29:20 01:08:24:15 01:08:27:12 
*FROM CLIP NAME:  6D-2B* 
*SOURCE FILE: B002C007_150330_R0UR
000117  B001C011_150330_R0UR             V     C        14:01:27:07 14:01:33:04 01:08:27:12 01:08:33:09 
*FROM CLIP NAME:  6A-6B* 
*SOURCE FILE: B001C011_150330_R0UR
000118  A002C012_150330_R0T6             V     C        14:01:33:04 14:01:34:14 01:08:33:09 01:08:34:19 
*FROM CLIP NAME:  6A-6A* 
*SOURCE FILE: A002C012_150330_R0T6
000119  B001C008_150330_R0UR             V     C        13:54:46:00 13:54:49:05 01:08:34:19 01:08:38:00 
*FROM CLIP NAME:  6A-3B 
*SOURCE FILE: B001C008_150330_R0UR
000120  A002C021_150330_R0T6             V     C        14:17:41:15 14:17:45:03 01:08:38:00 01:08:41:12 
*FROM CLIP NAME:  6B-4A* 
*SOURCE FILE: A002C021_150330_R0T6
000121  B003C005_150330_R0UR             V     C        17:09:39:10 17:09:42:12 01:08:41:12 01:08:44:14 
*FROM CLIP NAME:  7-5* 
*SOURCE FILE: B003C005_150330_R0UR
000122  A003C014_150330_R0T6             V     C        17:48:40:15 17:48:43:01 01:08:44:14 01:08:47:00 
*FROM CLIP NAME:  7C-2A* 
*SOURCE FILE: A003C014_150330_R0T6
000123  B003C005_150330_R0UR             V     C        17:09:53:06 17:09:55:09 01:08:47:00 01:08:49:03 
*FROM CLIP NAME:  7-5* 
*SOURCE FILE: B003C005_150330_R0UR
000124  B114C004_150514_R0UR             V     C        10:59:53:16 11:00:00:13 01:08:49:03 01:08:56:00 
*FROM CLIP NAME:  V8A-1* 
*SOURCE FILE: B114C004_150514_R0UR
000125  B003C011_150330_R0UR             V     C        17:44:58:14 17:44:59:23 01:08:58:14 01:08:59:23 
*FROM CLIP NAME:  7B-2B* 
*SOURCE FILE: B003C011_150330_R0UR
000126  A003C012_150330_R0T6             V     C        17:45:00:01 17:45:02:01 01:08:59:23 01:09:01:23 
*FROM CLIP NAME:  7B-2A* 
*SOURCE FILE: A003C012_150330_R0T6
000127  B003C017_150331_R0UR             V     C        18:18:12:06 18:18:15:00 01:09:01:23 01:09:04:17 
*FROM CLIP NAME:  AA9A-2* 
*SOURCE FILE: B003C017_150331_R0UR
000128  B117C002_150515_R0UR             V     C        20:00:47:20 20:00:50:02 01:09:04:17 01:09:06:23 
*FROM CLIP NAME:  AA9B-2* 
*SOURCE FILE: B117C002_150515_R0UR
000129  B003C017_150331_R0UR             V     C        18:18:15:01 18:18:17:15 01:09:06:23 01:09:09:13 
*FROM CLIP NAME:  AA9A-2* 
*SOURCE FILE: B003C017_150331_R0UR
000130  A005C010_150331_R0T6             V     C        10:11:52:00 10:11:56:14 01:09:09:13 01:09:14:03 
*FROM CLIP NAME:  10-5A 
*SOURCE FILE: A005C010_150331_R0T6
000131  B004C010_150331_R0UR             V     C        10:11:56:04 10:11:59:03 01:09:14:03 01:09:17:02 
*FROM CLIP NAME:  10-5B 
*SOURCE FILE: B004C010_150331_R0UR
000132  A005C015_150331_R0T6             V     C        10:31:38:21 10:31:42:02 01:09:17:02 01:09:20:07 
*FROM CLIP NAME:  10A-2A* 
*SOURCE FILE: A005C015_150331_R0T6
000133  B004C010_150331_R0UR             V     C        10:12:01:20 10:12:03:02 01:09:20:07 01:09:21:13 
*FROM CLIP NAME:  10-5B 
*SOURCE FILE: B004C010_150331_R0UR
000134  B001C018_150330_R0UR             V     C        14:21:44:04 14:21:47:01 01:09:21:13 01:09:24:10 
*FROM CLIP NAME:  12-2* 
*SOURCE FILE: B001C018_150330_R0UR
000135  A006C003_150331_R0T6             V     C        12:02:46:03 12:02:48:05 01:09:24:10 01:09:26:12 
*FROM CLIP NAME:  V13B-1A* 
*SOURCE FILE: A006C003_150331_R0T6
000136  A005C017_150331_R0T6             V     C        11:32:40:00 11:32:46:00 01:09:26:12 01:09:32:12 
*FROM CLIP NAME:  V13-2A 
*SOURCE FILE: A005C017_150331_R0T6
000137  A048C002_150417_R0T6             V     C        17:07:50:14 17:07:53:19 01:09:32:12 01:09:35:17 
*FROM CLIP NAME:  13G-2* 
*SOURCE FILE: A048C002_150417_R0T6
000138  B005C004_150331_R0UR             V     C        11:53:13:21 11:53:16:15 01:09:35:17 01:09:38:11 
*FROM CLIP NAME:  V13A-2B* 
*SOURCE FILE: B005C004_150331_R0UR
000139  A048C002_150417_R0T6             V     C        17:07:56:10 17:07:59:07 01:09:38:11 01:09:41:08 
*FROM CLIP NAME:  13G-2* 
*SOURCE FILE: A048C002_150417_R0T6
000140  A006C001_150331_R0T6             V     C        11:49:00:01 11:49:04:02 01:09:41:08 01:09:45:09 
*FROM CLIP NAME:  V13A-1A* 
*SOURCE FILE: A006C001_150331_R0T6
000141  A006C004_150331_R0T6             V     C        12:07:58:05 12:08:01:08 01:09:45:09 01:09:48:12 
*FROM CLIP NAME:  V13C-1A* 
*SOURCE FILE: A006C004_150331_R0T6
000142  A005C018_150331_R0T6             V     C        11:42:13:20 11:42:17:04 01:09:48:12 01:09:51:20 
*FROM CLIP NAME:  V13-3A* 
*SOURCE FILE: A005C018_150331_R0T6
000143  A006C004_150331_R0T6             V     C        12:08:01:14 12:08:07:06 01:09:51:20 01:09:57:12 
*FROM CLIP NAME:  V13C-1A* 
*SOURCE FILE: A006C004_150331_R0T6
000144  B005C007_150331_R0UR             V     C        12:08:08:17 12:08:13:06 01:09:57:12 01:10:02:01 
*FROM CLIP NAME:  V13C-1B* 
*SOURCE FILE: B005C007_150331_R0UR
000145  A005C018_150331_R0T6             V     C        11:42:29:09 11:42:42:21 01:10:02:01 01:10:15:13 
*FROM CLIP NAME:  V13-3A* 
*SOURCE FILE: A005C018_150331_R0T6
000146  A007C001_150331_R0T6             V     C        12:29:59:17 12:30:18:04 01:10:15:13 01:10:34:00 
*FROM CLIP NAME:  V13D-1* 
*SOURCE FILE: A007C001_150331_R0T6
000147  A005C001_150331_R0T6             V     C        09:20:27:15 09:20:35:06 01:10:34:00 01:10:41:15 
*FROM CLIP NAME:  A14B-1A 
*SOURCE FILE: A005C001_150331_R0T6
000148  B004C001_150331_R0UR             V     C        09:20:35:06 09:20:45:06 01:10:41:15 01:10:51:15 
*FROM CLIP NAME:  A14B-1B 
*SOURCE FILE: B004C001_150331_R0UR
000149  A001C007_150330_R0T6             V     C        10:31:40:15 10:31:43:10 01:10:51:15 01:10:54:10 
*FROM CLIP NAME:  A14-3* 
*SOURCE FILE: A001C007_150330_R0T6
000150  A001C001_150330_R0T6             V     C        09:34:48:06 09:34:54:19 01:10:54:10 01:11:00:23 
*FROM CLIP NAME:  B14-1 
*SOURCE FILE: A001C001_150330_R0T6
000151  B006C007_150331_R0UR             V     C        13:52:43:04 13:52:46:17 01:11:00:23 01:11:04:12 
*FROM CLIP NAME:  V14-3B* 
*SOURCE FILE: B006C007_150331_R0UR
000152  A007C003_150331_R0T6             V     C        13:51:09:00 13:51:10:21 01:11:04:12 01:11:06:09 
*FROM CLIP NAME:  V14-2A 
*SOURCE FILE: A007C003_150331_R0T6
000153  B037C001_150414_R0UR             V     C        16:53:42:16 16:53:46:21 01:11:06:09 01:11:10:14 
*FROM CLIP NAME:  A80-1 
*SOURCE FILE: B037C001_150414_R0UR
000154  A008C004_150331_R0T6             V     C        15:54:20:12 15:54:23:14 01:11:10:14 01:11:13:16 
*FROM CLIP NAME:  14B-5* 
*SOURCE FILE: A008C004_150331_R0T6
000155  B006C007_150331_R0UR             V     C        13:53:33:07 13:53:36:17 01:11:13:16 01:11:17:02 
*FROM CLIP NAME:  V14-3B* 
*SOURCE FILE: B006C007_150331_R0UR
000156  B007C001_150331_R0UR             V     C        15:40:39:15 15:40:43:04 01:11:17:02 01:11:20:15 
*FROM CLIP NAME:  14B-1B 
*SOURCE FILE: B007C001_150331_R0UR
000157  B006C007_150331_R0UR             V     C        13:53:41:04 13:53:43:23 01:11:20:15 01:11:23:10 
*FROM CLIP NAME:  V14-3B* 
*SOURCE FILE: B006C007_150331_R0UR
000158  A007C004_150331_R0T6             V     C        13:53:44:13 13:53:48:14 01:11:23:10 01:11:27:11 
*FROM CLIP NAME:  V14-3A* 
*SOURCE FILE: A007C004_150331_R0T6
000159  B006C009_150331_R0UR             V     C        14:07:45:17 14:07:48:17 01:11:27:11 01:11:30:11 
*FROM CLIP NAME:  V14A-1B* 
*SOURCE FILE: B006C009_150331_R0UR
000160  A007C005_150331_R0T6             V     C        13:57:06:18 13:57:09:10 01:11:30:11 01:11:33:03 
*FROM CLIP NAME:  V14-4A* 
*SOURCE FILE: A007C005_150331_R0T6
000161  B006C008_150331_R0UR             V     C        13:57:31:16 13:57:42:07 01:11:33:03 01:11:43:18 
*FROM CLIP NAME:  V14-4B* 
*SOURCE FILE: B006C008_150331_R0UR
000162  B126C001_150518_R0UR             V     C        15:00:56:00 15:00:57:22 01:11:43:18 01:11:45:16 
*FROM CLIP NAME:  V29B-1B* 
*SOURCE FILE: B126C001_150518_R0UR
000163  A146C007_150518_R0T6             V     C        14:27:05:01 14:27:07:17 01:11:45:16 01:11:48:08 
*FROM CLIP NAME:  V29-2* 
*SOURCE FILE: A146C007_150518_R0T6
000164  B126C006_150518_R0UR             V     C        15:31:16:15 15:31:19:03 01:11:48:08 01:11:50:20 
*FROM CLIP NAME:  29C-4B* 
*SOURCE FILE: B126C006_150518_R0UR
000165  A147C008_150518_R0T6             V     C        15:52:26:00 15:52:27:17 01:11:50:20 01:11:52:13 
*FROM CLIP NAME:  29D-2* 
*SOURCE FILE: A147C008_150518_R0T6
000166  B126C004_150518_R0UR             V     C        15:20:26:18 15:20:28:16 01:11:52:13 01:11:54:11 
*FROM CLIP NAME:  29C-2B* 
*SOURCE FILE: B126C004_150518_R0UR
000167  A147C006_150518_R0T6             V     C        15:31:24:18 15:31:26:13 01:11:54:11 01:11:56:06 
*FROM CLIP NAME:  29C-4A* 
*SOURCE FILE: A147C006_150518_R0T6
000168  B126C007_150518_R0UR             V     C        15:49:26:20 15:49:28:08 01:11:56:06 01:11:57:18 
*FROM CLIP NAME:  29D-1B 
*SOURCE FILE: B126C007_150518_R0UR
000169  A147C006_150518_R0T6             V     C        15:31:27:04 15:31:28:10 01:11:57:18 01:11:59:00 
*FROM CLIP NAME:  29C-4A* 
*SOURCE FILE: A147C006_150518_R0T6
000170  B126C004_150518_R0UR             V     C        15:20:38:23 15:20:40:01 01:11:59:00 01:12:00:02 
*FROM CLIP NAME:  29C-2B* 
*SOURCE FILE: B126C004_150518_R0UR
000171  A146C006_150518_R0T6             V     C        14:24:34:16 14:24:37:21 01:12:00:02 01:12:03:07 
*FROM CLIP NAME:  V29-1* 
*SOURCE FILE: A146C006_150518_R0T6
000172  A153C010_150519_R0T6             V     C        15:26:39:13 15:26:49:21 01:12:03:07 01:12:13:15 
*FROM CLIP NAME:  31C-1A** 
*SOURCE FILE: A153C010_150519_R0T6
000173  B141C004_150522_R0UR             V     C        10:43:02:18 10:43:03:11 01:12:13:15 01:12:14:08 
*FROM CLIP NAME:  31F-1B* 
*SOURCE FILE: B141C004_150522_R0UR
000174  B141C002_150522_R0UR             V     C        10:33:35:13 10:33:36:01 01:12:14:08 01:12:14:20 
*FROM CLIP NAME:  31E-2B* 
*SOURCE FILE: B141C002_150522_R0UR
000175  A166C004_150522_R0T6             V     C        10:44:17:19 10:44:19:14 01:12:14:20 01:12:16:15 
*FROM CLIP NAME:  31F-1A* 
*SOURCE FILE: A166C004_150522_R0T6
000176  A153C010_150519_R0T6             V     C        15:27:00:03 15:27:02:05 01:12:16:15 01:12:18:17 
*FROM CLIP NAME:  31C-1A** 
*SOURCE FILE: A153C010_150519_R0T6
000177  B131C013_150519_R0UR             V     C        15:45:51:07 15:45:55:00 01:12:18:17 01:12:22:10 
*FROM CLIP NAME:  31D-3B* 
*SOURCE FILE: B131C013_150519_R0UR
000178  B131C009_150519_R0UR             V     C        15:11:18:13 15:11:21:01 01:12:22:10 01:12:24:22 
*FROM CLIP NAME:  31B-1B* 
*SOURCE FILE: B131C009_150519_R0UR
000179  A153C008_150519_R0T6             V     C        15:04:10:03 15:04:19:11 01:12:24:22 01:12:34:06 
*FROM CLIP NAME:  31A-2A* 
*SOURCE FILE: A153C008_150519_R0T6
000180  B131C008_150519_R0UR             V     C        15:04:19:11 15:04:21:08 01:12:34:06 01:12:36:03 
*FROM CLIP NAME:  31A-2B* 
*SOURCE FILE: B131C008_150519_R0UR
000181  A153C008_150519_R0T6             V     C        15:04:21:08 15:04:23:05 01:12:36:03 01:12:38:00 
*FROM CLIP NAME:  31A-2A* 
*SOURCE FILE: A153C008_150519_R0T6
000182  A153C006_150519_R0T6             V     C        14:54:53:13 14:54:56:20 01:12:38:00 01:12:41:07 
*FROM CLIP NAME:  31-6A* 
*SOURCE FILE: A153C006_150519_R0T6
000183  A153C008_150519_R0T6             V     C        15:04:23:22 15:04:30:15 01:12:41:07 01:12:48:00 
*FROM CLIP NAME:  31A-2A* 
*SOURCE FILE: A153C008_150519_R0T6
000184  B131C008_150519_R0UR             V     C        15:04:31:12 15:04:37:12 01:12:48:00 01:12:54:00 
*FROM CLIP NAME:  31A-2B* 
*SOURCE FILE: B131C008_150519_R0UR
000185  A153C008_150519_R0T6             V     C        15:04:37:12 15:04:41:08 01:12:54:00 01:12:57:20 
*FROM CLIP NAME:  31A-2A* 
*SOURCE FILE: A153C008_150519_R0T6
000186  A149C001_150518_R0T6             V     C        18:05:56:06 18:06:00:13 01:12:57:20 01:13:02:03 
*FROM CLIP NAME:  33C-1* 
*SOURCE FILE: A149C001_150518_R0T6
000187  B127C005_150519_R0UR             V     C        18:27:37:09 18:27:42:20 01:13:02:03 01:13:07:14 
*FROM CLIP NAME:  33D-1B* 
*SOURCE FILE: B127C005_150519_R0UR
000188  A148C006_150518_R0T6             V     C        17:53:11:06 17:53:14:21 01:13:07:14 01:13:11:05 
*FROM CLIP NAME:  33B-2* 
*SOURCE FILE: A148C006_150518_R0T6
000189  A146C010_150518_R0T6             V     C        14:43:59:16 14:44:02:05 01:13:11:05 01:13:13:18 
*FROM CLIP NAME:  33-2* 
*SOURCE FILE: A146C010_150518_R0T6
000190  A149C001_150518_R0T6             V     C        18:06:14:02 18:06:17:01 01:13:13:18 01:13:16:17 
*FROM CLIP NAME:  33C-1* 
*SOURCE FILE: A149C001_150518_R0T6
000191  B127C005_150519_R0UR             V     C        18:27:56:11 18:28:01:20 01:13:16:17 01:13:22:02 
*FROM CLIP NAME:  33D-1B* 
*SOURCE FILE: B127C005_150519_R0UR
000192  A149C001_150518_R0T6             V     C        18:06:20:20 18:06:23:19 01:13:22:02 01:13:25:01 
*FROM CLIP NAME:  33C-1* 
*SOURCE FILE: A149C001_150518_R0T6
000193  B129C001_150519_R0UR             V     C        19:48:10:20 19:48:12:09 01:13:25:01 01:13:26:14 
*FROM CLIP NAME:  33K-1* 
*SOURCE FILE: B129C001_150519_R0UR
000194  A149C001_150518_R0T6             V     C        18:01:57:03 18:01:58:13 01:13:26:14 01:13:28:00 
*FROM CLIP NAME:  33C-1* 
*SOURCE FILE: A149C001_150518_R0T6
000195  B128C005_150519_R0UR             V     C        19:36:25:21 19:36:27:22 01:13:28:00 01:13:30:01 
*FROM CLIP NAME:  33J-1* 
*SOURCE FILE: B128C005_150519_R0UR
000196  A148C004_150518_R0T6             V     C        17:34:51:12 17:34:56:18 01:13:30:01 01:13:35:07 
*FROM CLIP NAME:  33A-4A* 
*SOURCE FILE: A148C004_150518_R0T6
000197  B128C002_150519_R0UR             V     C        18:46:57:12 18:47:02:20 01:13:35:07 01:13:40:15 
*FROM CLIP NAME:  33E-2B* 
*SOURCE FILE: B128C002_150519_R0UR
000198  A148C004_150518_R0T6             V     C        17:35:08:03 17:35:10:02 01:13:40:15 01:13:42:14 
*FROM CLIP NAME:  33A-4A* 
*SOURCE FILE: A148C004_150518_R0T6
000199  A150C005_150518_R0T6             V     C        19:36:22:17 19:36:26:02 01:13:42:14 01:13:45:23 
*FROM CLIP NAME:  V33J-1 
*SOURCE FILE: A150C005_150518_R0T6
000200  A148C004_150518_R0T6             V     C        17:35:11:19 17:35:12:06 01:13:45:23 01:13:46:10 
*FROM CLIP NAME:  33A-4A* 
*SOURCE FILE: A148C004_150518_R0T6
000201  B128C005_150519_R0UR             V     C        19:40:21:07 19:40:23:23 01:13:46:10 01:13:49:02 
*FROM CLIP NAME:  33J-1* 
*SOURCE FILE: B128C005_150519_R0UR
000202  A149C001_150518_R0T6             V     C        18:04:41:08 18:04:48:07 01:13:49:02 01:13:54:15 
M2      A149C001_150518_R0T6                      030.1 18:04:41:08 
*FROM CLIP NAME:  33C-1* 
*SOURCE FILE: A149C001_150518_R0T6
000203  B128C005_150519_R0UR             V     C        19:39:29:00 19:39:31:06 01:13:54:15 01:13:56:21 
*FROM CLIP NAME:  33J-1* 
*SOURCE FILE: B128C005_150519_R0UR
000204  A148C003_150518_R0T6             V     C        17:29:01:06 17:29:03:18 01:13:56:21 01:13:59:09 
*FROM CLIP NAME:  33A-3A* 
*SOURCE FILE: A148C003_150518_R0T6
000205  A150C004_150518_R0T6             V     C        19:21:20:18 19:21:26:18 01:13:59:09 01:14:05:09 
*FROM CLIP NAME:  V33H-2 
*SOURCE FILE: A150C004_150518_R0T6
000206  X003C010_150530_R0UR             V     C        07:21:08:01 07:21:11:14 01:14:05:09 01:14:08:22 
*FROM CLIP NAME:  TRANSITION2_1 
*SOURCE FILE: X003C010_150530_R0UR
000207  C032C003_150522_R57B             V     C        13:39:39:11 13:39:43:00 01:14:08:22 01:14:12:11 
*FROM CLIP NAME:  B6C-3* 
*SOURCE FILE: C032C003_150522_R57B
000208  C032C003_150522_R57B             V     C        13:40:01:13 13:40:07:13 01:14:12:11 01:14:18:11 
*FROM CLIP NAME:  B6C-3* 
*SOURCE FILE: C032C003_150522_R57B
000209  C031C010_150522_R57B             V     C        12:14:46:03 12:14:50:11 01:14:18:11 01:14:22:19 
*FROM CLIP NAME:  VB6B-3* 
*SOURCE FILE: C031C010_150522_R57B
000210  C033C002_150522_R57B             V     C        15:07:24:08 15:07:26:15 01:14:22:19 01:14:25:02 
*FROM CLIP NAME:  B6D-2* 
*SOURCE FILE: C033C002_150522_R57B
000211  C031C011_150522_R57B             V     C        12:18:35:06 12:18:42:06 01:14:25:02 01:14:32:02 
*FROM CLIP NAME:  VB6B-4* 
*SOURCE FILE: C031C011_150522_R57B
000212  C032C001_150522_R57B             V     C        13:22:40:23 13:22:43:15 01:14:32:02 01:14:34:18 
*FROM CLIP NAME:  B6C-1* 
*SOURCE FILE: C032C001_150522_R57B
000213  C033C001_150522_R57B             V     C        14:59:04:15 14:59:06:14 01:14:34:18 01:14:36:17 
*FROM CLIP NAME:  B6D-1* 
*SOURCE FILE: C033C001_150522_R57B
000214  C031C007_150522_R57B             V     C        12:03:42:18 12:03:45:05 01:14:36:17 01:14:39:04 
*FROM CLIP NAME:  VB6A-1* 
*SOURCE FILE: C031C007_150522_R57B
000215  C033C001_150522_R57B             V     C        14:59:12:18 14:59:15:08 01:14:39:04 01:14:41:18 
*FROM CLIP NAME:  B6D-1* 
*SOURCE FILE: C033C001_150522_R57B
000216  C031C007_150522_R57B             V     C        12:03:03:18 12:03:04:11 01:14:41:18 01:14:42:11 
*FROM CLIP NAME:  VB6A-1*.SUB.01 
*SOURCE FILE: C031C007_150522_R57B
000217  C031C007_150522_R57B             V     C        12:03:04:11 12:03:04:14 01:14:42:11 01:14:42:13 
M2      C031C007_150522_R57B                      026.2 12:03:04:11 
*FROM CLIP NAME:  VB6A-1*.SUB.01 
*SOURCE FILE: C031C007_150522_R57B
000218  C031C007_150522_R57B             V     C        12:03:05:02 12:03:05:09 01:14:42:13 01:14:42:16 
M2      C031C007_150522_R57B                      056.9 12:03:05:02 
*FROM CLIP NAME:  VB6A-1*.SUB.01 
*SOURCE FILE: C031C007_150522_R57B
000219  C031C007_150522_R57B             V     C        12:03:05:10 12:03:06:05 01:14:42:16 01:14:43:02 
M2      C031C007_150522_R57B                      046.3 12:03:05:10 
*FROM CLIP NAME:  VB6A-1*.SUB.01 
*SOURCE FILE: C031C007_150522_R57B
000220  C031C007_150522_R57B             V     C        12:03:05:02 12:03:05:03 01:14:43:02 01:14:43:06 
M2      C031C007_150522_R57B                     -024.0 12:03:05:02 
*FROM CLIP NAME:  VB6A-1*.SUB.01 
*SOURCE FILE: C031C007_150522_R57B
000221  A157C003_150520_R0T6             V     C        12:52:39:03 12:52:46:04 01:14:43:06 01:14:50:07 
*FROM CLIP NAME:  A26C-1* 
*SOURCE FILE: A157C003_150520_R0T6
000222  A157C002_150520_R0T6             V     C        12:36:57:05 12:37:02:00 01:14:50:07 01:14:55:02 
*FROM CLIP NAME:  A26B-1* 
*SOURCE FILE: A157C002_150520_R0T6
000223  A156C005_150520_R0T6             V     C        12:05:37:13 12:05:40:05 01:14:55:02 01:14:57:18 
*FROM CLIP NAME:  A26-5* 
*SOURCE FILE: A156C005_150520_R0T6
000224  A157C002_150520_R0T6             V     C        12:37:04:13 12:37:06:10 01:14:57:18 01:14:59:15 
*FROM CLIP NAME:  A26B-1* 
*SOURCE FILE: A157C002_150520_R0T6
000225  B134C011_150520_R0UR             V     C        14:25:39:17 14:25:45:01 01:14:59:15 01:15:04:23 
*FROM CLIP NAME:  V26-6* 
*SOURCE FILE: B134C011_150520_R0UR
000226  B134C011_150520_R0UR             V     C        14:25:45:01 14:25:46:04 01:15:04:23 01:15:06:02 
*FROM CLIP NAME:  V26-6* 
*SOURCE FILE: B134C011_150520_R0UR
000227  B134C013_150520_R0UR             V     C        14:41:06:08 14:41:07:23 01:15:06:02 01:15:07:17 
*FROM CLIP NAME:  26B-1* 
*SOURCE FILE: B134C013_150520_R0UR
000228  A157C012_150520_R0T6             V     C        14:16:21:04 14:16:24:07 01:15:07:17 01:15:10:20 
*FROM CLIP NAME:  V26A-8* 
*SOURCE FILE: A157C012_150520_R0T6
000229  A158C006_150520_R0T6             V     C        16:57:24:16 16:57:26:15 01:15:10:20 01:15:12:19 
*FROM CLIP NAME:  27-6A* 
*SOURCE FILE: A158C006_150520_R0T6
000230  B136C002_150521_R0UR             V     C        18:05:51:13 18:05:52:12 01:15:12:19 01:15:13:18 
*FROM CLIP NAME:  27C-2 
*SOURCE FILE: B136C002_150521_R0UR
000231  A158C006_150520_R0T6             V     C        16:57:27:02 16:57:30:03 01:15:13:18 01:15:16:19 
*FROM CLIP NAME:  27-6A* 
*SOURCE FILE: A158C006_150520_R0T6
000232  B135C011_150520_R0UR             V     C        17:38:02:19 17:38:05:12 01:15:16:19 01:15:19:12 
*FROM CLIP NAME:  27B-2* 
*SOURCE FILE: B135C011_150520_R0UR
000233  B135C008_150520_R0UR             V     C        17:07:13:23 17:07:17:07 01:15:19:12 01:15:22:20 
*FROM CLIP NAME:  27A-2 
*SOURCE FILE: B135C008_150520_R0UR
000234  A158C006_150520_R0T6             V     C        16:57:38:19 16:57:41:11 01:15:22:20 01:15:25:12 
*FROM CLIP NAME:  27-6A* 
*SOURCE FILE: A158C006_150520_R0T6
000235  B136C003_150521_R0UR             V     C        18:09:53:12 18:09:57:14 01:15:25:12 01:15:29:14 
*FROM CLIP NAME:  27C-3* 
*SOURCE FILE: B136C003_150521_R0UR
000236  A164C007_150521_R0T6             V     C        19:43:53:21 19:43:54:10 01:15:29:14 01:15:30:03 
*FROM CLIP NAME:  36E-1A* 
*SOURCE FILE: A164C007_150521_R0T6
000237  B135C004_150520_R0UR             V     C        16:52:19:08 16:52:20:06 01:15:30:03 01:15:31:01 
*FROM CLIP NAME:  27-4B 
*SOURCE FILE: B135C004_150520_R0UR
000238  B140C003_150522_R0UR             V     C        19:43:56:16 19:43:58:01 01:15:31:01 01:15:32:10 
*FROM CLIP NAME:  36E-1B* 
*SOURCE FILE: B140C003_150522_R0UR
000239  B135C005_150520_R0UR             V     C        16:54:51:15 16:54:52:21 01:15:32:10 01:15:33:16 
*FROM CLIP NAME:  27-5B 
*SOURCE FILE: B135C005_150520_R0UR
000240  B140C003_150522_R0UR             V     C        19:44:18:21 19:44:20:04 01:15:33:16 01:15:34:23 
*FROM CLIP NAME:  36E-1B* 
*SOURCE FILE: B140C003_150522_R0UR
000241  A160C004_150521_R0T6             V     C        09:07:46:18 09:07:47:13 01:15:34:23 01:15:35:18 
*FROM CLIP NAME:  27F-4A* 
*SOURCE FILE: A160C004_150521_R0T6
000242  B135C009_150520_R0UR             V     C        17:11:19:04 17:11:20:04 01:15:35:18 01:15:36:18 
*FROM CLIP NAME:  27A-3* 
*SOURCE FILE: B135C009_150520_R0UR
000243  B136C003_150521_R0UR             V     C        18:10:06:17 18:10:07:15 01:15:36:18 01:15:37:16 
*FROM CLIP NAME:  27C-3* 
*SOURCE FILE: B136C003_150521_R0UR
000244  B137C003_150521_R0UR             V     C        09:13:29:09 09:13:39:07 01:15:37:16 01:15:47:14 
*FROM CLIP NAME:  27F-5B* 
*SOURCE FILE: B137C003_150521_R0UR
000245  B135C012_150520_R0UR             V     C        17:42:14:00 17:42:18:18 01:15:47:14 01:15:52:08 
*FROM CLIP NAME:  27B-3* 
*SOURCE FILE: B135C012_150520_R0UR
000246  A159C004_150520_R0T6             V     C        19:38:55:17 19:39:00:12 01:15:52:08 01:15:57:03 
*FROM CLIP NAME:  27E-3* 
*SOURCE FILE: A159C004_150520_R0T6
000247  A158C010_150520_R0T6             V     C        19:08:54:18 19:08:59:23 01:15:57:03 01:16:02:08 
*FROM CLIP NAME:  27D-4* 
*SOURCE FILE: A158C010_150520_R0T6
000248  A159C004_150520_R0T6             V     C        19:39:05:17 19:39:10:14 01:16:02:08 01:16:07:05 
*FROM CLIP NAME:  27E-3* 
*SOURCE FILE: A159C004_150520_R0T6
000249  A158C010_150520_R0T6             V     C        19:09:04:17 19:09:53:08 01:16:07:05 01:16:55:20 
*FROM CLIP NAME:  27D-4* 
*SOURCE FILE: A158C010_150520_R0T6
000250  FKI_LEADER_TAIL_1920X1080.MOV    V     C        01:17:02:07 01:17:04:07 01:16:55:20 01:16:57:20 
*FROM CLIP NAME:  FKI_LEADER_TAIL_1920X1080.MOV 
*SOURCE FILE: FKI_LEADER_TAIL_1920X1080.MOV
>>> SOURCE A001C001_150330_R0T6             A001C001_150330_ 060a2b340101010101010f00-13-00-00-00-{55772c79-7a32-0077-060e2b347f7f2a80} 
*SOURCE FILE: A001C001_150330_R0T6
>>> SOURCE A001C007_150330_R0T6             A001C007_150330_ 060a2b340101010101010f00-13-00-00-00-{55772c3d-8e4d-0076-060e2b347f7f2a80} 
*SOURCE FILE: A001C007_150330_R0T6
>>> SOURCE A002C012_150330_R0T6             A002C012_150330_ 060a2b340101010101010f00-13-00-00-00-{55772a26-67cd-006e-060e2b347f7f2a80} 
*SOURCE FILE: A002C012_150330_R0T6
>>> SOURCE A002C021_150330_R0T6             A002C021_150330_ 060a2b340101010101010f00-13-00-00-00-{55772abf-bab0-0070-060e2b347f7f2a80} 
*SOURCE FILE: A002C021_150330_R0T6
>>> SOURCE A003C008_150330_R0T6             A003C008_150330_ 060a2b340101010101010f00-13-00-00-00-{55772b39-99d6-0072-060e2b347f7f2a80} 
*SOURCE FILE: A003C008_150330_R0T6
>>> SOURCE A003C012_150330_R0T6             A003C012_150330_ 060a2b340101010101010f00-13-00-00-00-{55772bd0-e66f-0074-060e2b347f7f2a80} 
*SOURCE FILE: A003C012_150330_R0T6
>>> SOURCE A003C014_150330_R0T6             A003C014_150330_ 060a2b340101010101010f00-13-00-00-00-{55772bfa-88f8-0075-060e2b347f7f2a80} 
*SOURCE FILE: A003C014_150330_R0T6
>>> SOURCE A005C001_150331_R0T6             A005C001_150331_ 060a2b340101010101010f00-13-00-00-00-{55764618-05ba-0215-060e2b347f7f2a80} 
*SOURCE FILE: A005C001_150331_R0T6
>>> SOURCE A005C010_150331_R0T6             A005C010_150331_ 060a2b340101010101010f00-13-00-00-00-{557721af-53de-004d-060e2b347f7f2a80} 
*SOURCE FILE: A005C010_150331_R0T6
>>> SOURCE A005C015_150331_R0T6             A005C015_150331_ 060a2b340101010101010f00-13-00-00-00-{557721fc-840f-004e-060e2b347f7f2a80} 
*SOURCE FILE: A005C015_150331_R0T6
>>> SOURCE A005C017_150331_R0T6             A005C017_150331_ 060a2b340101010101010f00-13-00-00-00-{557722ac-32e4-0051-060e2b347f7f2a80} 
*SOURCE FILE: A005C017_150331_R0T6
>>> SOURCE A005C018_150331_R0T6             A005C018_150331_ 060a2b340101010101010f00-13-00-00-00-{557722bd-7395-0051-060e2b347f7f2a80} 
*SOURCE FILE: A005C018_150331_R0T6
>>> SOURCE A006C001_150331_R0T6             A006C001_150331_ 060a2b340101010101010f00-13-00-00-00-{557722d8-de91-0051-060e2b347f7f2a80} 
*SOURCE FILE: A006C001_150331_R0T6
>>> SOURCE A006C003_150331_R0T6             A006C003_150331_ 060a2b340101010101010f00-13-00-00-00-{557722fd-6dee-0052-060e2b347f7f2a80} 
*SOURCE FILE: A006C003_150331_R0T6
>>> SOURCE A006C004_150331_R0T6             A006C004_150331_ 060a2b340101010101010f00-13-00-00-00-{55772312-be9e-0052-060e2b347f7f2a80} 
*SOURCE FILE: A006C004_150331_R0T6
>>> SOURCE A007C001_150331_R0T6             A007C001_150331_ 060a2b340101010101010f00-13-00-00-00-{551b1bc0-d75b-3e96-060e2b347f7f2a80} 
*SOURCE FILE: A007C001_150331_R0T6
>>> SOURCE A007C003_150331_R0T6             A007C003_150331_ 060a2b340101010101010f00-13-00-00-00-{551b1c1b-faef-3e96-060e2b347f7f2a80} 
*SOURCE FILE: A007C003_150331_R0T6
>>> SOURCE A007C004_150331_R0T6             A007C004_150331_ 060a2b340101010101010f00-13-00-00-00-{551b1c2b-00ec-3e97-060e2b347f7f2a80} 
*SOURCE FILE: A007C004_150331_R0T6
>>> SOURCE A007C005_150331_R0T6             A007C005_150331_ 060a2b340101010101010f00-13-00-00-00-{551b1c46-0b8f-3e97-060e2b347f7f2a80} 
*SOURCE FILE: A007C005_150331_R0T6
>>> SOURCE A008C004_150331_R0T6             A008C004_150331_ 060a2b340101010101010f00-13-00-00-00-{551b4cb9-f875-3ea9-060e2b347f7f2a80} 
*SOURCE FILE: A008C004_150331_R0T6
>>> SOURCE A048C002_150417_R0T6             A048C002_150417_ 060a2b340101010101010f00-13-00-00-00-{5531ba48-c47f-476c-060e2b347f7f2a80} 
*SOURCE FILE: A048C002_150417_R0T6
>>> SOURCE A112C006_150505_R0T6             A112C006_150505_ 060a2b340101010101010f00-13-00-00-00-{5549519f-e22e-50a3-060e2b347f7f2a80} 
*SOURCE FILE: A112C006_150505_R0T6
>>> SOURCE A136C003_150514_R0T6             A136C003_150514_ 060a2b340101010101010f00-13-00-00-00-{555532d8-dc87-5547-060e2b347f7f2a80} 
*SOURCE FILE: A136C003_150514_R0T6
>>> SOURCE A136C006_150514_R0T6             A136C006_150514_ 060a2b340101010101010f00-13-00-00-00-{55553362-12a2-5548-060e2b347f7f2a80} 
*SOURCE FILE: A136C006_150514_R0T6
>>> SOURCE A136C008_150514_R0T6             A136C008_150514_ 060a2b340101010101010f00-13-00-00-00-{555533cf-3d33-5548-060e2b347f7f2a80} 
*SOURCE FILE: A136C008_150514_R0T6
>>> SOURCE A137C004_150514_R0T6             A137C004_150514_ 060a2b340101010101010f00-13-00-00-00-{555536c3-6460-5549-060e2b347f7f2a80} 
*SOURCE FILE: A137C004_150514_R0T6
>>> SOURCE A137C007_150514_R0T6             A137C007_150514_ 060a2b340101010101010f00-13-00-00-00-{55553770-a7c2-5549-060e2b347f7f2a80} 
*SOURCE FILE: A137C007_150514_R0T6
>>> SOURCE A139C006_150514_R0T6             A139C006_150514_ 060a2b340101010101010f00-13-00-00-00-{55555cee-4d2b-5558-060e2b347f7f2a80} 
*SOURCE FILE: A139C006_150514_R0T6
>>> SOURCE A139C008_150514_R0T6             A139C008_150514_ 060a2b340101010101010f00-13-00-00-00-{55555d0c-58f9-5558-060e2b347f7f2a80} 
*SOURCE FILE: A139C008_150514_R0T6
>>> SOURCE A141C003_150515_R0T6             A141C003_150515_ 060a2b340101010101010f00-13-00-00-00-{5556326c-b251-55ab-060e2b347f7f2a80} 
*SOURCE FILE: A141C003_150515_R0T6
>>> SOURCE A141C004_150515_R0T6             A141C004_150515_ 060a2b340101010101010f00-13-00-00-00-{5556328b-be70-55ab-060e2b347f7f2a80} 
*SOURCE FILE: A141C004_150515_R0T6
>>> SOURCE A141C011_150515_R0T6             A141C011_150515_ 060a2b340101010101010f00-13-00-00-00-{5556332f-fe6f-55ab-060e2b347f7f2a80} 
*SOURCE FILE: A141C011_150515_R0T6
>>> SOURCE A142C002_150515_R0T6             A142C002_150515_ 060a2b340101010101010f00-13-00-00-00-{555647ba-04ab-55b4-060e2b347f7f2a80} 
*SOURCE FILE: A142C002_150515_R0T6
>>> SOURCE A142C004_150515_R0T6             A142C004_150515_ 060a2b340101010101010f00-13-00-00-00-{555647ec-186e-55b4-060e2b347f7f2a80} 
*SOURCE FILE: A142C004_150515_R0T6
>>> SOURCE A142C007_150515_R0T6             A142C007_150515_ 060a2b340101010101010f00-13-00-00-00-{55564832-33b1-55b4-060e2b347f7f2a80} 
*SOURCE FILE: A142C007_150515_R0T6
>>> SOURCE A142C008_150515_R0T6             A142C008_150515_ 060a2b340101010101010f00-13-00-00-00-{5556484c-3dfd-55b4-060e2b347f7f2a80} 
*SOURCE FILE: A142C008_150515_R0T6
>>> SOURCE A142C009_150515_R0T6             A142C009_150515_ 060a2b340101010101010f00-13-00-00-00-{5556487d-50f6-55b4-060e2b347f7f2a80} 
*SOURCE FILE: A142C009_150515_R0T6
>>> SOURCE A143C003_150515_R0T6             A143C003_150515_ 060a2b340101010101010f00-13-00-00-00-{555669db-59c2-55c1-060e2b347f7f2a80} 
*SOURCE FILE: A143C003_150515_R0T6
>>> SOURCE A143C007_150515_R0T6             A143C007_150515_ 060a2b340101010101010f00-13-00-00-00-{55566a2c-795a-55c1-060e2b347f7f2a80} 
*SOURCE FILE: A143C007_150515_R0T6
>>> SOURCE A143C009_150515_R0T6             A143C009_150515_ 060a2b340101010101010f00-13-00-00-00-{55566a4e-86af-55c1-060e2b347f7f2a80} 
*SOURCE FILE: A143C009_150515_R0T6
>>> SOURCE A144C001_150515_R0T6             A144C001_150515_ 060a2b340101010101010f00-13-00-00-00-{55568bcf-9ce6-55ce-060e2b347f7f2a80} 
*SOURCE FILE: A144C001_150515_R0T6
>>> SOURCE A144C006_150515_R0T6             A144C006_150515_ 060a2b340101010101010f00-13-00-00-00-{55568c5b-d3ca-55ce-060e2b347f7f2a80} 
*SOURCE FILE: A144C006_150515_R0T6
>>> SOURCE A144C007_150515_R0T6             A144C007_150515_ 060a2b340101010101010f00-13-00-00-00-{55568c7f-e1ef-55ce-060e2b347f7f2a80} 
*SOURCE FILE: A144C007_150515_R0T6
>>> SOURCE A145C001_150515_R0T6             A145C001_150515_ 060a2b340101010101010f00-13-00-00-00-{5556a26f-7396-55d7-060e2b347f7f2a80} 
*SOURCE FILE: A145C001_150515_R0T6
>>> SOURCE A145C004_150515_R0T6             A145C004_150515_ 060a2b340101010101010f00-13-00-00-00-{5556a2b9-9070-55d7-060e2b347f7f2a80} 
*SOURCE FILE: A145C004_150515_R0T6
>>> SOURCE A145C005_150515_R0T6             A145C005_150515_ 060a2b340101010101010f00-13-00-00-00-{5556a2e8-a2ec-55d7-060e2b347f7f2a80} 
*SOURCE FILE: A145C005_150515_R0T6
>>> SOURCE A145C006_150515_R0T6             A145C006_150515_ 060a2b340101010101010f00-13-00-00-00-{5556a313-b3c5-55d7-060e2b347f7f2a80} 
*SOURCE FILE: A145C006_150515_R0T6
>>> SOURCE A145C008_150515_R0T6             A145C008_150515_ 060a2b340101010101010f00-13-00-00-00-{5556a34b-c986-55d7-060e2b347f7f2a80} 
*SOURCE FILE: A145C008_150515_R0T6
>>> SOURCE A146C006_150518_R0T6             A146C006_150518_ 060a2b340101010101010f00-13-00-00-00-{555a6cb0-7520-5752-060e2b347f7f2a80} 
*SOURCE FILE: A146C006_150518_R0T6
>>> SOURCE A146C007_150518_R0T6             A146C007_150518_ 060a2b340101010101010f00-13-00-00-00-{555a6cce-8082-5752-060e2b347f7f2a80} 
*SOURCE FILE: A146C007_150518_R0T6
>>> SOURCE A146C010_150518_R0T6             A146C010_150518_ 060a2b340101010101010f00-13-00-00-00-{555a6cfe-9364-5752-060e2b347f7f2a80} 
*SOURCE FILE: A146C010_150518_R0T6
>>> SOURCE A147C006_150518_R0T6             A147C006_150518_ 060a2b340101010101010f00-13-00-00-00-{555a7cb1-b552-5758-060e2b347f7f2a80} 
*SOURCE FILE: A147C006_150518_R0T6
>>> SOURCE A147C008_150518_R0T6             A147C008_150518_ 060a2b340101010101010f00-13-00-00-00-{555a7cf4-cf7e-5758-060e2b347f7f2a80} 
*SOURCE FILE: A147C008_150518_R0T6
>>> SOURCE A148C003_150518_R0T6             A148C003_150518_ 060a2b340101010101010f00-13-00-00-00-{555a95d2-8651-5762-060e2b347f7f2a80} 
*SOURCE FILE: A148C003_150518_R0T6
>>> SOURCE A148C004_150518_R0T6             A148C004_150518_ 060a2b340101010101010f00-13-00-00-00-{555a9625-a6ad-5762-060e2b347f7f2a80} 
*SOURCE FILE: A148C004_150518_R0T6
>>> SOURCE A148C006_150518_R0T6             A148C006_150518_ 060a2b340101010101010f00-13-00-00-00-{555a9681-ca87-5762-060e2b347f7f2a80} 
*SOURCE FILE: A148C006_150518_R0T6
>>> SOURCE A149C001_150518_R0T6             A149C001_150518_ 060a2b340101010101010f00-13-00-00-00-{555aa2f9-a984-5767-060e2b347f7f2a80} 
*SOURCE FILE: A149C001_150518_R0T6
>>> SOURCE A150C004_150518_R0T6             A150C004_150518_ 060a2b340101010101010f00-13-00-00-00-{555aaa57-8a3f-576a-060e2b347f7f2a80} 
*SOURCE FILE: A150C004_150518_R0T6
>>> SOURCE A150C005_150518_R0T6             A150C005_150518_ 060a2b340101010101010f00-13-00-00-00-{555aaaa8-a9de-576a-060e2b347f7f2a80} 
*SOURCE FILE: A150C005_150518_R0T6
>>> SOURCE A152C010_150519_R0T6             A152C010_150519_ 060a2b340101010101010f00-13-00-00-00-{555ba794-7606-57cd-060e2b347f7f2a80} 
*SOURCE FILE: A152C010_150519_R0T6
>>> SOURCE A153C006_150519_R0T6             A153C006_150519_ 060a2b340101010101010f00-13-00-00-00-{555bced3-ca98-57dc-060e2b347f7f2a80} 
*SOURCE FILE: A153C006_150519_R0T6
>>> SOURCE A153C008_150519_R0T6             A153C008_150519_ 060a2b340101010101010f00-13-00-00-00-{555bcef6-d844-57dc-060e2b347f7f2a80} 
*SOURCE FILE: A153C008_150519_R0T6
>>> SOURCE A153C010_150519_R0T6             A153C010_150519_ 060a2b340101010101010f00-13-00-00-00-{555be292-814c-57e4-060e2b347f7f2a80} 
*SOURCE FILE: A153C010_150519_R0T6
>>> SOURCE A154C003_150520_R0T6             A154C003_150520_ 060a2b340101010101010f00-13-00-00-00-{555caee6-5205-5834-060e2b347f7f2a80} 
*SOURCE FILE: A154C003_150520_R0T6
>>> SOURCE A154C005_150520_R0T6             A154C005_150520_ 060a2b340101010101010f00-13-00-00-00-{555caf40-753a-5834-060e2b347f7f2a80} 
*SOURCE FILE: A154C005_150520_R0T6
>>> SOURCE A155C001_150520_R0T6             A155C001_150520_ 060a2b340101010101010f00-13-00-00-00-{555cb680-4a4e-5837-060e2b347f7f2a80} 
*SOURCE FILE: A155C001_150520_R0T6
>>> SOURCE A156C005_150520_R0T6             A156C005_150520_ 060a2b340101010101010f00-13-00-00-00-{555d1168-ccda-585a-060e2b347f7f2a80} 
*SOURCE FILE: A156C005_150520_R0T6
>>> SOURCE A157C002_150520_R0T6             A157C002_150520_ 060a2b340101010101010f00-13-00-00-00-{555d013a-7ada-5854-060e2b347f7f2a80} 
*SOURCE FILE: A157C002_150520_R0T6
>>> SOURCE A157C003_150520_R0T6             A157C003_150520_ 060a2b340101010101010f00-13-00-00-00-{555d0174-915e-5854-060e2b347f7f2a80} 
*SOURCE FILE: A157C003_150520_R0T6
>>> SOURCE A157C012_150520_R0T6             A157C012_150520_ 060a2b340101010101010f00-13-00-00-00-{555d0221-d527-5854-060e2b347f7f2a80} 
*SOURCE FILE: A157C012_150520_R0T6
>>> SOURCE A158C006_150520_R0T6             A158C006_150520_ 060a2b340101010101010f00-13-00-00-00-{555df329-fc40-58b2-060e2b347f7f2a80} 
*SOURCE FILE: A158C006_150520_R0T6
>>> SOURCE A158C010_150520_R0T6             A158C010_150520_ 060a2b340101010101010f00-13-00-00-00-{555df38a-2239-58b3-060e2b347f7f2a80} 
*SOURCE FILE: A158C010_150520_R0T6
>>> SOURCE A159C004_150520_R0T6             A159C004_150520_ 060a2b340101010101010f00-13-00-00-00-{555d5376-9a24-5874-060e2b347f7f2a80} 
*SOURCE FILE: A159C004_150520_R0T6
>>> SOURCE A160C004_150521_R0T6             A160C004_150521_ 060a2b340101010101010f00-13-00-00-00-{555e2c6a-5990-58c9-060e2b347f7f2a80} 
*SOURCE FILE: A160C004_150521_R0T6
>>> SOURCE A164C007_150521_R0T6             A164C007_150521_ 060a2b340101010101010f00-13-00-00-00-{555f3e1e-43f2-5934-060e2b347f7f2a80} 
*SOURCE FILE: A164C007_150521_R0T6
>>> SOURCE A166C004_150522_R0T6             A166C004_150522_ 060a2b340101010101010f00-13-00-00-00-{555f91b1-e964-5954-060e2b347f7f2a80} 
*SOURCE FILE: A166C004_150522_R0T6
>>> SOURCE A166C008_150522_R0T6             A166C008_150522_ 060a2b340101010101010f00-13-00-00-00-{555f9212-0f50-5955-060e2b347f7f2a80} 
*SOURCE FILE: A166C008_150522_R0T6
>>> SOURCE A167C002_150522_R0T6             A167C002_150522_ 060a2b340101010101010f00-13-00-00-00-{555fa064-a729-595a-060e2b347f7f2a80} 
*SOURCE FILE: A167C002_150522_R0T6
>>> SOURCE A168C004_150522_R0T6             A168C004_150522_ 060a2b340101010101010f00-13-00-00-00-{555fc344-46d9-5968-060e2b347f7f2a80} 
*SOURCE FILE: A168C004_150522_R0T6
>>> SOURCE A168C006_150522_R0T6             A168C006_150522_ 060a2b340101010101010f00-13-00-00-00-{555fc3a6-6d35-5968-060e2b347f7f2a80} 
*SOURCE FILE: A168C006_150522_R0T6
>>> SOURCE A169C002_150522_R0T6             A169C002_150522_ 060a2b340101010101010f00-13-00-00-00-{5564af2a-6c87-5b54-060e2b347f7f2a80} 
*SOURCE FILE: A169C002_150522_R0T6
>>> SOURCE BH_PRODUCTIONS_1.85_PRORES.MOV   BH_PRODUCTIONS_1 060a2b340101010101010f00-13-00-00-00-{588104cf-898e-0549-060e2b347f7f2a80} 
*SOURCE FILE: BH_PRODUCTIONS_1.85_PRORES.MOV
>>> SOURCE B001C005_150330_R0UR             B001C005_150330_ 060a2b340101010101010f00-13-00-00-00-{55772997-37d0-006c-060e2b347f7f2a80} 
*SOURCE FILE: B001C005_150330_R0UR
>>> SOURCE B001C008_150330_R0UR             B001C008_150330_ 060a2b340101010101010f00-13-00-00-00-{557729c4-e7f5-006c-060e2b347f7f2a80} 
*SOURCE FILE: B001C008_150330_R0UR
>>> SOURCE B001C011_150330_R0UR             B001C011_150330_ 060a2b340101010101010f00-13-00-00-00-{55772a2d-80f5-006e-060e2b347f7f2a80} 
*SOURCE FILE: B001C011_150330_R0UR
>>> SOURCE B001C018_150330_R0UR             B001C018_150330_ 060a2b340101010101010f00-13-00-00-00-{55772c1e-184c-0076-060e2b347f7f2a80} 
*SOURCE FILE: B001C018_150330_R0UR
>>> SOURCE B002C003_150330_R0UR             B002C003_150330_ 060a2b340101010101010f00-13-00-00-00-{55772b02-c1a3-0071-060e2b347f7f2a80} 
*SOURCE FILE: B002C003_150330_R0UR
>>> SOURCE B002C004_150330_R0UR             B002C004_150330_ 060a2b340101010101010f00-13-00-00-00-{55772b13-0221-0072-060e2b347f7f2a80} 
*SOURCE FILE: B002C004_150330_R0UR
>>> SOURCE B002C007_150330_R0UR             B002C007_150330_ 060a2b340101010101010f00-13-00-00-00-{55772b5a-19aa-0073-060e2b347f7f2a80} 
*SOURCE FILE: B002C007_150330_R0UR
>>> SOURCE B003C005_150330_R0UR             B003C005_150330_ 060a2b340101010101010f00-13-00-00-00-{55772b80-ac13-0073-060e2b347f7f2a80} 
*SOURCE FILE: B003C005_150330_R0UR
>>> SOURCE B003C011_150330_R0UR             B003C011_150330_ 060a2b340101010101010f00-13-00-00-00-{55772be2-2c98-0075-060e2b347f7f2a80} 
*SOURCE FILE: B003C011_150330_R0UR
>>> SOURCE B003C017_150331_R0UR             B003C017_150331_ 060a2b340101010101010f00-13-00-00-00-{55772c61-1c79-0077-060e2b347f7f2a80} 
*SOURCE FILE: B003C017_150331_R0UR
>>> SOURCE B004C001_150331_R0UR             B004C001_150331_ 060a2b340101010101010f00-13-00-00-00-{55772211-d5c6-004e-060e2b347f7f2a80} 
*SOURCE FILE: B004C001_150331_R0UR
>>> SOURCE B004C010_150331_R0UR             B004C010_150331_ 060a2b340101010101010f00-13-00-00-00-{557721b7-768a-004d-060e2b347f7f2a80} 
*SOURCE FILE: B004C010_150331_R0UR
>>> SOURCE B005C004_150331_R0UR             B005C004_150331_ 060a2b340101010101010f00-13-00-00-00-{557722f3-47e1-0052-060e2b347f7f2a80} 
*SOURCE FILE: B005C004_150331_R0UR
>>> SOURCE B005C007_150331_R0UR             B005C007_150331_ 060a2b340101010101010f00-13-00-00-00-{5577231a-e060-0052-060e2b347f7f2a80} 
*SOURCE FILE: B005C007_150331_R0UR
>>> SOURCE B006C007_150331_R0UR             B006C007_150331_ 060a2b340101010101010f00-13-00-00-00-{551b2036-954a-3e98-060e2b347f7f2a80} 
*SOURCE FILE: B006C007_150331_R0UR
>>> SOURCE B006C008_150331_R0UR             B006C008_150331_ 060a2b340101010101010f00-13-00-00-00-{551b2052-a04b-3e98-060e2b347f7f2a80} 
*SOURCE FILE: B006C008_150331_R0UR
>>> SOURCE B006C009_150331_R0UR             B006C009_150331_ 060a2b340101010101010f00-13-00-00-00-{551b2076-ae7b-3e98-060e2b347f7f2a80} 
*SOURCE FILE: B006C009_150331_R0UR
>>> SOURCE B007C001_150331_R0UR             B007C001_150331_ 060a2b340101010101010f00-13-00-00-00-{551b4b5b-6fcc-3ea9-060e2b347f7f2a80} 
*SOURCE FILE: B007C001_150331_R0UR
>>> SOURCE B037C001_150414_R0UR             B037C001_150414_ 060a2b340101010101010f00-13-00-00-00-{552dca94-21e1-45e3-060e2b347f7f2a80} 
*SOURCE FILE: B037C001_150414_R0UR
>>> SOURCE B114C004_150514_R0UR             B114C004_150514_ 060a2b340101010101010f00-13-00-00-00-{555535b4-fa57-5548-060e2b347f7f2a80} 
*SOURCE FILE: B114C004_150514_R0UR
>>> SOURCE B114C007_150514_R0UR             B114C007_150514_ 060a2b340101010101010f00-13-00-00-00-{55553610-1e92-5549-060e2b347f7f2a80} 
*SOURCE FILE: B114C007_150514_R0UR
>>> SOURCE B115C002_150514_R0UR             B115C002_150514_ 060a2b340101010101010f00-13-00-00-00-{555537c3-c837-5549-060e2b347f7f2a80} 
*SOURCE FILE: B115C002_150514_R0UR
>>> SOURCE B115C004_150514_R0UR             B115C004_150514_ 060a2b340101010101010f00-13-00-00-00-{5555380d-e527-5549-060e2b347f7f2a80} 
*SOURCE FILE: B115C004_150514_R0UR
>>> SOURCE B115C006_150514_R0UR             B115C006_150514_ 060a2b340101010101010f00-13-00-00-00-{5555385c-0410-554a-060e2b347f7f2a80} 
*SOURCE FILE: B115C006_150514_R0UR
>>> SOURCE B116C001_150514_R0UR             B116C001_150514_ 060a2b340101010101010f00-13-00-00-00-{5555629e-860f-555a-060e2b347f7f2a80} 
*SOURCE FILE: B116C001_150514_R0UR
>>> SOURCE B116C004_150515_R0UR             B116C004_150515_ 060a2b340101010101010f00-13-00-00-00-{555562d6-9bd2-555a-060e2b347f7f2a80} 
*SOURCE FILE: B116C004_150515_R0UR
>>> SOURCE B116C005_150515_R0UR             B116C005_150515_ 060a2b340101010101010f00-13-00-00-00-{555562e4-a152-555a-060e2b347f7f2a80} 
*SOURCE FILE: B116C005_150515_R0UR
>>> SOURCE B116C006_150515_R0UR             B116C006_150515_ 060a2b340101010101010f00-13-00-00-00-{555562f1-a667-555a-060e2b347f7f2a80} 
*SOURCE FILE: B116C006_150515_R0UR
>>> SOURCE B117C002_150515_R0UR             B117C002_150515_ 060a2b340101010101010f00-13-00-00-00-{5556108a-7634-559e-060e2b347f7f2a80} 
*SOURCE FILE: B117C002_150515_R0UR
>>> SOURCE B119C002_150515_R0UR             B119C002_150515_ 060a2b340101010101010f00-13-00-00-00-{555643fc-8e88-55b2-060e2b347f7f2a80} 
*SOURCE FILE: B119C002_150515_R0UR
>>> SOURCE B119C004_150515_R0UR             B119C004_150515_ 060a2b340101010101010f00-13-00-00-00-{5556442c-a15c-55b2-060e2b347f7f2a80} 
*SOURCE FILE: B119C004_150515_R0UR
>>> SOURCE B119C006_150515_R0UR             B119C006_150515_ 060a2b340101010101010f00-13-00-00-00-{5556445e-b4fa-55b2-060e2b347f7f2a80} 
*SOURCE FILE: B119C006_150515_R0UR
>>> SOURCE B119C008_150515_R0UR             B119C008_150515_ 060a2b340101010101010f00-13-00-00-00-{5556448e-c798-55b2-060e2b347f7f2a80} 
*SOURCE FILE: B119C008_150515_R0UR
>>> SOURCE B120C005_150515_R0UR             B120C005_150515_ 060a2b340101010101010f00-13-00-00-00-{55566e7f-29b2-55c3-060e2b347f7f2a80} 
*SOURCE FILE: B120C005_150515_R0UR
>>> SOURCE B120C008_150515_R0UR             B120C008_150515_ 060a2b340101010101010f00-13-00-00-00-{55566eb0-3d1c-55c3-060e2b347f7f2a80} 
*SOURCE FILE: B120C008_150515_R0UR
>>> SOURCE B120C010_150515_R0UR             B120C010_150515_ 060a2b340101010101010f00-13-00-00-00-{55566ece-488e-55c3-060e2b347f7f2a80} 
*SOURCE FILE: B120C010_150515_R0UR
>>> SOURCE B120C011_150515_R0UR             B120C011_150515_ 060a2b340101010101010f00-13-00-00-00-{55566eee-5541-55c3-060e2b347f7f2a80} 
*SOURCE FILE: B120C011_150515_R0UR
>>> SOURCE B121C003_150515_R0UR             B121C003_150515_ 060a2b340101010101010f00-13-00-00-00-{55569c61-15e8-55d5-060e2b347f7f2a80} 
*SOURCE FILE: B121C003_150515_R0UR
>>> SOURCE B121C006_150515_R0UR             B121C006_150515_ 060a2b340101010101010f00-13-00-00-00-{55569cc9-3ec1-55d5-060e2b347f7f2a80} 
*SOURCE FILE: B121C006_150515_R0UR
>>> SOURCE B122C003_150515_R0UR             B122C003_150515_ 060a2b340101010101010f00-13-00-00-00-{5556a73b-5364-55d9-060e2b347f7f2a80} 
*SOURCE FILE: B122C003_150515_R0UR
>>> SOURCE B122C004_150515_R0UR             B122C004_150515_ 060a2b340101010101010f00-13-00-00-00-{5556a767-648a-55d9-060e2b347f7f2a80} 
*SOURCE FILE: B122C004_150515_R0UR
>>> SOURCE B122C005_150516_R0UR             B122C005_150516_ 060a2b340101010101010f00-13-00-00-00-{5556a78f-742b-55d9-060e2b347f7f2a80} 
*SOURCE FILE: B122C005_150516_R0UR
>>> SOURCE B126C001_150518_R0UR             B126C001_150518_ 060a2b340101010101010f00-13-00-00-00-{555a876e-e74a-575c-060e2b347f7f2a80} 
*SOURCE FILE: B126C001_150518_R0UR
>>> SOURCE B126C004_150518_R0UR             B126C004_150518_ 060a2b340101010101010f00-13-00-00-00-{555a87b2-01ba-575d-060e2b347f7f2a80} 
*SOURCE FILE: B126C004_150518_R0UR
>>> SOURCE B126C006_150518_R0UR             B126C006_150518_ 060a2b340101010101010f00-13-00-00-00-{555a87e6-163d-575d-060e2b347f7f2a80} 
*SOURCE FILE: B126C006_150518_R0UR
>>> SOURCE B126C007_150518_R0UR             B126C007_150518_ 060a2b340101010101010f00-13-00-00-00-{555a8800-200d-575d-060e2b347f7f2a80} 
*SOURCE FILE: B126C007_150518_R0UR
>>> SOURCE B127C005_150519_R0UR             B127C005_150519_ 060a2b340101010101010f00-13-00-00-00-{555a9a73-54ef-5764-060e2b347f7f2a80} 
*SOURCE FILE: B127C005_150519_R0UR
>>> SOURCE B128C002_150519_R0UR             B128C002_150519_ 060a2b340101010101010f00-13-00-00-00-{555b6a43-8266-57b5-060e2b347f7f2a80} 
*SOURCE FILE: B128C002_150519_R0UR
>>> SOURCE B128C005_150519_R0UR             B128C005_150519_ 060a2b340101010101010f00-13-00-00-00-{555b6adc-be3b-57b5-060e2b347f7f2a80} 
*SOURCE FILE: B128C005_150519_R0UR
>>> SOURCE B129C001_150519_R0UR             B129C001_150519_ 060a2b340101010101010f00-13-00-00-00-{555b6e66-2017-57b7-060e2b347f7f2a80} 
*SOURCE FILE: B129C001_150519_R0UR
>>> SOURCE B131C008_150519_R0UR             B131C008_150519_ 060a2b340101010101010f00-13-00-00-00-{555bd682-cae4-57df-060e2b347f7f2a80} 
*SOURCE FILE: B131C008_150519_R0UR
>>> SOURCE B131C009_150519_R0UR             B131C009_150519_ 060a2b340101010101010f00-13-00-00-00-{555bd691-d0b4-57df-060e2b347f7f2a80} 
*SOURCE FILE: B131C009_150519_R0UR
>>> SOURCE B131C013_150519_R0UR             B131C013_150519_ 060a2b340101010101010f00-13-00-00-00-{555bd6ee-f55d-57df-060e2b347f7f2a80} 
*SOURCE FILE: B131C013_150519_R0UR
>>> SOURCE B133C003_150520_R0UR             B133C003_150520_ 060a2b340101010101010f00-13-00-00-00-{555cba11-aeb6-5838-060e2b347f7f2a80} 
*SOURCE FILE: B133C003_150520_R0UR
>>> SOURCE B133C005_150520_R0UR             B133C005_150520_ 060a2b340101010101010f00-13-00-00-00-{555cba87-dcef-5838-060e2b347f7f2a80} 
*SOURCE FILE: B133C005_150520_R0UR
>>> SOURCE B134C011_150520_R0UR             B134C011_150520_ 060a2b340101010101010f00-13-00-00-00-{555d4369-5521-586e-060e2b347f7f2a80} 
*SOURCE FILE: B134C011_150520_R0UR
>>> SOURCE B134C013_150520_R0UR             B134C013_150520_ 060a2b340101010101010f00-13-00-00-00-{555d4385-5ff6-586e-060e2b347f7f2a80} 
*SOURCE FILE: B134C013_150520_R0UR
>>> SOURCE B135C004_150520_R0UR             B135C004_150520_ 060a2b340101010101010f00-13-00-00-00-{555d47e3-14e2-5870-060e2b347f7f2a80} 
*SOURCE FILE: B135C004_150520_R0UR
>>> SOURCE B135C005_150520_R0UR             B135C005_150520_ 060a2b340101010101010f00-13-00-00-00-{555d47f0-1a0e-5870-060e2b347f7f2a80} 
*SOURCE FILE: B135C005_150520_R0UR
>>> SOURCE B135C008_150520_R0UR             B135C008_150520_ 060a2b340101010101010f00-13-00-00-00-{555d4824-2e3b-5870-060e2b347f7f2a80} 
*SOURCE FILE: B135C008_150520_R0UR
>>> SOURCE B135C009_150520_R0UR             B135C009_150520_ 060a2b340101010101010f00-13-00-00-00-{555d4830-3306-5870-060e2b347f7f2a80} 
*SOURCE FILE: B135C009_150520_R0UR
>>> SOURCE B135C011_150520_R0UR             B135C011_150520_ 060a2b340101010101010f00-13-00-00-00-{555d4866-481d-5870-060e2b347f7f2a80} 
*SOURCE FILE: B135C011_150520_R0UR
>>> SOURCE B135C012_150520_R0UR             B135C012_150520_ 060a2b340101010101010f00-13-00-00-00-{555d4881-5280-5870-060e2b347f7f2a80} 
*SOURCE FILE: B135C012_150520_R0UR
>>> SOURCE B136C002_150521_R0UR             B136C002_150521_ 060a2b340101010101010f00-13-00-00-00-{555d5151-c3a8-5873-060e2b347f7f2a80} 
*SOURCE FILE: B136C002_150521_R0UR
>>> SOURCE B136C003_150521_R0UR             B136C003_150521_ 060a2b340101010101010f00-13-00-00-00-{555d516b-cdea-5873-060e2b347f7f2a80} 
*SOURCE FILE: B136C003_150521_R0UR
>>> SOURCE B137C003_150521_R0UR             B137C003_150521_ 060a2b340101010101010f00-13-00-00-00-{555e6195-1e84-58de-060e2b347f7f2a80} 
*SOURCE FILE: B137C003_150521_R0UR
>>> SOURCE B140C003_150522_R0UR             B140C003_150522_ 060a2b340101010101010f00-13-00-00-00-{555f44b0-d51a-5936-060e2b347f7f2a80} 
*SOURCE FILE: B140C003_150522_R0UR
>>> SOURCE B141C002_150522_R0UR             B141C002_150522_ 060a2b340101010101010f00-13-00-00-00-{555fc8ce-70a6-596a-060e2b347f7f2a80} 
*SOURCE FILE: B141C002_150522_R0UR
>>> SOURCE B141C004_150522_R0UR             B141C004_150522_ 060a2b340101010101010f00-13-00-00-00-{555fc8f9-8154-596a-060e2b347f7f2a80} 
*SOURCE FILE: B141C004_150522_R0UR
>>> SOURCE B141C007_150522_R0UR             B141C007_150522_ 060a2b340101010101010f00-13-00-00-00-{555fc95a-a761-596a-060e2b347f7f2a80} 
*SOURCE FILE: B141C007_150522_R0UR
>>> SOURCE C031C007_150522_R57B             C031C007_150522_ 060a2b340101010101010f00-13-00-00-00-{555fa813-a7a7-595d-060e2b347f7f2a80} 
*SOURCE FILE: C031C007_150522_R57B
>>> SOURCE C031C010_150522_R57B             C031C010_150522_ 060a2b340101010101010f00-13-00-00-00-{555fa864-c765-595d-060e2b347f7f2a80} 
*SOURCE FILE: C031C010_150522_R57B
>>> SOURCE C031C011_150522_R57B             C031C011_150522_ 060a2b340101010101010f00-13-00-00-00-{555fa879-cfa0-595d-060e2b347f7f2a80} 
*SOURCE FILE: C031C011_150522_R57B
>>> SOURCE C032C001_150522_R57B             C032C001_150522_ 060a2b340101010101010f00-13-00-00-00-{5564b780-ae27-5b57-060e2b347f7f2a80} 
*SOURCE FILE: C032C001_150522_R57B
>>> SOURCE C032C002_150522_R57B             C032C002_150522_ 060a2b340101010101010f00-13-00-00-00-{5564b7e1-d3eb-5b57-060e2b347f7f2a80} 
*SOURCE FILE: C032C002_150522_R57B
>>> SOURCE C032C003_150522_R57B             C032C003_150522_ 060a2b340101010101010f00-13-00-00-00-{5564b820-ecd9-5b57-060e2b347f7f2a80} 
*SOURCE FILE: C032C003_150522_R57B
>>> SOURCE C033C001_150522_R57B             C033C001_150522_ 060a2b340101010101010f00-13-00-00-00-{5564bafd-0b04-5b59-060e2b347f7f2a80} 
*SOURCE FILE: C033C001_150522_R57B
>>> SOURCE C033C002_150522_R57B             C033C002_150522_ 060a2b340101010101010f00-13-00-00-00-{5564bb2e-1e2e-5b59-060e2b347f7f2a80} 
*SOURCE FILE: C033C002_150522_R57B
>>> SOURCE C033C007_150523_R57B             C033C007_150523_ 060a2b340101010101010f00-13-00-00-00-{5564bbae-505c-5b59-060e2b347f7f2a80} 
*SOURCE FILE: C033C007_150523_R57B
>>> SOURCE X001C018_150529_R0UR             X001C018_150529_ 060a2b340101010101010f00-13-00-00-00-{556ca0dc-d5fb-5e6e-060e2b347f7f2a80} 
*SOURCE FILE: X001C018_150529_R0UR
>>> SOURCE X003C010_150530_R0UR             X003C010_150530_ 060a2b340101010101010f00-13-00-00-00-{556cbada-fd49-5e78-060e2b347f7f2a80} 
*SOURCE FILE: X003C010_150530_R0UR
>>> SOURCE FKI_LEADER_HEAD_1920X1080.MOV    FKI_LEADER_HEAD_ 060a2b340101010101010f00-13-00-00-00-{55df78c8-a570-0107-060e2b347f7f2a80} 
*SOURCE FILE: FKI_LEADER_HEAD_1920X1080.MOV
>>> SOURCE FKI_LEADER_TAIL_1920X1080.MOV    FKI_LEADER_TAIL_ 060a2b340101010101010f00-13-00-00-00-{55df78ca-acc3-0107-060e2b347f7f2a80} 
*SOURCE FILE: FKI_LEADER_TAIL_1920X1080.MOV