TITLE: Test EDL 24

001  AX       V     C        01:00:00:00 01:00:59:24 00:00:00:00 00:00:59:24
* FROM CLIP NAME: clip 1

002  AX       AA    C        00:00:00:00 00:01:30:00 00:00:00:00 00:01:30:00
* FROM CLIP NAME: clip #2

003  AX       V     C        00:00:00:00 00:00:30:01 00:00:59:24 00:01:30:00
* FROM CLIP NAME: clip -3
AUD  3    4

004  AX       V     C        00:00:00:00 00:00:24:17 00:01:30:00 00:01:54:17
* FROM CLIP NAME: clip $4

005  AX       V     C        00:00:00:00 00:00:24:17 00:01:30:00 00:01:54:17
* FROM CLIP NAME: clip &5

006  AX       AA    C        00:00:29:01 00:00:29:01 00:01:59:01 00:01:59:01
006  BL       AA    W001 025 00:00:00:00 00:00:10:20 00:01:59:01 00:02:10:21
EFFECTS NAME IS Constant Power
* FROM CLIP NAME: Test rename
* TO CLIP NAME: BL

007  AX       V     C        01:00:00:00 01:00:05:00 00:02:01:10 00:02:06:10
* FROM CLIP NAME: Black Video

008  AX       V     C        01:00:10:14 01:00:15:00 00:02:06:10 00:02:10:21
* FROM CLIP NAME: Jellyfish.jpg

009  AX       V     C        00:00:00:00 00:00:30:01 00:02:10:21 00:02:40:22
* FROM CLIP NAME: Test rename
M2   AX       -25.0                      00:00:00:00 

010  AX       AA    C        00:00:00:00 00:00:30:01 00:02:10:21 00:02:40:22
* FROM CLIP NAME: Test rename
M2   AX       -25.0                      00:00:00:00 

*The MIT License (MIT)
*
*Copyright (c) 2013 <simon@simon-hargreaves.com>
*
*Permission is hereby granted, free of charge, to any person obtaining a copy
*of this software and associated documentation files (the "Software"), to deal
*in the Software without restriction, including without limitation the rights
*to use, copy, modify, merge, publish, distribute, sublicense, and/or sell
*copies of the Software, and to permit persons to whom the Software is
*furnished to do so, subject to the following conditions:
*
*The above copyright notice and this permission notice shall be included in
*all copies or substantial portions of the Software.
*
*THE SOFTWARE IS PROVIDED "AS IS", WITHOUT WARRANTY OF ANY KIND, EXPRESS OR
*IMPLIED, INCLUDING BUT NOT LIMITED TO THE WARRANTIES OF MERCHANTABILITY,
*FITNESS FOR A PARTICULAR PURPOSE AND NONINFRINGEMENT. IN NO EVENT SHALL THE
*AUTHORS OR COPYRIGHT HOLDERS BE LIABLE FOR ANY CLAIM, DAMAGES OR OTHER
*LIABILITY, WHETHER IN AN ACTION OF CONTRACT, TORT OR OTHERWISE, ARISING FROM,
*OUT OF OR IN CONNECTION WITH THE SOFTWARE OR THE USE OR OTHER DEALINGS IN
*THE SOFTWARE.
*
