TITLE:   ToD_R4_LOCK3.1_030618 
FCM: NON-DROP FRAME
001  START_LE V     C        01:00:00:00 01:00:08:00 04:00:00:00 04:00:08:00 
* FROM CLIP NAME:  START LEADER 1920X1080 2398 
* SOURCE FILE: START LEADER 1920X1080 2398 DNXHD80.MOV
002  A026C019 V     C        22:09:04:11 22:09:07:10 04:00:08:00 04:00:10:23 
* FROM CLIP NAME:  92-2A* 
* SOURCE FILE: A026C019_170614_R287
003  B027C005 V     C        22:58:32:11 22:58:37:08 04:00:10:23 04:00:15:20 
* FROM CLIP NAME:  92C-1* 
* SOURCE FILE: B027C005_170615_R6L6
004  A026C021 V     C        22:31:04:01 22:31:08:16 04:00:15:20 04:00:20:11 
* FROM CLIP NAME:  92A-2A* 
* SOURCE FILE: A026C021_170614_R287
005  B027C002 V     C        22:45:38:03 22:45:40:11 04:00:20:11 04:00:22:19 
* FROM CLIP NAME:  92B-2B* 
* SOURCE FILE: B027C002_170615_R6L6
006  B026C018 V     C        22:31:11:00 22:31:11:22 04:00:22:19 04:00:23:17 
* FROM CLIP NAME:  92A-2B* 
* SOURCE FILE: B026C018_170615_R6L6
007  B027C004 V     C        22:52:58:08 22:53:00:10 04:00:23:17 04:00:25:19 
* FROM CLIP NAME:  92B-4B* 
* SOURCE FILE: B027C004_170615_R6L6
008  B026C017 V     C        22:26:43:23 22:26:45:16 04:00:25:19 04:00:27:12 
* FROM CLIP NAME:  92A-1B* 
* SOURCE FILE: B026C017_170615_R6L6
009  A027C003 V     C        22:50:47:12 22:50:51:08 04:00:27:12 04:00:31:08 
* FROM CLIP NAME:  92B-3A 
* SOURCE FILE: A027C003_170614_R287
010  B026C018 V     C        22:31:19:20 22:31:21:21 04:00:31:08 04:00:33:09 
* FROM CLIP NAME:  92A-2B* 
* SOURCE FILE: B026C018_170615_R6L6
011  B027C003 V     C        22:50:52:16 22:50:57:20 04:00:33:09 04:00:38:13 
* FROM CLIP NAME:  92B-3B 
* SOURCE FILE: B027C003_170615_R6L6
012  B026C018 V     C        22:31:22:17 22:31:24:18 04:00:38:13 04:00:40:14 
* FROM CLIP NAME:  92A-2B* 
* SOURCE FILE: B026C018_170615_R6L6
013  A027C004 V     C        22:53:16:02 22:53:19:06 04:00:40:14 04:00:43:18 
* FROM CLIP NAME:  92B-4A* 
* SOURCE FILE: A027C004_170614_R287
014  D004C005 V     C        15:10:00:05 15:10:00:06 04:00:43:18 04:00:47:12 
M2   D004C005      -024.0                15:10:00:05 
* FROM CLIP NAME:  â€¢92PT-5* 
* SOURCE FILE: D004C005_170710_R546
015  B026C018 V     C        22:31:24:17 22:31:26:06 04:00:47:12 04:00:49:01 
* FROM CLIP NAME:  92A-2B* 
* SOURCE FILE: B026C018_170615_R6L6
016  B027C004 V     C        22:53:24:13 22:53:27:04 04:00:49:01 04:00:51:16 
* FROM CLIP NAME:  92B-4B* 
* SOURCE FILE: B027C004_170615_R6L6
017  B026C018 V     C        22:31:34:14 22:31:37:14 04:00:51:16 04:00:54:16 
* FROM CLIP NAME:  92A-2B* 
* SOURCE FILE: B026C018_170615_R6L6
018  B027C002 V     C        22:46:47:13 22:46:51:05 04:00:54:16 04:00:58:08 
* FROM CLIP NAME:  92B-2B* 
* SOURCE FILE: B027C002_170615_R6L6
019  B026C017 V     C        22:27:14:05 22:27:19:00 04:00:58:08 04:01:03:03 
* FROM CLIP NAME:  92A-1B* 
* SOURCE FILE: B026C017_170615_R6L6
020  B027C002 V     C        22:46:57:19 22:47:00:06 04:01:03:03 04:01:05:14 
* FROM CLIP NAME:  92B-2B* 
* SOURCE FILE: B027C002_170615_R6L6
021  B026C017 V     C        22:27:23:21 22:27:25:13 04:01:05:14 04:01:07:06 
* FROM CLIP NAME:  92A-1B* 
* SOURCE FILE: B026C017_170615_R6L6
022  A027C013 V     C        00:18:32:07 00:18:38:14 04:01:07:06 04:01:13:13 
* FROM CLIP NAME:  93-9A* 
* SOURCE FILE: A027C013_170614_R287
023  B027C015 V     C        00:21:11:16 00:21:14:22 04:01:13:13 04:01:16:19 
* FROM CLIP NAME:  93A-1B 
* SOURCE FILE: B027C015_170615_R6L6
024  A027C013 V     C        00:18:42:06 00:18:46:16 04:01:16:19 04:01:21:05 
* FROM CLIP NAME:  93-9A* 
* SOURCE FILE: A027C013_170614_R287
025  A027C018 V     C        00:53:03:06 00:53:05:03 04:01:21:05 04:01:23:02 
* FROM CLIP NAME:  93D-2A* 
* SOURCE FILE: A027C018_170614_R287
026  A027C016 V     C        00:41:30:10 00:41:31:21 04:01:23:02 04:01:24:13 
* FROM CLIP NAME:  93C-1A* 
* SOURCE FILE: A027C016_170614_R287
027  B027C021 V     C        00:54:11:02 00:54:12:21 04:01:24:13 04:01:26:08 
* FROM CLIP NAME:  93D-2B* 
* SOURCE FILE: B027C021_170615_R6L6
028  B027C019 V     C        00:42:25:09 00:42:33:00 04:01:26:08 04:01:33:23 
* FROM CLIP NAME:  93C-1B* 
* SOURCE FILE: B027C019_170615_R6L6
029  B027C018 V     C        00:34:06:03 00:34:10:01 04:01:33:23 04:01:37:21 
* FROM CLIP NAME:  93B-1* 
* SOURCE FILE: B027C018_170615_R6L6
030  A027C018 V     C        00:54:27:16 00:54:29:22 04:01:37:21 04:01:40:03 
* FROM CLIP NAME:  93D-2A* 
* SOURCE FILE: A027C018_170614_R287
031  A027C015 V     C        00:31:26:23 00:31:37:06 04:01:40:03 04:01:50:10 
* FROM CLIP NAME:  93A-4* PU 
* SOURCE FILE: A027C015_170614_R287
032  B062C021 V     C        00:50:15:00 00:50:18:02 04:01:50:10 04:01:53:12 
* FROM CLIP NAME:  94B-1B* 
* SOURCE FILE: B062C021_170629_R6L6
033  B062C009 V     C        23:40:42:04 23:40:43:20 04:01:53:12 04:01:55:04 
* FROM CLIP NAME:  94A-2B* 
* SOURCE FILE: B062C009_170629_R6L6
034  B062C006 V     C        23:20:21:07 23:20:29:09 04:01:55:04 04:02:03:06 
* FROM CLIP NAME:  94-4B* 
* SOURCE FILE: B062C006_170629_R6L6
035  A062C004 V     C        23:17:00:17 23:17:07:14 04:02:03:06 04:02:10:03 
* FROM CLIP NAME:  94-3A* 
* SOURCE FILE: A062C004_170628_R287
036  A058C024 V     C        23:13:30:20 23:13:42:11 04:02:10:03 04:02:21:18 
* FROM CLIP NAME:  95-4* 
* SOURCE FILE: A058C024_170627_R287
037  A058C031 V     C        23:48:03:10 23:48:05:19 04:02:21:18 04:02:24:03 
* FROM CLIP NAME:  97-4A* 
* SOURCE FILE: A058C031_170627_R287
038  A058C038 V     C        00:39:40:11 00:39:47:03 04:02:24:03 04:02:30:19 
* FROM CLIP NAME:  97B-3A* 
* SOURCE FILE: A058C038_170627_R287
039  B058C027 V     C        23:48:10:07 23:48:16:18 04:02:30:19 04:02:37:06 
* FROM CLIP NAME:  97-4B* 
* SOURCE FILE: B058C027_170628_R6L6
040  B062C012 V     C        23:55:51:12 23:55:55:09 04:02:37:06 04:02:41:03 
* FROM CLIP NAME:  96A-2B* 
* SOURCE FILE: B062C012_170629_R6L6
041  A062C023 V     C        01:01:32:09 01:01:35:18 04:02:41:03 04:02:44:12 
* FROM CLIP NAME:  96C-1* 
* SOURCE FILE: A062C023_170628_R287
042  A062C011 V     C        23:57:37:12 23:57:41:06 04:02:44:12 04:02:48:06 
* FROM CLIP NAME:  96A-2A* 
* SOURCE FILE: A062C011_170628_R287
043  A062C023 V     C        01:01:39:17 01:01:43:02 04:02:48:06 04:02:51:15 
* FROM CLIP NAME:  96C-1* 
* SOURCE FILE: A062C023_170628_R287
044  A062C011 V     C        23:57:46:02 23:57:49:13 04:02:51:15 04:02:55:02 
* FROM CLIP NAME:  96A-2A* 
* SOURCE FILE: A062C011_170628_R287
045  A058C038 V     C        00:40:00:00 00:40:02:19 04:02:55:02 04:02:57:21 
* FROM CLIP NAME:  97B-3A* 
* SOURCE FILE: A058C038_170627_R287
046  B058C031 V     C        00:17:38:13 00:17:42:09 04:02:57:21 04:03:01:17 
* FROM CLIP NAME:  97A-4B* 
* SOURCE FILE: B058C031_170628_R6L6
047  A058C037 V     C        00:36:52:03 00:36:55:10 04:03:01:17 04:03:05:00 
* FROM CLIP NAME:  97B-2A* 
* SOURCE FILE: A058C037_170627_R287
048  B058C031 V     C        00:17:46:04 00:17:49:15 04:03:05:00 04:03:08:11 
* FROM CLIP NAME:  97A-4B* 
* SOURCE FILE: B058C031_170628_R6L6
049  A058C042 V     C        00:59:09:08 00:59:21:06 04:03:08:11 04:03:20:09 
* FROM CLIP NAME:  97C-4* 
* SOURCE FILE: A058C042_170627_R287
050  A059C003 V     C        01:26:20:05 01:26:23:13 04:03:20:09 04:03:23:17 
* FROM CLIP NAME:  97D-3* 
* SOURCE FILE: A059C003_170627_R287
051  A058C042 V     C        00:59:23:03 00:59:27:21 04:03:23:17 04:03:28:11 
* FROM CLIP NAME:  97C-4* 
* SOURCE FILE: A058C042_170627_R287
052  A059C003 V     C        01:26:26:02 01:26:28:10 04:03:28:11 04:03:30:19 
* FROM CLIP NAME:  97D-3* 
* SOURCE FILE: A059C003_170627_R287
053  B059C005 V     C        01:39:16:16 01:39:17:23 04:03:30:19 04:03:32:02 
* FROM CLIP NAME:  102-1B* 
* SOURCE FILE: B059C005_170628_R6L6
054  A059C002 V     C        01:24:46:07 01:24:47:23 04:03:32:02 04:03:33:18 
* FROM CLIP NAME:  97D-2* 
* SOURCE FILE: A059C002_170627_R287
055  A058C044 V     C        01:12:00:05 01:12:03:03 04:03:33:18 04:03:36:16 
* FROM CLIP NAME:  99-2* 
* SOURCE FILE: A058C044_170627_R287
056  B062C013 V     C        00:02:20:05 00:02:23:04 04:03:36:16 04:03:39:15 
* FROM CLIP NAME:  100-1B* 
* SOURCE FILE: B062C013_170629_R6L6
057  A062C012 V     C        00:02:26:10 00:02:29:01 04:03:41:22 04:03:44:13 
* FROM CLIP NAME:  100-1A* 
* SOURCE FILE: A062C012_170628_R287
058  B062C013 V     C        00:02:29:01 00:02:30:18 04:03:44:13 04:03:46:06 
* FROM CLIP NAME:  100-1B* 
* SOURCE FILE: B062C013_170629_R6L6
059  A058C027 V     C        23:29:26:12 23:29:29:03 04:03:46:06 04:03:48:21 
* FROM CLIP NAME:  101-3A* 
* SOURCE FILE: A058C027_170627_R287
060  A059C005 V     C        01:39:27:22 01:39:28:11 04:03:48:21 04:03:49:10 
* FROM CLIP NAME:  102-1A* 
* SOURCE FILE: A059C005_170627_R287
061  A002C010 V     C        04:33:43:07 04:33:44:08 04:03:49:10 04:03:49:23 
* FROM CLIP NAME:  R102-6* 48FPS 
* SOURCE FILE: A002C010_171218_R56K
062  B059C005 V     C        01:39:28:19 01:39:30:10 04:03:49:23 04:03:51:14 
* FROM CLIP NAME:  102-1B* 
* SOURCE FILE: B059C005_170628_R6L6
063  A002C011 V     C        04:48:15:07 04:48:19:08 04:03:51:14 04:03:53:15 
* FROM CLIP NAME:  R102A-1* 48FPS 
* SOURCE FILE: A002C011_171218_R56K
064  A058C027 V     C        23:29:31:20 23:29:40:21 04:03:53:15 04:04:02:16 
* FROM CLIP NAME:  101-3A* 
* SOURCE FILE: A058C027_170627_R287
065  A062C029 V     C        01:26:12:03 01:26:15:01 04:04:02:16 04:04:05:14 
* FROM CLIP NAME:  A103-3* 
* SOURCE FILE: A062C029_170628_R287
066  A062C029 V     C        01:26:15:13 01:26:16:12 04:04:05:14 04:04:06:13 
* FROM CLIP NAME:  A103-3* 
* SOURCE FILE: A062C029_170628_R287
067  A063C002 V     C        02:40:17:23 02:40:19:12 04:04:06:13 04:04:08:02 
* FROM CLIP NAME:  A103B-2A* 
* SOURCE FILE: A063C002_170628_R287
068  A062C031 V     C        02:00:06:22 02:00:09:00 04:04:08:02 04:04:10:04 
* FROM CLIP NAME:  A103A-2A 
* SOURCE FILE: A062C031_170628_R287
069  A060C005 V     C        15:37:42:05 15:37:45:15 04:04:10:04 04:04:13:14 
* FROM CLIP NAME:  B103-5A* 
* SOURCE FILE: A060C005_170628_R287
070  B060C005 V     C        15:37:46:10 15:37:53:00 04:04:13:14 04:04:20:04 
* FROM CLIP NAME:  B103-5B* 
* SOURCE FILE: B060C005_170628_R6L6
071  B060C008 V     C        15:56:10:13 15:56:14:17 04:04:20:04 04:04:24:08 
* FROM CLIP NAME:  B103A-3B* 
* SOURCE FILE: B060C008_170628_R6L6
072  B060C005 V     C        15:38:00:17 15:38:04:07 04:04:24:08 04:04:27:22 
* FROM CLIP NAME:  B103-5B* 
* SOURCE FILE: B060C005_170628_R6L6
073  A060C007 V     C        15:53:11:08 15:53:20:00 04:04:27:22 04:04:36:14 
* FROM CLIP NAME:  B103A-2A* 
* SOURCE FILE: A060C007_170628_R287
074  B060C005 V     C        15:38:09:19 15:38:12:16 04:04:36:14 04:04:39:11 
* FROM CLIP NAME:  B103-5B* 
* SOURCE FILE: B060C005_170628_R6L6
075  A063C001 V     C        02:37:50:13 02:37:52:09 04:04:39:11 04:04:41:07 
* FROM CLIP NAME:  A103B-1A 
* SOURCE FILE: A063C001_170628_R287
076  A062C035 V     C        02:08:07:21 02:08:09:13 04:04:41:07 04:04:42:23 
* FROM CLIP NAME:  A103A-6PUA* 
* SOURCE FILE: A062C035_170628_R287
077  A063C003 V     C        02:42:27:01 02:42:29:20 04:04:42:23 04:04:45:18 
* FROM CLIP NAME:  A103B-3A* 
* SOURCE FILE: A063C003_170628_R287
078  A062C033 V     C        02:04:42:00 02:04:44:19 04:04:45:18 04:04:48:13 
* FROM CLIP NAME:  A103A-4PUA* 
* SOURCE FILE: A062C033_170628_R287
079  A063C004 V     C        02:44:58:12 02:44:59:18 04:04:48:13 04:04:49:19 
* FROM CLIP NAME:  A103B-4PUA* 
* SOURCE FILE: A063C004_170628_R287
080  A062C035 V     C        02:08:16:11 02:08:22:08 04:04:49:19 04:04:55:16 
* FROM CLIP NAME:  A103A-6PUA* 
* SOURCE FILE: A062C035_170628_R287
081  A063C002 V     C        02:40:43:10 02:40:45:22 04:04:55:16 04:04:58:04 
* FROM CLIP NAME:  A103B-2A* 
* SOURCE FILE: A063C002_170628_R287
082  A061C007 V     C        21:12:21:20 21:12:26:22 04:04:58:04 04:05:03:06 
* FROM CLIP NAME:  104-4A* 
* SOURCE FILE: A061C007_170628_R287
083  A061C019 V     C        22:29:20:05 22:29:26:20 04:05:03:06 04:05:09:21 
* FROM CLIP NAME:  104D-4A* 
* SOURCE FILE: A061C019_170628_R287
084  A061C011 V     C        21:36:47:21 21:36:49:16 04:05:09:21 04:05:11:16 
* FROM CLIP NAME:  104B-1A 
* SOURCE FILE: A061C011_170628_R287
085  A061C019 V     C        22:29:35:09 22:29:38:16 04:05:11:16 04:05:14:23 
* FROM CLIP NAME:  104D-4A* 
* SOURCE FILE: A061C019_170628_R287
086  A061C010 V     C        21:28:24:06 21:28:32:15 04:05:14:23 04:05:23:08 
* FROM CLIP NAME:  104A-3A* 
* SOURCE FILE: A061C010_170628_R287
087  A061C019 V     C        22:29:47:12 22:29:50:10 04:05:23:08 04:05:26:06 
* FROM CLIP NAME:  104D-4A* 
* SOURCE FILE: A061C019_170628_R287
088  A061C013 V     C        21:52:06:11 21:52:10:02 04:05:26:06 04:05:29:21 
* FROM CLIP NAME:  104B-3A* 
* SOURCE FILE: A061C013_170628_R287
089  A061C015 V     C        22:14:07:01 22:14:08:22 04:05:29:21 04:05:31:18 
* FROM CLIP NAME:  104C-2A* 
* SOURCE FILE: A061C015_170628_R287
090  A061C013 V     C        21:50:59:13 21:51:02:11 04:05:31:18 04:05:34:16 
* FROM CLIP NAME:  104B-3A* 
* SOURCE FILE: A061C013_170628_R287
091  A061C015 V     C        22:14:14:17 22:14:16:17 04:05:34:16 04:05:36:16 
* FROM CLIP NAME:  104C-2A* 
* SOURCE FILE: A061C015_170628_R287
092  A061C013 V     C        21:52:22:19 21:52:25:00 04:05:36:16 04:05:38:21 
* FROM CLIP NAME:  104B-3A* 
* SOURCE FILE: A061C013_170628_R287
093  A061C015 V     C        22:14:22:13 22:14:27:11 04:05:38:21 04:05:43:19 
* FROM CLIP NAME:  104C-2A* 
* SOURCE FILE: A061C015_170628_R287
094  A061C013 V     C        21:52:29:18 21:52:31:23 04:05:43:19 04:05:46:00 
* FROM CLIP NAME:  104B-3A* 
* SOURCE FILE: A061C013_170628_R287
095  A061C015 V     C        22:14:32:02 22:14:36:12 04:05:46:00 04:05:50:10 
* FROM CLIP NAME:  104C-2A* 
* SOURCE FILE: A061C015_170628_R287
096  A061C013 V     C        21:52:35:21 21:52:38:03 04:05:50:10 04:05:52:16 
* FROM CLIP NAME:  104B-3A* 
* SOURCE FILE: A061C013_170628_R287
097  A061C015 V     C        22:14:44:04 22:14:46:10 04:05:52:16 04:05:54:22 
* FROM CLIP NAME:  104C-2A* 
* SOURCE FILE: A061C015_170628_R287
098  A061C010 V     C        21:29:20:09 21:29:23:04 04:05:54:22 04:05:57:17 
* FROM CLIP NAME:  104A-3A* 
* SOURCE FILE: A061C010_170628_R287
099  A061C013 V     C        21:52:54:02 21:52:58:00 04:05:57:17 04:06:01:15 
* FROM CLIP NAME:  104B-3A* 
* SOURCE FILE: A061C013_170628_R287
100  A061C015 V     C        22:14:55:20 22:15:04:00 04:06:01:15 04:06:09:19 
* FROM CLIP NAME:  104C-2A* 
* SOURCE FILE: A061C015_170628_R287
101  A061C013 V     C        21:53:03:08 21:53:07:22 04:06:09:19 04:06:14:09 
* FROM CLIP NAME:  104B-3A* 
* SOURCE FILE: A061C013_170628_R287
102  A061C015 V     C        22:15:12:05 22:15:15:06 04:06:14:09 04:06:17:10 
* FROM CLIP NAME:  104C-2A* 
* SOURCE FILE: A061C015_170628_R287
103  A061C010 V     C        21:30:09:09 21:30:20:10 04:06:17:10 04:06:28:11 
* FROM CLIP NAME:  104A-3A* 
* SOURCE FILE: A061C010_170628_R287
104  B060C013 V     C        17:30:15:02 17:30:16:00 04:06:28:11 04:06:29:09 
* FROM CLIP NAME:  105A-2B* 
* SOURCE FILE: B060C013_170629_R6L6
105  A060C012 V     C        17:24:33:03 17:24:34:17 04:06:29:09 04:06:30:23 
* FROM CLIP NAME:  105A-1A* 
* SOURCE FILE: A060C012_170628_R287
106  A060C018 V     C        18:36:04:14 18:36:06:17 04:06:30:23 04:06:33:02 
* FROM CLIP NAME:  105D-2A* 
* SOURCE FILE: A060C018_170628_R287
107  A060C011 V     C        17:06:13:01 17:06:14:09 04:06:33:02 04:06:34:10 
* FROM CLIP NAME:  105-3A* 
* SOURCE FILE: A060C011_170628_R287
108  B060C012 V     C        17:25:16:20 17:25:19:22 04:06:34:10 04:06:37:12 
* FROM CLIP NAME:  105A-1B* 
* SOURCE FILE: B060C012_170629_R6L6
109  B060C012 V     C        17:25:38:21 17:25:41:00 04:06:37:12 04:06:39:15 
* FROM CLIP NAME:  105A-1B* 
* SOURCE FILE: B060C012_170629_R6L6
110  A060C012 V     C        17:25:41:00 17:25:41:18 04:06:39:15 04:06:40:09 
* FROM CLIP NAME:  105A-1A* 
* SOURCE FILE: A060C012_170628_R287
111  B060C012 V     C        17:25:42:03 17:25:43:10 04:06:40:12 04:06:41:19 
* FROM CLIP NAME:  105A-1B* 
* SOURCE FILE: B060C012_170629_R6L6
112  A060C016 V     C        18:12:58:08 18:12:58:21 04:06:41:19 04:06:42:08 
* FROM CLIP NAME:  105C-1A* 
* SOURCE FILE: A060C016_170628_R287
113  A060C016 V     C        18:12:58:22 18:13:06:08 04:06:42:08 04:06:49:18 
* FROM CLIP NAME:  105C-1A* 
* SOURCE FILE: A060C016_170628_R287
114  A061C003 V     C        19:21:09:08 19:21:10:22 04:06:49:18 04:06:51:08 
* FROM CLIP NAME:  105E-4* 
* SOURCE FILE: A061C003_170628_R287
115  A060C015 V     C        17:54:43:07 17:54:45:07 04:06:51:08 04:06:53:08 
* FROM CLIP NAME:  105B-2* 
* SOURCE FILE: A060C015_170628_R287
116  A061C003 V     C        19:21:13:05 19:21:16:05 04:06:53:08 04:06:56:08 
* FROM CLIP NAME:  105E-4* 
* SOURCE FILE: A061C003_170628_R287
117  A060C015 V     C        17:55:44:16 17:55:46:08 04:06:56:08 04:06:58:00 
* FROM CLIP NAME:  105B-2* 
* SOURCE FILE: A060C015_170628_R287
118  A061C003 V     C        19:21:17:23 19:21:20:07 04:06:58:00 04:07:00:08 
* FROM CLIP NAME:  105E-4* 
* SOURCE FILE: A061C003_170628_R287
119  B060C014 V     C        18:13:26:07 18:13:27:19 04:07:00:08 04:07:01:20 
* FROM CLIP NAME:  105C-1B* 
* SOURCE FILE: B060C014_170629_R6L6
120  B060C018 V     C        18:54:58:22 18:55:03:16 04:07:01:20 04:07:06:14 
* FROM CLIP NAME:  105D-4PUB* 
* SOURCE FILE: B060C018_170629_R6L6
121  A060C012 V     C        17:26:37:03 17:26:40:07 04:07:06:14 04:07:09:18 
* FROM CLIP NAME:  105A-1A* 
* SOURCE FILE: A060C012_170628_R287
122  A060C020 V     C        18:55:04:14 18:55:06:10 04:07:09:18 04:07:11:14 
* FROM CLIP NAME:  105D-4PUA* 
* SOURCE FILE: A060C020_170628_R287
123  A060C012 V     C        17:26:45:03 17:26:47:19 04:07:11:14 04:07:14:06 
* FROM CLIP NAME:  105A-1A* 
* SOURCE FILE: A060C012_170628_R287
124  A060C020 V     C        18:55:16:14 18:55:20:12 04:07:14:06 04:07:18:04 
* FROM CLIP NAME:  105D-4PUA* 
* SOURCE FILE: A060C020_170628_R287
125  A060C016 V     C        18:13:47:02 18:13:49:16 04:07:18:04 04:07:20:18 
* FROM CLIP NAME:  105C-1A* 
* SOURCE FILE: A060C016_170628_R287
126  A060C020 V     C        18:55:24:16 18:55:27:23 04:07:20:18 04:07:24:01 
* FROM CLIP NAME:  105D-4PUA* 
* SOURCE FILE: A060C020_170628_R287
127  A060C010 V     C        16:59:30:00 16:59:35:00 04:07:24:01 04:07:29:01 
* FROM CLIP NAME:  105-2A* 
* SOURCE FILE: A060C010_170628_R287
128  A065C020 V     C        01:37:53:04 01:37:56:23 04:07:29:01 04:07:32:20 
* FROM CLIP NAME:  106C-3A* 
* SOURCE FILE: A065C020_170629_R287
129  B065C019 V     C        02:00:15:12 02:00:21:04 04:07:32:20 04:07:38:12 
* FROM CLIP NAME:  106E-1* 
* SOURCE FILE: B065C019_170630_R6L6
130  A066C001 V     C        01:55:46:18 01:56:04:01 04:07:38:12 04:07:55:19 
* FROM CLIP NAME:  106D-2A* 
* SOURCE FILE: A066C001_170629_R287
131  B065C019 V     C        02:00:43:12 02:00:49:10 04:07:55:19 04:08:01:17 
* FROM CLIP NAME:  106E-1* 
* SOURCE FILE: B065C019_170630_R6L6
132  A065C021 V     C        01:51:05:03 01:51:07:15 04:08:01:17 04:08:04:05 
* FROM CLIP NAME:  106D-1A* 
* SOURCE FILE: A065C021_170629_R287
133  B065C019 V     C        02:00:51:22 02:00:55:19 04:08:04:05 04:08:08:02 
* FROM CLIP NAME:  106E-1* 
* SOURCE FILE: B065C019_170630_R6L6
134  B065C018 V     C        01:56:19:21 01:56:24:06 04:08:08:02 04:08:12:11 
* FROM CLIP NAME:  106D-2B* 
* SOURCE FILE: B065C018_170630_R6L6
135  B065C019 V     C        02:00:58:09 02:01:00:23 04:08:12:11 04:08:15:01 
* FROM CLIP NAME:  106E-1* 
* SOURCE FILE: B065C019_170630_R6L6
136  A065C021 V     C        01:51:21:04 01:51:25:21 04:08:15:01 04:08:19:18 
* FROM CLIP NAME:  106D-1A* 
* SOURCE FILE: A065C021_170629_R287
137  B065C019 V     C        02:01:03:05 02:01:10:11 04:08:19:18 04:08:27:00 
* FROM CLIP NAME:  106E-1* 
* SOURCE FILE: B065C019_170630_R6L6
138  A066C002 V     C        02:07:50:05 02:07:53:02 04:08:27:00 04:08:29:21 
* FROM CLIP NAME:  106F-1* 
* SOURCE FILE: A066C002_170629_R287
139  A062C019 V     C        00:30:02:18 00:30:05:06 04:08:29:21 04:08:32:09 
* FROM CLIP NAME:  107A-3A* 
* SOURCE FILE: A062C019_170628_R287
140  A062C016 V     C        00:20:08:09 00:20:09:17 04:08:32:09 04:08:33:17 
* FROM CLIP NAME:  107-3A* 
* SOURCE FILE: A062C016_170628_R287
141  B062C019 V     C        00:30:09:14 00:30:12:22 04:08:33:17 04:08:37:01 
* FROM CLIP NAME:  107A-3B* 
* SOURCE FILE: B062C019_170629_R6L6
142  A062C018 V     C        00:28:05:07 00:28:07:02 04:08:37:01 04:08:38:20 
* FROM CLIP NAME:  107A-2A* 
* SOURCE FILE: A062C018_170628_R287
143  B062C020 V     C        00:43:30:20 00:43:32:21 04:08:38:20 04:08:40:21 
* FROM CLIP NAME:  107B-1* 
* SOURCE FILE: B062C020_170629_R6L6
144  B062C019 V     C        00:30:18:11 00:30:20:05 04:08:40:21 04:08:42:15 
* FROM CLIP NAME:  107A-3B* 
* SOURCE FILE: B062C019_170629_R6L6
145  A062C016 V     C        00:20:22:17 00:20:24:19 04:08:42:15 04:08:44:17 
* FROM CLIP NAME:  107-3A* 
* SOURCE FILE: A062C016_170628_R287
146  SIGNATUR V     C        01:09:34:23 01:09:38:01 04:08:44:17 04:08:47:19 
* FROM CLIP NAME:  REEL 4 DC 1 (SC 091-118),VIDEO MIXDOWN,2 
* SOURCE FILE: SIGNATURE SOURCE MOB
147  B065C015 V     C        01:39:24:22 01:39:29:07 04:08:47:19 04:08:52:04 
* FROM CLIP NAME:  106C-3B* 
* SOURCE FILE: B065C015_170630_R6L6
148  B065C019 V     C        02:01:19:01 02:01:21:07 04:08:52:04 04:08:54:10 
* FROM CLIP NAME:  106E-1* 
* SOURCE FILE: B065C019_170630_R6L6
149  A066C002 V     C        02:08:06:09 02:08:09:02 04:08:54:10 04:08:57:03 
* FROM CLIP NAME:  106F-1* 
* SOURCE FILE: A066C002_170629_R287
150  A064C011 V     C        18:00:19:08 18:00:24:17 04:08:57:03 04:09:02:12 
* FROM CLIP NAME:  106B-7* 
* SOURCE FILE: A064C011_170629_R287
151  A066C002 V     C        02:08:18:09 02:08:21:20 04:09:02:12 04:09:05:23 
* FROM CLIP NAME:  106F-1* 
* SOURCE FILE: A066C002_170629_R287
152  A064C011 V     C        18:00:36:02 18:00:38:09 04:09:05:23 04:09:08:06 
* FROM CLIP NAME:  106B-7* 
* SOURCE FILE: A064C011_170629_R287
153  A066C002 V     C        02:08:28:11 02:08:33:10 04:09:08:06 04:09:13:05 
* FROM CLIP NAME:  106F-1* 
* SOURCE FILE: A066C002_170629_R287
154  B037C017 V     C        18:54:32:22 18:54:37:21 04:09:13:05 04:09:17:04 
M2   B037C017       030.0                18:54:32:22 
* FROM CLIP NAME:  109-6* 
* SOURCE FILE: B037C017_170620_R6L6
155  B037C021 V     C        19:39:57:01 19:40:13:14 04:09:17:04 04:09:33:17 
* FROM CLIP NAME:  110-2B* 
* SOURCE FILE: B037C021_170620_R6L6
156  A038C010 V     C        19:53:10:17 19:53:15:16 04:09:33:17 04:09:38:16 
* FROM CLIP NAME:  110A-1A* 
* SOURCE FILE: A038C010_170619_R287
157  A038C009 V     C        19:40:17:12 19:40:20:19 04:09:38:16 04:09:41:23 
* FROM CLIP NAME:  110-2A* 
* SOURCE FILE: A038C009_170619_R287
158  B019C002 V     C        18:19:28:00 18:19:37:11 04:09:41:23 04:09:51:10 
* FROM CLIP NAME:  111F-2B* 
* SOURCE FILE: B019C002_170613_R6L6
159  A019C010 V     C        18:23:49:03 18:23:53:07 04:09:51:10 04:09:55:14 
* FROM CLIP NAME:  111F-3A 
* SOURCE FILE: A019C010_170612_R287
160  A015C006 V     C        08:08:54:16 08:09:00:14 04:09:55:14 04:10:01:12 
* FROM CLIP NAME:  111-6A* 
* SOURCE FILE: A015C006_170611_R287
161  A019C003 V     C        17:26:59:22 17:27:02:00 04:10:01:12 04:10:03:14 
* FROM CLIP NAME:  111D-2A* 
* SOURCE FILE: A019C003_170612_R287
162  B014C012 V     C        08:47:49:02 08:47:53:10 04:10:03:14 04:10:07:22 
* FROM CLIP NAME:  111A-4B* 
* SOURCE FILE: B014C012_170612_R6L6
163  A015C021 V     C        09:36:21:03 09:36:27:16 04:10:07:22 04:10:14:11 
* FROM CLIP NAME:  111B-3A* 
* SOURCE FILE: A015C021_170611_R287
164  B014C012 V     C        08:48:02:06 08:48:05:07 04:10:14:11 04:10:17:12 
* FROM CLIP NAME:  111A-4B* 
* SOURCE FILE: B014C012_170612_R6L6
165  A016C001 V     C        09:54:25:22 09:54:27:13 04:10:17:12 04:10:19:03 
* FROM CLIP NAME:  111C-2A* 
* SOURCE FILE: A016C001_170611_R287
166  A019C003 V     C        17:27:15:03 17:27:17:23 04:10:19:03 04:10:21:23 
* FROM CLIP NAME:  111D-2A* 
* SOURCE FILE: A019C003_170612_R287
167  A016C001 V     C        09:54:27:17 09:54:32:01 04:10:21:23 04:10:26:07 
* FROM CLIP NAME:  111C-2A* 
* SOURCE FILE: A016C001_170611_R287
168  A019C004 V     C        17:32:30:17 17:32:33:08 04:10:26:07 04:10:28:22 
* FROM CLIP NAME:  111D-3A* 
* SOURCE FILE: A019C004_170612_R287
169  A016C001 V     C        09:54:35:22 09:54:38:01 04:10:28:22 04:10:31:01 
* FROM CLIP NAME:  111C-2A* 
* SOURCE FILE: A016C001_170611_R287
170  A019C004 V     C        17:35:00:21 17:35:03:01 04:10:31:01 04:10:33:05 
* FROM CLIP NAME:  111D-3A* 
* SOURCE FILE: A019C004_170612_R287
171  A016C001 V     C        09:54:40:06 09:54:42:11 04:10:33:05 04:10:35:10 
* FROM CLIP NAME:  111C-2A* 
* SOURCE FILE: A016C001_170611_R287
172  A019C005 V     C        17:44:51:09 17:44:52:11 04:10:35:10 04:10:36:12 
* FROM CLIP NAME:  111E-1A* 
* SOURCE FILE: A019C005_170612_R287
173  A015C020 V     C        09:32:48:03 09:32:50:02 04:10:36:12 04:10:38:11 
* FROM CLIP NAME:  111B-2A* 
* SOURCE FILE: A015C020_170611_R287
174  A019C006 V     C        17:50:57:07 17:51:00:05 04:10:38:11 04:10:41:09 
* FROM CLIP NAME:  111E-2A* 
* SOURCE FILE: A019C006_170612_R287
175  A015C020 V     C        09:32:52:20 09:32:58:05 04:10:41:09 04:10:46:18 
* FROM CLIP NAME:  111B-2A* 
* SOURCE FILE: A015C020_170611_R287
176  A019C007 V     C        17:56:01:12 17:56:02:21 04:10:46:18 04:10:48:03 
* FROM CLIP NAME:  111E-3A* 
* SOURCE FILE: A019C007_170612_R287
177  A016C001 V     C        09:54:53:17 09:54:54:16 04:10:48:03 04:10:49:02 
* FROM CLIP NAME:  111C-2A* 
* SOURCE FILE: A016C001_170611_R287
178  A019C003 V     C        17:28:28:14 17:28:30:08 04:10:49:02 04:10:50:20 
* FROM CLIP NAME:  111D-2A* 
* SOURCE FILE: A019C003_170612_R287
179  A019C007 V     C        17:57:09:12 17:57:17:08 04:10:50:20 04:10:58:16 
* FROM CLIP NAME:  111E-3A* 
* SOURCE FILE: A019C007_170612_R287
180  A015C019 V     C        09:29:16:22 09:29:22:14 04:10:58:16 04:11:04:08 
* FROM CLIP NAME:  111B-1A 
* SOURCE FILE: A015C019_170611_R287
181  A019C005 V     C        17:45:54:04 17:45:56:23 04:11:04:08 04:11:07:03 
* FROM CLIP NAME:  111E-1A* 
* SOURCE FILE: A019C005_170612_R287
182  A015C019 V     C        09:29:28:13 09:29:30:23 04:11:07:03 04:11:09:13 
* FROM CLIP NAME:  111B-1A 
* SOURCE FILE: A015C019_170611_R287
183  A015C013 V     C        08:49:41:01 08:49:47:17 04:11:09:13 04:11:16:05 
* FROM CLIP NAME:  111A-4A* 
* SOURCE FILE: A015C013_170611_R287
184  B014C021 V     C        09:49:26:01 09:49:29:04 04:11:16:05 04:11:19:08 
* FROM CLIP NAME:  111C-1B* 
* SOURCE FILE: B014C021_170612_R6L6
185  B018C004 V     C        17:36:31:09 17:36:40:01 04:11:19:08 04:11:28:00 
* FROM CLIP NAME:  111D-3B* 
* SOURCE FILE: B018C004_170613_R6L6
186  A015C008 V     C        08:17:31:08 08:17:35:02 04:11:28:00 04:11:31:18 
* FROM CLIP NAME:  112-1A* 
* SOURCE FILE: A015C008_170611_R287
187  A015C008 V     C        08:19:13:12 08:19:15:12 04:11:31:18 04:11:33:18 
* FROM CLIP NAME:  112-1A* 
* TO CLIP NAME:  112-1A* 
* SOURCE FILE: A015C008_170611_R287
188  A015C008 V     C        08:19:15:12 08:19:17:12 04:11:33:18 04:11:35:18 
* FROM CLIP NAME:  112-1A* 
* SOURCE FILE: A015C008_170611_R287
189  A015C009 V     C        08:28:06:00 08:28:08:00 04:11:35:18 04:11:37:18 
* FROM CLIP NAME:  112-2A* 
* TO CLIP NAME:  112-1A* 
* SOURCE FILE: A015C009_170611_R287
190  A015C009 V     C        08:28:08:00 08:28:09:12 04:11:37:18 04:11:39:06 
* FROM CLIP NAME:  112-2A* 
* SOURCE FILE: A015C009_170611_R287
191  B018C007 V     C        17:59:37:22 17:59:40:12 04:11:39:06 04:11:41:20 
* FROM CLIP NAME:  111E-3B* 
* SOURCE FILE: B018C007_170613_R6L6
192  A016C003 V     C        10:18:43:08 10:18:52:21 04:11:41:20 04:11:51:09 
* FROM CLIP NAME:  112A-2A* 
* SOURCE FILE: A016C003_170611_R287
193  A019C007 V     C        17:59:52:15 17:59:56:20 04:11:51:09 04:11:55:14 
* FROM CLIP NAME:  111E-3A* 
* SOURCE FILE: A019C007_170612_R287
194  A016C016 V     C        10:56:38:09 10:56:41:12 04:11:55:14 04:11:58:17 
* FROM CLIP NAME:  112B-11* PU 
* SOURCE FILE: A016C016_170611_R287
195  A018C007 V     C        15:06:37:09 15:06:39:22 04:11:58:17 04:12:01:06 
* FROM CLIP NAME:  113C-3 
* SOURCE FILE: A018C007_170612_R287
196  A018C005 V     C        14:40:29:10 14:40:37:00 04:12:01:06 04:12:08:20 
* FROM CLIP NAME:  113B-5A* 
* SOURCE FILE: A018C005_170611_R287
197  B015C006 V     C        12:08:50:16 12:08:52:23 04:12:08:20 04:12:11:03 
* FROM CLIP NAME:  113-2B* 
* SOURCE FILE: B015C006_170612_R6L6
198  A018C005 V     C        14:40:38:14 14:40:44:23 04:12:11:03 04:12:17:12 
* FROM CLIP NAME:  113B-5A* 
* SOURCE FILE: A018C005_170611_R287
199  B017C005 V     C        14:40:44:15 14:40:46:17 04:12:17:12 04:12:20:05 
M2   B017C005       018.0                14:40:44:15 
* FROM CLIP NAME:  113B-5B* 
* SOURCE FILE: B017C005_170612_R6L6
200  B018C001 V     C        16:40:42:21 16:40:49:15 04:12:20:05 04:12:26:23 
* FROM CLIP NAME:  113F-1B* 
* SOURCE FILE: B018C001_170613_R6L6
201  A016C020 V     C        12:09:09:18 12:09:11:11 04:12:26:23 04:12:28:16 
* FROM CLIP NAME:  113-2A* 
* SOURCE FILE: A016C020_170611_R287
202  A019C001 V     C        16:40:49:03 16:40:50:12 04:12:28:16 04:12:30:01 
* FROM CLIP NAME:  113F-1A* 
* SOURCE FILE: A019C001_170612_R287
203  B017C008 V     C        15:27:30:04 15:27:32:16 04:12:30:01 04:12:32:13 
* FROM CLIP NAME:  113D-1B 
* SOURCE FILE: B017C008_170612_R6L6
204  A018C012 V     C        15:27:32:16 15:27:37:08 04:12:32:13 04:12:37:05 
* FROM CLIP NAME:  113D-1A 
* SOURCE FILE: A018C012_170612_R287
205  A016C019 V     C        11:56:08:23 11:56:11:03 04:12:37:05 04:12:39:09 
* FROM CLIP NAME:  113-1A* 
* SOURCE FILE: A016C019_170611_R287
206  A019C001 V     C        16:41:09:01 16:41:14:12 04:12:39:09 04:12:44:20 
* FROM CLIP NAME:  113F-1A* 
* SOURCE FILE: A019C001_170612_R287
207  A016C020 V     C        12:09:22:06 12:09:26:01 04:12:44:20 04:12:48:15 
* FROM CLIP NAME:  113-2A* 
* SOURCE FILE: A016C020_170611_R287
208  A018C016 V     C        16:08:29:22 16:08:32:18 04:12:48:15 04:12:51:11 
* FROM CLIP NAME:  113E-1A* 
* SOURCE FILE: A018C016_170612_R287
209  B015C005 V     C        11:56:25:11 11:56:26:11 04:12:51:11 04:12:52:11 
* FROM CLIP NAME:  113-1B* 
* SOURCE FILE: B015C005_170612_R6L6
210  B017C012 V     C        16:08:31:23 16:08:34:03 04:12:52:11 04:12:54:15 
* FROM CLIP NAME:  113E-1B* 
* SOURCE FILE: B017C012_170613_R6L6
211  B015C005 V     C        11:56:27:15 11:56:29:05 04:12:54:15 04:12:56:05 
* FROM CLIP NAME:  113-1B* 
* SOURCE FILE: B015C005_170612_R6L6
212  A019C001 V     C        16:41:47:10 16:41:49:04 04:12:56:05 04:12:57:23 
* FROM CLIP NAME:  113F-1A* 
* SOURCE FILE: A019C001_170612_R287
213  B017C008 V     C        15:28:09:10 15:28:10:15 04:12:57:23 04:12:59:04 
* FROM CLIP NAME:  113D-1B 
* SOURCE FILE: B017C008_170612_R6L6
214  A018C016 V     C        16:12:16:22 16:12:21:19 04:12:59:04 04:13:04:01 
* FROM CLIP NAME:  113E-1A* 
* SOURCE FILE: A018C016_170612_R287
215  B017C008 V     C        15:28:10:14 15:28:12:03 04:13:04:01 04:13:05:14 
* FROM CLIP NAME:  113D-1B 
* SOURCE FILE: B017C008_170612_R6L6
216  B015C005 V     C        11:56:39:20 11:56:44:10 04:13:05:14 04:13:10:04 
* FROM CLIP NAME:  113-1B* 
* SOURCE FILE: B015C005_170612_R6L6
217  A018C016 V     C        16:14:26:18 16:14:27:23 04:13:10:04 04:13:11:09 
* FROM CLIP NAME:  113E-1A* 
* SOURCE FILE: A018C016_170612_R287
218  A016C019 V     C        11:57:42:16 11:57:44:12 04:13:11:09 04:13:13:05 
* FROM CLIP NAME:  113-1A* 
* SOURCE FILE: A016C019_170611_R287
219  B015C005 V     C        11:57:46:09 11:57:48:01 04:13:13:05 04:13:14:21 
* FROM CLIP NAME:  113-1B* 
* SOURCE FILE: B015C005_170612_R6L6
220  B017C008 V     C        15:29:01:13 15:29:10:18 04:13:14:21 04:13:24:02 
* FROM CLIP NAME:  113D-1B 
* SOURCE FILE: B017C008_170612_R6L6
221  A016C019 V     C        11:57:56:02 11:57:59:13 04:13:24:02 04:13:27:13 
* FROM CLIP NAME:  113-1A* 
* SOURCE FILE: A016C019_170611_R287
222  A018C013 V     C        15:33:18:04 15:33:24:01 04:13:27:13 04:13:33:10 
* FROM CLIP NAME:  113D-2A* 
* SOURCE FILE: A018C013_170612_R287
223  A017C001 V     C        12:28:12:01 12:28:13:16 04:13:33:10 04:13:35:01 
* FROM CLIP NAME:  113-3A* 
* SOURCE FILE: A017C001_170611_R287
224  B018C001 V     C        16:43:28:09 16:43:31:05 04:13:35:01 04:13:37:21 
* FROM CLIP NAME:  113F-1B* 
* SOURCE FILE: B018C001_170613_R6L6
225  B017C009 V     C        15:34:05:16 15:34:07:14 04:13:37:21 04:13:39:19 
* FROM CLIP NAME:  113D-2B* 
* SOURCE FILE: B017C009_170612_R6L6
226  A018C016 V     C        16:10:48:19 16:10:52:07 04:13:39:19 04:13:43:07 
* FROM CLIP NAME:  113E-1A* 
* SOURCE FILE: A018C016_170612_R287
227  A019C001 V     C        16:43:37:12 16:43:44:02 04:13:43:07 04:13:49:21 
* FROM CLIP NAME:  113F-1A* 
* SOURCE FILE: A019C001_170612_R287
228  A018C016 V     C        16:14:05:09 16:14:08:22 04:13:49:21 04:13:53:10 
* FROM CLIP NAME:  113E-1A* 
* SOURCE FILE: A018C016_170612_R287
229  A016C019 V     C        11:58:28:22 11:58:34:02 04:13:53:10 04:13:58:14 
* FROM CLIP NAME:  113-1A* 
* SOURCE FILE: A016C019_170611_R287
230  B015C005 V     C        11:58:50:08 11:58:54:03 04:13:58:14 04:14:02:09 
* FROM CLIP NAME:  113-1B* 
* SOURCE FILE: B015C005_170612_R6L6
231  B015C008 V     C        12:35:16:18 12:35:17:21 04:14:02:09 04:14:03:12 
* FROM CLIP NAME:  113-4B* 
* SOURCE FILE: B015C008_170612_R6L6
232  B018C001 V     C        16:44:46:17 16:44:55:13 04:14:03:12 04:14:12:08 
* FROM CLIP NAME:  113F-1B* 
* SOURCE FILE: B018C001_170613_R6L6
233  A018C013 V     C        15:34:59:21 15:35:00:17 04:14:12:08 04:14:13:04 
* FROM CLIP NAME:  113D-2A* 
* SOURCE FILE: A018C013_170612_R287
234  A016C019 V     C        11:59:43:09 11:59:45:14 04:14:13:04 04:14:15:09 
* FROM CLIP NAME:  113-1A* 
* SOURCE FILE: A016C019_170611_R287
235  A016C020 V     C        12:11:30:09 12:11:32:05 04:14:15:09 04:14:17:05 
* FROM CLIP NAME:  113-2A* 
* SOURCE FILE: A016C020_170611_R287
236  A018C015 V     C        15:48:16:19 15:48:22:14 04:14:17:05 04:14:23:00 
* FROM CLIP NAME:  113D-4A* 
* SOURCE FILE: A018C015_170612_R287
237  A016C020 V     C        12:13:56:11 12:13:59:04 04:14:23:00 04:14:25:17 
* FROM CLIP NAME:  113-2A* 
* SOURCE FILE: A016C020_170611_R287
238  A018C013 V     C        15:35:38:14 15:35:42:05 04:14:25:17 04:14:29:08 
* FROM CLIP NAME:  113D-2A* 
* SOURCE FILE: A018C013_170612_R287
239  A017C002 V     C        12:36:07:00 12:36:07:17 04:14:29:08 04:14:30:01 
* FROM CLIP NAME:  113-4A* 
* SOURCE FILE: A017C002_170611_R287
240  A018C015 V     C        15:53:44:22 15:53:51:07 04:14:30:01 04:14:36:10 
* FROM CLIP NAME:  113D-4A* 
* SOURCE FILE: A018C015_170612_R287
241  A018C016 V     C        16:15:57:17 16:16:00:23 04:14:36:10 04:14:39:16 
* FROM CLIP NAME:  113E-1A* 
* SOURCE FILE: A018C016_170612_R287
242  A017C002 V     C        12:36:50:23 12:36:53:13 04:14:39:16 04:14:42:06 
* FROM CLIP NAME:  113-4A* 
* SOURCE FILE: A017C002_170611_R287
243  A016C019 V     C        12:00:36:22 12:00:39:10 04:14:42:06 04:14:44:18 
* FROM CLIP NAME:  113-1A* 
* SOURCE FILE: A016C019_170611_R287
244  A018C015 V     C        15:53:58:22 15:54:03:14 04:14:44:18 04:14:49:10 
* FROM CLIP NAME:  113D-4A* 
* SOURCE FILE: A018C015_170612_R287
245  A017C003 V     C        12:46:50:12 12:46:54:09 04:14:49:10 04:14:53:07 
* FROM CLIP NAME:  113A-1A* 
* SOURCE FILE: A017C003_170611_R287
246  A019C001 V     C        16:48:25:16 16:48:29:11 04:14:53:07 04:14:57:02 
* FROM CLIP NAME:  113F-1A* 
* SOURCE FILE: A019C001_170612_R287
247  A017C003 V     C        12:46:59:21 12:47:01:16 04:14:57:02 04:14:58:21 
* FROM CLIP NAME:  113A-1A* 
* SOURCE FILE: A017C003_170611_R287
248  A019C001 V     C        16:48:31:06 16:48:32:03 04:14:58:21 04:14:59:18 
* FROM CLIP NAME:  113F-1A* 
* SOURCE FILE: A019C001_170612_R287
249  A016C019 V     C        12:00:48:07 12:00:49:10 04:14:59:18 04:15:00:21 
* FROM CLIP NAME:  113-1A* 
* SOURCE FILE: A016C019_170611_R287
250  B017C011 V     C        15:54:14:23 15:54:16:15 04:15:00:21 04:15:02:13 
* FROM CLIP NAME:  113D-4B* 
* SOURCE FILE: B017C011_170612_R6L6
251  A018C015 V     C        15:54:17:23 15:54:18:23 04:15:02:13 04:15:03:13 
* FROM CLIP NAME:  113D-4A* 
* SOURCE FILE: A018C015_170612_R287
252  A016C020 V     C        12:14:26:17 12:14:29:13 04:15:03:13 04:15:06:09 
* FROM CLIP NAME:  113-2A* 
* SOURCE FILE: A016C020_170611_R287
253  A016C019 V     C        12:00:57:17 12:00:59:17 04:15:06:09 04:15:08:09 
* FROM CLIP NAME:  113-1A* 
* SOURCE FILE: A016C019_170611_R287
254  A016C020 V     C        12:15:25:16 12:15:28:18 04:15:08:09 04:15:11:11 
* FROM CLIP NAME:  113-2A* 
* SOURCE FILE: A016C020_170611_R287
255  B018C001 V     C        16:50:15:20 16:50:17:07 04:15:11:11 04:15:12:22 
* FROM CLIP NAME:  113F-1B* 
* SOURCE FILE: B018C001_170613_R6L6
256  B017C011 V     C        15:54:45:02 15:54:46:16 04:15:12:22 04:15:14:12 
* FROM CLIP NAME:  113D-4B* 
* SOURCE FILE: B017C011_170612_R6L6
257  B015C008 V     C        12:38:20:06 12:38:24:01 04:15:14:12 04:15:18:07 
* FROM CLIP NAME:  113-4B* 
* SOURCE FILE: B015C008_170612_R6L6
258  A016C020 V     C        12:21:45:15 12:21:49:15 04:15:18:07 04:15:22:07 
* FROM CLIP NAME:  113-2A* 
* SOURCE FILE: A016C020_170611_R287
259  A019C001 V     C        16:50:58:20 16:51:02:08 04:15:22:07 04:15:25:19 
* FROM CLIP NAME:  113F-1A* 
* SOURCE FILE: A019C001_170612_R287
260  B017C009 V     C        15:37:06:21 15:37:08:04 04:15:25:19 04:15:27:02 
* FROM CLIP NAME:  113D-2B* 
* SOURCE FILE: B017C009_170612_R6L6
261  B015C006 V     C        12:18:49:15 12:18:53:03 04:15:27:02 04:15:30:14 
* FROM CLIP NAME:  113-2B* 
* SOURCE FILE: B015C006_170612_R6L6
262  B017C009 V     C        15:37:13:13 15:37:14:23 04:15:30:14 04:15:32:00 
* FROM CLIP NAME:  113D-2B* 
* SOURCE FILE: B017C009_170612_R6L6
263  A019C001 V     C        16:49:10:09 16:49:11:15 04:15:32:00 04:15:33:06 
* FROM CLIP NAME:  113F-1A* 
* SOURCE FILE: A019C001_170612_R287
264  A016C020 V     C        12:20:41:13 12:20:46:20 04:15:33:06 04:15:38:13 
* FROM CLIP NAME:  113-2A* 
* SOURCE FILE: A016C020_170611_R287
265  A018C016 V     C        16:17:42:00 16:17:45:16 04:15:38:13 04:15:42:05 
* FROM CLIP NAME:  113E-1A* 
* SOURCE FILE: A018C016_170612_R287
266  A017C002 V     C        12:39:25:15 12:39:28:17 04:15:42:05 04:15:45:07 
* FROM CLIP NAME:  113-4A* 
* SOURCE FILE: A017C002_170611_R287
267  A017C004 V     C        13:02:51:23 13:02:53:20 04:15:45:07 04:15:47:04 
* FROM CLIP NAME:  115-1A* 
* SOURCE FILE: A017C004_170611_R287
268  A018C016 V     C        16:18:55:12 16:18:56:13 04:15:47:04 04:15:48:05 
* FROM CLIP NAME:  113E-1A* 
* SOURCE FILE: A018C016_170612_R287
269  B018C001 V     C        16:51:25:02 16:51:26:18 04:15:48:05 04:15:49:21 
* FROM CLIP NAME:  113F-1B* 
* SOURCE FILE: B018C001_170613_R6L6
270  B016C001 V     C        12:48:42:21 12:48:48:02 04:15:49:21 04:15:55:02 
* FROM CLIP NAME:  113A-1B* 
* SOURCE FILE: B016C001_170612_R6L6
271  B037C022 V     C        19:52:04:18 19:52:10:10 04:15:55:02 04:16:00:18 
* FROM CLIP NAME:  110A-1B* 
* SOURCE FILE: B037C022_170620_R6L6
272  B037C018 V     C        18:55:13:16 18:55:19:16 04:16:00:18 04:16:06:18 
* FROM CLIP NAME:  109-7* 
* SOURCE FILE: B037C018_170620_R6L6
273  A005C002 V     C        01:53:56:15 01:53:59:13 04:16:06:18 04:16:09:16 
* FROM CLIP NAME:  R118-2* 
* SOURCE FILE: A005C002_171219_R56K
274  B008C015 V     C        16:49:06:12 16:49:11:00 04:16:09:16 04:16:14:04 
* FROM CLIP NAME:  118B-2B* 
* SOURCE FILE: B008C015_170609_R6L6
275  B008C018 V     C        17:00:32:19 17:00:34:10 04:16:14:04 04:16:15:19 
* FROM CLIP NAME:  118C-1B* 
* SOURCE FILE: B008C018_170609_R6L6
276  B009C005 V     C        17:52:37:16 17:52:39:04 04:16:15:19 04:16:17:07 
* FROM CLIP NAME:  118E-2B* 
* SOURCE FILE: B009C005_170609_R6L6
277  A009C028 V     C        17:02:47:19 17:02:52:21 04:16:17:07 04:16:22:09 
* FROM CLIP NAME:  118C-1A* 
* SOURCE FILE: A009C028_170608_R287
278  A010C007 V     C        17:57:51:20 17:57:54:20 04:16:22:09 04:16:25:09 
* FROM CLIP NAME:  118E-4A* 
* SOURCE FILE: A010C007_170608_R287
279  A009C029 V     C        17:06:06:12 17:06:08:16 04:16:25:09 04:16:27:13 
* FROM CLIP NAME:  118C-2A* 
* SOURCE FILE: A009C029_170608_R287
280  B009C004 V     C        17:49:45:12 17:49:46:20 04:16:27:13 04:16:28:21 
* FROM CLIP NAME:  118E-1B 
* SOURCE FILE: B009C004_170609_R6L6
281  A009C028 V     C        17:03:27:09 17:03:28:17 04:16:28:21 04:16:30:05 
* FROM CLIP NAME:  118C-1A* 
* SOURCE FILE: A009C028_170608_R287
282  B009C001 V     C        17:20:27:09 17:20:28:14 04:16:30:05 04:16:31:10 
* FROM CLIP NAME:  118D-1* 
* SOURCE FILE: B009C001_170609_R6L6
283  A010C005 V     C        17:55:54:02 17:55:54:21 04:16:31:10 04:16:32:05 
* FROM CLIP NAME:  118E-3A* 
* SOURCE FILE: A010C005_170608_R287
284  A009C028 V     C        17:00:50:17 17:00:58:22 04:16:32:05 04:16:40:10 
* FROM CLIP NAME:  118C-1A* 
* SOURCE FILE: A009C028_170608_R287
285  A009C023 V     C        16:35:50:05 16:35:53:13 04:16:40:10 04:16:43:18 
* FROM CLIP NAME:  118A-2A* 
* SOURCE FILE: A009C023_170608_R287
286  A009C025 V     C        16:49:44:00 16:49:45:04 04:16:43:18 04:16:44:22 
* FROM CLIP NAME:  118B-2A* 
* SOURCE FILE: A009C025_170608_R287
287  A010C004 V     C        17:53:07:07 17:53:08:15 04:16:44:22 04:16:46:06 
* FROM CLIP NAME:  118E-2A* 
* SOURCE FILE: A010C004_170608_R287
288  A010C021 V     C        18:56:43:01 18:56:45:20 04:16:46:06 04:16:49:01 
* FROM CLIP NAME:  118F-4A* 
* SOURCE FILE: A010C021_170608_R287
289  A010C003 V     C        17:50:13:12 17:50:17:11 04:16:49:01 04:16:53:00 
* FROM CLIP NAME:  118E-1A 
* SOURCE FILE: A010C003_170608_R287
290  A010C021 V     C        18:56:49:03 18:56:50:09 04:16:53:00 04:16:54:06 
* FROM CLIP NAME:  118F-4A* 
* SOURCE FILE: A010C021_170608_R287
291  A009C023 V     C        16:36:34:16 16:36:35:18 04:16:54:06 04:16:55:08 
* FROM CLIP NAME:  118A-2A* 
* SOURCE FILE: A009C023_170608_R287
292  B009C006 V     C        17:56:20:08 17:56:21:16 04:16:55:08 04:16:56:16 
* FROM CLIP NAME:  118E-3B* 
* SOURCE FILE: B009C006_170609_R6L6
293  B008C009 V     C        16:19:43:15 16:19:45:12 04:16:56:16 04:16:58:13 
* FROM CLIP NAME:  118-3B* 
* SOURCE FILE: B008C009_170609_R6L6
294  A009C019 V     C        16:19:45:12 16:19:48:23 04:16:58:13 04:17:02:00 
* FROM CLIP NAME:  118-3A* 
* SOURCE FILE: A009C019_170608_R287
295  A010C021 V     C        18:59:37:15 18:59:39:02 04:17:02:00 04:17:03:11 
* FROM CLIP NAME:  118F-4A* 
* SOURCE FILE: A010C021_170608_R287
296  A010C003 V     C        17:50:19:04 17:50:20:20 04:17:03:11 04:17:05:03 
* FROM CLIP NAME:  118E-1A 
* SOURCE FILE: A010C003_170608_R287
297  A010C021 V     C        18:59:40:18 18:59:51:10 04:17:05:03 04:17:15:19 
* FROM CLIP NAME:  118F-4A* 
* SOURCE FILE: A010C021_170608_R287
298  B009C005 V     C        17:53:27:19 17:53:30:00 04:17:15:19 04:17:18:00 
* FROM CLIP NAME:  118E-2B* 
* SOURCE FILE: B009C005_170609_R6L6
299  A009C025 V     C        16:50:09:20 16:50:11:18 04:17:18:00 04:17:19:22 
* FROM CLIP NAME:  118B-2A* 
* SOURCE FILE: A009C025_170608_R287
300  A009C022 V     C        16:30:28:15 16:30:30:11 04:17:19:22 04:17:21:18 
* FROM CLIP NAME:  118A-1A* 
* SOURCE FILE: A009C022_170608_R287
301  A006C003 V     C        08:23:58:19 08:24:01:15 04:17:21:18 04:17:24:14 
* FROM CLIP NAME:  119-3A 
* SOURCE FILE: A006C003_170607_R287
302  A009C001 V     C        14:49:02:14 14:49:06:15 04:17:24:14 04:17:28:15 
* FROM CLIP NAME:  119G-1A* 
* SOURCE FILE: A009C001_170607_R287
303  A006C009 V     C        08:58:52:14 08:58:55:19 04:17:28:15 04:17:31:20 
* FROM CLIP NAME:  119A-1A* 
* SOURCE FILE: A006C009_170607_R287
304  A007C010 V     C        11:24:57:14 11:25:02:13 04:17:31:20 04:17:36:19 
* FROM CLIP NAME:  119D-3A* 
* SOURCE FILE: A007C010_170607_R287
305  B006C008 V     C        10:23:34:05 10:23:36:17 04:17:36:19 04:17:39:07 
* FROM CLIP NAME:  119C-1 
* SOURCE FILE: B006C008_170608_R6L6
306  B007C009 V     C        12:51:30:21 12:51:32:14 04:17:39:07 04:17:41:00 
* FROM CLIP NAME:  119F-1* 
* SOURCE FILE: B007C009_170608_R6L6
307  A010C011 V     C        18:14:50:14 18:14:55:00 04:17:41:00 04:17:45:10 
* FROM CLIP NAME:  120A-4A* 
* SOURCE FILE: A010C011_170608_R287
308  B009C011 V     C        18:14:54:10 18:14:56:02 04:17:45:10 04:17:47:02 
* FROM CLIP NAME:  120A-4B* 
* SOURCE FILE: B009C011_170609_R6L6
309  B005C008 V     C        08:59:12:16 08:59:14:02 04:17:47:02 04:17:48:12 
* FROM CLIP NAME:  119A-1B* 
* SOURCE FILE: B005C008_170608_R6L6
310  B007C001 V     C        11:34:16:06 11:34:20:23 04:17:48:12 04:17:53:05 
* FROM CLIP NAME:  119D-5B* 
* SOURCE FILE: B007C001_170608_R6L6
311  A007C003 V     C        09:47:10:00 09:47:12:13 04:17:53:05 04:17:55:18 
* FROM CLIP NAME:  119B-1A* 
* SOURCE FILE: A007C003_170607_R287
312  A007C010 V     C        11:26:56:16 11:27:01:20 04:17:55:18 04:18:00:22 
* FROM CLIP NAME:  119D-3A* 
* SOURCE FILE: A007C010_170607_R287
313  A007C003 V     C        09:49:13:17 09:49:20:01 04:18:00:22 04:18:07:06 
* FROM CLIP NAME:  119B-1A* 
* SOURCE FILE: A007C003_170607_R287
314  A008C010 V     C        12:28:36:18 12:28:40:06 04:18:07:06 04:18:10:18 
* FROM CLIP NAME:  121A-2* 
* SOURCE FILE: A008C010_170607_R287
315  A007C007 V     C        10:37:27:09 10:37:29:01 04:18:10:18 04:18:12:10 
* FROM CLIP NAME:  121-2* 
* SOURCE FILE: A007C007_170607_R287
316  A010C015 V     C        18:33:45:05 18:33:50:19 04:18:12:10 04:18:18:00 
* FROM CLIP NAME:  120C-1A* 
* SOURCE FILE: A010C015_170608_R287
317  A012C002 V     C        19:09:41:22 19:09:44:00 04:18:18:00 04:18:20:02 
* FROM CLIP NAME:  120D-2A* 
* SOURCE FILE: A012C002_170609_R287
318  A010C015 V     C        18:33:53:08 18:33:56:02 04:18:20:02 04:18:22:20 
* FROM CLIP NAME:  120C-1A* 
* SOURCE FILE: A010C015_170608_R287
319  A010C014 V     C        18:27:05:19 18:27:06:21 04:18:22:20 04:18:23:22 
* FROM CLIP NAME:  120B-3A* 
* SOURCE FILE: A010C014_170608_R287
320  B009C014 V     C        18:35:42:12 18:35:45:11 04:18:23:22 04:18:26:21 
* FROM CLIP NAME:  120C-2B* 
* SOURCE FILE: B009C014_170609_R6L6
321  A008C010 V     C        12:28:43:20 12:28:47:11 04:18:26:21 04:18:30:12 
* FROM CLIP NAME:  121A-2* 
* SOURCE FILE: A008C010_170607_R287
322  A007C007 V     C        10:37:37:10 10:37:39:07 04:18:30:12 04:18:32:09 
* FROM CLIP NAME:  121-2* 
* SOURCE FILE: A007C007_170607_R287
323  A008C010 V     C        12:28:52:01 12:28:54:12 04:18:32:09 04:18:34:20 
* FROM CLIP NAME:  121A-2* 
* SOURCE FILE: A008C010_170607_R287
324  A007C007 V     C        10:37:42:19 10:37:45:20 04:18:34:20 04:18:37:21 
* FROM CLIP NAME:  121-2* 
* SOURCE FILE: A007C007_170607_R287
325  B006C002 V     C        09:36:20:14 09:36:23:06 04:18:37:21 04:18:40:13 
* FROM CLIP NAME:  119A-8B* 
* SOURCE FILE: B006C002_170608_R6L6
326  A008C003 V     C        11:43:00:13 11:43:02:07 04:18:40:13 04:18:42:07 
* FROM CLIP NAME:  119D-7A* 
* SOURCE FILE: A008C003_170607_R287
327  A008C006 V     C        12:00:37:06 12:00:39:05 04:18:42:07 04:18:44:06 
* FROM CLIP NAME:  119E-2A* 
* SOURCE FILE: A008C006_170607_R287
328  A007C003 V     C        09:52:07:04 09:52:10:14 04:18:44:06 04:18:47:16 
* FROM CLIP NAME:  119B-1A* 
* SOURCE FILE: A007C003_170607_R287
329  B007C001 V     C        11:35:08:18 11:35:13:12 04:18:47:16 04:18:52:10 
* FROM CLIP NAME:  119D-5B* 
* SOURCE FILE: B007C001_170608_R6L6
330  A006C016 V     C        09:21:33:17 09:21:40:10 04:18:52:10 04:18:55:19 
* FROM CLIP NAME:  119A-7A* 48FPS 
* SOURCE FILE: A006C016_170607_R287
331  A007C003 V     C        09:52:20:19 09:52:23:09 04:18:55:19 04:18:58:09 
* FROM CLIP NAME:  119B-1A* 
* SOURCE FILE: A007C003_170607_R287
332  A008C007 V     C        12:03:44:05 12:03:48:14 04:18:58:09 04:19:00:14 
* FROM CLIP NAME:  119E-3A* 48FPS 
* SOURCE FILE: A008C007_170607_R287
333  A007C005 V     C        09:56:59:15 09:57:03:14 04:19:00:14 04:19:02:14 
* FROM CLIP NAME:  119B-3A* 48FPS 
* SOURCE FILE: A007C005_170607_R287
334  B008C006 V     C        15:20:46:19 15:20:48:12 04:19:02:14 04:19:03:11 
* FROM CLIP NAME:  119G-7B* 48FPS 
* SOURCE FILE: B008C006_170608_R6L6
335  A007C005 V     C        09:58:25:05 09:58:30:04 04:19:03:11 04:19:05:23 
* FROM CLIP NAME:  119B-3A* 48FPS 
* SOURCE FILE: A007C005_170607_R287
336  B007C004 V     C        11:47:12:15 11:47:13:20 04:19:05:23 04:19:06:14 
* FROM CLIP NAME:  119D-8B* 48FPS 
* SOURCE FILE: B007C004_170608_R6L6
337  A010C014 V     C        18:27:12:00 18:27:13:14 04:19:06:14 04:19:08:04 
* FROM CLIP NAME:  120B-3A* 
* SOURCE FILE: A010C014_170608_R287
338  A010C009 V     C        18:11:27:20 18:11:29:02 04:19:08:04 04:19:09:10 
* FROM CLIP NAME:  120A-2A* 
* SOURCE FILE: A010C009_170608_R287
339  A009C008 V     C        15:41:58:11 15:41:59:10 04:19:09:10 04:19:10:09 
* FROM CLIP NAME:  124-1* 
* SOURCE FILE: A009C008_170608_R287
340  A007C005 V     C        09:58:41:01 09:58:43:00 04:19:10:09 04:19:11:09 
* FROM CLIP NAME:  119B-3A* 48FPS 
* SOURCE FILE: A007C005_170607_R287
341  B008C004 V     C        15:14:23:09 15:14:26:22 04:19:11:09 04:19:13:04 
* FROM CLIP NAME:  119G-5B 48FPS 
* SOURCE FILE: B008C004_170608_R6L6
342  A010C011 V     C        18:15:19:15 18:15:21:06 04:19:13:04 04:19:14:19 
* FROM CLIP NAME:  120A-4A* 
* SOURCE FILE: A010C011_170608_R287
343  A008C004 V     C        11:47:02:06 11:47:05:21 04:19:14:19 04:19:16:15 
* FROM CLIP NAME:  119D-8A* 48FPS 
* SOURCE FILE: A008C004_170607_R287
344  A006C010 V     C        09:03:39:08 09:03:41:21 04:19:16:15 04:19:17:22 
* FROM CLIP NAME:  119A-2A* 48FPS 
* SOURCE FILE: A006C010_170607_R287
345  A006C010 V     C        09:03:42:10 09:03:44:09 04:19:17:22 04:19:18:22 
* FROM CLIP NAME:  119A-2A* 48FPS 
* SOURCE FILE: A006C010_170607_R287
346  B006C006 V     C        10:41:45:07 10:41:47:22 04:19:18:22 04:19:20:06 
* FROM CLIP NAME:  127-1 48FPS 
* SOURCE FILE: B006C006_170608_R6L6
347  A011C032 V     C        17:28:21:09 17:28:23:20 04:19:20:06 04:19:21:12 
* FROM CLIP NAME:  126-2A* 48FPS 
* SOURCE FILE: A011C032_170609_R287
348  A011C035 V     C        17:31:30:08 17:31:33:23 04:19:21:12 04:19:23:08 
* FROM CLIP NAME:  126A-1A* 48FPS 
* SOURCE FILE: A011C035_170609_R287
349  B010C034 V     C        18:05:44:15 18:05:46:18 04:19:23:08 04:19:24:10 
* FROM CLIP NAME:  126-4B* 48FPS 
* SOURCE FILE: B010C034_170610_R6L6
350  A011C034 V     C        17:30:24:17 17:30:27:10 04:19:24:10 04:19:25:19 
* FROM CLIP NAME:  126-5A* 48FPS 
* SOURCE FILE: A011C034_170609_R287
351  A006C015 V     C        09:19:14:03 09:19:18:08 04:19:25:19 04:19:27:22 
* FROM CLIP NAME:  119A-6A* 48FPS 
* SOURCE FILE: A006C015_170607_R287
352  A008C007 V     C        12:05:25:09 12:05:28:18 04:19:27:22 04:19:29:15 
* FROM CLIP NAME:  119E-3A* 48FPS 
* SOURCE FILE: A008C007_170607_R287
353  A007C005 V     C        09:59:12:19 09:59:19:14 04:19:29:15 04:19:33:01 
* FROM CLIP NAME:  119B-3A* 48FPS 
* SOURCE FILE: A007C005_170607_R287
354  A011C037 V     C        17:34:21:16 17:34:24:11 04:19:33:01 04:19:34:11 
* FROM CLIP NAME:  126A-3A* 48FPS 
* SOURCE FILE: A011C037_170609_R287
355  A011C035 V     C        17:31:41:10 17:31:44:05 04:19:34:11 04:19:35:21 
* FROM CLIP NAME:  126A-1A* 48FPS 
* SOURCE FILE: A011C035_170609_R287
356  A011C039 V     C        17:35:56:00 17:35:59:03 04:19:35:21 04:19:37:11 
* FROM CLIP NAME:  126A-4* 48FPS 
* SOURCE FILE: A011C039_170609_R287
357  B007C007 V     C        12:08:59:00 12:09:03:05 04:19:37:11 04:19:39:14 
* FROM CLIP NAME:  119E-3B* 48FPS 
* SOURCE FILE: B007C007_170608_R6L6
358  A008C007 V     C        12:06:40:05 12:06:43:06 04:19:39:14 04:19:41:03 
* FROM CLIP NAME:  119E-3A* 48FPS 
* SOURCE FILE: A008C007_170607_R287
359  B007C007 V     C        12:09:07:14 12:09:09:07 04:19:41:03 04:19:42:00 
* FROM CLIP NAME:  119E-3B* 48FPS 
* SOURCE FILE: B007C007_170608_R6L6
360  B006C007 V     C        10:48:00:02 10:48:07:05 04:19:42:00 04:19:45:14 
* FROM CLIP NAME:  127-2* 48FPS 
* SOURCE FILE: B006C007_170608_R6L6
361  B007C011 V     C        13:03:11:09 13:03:15:12 04:19:45:14 04:19:47:16 
* FROM CLIP NAME:  119F-3* 48FPS PU 
* SOURCE FILE: B007C011_170608_R6L6
362  A007C005 V     C        09:59:36:19 09:59:38:12 04:19:47:16 04:19:48:13 
* FROM CLIP NAME:  119B-3A* 48FPS 
* SOURCE FILE: A007C005_170607_R287
363  A006C006 V     C        08:34:18:21 08:34:23:16 04:19:48:13 04:19:50:23 
* FROM CLIP NAME:  119-6A 48FPS 
* SOURCE FILE: A006C006_170607_R287
364  B006C005 V     C        10:08:30:23 10:08:35:06 04:19:50:23 04:19:53:03 
* FROM CLIP NAME:  119B-3B* 48FPS 
* SOURCE FILE: B006C005_170608_R6L6
365  B005C014 V     C        09:24:29:12 09:24:31:21 04:19:53:03 04:19:54:08 
* FROM CLIP NAME:  119A-6B* 48FPS 
* SOURCE FILE: B005C014_170608_R6L6
366  B007C004 V     C        11:48:05:11 11:48:07:14 04:19:54:08 04:19:55:10 
* FROM CLIP NAME:  119D-8B* 48FPS 
* SOURCE FILE: B007C004_170608_R6L6
367  A006C005 V     C        08:31:21:13 08:31:23:02 04:19:55:10 04:19:56:05 
* FROM CLIP NAME:  119-5A* 48FPS 
* SOURCE FILE: A006C005_170607_R287
368  B007C004 V     C        11:48:08:19 11:48:10:12 04:19:56:05 04:19:57:02 
* FROM CLIP NAME:  119D-8B* 48FPS 
* SOURCE FILE: B007C004_170608_R6L6
369  B005C007 V     C        08:54:38:16 08:54:41:03 04:19:57:02 04:19:58:08 
* FROM CLIP NAME:  119-7B* 48FPS 
* SOURCE FILE: B005C007_170608_R6L6
370  B007C004 V     C        11:48:10:17 11:48:11:14 04:19:58:08 04:19:58:19 
* FROM CLIP NAME:  119D-8B* 48FPS 
* SOURCE FILE: B007C004_170608_R6L6
371  A008C012 V     C        12:40:13:22 12:40:16:21 04:19:58:19 04:20:00:07 
* FROM CLIP NAME:  127A-2* 48FPS 
* SOURCE FILE: A008C012_170607_R287
372  A008C008 V     C        12:11:11:19 12:11:15:06 04:20:00:07 04:20:02:01 
* FROM CLIP NAME:  119E-4A* 48FPS 
* SOURCE FILE: A008C008_170607_R287
373  A008C012 V     C        12:40:22:08 12:40:26:13 04:20:02:01 04:20:04:04 
* FROM CLIP NAME:  127A-2* 48FPS 
* SOURCE FILE: A008C012_170607_R287
374  A008C008 V     C        12:11:17:03 12:11:19:09 04:20:04:04 04:20:06:10 
* FROM CLIP NAME:  119E-4A* 
* SOURCE FILE: A008C008_170607_R287
375  B007C008 V     C        12:14:51:08 12:14:54:23 04:20:06:10 04:20:10:01 
* FROM CLIP NAME:  119E-4B* 
* SOURCE FILE: B007C008_170608_R6L6
376  TAIL_LEA V     C        01:00:00:00 01:00:02:00 04:20:10:01 04:20:12:01 
* FROM CLIP NAME:  TAIL LEADER 1920X1080 2398 
* SOURCE FILE: TAIL LEADER 1920X1080 2398 DNXHD80.MOV